%TF.GenerationSoftware,KiCad,Pcbnew,(6.0.7)*%
%TF.CreationDate,2022-09-15T17:32:09-05:00*%
%TF.ProjectId,Simplified01,53696d70-6c69-4666-9965-6430312e6b69,rev?*%
%TF.SameCoordinates,Original*%
%TF.FileFunction,Paste,Top*%
%TF.FilePolarity,Positive*%
%FSLAX46Y46*%
G04 Gerber Fmt 4.6, Leading zero omitted, Abs format (unit mm)*
G04 Created by KiCad (PCBNEW (6.0.7)) date 2022-09-15 17:32:09*
%MOMM*%
%LPD*%
G01*
G04 APERTURE LIST*
G04 Aperture macros list*
%AMRoundRect*
0 Rectangle with rounded corners*
0 $1 Rounding radius*
0 $2 $3 $4 $5 $6 $7 $8 $9 X,Y pos of 4 corners*
0 Add a 4 corners polygon primitive as box body*
4,1,4,$2,$3,$4,$5,$6,$7,$8,$9,$2,$3,0*
0 Add four circle primitives for the rounded corners*
1,1,$1+$1,$2,$3*
1,1,$1+$1,$4,$5*
1,1,$1+$1,$6,$7*
1,1,$1+$1,$8,$9*
0 Add four rect primitives between the rounded corners*
20,1,$1+$1,$2,$3,$4,$5,0*
20,1,$1+$1,$4,$5,$6,$7,0*
20,1,$1+$1,$6,$7,$8,$9,0*
20,1,$1+$1,$8,$9,$2,$3,0*%
G04 Aperture macros list end*
%ADD10RoundRect,0.250000X0.400000X0.625000X-0.400000X0.625000X-0.400000X-0.625000X0.400000X-0.625000X0*%
%ADD11R,3.050000X2.750000*%
%ADD12R,2.200000X1.200000*%
%ADD13RoundRect,0.250000X0.550000X-1.250000X0.550000X1.250000X-0.550000X1.250000X-0.550000X-1.250000X0*%
%ADD14RoundRect,0.150000X0.150000X-0.587500X0.150000X0.587500X-0.150000X0.587500X-0.150000X-0.587500X0*%
%ADD15RoundRect,0.250000X0.625000X-0.400000X0.625000X0.400000X-0.625000X0.400000X-0.625000X-0.400000X0*%
%ADD16RoundRect,0.250000X-0.625000X0.400000X-0.625000X-0.400000X0.625000X-0.400000X0.625000X0.400000X0*%
%ADD17RoundRect,0.250000X0.412500X0.650000X-0.412500X0.650000X-0.412500X-0.650000X0.412500X-0.650000X0*%
%ADD18RoundRect,0.250000X0.650000X-0.412500X0.650000X0.412500X-0.650000X0.412500X-0.650000X-0.412500X0*%
%ADD19R,1.100000X1.100000*%
G04 APERTURE END LIST*
D10*
X140103251Y-96545751D03*
X137003251Y-96545751D03*
D11*
X142280251Y-89686751D03*
X142280251Y-92736751D03*
X145630251Y-92736751D03*
X145630251Y-89686751D03*
D12*
X137655251Y-88931751D03*
X137655251Y-91211751D03*
X137655251Y-93491751D03*
D10*
X128673251Y-92227751D03*
X125573251Y-92227751D03*
D11*
X142280251Y-85370751D03*
X145630251Y-85370751D03*
X145630251Y-82320751D03*
X142280251Y-82320751D03*
D12*
X137655251Y-81565751D03*
X137655251Y-83845751D03*
X137655251Y-86125751D03*
D13*
X150999251Y-85283751D03*
X150999251Y-80883751D03*
D10*
X131213251Y-99339751D03*
X128113251Y-99339751D03*
D14*
X114743251Y-108659251D03*
X116643251Y-108659251D03*
X115693251Y-106784251D03*
D11*
X120300251Y-85622751D03*
X123650251Y-88672751D03*
X123650251Y-85622751D03*
X120300251Y-88672751D03*
D12*
X128275251Y-89427751D03*
X128275251Y-84867751D03*
D15*
X147189251Y-100127751D03*
X147189251Y-97027751D03*
X139569251Y-108483751D03*
X139569251Y-105383751D03*
D16*
X114931251Y-112013751D03*
X114931251Y-115113751D03*
D13*
X150999251Y-93665751D03*
X150999251Y-89265751D03*
D17*
X134527751Y-91211751D03*
X131402751Y-91211751D03*
D15*
X147189251Y-105461751D03*
X147189251Y-102361751D03*
D18*
X134489251Y-85916251D03*
X134489251Y-82791251D03*
D19*
X131441251Y-86001751D03*
X131441251Y-88801751D03*
D11*
X115690251Y-98830751D03*
X115690251Y-101880751D03*
X119040251Y-101880751D03*
X119040251Y-98830751D03*
M02*
