%TF.GenerationSoftware,KiCad,Pcbnew,(6.0.7)*%
%TF.CreationDate,2022-09-15T17:32:09-05:00*%
%TF.ProjectId,Simplified01,53696d70-6c69-4666-9965-6430312e6b69,rev?*%
%TF.SameCoordinates,Original*%
%TF.FileFunction,Paste,Bot*%
%TF.FilePolarity,Positive*%
%FSLAX46Y46*%
G04 Gerber Fmt 4.6, Leading zero omitted, Abs format (unit mm)*
G04 Created by KiCad (PCBNEW (6.0.7)) date 2022-09-15 17:32:09*
%MOMM*%
%LPD*%
G01*
G04 APERTURE LIST*
%ADD10C,0.150000*%
%ADD11R,1.600000X2.000000*%
G04 APERTURE END LIST*
D10*
X144728203Y-72825131D02*
X145204393Y-72825131D01*
X145204393Y-71825131D01*
X144252012Y-72825131D02*
X144347251Y-72777512D01*
X144394870Y-72729893D01*
X144442489Y-72634655D01*
X144442489Y-72348941D01*
X144394870Y-72253703D01*
X144347251Y-72206084D01*
X144252012Y-72158465D01*
X144109155Y-72158465D01*
X144013917Y-72206084D01*
X143966298Y-72253703D01*
X143918679Y-72348941D01*
X143918679Y-72634655D01*
X143966298Y-72729893D01*
X144013917Y-72777512D01*
X144109155Y-72825131D01*
X144252012Y-72825131D01*
X143490108Y-72825131D02*
X143490108Y-72158465D01*
X143490108Y-72348941D02*
X143442489Y-72253703D01*
X143394870Y-72206084D01*
X143299631Y-72158465D01*
X143204393Y-72158465D01*
X142442489Y-72825131D02*
X142442489Y-71825131D01*
X142442489Y-72777512D02*
X142537727Y-72825131D01*
X142728203Y-72825131D01*
X142823441Y-72777512D01*
X142871060Y-72729893D01*
X142918679Y-72634655D01*
X142918679Y-72348941D01*
X142871060Y-72253703D01*
X142823441Y-72206084D01*
X142728203Y-72158465D01*
X142537727Y-72158465D01*
X142442489Y-72206084D01*
X140728203Y-72825131D02*
X141204393Y-72825131D01*
X141204393Y-71825131D01*
X139966298Y-72825131D02*
X139966298Y-72301322D01*
X140013917Y-72206084D01*
X140109155Y-72158465D01*
X140299631Y-72158465D01*
X140394870Y-72206084D01*
X139966298Y-72777512D02*
X140061536Y-72825131D01*
X140299631Y-72825131D01*
X140394870Y-72777512D01*
X140442489Y-72682274D01*
X140442489Y-72587036D01*
X140394870Y-72491798D01*
X140299631Y-72444179D01*
X140061536Y-72444179D01*
X139966298Y-72396560D01*
X139490108Y-72825131D02*
X139490108Y-71825131D01*
X139490108Y-72206084D02*
X139394870Y-72158465D01*
X139204393Y-72158465D01*
X139109155Y-72206084D01*
X139061536Y-72253703D01*
X139013917Y-72348941D01*
X139013917Y-72634655D01*
X139061536Y-72729893D01*
X139109155Y-72777512D01*
X139204393Y-72825131D01*
X139394870Y-72825131D01*
X139490108Y-72777512D01*
X138632965Y-72777512D02*
X138537727Y-72825131D01*
X138347251Y-72825131D01*
X138252012Y-72777512D01*
X138204393Y-72682274D01*
X138204393Y-72634655D01*
X138252012Y-72539417D01*
X138347251Y-72491798D01*
X138490108Y-72491798D01*
X138585346Y-72444179D01*
X138632965Y-72348941D01*
X138632965Y-72301322D01*
X138585346Y-72206084D01*
X138490108Y-72158465D01*
X138347251Y-72158465D01*
X138252012Y-72206084D01*
X147704393Y-73435131D02*
X147704393Y-74244655D01*
X147656774Y-74339893D01*
X147609155Y-74387512D01*
X147513917Y-74435131D01*
X147323441Y-74435131D01*
X147228203Y-74387512D01*
X147180584Y-74339893D01*
X147132965Y-74244655D01*
X147132965Y-73435131D01*
X146799631Y-73435131D02*
X146466298Y-74435131D01*
X146132965Y-73435131D01*
X145323441Y-74435131D02*
X145799631Y-74435131D01*
X145799631Y-73435131D01*
X144990108Y-74435131D02*
X144990108Y-73768465D01*
X144990108Y-73435131D02*
X145037727Y-73482751D01*
X144990108Y-73530370D01*
X144942489Y-73482751D01*
X144990108Y-73435131D01*
X144990108Y-73530370D01*
X144085346Y-73768465D02*
X144085346Y-74577989D01*
X144132965Y-74673227D01*
X144180584Y-74720846D01*
X144275822Y-74768465D01*
X144418679Y-74768465D01*
X144513917Y-74720846D01*
X144085346Y-74387512D02*
X144180584Y-74435131D01*
X144371060Y-74435131D01*
X144466298Y-74387512D01*
X144513917Y-74339893D01*
X144561536Y-74244655D01*
X144561536Y-73958941D01*
X144513917Y-73863703D01*
X144466298Y-73816084D01*
X144371060Y-73768465D01*
X144180584Y-73768465D01*
X144085346Y-73816084D01*
X143609155Y-74435131D02*
X143609155Y-73435131D01*
X143180584Y-74435131D02*
X143180584Y-73911322D01*
X143228203Y-73816084D01*
X143323441Y-73768465D01*
X143466298Y-73768465D01*
X143561536Y-73816084D01*
X143609155Y-73863703D01*
X142847251Y-73768465D02*
X142466298Y-73768465D01*
X142704393Y-73435131D02*
X142704393Y-74292274D01*
X142656774Y-74387512D01*
X142561536Y-74435131D01*
X142466298Y-74435131D01*
X141418679Y-74387512D02*
X141275822Y-74435131D01*
X141037727Y-74435131D01*
X140942489Y-74387512D01*
X140894870Y-74339893D01*
X140847251Y-74244655D01*
X140847251Y-74149417D01*
X140894870Y-74054179D01*
X140942489Y-74006560D01*
X141037727Y-73958941D01*
X141228203Y-73911322D01*
X141323441Y-73863703D01*
X141371060Y-73816084D01*
X141418679Y-73720846D01*
X141418679Y-73625608D01*
X141371060Y-73530370D01*
X141323441Y-73482751D01*
X141228203Y-73435131D01*
X140990108Y-73435131D01*
X140847251Y-73482751D01*
X140228203Y-73435131D02*
X140132965Y-73435131D01*
X140037727Y-73482751D01*
X139990108Y-73530370D01*
X139942489Y-73625608D01*
X139894870Y-73816084D01*
X139894870Y-74054179D01*
X139942489Y-74244655D01*
X139990108Y-74339893D01*
X140037727Y-74387512D01*
X140132965Y-74435131D01*
X140228203Y-74435131D01*
X140323441Y-74387512D01*
X140371060Y-74339893D01*
X140418679Y-74244655D01*
X140466298Y-74054179D01*
X140466298Y-73816084D01*
X140418679Y-73625608D01*
X140371060Y-73530370D01*
X140323441Y-73482751D01*
X140228203Y-73435131D01*
X138942489Y-74435131D02*
X139513917Y-74435131D01*
X139228203Y-74435131D02*
X139228203Y-73435131D01*
X139323441Y-73577989D01*
X139418679Y-73673227D01*
X139513917Y-73720846D01*
X137894870Y-73435131D02*
X137561536Y-74435131D01*
X137228203Y-73435131D01*
X136371060Y-74435131D02*
X136942489Y-74435131D01*
X136656774Y-74435131D02*
X136656774Y-73435131D01*
X136752012Y-73577989D01*
X136847251Y-73673227D01*
X136942489Y-73720846D01*
X135942489Y-74339893D02*
X135894870Y-74387512D01*
X135942489Y-74435131D01*
X135990108Y-74387512D01*
X135942489Y-74339893D01*
X135942489Y-74435131D01*
X134942489Y-74435131D02*
X135513917Y-74435131D01*
X135228203Y-74435131D02*
X135228203Y-73435131D01*
X135323441Y-73577989D01*
X135418679Y-73673227D01*
X135513917Y-73720846D01*
D11*
X150745251Y-98925751D03*
X150745251Y-104325751D03*
M02*
