%TF.GenerationSoftware,KiCad,Pcbnew,(6.0.7)*%
%TF.CreationDate,2022-09-15T17:32:09-05:00*%
%TF.ProjectId,Simplified01,53696d70-6c69-4666-9965-6430312e6b69,rev?*%
%TF.SameCoordinates,Original*%
%TF.FileFunction,Copper,L1,Top*%
%TF.FilePolarity,Positive*%
%FSLAX46Y46*%
G04 Gerber Fmt 4.6, Leading zero omitted, Abs format (unit mm)*
G04 Created by KiCad (PCBNEW (6.0.7)) date 2022-09-15 17:32:09*
%MOMM*%
%LPD*%
G01*
G04 APERTURE LIST*
G04 Aperture macros list*
%AMRoundRect*
0 Rectangle with rounded corners*
0 $1 Rounding radius*
0 $2 $3 $4 $5 $6 $7 $8 $9 X,Y pos of 4 corners*
0 Add a 4 corners polygon primitive as box body*
4,1,4,$2,$3,$4,$5,$6,$7,$8,$9,$2,$3,0*
0 Add four circle primitives for the rounded corners*
1,1,$1+$1,$2,$3*
1,1,$1+$1,$4,$5*
1,1,$1+$1,$6,$7*
1,1,$1+$1,$8,$9*
0 Add four rect primitives between the rounded corners*
20,1,$1+$1,$2,$3,$4,$5,0*
20,1,$1+$1,$4,$5,$6,$7,0*
20,1,$1+$1,$6,$7,$8,$9,0*
20,1,$1+$1,$8,$9,$2,$3,0*%
G04 Aperture macros list end*
%TA.AperFunction,SMDPad,CuDef*%
%ADD10RoundRect,0.250000X0.400000X0.625000X-0.400000X0.625000X-0.400000X-0.625000X0.400000X-0.625000X0*%
%TD*%
%TA.AperFunction,ComponentPad*%
%ADD11RoundRect,0.250000X0.600000X0.750000X-0.600000X0.750000X-0.600000X-0.750000X0.600000X-0.750000X0*%
%TD*%
%TA.AperFunction,ComponentPad*%
%ADD12O,1.700000X2.000000*%
%TD*%
%TA.AperFunction,SMDPad,CuDef*%
%ADD13R,2.200000X1.200000*%
%TD*%
%TA.AperFunction,SMDPad,CuDef*%
%ADD14R,6.400000X5.800000*%
%TD*%
%TA.AperFunction,ComponentPad*%
%ADD15C,4.400000*%
%TD*%
%TA.AperFunction,SMDPad,CuDef*%
%ADD16RoundRect,0.250000X0.550000X-1.250000X0.550000X1.250000X-0.550000X1.250000X-0.550000X-1.250000X0*%
%TD*%
%TA.AperFunction,SMDPad,CuDef*%
%ADD17RoundRect,0.150000X0.150000X-0.587500X0.150000X0.587500X-0.150000X0.587500X-0.150000X-0.587500X0*%
%TD*%
%TA.AperFunction,SMDPad,CuDef*%
%ADD18RoundRect,0.250000X0.625000X-0.400000X0.625000X0.400000X-0.625000X0.400000X-0.625000X-0.400000X0*%
%TD*%
%TA.AperFunction,ComponentPad*%
%ADD19RoundRect,0.250000X0.750000X-0.600000X0.750000X0.600000X-0.750000X0.600000X-0.750000X-0.600000X0*%
%TD*%
%TA.AperFunction,ComponentPad*%
%ADD20O,2.000000X1.700000*%
%TD*%
%TA.AperFunction,SMDPad,CuDef*%
%ADD21RoundRect,0.250000X-0.625000X0.400000X-0.625000X-0.400000X0.625000X-0.400000X0.625000X0.400000X0*%
%TD*%
%TA.AperFunction,SMDPad,CuDef*%
%ADD22RoundRect,0.250000X0.412500X0.650000X-0.412500X0.650000X-0.412500X-0.650000X0.412500X-0.650000X0*%
%TD*%
%TA.AperFunction,ComponentPad*%
%ADD23R,3.500000X3.500000*%
%TD*%
%TA.AperFunction,ComponentPad*%
%ADD24RoundRect,0.750000X-0.750000X-1.000000X0.750000X-1.000000X0.750000X1.000000X-0.750000X1.000000X0*%
%TD*%
%TA.AperFunction,ComponentPad*%
%ADD25RoundRect,0.875000X-0.875000X-0.875000X0.875000X-0.875000X0.875000X0.875000X-0.875000X0.875000X0*%
%TD*%
%TA.AperFunction,SMDPad,CuDef*%
%ADD26RoundRect,0.250000X0.650000X-0.412500X0.650000X0.412500X-0.650000X0.412500X-0.650000X-0.412500X0*%
%TD*%
%TA.AperFunction,ComponentPad*%
%ADD27RoundRect,0.250000X0.725000X-0.600000X0.725000X0.600000X-0.725000X0.600000X-0.725000X-0.600000X0*%
%TD*%
%TA.AperFunction,ComponentPad*%
%ADD28O,1.950000X1.700000*%
%TD*%
%TA.AperFunction,SMDPad,CuDef*%
%ADD29R,1.100000X1.100000*%
%TD*%
%TA.AperFunction,ComponentPad*%
%ADD30R,3.032000X1.905000*%
%TD*%
%TA.AperFunction,ComponentPad*%
%ADD31R,1.727200X1.727200*%
%TD*%
%TA.AperFunction,ComponentPad*%
%ADD32O,1.727200X1.727200*%
%TD*%
%TA.AperFunction,ViaPad*%
%ADD33C,0.800000*%
%TD*%
%TA.AperFunction,Conductor*%
%ADD34C,2.750000*%
%TD*%
%TA.AperFunction,Conductor*%
%ADD35C,3.000000*%
%TD*%
%TA.AperFunction,Conductor*%
%ADD36C,2.000000*%
%TD*%
%TA.AperFunction,Conductor*%
%ADD37C,3.500000*%
%TD*%
%TA.AperFunction,Conductor*%
%ADD38C,1.500000*%
%TD*%
%TA.AperFunction,Conductor*%
%ADD39C,4.000000*%
%TD*%
%TA.AperFunction,Conductor*%
%ADD40C,2.500000*%
%TD*%
%TA.AperFunction,Conductor*%
%ADD41C,1.250000*%
%TD*%
%TA.AperFunction,Conductor*%
%ADD42C,1.000000*%
%TD*%
G04 APERTURE END LIST*
D10*
X140103251Y-96545751D03*
X137003251Y-96545751D03*
D11*
X115439251Y-75209751D03*
D12*
X112939251Y-75209751D03*
D13*
X137655251Y-88931751D03*
D14*
X143955251Y-91211751D03*
D13*
X137655251Y-91211751D03*
X137655251Y-93491751D03*
D10*
X128673251Y-92227751D03*
X125573251Y-92227751D03*
D13*
X137655251Y-81565751D03*
X137655251Y-83845751D03*
D14*
X143955251Y-83845751D03*
D13*
X137655251Y-86125751D03*
D15*
X103501251Y-74193751D03*
D16*
X150999251Y-85283751D03*
X150999251Y-80883751D03*
D15*
X160651251Y-116103751D03*
X160651251Y-74193751D03*
D10*
X131213251Y-99339751D03*
X128113251Y-99339751D03*
D17*
X114743251Y-108659251D03*
X116643251Y-108659251D03*
X115693251Y-106784251D03*
D13*
X128275251Y-89427751D03*
D14*
X121975251Y-87147751D03*
D13*
X128275251Y-84867751D03*
D18*
X147189251Y-100127751D03*
X147189251Y-97027751D03*
X139569251Y-108483751D03*
X139569251Y-105383751D03*
D19*
X109343251Y-101371751D03*
D20*
X109343251Y-98871751D03*
D21*
X114931251Y-112013751D03*
X114931251Y-115113751D03*
D16*
X150999251Y-93665751D03*
X150999251Y-89265751D03*
D22*
X134527751Y-91211751D03*
X131402751Y-91211751D03*
D15*
X103501251Y-116103751D03*
D23*
X115439251Y-86893751D03*
D24*
X109439251Y-86893751D03*
D25*
X112439251Y-91593751D03*
D18*
X147189251Y-105461751D03*
X147189251Y-102361751D03*
D26*
X134489251Y-85916251D03*
X134489251Y-82791251D03*
D27*
X109343251Y-112801751D03*
D28*
X109343251Y-110301751D03*
X109343251Y-107801751D03*
D29*
X131441251Y-86001751D03*
X131441251Y-88801751D03*
D30*
X123559251Y-102895751D03*
D14*
X117365251Y-100355751D03*
D30*
X123559251Y-100355751D03*
X123559251Y-97815751D03*
D31*
X134489251Y-99974751D03*
D32*
X134489251Y-102514751D03*
X137029251Y-99974751D03*
X137029251Y-102514751D03*
X139569251Y-99974751D03*
X139569251Y-102514751D03*
X142109251Y-99974751D03*
X142109251Y-102514751D03*
D33*
X140966251Y-78638751D03*
X140966251Y-79908751D03*
X142236251Y-79908751D03*
X146046251Y-79908751D03*
X143506251Y-79908751D03*
X144776251Y-79908751D03*
X146046251Y-78638751D03*
X144776251Y-78638751D03*
X142236251Y-78638751D03*
X143506251Y-78638751D03*
X143760251Y-95529751D03*
X141220251Y-95529751D03*
X147443251Y-95529751D03*
X146300251Y-95529751D03*
X145030251Y-95529751D03*
X142490251Y-95529751D03*
X140033251Y-87445751D03*
X151761251Y-111023751D03*
X114423251Y-95529751D03*
X154301251Y-107213751D03*
X148284251Y-88338751D03*
X150491251Y-111023751D03*
X153031251Y-108483751D03*
X115439251Y-95529751D03*
X153031251Y-109753751D03*
X114931251Y-96291751D03*
X114931251Y-94767751D03*
X139315251Y-87909751D03*
X154301251Y-109753751D03*
X154301251Y-108483751D03*
X151761251Y-109753751D03*
X153031251Y-111023751D03*
X147649251Y-87703751D03*
D34*
X126361251Y-80543751D02*
X107057251Y-80543751D01*
X134403751Y-86001751D02*
X134489251Y-85916251D01*
X131441251Y-86001751D02*
X134403751Y-86001751D01*
D35*
X134489251Y-85916251D02*
X134489251Y-91173251D01*
D34*
X129409251Y-86001751D02*
X128275251Y-84867751D01*
D35*
X134527751Y-91211751D02*
X134527751Y-93184251D01*
D34*
X105533251Y-99593751D02*
X107386251Y-101446751D01*
X107057251Y-80543751D02*
X105533251Y-82067751D01*
X134698751Y-86125751D02*
X134489251Y-85916251D01*
X128275251Y-82457751D02*
X126361251Y-80543751D01*
D35*
X134527751Y-93184251D02*
X134855251Y-93511751D01*
D34*
X107386251Y-101446751D02*
X109343251Y-101446751D01*
X131441251Y-86001751D02*
X129409251Y-86001751D01*
D35*
X134855251Y-93511751D02*
X137655251Y-93511751D01*
X134489251Y-91173251D02*
X134527751Y-91211751D01*
D34*
X128275251Y-84867751D02*
X128275251Y-82457751D01*
X105533251Y-82067751D02*
X105533251Y-99593751D01*
X137655251Y-86125751D02*
X134698751Y-86125751D01*
D36*
X143955251Y-83845751D02*
X143660251Y-83550751D01*
D37*
X148627251Y-85283751D02*
X147189251Y-83845751D01*
X114931251Y-115113751D02*
X109877251Y-115113751D01*
X147189251Y-83845751D02*
X143955251Y-83845751D01*
X158111251Y-88925751D02*
X158111251Y-110769751D01*
X109343251Y-114579751D02*
X109343251Y-113101751D01*
D36*
X143660251Y-83550751D02*
X137655251Y-83550751D01*
D37*
X109877251Y-115113751D02*
X109343251Y-114579751D01*
X158111251Y-110769751D02*
X153767251Y-115113751D01*
X153767251Y-115113751D02*
X114931251Y-115113751D01*
X154469251Y-85283751D02*
X158111251Y-88925751D01*
X150999251Y-85283751D02*
X154469251Y-85283751D01*
X150999251Y-85283751D02*
X148627251Y-85283751D01*
D38*
X128901251Y-88801751D02*
X128275251Y-89427751D01*
D34*
X128275251Y-91829751D02*
X128673251Y-92227751D01*
X128275251Y-89427751D02*
X128275251Y-91829751D01*
D38*
X131441251Y-88801751D02*
X128901251Y-88801751D01*
D39*
X115439251Y-86893751D02*
X121721251Y-86893751D01*
X121721251Y-86893751D02*
X121975251Y-87147751D01*
D40*
X147189251Y-100127751D02*
X142262251Y-100127751D01*
X148162251Y-109034751D02*
X146046251Y-111150751D01*
D41*
X141220251Y-95529751D02*
X142490251Y-95529751D01*
D40*
X150999251Y-106197751D02*
X148162251Y-109034751D01*
X150999251Y-101345751D02*
X148407251Y-101345751D01*
D38*
X114743251Y-108659251D02*
X114743251Y-109103695D01*
X114743251Y-109103695D02*
X116790307Y-111150751D01*
D41*
X147443251Y-95529751D02*
X150491251Y-95529751D01*
D40*
X150999251Y-93665751D02*
X146409251Y-93665751D01*
D41*
X143760251Y-95529751D02*
X145030251Y-95529751D01*
D38*
X116790307Y-111150751D02*
X117852251Y-111150751D01*
D41*
X140331251Y-95529751D02*
X141220251Y-95529751D01*
X140103251Y-95757751D02*
X140331251Y-95529751D01*
D40*
X150999251Y-95021751D02*
X150999251Y-101345751D01*
D41*
X146300251Y-95529751D02*
X147443251Y-95529751D01*
D40*
X146409251Y-93665751D02*
X143955251Y-91211751D01*
D41*
X140103251Y-96545751D02*
X140103251Y-95757751D01*
D40*
X146046251Y-111150751D02*
X117852251Y-111150751D01*
X147189251Y-102361751D02*
X147189251Y-100127751D01*
X148162251Y-109034751D02*
X139679037Y-109034751D01*
X148407251Y-101345751D02*
X147189251Y-100127751D01*
X150999251Y-101345751D02*
X150999251Y-106197751D01*
D41*
X150491251Y-95529751D02*
X150999251Y-95021751D01*
D36*
X143955251Y-91211751D02*
X143555251Y-90811751D01*
D41*
X145030251Y-95529751D02*
X146300251Y-95529751D01*
D40*
X142262251Y-100127751D02*
X142109251Y-99974751D01*
X150999251Y-93665751D02*
X150999251Y-95021751D01*
D36*
X143555251Y-90811751D02*
X137655251Y-90811751D01*
D41*
X142490251Y-95529751D02*
X143760251Y-95529751D01*
X140903757Y-98245751D02*
X140948531Y-98245751D01*
X142166531Y-97027751D02*
X147189251Y-97027751D01*
X139569251Y-99580257D02*
X140903757Y-98245751D01*
X139569251Y-99974751D02*
X139569251Y-99580257D01*
X140948531Y-98245751D02*
X142166531Y-97027751D01*
D42*
X147649251Y-87703751D02*
X148284251Y-88338751D01*
X144256427Y-87611751D02*
X147557251Y-87611751D01*
X138293251Y-88931751D02*
X139315251Y-87909751D01*
X144090427Y-87445751D02*
X144256427Y-87611751D01*
X139779251Y-87445751D02*
X140033251Y-87445751D01*
X137655251Y-88931751D02*
X138293251Y-88931751D01*
X140033251Y-87445751D02*
X144090427Y-87445751D01*
X139315251Y-87909751D02*
X139779251Y-87445751D01*
X147557251Y-87611751D02*
X147649251Y-87703751D01*
X149211251Y-89265751D02*
X150999251Y-89265751D01*
X148284251Y-88338751D02*
X149211251Y-89265751D01*
D41*
X110827251Y-110301751D02*
X112177251Y-108951751D01*
X113153251Y-110134751D02*
X113153251Y-111277751D01*
X112177251Y-110301751D02*
X113889251Y-112013751D01*
X113328751Y-106784251D02*
X115693251Y-106784251D01*
X113328751Y-106784251D02*
X113153251Y-106959751D01*
X112177251Y-108951751D02*
X112177251Y-107935751D01*
X112177251Y-110301751D02*
X112177251Y-108951751D01*
X109343251Y-110301751D02*
X109811251Y-110301751D01*
X112177251Y-107935751D02*
X113328751Y-106784251D01*
X109811251Y-110301751D02*
X112177251Y-107935751D01*
X109343251Y-110301751D02*
X112177251Y-110301751D01*
X114931251Y-112013751D02*
X114931251Y-111912751D01*
X113889251Y-112013751D02*
X114931251Y-112013751D01*
X113153251Y-106959751D02*
X113153251Y-110134751D01*
X114931251Y-111912751D02*
X113153251Y-110134751D01*
X109343251Y-110301751D02*
X110827251Y-110301751D01*
D36*
X117365251Y-100355751D02*
X124075251Y-100355751D01*
X109343251Y-98871751D02*
X118527251Y-98871751D01*
D41*
X118342751Y-106959751D02*
X116643251Y-108659251D01*
X145056251Y-105461751D02*
X147189251Y-105461751D01*
X142109251Y-105389031D02*
X142109251Y-102514751D01*
X140538531Y-106959751D02*
X142109251Y-105389031D01*
X142109251Y-102514751D02*
X145056251Y-105461751D01*
X140538531Y-106959751D02*
X118342751Y-106959751D01*
D38*
X137029251Y-99974751D02*
X137029251Y-96773751D01*
D41*
X139569251Y-102514751D02*
X139569251Y-105383751D01*
D36*
X134489251Y-99974751D02*
X131822251Y-99974751D01*
X131822251Y-99974751D02*
X131187251Y-99339751D01*
D38*
X128113251Y-101524751D02*
X126742251Y-102895751D01*
X124075251Y-102895751D02*
X126742251Y-102895751D01*
X128113251Y-99339751D02*
X128113251Y-101524751D01*
%TA.AperFunction,Conductor*%
G36*
X163894872Y-70912253D02*
G01*
X163941365Y-70965909D01*
X163952751Y-71018251D01*
X163952751Y-119279251D01*
X163932749Y-119347372D01*
X163879093Y-119393865D01*
X163826751Y-119405251D01*
X146807251Y-119405251D01*
X146739130Y-119385249D01*
X146692637Y-119331593D01*
X146681251Y-119279251D01*
X146681251Y-117498251D01*
X146701253Y-117430130D01*
X146754909Y-117383637D01*
X146807251Y-117372251D01*
X153723391Y-117372251D01*
X153727788Y-117372328D01*
X153838351Y-117376189D01*
X153927568Y-117367441D01*
X153950373Y-117365205D01*
X153954319Y-117364881D01*
X154062455Y-117357699D01*
X154062460Y-117357698D01*
X154066621Y-117357422D01*
X154070707Y-117356598D01*
X154070715Y-117356597D01*
X154095266Y-117351646D01*
X154107878Y-117349761D01*
X154112225Y-117349335D01*
X154136948Y-117346911D01*
X154246527Y-117321209D01*
X154250396Y-117320366D01*
X154326629Y-117304995D01*
X154360731Y-117298119D01*
X154388373Y-117288601D01*
X154400605Y-117285071D01*
X154424983Y-117279353D01*
X154424984Y-117279353D01*
X154429050Y-117278399D01*
X154534301Y-117238418D01*
X154537967Y-117237092D01*
X154644414Y-117200439D01*
X154648149Y-117198569D01*
X154648153Y-117198567D01*
X154670541Y-117187356D01*
X154682216Y-117182231D01*
X154705621Y-117173340D01*
X154709525Y-117171857D01*
X154713193Y-117169874D01*
X154713199Y-117169871D01*
X154808547Y-117118317D01*
X154812057Y-117116490D01*
X154893557Y-117075677D01*
X154912686Y-117066098D01*
X154936860Y-117049669D01*
X154947741Y-117043054D01*
X154969761Y-117031148D01*
X154969767Y-117031144D01*
X154973446Y-117029155D01*
X154976828Y-117026698D01*
X154976842Y-117026689D01*
X155064489Y-116963010D01*
X155067726Y-116960734D01*
X155077269Y-116954249D01*
X155160835Y-116897457D01*
X155182622Y-116877977D01*
X155192543Y-116869972D01*
X155213326Y-116854872D01*
X155216174Y-116852803D01*
X155285537Y-116789466D01*
X155316152Y-116758851D01*
X155321264Y-116754016D01*
X155381384Y-116700262D01*
X155384499Y-116697477D01*
X155423181Y-116652346D01*
X155429754Y-116645249D01*
X159677217Y-112397787D01*
X159680380Y-112394731D01*
X159758260Y-112322107D01*
X159761312Y-112319261D01*
X159763958Y-112316039D01*
X159763968Y-112316029D01*
X159832757Y-112232282D01*
X159835294Y-112229290D01*
X159909453Y-112144579D01*
X159925632Y-112120227D01*
X159933201Y-112109999D01*
X159951749Y-112087418D01*
X159979354Y-112042896D01*
X160011059Y-111991762D01*
X160013180Y-111988457D01*
X160075486Y-111894678D01*
X160088300Y-111868407D01*
X160094446Y-111857272D01*
X160109851Y-111832426D01*
X160155985Y-111729773D01*
X160157664Y-111726188D01*
X160205174Y-111628778D01*
X160207010Y-111625014D01*
X160216233Y-111597288D01*
X160220864Y-111585411D01*
X160222792Y-111581120D01*
X160232840Y-111558763D01*
X160234033Y-111554761D01*
X160234036Y-111554753D01*
X160264999Y-111450888D01*
X160266190Y-111447112D01*
X160300393Y-111344296D01*
X160300394Y-111344292D01*
X160301714Y-111340324D01*
X160307190Y-111311618D01*
X160310209Y-111299235D01*
X160317362Y-111275241D01*
X160317363Y-111275237D01*
X160318555Y-111271238D01*
X160336158Y-111160095D01*
X160336839Y-111156194D01*
X160357153Y-111049709D01*
X160357153Y-111049707D01*
X160357935Y-111045609D01*
X160358168Y-111041450D01*
X160358170Y-111041430D01*
X160359568Y-111016422D01*
X160360922Y-111003746D01*
X160364941Y-110978372D01*
X160364942Y-110978365D01*
X160365490Y-110974903D01*
X160368322Y-110912540D01*
X160369687Y-110882489D01*
X160369687Y-110882470D01*
X160369751Y-110881070D01*
X160369751Y-110837777D01*
X160369947Y-110830744D01*
X160374449Y-110750213D01*
X160374682Y-110746047D01*
X160370122Y-110686784D01*
X160369751Y-110677118D01*
X160369751Y-88969611D01*
X160369828Y-88965214D01*
X160373543Y-88858830D01*
X160373689Y-88854651D01*
X160362705Y-88742629D01*
X160362381Y-88738683D01*
X160355199Y-88630547D01*
X160355198Y-88630542D01*
X160354922Y-88626381D01*
X160354098Y-88622295D01*
X160354097Y-88622287D01*
X160349146Y-88597736D01*
X160347261Y-88585124D01*
X160344818Y-88560207D01*
X160344411Y-88556054D01*
X160318709Y-88446475D01*
X160317866Y-88442606D01*
X160296447Y-88336378D01*
X160295619Y-88332271D01*
X160286101Y-88304629D01*
X160282571Y-88292397D01*
X160276853Y-88268019D01*
X160276853Y-88268018D01*
X160275899Y-88263952D01*
X160235918Y-88158701D01*
X160234585Y-88155017D01*
X160211855Y-88089002D01*
X160197939Y-88048588D01*
X160184856Y-88022461D01*
X160179731Y-88010786D01*
X160170840Y-87987381D01*
X160169357Y-87983477D01*
X160167374Y-87979809D01*
X160167371Y-87979803D01*
X160115812Y-87884446D01*
X160113985Y-87880936D01*
X160065473Y-87784060D01*
X160065472Y-87784058D01*
X160063598Y-87780316D01*
X160047179Y-87756156D01*
X160040557Y-87745265D01*
X160028641Y-87723227D01*
X160028640Y-87723226D01*
X160026656Y-87719556D01*
X159960504Y-87628505D01*
X159958229Y-87625268D01*
X159897302Y-87535617D01*
X159897299Y-87535613D01*
X159894957Y-87532167D01*
X159875475Y-87510379D01*
X159867474Y-87500462D01*
X159850303Y-87476828D01*
X159786966Y-87407465D01*
X159756351Y-87376850D01*
X159751516Y-87371738D01*
X159748675Y-87368561D01*
X159694977Y-87308503D01*
X159649846Y-87269821D01*
X159642749Y-87263248D01*
X156097301Y-83717800D01*
X156094245Y-83714637D01*
X156021611Y-83636746D01*
X156021609Y-83636744D01*
X156018761Y-83633690D01*
X155931786Y-83562248D01*
X155928772Y-83559692D01*
X155844079Y-83485549D01*
X155819743Y-83469380D01*
X155809495Y-83461797D01*
X155790155Y-83445911D01*
X155790147Y-83445905D01*
X155786918Y-83443253D01*
X155691238Y-83383929D01*
X155687986Y-83381841D01*
X155594179Y-83319516D01*
X155567903Y-83306700D01*
X155556762Y-83300550D01*
X155531926Y-83285151D01*
X155486319Y-83264655D01*
X155429278Y-83239019D01*
X155425694Y-83237340D01*
X155328284Y-83189830D01*
X155328275Y-83189826D01*
X155324514Y-83187992D01*
X155320542Y-83186671D01*
X155320538Y-83186669D01*
X155296789Y-83178769D01*
X155284911Y-83174138D01*
X155258263Y-83162162D01*
X155254261Y-83160969D01*
X155254253Y-83160966D01*
X155150388Y-83130003D01*
X155146612Y-83128812D01*
X155043795Y-83094609D01*
X155039824Y-83093288D01*
X155011106Y-83087810D01*
X154998736Y-83084794D01*
X154974744Y-83077641D01*
X154974740Y-83077640D01*
X154970738Y-83076447D01*
X154859570Y-83058840D01*
X154855670Y-83058159D01*
X154749210Y-83037850D01*
X154749205Y-83037849D01*
X154745109Y-83037068D01*
X154740949Y-83036835D01*
X154740945Y-83036835D01*
X154715935Y-83035437D01*
X154703259Y-83034082D01*
X154677871Y-83030061D01*
X154677866Y-83030060D01*
X154674403Y-83029512D01*
X154631674Y-83027572D01*
X154581989Y-83025315D01*
X154581970Y-83025315D01*
X154580570Y-83025251D01*
X154537259Y-83025251D01*
X154530226Y-83025055D01*
X154527096Y-83024880D01*
X154445547Y-83020321D01*
X154441388Y-83020641D01*
X154441386Y-83020641D01*
X154386295Y-83024880D01*
X154376629Y-83025251D01*
X149614942Y-83025251D01*
X149546821Y-83005249D01*
X149525847Y-82988346D01*
X148817301Y-82279800D01*
X148814245Y-82276637D01*
X148741611Y-82198746D01*
X148741609Y-82198744D01*
X148738761Y-82195690D01*
X148651786Y-82124248D01*
X148648772Y-82121692D01*
X148639422Y-82113507D01*
X148564079Y-82047549D01*
X148539743Y-82031380D01*
X148529495Y-82023797D01*
X148510155Y-82007911D01*
X148510147Y-82007905D01*
X148506918Y-82005253D01*
X148411238Y-81945929D01*
X148407986Y-81943841D01*
X148314179Y-81881516D01*
X148287903Y-81868700D01*
X148276762Y-81862550D01*
X148251926Y-81847151D01*
X148195831Y-81821941D01*
X148149278Y-81801019D01*
X148145694Y-81799340D01*
X148048284Y-81751830D01*
X148048275Y-81751826D01*
X148044514Y-81749992D01*
X148040542Y-81748671D01*
X148040538Y-81748669D01*
X148016789Y-81740769D01*
X148004911Y-81736138D01*
X147978263Y-81724162D01*
X147974261Y-81722969D01*
X147974253Y-81722966D01*
X147919755Y-81706720D01*
X147860187Y-81668090D01*
X147830961Y-81603389D01*
X147829751Y-81585971D01*
X147829751Y-78129751D01*
X147818017Y-78020602D01*
X147817299Y-78017301D01*
X147807345Y-77971541D01*
X147807344Y-77971536D01*
X147806631Y-77968260D01*
X147771961Y-77864094D01*
X147692943Y-77741139D01*
X147646450Y-77687483D01*
X147637184Y-77679454D01*
X147542801Y-77597670D01*
X147542798Y-77597668D01*
X147535990Y-77591769D01*
X147403041Y-77531053D01*
X147379287Y-77524078D01*
X147339243Y-77512320D01*
X147339239Y-77512319D01*
X147334920Y-77511051D01*
X147330471Y-77510411D01*
X147330465Y-77510410D01*
X147194698Y-77490890D01*
X147194693Y-77490890D01*
X147190251Y-77490251D01*
X139822251Y-77490251D01*
X139818905Y-77490611D01*
X139818900Y-77490611D01*
X139716466Y-77501623D01*
X139716459Y-77501624D01*
X139713102Y-77501985D01*
X139709802Y-77502703D01*
X139709801Y-77502703D01*
X139664041Y-77512657D01*
X139664036Y-77512658D01*
X139660760Y-77513371D01*
X139556594Y-77548041D01*
X139433639Y-77627059D01*
X139379983Y-77673552D01*
X139377043Y-77676945D01*
X139290170Y-77777201D01*
X139290168Y-77777204D01*
X139284269Y-77784012D01*
X139223553Y-77916961D01*
X139203551Y-77985082D01*
X139202911Y-77989531D01*
X139202910Y-77989537D01*
X139198444Y-78020602D01*
X139182751Y-78129751D01*
X139182751Y-81916251D01*
X139162749Y-81984372D01*
X139109093Y-82030865D01*
X139056751Y-82042251D01*
X137594250Y-82042251D01*
X137591742Y-82042453D01*
X137591737Y-82042453D01*
X137418327Y-82056405D01*
X137418322Y-82056406D01*
X137413286Y-82056811D01*
X137408378Y-82058017D01*
X137408375Y-82058017D01*
X137182459Y-82113507D01*
X137177545Y-82114714D01*
X137172893Y-82116689D01*
X137172889Y-82116690D01*
X137037080Y-82174338D01*
X136954095Y-82209563D01*
X136949811Y-82212261D01*
X136752963Y-82336223D01*
X136752960Y-82336225D01*
X136748684Y-82338918D01*
X136744890Y-82342263D01*
X136570393Y-82496101D01*
X136570390Y-82496104D01*
X136566596Y-82499449D01*
X136563386Y-82503357D01*
X136563385Y-82503358D01*
X136520084Y-82556074D01*
X136412517Y-82687029D01*
X136409974Y-82691399D01*
X136383653Y-82736622D01*
X136332100Y-82785435D01*
X136318984Y-82791223D01*
X136308546Y-82795136D01*
X136301367Y-82800516D01*
X136301364Y-82800518D01*
X136259369Y-82831992D01*
X136191990Y-82882490D01*
X136104636Y-82999046D01*
X136053506Y-83135435D01*
X136046751Y-83197617D01*
X136046751Y-84116251D01*
X136026749Y-84184372D01*
X135973093Y-84230865D01*
X135920751Y-84242251D01*
X135640559Y-84242251D01*
X135577559Y-84225370D01*
X135375682Y-84108816D01*
X135371870Y-84106615D01*
X135111427Y-84001389D01*
X135074777Y-83992251D01*
X134843144Y-83934498D01*
X134843139Y-83934497D01*
X134838875Y-83933434D01*
X134834507Y-83932975D01*
X134834502Y-83932974D01*
X134563887Y-83904532D01*
X134563884Y-83904532D01*
X134559518Y-83904073D01*
X134555130Y-83904226D01*
X134555124Y-83904226D01*
X134283190Y-83913722D01*
X134283184Y-83913723D01*
X134278793Y-83913876D01*
X134274470Y-83914638D01*
X134274463Y-83914639D01*
X134098757Y-83945621D01*
X134002164Y-83962653D01*
X133735016Y-84049454D01*
X133731063Y-84051382D01*
X133731058Y-84051384D01*
X133620107Y-84105499D01*
X133564872Y-84118251D01*
X130284751Y-84118251D01*
X130216630Y-84098249D01*
X130170137Y-84044593D01*
X130158751Y-83992251D01*
X130158751Y-82570010D01*
X130159524Y-82556074D01*
X130161893Y-82534783D01*
X130162398Y-82530248D01*
X130161483Y-82503358D01*
X130158824Y-82425287D01*
X130158751Y-82420999D01*
X130158751Y-82388317D01*
X130156689Y-82359897D01*
X130156434Y-82355098D01*
X130155792Y-82336223D01*
X130153870Y-82279800D01*
X130153252Y-82261636D01*
X130153251Y-82261630D01*
X130153096Y-82257067D01*
X130147829Y-82227943D01*
X130146149Y-82214642D01*
X130144338Y-82189679D01*
X130144008Y-82185129D01*
X130122858Y-82089334D01*
X130121909Y-82084603D01*
X130105271Y-81992590D01*
X130105269Y-81992584D01*
X130104457Y-81988091D01*
X130095043Y-81960036D01*
X130091461Y-81947120D01*
X130090729Y-81943806D01*
X130085080Y-81918218D01*
X130050330Y-81826497D01*
X130048703Y-81821941D01*
X130018949Y-81733272D01*
X130018947Y-81733268D01*
X130017499Y-81728952D01*
X130015443Y-81724890D01*
X130015439Y-81724881D01*
X130004129Y-81702539D01*
X129998720Y-81690275D01*
X129995416Y-81681553D01*
X129988238Y-81662609D01*
X129940607Y-81576857D01*
X129938339Y-81572583D01*
X129896107Y-81489157D01*
X129896103Y-81489150D01*
X129894044Y-81485083D01*
X129877005Y-81460884D01*
X129869888Y-81449538D01*
X129855512Y-81423657D01*
X129796019Y-81345702D01*
X129793158Y-81341801D01*
X129738889Y-81264727D01*
X129738888Y-81264726D01*
X129736678Y-81261587D01*
X129709276Y-81231314D01*
X129702529Y-81223201D01*
X129692456Y-81210002D01*
X129692452Y-81209997D01*
X129689682Y-81206368D01*
X129594648Y-81113466D01*
X129593632Y-81112461D01*
X127772468Y-79291297D01*
X127763160Y-79280897D01*
X127749780Y-79264166D01*
X127749779Y-79264164D01*
X127746928Y-79260600D01*
X127670167Y-79188894D01*
X127667084Y-79185913D01*
X127643989Y-79162818D01*
X127622463Y-79144204D01*
X127618866Y-79140971D01*
X127550514Y-79077120D01*
X127550509Y-79077116D01*
X127547183Y-79074009D01*
X127522866Y-79057139D01*
X127512277Y-79048926D01*
X127493346Y-79032556D01*
X127493344Y-79032554D01*
X127489889Y-79029567D01*
X127407197Y-78976785D01*
X127403183Y-78974113D01*
X127362458Y-78945861D01*
X127322595Y-78918207D01*
X127296090Y-78905021D01*
X127284445Y-78898433D01*
X127259486Y-78882501D01*
X127170047Y-78842212D01*
X127165679Y-78840142D01*
X127143570Y-78829143D01*
X127077868Y-78796457D01*
X127049737Y-78787236D01*
X127037253Y-78782394D01*
X127010265Y-78770236D01*
X126915978Y-78743289D01*
X126911356Y-78741872D01*
X126892040Y-78735540D01*
X126818130Y-78711311D01*
X126788969Y-78706248D01*
X126775903Y-78703255D01*
X126747449Y-78695123D01*
X126731583Y-78692992D01*
X126650244Y-78682067D01*
X126645462Y-78681331D01*
X126606382Y-78674546D01*
X126548820Y-78664551D01*
X126508040Y-78662521D01*
X126497547Y-78661557D01*
X126476543Y-78658736D01*
X126344432Y-78660235D01*
X126343716Y-78660243D01*
X126342287Y-78660251D01*
X107169500Y-78660251D01*
X107155564Y-78659478D01*
X107149363Y-78658788D01*
X107129747Y-78656605D01*
X107125191Y-78656760D01*
X107125187Y-78656760D01*
X107024804Y-78660178D01*
X107020517Y-78660251D01*
X106987817Y-78660251D01*
X106985545Y-78660416D01*
X106985541Y-78660416D01*
X106979908Y-78660825D01*
X106959392Y-78662313D01*
X106954602Y-78662568D01*
X106914146Y-78663946D01*
X106861136Y-78665750D01*
X106861130Y-78665751D01*
X106856567Y-78665906D01*
X106827443Y-78671173D01*
X106814145Y-78672853D01*
X106784629Y-78674994D01*
X106688837Y-78696143D01*
X106684120Y-78697089D01*
X106650030Y-78703254D01*
X106592089Y-78713731D01*
X106592083Y-78713732D01*
X106587590Y-78714545D01*
X106583255Y-78716000D01*
X106583254Y-78716000D01*
X106559537Y-78723959D01*
X106546613Y-78727543D01*
X106517718Y-78733922D01*
X106492992Y-78743290D01*
X106426000Y-78768671D01*
X106421444Y-78770298D01*
X106332775Y-78800052D01*
X106332771Y-78800054D01*
X106328452Y-78801503D01*
X106324385Y-78803562D01*
X106324380Y-78803564D01*
X106313829Y-78808906D01*
X106302051Y-78814868D01*
X106289784Y-78820279D01*
X106266386Y-78829143D01*
X106266378Y-78829147D01*
X106262109Y-78830764D01*
X106243283Y-78841221D01*
X106176364Y-78878391D01*
X106172091Y-78880658D01*
X106129858Y-78902038D01*
X106084582Y-78924958D01*
X106080851Y-78927585D01*
X106060384Y-78941996D01*
X106049029Y-78949119D01*
X106027150Y-78961272D01*
X106023157Y-78963490D01*
X106019525Y-78966262D01*
X105945179Y-79023001D01*
X105941279Y-79025860D01*
X105861087Y-79082325D01*
X105858228Y-79084913D01*
X105830817Y-79109723D01*
X105822708Y-79116467D01*
X105809505Y-79126544D01*
X105805868Y-79129320D01*
X105802675Y-79132586D01*
X105802673Y-79132588D01*
X105713008Y-79224311D01*
X105712003Y-79225327D01*
X104280797Y-80656534D01*
X104270397Y-80665842D01*
X104250100Y-80682074D01*
X104246983Y-80685411D01*
X104178395Y-80758834D01*
X104175414Y-80761917D01*
X104152318Y-80785013D01*
X104139371Y-80799986D01*
X104133704Y-80806539D01*
X104130471Y-80810136D01*
X104066620Y-80878488D01*
X104066616Y-80878493D01*
X104063509Y-80881819D01*
X104046639Y-80906136D01*
X104038428Y-80916723D01*
X104019067Y-80939113D01*
X103966293Y-81021793D01*
X103963613Y-81025819D01*
X103907707Y-81106407D01*
X103894521Y-81132912D01*
X103887933Y-81144557D01*
X103872001Y-81169516D01*
X103847818Y-81223201D01*
X103831713Y-81258952D01*
X103829643Y-81263321D01*
X103785957Y-81351134D01*
X103776736Y-81379265D01*
X103771894Y-81391749D01*
X103759736Y-81418737D01*
X103740774Y-81485083D01*
X103732790Y-81513020D01*
X103731373Y-81517642D01*
X103700811Y-81610872D01*
X103700032Y-81615359D01*
X103695748Y-81640033D01*
X103692755Y-81653099D01*
X103684623Y-81681553D01*
X103684015Y-81686080D01*
X103671567Y-81778758D01*
X103670831Y-81783540D01*
X103654051Y-81880182D01*
X103653860Y-81884020D01*
X103652021Y-81920957D01*
X103651057Y-81931455D01*
X103648236Y-81952459D01*
X103649255Y-82042251D01*
X103649743Y-82085286D01*
X103649751Y-82086715D01*
X103649751Y-99481501D01*
X103648978Y-99495436D01*
X103646105Y-99521254D01*
X103646260Y-99525811D01*
X103646260Y-99525815D01*
X103649678Y-99626197D01*
X103649751Y-99630484D01*
X103649751Y-99663185D01*
X103649916Y-99665455D01*
X103649916Y-99665463D01*
X103651812Y-99691586D01*
X103652068Y-99696401D01*
X103655406Y-99794435D01*
X103656219Y-99798930D01*
X103656219Y-99798931D01*
X103660672Y-99823553D01*
X103662353Y-99836857D01*
X103664494Y-99866373D01*
X103665478Y-99870829D01*
X103685641Y-99962155D01*
X103686592Y-99966895D01*
X103704045Y-100063411D01*
X103705498Y-100067740D01*
X103713459Y-100091466D01*
X103717041Y-100104382D01*
X103723422Y-100133284D01*
X103725040Y-100137554D01*
X103758172Y-100225005D01*
X103759799Y-100229561D01*
X103786288Y-100308498D01*
X103791003Y-100322550D01*
X103804368Y-100348951D01*
X103809779Y-100361218D01*
X103818643Y-100384616D01*
X103818647Y-100384624D01*
X103820264Y-100388893D01*
X103822481Y-100392884D01*
X103867891Y-100474638D01*
X103870158Y-100478910D01*
X103914458Y-100566420D01*
X103917085Y-100570151D01*
X103931496Y-100590618D01*
X103938619Y-100601973D01*
X103947065Y-100617178D01*
X103952990Y-100627845D01*
X103955762Y-100631477D01*
X104012501Y-100705823D01*
X104015360Y-100709723D01*
X104071825Y-100789915D01*
X104074412Y-100792773D01*
X104099219Y-100820180D01*
X104105964Y-100828290D01*
X104116044Y-100841497D01*
X104118820Y-100845134D01*
X104122086Y-100848327D01*
X104122088Y-100848329D01*
X104213854Y-100938036D01*
X104214870Y-100939041D01*
X105975034Y-102699205D01*
X105984342Y-102709605D01*
X106000574Y-102729902D01*
X106003911Y-102733019D01*
X106077335Y-102801608D01*
X106080418Y-102804589D01*
X106103513Y-102827684D01*
X106118486Y-102840631D01*
X106125039Y-102846298D01*
X106128636Y-102849531D01*
X106196988Y-102913382D01*
X106196993Y-102913386D01*
X106200319Y-102916493D01*
X106224636Y-102933363D01*
X106235223Y-102941574D01*
X106257613Y-102960935D01*
X106340305Y-103013717D01*
X106344319Y-103016389D01*
X106424907Y-103072295D01*
X106451412Y-103085481D01*
X106463057Y-103092069D01*
X106488016Y-103108001D01*
X106577452Y-103148289D01*
X106581821Y-103150359D01*
X106669634Y-103194045D01*
X106697765Y-103203266D01*
X106710249Y-103208108D01*
X106737237Y-103220266D01*
X106829207Y-103246551D01*
X106831520Y-103247212D01*
X106836142Y-103248629D01*
X106929372Y-103279191D01*
X106933860Y-103279970D01*
X106933859Y-103279970D01*
X106958533Y-103284254D01*
X106971599Y-103287247D01*
X107000053Y-103295379D01*
X107004580Y-103295987D01*
X107097258Y-103308435D01*
X107102040Y-103309171D01*
X107138538Y-103315508D01*
X107198682Y-103325951D01*
X107239462Y-103327981D01*
X107249955Y-103328945D01*
X107270959Y-103331766D01*
X107403828Y-103330259D01*
X107405258Y-103330251D01*
X109412685Y-103330251D01*
X109414953Y-103330086D01*
X109414965Y-103330086D01*
X109546524Y-103320540D01*
X109615873Y-103315508D01*
X109620328Y-103314524D01*
X109620331Y-103314524D01*
X109878324Y-103257565D01*
X109878328Y-103257564D01*
X109882784Y-103256580D01*
X110010710Y-103208113D01*
X110134123Y-103161356D01*
X110134126Y-103161355D01*
X110138393Y-103159738D01*
X110377345Y-103027012D01*
X110515922Y-102921253D01*
X110591002Y-102863954D01*
X110591003Y-102863953D01*
X110594634Y-102861182D01*
X110627381Y-102827684D01*
X110782515Y-102668989D01*
X110785709Y-102665722D01*
X110916329Y-102486269D01*
X110943880Y-102448418D01*
X110943883Y-102448412D01*
X110946566Y-102444727D01*
X110948688Y-102440694D01*
X110948691Y-102440689D01*
X111071711Y-102206866D01*
X111071711Y-102206865D01*
X111073837Y-102202825D01*
X111164854Y-101945085D01*
X111217712Y-101676906D01*
X111219768Y-101635605D01*
X111231076Y-101408474D01*
X111231076Y-101408468D01*
X111231303Y-101403905D01*
X111205342Y-101131802D01*
X111198825Y-101105166D01*
X111141458Y-100870730D01*
X111140373Y-100866296D01*
X111131802Y-100845134D01*
X111039471Y-100617178D01*
X111039468Y-100617172D01*
X111037758Y-100612950D01*
X111012560Y-100569914D01*
X110995401Y-100501024D01*
X111018212Y-100433791D01*
X111073751Y-100389565D01*
X111121293Y-100380251D01*
X113530751Y-100380251D01*
X113598872Y-100400253D01*
X113645365Y-100453909D01*
X113656751Y-100506251D01*
X113656751Y-103303885D01*
X113663506Y-103366067D01*
X113714636Y-103502456D01*
X113801990Y-103619012D01*
X113918546Y-103706366D01*
X114054935Y-103757496D01*
X114117117Y-103764251D01*
X120613385Y-103764251D01*
X120675567Y-103757496D01*
X120811956Y-103706366D01*
X120928512Y-103619012D01*
X121015866Y-103502456D01*
X121066996Y-103366067D01*
X121073751Y-103303885D01*
X121073751Y-101990251D01*
X121093753Y-101922130D01*
X121147409Y-101875637D01*
X121199751Y-101864251D01*
X121408751Y-101864251D01*
X121476872Y-101884253D01*
X121523365Y-101937909D01*
X121534751Y-101990251D01*
X121534751Y-103896385D01*
X121541506Y-103958567D01*
X121592636Y-104094956D01*
X121679990Y-104211512D01*
X121796546Y-104298866D01*
X121932935Y-104349996D01*
X121995117Y-104356751D01*
X125123385Y-104356751D01*
X125185567Y-104349996D01*
X125321956Y-104298866D01*
X125438512Y-104211512D01*
X125443894Y-104204331D01*
X125450243Y-104197982D01*
X125451248Y-104198987D01*
X125500489Y-104162170D01*
X125544454Y-104154251D01*
X126650855Y-104154251D01*
X126667302Y-104155329D01*
X126683767Y-104157497D01*
X126683771Y-104157497D01*
X126689337Y-104158230D01*
X126770740Y-104154391D01*
X126776675Y-104154251D01*
X126799250Y-104154251D01*
X126825240Y-104151932D01*
X126830499Y-104151573D01*
X126913739Y-104147647D01*
X126919198Y-104146397D01*
X126919203Y-104146396D01*
X126931221Y-104143643D01*
X126948150Y-104140962D01*
X126966013Y-104139368D01*
X126971429Y-104137886D01*
X126971431Y-104137886D01*
X127046384Y-104117381D01*
X127051502Y-104116095D01*
X127127251Y-104098746D01*
X127127253Y-104098745D01*
X127132721Y-104097493D01*
X127143221Y-104093014D01*
X127149218Y-104090457D01*
X127165393Y-104084824D01*
X127177290Y-104081569D01*
X127177294Y-104081568D01*
X127182702Y-104080088D01*
X127257918Y-104044212D01*
X127262727Y-104042041D01*
X127334200Y-104011555D01*
X127334201Y-104011555D01*
X127339360Y-104009354D01*
X127354361Y-103999500D01*
X127369276Y-103991097D01*
X127385469Y-103983373D01*
X127390020Y-103980103D01*
X127390023Y-103980101D01*
X127453132Y-103934752D01*
X127457483Y-103931762D01*
X127523261Y-103888555D01*
X127523269Y-103888549D01*
X127527125Y-103886016D01*
X127547913Y-103867494D01*
X127558190Y-103859261D01*
X127567905Y-103852280D01*
X127642314Y-103775496D01*
X127643703Y-103774086D01*
X128938510Y-102479279D01*
X128950902Y-102468411D01*
X128964094Y-102458289D01*
X128964102Y-102458282D01*
X128968543Y-102454874D01*
X129023419Y-102394566D01*
X129027518Y-102390271D01*
X129043449Y-102374340D01*
X129060185Y-102354324D01*
X129063630Y-102350375D01*
X129115954Y-102292872D01*
X129115957Y-102292868D01*
X129119736Y-102288715D01*
X129129264Y-102273526D01*
X129139342Y-102259654D01*
X129147243Y-102250206D01*
X129147248Y-102250199D01*
X129150845Y-102245897D01*
X129192138Y-102173503D01*
X129194843Y-102168983D01*
X129236137Y-102103155D01*
X129236139Y-102103152D01*
X129239115Y-102098407D01*
X129245803Y-102081772D01*
X129253263Y-102066340D01*
X129259371Y-102055632D01*
X129259375Y-102055623D01*
X129262150Y-102050758D01*
X129264019Y-102045481D01*
X129264021Y-102045476D01*
X129289966Y-101972209D01*
X129291831Y-101967273D01*
X129320817Y-101895167D01*
X129322907Y-101889968D01*
X129326545Y-101872401D01*
X129331150Y-101855907D01*
X129337140Y-101838992D01*
X129341607Y-101811714D01*
X129350606Y-101756760D01*
X129351568Y-101751570D01*
X129367528Y-101674505D01*
X129367529Y-101674501D01*
X129368464Y-101669984D01*
X129368730Y-101665373D01*
X129370066Y-101642203D01*
X129371513Y-101629098D01*
X129372537Y-101622841D01*
X129372537Y-101622834D01*
X129373445Y-101617293D01*
X129371767Y-101510487D01*
X129371751Y-101508508D01*
X129371751Y-99282752D01*
X129368802Y-99249703D01*
X129363473Y-99189994D01*
X129356868Y-99115989D01*
X129353171Y-99102472D01*
X129299070Y-98904717D01*
X129299070Y-98904716D01*
X129297588Y-98899300D01*
X129295173Y-98894237D01*
X129295169Y-98894226D01*
X129284026Y-98870865D01*
X129271751Y-98816620D01*
X129271751Y-98664351D01*
X129271187Y-98658915D01*
X129261489Y-98565443D01*
X129261488Y-98565439D01*
X129260777Y-98558585D01*
X129243910Y-98508027D01*
X129207119Y-98397753D01*
X129204801Y-98390805D01*
X129111729Y-98240403D01*
X128986554Y-98115446D01*
X128880304Y-98049952D01*
X128842219Y-98026476D01*
X128842217Y-98026475D01*
X128835989Y-98022636D01*
X128675505Y-97969406D01*
X128674640Y-97969119D01*
X128674638Y-97969119D01*
X128668112Y-97966954D01*
X128661276Y-97966254D01*
X128661273Y-97966253D01*
X128618220Y-97961842D01*
X128563651Y-97956251D01*
X127662851Y-97956251D01*
X127659605Y-97956588D01*
X127659601Y-97956588D01*
X127563943Y-97966513D01*
X127563939Y-97966514D01*
X127557085Y-97967225D01*
X127550549Y-97969406D01*
X127550547Y-97969406D01*
X127438261Y-98006868D01*
X127389305Y-98023201D01*
X127238903Y-98116273D01*
X127113946Y-98241448D01*
X127110106Y-98247678D01*
X127110105Y-98247679D01*
X127073164Y-98307609D01*
X127021136Y-98392013D01*
X126965454Y-98559890D01*
X126954751Y-98664351D01*
X126954751Y-98822902D01*
X126945658Y-98869898D01*
X126905689Y-98969324D01*
X126903595Y-98974534D01*
X126902458Y-98980026D01*
X126902457Y-98980028D01*
X126888553Y-99047170D01*
X126858038Y-99194518D01*
X126854751Y-99251526D01*
X126854751Y-100951273D01*
X126834749Y-101019394D01*
X126817846Y-101040368D01*
X126257868Y-101600346D01*
X126195556Y-101634372D01*
X126168773Y-101637251D01*
X125676813Y-101637251D01*
X125608692Y-101617249D01*
X125562199Y-101563593D01*
X125552095Y-101493319D01*
X125558831Y-101467021D01*
X125576996Y-101418567D01*
X125583751Y-101356385D01*
X125583751Y-100393563D01*
X125583881Y-100387847D01*
X125585375Y-100354943D01*
X125587737Y-100302934D01*
X125584586Y-100275700D01*
X125583751Y-100261219D01*
X125583751Y-99355117D01*
X125576996Y-99292935D01*
X125525866Y-99156546D01*
X125438512Y-99039990D01*
X125321956Y-98952636D01*
X125185567Y-98901506D01*
X125123385Y-98894751D01*
X124484840Y-98894751D01*
X124454674Y-98890941D01*
X124451620Y-98889889D01*
X124446624Y-98889026D01*
X124216325Y-98849247D01*
X124216319Y-98849246D01*
X124212415Y-98848572D01*
X124208454Y-98848392D01*
X124208453Y-98848392D01*
X124184745Y-98847315D01*
X124184726Y-98847315D01*
X124183326Y-98847251D01*
X121199751Y-98847251D01*
X121131630Y-98827249D01*
X121085137Y-98773593D01*
X121073751Y-98721251D01*
X121073751Y-97407617D01*
X121066996Y-97345435D01*
X121015866Y-97209046D01*
X120928512Y-97092490D01*
X120811956Y-97005136D01*
X120675567Y-96954006D01*
X120613385Y-96947251D01*
X114117117Y-96947251D01*
X114054935Y-96954006D01*
X113918546Y-97005136D01*
X113801990Y-97092490D01*
X113714636Y-97209046D01*
X113711484Y-97217454D01*
X113687481Y-97281481D01*
X113644839Y-97338245D01*
X113578277Y-97362945D01*
X113569499Y-97363251D01*
X109282250Y-97363251D01*
X109279742Y-97363453D01*
X109279737Y-97363453D01*
X109106327Y-97377405D01*
X109106322Y-97377406D01*
X109101286Y-97377811D01*
X109096378Y-97379017D01*
X109096375Y-97379017D01*
X108870459Y-97434507D01*
X108865545Y-97435714D01*
X108860893Y-97437689D01*
X108860889Y-97437690D01*
X108742958Y-97487749D01*
X108642095Y-97530563D01*
X108637811Y-97533261D01*
X108440963Y-97657223D01*
X108440960Y-97657225D01*
X108436684Y-97659918D01*
X108432890Y-97663263D01*
X108258393Y-97817101D01*
X108258390Y-97817104D01*
X108254596Y-97820449D01*
X108251386Y-97824357D01*
X108251385Y-97824358D01*
X108116022Y-97989153D01*
X108100517Y-98008029D01*
X108076117Y-98049952D01*
X108001495Y-98178166D01*
X107978410Y-98217829D01*
X107976597Y-98222552D01*
X107893233Y-98439723D01*
X107893231Y-98439730D01*
X107891418Y-98444453D01*
X107877613Y-98510538D01*
X107867977Y-98556662D01*
X107864974Y-98568253D01*
X107861644Y-98578978D01*
X107859903Y-98592113D01*
X107859359Y-98596216D01*
X107857789Y-98605423D01*
X107853122Y-98627763D01*
X107841777Y-98682071D01*
X107841548Y-98687120D01*
X107841547Y-98687126D01*
X107838791Y-98747823D01*
X107837829Y-98758662D01*
X107833918Y-98788173D01*
X107831353Y-98807525D01*
X107831553Y-98812855D01*
X107831553Y-98812856D01*
X107833296Y-98859288D01*
X107833255Y-98869729D01*
X107833203Y-98870865D01*
X107830765Y-98924568D01*
X107829655Y-98924518D01*
X107813370Y-98988091D01*
X107761366Y-99036424D01*
X107691486Y-99048969D01*
X107625918Y-99021743D01*
X107615969Y-99012798D01*
X107453656Y-98850485D01*
X107419630Y-98788173D01*
X107416751Y-98761390D01*
X107416751Y-82900113D01*
X107436753Y-82831992D01*
X107453656Y-82811017D01*
X107800519Y-82464155D01*
X107862831Y-82430130D01*
X107889614Y-82427251D01*
X114407495Y-82427251D01*
X114475616Y-82447253D01*
X114522109Y-82500909D01*
X114532213Y-82571183D01*
X114517954Y-82609411D01*
X114519269Y-82610012D01*
X114458553Y-82742961D01*
X114457285Y-82747280D01*
X114446082Y-82785435D01*
X114438551Y-82811082D01*
X114437911Y-82815531D01*
X114437910Y-82815537D01*
X114425750Y-82900113D01*
X114417751Y-82955751D01*
X114417751Y-84509251D01*
X114397749Y-84577372D01*
X114344093Y-84623865D01*
X114291751Y-84635251D01*
X113641117Y-84635251D01*
X113578935Y-84642006D01*
X113442546Y-84693136D01*
X113325990Y-84780490D01*
X113238636Y-84897046D01*
X113187506Y-85033435D01*
X113180751Y-85095617D01*
X113180751Y-85762577D01*
X113167095Y-85815817D01*
X113168596Y-85816523D01*
X113166912Y-85820101D01*
X113165004Y-85823572D01*
X113163547Y-85827252D01*
X113054652Y-86102290D01*
X113048808Y-86117049D01*
X112970311Y-86422776D01*
X112930751Y-86735930D01*
X112930751Y-87051572D01*
X112970311Y-87364726D01*
X113048808Y-87670453D01*
X113050261Y-87674122D01*
X113050261Y-87674123D01*
X113073669Y-87733244D01*
X113165004Y-87963930D01*
X113166912Y-87967401D01*
X113168596Y-87970979D01*
X113167095Y-87971685D01*
X113180751Y-88024925D01*
X113180751Y-88691885D01*
X113187506Y-88754067D01*
X113238636Y-88890456D01*
X113325990Y-89007012D01*
X113442546Y-89094366D01*
X113450947Y-89097515D01*
X113453169Y-89098732D01*
X113503315Y-89148991D01*
X113518328Y-89218382D01*
X113493442Y-89284874D01*
X113436558Y-89327356D01*
X113392659Y-89335251D01*
X111471887Y-89335251D01*
X111470214Y-89335342D01*
X111470199Y-89335342D01*
X111420024Y-89338060D01*
X111414294Y-89338370D01*
X111410008Y-89339207D01*
X111212949Y-89377690D01*
X111183858Y-89383371D01*
X110964299Y-89466555D01*
X110835816Y-89542086D01*
X110790980Y-89568444D01*
X110761895Y-89585542D01*
X110582432Y-89736932D01*
X110431042Y-89916395D01*
X110312055Y-90118799D01*
X110228871Y-90338358D01*
X110183870Y-90568794D01*
X110180751Y-90626387D01*
X110180751Y-92561115D01*
X110180842Y-92562788D01*
X110180842Y-92562803D01*
X110182041Y-92584943D01*
X110183870Y-92618708D01*
X110228871Y-92849144D01*
X110312055Y-93068703D01*
X110431042Y-93271107D01*
X110582432Y-93450570D01*
X110761895Y-93601960D01*
X110766499Y-93604666D01*
X110766501Y-93604668D01*
X110789088Y-93617946D01*
X110964299Y-93720947D01*
X111183858Y-93804131D01*
X111414294Y-93849132D01*
X111418652Y-93849368D01*
X111470199Y-93852160D01*
X111470214Y-93852160D01*
X111471887Y-93852251D01*
X113406615Y-93852251D01*
X113408288Y-93852160D01*
X113408303Y-93852160D01*
X113459850Y-93849368D01*
X113464208Y-93849132D01*
X113694644Y-93804131D01*
X113914203Y-93720947D01*
X114089414Y-93617946D01*
X114112001Y-93604668D01*
X114112003Y-93604666D01*
X114116607Y-93601960D01*
X114296070Y-93450570D01*
X114447460Y-93271107D01*
X114566447Y-93068703D01*
X114649631Y-92849144D01*
X114694632Y-92618708D01*
X114696461Y-92584943D01*
X114697660Y-92562803D01*
X114697660Y-92562788D01*
X114697751Y-92561115D01*
X114697751Y-91047687D01*
X114717753Y-90979566D01*
X114771409Y-90933073D01*
X114841683Y-90922969D01*
X114859249Y-90926791D01*
X114908259Y-90941182D01*
X114908263Y-90941183D01*
X114912582Y-90942451D01*
X114917031Y-90943091D01*
X114917037Y-90943092D01*
X115052804Y-90962612D01*
X115052809Y-90962612D01*
X115057251Y-90963251D01*
X125981251Y-90963251D01*
X125984597Y-90962891D01*
X125984602Y-90962891D01*
X126087036Y-90951879D01*
X126087043Y-90951878D01*
X126090400Y-90951517D01*
X126115183Y-90946126D01*
X126139461Y-90940845D01*
X126139466Y-90940844D01*
X126142742Y-90940131D01*
X126225961Y-90912433D01*
X126296911Y-90909899D01*
X126357969Y-90946126D01*
X126389749Y-91009613D01*
X126391751Y-91031985D01*
X126391751Y-91717501D01*
X126390978Y-91731436D01*
X126388105Y-91757254D01*
X126388260Y-91761811D01*
X126388260Y-91761815D01*
X126391678Y-91862197D01*
X126391751Y-91866484D01*
X126391751Y-91899185D01*
X126391916Y-91901455D01*
X126391916Y-91901463D01*
X126393812Y-91927586D01*
X126394069Y-91932418D01*
X126396742Y-92010922D01*
X126397406Y-92030435D01*
X126398219Y-92034930D01*
X126398219Y-92034931D01*
X126402672Y-92059553D01*
X126404353Y-92072857D01*
X126406494Y-92102373D01*
X126420428Y-92165483D01*
X126427641Y-92198155D01*
X126428592Y-92202895D01*
X126446045Y-92299411D01*
X126447498Y-92303740D01*
X126455459Y-92327466D01*
X126459041Y-92340382D01*
X126465422Y-92369284D01*
X126467040Y-92373554D01*
X126500172Y-92461005D01*
X126501799Y-92465561D01*
X126512887Y-92498602D01*
X126533003Y-92558550D01*
X126535062Y-92562617D01*
X126535064Y-92562622D01*
X126540406Y-92573173D01*
X126546368Y-92584951D01*
X126551779Y-92597218D01*
X126560643Y-92620616D01*
X126560647Y-92620624D01*
X126562264Y-92624893D01*
X126564481Y-92628884D01*
X126609891Y-92710638D01*
X126612158Y-92714910D01*
X126656458Y-92802420D01*
X126659085Y-92806151D01*
X126673496Y-92826618D01*
X126680619Y-92837973D01*
X126686824Y-92849144D01*
X126694990Y-92863845D01*
X126697762Y-92867477D01*
X126754501Y-92941823D01*
X126757360Y-92945723D01*
X126813825Y-93025915D01*
X126816412Y-93028773D01*
X126841219Y-93056180D01*
X126847964Y-93064290D01*
X126854841Y-93073300D01*
X126860820Y-93081134D01*
X126864086Y-93084327D01*
X126864088Y-93084329D01*
X126955854Y-93174036D01*
X126956870Y-93175041D01*
X127390513Y-93608684D01*
X127544613Y-93741935D01*
X127548462Y-93744392D01*
X127548465Y-93744394D01*
X127771169Y-93886546D01*
X127771174Y-93886549D01*
X127775016Y-93889001D01*
X127873756Y-93933480D01*
X128020067Y-93999388D01*
X128020072Y-93999390D01*
X128024237Y-94001266D01*
X128028625Y-94002520D01*
X128028633Y-94002523D01*
X128282658Y-94075123D01*
X128287053Y-94076379D01*
X128557959Y-94112766D01*
X128700553Y-94111148D01*
X128826718Y-94109717D01*
X128826721Y-94109717D01*
X128831280Y-94109665D01*
X129101290Y-94067142D01*
X129234101Y-94025903D01*
X129357969Y-93987441D01*
X129357973Y-93987439D01*
X129362335Y-93986085D01*
X129475596Y-93931941D01*
X129604817Y-93870167D01*
X129604823Y-93870164D01*
X129608943Y-93868194D01*
X129835951Y-93715939D01*
X130038602Y-93532509D01*
X130062556Y-93503503D01*
X130109630Y-93446498D01*
X130212651Y-93321746D01*
X130354452Y-93088064D01*
X130362651Y-93068703D01*
X130451088Y-92859852D01*
X130461035Y-92836362D01*
X130495601Y-92704136D01*
X130529012Y-92576326D01*
X130529013Y-92576321D01*
X130530166Y-92571910D01*
X130560397Y-92300248D01*
X130560242Y-92295687D01*
X130551252Y-92031638D01*
X130551251Y-92031633D01*
X130551096Y-92027067D01*
X130502457Y-91758091D01*
X130415499Y-91498952D01*
X130292044Y-91255082D01*
X130181727Y-91098408D01*
X130158751Y-91025867D01*
X130158751Y-90186251D01*
X130178753Y-90118130D01*
X130232409Y-90071637D01*
X130284751Y-90060251D01*
X131498250Y-90060251D01*
X131501037Y-90060002D01*
X131501043Y-90060002D01*
X131571180Y-90053742D01*
X131665013Y-90045368D01*
X131670427Y-90043887D01*
X131670432Y-90043886D01*
X131798163Y-90008942D01*
X131881702Y-89986088D01*
X131886760Y-89983676D01*
X131886764Y-89983674D01*
X131983085Y-89937731D01*
X132084469Y-89889373D01*
X132156604Y-89837540D01*
X132185898Y-89821882D01*
X132229546Y-89805519D01*
X132229547Y-89805518D01*
X132237956Y-89802366D01*
X132279185Y-89771466D01*
X132345693Y-89746618D01*
X132415075Y-89761671D01*
X132465305Y-89811845D01*
X132480751Y-89872292D01*
X132480751Y-91117356D01*
X132480578Y-91123950D01*
X132476153Y-91208389D01*
X132476536Y-91212766D01*
X132476536Y-91212770D01*
X132486772Y-91329765D01*
X132486944Y-91331958D01*
X132495440Y-91453463D01*
X132496353Y-91457758D01*
X132497497Y-91463138D01*
X132499770Y-91478351D01*
X132500249Y-91483826D01*
X132500251Y-91483839D01*
X132500634Y-91488217D01*
X132504111Y-91503277D01*
X132516022Y-91554869D01*
X132519251Y-91583213D01*
X132519251Y-93128356D01*
X132519078Y-93134950D01*
X132517005Y-93174515D01*
X132514653Y-93219389D01*
X132515036Y-93223766D01*
X132515036Y-93223770D01*
X132525272Y-93340765D01*
X132525444Y-93342958D01*
X132533209Y-93454005D01*
X132533940Y-93464463D01*
X132534853Y-93468758D01*
X132535997Y-93474138D01*
X132538270Y-93489351D01*
X132538749Y-93494826D01*
X132538751Y-93494839D01*
X132539134Y-93499217D01*
X132540122Y-93503496D01*
X132540123Y-93503503D01*
X132566544Y-93617946D01*
X132567019Y-93620091D01*
X132588458Y-93720947D01*
X132592342Y-93739221D01*
X132593846Y-93743353D01*
X132595729Y-93748526D01*
X132600096Y-93763270D01*
X132602323Y-93772914D01*
X132639655Y-93870167D01*
X132645971Y-93886622D01*
X132646741Y-93888682D01*
X132686905Y-93999033D01*
X132686909Y-93999042D01*
X132688414Y-94003177D01*
X132690481Y-94007064D01*
X132693059Y-94011913D01*
X132699434Y-94025903D01*
X132701405Y-94031037D01*
X132701410Y-94031049D01*
X132702986Y-94035153D01*
X132762087Y-94141772D01*
X132763099Y-94143639D01*
X132818221Y-94247309D01*
X132818227Y-94247318D01*
X132820287Y-94251193D01*
X132822872Y-94254750D01*
X132822875Y-94254756D01*
X132826106Y-94259204D01*
X132834371Y-94272177D01*
X132839168Y-94280830D01*
X132841817Y-94284345D01*
X132912452Y-94378082D01*
X132913750Y-94379836D01*
X132985393Y-94478443D01*
X132991149Y-94484404D01*
X132992276Y-94485571D01*
X133002261Y-94497263D01*
X133005563Y-94501644D01*
X133008215Y-94505163D01*
X133094291Y-94591239D01*
X133095833Y-94592807D01*
X133180520Y-94680503D01*
X133188281Y-94686566D01*
X133188329Y-94686604D01*
X133199851Y-94696799D01*
X133395486Y-94892434D01*
X133400027Y-94897218D01*
X133456622Y-94960073D01*
X133549938Y-95038375D01*
X133551590Y-95039786D01*
X133643554Y-95119728D01*
X133647240Y-95122122D01*
X133647247Y-95122127D01*
X133651854Y-95125119D01*
X133664212Y-95134263D01*
X133668425Y-95137798D01*
X133668432Y-95137803D01*
X133671801Y-95140630D01*
X133775089Y-95205171D01*
X133776944Y-95206352D01*
X133879133Y-95272715D01*
X133883127Y-95274578D01*
X133883128Y-95274578D01*
X133888108Y-95276901D01*
X133901614Y-95284233D01*
X133905387Y-95286590D01*
X133910015Y-95289482D01*
X133914027Y-95291268D01*
X133914034Y-95291272D01*
X134021295Y-95339027D01*
X134023296Y-95339939D01*
X134047205Y-95351088D01*
X134133712Y-95391427D01*
X134137924Y-95392715D01*
X134137925Y-95392715D01*
X134143172Y-95394319D01*
X134157586Y-95399708D01*
X134166626Y-95403733D01*
X134254910Y-95429048D01*
X134283753Y-95437318D01*
X134285840Y-95437936D01*
X134402334Y-95473552D01*
X134412116Y-95475101D01*
X134427130Y-95478431D01*
X134436641Y-95481158D01*
X134440994Y-95481770D01*
X134441000Y-95481771D01*
X134557229Y-95498105D01*
X134559405Y-95498430D01*
X134679771Y-95517495D01*
X134684167Y-95517572D01*
X134684171Y-95517572D01*
X134689681Y-95517668D01*
X134705011Y-95518875D01*
X134714803Y-95520251D01*
X134836563Y-95520251D01*
X134838761Y-95520270D01*
X134960625Y-95522397D01*
X134964981Y-95521862D01*
X134964984Y-95521862D01*
X134970455Y-95521190D01*
X134985811Y-95520251D01*
X135762386Y-95520251D01*
X135830507Y-95540253D01*
X135877000Y-95593909D01*
X135887104Y-95664183D01*
X135881979Y-95685918D01*
X135855454Y-95765890D01*
X135844751Y-95870351D01*
X135844751Y-96321579D01*
X135835658Y-96368575D01*
X135821689Y-96403324D01*
X135819595Y-96408534D01*
X135774038Y-96628518D01*
X135770751Y-96685526D01*
X135770751Y-98543082D01*
X135750749Y-98611203D01*
X135697093Y-98657696D01*
X135626819Y-98667800D01*
X135600164Y-98658915D01*
X135599556Y-98660536D01*
X135463167Y-98609406D01*
X135400985Y-98602651D01*
X135154169Y-98602651D01*
X135103726Y-98592113D01*
X135099599Y-98590310D01*
X135095142Y-98587920D01*
X135090361Y-98586274D01*
X135090357Y-98586272D01*
X134870409Y-98510538D01*
X134865620Y-98508889D01*
X134766273Y-98491729D01*
X134630325Y-98468247D01*
X134630319Y-98468246D01*
X134626415Y-98467572D01*
X134622454Y-98467392D01*
X134622453Y-98467392D01*
X134598745Y-98466315D01*
X134598726Y-98466315D01*
X134597326Y-98466251D01*
X132499282Y-98466251D01*
X132431161Y-98446249D01*
X132410187Y-98429346D01*
X132210787Y-98229946D01*
X132208877Y-98228320D01*
X132208870Y-98228314D01*
X132149946Y-98178166D01*
X132142592Y-98171385D01*
X132091739Y-98120621D01*
X132091734Y-98120617D01*
X132086554Y-98115446D01*
X131935989Y-98022636D01*
X131924082Y-98018687D01*
X131898475Y-98006868D01*
X131864893Y-97986530D01*
X131639822Y-97895596D01*
X131594978Y-97885408D01*
X131408038Y-97842936D01*
X131408035Y-97842935D01*
X131403107Y-97841816D01*
X131398060Y-97841498D01*
X131398057Y-97841498D01*
X131177601Y-97827628D01*
X131160838Y-97826573D01*
X130972775Y-97845014D01*
X130924276Y-97849769D01*
X130924275Y-97849769D01*
X130919249Y-97850262D01*
X130684555Y-97912270D01*
X130679938Y-97914326D01*
X130679937Y-97914326D01*
X130585773Y-97956251D01*
X130462795Y-98011005D01*
X130259673Y-98143925D01*
X130080415Y-98307609D01*
X130019413Y-98384575D01*
X129932778Y-98493880D01*
X129932774Y-98493886D01*
X129929633Y-98497849D01*
X129872069Y-98600848D01*
X129823850Y-98687126D01*
X129811206Y-98709749D01*
X129782662Y-98788173D01*
X129733036Y-98924518D01*
X129728181Y-98937856D01*
X129727233Y-98942825D01*
X129727232Y-98942829D01*
X129687835Y-99149360D01*
X129682695Y-99176304D01*
X129675917Y-99418956D01*
X129676586Y-99423969D01*
X129676586Y-99423971D01*
X129690175Y-99525815D01*
X129708022Y-99659571D01*
X129709484Y-99664412D01*
X129709484Y-99664414D01*
X129761549Y-99836860D01*
X129778184Y-99891959D01*
X129884597Y-100110139D01*
X130024525Y-100308498D01*
X130027196Y-100311423D01*
X130041075Y-100326622D01*
X130044160Y-100330001D01*
X130738576Y-101024417D01*
X130741030Y-101026939D01*
X130802784Y-101092242D01*
X130809583Y-101099432D01*
X130865511Y-101142192D01*
X130872008Y-101147159D01*
X130877143Y-101151303D01*
X130936971Y-101202221D01*
X130941296Y-101204840D01*
X130941301Y-101204844D01*
X130965075Y-101219242D01*
X130976322Y-101226914D01*
X131002425Y-101246871D01*
X131006883Y-101249261D01*
X131006884Y-101249262D01*
X131071652Y-101283990D01*
X131077377Y-101287255D01*
X131144609Y-101327972D01*
X131149298Y-101329867D01*
X131149305Y-101329870D01*
X131175079Y-101340284D01*
X131187415Y-101346063D01*
X131211900Y-101359191D01*
X131211904Y-101359193D01*
X131216360Y-101361582D01*
X131221142Y-101363229D01*
X131221143Y-101363229D01*
X131290632Y-101387156D01*
X131296802Y-101389462D01*
X131332549Y-101403905D01*
X131364994Y-101417014D01*
X131364997Y-101417015D01*
X131369680Y-101418907D01*
X131396442Y-101424987D01*
X131401722Y-101426187D01*
X131414826Y-101429920D01*
X131445882Y-101440613D01*
X131450862Y-101441473D01*
X131450873Y-101441476D01*
X131523316Y-101453989D01*
X131529784Y-101455281D01*
X131601463Y-101471566D01*
X131601472Y-101471567D01*
X131606396Y-101472686D01*
X131639202Y-101474750D01*
X131652706Y-101476337D01*
X131674934Y-101480176D01*
X131681184Y-101481256D01*
X131681187Y-101481256D01*
X131685087Y-101481930D01*
X131689044Y-101482110D01*
X131689047Y-101482110D01*
X131712757Y-101483187D01*
X131712776Y-101483187D01*
X131714176Y-101483251D01*
X131770359Y-101483251D01*
X131778270Y-101483500D01*
X131848664Y-101487929D01*
X131890244Y-101483852D01*
X131902540Y-101483251D01*
X134550252Y-101483251D01*
X134552760Y-101483049D01*
X134552765Y-101483049D01*
X134726175Y-101469097D01*
X134726180Y-101469096D01*
X134731216Y-101468691D01*
X134736124Y-101467485D01*
X134736127Y-101467485D01*
X134962043Y-101411995D01*
X134966957Y-101410788D01*
X134971609Y-101408813D01*
X134971613Y-101408812D01*
X135093987Y-101356867D01*
X135143219Y-101346851D01*
X135400985Y-101346851D01*
X135463167Y-101340096D01*
X135599556Y-101288966D01*
X135716112Y-101201612D01*
X135803466Y-101085056D01*
X135841464Y-100983697D01*
X135884105Y-100926932D01*
X135950667Y-100902232D01*
X136020016Y-100917439D01*
X136054682Y-100945427D01*
X136065953Y-100958438D01*
X136239550Y-101102561D01*
X136244002Y-101105163D01*
X136244007Y-101105166D01*
X136293320Y-101133982D01*
X136342043Y-101185621D01*
X136355114Y-101255404D01*
X136328382Y-101321176D01*
X136297846Y-101348534D01*
X136295586Y-101349711D01*
X136214341Y-101410711D01*
X136119486Y-101481930D01*
X136115156Y-101485181D01*
X136111584Y-101488919D01*
X135969835Y-101637251D01*
X135959275Y-101648301D01*
X135832129Y-101834691D01*
X135829955Y-101839375D01*
X135829953Y-101839378D01*
X135758653Y-101992982D01*
X135737132Y-102039344D01*
X135676836Y-102256764D01*
X135652860Y-102481113D01*
X135665848Y-102706365D01*
X135666985Y-102711411D01*
X135666986Y-102711417D01*
X135687312Y-102801608D01*
X135715451Y-102926471D01*
X135717393Y-102931253D01*
X135717394Y-102931257D01*
X135789924Y-103109876D01*
X135800337Y-103135520D01*
X135841849Y-103203262D01*
X135910836Y-103315838D01*
X135918226Y-103327898D01*
X136065953Y-103498438D01*
X136202537Y-103611832D01*
X136217667Y-103624393D01*
X136239550Y-103642561D01*
X136244002Y-103645163D01*
X136244007Y-103645166D01*
X136333342Y-103697369D01*
X136434354Y-103756396D01*
X136645135Y-103836885D01*
X136650203Y-103837916D01*
X136650206Y-103837917D01*
X136755096Y-103859257D01*
X136866232Y-103881868D01*
X136871407Y-103882058D01*
X136871409Y-103882058D01*
X137086543Y-103889947D01*
X137086547Y-103889947D01*
X137091707Y-103890136D01*
X137096827Y-103889480D01*
X137096829Y-103889480D01*
X137166236Y-103880589D01*
X137315504Y-103861467D01*
X137320453Y-103859982D01*
X137320459Y-103859981D01*
X137526664Y-103798116D01*
X137526663Y-103798116D01*
X137531614Y-103796631D01*
X137626670Y-103750063D01*
X137729582Y-103699648D01*
X137729587Y-103699645D01*
X137734233Y-103697369D01*
X137738443Y-103694366D01*
X137738448Y-103694363D01*
X137913706Y-103569352D01*
X137913710Y-103569348D01*
X137917918Y-103566347D01*
X138077738Y-103407084D01*
X138132296Y-103331159D01*
X138198621Y-103238858D01*
X138254615Y-103195210D01*
X138325319Y-103188764D01*
X138388283Y-103221567D01*
X138408376Y-103246549D01*
X138415126Y-103257565D01*
X138417185Y-103260925D01*
X138435751Y-103326758D01*
X138435751Y-104367358D01*
X138415749Y-104435479D01*
X138398924Y-104456376D01*
X138344946Y-104510448D01*
X138252136Y-104661013D01*
X138234862Y-104713093D01*
X138204295Y-104805251D01*
X138196454Y-104828890D01*
X138185751Y-104933351D01*
X138185751Y-105700251D01*
X138165749Y-105768372D01*
X138112093Y-105814865D01*
X138059751Y-105826251D01*
X118449118Y-105826251D01*
X118438057Y-105825318D01*
X118438036Y-105825598D01*
X118432063Y-105825159D01*
X118426144Y-105824153D01*
X118331381Y-105826221D01*
X118328632Y-105826251D01*
X118288710Y-105826251D01*
X118281046Y-105826982D01*
X118271850Y-105827520D01*
X118236186Y-105828298D01*
X118215899Y-105828741D01*
X118215898Y-105828741D01*
X118209903Y-105828872D01*
X118176257Y-105836116D01*
X118161707Y-105838368D01*
X118141241Y-105840321D01*
X118127436Y-105841638D01*
X118121676Y-105843328D01*
X118121675Y-105843328D01*
X118067983Y-105859080D01*
X118059034Y-105861354D01*
X117998456Y-105874395D01*
X117992937Y-105876743D01*
X117992935Y-105876744D01*
X117966785Y-105887871D01*
X117952924Y-105892834D01*
X117919891Y-105902525D01*
X117864810Y-105930893D01*
X117856465Y-105934812D01*
X117799431Y-105959080D01*
X117790504Y-105965090D01*
X117770872Y-105978307D01*
X117758197Y-105985803D01*
X117727603Y-106001560D01*
X117678877Y-106039834D01*
X117671427Y-106045257D01*
X117640864Y-106065834D01*
X117620011Y-106079873D01*
X117615795Y-106083696D01*
X117594602Y-106104889D01*
X117583341Y-106114879D01*
X117557512Y-106135168D01*
X117553581Y-106139698D01*
X117553580Y-106139699D01*
X117515732Y-106183315D01*
X117509662Y-106189829D01*
X117029022Y-106670469D01*
X116966710Y-106704495D01*
X116895895Y-106699430D01*
X116839059Y-106656883D01*
X116817434Y-106610895D01*
X116771277Y-106419374D01*
X116771276Y-106419372D01*
X116769871Y-106413541D01*
X116767124Y-106407498D01*
X116705641Y-106272275D01*
X116680348Y-106216645D01*
X116555208Y-106040230D01*
X116475337Y-105963770D01*
X116453557Y-105932463D01*
X116452396Y-105933150D01*
X116371742Y-105796771D01*
X116371740Y-105796768D01*
X116367704Y-105789944D01*
X116250058Y-105672298D01*
X116243234Y-105668262D01*
X116243231Y-105668260D01*
X116113678Y-105591643D01*
X116113679Y-105591643D01*
X116106852Y-105587606D01*
X116099241Y-105585395D01*
X116099239Y-105585394D01*
X116046513Y-105570076D01*
X115947082Y-105541189D01*
X115940677Y-105540685D01*
X115940672Y-105540684D01*
X115912209Y-105538444D01*
X115912201Y-105538444D01*
X115909753Y-105538251D01*
X115476749Y-105538251D01*
X115474301Y-105538444D01*
X115474293Y-105538444D01*
X115445830Y-105540684D01*
X115445825Y-105540685D01*
X115439420Y-105541189D01*
X115339989Y-105570076D01*
X115287263Y-105585394D01*
X115287261Y-105585395D01*
X115279650Y-105587606D01*
X115272823Y-105591643D01*
X115272824Y-105591643D01*
X115202548Y-105633204D01*
X115138409Y-105650751D01*
X113435118Y-105650751D01*
X113424057Y-105649818D01*
X113424036Y-105650098D01*
X113418063Y-105649659D01*
X113412144Y-105648653D01*
X113317381Y-105650721D01*
X113314632Y-105650751D01*
X113274710Y-105650751D01*
X113267046Y-105651482D01*
X113257850Y-105652020D01*
X113216046Y-105652932D01*
X113201901Y-105653241D01*
X113201900Y-105653241D01*
X113195903Y-105653372D01*
X113190043Y-105654634D01*
X113190040Y-105654634D01*
X113162251Y-105660617D01*
X113147699Y-105662869D01*
X113142678Y-105663348D01*
X113113436Y-105666138D01*
X113053982Y-105683580D01*
X113045037Y-105685851D01*
X112990325Y-105697630D01*
X112990313Y-105697634D01*
X112984455Y-105698895D01*
X112978934Y-105701244D01*
X112978935Y-105701244D01*
X112965062Y-105707147D01*
X112952790Y-105712369D01*
X112938925Y-105717334D01*
X112905891Y-105727025D01*
X112850810Y-105755393D01*
X112842465Y-105759312D01*
X112785431Y-105783580D01*
X112765838Y-105796771D01*
X112756872Y-105802807D01*
X112744197Y-105810303D01*
X112713603Y-105826060D01*
X112664877Y-105864334D01*
X112657427Y-105869757D01*
X112611259Y-105900840D01*
X112606011Y-105904373D01*
X112601795Y-105908196D01*
X112580602Y-105929389D01*
X112569341Y-105939379D01*
X112543512Y-105959668D01*
X112539581Y-105964198D01*
X112539580Y-105964199D01*
X112501732Y-106007815D01*
X112495662Y-106014329D01*
X112426960Y-106083031D01*
X112418475Y-106090195D01*
X112418659Y-106090408D01*
X112414123Y-106094323D01*
X112409230Y-106097794D01*
X112405084Y-106102125D01*
X112343646Y-106166304D01*
X112341723Y-106168268D01*
X111450960Y-107059031D01*
X111442475Y-107066195D01*
X111442659Y-107066408D01*
X111438123Y-107070323D01*
X111433230Y-107073794D01*
X111429084Y-107078125D01*
X111367646Y-107142304D01*
X111365723Y-107144268D01*
X109603645Y-108906346D01*
X109541333Y-108940372D01*
X109514550Y-108943251D01*
X109160361Y-108943251D01*
X109093442Y-108948929D01*
X108993842Y-108957380D01*
X108993838Y-108957381D01*
X108988531Y-108957831D01*
X108983376Y-108959169D01*
X108983370Y-108959170D01*
X108770548Y-109014408D01*
X108770544Y-109014409D01*
X108765379Y-109015750D01*
X108760513Y-109017942D01*
X108760510Y-109017943D01*
X108613622Y-109084111D01*
X108555176Y-109110439D01*
X108363932Y-109239192D01*
X108197116Y-109398327D01*
X108059497Y-109583293D01*
X107955011Y-109788802D01*
X107953429Y-109793896D01*
X107953428Y-109793899D01*
X107891366Y-109993771D01*
X107886644Y-110008978D01*
X107856353Y-110237525D01*
X107865002Y-110467909D01*
X107912344Y-110693542D01*
X107914302Y-110698501D01*
X107914303Y-110698503D01*
X107967913Y-110834250D01*
X107997027Y-110907972D01*
X107999794Y-110912532D01*
X107999798Y-110912540D01*
X108097201Y-111073055D01*
X108115440Y-111141668D01*
X108093688Y-111209251D01*
X108062473Y-111241125D01*
X107912618Y-111347622D01*
X107693190Y-111552241D01*
X107502753Y-111784084D01*
X107344651Y-112039076D01*
X107342935Y-112042893D01*
X107342934Y-112042896D01*
X107324520Y-112083870D01*
X107221662Y-112312739D01*
X107196308Y-112397787D01*
X107139360Y-112588817D01*
X107135947Y-112600264D01*
X107089012Y-112896599D01*
X107084751Y-112990432D01*
X107084751Y-114535891D01*
X107084674Y-114540288D01*
X107080813Y-114650851D01*
X107081221Y-114655008D01*
X107091797Y-114762873D01*
X107092121Y-114766819D01*
X107099580Y-114879121D01*
X107100404Y-114883207D01*
X107100405Y-114883215D01*
X107105356Y-114907766D01*
X107107241Y-114920378D01*
X107110091Y-114949448D01*
X107111044Y-114953511D01*
X107135793Y-115059027D01*
X107136636Y-115062896D01*
X107158883Y-115173231D01*
X107168401Y-115200873D01*
X107171931Y-115213105D01*
X107178603Y-115241550D01*
X107218584Y-115346801D01*
X107219910Y-115350467D01*
X107256563Y-115456914D01*
X107258433Y-115460649D01*
X107258435Y-115460653D01*
X107269646Y-115483041D01*
X107274771Y-115494716D01*
X107285145Y-115522025D01*
X107287128Y-115525693D01*
X107287131Y-115525699D01*
X107338685Y-115621047D01*
X107340512Y-115624557D01*
X107390904Y-115725186D01*
X107407333Y-115749360D01*
X107413948Y-115760241D01*
X107425854Y-115782261D01*
X107425858Y-115782267D01*
X107427847Y-115785946D01*
X107430304Y-115789328D01*
X107430313Y-115789342D01*
X107493992Y-115876989D01*
X107496263Y-115880219D01*
X107559545Y-115973335D01*
X107562329Y-115976449D01*
X107562330Y-115976450D01*
X107579024Y-115995121D01*
X107587029Y-116005042D01*
X107604199Y-116028674D01*
X107667536Y-116098037D01*
X107698151Y-116128652D01*
X107702986Y-116133764D01*
X107759525Y-116196999D01*
X107762695Y-116199716D01*
X107762696Y-116199717D01*
X107804656Y-116235681D01*
X107811753Y-116242254D01*
X108249201Y-116679702D01*
X108252257Y-116682865D01*
X108327741Y-116763812D01*
X108358973Y-116789466D01*
X108414711Y-116835250D01*
X108417725Y-116837806D01*
X108502423Y-116911953D01*
X108505912Y-116914271D01*
X108526758Y-116928121D01*
X108537007Y-116935705D01*
X108556347Y-116951591D01*
X108556355Y-116951597D01*
X108559584Y-116954249D01*
X108655264Y-117013573D01*
X108658516Y-117015661D01*
X108752323Y-117077986D01*
X108778599Y-117090802D01*
X108789740Y-117096952D01*
X108814576Y-117112351D01*
X108827851Y-117118317D01*
X108917224Y-117158483D01*
X108920808Y-117160162D01*
X109018218Y-117207672D01*
X109018227Y-117207676D01*
X109021988Y-117209510D01*
X109025960Y-117210831D01*
X109025964Y-117210833D01*
X109049713Y-117218733D01*
X109061590Y-117223364D01*
X109088239Y-117235340D01*
X109092241Y-117236533D01*
X109092249Y-117236536D01*
X109196114Y-117267499D01*
X109199887Y-117268689D01*
X109306678Y-117304214D01*
X109335396Y-117309692D01*
X109347766Y-117312708D01*
X109371758Y-117319861D01*
X109371762Y-117319862D01*
X109375764Y-117321055D01*
X109476522Y-117337013D01*
X109486932Y-117338662D01*
X109490832Y-117339343D01*
X109597292Y-117359652D01*
X109597297Y-117359653D01*
X109601393Y-117360434D01*
X109605553Y-117360667D01*
X109605557Y-117360667D01*
X109630567Y-117362065D01*
X109643243Y-117363420D01*
X109668631Y-117367441D01*
X109668636Y-117367442D01*
X109672099Y-117367990D01*
X109714828Y-117369930D01*
X109764513Y-117372187D01*
X109764532Y-117372187D01*
X109765932Y-117372251D01*
X109809243Y-117372251D01*
X109816276Y-117372447D01*
X109900955Y-117377181D01*
X109905114Y-117376861D01*
X109905116Y-117376861D01*
X109960207Y-117372622D01*
X109969873Y-117372251D01*
X130045251Y-117372251D01*
X130113372Y-117392253D01*
X130159865Y-117445909D01*
X130171251Y-117498251D01*
X130171251Y-119279251D01*
X130151249Y-119347372D01*
X130097593Y-119393865D01*
X130045251Y-119405251D01*
X100325751Y-119405251D01*
X100257630Y-119385249D01*
X100211137Y-119331593D01*
X100199751Y-119279251D01*
X100199751Y-76010151D01*
X114080751Y-76010151D01*
X114091725Y-76115917D01*
X114147701Y-76283697D01*
X114240773Y-76434099D01*
X114365948Y-76559056D01*
X114372178Y-76562896D01*
X114372179Y-76562897D01*
X114509341Y-76647445D01*
X114516513Y-76651866D01*
X114596256Y-76678315D01*
X114677862Y-76705383D01*
X114677864Y-76705383D01*
X114684390Y-76707548D01*
X114691226Y-76708248D01*
X114691229Y-76708249D01*
X114734282Y-76712660D01*
X114788851Y-76718251D01*
X116089651Y-76718251D01*
X116092897Y-76717914D01*
X116092901Y-76717914D01*
X116188559Y-76707989D01*
X116188563Y-76707988D01*
X116195417Y-76707277D01*
X116201953Y-76705096D01*
X116201955Y-76705096D01*
X116334057Y-76661023D01*
X116363197Y-76651301D01*
X116513599Y-76558229D01*
X116638556Y-76433054D01*
X116731366Y-76282489D01*
X116787048Y-76114612D01*
X116797751Y-76010151D01*
X116797751Y-74409351D01*
X116786777Y-74303585D01*
X116730801Y-74135805D01*
X116637729Y-73985403D01*
X116512554Y-73860446D01*
X116506323Y-73856605D01*
X116368219Y-73771476D01*
X116368217Y-73771475D01*
X116361989Y-73767636D01*
X116201505Y-73714406D01*
X116200640Y-73714119D01*
X116200638Y-73714119D01*
X116194112Y-73711954D01*
X116187276Y-73711254D01*
X116187273Y-73711253D01*
X116144220Y-73706842D01*
X116089651Y-73701251D01*
X114788851Y-73701251D01*
X114785605Y-73701588D01*
X114785601Y-73701588D01*
X114689943Y-73711513D01*
X114689939Y-73711514D01*
X114683085Y-73712225D01*
X114676549Y-73714406D01*
X114676547Y-73714406D01*
X114544445Y-73758479D01*
X114515305Y-73768201D01*
X114364903Y-73861273D01*
X114239946Y-73986448D01*
X114147136Y-74137013D01*
X114091454Y-74304890D01*
X114080751Y-74409351D01*
X114080751Y-76010151D01*
X100199751Y-76010151D01*
X100199751Y-71018251D01*
X100219753Y-70950130D01*
X100273409Y-70903637D01*
X100325751Y-70892251D01*
X163826751Y-70892251D01*
X163894872Y-70912253D01*
G37*
%TD.AperFunction*%
%TA.AperFunction,Conductor*%
G36*
X139587907Y-86721606D02*
G01*
X139599019Y-86726680D01*
X139609461Y-86731449D01*
X139624722Y-86735930D01*
X139673259Y-86750182D01*
X139673263Y-86750183D01*
X139677582Y-86751451D01*
X139682031Y-86752091D01*
X139682037Y-86752092D01*
X139817804Y-86771612D01*
X139817809Y-86771612D01*
X139822251Y-86772251D01*
X140135038Y-86772251D01*
X140203159Y-86792253D01*
X140249652Y-86845909D01*
X140253182Y-86856188D01*
X140253506Y-86856067D01*
X140304636Y-86992456D01*
X140391990Y-87109012D01*
X140508546Y-87196366D01*
X140644935Y-87247496D01*
X140707117Y-87254251D01*
X147203385Y-87254251D01*
X147265567Y-87247496D01*
X147272963Y-87244724D01*
X147272969Y-87244722D01*
X147356141Y-87213542D01*
X147426948Y-87208359D01*
X147470097Y-87226576D01*
X147498841Y-87245674D01*
X147498857Y-87245683D01*
X147502323Y-87247986D01*
X147528599Y-87260802D01*
X147539740Y-87266952D01*
X147564576Y-87282351D01*
X147577188Y-87288019D01*
X147667224Y-87328483D01*
X147670808Y-87330162D01*
X147768218Y-87377672D01*
X147768227Y-87377676D01*
X147771988Y-87379510D01*
X147775960Y-87380831D01*
X147775964Y-87380833D01*
X147799713Y-87388733D01*
X147811590Y-87393364D01*
X147838239Y-87405340D01*
X147842241Y-87406533D01*
X147842249Y-87406536D01*
X147946114Y-87437499D01*
X147949887Y-87438689D01*
X148056678Y-87474214D01*
X148085396Y-87479692D01*
X148097766Y-87482708D01*
X148121758Y-87489861D01*
X148121762Y-87489862D01*
X148125764Y-87491055D01*
X148217751Y-87505624D01*
X148236932Y-87508662D01*
X148240832Y-87509343D01*
X148347292Y-87529652D01*
X148347297Y-87529653D01*
X148351393Y-87530434D01*
X148355553Y-87530667D01*
X148355557Y-87530667D01*
X148380567Y-87532065D01*
X148393243Y-87533420D01*
X148418631Y-87537441D01*
X148418636Y-87537442D01*
X148422099Y-87537990D01*
X148464828Y-87539930D01*
X148514513Y-87542187D01*
X148514532Y-87542187D01*
X148515932Y-87542251D01*
X148559243Y-87542251D01*
X148566276Y-87542447D01*
X148650955Y-87547181D01*
X148655114Y-87546861D01*
X148655116Y-87546861D01*
X148710207Y-87542622D01*
X148719873Y-87542251D01*
X153481560Y-87542251D01*
X153549681Y-87562253D01*
X153570655Y-87579156D01*
X155815846Y-89824348D01*
X155849872Y-89886660D01*
X155852751Y-89913443D01*
X155852751Y-109782060D01*
X155832749Y-109850181D01*
X155815846Y-109871155D01*
X152868655Y-112818346D01*
X152806343Y-112852372D01*
X152779560Y-112855251D01*
X147082352Y-112855251D01*
X147014231Y-112835249D01*
X146967738Y-112781593D01*
X146957634Y-112711319D01*
X146987128Y-112646739D01*
X147019827Y-112619859D01*
X147028288Y-112615023D01*
X147028287Y-112615023D01*
X147032349Y-112612702D01*
X147037973Y-112608269D01*
X147051542Y-112598942D01*
X147057714Y-112595270D01*
X147061322Y-112592323D01*
X147061328Y-112592318D01*
X147146216Y-112522961D01*
X147147931Y-112521585D01*
X147233940Y-112453781D01*
X147233943Y-112453778D01*
X147237608Y-112450889D01*
X147309280Y-112374699D01*
X147311960Y-112371937D01*
X149326616Y-110357281D01*
X149337705Y-110347426D01*
X149349940Y-110337781D01*
X149349943Y-110337778D01*
X149353608Y-110334889D01*
X149425280Y-110258699D01*
X149427960Y-110255937D01*
X152203873Y-107480024D01*
X152209067Y-107475116D01*
X152264267Y-107425848D01*
X152267757Y-107422733D01*
X152270746Y-107419139D01*
X152270751Y-107419134D01*
X152340826Y-107334878D01*
X152342247Y-107333199D01*
X152413750Y-107250216D01*
X152413754Y-107250211D01*
X152416797Y-107246679D01*
X152420616Y-107240627D01*
X152430302Y-107227294D01*
X152434888Y-107221781D01*
X152437312Y-107217786D01*
X152437318Y-107217778D01*
X152494188Y-107124061D01*
X152495344Y-107122192D01*
X152553774Y-107029584D01*
X152556268Y-107025632D01*
X152559152Y-107019078D01*
X152566761Y-107004461D01*
X152570480Y-106998332D01*
X152614648Y-106893003D01*
X152615516Y-106890982D01*
X152659651Y-106790677D01*
X152661535Y-106786396D01*
X152662764Y-106781889D01*
X152662767Y-106781880D01*
X152663421Y-106779480D01*
X152668784Y-106763903D01*
X152671554Y-106757296D01*
X152699675Y-106646570D01*
X152700233Y-106644452D01*
X152713665Y-106595183D01*
X152730283Y-106534230D01*
X152731124Y-106527124D01*
X152734130Y-106510904D01*
X152735892Y-106503968D01*
X152745606Y-106407498D01*
X152747336Y-106390323D01*
X152747575Y-106388138D01*
X152760455Y-106279309D01*
X152761004Y-106274671D01*
X152757810Y-106170132D01*
X152757751Y-106166284D01*
X152757751Y-101364346D01*
X152757762Y-101362697D01*
X152759332Y-101242773D01*
X152759332Y-101242770D01*
X152759393Y-101238096D01*
X152758762Y-101233463D01*
X152758477Y-101228797D01*
X152758516Y-101228795D01*
X152757751Y-101217497D01*
X152757751Y-98627763D01*
X152760631Y-98600976D01*
X152760682Y-98600742D01*
X152761951Y-98596420D01*
X152763174Y-98587920D01*
X152782112Y-98456198D01*
X152782112Y-98456193D01*
X152782751Y-98451751D01*
X152782751Y-92607751D01*
X152777919Y-92562803D01*
X152771379Y-92501966D01*
X152771378Y-92501959D01*
X152771017Y-92498602D01*
X152763332Y-92463272D01*
X152760345Y-92449541D01*
X152760344Y-92449536D01*
X152759631Y-92446260D01*
X152724961Y-92342094D01*
X152645943Y-92219139D01*
X152627761Y-92198155D01*
X152602390Y-92168876D01*
X152599450Y-92165483D01*
X152531760Y-92106829D01*
X152495801Y-92075670D01*
X152495798Y-92075668D01*
X152488990Y-92069769D01*
X152356041Y-92009053D01*
X152332287Y-92002078D01*
X152292243Y-91990320D01*
X152292239Y-91990319D01*
X152287920Y-91989051D01*
X152283463Y-91988410D01*
X152283453Y-91988408D01*
X152220754Y-91979393D01*
X152156173Y-91949900D01*
X152147887Y-91941244D01*
X152147729Y-91941403D01*
X152027734Y-91821617D01*
X152022554Y-91816446D01*
X152016323Y-91812605D01*
X151878219Y-91727476D01*
X151878217Y-91727475D01*
X151871989Y-91723636D01*
X151711505Y-91670406D01*
X151710640Y-91670119D01*
X151710638Y-91670119D01*
X151704112Y-91667954D01*
X151697276Y-91667254D01*
X151697273Y-91667253D01*
X151654220Y-91662842D01*
X151599651Y-91657251D01*
X150398851Y-91657251D01*
X150395605Y-91657588D01*
X150395601Y-91657588D01*
X150299943Y-91667513D01*
X150299939Y-91667514D01*
X150293085Y-91668225D01*
X150286549Y-91670406D01*
X150286547Y-91670406D01*
X150154445Y-91714479D01*
X150125305Y-91724201D01*
X149974903Y-91817273D01*
X149969730Y-91822455D01*
X149921999Y-91870269D01*
X149859716Y-91904348D01*
X149832826Y-91907251D01*
X147789751Y-91907251D01*
X147721630Y-91887249D01*
X147675137Y-91833593D01*
X147663751Y-91781251D01*
X147663751Y-88263617D01*
X147656996Y-88201435D01*
X147605866Y-88065046D01*
X147518512Y-87948490D01*
X147401956Y-87861136D01*
X147265567Y-87810006D01*
X147203385Y-87803251D01*
X140707117Y-87803251D01*
X140644935Y-87810006D01*
X140508546Y-87861136D01*
X140391990Y-87948490D01*
X140304636Y-88065046D01*
X140253506Y-88201435D01*
X140246751Y-88263617D01*
X140246751Y-89177251D01*
X140226749Y-89245372D01*
X140173093Y-89291865D01*
X140120751Y-89303251D01*
X137594250Y-89303251D01*
X137591742Y-89303453D01*
X137591737Y-89303453D01*
X137418327Y-89317405D01*
X137418322Y-89317406D01*
X137413286Y-89317811D01*
X137408378Y-89319017D01*
X137408375Y-89319017D01*
X137182459Y-89374507D01*
X137177545Y-89375714D01*
X137172893Y-89377689D01*
X137172889Y-89377690D01*
X137129570Y-89396078D01*
X136954095Y-89470563D01*
X136949811Y-89473261D01*
X136752963Y-89597223D01*
X136752960Y-89597225D01*
X136748684Y-89599918D01*
X136744890Y-89603263D01*
X136707076Y-89636600D01*
X136642750Y-89666645D01*
X136572392Y-89657144D01*
X136518340Y-89611112D01*
X136497751Y-89542086D01*
X136497751Y-88135251D01*
X136517753Y-88067130D01*
X136571409Y-88020637D01*
X136623751Y-88009251D01*
X137724685Y-88009251D01*
X137726953Y-88009086D01*
X137726965Y-88009086D01*
X137858524Y-87999540D01*
X137927873Y-87994508D01*
X137932328Y-87993524D01*
X137932331Y-87993524D01*
X138190324Y-87936565D01*
X138190328Y-87936564D01*
X138194784Y-87935580D01*
X138391275Y-87861136D01*
X138446123Y-87840356D01*
X138446126Y-87840355D01*
X138450393Y-87838738D01*
X138689345Y-87706012D01*
X138877714Y-87562253D01*
X138903002Y-87542954D01*
X138903003Y-87542953D01*
X138906634Y-87540182D01*
X138913245Y-87533420D01*
X139035334Y-87408528D01*
X139097709Y-87344722D01*
X139124072Y-87308503D01*
X139255880Y-87127418D01*
X139255883Y-87127412D01*
X139258566Y-87123727D01*
X139260688Y-87119694D01*
X139260691Y-87119689D01*
X139383711Y-86885866D01*
X139383711Y-86885865D01*
X139385837Y-86881825D01*
X139387354Y-86877529D01*
X139387358Y-86877520D01*
X139416757Y-86794266D01*
X139458301Y-86736693D01*
X139524375Y-86710719D01*
X139587907Y-86721606D01*
G37*
%TD.AperFunction*%
%TA.AperFunction,Conductor*%
G36*
X152015251Y-102387751D02*
G01*
X143637452Y-102387751D01*
X143569331Y-102367749D01*
X143548357Y-102350846D01*
X143485541Y-102288030D01*
X143452432Y-102229631D01*
X143413860Y-102076073D01*
X143412600Y-102071055D01*
X143322631Y-101864142D01*
X143200077Y-101674702D01*
X143176054Y-101648301D01*
X143158057Y-101628522D01*
X143127005Y-101564676D01*
X143125251Y-101543723D01*
X143125251Y-98449751D01*
X143145253Y-98381630D01*
X143198909Y-98335137D01*
X143251251Y-98323751D01*
X152015251Y-98323751D01*
X152015251Y-102387751D01*
G37*
%TD.AperFunction*%
%TA.AperFunction,Conductor*%
G36*
X152211372Y-92501753D02*
G01*
X152257865Y-92555409D01*
X152269251Y-92607751D01*
X152269251Y-98451751D01*
X152249249Y-98519872D01*
X152195593Y-98566365D01*
X152143251Y-98577751D01*
X148459251Y-98577751D01*
X148459251Y-97862637D01*
X148477992Y-97796520D01*
X148502525Y-97756721D01*
X148502526Y-97756718D01*
X148506366Y-97750489D01*
X148562048Y-97582612D01*
X148572751Y-97478151D01*
X148572751Y-96577351D01*
X148561777Y-96471585D01*
X148505801Y-96303805D01*
X148478107Y-96259052D01*
X148459251Y-96192749D01*
X148459251Y-92607751D01*
X148479253Y-92539630D01*
X148532909Y-92493137D01*
X148585251Y-92481751D01*
X152143251Y-92481751D01*
X152211372Y-92501753D01*
G37*
%TD.AperFunction*%
%TA.AperFunction,Conductor*%
G36*
X147258372Y-78023753D02*
G01*
X147304865Y-78077409D01*
X147316251Y-78129751D01*
X147316251Y-86132751D01*
X147296249Y-86200872D01*
X147242593Y-86247365D01*
X147190251Y-86258751D01*
X139822251Y-86258751D01*
X139754130Y-86238749D01*
X139707637Y-86185093D01*
X139696251Y-86132751D01*
X139696251Y-78129751D01*
X139716253Y-78061630D01*
X139769909Y-78015137D01*
X139822251Y-78003751D01*
X147190251Y-78003751D01*
X147258372Y-78023753D01*
G37*
%TD.AperFunction*%
%TA.AperFunction,Conductor*%
G36*
X146369372Y-91231753D02*
G01*
X146415865Y-91285409D01*
X146427251Y-91337751D01*
X146427251Y-95768251D01*
X146407249Y-95836372D01*
X146353593Y-95882865D01*
X146301251Y-95894251D01*
X142272898Y-95894251D01*
X142261837Y-95893318D01*
X142261816Y-95893598D01*
X142255843Y-95893159D01*
X142249924Y-95892153D01*
X142155161Y-95894221D01*
X142152412Y-95894251D01*
X142112490Y-95894251D01*
X142104826Y-95894982D01*
X142095630Y-95895520D01*
X142059966Y-95896298D01*
X142039679Y-95896741D01*
X142039678Y-95896741D01*
X142033683Y-95896872D01*
X142000037Y-95904116D01*
X141985487Y-95906368D01*
X141965021Y-95908321D01*
X141951216Y-95909638D01*
X141945456Y-95911328D01*
X141945455Y-95911328D01*
X141891763Y-95927080D01*
X141882814Y-95929354D01*
X141822236Y-95942395D01*
X141816717Y-95944743D01*
X141816715Y-95944744D01*
X141790565Y-95955871D01*
X141776704Y-95960834D01*
X141743671Y-95970525D01*
X141688590Y-95998893D01*
X141680245Y-96002812D01*
X141623211Y-96027080D01*
X141622387Y-96025143D01*
X141572751Y-96037751D01*
X139441251Y-96037751D01*
X139373130Y-96017749D01*
X139326637Y-95964093D01*
X139315251Y-95911751D01*
X139315251Y-94687308D01*
X139332132Y-94624308D01*
X139393248Y-94518453D01*
X139464887Y-94394370D01*
X139570113Y-94133927D01*
X139638068Y-93861375D01*
X139667429Y-93582018D01*
X139657626Y-93301293D01*
X139608849Y-93024664D01*
X139522048Y-92757516D01*
X139398911Y-92505049D01*
X139396456Y-92501410D01*
X139396453Y-92501404D01*
X139336792Y-92412954D01*
X139315251Y-92342496D01*
X139315251Y-91337751D01*
X139335253Y-91269630D01*
X139388909Y-91223137D01*
X139441251Y-91211751D01*
X146301251Y-91211751D01*
X146369372Y-91231753D01*
G37*
%TD.AperFunction*%
%TA.AperFunction,Conductor*%
G36*
X125999511Y-82849753D02*
G01*
X126020485Y-82866656D01*
X126070346Y-82916517D01*
X126104372Y-82978829D01*
X126107251Y-83005612D01*
X126107251Y-90323751D01*
X126087249Y-90391872D01*
X126033593Y-90438365D01*
X125981251Y-90449751D01*
X115057251Y-90449751D01*
X114989130Y-90429749D01*
X114942637Y-90376093D01*
X114931251Y-90323751D01*
X114931251Y-82955751D01*
X114951253Y-82887630D01*
X115004909Y-82841137D01*
X115057251Y-82829751D01*
X125931390Y-82829751D01*
X125999511Y-82849753D01*
G37*
%TD.AperFunction*%
%TA.AperFunction,Conductor*%
G36*
X152015251Y-104039751D02*
G01*
X151995249Y-104107872D01*
X151941593Y-104154365D01*
X151889251Y-104165751D01*
X146045251Y-104165751D01*
X145977130Y-104145749D01*
X145930637Y-104092093D01*
X145919251Y-104039751D01*
X145919251Y-102133751D01*
X152015251Y-102133751D01*
X152015251Y-104039751D01*
G37*
%TD.AperFunction*%
M02*
