%TF.GenerationSoftware,KiCad,Pcbnew,(6.0.7)*%
%TF.CreationDate,2022-09-15T17:32:09-05:00*%
%TF.ProjectId,Simplified01,53696d70-6c69-4666-9965-6430312e6b69,rev?*%
%TF.SameCoordinates,Original*%
%TF.FileFunction,Copper,L2,Bot*%
%TF.FilePolarity,Positive*%
%FSLAX46Y46*%
G04 Gerber Fmt 4.6, Leading zero omitted, Abs format (unit mm)*
G04 Created by KiCad (PCBNEW (6.0.7)) date 2022-09-15 17:32:09*
%MOMM*%
%LPD*%
G01*
G04 APERTURE LIST*
G04 Aperture macros list*
%AMRoundRect*
0 Rectangle with rounded corners*
0 $1 Rounding radius*
0 $2 $3 $4 $5 $6 $7 $8 $9 X,Y pos of 4 corners*
0 Add a 4 corners polygon primitive as box body*
4,1,4,$2,$3,$4,$5,$6,$7,$8,$9,$2,$3,0*
0 Add four circle primitives for the rounded corners*
1,1,$1+$1,$2,$3*
1,1,$1+$1,$4,$5*
1,1,$1+$1,$6,$7*
1,1,$1+$1,$8,$9*
0 Add four rect primitives between the rounded corners*
20,1,$1+$1,$2,$3,$4,$5,0*
20,1,$1+$1,$4,$5,$6,$7,0*
20,1,$1+$1,$6,$7,$8,$9,0*
20,1,$1+$1,$8,$9,$2,$3,0*%
G04 Aperture macros list end*
%TA.AperFunction,ComponentPad*%
%ADD10RoundRect,0.250000X0.600000X0.750000X-0.600000X0.750000X-0.600000X-0.750000X0.600000X-0.750000X0*%
%TD*%
%TA.AperFunction,ComponentPad*%
%ADD11O,1.700000X2.000000*%
%TD*%
%TA.AperFunction,ComponentPad*%
%ADD12C,4.400000*%
%TD*%
%TA.AperFunction,ComponentPad*%
%ADD13RoundRect,0.250000X0.750000X-0.600000X0.750000X0.600000X-0.750000X0.600000X-0.750000X-0.600000X0*%
%TD*%
%TA.AperFunction,ComponentPad*%
%ADD14O,2.000000X1.700000*%
%TD*%
%TA.AperFunction,ComponentPad*%
%ADD15R,3.500000X3.500000*%
%TD*%
%TA.AperFunction,ComponentPad*%
%ADD16RoundRect,0.750000X-0.750000X-1.000000X0.750000X-1.000000X0.750000X1.000000X-0.750000X1.000000X0*%
%TD*%
%TA.AperFunction,ComponentPad*%
%ADD17RoundRect,0.875000X-0.875000X-0.875000X0.875000X-0.875000X0.875000X0.875000X-0.875000X0.875000X0*%
%TD*%
%TA.AperFunction,ComponentPad*%
%ADD18RoundRect,0.250000X0.725000X-0.600000X0.725000X0.600000X-0.725000X0.600000X-0.725000X-0.600000X0*%
%TD*%
%TA.AperFunction,ComponentPad*%
%ADD19O,1.950000X1.700000*%
%TD*%
%TA.AperFunction,ComponentPad*%
%ADD20R,3.032000X1.905000*%
%TD*%
%TA.AperFunction,SMDPad,CuDef*%
%ADD21R,1.600000X2.000000*%
%TD*%
%TA.AperFunction,ComponentPad*%
%ADD22R,1.727200X1.727200*%
%TD*%
%TA.AperFunction,ComponentPad*%
%ADD23O,1.727200X1.727200*%
%TD*%
%TA.AperFunction,ViaPad*%
%ADD24C,0.800000*%
%TD*%
%TA.AperFunction,Conductor*%
%ADD25C,1.250000*%
%TD*%
%TA.AperFunction,Conductor*%
%ADD26C,2.500000*%
%TD*%
G04 APERTURE END LIST*
D10*
X115439251Y-75209751D03*
D11*
X112939251Y-75209751D03*
D12*
X103501251Y-74193751D03*
X160651251Y-116103751D03*
X160651251Y-74193751D03*
D13*
X109343251Y-101371751D03*
D14*
X109343251Y-98871751D03*
D12*
X103501251Y-116103751D03*
D15*
X115439251Y-86893751D03*
D16*
X109439251Y-86893751D03*
D17*
X112439251Y-91593751D03*
D18*
X109343251Y-112801751D03*
D19*
X109343251Y-110301751D03*
X109343251Y-107801751D03*
D20*
X123559251Y-102895751D03*
X123559251Y-100355751D03*
X123559251Y-97815751D03*
D21*
X150745251Y-98925751D03*
X150745251Y-104325751D03*
D22*
X134489251Y-99974751D03*
D23*
X134489251Y-102514751D03*
X137029251Y-99974751D03*
X137029251Y-102514751D03*
X139569251Y-99974751D03*
X139569251Y-102514751D03*
X142109251Y-99974751D03*
X142109251Y-102514751D03*
D24*
X140966251Y-78638751D03*
X140966251Y-79908751D03*
X142236251Y-79908751D03*
X146046251Y-79908751D03*
X143506251Y-79908751D03*
X144776251Y-79908751D03*
X146046251Y-78638751D03*
X144776251Y-78638751D03*
X142236251Y-78638751D03*
X143506251Y-78638751D03*
X143760251Y-95529751D03*
X141220251Y-95529751D03*
X147443251Y-95529751D03*
X146300251Y-95529751D03*
X145030251Y-95529751D03*
X142490251Y-95529751D03*
X140033251Y-87445751D03*
X151761251Y-111023751D03*
X114423251Y-95529751D03*
X154301251Y-107213751D03*
X148284251Y-88338751D03*
X150491251Y-111023751D03*
X153031251Y-108483751D03*
X115439251Y-95529751D03*
X153031251Y-109753751D03*
X114931251Y-96291751D03*
X114931251Y-94767751D03*
X139315251Y-87909751D03*
X154301251Y-109753751D03*
X154301251Y-108483751D03*
X151761251Y-109753751D03*
X153031251Y-111023751D03*
X147649251Y-87703751D03*
D25*
X149983251Y-98163751D02*
X150745251Y-98925751D01*
X149381251Y-98163751D02*
X149983251Y-98163751D01*
X149381251Y-98163751D02*
X143092251Y-98163751D01*
X142871251Y-97942751D02*
X143092251Y-98163751D01*
X140204251Y-97942751D02*
X142871251Y-97942751D01*
X139569251Y-98577751D02*
X140204251Y-97942751D01*
X139569251Y-98577751D02*
X139569251Y-99974751D01*
D26*
X115439251Y-75209751D02*
X115439251Y-86893751D01*
%TA.AperFunction,Conductor*%
G36*
X163894872Y-70912253D02*
G01*
X163941365Y-70965909D01*
X163952751Y-71018251D01*
X163952751Y-119279251D01*
X163932749Y-119347372D01*
X163879093Y-119393865D01*
X163826751Y-119405251D01*
X146807251Y-119405251D01*
X146739130Y-119385249D01*
X146692637Y-119331593D01*
X146681251Y-119279251D01*
X146681251Y-117373751D01*
X130171251Y-117373751D01*
X130171251Y-119279251D01*
X130151249Y-119347372D01*
X130097593Y-119393865D01*
X130045251Y-119405251D01*
X100325751Y-119405251D01*
X100257630Y-119385249D01*
X100211137Y-119331593D01*
X100199751Y-119279251D01*
X100199751Y-110237525D01*
X107856353Y-110237525D01*
X107865002Y-110467909D01*
X107912344Y-110693542D01*
X107997027Y-110907972D01*
X108116628Y-111105068D01*
X108120125Y-111109098D01*
X108206689Y-111208854D01*
X108267728Y-111279196D01*
X108303371Y-111308421D01*
X108343365Y-111367080D01*
X108345297Y-111438050D01*
X108308553Y-111498799D01*
X108289783Y-111512999D01*
X108158830Y-111594036D01*
X108143903Y-111603273D01*
X108018946Y-111728448D01*
X107926136Y-111879013D01*
X107870454Y-112046890D01*
X107859751Y-112151351D01*
X107859751Y-113452151D01*
X107870725Y-113557917D01*
X107926701Y-113725697D01*
X108019773Y-113876099D01*
X108144948Y-114001056D01*
X108151178Y-114004896D01*
X108151179Y-114004897D01*
X108288341Y-114089445D01*
X108295513Y-114093866D01*
X108375256Y-114120315D01*
X108456862Y-114147383D01*
X108456864Y-114147383D01*
X108463390Y-114149548D01*
X108470226Y-114150248D01*
X108470229Y-114150249D01*
X108513282Y-114154660D01*
X108567851Y-114160251D01*
X110118651Y-114160251D01*
X110121897Y-114159914D01*
X110121901Y-114159914D01*
X110217559Y-114149989D01*
X110217563Y-114149988D01*
X110224417Y-114149277D01*
X110230953Y-114147096D01*
X110230955Y-114147096D01*
X110363057Y-114103023D01*
X110392197Y-114093301D01*
X110542599Y-114000229D01*
X110667556Y-113875054D01*
X110760366Y-113724489D01*
X110816048Y-113556612D01*
X110826751Y-113452151D01*
X110826751Y-112151351D01*
X110815777Y-112045585D01*
X110759801Y-111877805D01*
X110666729Y-111727403D01*
X110541554Y-111602446D01*
X110395911Y-111512670D01*
X110348419Y-111459899D01*
X110336995Y-111389827D01*
X110365269Y-111324703D01*
X110375056Y-111314241D01*
X110485529Y-111208854D01*
X110489386Y-111205175D01*
X110627005Y-111020209D01*
X110731491Y-110814700D01*
X110767572Y-110698503D01*
X110798275Y-110599622D01*
X110799858Y-110594524D01*
X110800559Y-110589235D01*
X110829449Y-110371262D01*
X110829449Y-110371257D01*
X110830149Y-110365977D01*
X110821500Y-110135593D01*
X110774158Y-109909960D01*
X110689475Y-109695530D01*
X110569874Y-109498434D01*
X110483006Y-109398327D01*
X110422274Y-109328339D01*
X110422272Y-109328337D01*
X110418774Y-109324306D01*
X110377221Y-109290235D01*
X110244624Y-109181511D01*
X110244618Y-109181507D01*
X110240496Y-109178127D01*
X110235860Y-109175488D01*
X110235857Y-109175486D01*
X110044780Y-109066719D01*
X110040137Y-109064076D01*
X109823426Y-108985414D01*
X109818177Y-108984465D01*
X109818174Y-108984464D01*
X109600643Y-108945128D01*
X109600636Y-108945127D01*
X109596559Y-108944390D01*
X109578837Y-108943554D01*
X109573895Y-108943321D01*
X109573888Y-108943321D01*
X109572407Y-108943251D01*
X109160361Y-108943251D01*
X109093442Y-108948929D01*
X108993842Y-108957380D01*
X108993838Y-108957381D01*
X108988531Y-108957831D01*
X108983376Y-108959169D01*
X108983370Y-108959170D01*
X108770548Y-109014408D01*
X108770544Y-109014409D01*
X108765379Y-109015750D01*
X108760513Y-109017942D01*
X108760510Y-109017943D01*
X108652231Y-109066719D01*
X108555176Y-109110439D01*
X108363932Y-109239192D01*
X108197116Y-109398327D01*
X108059497Y-109583293D01*
X107955011Y-109788802D01*
X107953429Y-109793896D01*
X107953428Y-109793899D01*
X107891366Y-109993771D01*
X107886644Y-110008978D01*
X107885943Y-110014267D01*
X107870555Y-110130374D01*
X107856353Y-110237525D01*
X100199751Y-110237525D01*
X100199751Y-103896385D01*
X121534751Y-103896385D01*
X121541506Y-103958567D01*
X121592636Y-104094956D01*
X121679990Y-104211512D01*
X121796546Y-104298866D01*
X121932935Y-104349996D01*
X121995117Y-104356751D01*
X125123385Y-104356751D01*
X125185567Y-104349996D01*
X125321956Y-104298866D01*
X125438512Y-104211512D01*
X125525866Y-104094956D01*
X125576996Y-103958567D01*
X125583751Y-103896385D01*
X125583751Y-101895117D01*
X125576996Y-101832935D01*
X125525866Y-101696546D01*
X125520485Y-101689366D01*
X125518784Y-101686259D01*
X125503615Y-101616902D01*
X125518784Y-101565243D01*
X125520485Y-101562136D01*
X125525866Y-101554956D01*
X125576996Y-101418567D01*
X125583751Y-101356385D01*
X125583751Y-100886485D01*
X133117151Y-100886485D01*
X133123906Y-100948667D01*
X133175036Y-101085056D01*
X133262390Y-101201612D01*
X133378946Y-101288966D01*
X133515335Y-101340096D01*
X133577517Y-101346851D01*
X135400985Y-101346851D01*
X135463167Y-101340096D01*
X135599556Y-101288966D01*
X135716112Y-101201612D01*
X135803466Y-101085056D01*
X135841464Y-100983697D01*
X135884105Y-100926932D01*
X135950667Y-100902232D01*
X136020016Y-100917439D01*
X136054682Y-100945427D01*
X136065953Y-100958438D01*
X136239550Y-101102561D01*
X136244002Y-101105163D01*
X136244007Y-101105166D01*
X136293320Y-101133982D01*
X136342043Y-101185621D01*
X136355114Y-101255404D01*
X136328382Y-101321176D01*
X136297846Y-101348534D01*
X136295586Y-101349711D01*
X136115156Y-101485181D01*
X136111584Y-101488919D01*
X135989281Y-101616902D01*
X135959275Y-101648301D01*
X135832129Y-101834691D01*
X135829955Y-101839375D01*
X135829953Y-101839378D01*
X135745113Y-102022151D01*
X135737132Y-102039344D01*
X135676836Y-102256764D01*
X135652860Y-102481113D01*
X135653157Y-102486265D01*
X135653157Y-102486269D01*
X135663499Y-102665619D01*
X135665848Y-102706365D01*
X135666985Y-102711411D01*
X135666986Y-102711417D01*
X135688235Y-102805703D01*
X135715451Y-102926471D01*
X135717393Y-102931253D01*
X135717394Y-102931257D01*
X135754073Y-103021586D01*
X135800337Y-103135520D01*
X135918226Y-103327898D01*
X136065953Y-103498438D01*
X136239550Y-103642561D01*
X136244002Y-103645163D01*
X136244007Y-103645166D01*
X136333342Y-103697369D01*
X136434354Y-103756396D01*
X136645135Y-103836885D01*
X136650203Y-103837916D01*
X136650206Y-103837917D01*
X136758655Y-103859981D01*
X136866232Y-103881868D01*
X136871407Y-103882058D01*
X136871409Y-103882058D01*
X137086543Y-103889947D01*
X137086547Y-103889947D01*
X137091707Y-103890136D01*
X137096827Y-103889480D01*
X137096829Y-103889480D01*
X137166236Y-103880589D01*
X137315504Y-103861467D01*
X137320453Y-103859982D01*
X137320459Y-103859981D01*
X137526664Y-103798116D01*
X137526663Y-103798116D01*
X137531614Y-103796631D01*
X137626670Y-103750063D01*
X137729582Y-103699648D01*
X137729587Y-103699645D01*
X137734233Y-103697369D01*
X137738443Y-103694366D01*
X137738448Y-103694363D01*
X137913706Y-103569352D01*
X137913710Y-103569348D01*
X137917918Y-103566347D01*
X138077738Y-103407084D01*
X138198621Y-103238858D01*
X138254615Y-103195210D01*
X138325319Y-103188764D01*
X138388283Y-103221567D01*
X138408376Y-103246550D01*
X138455526Y-103323494D01*
X138455530Y-103323499D01*
X138458226Y-103327898D01*
X138605953Y-103498438D01*
X138779550Y-103642561D01*
X138784002Y-103645163D01*
X138784007Y-103645166D01*
X138873342Y-103697369D01*
X138974354Y-103756396D01*
X139185135Y-103836885D01*
X139190203Y-103837916D01*
X139190206Y-103837917D01*
X139298655Y-103859981D01*
X139406232Y-103881868D01*
X139411407Y-103882058D01*
X139411409Y-103882058D01*
X139626543Y-103889947D01*
X139626547Y-103889947D01*
X139631707Y-103890136D01*
X139636827Y-103889480D01*
X139636829Y-103889480D01*
X139706236Y-103880589D01*
X139855504Y-103861467D01*
X139860453Y-103859982D01*
X139860459Y-103859981D01*
X140066664Y-103798116D01*
X140066663Y-103798116D01*
X140071614Y-103796631D01*
X140166670Y-103750063D01*
X140269582Y-103699648D01*
X140269587Y-103699645D01*
X140274233Y-103697369D01*
X140278443Y-103694366D01*
X140278448Y-103694363D01*
X140453706Y-103569352D01*
X140453710Y-103569348D01*
X140457918Y-103566347D01*
X140617738Y-103407084D01*
X140738621Y-103238858D01*
X140794615Y-103195210D01*
X140865319Y-103188764D01*
X140928283Y-103221567D01*
X140948376Y-103246550D01*
X140995526Y-103323494D01*
X140995530Y-103323499D01*
X140998226Y-103327898D01*
X141145953Y-103498438D01*
X141319550Y-103642561D01*
X141324002Y-103645163D01*
X141324007Y-103645166D01*
X141413342Y-103697369D01*
X141514354Y-103756396D01*
X141725135Y-103836885D01*
X141730203Y-103837916D01*
X141730206Y-103837917D01*
X141838655Y-103859981D01*
X141946232Y-103881868D01*
X141951407Y-103882058D01*
X141951409Y-103882058D01*
X142166543Y-103889947D01*
X142166547Y-103889947D01*
X142171707Y-103890136D01*
X142176827Y-103889480D01*
X142176829Y-103889480D01*
X142246236Y-103880589D01*
X142395504Y-103861467D01*
X142400453Y-103859982D01*
X142400459Y-103859981D01*
X142606664Y-103798116D01*
X142606663Y-103798116D01*
X142611614Y-103796631D01*
X142706670Y-103750063D01*
X142809582Y-103699648D01*
X142809587Y-103699645D01*
X142814233Y-103697369D01*
X142818443Y-103694366D01*
X142818448Y-103694363D01*
X142993706Y-103569352D01*
X142993710Y-103569348D01*
X142997918Y-103566347D01*
X143157738Y-103407084D01*
X143289401Y-103223856D01*
X143389369Y-103021586D01*
X143454959Y-102805703D01*
X143455634Y-102800577D01*
X143483972Y-102585329D01*
X143483973Y-102585323D01*
X143484409Y-102582007D01*
X143486053Y-102514751D01*
X143467566Y-102289883D01*
X143412600Y-102071055D01*
X143322631Y-101864142D01*
X143274533Y-101789794D01*
X143202885Y-101679042D01*
X143202883Y-101679039D01*
X143200077Y-101674702D01*
X143048228Y-101507822D01*
X143044177Y-101504623D01*
X143044173Y-101504619D01*
X142875217Y-101371185D01*
X142875213Y-101371183D01*
X142871162Y-101367983D01*
X142847786Y-101355079D01*
X142797815Y-101304647D01*
X142783043Y-101235204D01*
X142808159Y-101168798D01*
X142835510Y-101142192D01*
X142993706Y-101029352D01*
X142993710Y-101029348D01*
X142997918Y-101026347D01*
X143157738Y-100867084D01*
X143289401Y-100683856D01*
X143389369Y-100481586D01*
X143454959Y-100265703D01*
X143466289Y-100179642D01*
X143483972Y-100045329D01*
X143483973Y-100045323D01*
X143484409Y-100042007D01*
X143486053Y-99974751D01*
X143467566Y-99749883D01*
X143412600Y-99531055D01*
X143387571Y-99473493D01*
X143378752Y-99403046D01*
X143409418Y-99339015D01*
X143469835Y-99301727D01*
X143503121Y-99297251D01*
X149310751Y-99297251D01*
X149378872Y-99317253D01*
X149425365Y-99370909D01*
X149436751Y-99423251D01*
X149436751Y-99973885D01*
X149437120Y-99977282D01*
X149437436Y-99980191D01*
X149443506Y-100036067D01*
X149494636Y-100172456D01*
X149581990Y-100289012D01*
X149698546Y-100376366D01*
X149834935Y-100427496D01*
X149897117Y-100434251D01*
X151593385Y-100434251D01*
X151655567Y-100427496D01*
X151791956Y-100376366D01*
X151908512Y-100289012D01*
X151995866Y-100172456D01*
X152046996Y-100036067D01*
X152053066Y-99980191D01*
X152053382Y-99977282D01*
X152053751Y-99973885D01*
X152053751Y-97877617D01*
X152046996Y-97815435D01*
X151995866Y-97679046D01*
X151908512Y-97562490D01*
X151791956Y-97475136D01*
X151655567Y-97424006D01*
X151593385Y-97417251D01*
X150893207Y-97417251D01*
X150825086Y-97397249D01*
X150806077Y-97382269D01*
X150776699Y-97354146D01*
X150774734Y-97352223D01*
X150746544Y-97324033D01*
X150740624Y-97319144D01*
X150733730Y-97313012D01*
X150693305Y-97274314D01*
X150693301Y-97274311D01*
X150688966Y-97270161D01*
X150683927Y-97266908D01*
X150683924Y-97266905D01*
X150660051Y-97251491D01*
X150648167Y-97242793D01*
X150626248Y-97224692D01*
X150626249Y-97224692D01*
X150621626Y-97220875D01*
X150567232Y-97191157D01*
X150559312Y-97186444D01*
X150512305Y-97156092D01*
X150512301Y-97156090D01*
X150507260Y-97152835D01*
X150475331Y-97139967D01*
X150462029Y-97133679D01*
X150437080Y-97120048D01*
X150431816Y-97117172D01*
X150426111Y-97115346D01*
X150426109Y-97115345D01*
X150402269Y-97107714D01*
X150372796Y-97098280D01*
X150364116Y-97095146D01*
X150312210Y-97074227D01*
X150306647Y-97071985D01*
X150300761Y-97070835D01*
X150300759Y-97070835D01*
X150272866Y-97065388D01*
X150258602Y-97061726D01*
X150231524Y-97053058D01*
X150231522Y-97053058D01*
X150225819Y-97051232D01*
X150219870Y-97050517D01*
X150219864Y-97050516D01*
X150164296Y-97043840D01*
X150155176Y-97042404D01*
X150111816Y-97033937D01*
X150094364Y-97030529D01*
X150088680Y-97030251D01*
X150058706Y-97030251D01*
X150043678Y-97029352D01*
X150017018Y-97026149D01*
X150017014Y-97026149D01*
X150011071Y-97025435D01*
X150005095Y-97025858D01*
X150005092Y-97025858D01*
X149947500Y-97029936D01*
X149938601Y-97030251D01*
X143591710Y-97030251D01*
X143523589Y-97010249D01*
X143519215Y-97007055D01*
X143514247Y-97003691D01*
X143509626Y-96999875D01*
X143455232Y-96970157D01*
X143447312Y-96965444D01*
X143400305Y-96935092D01*
X143400301Y-96935090D01*
X143395260Y-96931835D01*
X143368665Y-96921117D01*
X143312959Y-96877102D01*
X143289892Y-96809957D01*
X143306789Y-96741000D01*
X143358284Y-96692125D01*
X143415763Y-96678251D01*
X150111251Y-96678251D01*
X150114597Y-96677891D01*
X150114602Y-96677891D01*
X150217036Y-96666879D01*
X150217043Y-96666878D01*
X150220400Y-96666517D01*
X150223701Y-96665799D01*
X150269461Y-96655845D01*
X150269466Y-96655844D01*
X150272742Y-96655131D01*
X150376908Y-96620461D01*
X150499863Y-96541443D01*
X150553519Y-96494950D01*
X150609139Y-96430761D01*
X150643332Y-96391301D01*
X150643334Y-96391298D01*
X150649233Y-96384490D01*
X150709949Y-96251541D01*
X150729951Y-96183420D01*
X150734584Y-96151201D01*
X150750112Y-96043198D01*
X150750112Y-96043193D01*
X150750751Y-96038751D01*
X150750751Y-88924751D01*
X150747064Y-88890456D01*
X150739379Y-88818966D01*
X150739378Y-88818959D01*
X150739017Y-88815602D01*
X150738299Y-88812301D01*
X150728345Y-88766541D01*
X150728344Y-88766536D01*
X150727631Y-88763260D01*
X150692961Y-88659094D01*
X150613943Y-88536139D01*
X150610442Y-88532098D01*
X150570390Y-88485876D01*
X150567450Y-88482483D01*
X150558184Y-88474454D01*
X150463801Y-88392670D01*
X150463798Y-88392668D01*
X150456990Y-88386769D01*
X150324041Y-88326053D01*
X150286534Y-88315040D01*
X150260243Y-88307320D01*
X150260239Y-88307319D01*
X150255920Y-88306051D01*
X150251471Y-88305411D01*
X150251465Y-88305410D01*
X150115698Y-88285890D01*
X150115693Y-88285890D01*
X150111251Y-88285251D01*
X149140461Y-88285251D01*
X149019408Y-88299724D01*
X149015782Y-88300603D01*
X149015774Y-88300605D01*
X148979384Y-88309433D01*
X148961674Y-88313729D01*
X148958163Y-88315039D01*
X148958158Y-88315040D01*
X148855172Y-88353449D01*
X148855170Y-88353450D01*
X148847440Y-88356333D01*
X148728381Y-88441109D01*
X148725134Y-88444205D01*
X148725129Y-88444209D01*
X148703961Y-88464392D01*
X148676998Y-88490100D01*
X148674219Y-88493634D01*
X148674216Y-88493637D01*
X148651529Y-88522485D01*
X148641587Y-88532009D01*
X148641686Y-88532098D01*
X148558879Y-88624064D01*
X148539305Y-88641688D01*
X148493550Y-88674932D01*
X148470739Y-88688103D01*
X148419082Y-88711102D01*
X148394035Y-88719240D01*
X148340207Y-88730681D01*
X148338717Y-88730998D01*
X148312521Y-88733751D01*
X148255981Y-88733751D01*
X148229785Y-88730998D01*
X148228295Y-88730681D01*
X148174467Y-88719240D01*
X148149420Y-88711102D01*
X148097763Y-88688103D01*
X148074952Y-88674932D01*
X148029197Y-88641688D01*
X148009623Y-88624063D01*
X147933441Y-88539454D01*
X147926211Y-88530656D01*
X147911039Y-88510390D01*
X147911038Y-88510388D01*
X147908790Y-88507386D01*
X147867794Y-88464392D01*
X147773780Y-88386769D01*
X147640831Y-88326053D01*
X147603324Y-88315040D01*
X147577033Y-88307320D01*
X147577029Y-88307319D01*
X147572710Y-88306051D01*
X147568261Y-88305411D01*
X147568255Y-88305410D01*
X147432488Y-88285890D01*
X147432483Y-88285890D01*
X147428041Y-88285251D01*
X140457251Y-88285251D01*
X140453905Y-88285611D01*
X140453900Y-88285611D01*
X140351466Y-88296623D01*
X140351459Y-88296624D01*
X140348102Y-88296985D01*
X140344802Y-88297703D01*
X140344801Y-88297703D01*
X140299041Y-88307657D01*
X140299036Y-88307658D01*
X140295760Y-88308371D01*
X140191594Y-88343041D01*
X140068639Y-88422059D01*
X140065244Y-88425001D01*
X140065241Y-88425003D01*
X140046654Y-88441109D01*
X140014983Y-88468552D01*
X140012043Y-88471945D01*
X139925170Y-88572201D01*
X139925168Y-88572204D01*
X139919269Y-88579012D01*
X139858553Y-88711961D01*
X139852963Y-88730998D01*
X139846190Y-88754067D01*
X139838551Y-88780082D01*
X139837911Y-88784531D01*
X139837910Y-88784537D01*
X139818390Y-88920304D01*
X139817751Y-88924751D01*
X139817751Y-96038751D01*
X139829485Y-96147900D01*
X139830203Y-96151200D01*
X139830203Y-96151201D01*
X139837212Y-96183420D01*
X139840871Y-96200242D01*
X139875541Y-96304408D01*
X139954559Y-96427363D01*
X140001052Y-96481019D01*
X140004445Y-96483959D01*
X140067388Y-96538499D01*
X140111512Y-96576733D01*
X140119705Y-96580475D01*
X140121593Y-96581688D01*
X140168085Y-96635344D01*
X140178188Y-96705618D01*
X140148694Y-96770199D01*
X140088968Y-96808582D01*
X140073014Y-96811836D01*
X140071404Y-96811871D01*
X140065547Y-96813132D01*
X140065546Y-96813132D01*
X140057449Y-96814875D01*
X140037742Y-96819118D01*
X140023199Y-96821369D01*
X139988936Y-96824638D01*
X139929483Y-96842080D01*
X139920538Y-96844351D01*
X139865822Y-96856131D01*
X139865811Y-96856134D01*
X139859956Y-96857395D01*
X139854444Y-96859740D01*
X139854442Y-96859741D01*
X139828285Y-96870871D01*
X139814424Y-96875834D01*
X139781391Y-96885525D01*
X139776067Y-96888267D01*
X139726305Y-96913896D01*
X139717948Y-96917819D01*
X139690566Y-96929471D01*
X139660932Y-96942080D01*
X139655955Y-96945431D01*
X139632376Y-96961305D01*
X139619700Y-96968801D01*
X139589103Y-96984560D01*
X139584386Y-96988266D01*
X139584385Y-96988266D01*
X139540384Y-97022830D01*
X139532920Y-97028263D01*
X139481511Y-97062873D01*
X139477295Y-97066696D01*
X139456102Y-97087889D01*
X139444841Y-97097879D01*
X139419012Y-97118168D01*
X139415081Y-97122698D01*
X139415080Y-97122699D01*
X139377232Y-97166315D01*
X139371162Y-97172829D01*
X138842960Y-97701031D01*
X138834475Y-97708195D01*
X138834659Y-97708408D01*
X138830123Y-97712323D01*
X138825230Y-97715794D01*
X138821084Y-97720125D01*
X138759646Y-97784304D01*
X138757723Y-97786268D01*
X138729533Y-97814458D01*
X138727624Y-97816770D01*
X138727621Y-97816773D01*
X138724647Y-97820375D01*
X138718512Y-97827272D01*
X138679814Y-97867697D01*
X138679811Y-97867701D01*
X138675661Y-97872036D01*
X138672408Y-97877075D01*
X138672405Y-97877078D01*
X138656991Y-97900951D01*
X138648293Y-97912834D01*
X138626375Y-97939376D01*
X138596657Y-97993770D01*
X138591944Y-98001690D01*
X138561592Y-98048697D01*
X138561590Y-98048701D01*
X138558335Y-98053742D01*
X138545467Y-98085671D01*
X138539179Y-98098973D01*
X138522672Y-98129186D01*
X138520846Y-98134891D01*
X138520845Y-98134893D01*
X138503782Y-98188200D01*
X138500646Y-98196886D01*
X138477485Y-98254355D01*
X138476335Y-98260241D01*
X138476335Y-98260243D01*
X138470888Y-98288136D01*
X138467226Y-98302399D01*
X138456732Y-98335183D01*
X138456017Y-98341132D01*
X138456016Y-98341138D01*
X138449340Y-98396706D01*
X138447904Y-98405826D01*
X138439437Y-98449186D01*
X138436029Y-98466638D01*
X138435751Y-98472322D01*
X138435751Y-98502296D01*
X138434852Y-98517324D01*
X138430935Y-98549931D01*
X138431358Y-98555907D01*
X138431358Y-98555910D01*
X138435436Y-98613502D01*
X138435751Y-98622401D01*
X138435751Y-99162541D01*
X138413837Y-99233548D01*
X138402752Y-99249797D01*
X138347840Y-99294798D01*
X138277315Y-99302968D01*
X138213568Y-99271712D01*
X138192874Y-99247230D01*
X138122885Y-99139042D01*
X138122883Y-99139039D01*
X138120077Y-99134702D01*
X137968228Y-98967822D01*
X137964177Y-98964623D01*
X137964173Y-98964619D01*
X137795217Y-98831185D01*
X137795213Y-98831183D01*
X137791162Y-98827983D01*
X137763760Y-98812856D01*
X137646073Y-98747890D01*
X137593634Y-98718942D01*
X137380949Y-98643627D01*
X137330548Y-98634649D01*
X137163908Y-98604965D01*
X137163904Y-98604965D01*
X137158820Y-98604059D01*
X137086825Y-98603180D01*
X136938380Y-98601366D01*
X136938378Y-98601366D01*
X136933210Y-98601303D01*
X136710180Y-98635431D01*
X136495719Y-98705528D01*
X136473269Y-98717215D01*
X136309938Y-98802240D01*
X136295586Y-98809711D01*
X136291453Y-98812814D01*
X136291450Y-98812816D01*
X136119291Y-98942076D01*
X136115156Y-98945181D01*
X136111584Y-98948919D01*
X136051662Y-99011623D01*
X135990138Y-99047052D01*
X135919226Y-99043595D01*
X135861439Y-99002349D01*
X135842587Y-98968801D01*
X135806618Y-98872854D01*
X135803466Y-98864446D01*
X135716112Y-98747890D01*
X135599556Y-98660536D01*
X135463167Y-98609406D01*
X135400985Y-98602651D01*
X133577517Y-98602651D01*
X133515335Y-98609406D01*
X133378946Y-98660536D01*
X133262390Y-98747890D01*
X133175036Y-98864446D01*
X133123906Y-99000835D01*
X133117151Y-99063017D01*
X133117151Y-100886485D01*
X125583751Y-100886485D01*
X125583751Y-99355117D01*
X125576996Y-99292935D01*
X125525866Y-99156546D01*
X125438512Y-99039990D01*
X125321956Y-98952636D01*
X125185567Y-98901506D01*
X125123385Y-98894751D01*
X121995117Y-98894751D01*
X121932935Y-98901506D01*
X121796546Y-98952636D01*
X121679990Y-99039990D01*
X121592636Y-99156546D01*
X121541506Y-99292935D01*
X121534751Y-99355117D01*
X121534751Y-101356385D01*
X121541506Y-101418567D01*
X121592636Y-101554956D01*
X121598017Y-101562136D01*
X121599718Y-101565243D01*
X121614887Y-101634600D01*
X121599718Y-101686259D01*
X121598017Y-101689366D01*
X121592636Y-101696546D01*
X121541506Y-101832935D01*
X121534751Y-101895117D01*
X121534751Y-103896385D01*
X100199751Y-103896385D01*
X100199751Y-98807525D01*
X107831353Y-98807525D01*
X107831553Y-98812854D01*
X107831553Y-98812856D01*
X107834628Y-98894751D01*
X107840002Y-99037909D01*
X107887344Y-99263542D01*
X107889302Y-99268501D01*
X107889303Y-99268503D01*
X107950417Y-99423251D01*
X107972027Y-99477972D01*
X107974794Y-99482531D01*
X107974795Y-99482534D01*
X108037249Y-99585454D01*
X108091628Y-99675068D01*
X108095125Y-99679098D01*
X108181689Y-99778854D01*
X108242728Y-99849196D01*
X108278371Y-99878421D01*
X108318365Y-99937080D01*
X108320297Y-100008050D01*
X108283553Y-100068799D01*
X108264783Y-100082999D01*
X108133830Y-100164036D01*
X108118903Y-100173273D01*
X107993946Y-100298448D01*
X107990106Y-100304678D01*
X107990105Y-100304679D01*
X107913874Y-100428349D01*
X107901136Y-100449013D01*
X107845454Y-100616890D01*
X107834751Y-100721351D01*
X107834751Y-102022151D01*
X107835088Y-102025397D01*
X107835088Y-102025401D01*
X107840346Y-102076073D01*
X107845725Y-102127917D01*
X107901701Y-102295697D01*
X107994773Y-102446099D01*
X108119948Y-102571056D01*
X108126178Y-102574896D01*
X108126179Y-102574897D01*
X108263341Y-102659445D01*
X108270513Y-102663866D01*
X108350256Y-102690315D01*
X108431862Y-102717383D01*
X108431864Y-102717383D01*
X108438390Y-102719548D01*
X108445226Y-102720248D01*
X108445229Y-102720249D01*
X108488282Y-102724660D01*
X108542851Y-102730251D01*
X110143651Y-102730251D01*
X110146897Y-102729914D01*
X110146901Y-102729914D01*
X110242559Y-102719989D01*
X110242563Y-102719988D01*
X110249417Y-102719277D01*
X110255953Y-102717096D01*
X110255955Y-102717096D01*
X110388057Y-102673023D01*
X110417197Y-102663301D01*
X110567599Y-102570229D01*
X110692556Y-102445054D01*
X110785366Y-102294489D01*
X110841048Y-102126612D01*
X110851751Y-102022151D01*
X110851751Y-100721351D01*
X110851414Y-100718101D01*
X110841489Y-100622443D01*
X110841488Y-100622439D01*
X110840777Y-100615585D01*
X110784801Y-100447805D01*
X110691729Y-100297403D01*
X110566554Y-100172446D01*
X110420911Y-100082670D01*
X110373419Y-100029899D01*
X110361995Y-99959827D01*
X110390269Y-99894703D01*
X110400056Y-99884241D01*
X110510529Y-99778854D01*
X110514386Y-99775175D01*
X110652005Y-99590209D01*
X110682081Y-99531055D01*
X110721775Y-99452982D01*
X110756491Y-99384700D01*
X110760774Y-99370909D01*
X110823275Y-99169622D01*
X110824858Y-99164524D01*
X110832310Y-99108301D01*
X110854449Y-98941262D01*
X110854449Y-98941257D01*
X110855149Y-98935977D01*
X110846500Y-98705593D01*
X110799158Y-98479960D01*
X110769881Y-98405826D01*
X110716436Y-98270495D01*
X110716435Y-98270493D01*
X110714475Y-98265530D01*
X110594874Y-98068434D01*
X110536957Y-98001690D01*
X110447274Y-97898339D01*
X110447272Y-97898337D01*
X110443774Y-97894306D01*
X110347584Y-97815435D01*
X110269624Y-97751511D01*
X110269618Y-97751507D01*
X110265496Y-97748127D01*
X110260860Y-97745488D01*
X110260857Y-97745486D01*
X110069780Y-97636719D01*
X110065137Y-97634076D01*
X109848426Y-97555414D01*
X109843177Y-97554465D01*
X109843174Y-97554464D01*
X109625643Y-97515128D01*
X109625636Y-97515127D01*
X109621559Y-97514390D01*
X109603837Y-97513554D01*
X109598895Y-97513321D01*
X109598888Y-97513321D01*
X109597407Y-97513251D01*
X109135361Y-97513251D01*
X109068442Y-97518929D01*
X108968842Y-97527380D01*
X108968838Y-97527381D01*
X108963531Y-97527831D01*
X108958376Y-97529169D01*
X108958370Y-97529170D01*
X108745548Y-97584408D01*
X108745544Y-97584409D01*
X108740379Y-97585750D01*
X108735513Y-97587942D01*
X108735510Y-97587943D01*
X108627231Y-97636719D01*
X108530176Y-97680439D01*
X108338932Y-97809192D01*
X108335075Y-97812871D01*
X108335073Y-97812873D01*
X108330985Y-97816773D01*
X108172116Y-97968327D01*
X108034497Y-98153293D01*
X107930011Y-98358802D01*
X107928429Y-98363896D01*
X107928428Y-98363899D01*
X107883112Y-98509840D01*
X107861644Y-98578978D01*
X107860943Y-98584267D01*
X107843094Y-98718942D01*
X107831353Y-98807525D01*
X100199751Y-98807525D01*
X100199751Y-92561115D01*
X110180751Y-92561115D01*
X110183870Y-92618708D01*
X110228871Y-92849144D01*
X110312055Y-93068703D01*
X110431042Y-93271107D01*
X110582432Y-93450570D01*
X110761895Y-93601960D01*
X110964299Y-93720947D01*
X111183858Y-93804131D01*
X111414294Y-93849132D01*
X111418652Y-93849368D01*
X111470199Y-93852160D01*
X111470214Y-93852160D01*
X111471887Y-93852251D01*
X113406615Y-93852251D01*
X113408288Y-93852160D01*
X113408303Y-93852160D01*
X113459850Y-93849368D01*
X113464208Y-93849132D01*
X113694644Y-93804131D01*
X113914203Y-93720947D01*
X114116607Y-93601960D01*
X114296070Y-93450570D01*
X114447460Y-93271107D01*
X114566447Y-93068703D01*
X114649631Y-92849144D01*
X114694632Y-92618708D01*
X114697751Y-92561115D01*
X114697751Y-90626387D01*
X114694632Y-90568794D01*
X114649631Y-90338358D01*
X114566447Y-90118799D01*
X114477696Y-89967828D01*
X114460417Y-89898966D01*
X114483110Y-89831694D01*
X114538570Y-89787370D01*
X114609190Y-89780067D01*
X114668829Y-89808749D01*
X114704697Y-89839829D01*
X114704702Y-89839833D01*
X114711512Y-89845733D01*
X114844461Y-89906449D01*
X114864429Y-89912312D01*
X114908259Y-89925182D01*
X114908263Y-89925183D01*
X114912582Y-89926451D01*
X114917031Y-89927091D01*
X114917037Y-89927092D01*
X115052804Y-89946612D01*
X115052809Y-89946612D01*
X115057251Y-89947251D01*
X118615251Y-89947251D01*
X118618597Y-89946891D01*
X118618602Y-89946891D01*
X118721036Y-89935879D01*
X118721043Y-89935878D01*
X118724400Y-89935517D01*
X118727701Y-89934799D01*
X118773461Y-89924845D01*
X118773466Y-89924844D01*
X118776742Y-89924131D01*
X118880908Y-89889461D01*
X119003863Y-89810443D01*
X119057519Y-89763950D01*
X119090986Y-89725327D01*
X119147332Y-89660301D01*
X119147334Y-89660298D01*
X119153233Y-89653490D01*
X119213949Y-89520541D01*
X119229975Y-89465961D01*
X119232682Y-89456743D01*
X119232683Y-89456739D01*
X119233951Y-89452420D01*
X119238584Y-89420201D01*
X119254112Y-89312198D01*
X119254112Y-89312193D01*
X119254751Y-89307751D01*
X119254751Y-86132751D01*
X139182751Y-86132751D01*
X139194485Y-86241900D01*
X139195203Y-86245200D01*
X139195203Y-86245201D01*
X139202212Y-86277420D01*
X139205871Y-86294242D01*
X139240541Y-86398408D01*
X139319559Y-86521363D01*
X139366052Y-86575019D01*
X139369445Y-86577959D01*
X139469701Y-86664832D01*
X139469704Y-86664834D01*
X139476512Y-86670733D01*
X139609461Y-86731449D01*
X139633215Y-86738424D01*
X139673259Y-86750182D01*
X139673263Y-86750183D01*
X139677582Y-86751451D01*
X139682031Y-86752091D01*
X139682037Y-86752092D01*
X139817804Y-86771612D01*
X139817809Y-86771612D01*
X139822251Y-86772251D01*
X149984251Y-86772251D01*
X149987597Y-86771891D01*
X149987602Y-86771891D01*
X150090036Y-86760879D01*
X150090043Y-86760878D01*
X150093400Y-86760517D01*
X150096701Y-86759799D01*
X150142461Y-86749845D01*
X150142466Y-86749844D01*
X150145742Y-86749131D01*
X150249908Y-86714461D01*
X150372863Y-86635443D01*
X150426519Y-86588950D01*
X150482139Y-86524761D01*
X150516332Y-86485301D01*
X150516334Y-86485298D01*
X150522233Y-86478490D01*
X150582949Y-86345541D01*
X150602951Y-86277420D01*
X150607584Y-86245201D01*
X150623112Y-86137198D01*
X150623112Y-86137193D01*
X150623751Y-86132751D01*
X150623751Y-78129751D01*
X150612017Y-78020602D01*
X150611299Y-78017301D01*
X150601345Y-77971541D01*
X150601344Y-77971536D01*
X150600631Y-77968260D01*
X150565961Y-77864094D01*
X150486943Y-77741139D01*
X150440450Y-77687483D01*
X150431184Y-77679454D01*
X150336801Y-77597670D01*
X150336798Y-77597668D01*
X150329990Y-77591769D01*
X150197041Y-77531053D01*
X150173287Y-77524078D01*
X150133243Y-77512320D01*
X150133239Y-77512319D01*
X150128920Y-77511051D01*
X150124471Y-77510411D01*
X150124465Y-77510410D01*
X149988698Y-77490890D01*
X149988693Y-77490890D01*
X149984251Y-77490251D01*
X139822251Y-77490251D01*
X139818905Y-77490611D01*
X139818900Y-77490611D01*
X139716466Y-77501623D01*
X139716459Y-77501624D01*
X139713102Y-77501985D01*
X139709802Y-77502703D01*
X139709801Y-77502703D01*
X139664041Y-77512657D01*
X139664036Y-77512658D01*
X139660760Y-77513371D01*
X139556594Y-77548041D01*
X139433639Y-77627059D01*
X139379983Y-77673552D01*
X139377043Y-77676945D01*
X139290170Y-77777201D01*
X139290168Y-77777204D01*
X139284269Y-77784012D01*
X139223553Y-77916961D01*
X139203551Y-77985082D01*
X139202911Y-77989531D01*
X139202910Y-77989537D01*
X139198444Y-78020602D01*
X139182751Y-78129751D01*
X139182751Y-86132751D01*
X119254751Y-86132751D01*
X119254751Y-74319751D01*
X119243017Y-74210602D01*
X119242299Y-74207301D01*
X119232345Y-74161541D01*
X119232344Y-74161536D01*
X119231631Y-74158260D01*
X119196961Y-74054094D01*
X119117943Y-73931139D01*
X119071450Y-73877483D01*
X118998007Y-73813844D01*
X118967801Y-73787670D01*
X118967798Y-73787668D01*
X118960990Y-73781769D01*
X118828041Y-73721053D01*
X118804287Y-73714078D01*
X118764243Y-73702320D01*
X118764239Y-73702319D01*
X118759920Y-73701051D01*
X118755471Y-73700411D01*
X118755465Y-73700410D01*
X118619698Y-73680890D01*
X118619693Y-73680890D01*
X118615251Y-73680251D01*
X116343207Y-73680251D01*
X116287479Y-73667257D01*
X116104032Y-73576791D01*
X116104029Y-73576790D01*
X116099844Y-73574726D01*
X116053700Y-73559955D01*
X115855374Y-73496471D01*
X115850916Y-73495044D01*
X115592944Y-73453030D01*
X115479193Y-73451541D01*
X115336273Y-73449670D01*
X115336270Y-73449670D01*
X115331596Y-73449609D01*
X115072613Y-73484855D01*
X114821684Y-73557994D01*
X114817431Y-73559954D01*
X114817430Y-73559955D01*
X114780910Y-73576791D01*
X114584323Y-73667419D01*
X114580414Y-73669982D01*
X114369655Y-73808161D01*
X114369650Y-73808165D01*
X114365742Y-73810727D01*
X114170745Y-73984769D01*
X114003614Y-74185721D01*
X114001185Y-74189724D01*
X113922283Y-74319751D01*
X113868022Y-74409170D01*
X113766948Y-74650206D01*
X113702610Y-74903534D01*
X113680751Y-75120618D01*
X113680751Y-84519258D01*
X113660749Y-84587379D01*
X113607093Y-84633872D01*
X113585488Y-84641294D01*
X113578935Y-84642006D01*
X113571540Y-84644778D01*
X113571537Y-84644779D01*
X113457229Y-84687631D01*
X113442546Y-84693136D01*
X113325990Y-84780490D01*
X113238636Y-84897046D01*
X113187506Y-85033435D01*
X113180751Y-85095617D01*
X113180751Y-88691885D01*
X113187506Y-88754067D01*
X113238636Y-88890456D01*
X113325990Y-89007012D01*
X113442546Y-89094366D01*
X113450947Y-89097515D01*
X113453169Y-89098732D01*
X113503315Y-89148991D01*
X113518328Y-89218382D01*
X113493442Y-89284874D01*
X113436558Y-89327356D01*
X113392659Y-89335251D01*
X111471887Y-89335251D01*
X111470214Y-89335342D01*
X111470199Y-89335342D01*
X111420024Y-89338060D01*
X111414294Y-89338370D01*
X111410008Y-89339207D01*
X111338155Y-89353239D01*
X111183858Y-89383371D01*
X110964299Y-89466555D01*
X110872466Y-89520541D01*
X110782536Y-89573408D01*
X110761895Y-89585542D01*
X110582432Y-89736932D01*
X110431042Y-89916395D01*
X110428336Y-89920999D01*
X110428334Y-89921001D01*
X110420223Y-89934799D01*
X110312055Y-90118799D01*
X110228871Y-90338358D01*
X110183870Y-90568794D01*
X110180751Y-90626387D01*
X110180751Y-92561115D01*
X100199751Y-92561115D01*
X100199751Y-71018251D01*
X100219753Y-70950130D01*
X100273409Y-70903637D01*
X100325751Y-70892251D01*
X163826751Y-70892251D01*
X163894872Y-70912253D01*
G37*
%TD.AperFunction*%
%TA.AperFunction,Conductor*%
G36*
X147496162Y-88818753D02*
G01*
X147537158Y-88861747D01*
X147545211Y-88875695D01*
X147672998Y-89017617D01*
X147827499Y-89129869D01*
X147833527Y-89132553D01*
X147833529Y-89132554D01*
X147995932Y-89204860D01*
X148001963Y-89207545D01*
X148095363Y-89227398D01*
X148182307Y-89245879D01*
X148182312Y-89245879D01*
X148188764Y-89247251D01*
X148379738Y-89247251D01*
X148386190Y-89245879D01*
X148386195Y-89245879D01*
X148473139Y-89227398D01*
X148566539Y-89207545D01*
X148572570Y-89204860D01*
X148734973Y-89132554D01*
X148734975Y-89132553D01*
X148741003Y-89129869D01*
X148895504Y-89017617D01*
X149023291Y-88875695D01*
X149031344Y-88861747D01*
X149082727Y-88812756D01*
X149140461Y-88798751D01*
X150111251Y-88798751D01*
X150179372Y-88818753D01*
X150225865Y-88872409D01*
X150237251Y-88924751D01*
X150237251Y-96038751D01*
X150217249Y-96106872D01*
X150163593Y-96153365D01*
X150111251Y-96164751D01*
X140457251Y-96164751D01*
X140389130Y-96144749D01*
X140342637Y-96091093D01*
X140331251Y-96038751D01*
X140331251Y-88924751D01*
X140351253Y-88856630D01*
X140404909Y-88810137D01*
X140457251Y-88798751D01*
X147428041Y-88798751D01*
X147496162Y-88818753D01*
G37*
%TD.AperFunction*%
%TA.AperFunction,Conductor*%
G36*
X150052372Y-78023753D02*
G01*
X150098865Y-78077409D01*
X150110251Y-78129751D01*
X150110251Y-86132751D01*
X150090249Y-86200872D01*
X150036593Y-86247365D01*
X149984251Y-86258751D01*
X139822251Y-86258751D01*
X139754130Y-86238749D01*
X139707637Y-86185093D01*
X139696251Y-86132751D01*
X139696251Y-78129751D01*
X139716253Y-78061630D01*
X139769909Y-78015137D01*
X139822251Y-78003751D01*
X149984251Y-78003751D01*
X150052372Y-78023753D01*
G37*
%TD.AperFunction*%
%TA.AperFunction,Conductor*%
G36*
X118683372Y-74213753D02*
G01*
X118729865Y-74267409D01*
X118741251Y-74319751D01*
X118741251Y-89307751D01*
X118721249Y-89375872D01*
X118667593Y-89422365D01*
X118615251Y-89433751D01*
X115057251Y-89433751D01*
X114989130Y-89413749D01*
X114942637Y-89360093D01*
X114931251Y-89307751D01*
X114931251Y-74319751D01*
X114951253Y-74251630D01*
X115004909Y-74205137D01*
X115057251Y-74193751D01*
X118615251Y-74193751D01*
X118683372Y-74213753D01*
G37*
%TD.AperFunction*%
M02*
