%TF.GenerationSoftware,KiCad,Pcbnew,(6.0.7)*%
%TF.CreationDate,2022-09-15T17:32:09-05:00*%
%TF.ProjectId,Simplified01,53696d70-6c69-4666-9965-6430312e6b69,rev?*%
%TF.SameCoordinates,Original*%
%TF.FileFunction,Legend,Top*%
%TF.FilePolarity,Positive*%
%FSLAX46Y46*%
G04 Gerber Fmt 4.6, Leading zero omitted, Abs format (unit mm)*
G04 Created by KiCad (PCBNEW (6.0.7)) date 2022-09-15 17:32:09*
%MOMM*%
%LPD*%
G01*
G04 APERTURE LIST*
G04 Aperture macros list*
%AMRoundRect*
0 Rectangle with rounded corners*
0 $1 Rounding radius*
0 $2 $3 $4 $5 $6 $7 $8 $9 X,Y pos of 4 corners*
0 Add a 4 corners polygon primitive as box body*
4,1,4,$2,$3,$4,$5,$6,$7,$8,$9,$2,$3,0*
0 Add four circle primitives for the rounded corners*
1,1,$1+$1,$2,$3*
1,1,$1+$1,$4,$5*
1,1,$1+$1,$6,$7*
1,1,$1+$1,$8,$9*
0 Add four rect primitives between the rounded corners*
20,1,$1+$1,$2,$3,$4,$5,0*
20,1,$1+$1,$4,$5,$6,$7,0*
20,1,$1+$1,$6,$7,$8,$9,0*
20,1,$1+$1,$8,$9,$2,$3,0*%
G04 Aperture macros list end*
%ADD10C,0.150000*%
%ADD11C,0.120000*%
%ADD12RoundRect,0.301000X0.400000X0.625000X-0.400000X0.625000X-0.400000X-0.625000X0.400000X-0.625000X0*%
%ADD13RoundRect,0.301000X0.600000X0.750000X-0.600000X0.750000X-0.600000X-0.750000X0.600000X-0.750000X0*%
%ADD14O,1.802000X2.102000*%
%ADD15RoundRect,0.051000X-1.100000X-0.600000X1.100000X-0.600000X1.100000X0.600000X-1.100000X0.600000X0*%
%ADD16RoundRect,0.051000X-3.200000X-2.900000X3.200000X-2.900000X3.200000X2.900000X-3.200000X2.900000X0*%
%ADD17C,4.502000*%
%ADD18RoundRect,0.301000X0.550000X-1.250000X0.550000X1.250000X-0.550000X1.250000X-0.550000X-1.250000X0*%
%ADD19RoundRect,0.201000X0.150000X-0.587500X0.150000X0.587500X-0.150000X0.587500X-0.150000X-0.587500X0*%
%ADD20RoundRect,0.051000X1.100000X0.600000X-1.100000X0.600000X-1.100000X-0.600000X1.100000X-0.600000X0*%
%ADD21RoundRect,0.051000X3.200000X2.900000X-3.200000X2.900000X-3.200000X-2.900000X3.200000X-2.900000X0*%
%ADD22RoundRect,0.301000X0.625000X-0.400000X0.625000X0.400000X-0.625000X0.400000X-0.625000X-0.400000X0*%
%ADD23RoundRect,0.301000X0.750000X-0.600000X0.750000X0.600000X-0.750000X0.600000X-0.750000X-0.600000X0*%
%ADD24O,2.102000X1.802000*%
%ADD25RoundRect,0.301000X-0.625000X0.400000X-0.625000X-0.400000X0.625000X-0.400000X0.625000X0.400000X0*%
%ADD26RoundRect,0.301000X0.412500X0.650000X-0.412500X0.650000X-0.412500X-0.650000X0.412500X-0.650000X0*%
%ADD27RoundRect,0.051000X-1.750000X-1.750000X1.750000X-1.750000X1.750000X1.750000X-1.750000X1.750000X0*%
%ADD28RoundRect,0.801000X-0.750000X-1.000000X0.750000X-1.000000X0.750000X1.000000X-0.750000X1.000000X0*%
%ADD29RoundRect,0.926000X-0.875000X-0.875000X0.875000X-0.875000X0.875000X0.875000X-0.875000X0.875000X0*%
%ADD30RoundRect,0.301000X0.650000X-0.412500X0.650000X0.412500X-0.650000X0.412500X-0.650000X-0.412500X0*%
%ADD31RoundRect,0.301000X0.725000X-0.600000X0.725000X0.600000X-0.725000X0.600000X-0.725000X-0.600000X0*%
%ADD32O,2.052000X1.802000*%
%ADD33RoundRect,0.051000X-0.550000X0.550000X-0.550000X-0.550000X0.550000X-0.550000X0.550000X0.550000X0*%
%ADD34RoundRect,0.051000X1.516000X-0.952500X1.516000X0.952500X-1.516000X0.952500X-1.516000X-0.952500X0*%
%ADD35RoundRect,0.051000X-0.863600X0.863600X-0.863600X-0.863600X0.863600X-0.863600X0.863600X0.863600X0*%
%ADD36O,1.829200X1.829200*%
G04 APERTURE END LIST*
D10*
X138386584Y-98818131D02*
X138053251Y-98341941D01*
X137815155Y-98818131D02*
X137815155Y-97818131D01*
X138196108Y-97818131D01*
X138291346Y-97865751D01*
X138338965Y-97913370D01*
X138386584Y-98008608D01*
X138386584Y-98151465D01*
X138338965Y-98246703D01*
X138291346Y-98294322D01*
X138196108Y-98341941D01*
X137815155Y-98341941D01*
X139291346Y-97818131D02*
X138815155Y-97818131D01*
X138767536Y-98294322D01*
X138815155Y-98246703D01*
X138910393Y-98199084D01*
X139148489Y-98199084D01*
X139243727Y-98246703D01*
X139291346Y-98294322D01*
X139338965Y-98389560D01*
X139338965Y-98627655D01*
X139291346Y-98722893D01*
X139243727Y-98770512D01*
X139148489Y-98818131D01*
X138910393Y-98818131D01*
X138815155Y-98770512D01*
X138767536Y-98722893D01*
X113855917Y-78212131D02*
X113855917Y-78926417D01*
X113808298Y-79069274D01*
X113713060Y-79164512D01*
X113570203Y-79212131D01*
X113474965Y-79212131D01*
X114760679Y-78545465D02*
X114760679Y-79212131D01*
X114522584Y-78164512D02*
X114284489Y-78878798D01*
X114903536Y-78878798D01*
X134235346Y-93204131D02*
X134235346Y-94013655D01*
X134282965Y-94108893D01*
X134330584Y-94156512D01*
X134425822Y-94204131D01*
X134616298Y-94204131D01*
X134711536Y-94156512D01*
X134759155Y-94108893D01*
X134806774Y-94013655D01*
X134806774Y-93204131D01*
X135235346Y-93299370D02*
X135282965Y-93251751D01*
X135378203Y-93204131D01*
X135616298Y-93204131D01*
X135711536Y-93251751D01*
X135759155Y-93299370D01*
X135806774Y-93394608D01*
X135806774Y-93489846D01*
X135759155Y-93632703D01*
X135187727Y-94204131D01*
X135806774Y-94204131D01*
X126956584Y-94500131D02*
X126623251Y-94023941D01*
X126385155Y-94500131D02*
X126385155Y-93500131D01*
X126766108Y-93500131D01*
X126861346Y-93547751D01*
X126908965Y-93595370D01*
X126956584Y-93690608D01*
X126956584Y-93833465D01*
X126908965Y-93928703D01*
X126861346Y-93976322D01*
X126766108Y-94023941D01*
X126385155Y-94023941D01*
X127908965Y-94500131D02*
X127337536Y-94500131D01*
X127623251Y-94500131D02*
X127623251Y-93500131D01*
X127528012Y-93642989D01*
X127432774Y-93738227D01*
X127337536Y-93785846D01*
X141093346Y-78798131D02*
X141093346Y-79607655D01*
X141140965Y-79702893D01*
X141188584Y-79750512D01*
X141283822Y-79798131D01*
X141474298Y-79798131D01*
X141569536Y-79750512D01*
X141617155Y-79702893D01*
X141664774Y-79607655D01*
X141664774Y-78798131D01*
X142664774Y-79798131D02*
X142093346Y-79798131D01*
X142379060Y-79798131D02*
X142379060Y-78798131D01*
X142283822Y-78940989D01*
X142188584Y-79036227D01*
X142093346Y-79083846D01*
X106549346Y-73376131D02*
X106549346Y-72376131D01*
X106549346Y-72852322D02*
X107120774Y-72852322D01*
X107120774Y-73376131D02*
X107120774Y-72376131D01*
X108120774Y-73376131D02*
X107549346Y-73376131D01*
X107835060Y-73376131D02*
X107835060Y-72376131D01*
X107739822Y-72518989D01*
X107644584Y-72614227D01*
X107549346Y-72661846D01*
X155928393Y-80710417D02*
X155976012Y-80758036D01*
X156023631Y-80900893D01*
X156023631Y-80996131D01*
X155976012Y-81138989D01*
X155880774Y-81234227D01*
X155785536Y-81281846D01*
X155595060Y-81329465D01*
X155452203Y-81329465D01*
X155261727Y-81281846D01*
X155166489Y-81234227D01*
X155071251Y-81138989D01*
X155023631Y-80996131D01*
X155023631Y-80900893D01*
X155071251Y-80758036D01*
X155118870Y-80710417D01*
X155023631Y-80377084D02*
X155023631Y-79758036D01*
X155404584Y-80091370D01*
X155404584Y-79948512D01*
X155452203Y-79853274D01*
X155499822Y-79805655D01*
X155595060Y-79758036D01*
X155833155Y-79758036D01*
X155928393Y-79805655D01*
X155976012Y-79853274D01*
X156023631Y-79948512D01*
X156023631Y-80234227D01*
X155976012Y-80329465D01*
X155928393Y-80377084D01*
X159889346Y-113356131D02*
X159889346Y-112356131D01*
X159889346Y-112832322D02*
X160460774Y-112832322D01*
X160460774Y-113356131D02*
X160460774Y-112356131D01*
X160841727Y-112356131D02*
X161460774Y-112356131D01*
X161127441Y-112737084D01*
X161270298Y-112737084D01*
X161365536Y-112784703D01*
X161413155Y-112832322D01*
X161460774Y-112927560D01*
X161460774Y-113165655D01*
X161413155Y-113260893D01*
X161365536Y-113308512D01*
X161270298Y-113356131D01*
X160984584Y-113356131D01*
X160889346Y-113308512D01*
X160841727Y-113260893D01*
X156079346Y-73376131D02*
X156079346Y-72376131D01*
X156079346Y-72852322D02*
X156650774Y-72852322D01*
X156650774Y-73376131D02*
X156650774Y-72376131D01*
X157079346Y-72471370D02*
X157126965Y-72423751D01*
X157222203Y-72376131D01*
X157460298Y-72376131D01*
X157555536Y-72423751D01*
X157603155Y-72471370D01*
X157650774Y-72566608D01*
X157650774Y-72661846D01*
X157603155Y-72804703D01*
X157031727Y-73376131D01*
X157650774Y-73376131D01*
X129496584Y-101612131D02*
X129163251Y-101135941D01*
X128925155Y-101612131D02*
X128925155Y-100612131D01*
X129306108Y-100612131D01*
X129401346Y-100659751D01*
X129448965Y-100707370D01*
X129496584Y-100802608D01*
X129496584Y-100945465D01*
X129448965Y-101040703D01*
X129401346Y-101088322D01*
X129306108Y-101135941D01*
X128925155Y-101135941D01*
X129829917Y-100612131D02*
X130496584Y-100612131D01*
X130068012Y-101612131D01*
X116113870Y-104895989D02*
X116066251Y-104991227D01*
X115971012Y-105086465D01*
X115828155Y-105229322D01*
X115780536Y-105324560D01*
X115780536Y-105419798D01*
X116018631Y-105372179D02*
X115971012Y-105467417D01*
X115875774Y-105562655D01*
X115685298Y-105610274D01*
X115351965Y-105610274D01*
X115161489Y-105562655D01*
X115066251Y-105467417D01*
X115018631Y-105372179D01*
X115018631Y-105181703D01*
X115066251Y-105086465D01*
X115161489Y-104991227D01*
X115351965Y-104943608D01*
X115685298Y-104943608D01*
X115875774Y-104991227D01*
X115971012Y-105086465D01*
X116018631Y-105181703D01*
X116018631Y-105372179D01*
X115113870Y-104562655D02*
X115066251Y-104515036D01*
X115018631Y-104419798D01*
X115018631Y-104181703D01*
X115066251Y-104086465D01*
X115113870Y-104038846D01*
X115209108Y-103991227D01*
X115304346Y-103991227D01*
X115447203Y-104038846D01*
X116018631Y-104610274D01*
X116018631Y-103991227D01*
X118900012Y-92394370D02*
X118804774Y-92346751D01*
X118709536Y-92251512D01*
X118566679Y-92108655D01*
X118471441Y-92061036D01*
X118376203Y-92061036D01*
X118423822Y-92299131D02*
X118328584Y-92251512D01*
X118233346Y-92156274D01*
X118185727Y-91965798D01*
X118185727Y-91632465D01*
X118233346Y-91441989D01*
X118328584Y-91346751D01*
X118423822Y-91299131D01*
X118614298Y-91299131D01*
X118709536Y-91346751D01*
X118804774Y-91441989D01*
X118852393Y-91632465D01*
X118852393Y-91965798D01*
X118804774Y-92156274D01*
X118709536Y-92251512D01*
X118614298Y-92299131D01*
X118423822Y-92299131D01*
X119804774Y-92299131D02*
X119233346Y-92299131D01*
X119519060Y-92299131D02*
X119519060Y-91299131D01*
X119423822Y-91441989D01*
X119328584Y-91537227D01*
X119233346Y-91584846D01*
X145821631Y-98744417D02*
X145345441Y-99077751D01*
X145821631Y-99315846D02*
X144821631Y-99315846D01*
X144821631Y-98934893D01*
X144869251Y-98839655D01*
X144916870Y-98792036D01*
X145012108Y-98744417D01*
X145154965Y-98744417D01*
X145250203Y-98792036D01*
X145297822Y-98839655D01*
X145345441Y-98934893D01*
X145345441Y-99315846D01*
X145154965Y-97887274D02*
X145821631Y-97887274D01*
X144774012Y-98125370D02*
X145488298Y-98363465D01*
X145488298Y-97744417D01*
X138201631Y-107100417D02*
X137725441Y-107433751D01*
X138201631Y-107671846D02*
X137201631Y-107671846D01*
X137201631Y-107290893D01*
X137249251Y-107195655D01*
X137296870Y-107148036D01*
X137392108Y-107100417D01*
X137534965Y-107100417D01*
X137630203Y-107148036D01*
X137677822Y-107195655D01*
X137725441Y-107290893D01*
X137725441Y-107671846D01*
X137201631Y-106243274D02*
X137201631Y-106433751D01*
X137249251Y-106528989D01*
X137296870Y-106576608D01*
X137439727Y-106671846D01*
X137630203Y-106719465D01*
X138011155Y-106719465D01*
X138106393Y-106671846D01*
X138154012Y-106624227D01*
X138201631Y-106528989D01*
X138201631Y-106338512D01*
X138154012Y-106243274D01*
X138106393Y-106195655D01*
X138011155Y-106148036D01*
X137773060Y-106148036D01*
X137677822Y-106195655D01*
X137630203Y-106243274D01*
X137582584Y-106338512D01*
X137582584Y-106528989D01*
X137630203Y-106624227D01*
X137677822Y-106671846D01*
X137773060Y-106719465D01*
X104858631Y-103864084D02*
X105572917Y-103864084D01*
X105715774Y-103911703D01*
X105811012Y-104006941D01*
X105858631Y-104149798D01*
X105858631Y-104245036D01*
X104858631Y-103483131D02*
X104858631Y-102864084D01*
X105239584Y-103197417D01*
X105239584Y-103054560D01*
X105287203Y-102959322D01*
X105334822Y-102911703D01*
X105430060Y-102864084D01*
X105668155Y-102864084D01*
X105763393Y-102911703D01*
X105811012Y-102959322D01*
X105858631Y-103054560D01*
X105858631Y-103340274D01*
X105811012Y-103435512D01*
X105763393Y-103483131D01*
X117203631Y-113730417D02*
X116727441Y-114063751D01*
X117203631Y-114301846D02*
X116203631Y-114301846D01*
X116203631Y-113920893D01*
X116251251Y-113825655D01*
X116298870Y-113778036D01*
X116394108Y-113730417D01*
X116536965Y-113730417D01*
X116632203Y-113778036D01*
X116679822Y-113825655D01*
X116727441Y-113920893D01*
X116727441Y-114301846D01*
X116298870Y-113349465D02*
X116251251Y-113301846D01*
X116203631Y-113206608D01*
X116203631Y-112968512D01*
X116251251Y-112873274D01*
X116298870Y-112825655D01*
X116394108Y-112778036D01*
X116489346Y-112778036D01*
X116632203Y-112825655D01*
X117203631Y-113397084D01*
X117203631Y-112778036D01*
X154658393Y-94680417D02*
X154706012Y-94728036D01*
X154753631Y-94870893D01*
X154753631Y-94966131D01*
X154706012Y-95108989D01*
X154610774Y-95204227D01*
X154515536Y-95251846D01*
X154325060Y-95299465D01*
X154182203Y-95299465D01*
X153991727Y-95251846D01*
X153896489Y-95204227D01*
X153801251Y-95108989D01*
X153753631Y-94966131D01*
X153753631Y-94870893D01*
X153801251Y-94728036D01*
X153848870Y-94680417D01*
X154086965Y-93823274D02*
X154753631Y-93823274D01*
X153706012Y-94061370D02*
X154420298Y-94299465D01*
X154420298Y-93680417D01*
X132798584Y-93418893D02*
X132750965Y-93466512D01*
X132608108Y-93514131D01*
X132512870Y-93514131D01*
X132370012Y-93466512D01*
X132274774Y-93371274D01*
X132227155Y-93276036D01*
X132179536Y-93085560D01*
X132179536Y-92942703D01*
X132227155Y-92752227D01*
X132274774Y-92656989D01*
X132370012Y-92561751D01*
X132512870Y-92514131D01*
X132608108Y-92514131D01*
X132750965Y-92561751D01*
X132798584Y-92609370D01*
X133179536Y-92609370D02*
X133227155Y-92561751D01*
X133322393Y-92514131D01*
X133560489Y-92514131D01*
X133655727Y-92561751D01*
X133703346Y-92609370D01*
X133750965Y-92704608D01*
X133750965Y-92799846D01*
X133703346Y-92942703D01*
X133131917Y-93514131D01*
X133750965Y-93514131D01*
X102739346Y-113356131D02*
X102739346Y-112356131D01*
X102739346Y-112832322D02*
X103310774Y-112832322D01*
X103310774Y-113356131D02*
X103310774Y-112356131D01*
X104215536Y-112689465D02*
X104215536Y-113356131D01*
X103977441Y-112308512D02*
X103739346Y-113022798D01*
X104358393Y-113022798D01*
X106655917Y-92096131D02*
X106655917Y-92810417D01*
X106608298Y-92953274D01*
X106513060Y-93048512D01*
X106370203Y-93096131D01*
X106274965Y-93096131D01*
X107655917Y-93096131D02*
X107084489Y-93096131D01*
X107370203Y-93096131D02*
X107370203Y-92096131D01*
X107274965Y-92238989D01*
X107179727Y-92334227D01*
X107084489Y-92381846D01*
X145821631Y-104078417D02*
X145345441Y-104411751D01*
X145821631Y-104649846D02*
X144821631Y-104649846D01*
X144821631Y-104268893D01*
X144869251Y-104173655D01*
X144916870Y-104126036D01*
X145012108Y-104078417D01*
X145154965Y-104078417D01*
X145250203Y-104126036D01*
X145297822Y-104173655D01*
X145345441Y-104268893D01*
X145345441Y-104649846D01*
X144821631Y-103745084D02*
X144821631Y-103126036D01*
X145202584Y-103459370D01*
X145202584Y-103316512D01*
X145250203Y-103221274D01*
X145297822Y-103173655D01*
X145393060Y-103126036D01*
X145631155Y-103126036D01*
X145726393Y-103173655D01*
X145774012Y-103221274D01*
X145821631Y-103316512D01*
X145821631Y-103602227D01*
X145774012Y-103697465D01*
X145726393Y-103745084D01*
X132814393Y-83758417D02*
X132862012Y-83806036D01*
X132909631Y-83948893D01*
X132909631Y-84044131D01*
X132862012Y-84186989D01*
X132766774Y-84282227D01*
X132671536Y-84329846D01*
X132481060Y-84377465D01*
X132338203Y-84377465D01*
X132147727Y-84329846D01*
X132052489Y-84282227D01*
X131957251Y-84186989D01*
X131909631Y-84044131D01*
X131909631Y-83948893D01*
X131957251Y-83806036D01*
X132004870Y-83758417D01*
X132909631Y-82806036D02*
X132909631Y-83377465D01*
X132909631Y-83091751D02*
X131909631Y-83091751D01*
X132052489Y-83186989D01*
X132147727Y-83282227D01*
X132195346Y-83377465D01*
X104985631Y-110595084D02*
X105699917Y-110595084D01*
X105842774Y-110642703D01*
X105938012Y-110737941D01*
X105985631Y-110880798D01*
X105985631Y-110976036D01*
X105080870Y-110166512D02*
X105033251Y-110118893D01*
X104985631Y-110023655D01*
X104985631Y-109785560D01*
X105033251Y-109690322D01*
X105080870Y-109642703D01*
X105176108Y-109595084D01*
X105271346Y-109595084D01*
X105414203Y-109642703D01*
X105985631Y-110214131D01*
X105985631Y-109595084D01*
X133798631Y-88901846D02*
X132798631Y-88901846D01*
X132798631Y-88663751D01*
X132846251Y-88520893D01*
X132941489Y-88425655D01*
X133036727Y-88378036D01*
X133227203Y-88330417D01*
X133370060Y-88330417D01*
X133560536Y-88378036D01*
X133655774Y-88425655D01*
X133751012Y-88520893D01*
X133798631Y-88663751D01*
X133798631Y-88901846D01*
X133798631Y-87378036D02*
X133798631Y-87949465D01*
X133798631Y-87663751D02*
X132798631Y-87663751D01*
X132941489Y-87758989D01*
X133036727Y-87854227D01*
X133084346Y-87949465D01*
X119535012Y-96458370D02*
X119439774Y-96410751D01*
X119344536Y-96315512D01*
X119201679Y-96172655D01*
X119106441Y-96125036D01*
X119011203Y-96125036D01*
X119058822Y-96363131D02*
X118963584Y-96315512D01*
X118868346Y-96220274D01*
X118820727Y-96029798D01*
X118820727Y-95696465D01*
X118868346Y-95505989D01*
X118963584Y-95410751D01*
X119058822Y-95363131D01*
X119249298Y-95363131D01*
X119344536Y-95410751D01*
X119439774Y-95505989D01*
X119487393Y-95696465D01*
X119487393Y-96029798D01*
X119439774Y-96220274D01*
X119344536Y-96315512D01*
X119249298Y-96363131D01*
X119058822Y-96363131D01*
X119820727Y-95363131D02*
X120439774Y-95363131D01*
X120106441Y-95744084D01*
X120249298Y-95744084D01*
X120344536Y-95791703D01*
X120392155Y-95839322D01*
X120439774Y-95934560D01*
X120439774Y-96172655D01*
X120392155Y-96267893D01*
X120344536Y-96315512D01*
X120249298Y-96363131D01*
X119963584Y-96363131D01*
X119868346Y-96315512D01*
X119820727Y-96267893D01*
D11*
X139280315Y-95635751D02*
X137826187Y-95635751D01*
X139280315Y-97455751D02*
X137826187Y-97455751D01*
X117989251Y-77659751D02*
X117989251Y-76909751D01*
X110389251Y-75409751D02*
X111139251Y-75409751D01*
X118289251Y-77959751D02*
X118289251Y-76709751D01*
X113689251Y-77659751D02*
X114689251Y-77659751D01*
X112189251Y-76909751D02*
X110389251Y-76909751D01*
X117999251Y-71699751D02*
X110379251Y-71699751D01*
X111139251Y-75409751D02*
X111139251Y-72459751D01*
X116189251Y-77659751D02*
X117989251Y-77659751D01*
X113689251Y-76909751D02*
X113689251Y-77659751D01*
X117999251Y-77669751D02*
X117999251Y-71699751D01*
X110389251Y-76909751D02*
X110389251Y-77659751D01*
X110379251Y-71699751D02*
X110379251Y-77669751D01*
X117989251Y-75409751D02*
X117239251Y-75409751D01*
X117039251Y-77959751D02*
X118289251Y-77959751D01*
X117989251Y-76909751D02*
X116189251Y-76909751D01*
X112189251Y-77659751D02*
X112189251Y-76909751D01*
X110379251Y-77669751D02*
X117999251Y-77669751D01*
X111139251Y-72459751D02*
X114189251Y-72459751D01*
X114689251Y-77659751D02*
X114689251Y-76909751D01*
X114689251Y-76909751D02*
X113689251Y-76909751D01*
X117239251Y-75409751D02*
X117239251Y-72459751D01*
X116189251Y-76909751D02*
X116189251Y-77659751D01*
X117239251Y-72459751D02*
X114189251Y-72459751D01*
X110389251Y-77659751D02*
X112189251Y-77659751D01*
X139385251Y-87761751D02*
X139385251Y-88031751D01*
X140885251Y-94661751D02*
X139385251Y-94661751D01*
X139385251Y-88031751D02*
X136555251Y-88031751D01*
X139385251Y-94391751D02*
X138285251Y-94391751D01*
X140885251Y-87761751D02*
X139385251Y-87761751D01*
X139385251Y-94661751D02*
X139385251Y-94391751D01*
X127850315Y-91317751D02*
X126396187Y-91317751D01*
X127850315Y-93137751D02*
X126396187Y-93137751D01*
X139385251Y-87295751D02*
X139385251Y-87025751D01*
X139385251Y-80665751D02*
X136555251Y-80665751D01*
X139385251Y-87025751D02*
X138285251Y-87025751D01*
X139385251Y-80395751D02*
X139385251Y-80665751D01*
X140885251Y-80395751D02*
X139385251Y-80395751D01*
X140885251Y-87295751D02*
X139385251Y-87295751D01*
X152694814Y-85843751D02*
X153759251Y-84779314D01*
X149303688Y-85843751D02*
X149939251Y-85843751D01*
X149314251Y-86708751D02*
X149314251Y-86083751D01*
X152694814Y-85843751D02*
X152059251Y-85843751D01*
X148239251Y-80323751D02*
X149939251Y-80323751D01*
X149001751Y-86396251D02*
X149626751Y-86396251D01*
X153759251Y-84779314D02*
X153759251Y-80323751D01*
X153759251Y-80323751D02*
X152059251Y-80323751D01*
X149303688Y-85843751D02*
X148239251Y-84779314D01*
X148239251Y-84779314D02*
X148239251Y-80323751D01*
X130390315Y-100249751D02*
X128936187Y-100249751D01*
X130390315Y-98429751D02*
X128936187Y-98429751D01*
X114133251Y-107721751D02*
X114133251Y-109396751D01*
X117253251Y-107721751D02*
X117253251Y-108371751D01*
X117253251Y-107721751D02*
X117253251Y-107071751D01*
X114133251Y-107721751D02*
X114133251Y-107071751D01*
X125045251Y-83697751D02*
X126545251Y-83697751D01*
X125045251Y-90597751D02*
X126545251Y-90597751D01*
X126545251Y-83967751D02*
X127645251Y-83967751D01*
X126545251Y-83697751D02*
X126545251Y-83967751D01*
X126545251Y-90327751D02*
X129375251Y-90327751D01*
X126545251Y-90597751D02*
X126545251Y-90327751D01*
X146279251Y-99304815D02*
X146279251Y-97850687D01*
X148099251Y-99304815D02*
X148099251Y-97850687D01*
X140479251Y-107660815D02*
X140479251Y-106206687D01*
X138659251Y-107660815D02*
X138659251Y-106206687D01*
X106893251Y-99621751D02*
X106893251Y-100621751D01*
X109143251Y-103921751D02*
X109143251Y-103171751D01*
X106893251Y-100621751D02*
X107643251Y-100621751D01*
X106893251Y-98121751D02*
X107643251Y-98121751D01*
X106893251Y-96321751D02*
X106893251Y-98121751D01*
X107643251Y-96321751D02*
X106893251Y-96321751D01*
X112093251Y-103171751D02*
X112093251Y-100121751D01*
X107643251Y-103921751D02*
X107643251Y-102121751D01*
X106883251Y-103931751D02*
X112853251Y-103931751D01*
X106893251Y-103921751D02*
X107643251Y-103921751D01*
X109143251Y-97071751D02*
X112093251Y-97071751D01*
X107643251Y-98121751D02*
X107643251Y-96321751D01*
X106593251Y-102971751D02*
X106593251Y-104221751D01*
X112853251Y-103931751D02*
X112853251Y-96311751D01*
X112853251Y-96311751D02*
X106883251Y-96311751D01*
X107643251Y-99621751D02*
X106893251Y-99621751D01*
X107643251Y-102121751D02*
X106893251Y-102121751D01*
X109143251Y-103171751D02*
X112093251Y-103171751D01*
X106893251Y-102121751D02*
X106893251Y-103921751D01*
X106593251Y-104221751D02*
X107843251Y-104221751D01*
X112093251Y-97071751D02*
X112093251Y-100121751D01*
X107643251Y-100621751D02*
X107643251Y-99621751D01*
X106883251Y-96311751D02*
X106883251Y-103931751D01*
X109143251Y-96321751D02*
X109143251Y-97071751D01*
X114021251Y-112836687D02*
X114021251Y-114290815D01*
X115841251Y-112836687D02*
X115841251Y-114290815D01*
X153759251Y-88705751D02*
X152059251Y-88705751D01*
X148239251Y-93161314D02*
X148239251Y-88705751D01*
X152694814Y-94225751D02*
X152059251Y-94225751D01*
X149303688Y-94225751D02*
X148239251Y-93161314D01*
X149001751Y-94778251D02*
X149626751Y-94778251D01*
X153759251Y-93161314D02*
X153759251Y-88705751D01*
X149314251Y-95090751D02*
X149314251Y-94465751D01*
X152694814Y-94225751D02*
X153759251Y-93161314D01*
X149303688Y-94225751D02*
X149939251Y-94225751D01*
X148239251Y-88705751D02*
X149939251Y-88705751D01*
X133676503Y-92121751D02*
X132253999Y-92121751D01*
X133676503Y-90301751D02*
X132253999Y-90301751D01*
X101639251Y-82293751D02*
X116339251Y-82293751D01*
X116339251Y-88793751D02*
X116339251Y-91493751D01*
X110439251Y-91493751D02*
X101639251Y-91493751D01*
X116339251Y-82293751D02*
X116339251Y-84893751D01*
X116539251Y-83143751D02*
X116539251Y-82093751D01*
X116339251Y-91493751D02*
X114439251Y-91493751D01*
X101639251Y-91493751D02*
X101639251Y-82293751D01*
X115489251Y-82093751D02*
X116539251Y-82093751D01*
X146279251Y-104638815D02*
X146279251Y-103184687D01*
X148099251Y-104638815D02*
X148099251Y-103184687D01*
X135399251Y-85065003D02*
X135399251Y-83642499D01*
X133579251Y-85065003D02*
X133579251Y-83642499D01*
X106893251Y-108551751D02*
X106893251Y-112051751D01*
X107643251Y-107051751D02*
X107643251Y-105251751D01*
X106893251Y-105251751D02*
X106893251Y-107051751D01*
X107643251Y-112051751D02*
X107643251Y-108551751D01*
X106893251Y-107051751D02*
X107643251Y-107051751D01*
X106593251Y-114401751D02*
X106593251Y-115651751D01*
X107643251Y-108551751D02*
X106893251Y-108551751D01*
X106883251Y-115361751D02*
X112853251Y-115361751D01*
X109143251Y-106001751D02*
X112093251Y-106001751D01*
X109143251Y-105251751D02*
X109143251Y-106001751D01*
X112093251Y-106001751D02*
X112093251Y-110301751D01*
X106893251Y-113551751D02*
X106893251Y-115351751D01*
X112853251Y-105241751D02*
X106883251Y-105241751D01*
X109143251Y-114601751D02*
X112093251Y-114601751D01*
X112093251Y-114601751D02*
X112093251Y-110301751D01*
X106893251Y-115351751D02*
X107643251Y-115351751D01*
X106893251Y-112051751D02*
X107643251Y-112051751D01*
X107643251Y-113551751D02*
X106893251Y-113551751D01*
X107643251Y-105251751D02*
X106893251Y-105251751D01*
X112853251Y-115361751D02*
X112853251Y-105241751D01*
X106593251Y-115651751D02*
X107843251Y-115651751D01*
X109143251Y-115351751D02*
X109143251Y-114601751D01*
X106883251Y-105241751D02*
X106883251Y-115361751D01*
X107643251Y-115351751D02*
X107643251Y-113551751D01*
X132441251Y-85201751D02*
X130441251Y-85201751D01*
X130441251Y-85201751D02*
X130441251Y-89051751D01*
X132441251Y-85201751D02*
X132441251Y-89051751D01*
X121935251Y-96905751D02*
X121935251Y-97175751D01*
X121935251Y-97175751D02*
X121935251Y-97175751D01*
X120805251Y-98504751D02*
X121789251Y-98504751D01*
X120805251Y-105475751D02*
X125446251Y-105475751D01*
X121935251Y-103805751D02*
X121935251Y-103535751D01*
X120435251Y-103805751D02*
X121935251Y-103805751D01*
X121935251Y-103535751D02*
X121935251Y-103535751D01*
X120805251Y-102205751D02*
X121789251Y-102205751D01*
X120805251Y-105475751D02*
X120805251Y-95235751D01*
X120805251Y-95235751D02*
X125446251Y-95235751D01*
X120435251Y-96905751D02*
X121935251Y-96905751D01*
X125446251Y-105475751D02*
X125446251Y-95235751D01*
%LPC*%
D12*
X140103251Y-96545751D03*
X137003251Y-96545751D03*
D13*
X115439251Y-75209751D03*
D14*
X112939251Y-75209751D03*
D15*
X137655251Y-88931751D03*
D16*
X143955251Y-91211751D03*
D15*
X137655251Y-91211751D03*
X137655251Y-93491751D03*
D12*
X128673251Y-92227751D03*
X125573251Y-92227751D03*
D15*
X137655251Y-81565751D03*
X137655251Y-83845751D03*
D16*
X143955251Y-83845751D03*
D15*
X137655251Y-86125751D03*
D17*
X103501251Y-74193751D03*
D18*
X150999251Y-85283751D03*
X150999251Y-80883751D03*
D17*
X160651251Y-116103751D03*
X160651251Y-74193751D03*
D12*
X131213251Y-99339751D03*
X128113251Y-99339751D03*
D19*
X114743251Y-108659251D03*
X116643251Y-108659251D03*
X115693251Y-106784251D03*
D20*
X128275251Y-89427751D03*
D21*
X121975251Y-87147751D03*
D20*
X128275251Y-84867751D03*
D22*
X147189251Y-100127751D03*
X147189251Y-97027751D03*
X139569251Y-108483751D03*
X139569251Y-105383751D03*
D23*
X109343251Y-101371751D03*
D24*
X109343251Y-98871751D03*
D25*
X114931251Y-112013751D03*
X114931251Y-115113751D03*
D18*
X150999251Y-93665751D03*
X150999251Y-89265751D03*
D26*
X134527751Y-91211751D03*
X131402751Y-91211751D03*
D17*
X103501251Y-116103751D03*
D27*
X115439251Y-86893751D03*
D28*
X109439251Y-86893751D03*
D29*
X112439251Y-91593751D03*
D22*
X147189251Y-105461751D03*
X147189251Y-102361751D03*
D30*
X134489251Y-85916251D03*
X134489251Y-82791251D03*
D31*
X109343251Y-112801751D03*
D32*
X109343251Y-110301751D03*
X109343251Y-107801751D03*
D33*
X131441251Y-86001751D03*
X131441251Y-88801751D03*
D34*
X123559251Y-102895751D03*
D21*
X117365251Y-100355751D03*
D34*
X123559251Y-100355751D03*
X123559251Y-97815751D03*
D35*
X134489251Y-99974751D03*
D36*
X134489251Y-102514751D03*
X137029251Y-99974751D03*
X137029251Y-102514751D03*
X139569251Y-99974751D03*
X139569251Y-102514751D03*
X142109251Y-99974751D03*
X142109251Y-102514751D03*
M02*
