M48
; DRILL file {KiCad (6.0.7)} date Thu Sep 15 17:32:32 2022
; FORMAT={-:-/ absolute / metric / decimal}
; #@! TF.CreationDate,2022-09-15T17:32:32-05:00
; #@! TF.GenerationSoftware,Kicad,Pcbnew,(6.0.7)
; #@! TF.FileFunction,Plated,1,2,PTH
FMAT,2
METRIC
; #@! TA.AperFunction,Plated,PTH,ViaDrill
T1C0.400
; #@! TA.AperFunction,Plated,PTH,ComponentDrill
T2C0.950
; #@! TA.AperFunction,Plated,PTH,ComponentDrill
T3C1.000
; #@! TA.AperFunction,Plated,PTH,ComponentDrill
T4C1.016
; #@! TA.AperFunction,Plated,PTH,ComponentDrill
T5C1.100
; #@! TA.AperFunction,Plated,PTH,ComponentDrill
T6C2.200
%
G90
G05
T1
X114.423Y-95.53
X114.931Y-94.768
X114.931Y-96.292
X115.439Y-95.53
X139.315Y-87.91
X140.033Y-87.446
X140.966Y-78.639
X140.966Y-79.909
X141.22Y-95.53
X142.236Y-78.639
X142.236Y-79.909
X142.49Y-95.53
X143.506Y-78.639
X143.506Y-79.909
X143.76Y-95.53
X144.776Y-78.639
X144.776Y-79.909
X145.03Y-95.53
X146.046Y-78.639
X146.046Y-79.909
X146.3Y-95.53
X147.443Y-95.53
X147.649Y-87.704
X148.284Y-88.339
X150.491Y-111.024
X151.761Y-109.754
X151.761Y-111.024
X153.031Y-108.484
X153.031Y-109.754
X153.031Y-111.024
X154.301Y-107.214
X154.301Y-108.484
X154.301Y-109.754
T2
X109.343Y-107.802
X109.343Y-110.302
X109.343Y-112.802
T3
X109.343Y-98.872
X109.343Y-101.372
X112.939Y-75.21
X115.439Y-75.21
T4
X134.489Y-99.975
X134.489Y-102.515
X137.029Y-99.975
X137.029Y-102.515
X139.569Y-99.975
X139.569Y-102.515
X142.109Y-99.975
X142.109Y-102.515
T5
X124.075Y-97.816
X124.075Y-100.356
X124.075Y-102.896
T6
X103.501Y-74.194
X103.501Y-116.104
X160.651Y-74.194
X160.651Y-116.104
T3
X109.439Y-85.894G85X109.439Y-87.894
G05
X111.439Y-91.594G85X113.439Y-91.594
G05
X115.439Y-85.894G85X115.439Y-87.894
G05
T0
M30
