%TF.GenerationSoftware,KiCad,Pcbnew,(6.0.7)*%
%TF.CreationDate,2022-09-15T17:32:09-05:00*%
%TF.ProjectId,Simplified01,53696d70-6c69-4666-9965-6430312e6b69,rev?*%
%TF.SameCoordinates,Original*%
%TF.FileFunction,Legend,Bot*%
%TF.FilePolarity,Positive*%
%FSLAX46Y46*%
G04 Gerber Fmt 4.6, Leading zero omitted, Abs format (unit mm)*
G04 Created by KiCad (PCBNEW (6.0.7)) date 2022-09-15 17:32:09*
%MOMM*%
%LPD*%
G01*
G04 APERTURE LIST*
G04 Aperture macros list*
%AMRoundRect*
0 Rectangle with rounded corners*
0 $1 Rounding radius*
0 $2 $3 $4 $5 $6 $7 $8 $9 X,Y pos of 4 corners*
0 Add a 4 corners polygon primitive as box body*
4,1,4,$2,$3,$4,$5,$6,$7,$8,$9,$2,$3,0*
0 Add four circle primitives for the rounded corners*
1,1,$1+$1,$2,$3*
1,1,$1+$1,$4,$5*
1,1,$1+$1,$6,$7*
1,1,$1+$1,$8,$9*
0 Add four rect primitives between the rounded corners*
20,1,$1+$1,$2,$3,$4,$5,0*
20,1,$1+$1,$4,$5,$6,$7,0*
20,1,$1+$1,$6,$7,$8,$9,0*
20,1,$1+$1,$8,$9,$2,$3,0*%
G04 Aperture macros list end*
%ADD10C,0.150000*%
%ADD11C,0.120000*%
%ADD12C,0.152400*%
%ADD13C,0.254000*%
%ADD14R,1.727200X1.727200*%
%ADD15O,1.727200X1.727200*%
%ADD16RoundRect,0.301000X0.600000X0.750000X-0.600000X0.750000X-0.600000X-0.750000X0.600000X-0.750000X0*%
%ADD17O,1.802000X2.102000*%
%ADD18C,4.502000*%
%ADD19RoundRect,0.301000X0.750000X-0.600000X0.750000X0.600000X-0.750000X0.600000X-0.750000X-0.600000X0*%
%ADD20O,2.102000X1.802000*%
%ADD21RoundRect,0.051000X-1.750000X-1.750000X1.750000X-1.750000X1.750000X1.750000X-1.750000X1.750000X0*%
%ADD22RoundRect,0.801000X-0.750000X-1.000000X0.750000X-1.000000X0.750000X1.000000X-0.750000X1.000000X0*%
%ADD23RoundRect,0.926000X-0.875000X-0.875000X0.875000X-0.875000X0.875000X0.875000X-0.875000X0.875000X0*%
%ADD24RoundRect,0.301000X0.725000X-0.600000X0.725000X0.600000X-0.725000X0.600000X-0.725000X-0.600000X0*%
%ADD25O,2.052000X1.802000*%
%ADD26RoundRect,0.051000X1.516000X-0.952500X1.516000X0.952500X-1.516000X0.952500X-1.516000X-0.952500X0*%
%ADD27RoundRect,0.051000X-0.800000X1.000000X-0.800000X-1.000000X0.800000X-1.000000X0.800000X1.000000X0*%
%ADD28RoundRect,0.051000X-0.863600X0.863600X-0.863600X-0.863600X0.863600X-0.863600X0.863600X0.863600X0*%
%ADD29O,1.829200X1.829200*%
G04 APERTURE END LIST*
D10*
X154198012Y-100863846D02*
X154245631Y-101006703D01*
X154245631Y-101244798D01*
X154198012Y-101340036D01*
X154150393Y-101387655D01*
X154055155Y-101435274D01*
X153959917Y-101435274D01*
X153864679Y-101387655D01*
X153817060Y-101340036D01*
X153769441Y-101244798D01*
X153721822Y-101054322D01*
X153674203Y-100959084D01*
X153626584Y-100911465D01*
X153531346Y-100863846D01*
X153436108Y-100863846D01*
X153340870Y-100911465D01*
X153293251Y-100959084D01*
X153245631Y-101054322D01*
X153245631Y-101292417D01*
X153293251Y-101435274D01*
X154245631Y-102387655D02*
X154245631Y-101816227D01*
X154245631Y-102101941D02*
X153245631Y-102101941D01*
X153388489Y-102006703D01*
X153483727Y-101911465D01*
X153531346Y-101816227D01*
X129369631Y-99466846D02*
X130179155Y-99466846D01*
X130274393Y-99514465D01*
X130322012Y-99562084D01*
X130369631Y-99657322D01*
X130369631Y-99847798D01*
X130322012Y-99943036D01*
X130274393Y-99990655D01*
X130179155Y-100038274D01*
X129369631Y-100038274D01*
X129369631Y-100419227D02*
X129369631Y-101038274D01*
X129750584Y-100704941D01*
X129750584Y-100847798D01*
X129798203Y-100943036D01*
X129845822Y-100990655D01*
X129941060Y-101038274D01*
X130179155Y-101038274D01*
X130274393Y-100990655D01*
X130322012Y-100943036D01*
X130369631Y-100847798D01*
X130369631Y-100562084D01*
X130322012Y-100466846D01*
X130274393Y-100419227D01*
D11*
X148895251Y-98525751D02*
X149545251Y-98525751D01*
X152595251Y-104725751D02*
X151945251Y-104725751D01*
X152595251Y-98525751D02*
X152595251Y-104725751D01*
X148895251Y-104725751D02*
X148895251Y-98525751D01*
X148895251Y-104725751D02*
X149545251Y-104725751D01*
X151945251Y-98525751D02*
X152595251Y-98525751D01*
D12*
X143379251Y-98704751D02*
X143379251Y-103784751D01*
X135759251Y-98704751D02*
X143379251Y-98704751D01*
D13*
X131187251Y-98196751D02*
X131187251Y-122834751D01*
D12*
X133219251Y-103784751D02*
X133219251Y-101244751D01*
X133219251Y-101244751D02*
X133219251Y-98704751D01*
X143379251Y-103784751D02*
X133219251Y-103784751D01*
D13*
X131187251Y-122834751D02*
X145411251Y-122834751D01*
D12*
X133219251Y-98704751D02*
X135759251Y-98704751D01*
D13*
X145411251Y-122834751D02*
X145411251Y-98196751D01*
X145411251Y-98196751D02*
X131187251Y-98196751D01*
D14*
X134489251Y-99974751D03*
D15*
X134489251Y-102514751D03*
X137029251Y-99974751D03*
X137029251Y-102514751D03*
X139569251Y-99974751D03*
X139569251Y-102514751D03*
X142109251Y-99974751D03*
X142109251Y-102514751D03*
%LPC*%
D16*
X115439251Y-75209751D03*
D17*
X112939251Y-75209751D03*
D18*
X103501251Y-74193751D03*
X160651251Y-116103751D03*
X160651251Y-74193751D03*
D19*
X109343251Y-101371751D03*
D20*
X109343251Y-98871751D03*
D18*
X103501251Y-116103751D03*
D21*
X115439251Y-86893751D03*
D22*
X109439251Y-86893751D03*
D23*
X112439251Y-91593751D03*
D24*
X109343251Y-112801751D03*
D25*
X109343251Y-110301751D03*
X109343251Y-107801751D03*
D26*
X123559251Y-102895751D03*
X123559251Y-100355751D03*
X123559251Y-97815751D03*
D27*
X150745251Y-98925751D03*
X150745251Y-104325751D03*
D28*
X134489251Y-99974751D03*
D29*
X134489251Y-102514751D03*
X137029251Y-99974751D03*
X137029251Y-102514751D03*
X139569251Y-99974751D03*
X139569251Y-102514751D03*
X142109251Y-99974751D03*
X142109251Y-102514751D03*
M02*
