%TF.GenerationSoftware,KiCad,Pcbnew,(6.0.7)*%
%TF.CreationDate,2022-09-15T17:32:33-05:00*%
%TF.ProjectId,Simplified01,53696d70-6c69-4666-9965-6430312e6b69,rev?*%
%TF.SameCoordinates,Original*%
%TF.FileFunction,Drillmap*%
%TF.FilePolarity,Positive*%
%FSLAX45Y45*%
G04 Gerber Fmt 4.5, Leading zero omitted, Abs format (unit mm)*
G04 Created by KiCad (PCBNEW (6.0.7)) date 2022-09-15 17:32:33*
%MOMM*%
%LPD*%
G01*
G04 APERTURE LIST*
%ADD10C,0.050000*%
%ADD11C,0.200000*%
%ADD12C,0.040000*%
%ADD13C,0.095000*%
%ADD14C,0.100000*%
%ADD15C,0.101600*%
%ADD16C,0.110000*%
%ADD17C,0.220000*%
G04 APERTURE END LIST*
D10*
X9969125Y-7038375D02*
X16446125Y-7038375D01*
X16446125Y-11991375D02*
X9969125Y-11991375D01*
X16446125Y-7038375D02*
X16446125Y-11991375D01*
X9969125Y-11991375D02*
X9969125Y-7038375D01*
D11*
D12*
X11422325Y-9532975D02*
X11462325Y-9572975D01*
X11462325Y-9532975D02*
X11422325Y-9572975D01*
X11473125Y-9456775D02*
X11513125Y-9496775D01*
X11513125Y-9456775D02*
X11473125Y-9496775D01*
X11473125Y-9609175D02*
X11513125Y-9649175D01*
X11513125Y-9609175D02*
X11473125Y-9649175D01*
X11523925Y-9532975D02*
X11563925Y-9572975D01*
X11563925Y-9532975D02*
X11523925Y-9572975D01*
X13911525Y-8770975D02*
X13951525Y-8810975D01*
X13951525Y-8770975D02*
X13911525Y-8810975D01*
X13983325Y-8724575D02*
X14023325Y-8764575D01*
X14023325Y-8724575D02*
X13983325Y-8764575D01*
X14076625Y-7843875D02*
X14116625Y-7883875D01*
X14116625Y-7843875D02*
X14076625Y-7883875D01*
X14076625Y-7970875D02*
X14116625Y-8010875D01*
X14116625Y-7970875D02*
X14076625Y-8010875D01*
X14102025Y-9532975D02*
X14142025Y-9572975D01*
X14142025Y-9532975D02*
X14102025Y-9572975D01*
X14203625Y-7843875D02*
X14243625Y-7883875D01*
X14243625Y-7843875D02*
X14203625Y-7883875D01*
X14203625Y-7970875D02*
X14243625Y-8010875D01*
X14243625Y-7970875D02*
X14203625Y-8010875D01*
X14229025Y-9532975D02*
X14269025Y-9572975D01*
X14269025Y-9532975D02*
X14229025Y-9572975D01*
X14330625Y-7843875D02*
X14370625Y-7883875D01*
X14370625Y-7843875D02*
X14330625Y-7883875D01*
X14330625Y-7970875D02*
X14370625Y-8010875D01*
X14370625Y-7970875D02*
X14330625Y-8010875D01*
X14356025Y-9532975D02*
X14396025Y-9572975D01*
X14396025Y-9532975D02*
X14356025Y-9572975D01*
X14457625Y-7843875D02*
X14497625Y-7883875D01*
X14497625Y-7843875D02*
X14457625Y-7883875D01*
X14457625Y-7970875D02*
X14497625Y-8010875D01*
X14497625Y-7970875D02*
X14457625Y-8010875D01*
X14483025Y-9532975D02*
X14523025Y-9572975D01*
X14523025Y-9532975D02*
X14483025Y-9572975D01*
X14584625Y-7843875D02*
X14624625Y-7883875D01*
X14624625Y-7843875D02*
X14584625Y-7883875D01*
X14584625Y-7970875D02*
X14624625Y-8010875D01*
X14624625Y-7970875D02*
X14584625Y-8010875D01*
X14610025Y-9532975D02*
X14650025Y-9572975D01*
X14650025Y-9532975D02*
X14610025Y-9572975D01*
X14724325Y-9532975D02*
X14764325Y-9572975D01*
X14764325Y-9532975D02*
X14724325Y-9572975D01*
X14744925Y-8750375D02*
X14784925Y-8790375D01*
X14784925Y-8750375D02*
X14744925Y-8790375D01*
X14808425Y-8813875D02*
X14848425Y-8853875D01*
X14848425Y-8813875D02*
X14808425Y-8853875D01*
X15029125Y-11082375D02*
X15069125Y-11122375D01*
X15069125Y-11082375D02*
X15029125Y-11122375D01*
X15156125Y-10955375D02*
X15196125Y-10995375D01*
X15196125Y-10955375D02*
X15156125Y-10995375D01*
X15156125Y-11082375D02*
X15196125Y-11122375D01*
X15196125Y-11082375D02*
X15156125Y-11122375D01*
X15283125Y-10828375D02*
X15323125Y-10868375D01*
X15323125Y-10828375D02*
X15283125Y-10868375D01*
X15283125Y-10955375D02*
X15323125Y-10995375D01*
X15323125Y-10955375D02*
X15283125Y-10995375D01*
X15283125Y-11082375D02*
X15323125Y-11122375D01*
X15323125Y-11082375D02*
X15283125Y-11122375D01*
X15410125Y-10701375D02*
X15450125Y-10741375D01*
X15450125Y-10701375D02*
X15410125Y-10741375D01*
X15410125Y-10828375D02*
X15450125Y-10868375D01*
X15450125Y-10828375D02*
X15410125Y-10868375D01*
X15410125Y-10955375D02*
X15450125Y-10995375D01*
X15450125Y-10955375D02*
X15410125Y-10995375D01*
D13*
X10981825Y-10780175D02*
G75*
G03*
X10981825Y-10780175I-47500J0D01*
G01*
X10981825Y-11030175D02*
G75*
G03*
X10981825Y-11030175I-47500J0D01*
G01*
X10981825Y-11280175D02*
G75*
G03*
X10981825Y-11280175I-47500J0D01*
G01*
D14*
X10934325Y-9837175D02*
X10934325Y-9937175D01*
X10884325Y-9887175D02*
X10984325Y-9887175D01*
X10934325Y-10087175D02*
X10934325Y-10187175D01*
X10884325Y-10137175D02*
X10984325Y-10137175D01*
X10943925Y-8639375D02*
X10943925Y-8739375D01*
X10893925Y-8689375D02*
X10993925Y-8689375D01*
D11*
X10893925Y-8589375D02*
X10893925Y-8789375D01*
X10993925Y-8589375D02*
X10993925Y-8789375D01*
X10893925Y-8789375D02*
G75*
G03*
X10993925Y-8789375I50000J0D01*
G01*
X10993925Y-8589375D02*
G75*
G03*
X10893925Y-8589375I-50000J0D01*
G01*
D14*
X11243925Y-9109375D02*
X11243925Y-9209375D01*
X11193925Y-9159375D02*
X11293925Y-9159375D01*
D11*
X11143925Y-9209375D02*
X11343925Y-9209375D01*
X11143925Y-9109375D02*
X11343925Y-9109375D01*
X11343925Y-9209375D02*
G75*
G03*
X11343925Y-9109375I0J50000D01*
G01*
X11143925Y-9109375D02*
G75*
G03*
X11143925Y-9209375I0J-50000D01*
G01*
D14*
X11293925Y-7470975D02*
X11293925Y-7570975D01*
X11243925Y-7520975D02*
X11343925Y-7520975D01*
X11543925Y-7470975D02*
X11543925Y-7570975D01*
X11493925Y-7520975D02*
X11593925Y-7520975D01*
X11543925Y-8639375D02*
X11543925Y-8739375D01*
X11493925Y-8689375D02*
X11593925Y-8689375D01*
D11*
X11493925Y-8589375D02*
X11493925Y-8789375D01*
X11593925Y-8589375D02*
X11593925Y-8789375D01*
X11493925Y-8789375D02*
G75*
G03*
X11593925Y-8789375I50000J0D01*
G01*
X11593925Y-8589375D02*
G75*
G03*
X11493925Y-8589375I-50000J0D01*
G01*
D15*
X13484846Y-10033397D02*
X13484846Y-9961554D01*
X13413004Y-9961554D01*
X13413004Y-10033397D01*
X13484846Y-10033397D01*
X13484846Y-10287397D02*
X13484846Y-10215554D01*
X13413004Y-10215554D01*
X13413004Y-10287397D01*
X13484846Y-10287397D01*
X13738846Y-10033397D02*
X13738846Y-9961554D01*
X13667004Y-9961554D01*
X13667004Y-10033397D01*
X13738846Y-10033397D01*
X13738846Y-10287397D02*
X13738846Y-10215554D01*
X13667004Y-10215554D01*
X13667004Y-10287397D01*
X13738846Y-10287397D01*
X13992846Y-10033397D02*
X13992846Y-9961554D01*
X13921004Y-9961554D01*
X13921004Y-10033397D01*
X13992846Y-10033397D01*
X13992846Y-10287397D02*
X13992846Y-10215554D01*
X13921004Y-10215554D01*
X13921004Y-10287397D01*
X13992846Y-10287397D01*
X14246846Y-10033397D02*
X14246846Y-9961554D01*
X14175004Y-9961554D01*
X14175004Y-10033397D01*
X14246846Y-10033397D01*
X14246846Y-10287397D02*
X14246846Y-10215554D01*
X14175004Y-10215554D01*
X14175004Y-10287397D01*
X14246846Y-10287397D01*
D16*
X12407525Y-9836575D02*
X12462525Y-9781575D01*
X12407525Y-9726575D01*
X12352525Y-9781575D01*
X12407525Y-9836575D01*
X12407525Y-10090575D02*
X12462525Y-10035575D01*
X12407525Y-9980575D01*
X12352525Y-10035575D01*
X12407525Y-10090575D01*
X12407525Y-10344575D02*
X12462525Y-10289575D01*
X12407525Y-10234575D01*
X12352525Y-10289575D01*
X12407525Y-10344575D01*
D17*
X10240125Y-7309375D02*
X10460125Y-7529375D01*
X10460125Y-7309375D02*
X10240125Y-7529375D01*
X10460125Y-7419375D02*
G75*
G03*
X10460125Y-7419375I-110000J0D01*
G01*
X10240125Y-11500375D02*
X10460125Y-11720375D01*
X10460125Y-11500375D02*
X10240125Y-11720375D01*
X10460125Y-11610375D02*
G75*
G03*
X10460125Y-11610375I-110000J0D01*
G01*
X15955125Y-7309375D02*
X16175125Y-7529375D01*
X16175125Y-7309375D02*
X15955125Y-7529375D01*
X16175125Y-7419375D02*
G75*
G03*
X16175125Y-7419375I-110000J0D01*
G01*
X15955125Y-11500375D02*
X16175125Y-11720375D01*
X16175125Y-11500375D02*
X15955125Y-11720375D01*
X16175125Y-11610375D02*
G75*
G03*
X16175125Y-11610375I-110000J0D01*
G01*
D11*
X10224244Y-12304351D02*
X10224244Y-12104351D01*
X10271863Y-12104351D01*
X10300435Y-12113875D01*
X10319482Y-12132923D01*
X10329006Y-12151970D01*
X10338530Y-12190065D01*
X10338530Y-12218637D01*
X10329006Y-12256732D01*
X10319482Y-12275780D01*
X10300435Y-12294827D01*
X10271863Y-12304351D01*
X10224244Y-12304351D01*
X10424244Y-12304351D02*
X10424244Y-12171018D01*
X10424244Y-12209113D02*
X10433768Y-12190065D01*
X10443292Y-12180542D01*
X10462339Y-12171018D01*
X10481387Y-12171018D01*
X10548054Y-12304351D02*
X10548054Y-12171018D01*
X10548054Y-12104351D02*
X10538530Y-12113875D01*
X10548054Y-12123399D01*
X10557577Y-12113875D01*
X10548054Y-12104351D01*
X10548054Y-12123399D01*
X10671863Y-12304351D02*
X10652816Y-12294827D01*
X10643292Y-12275780D01*
X10643292Y-12104351D01*
X10776625Y-12304351D02*
X10757577Y-12294827D01*
X10748054Y-12275780D01*
X10748054Y-12104351D01*
X11005197Y-12304351D02*
X11005197Y-12104351D01*
X11071863Y-12247208D01*
X11138530Y-12104351D01*
X11138530Y-12304351D01*
X11319482Y-12304351D02*
X11319482Y-12199589D01*
X11309958Y-12180542D01*
X11290911Y-12171018D01*
X11252815Y-12171018D01*
X11233768Y-12180542D01*
X11319482Y-12294827D02*
X11300435Y-12304351D01*
X11252815Y-12304351D01*
X11233768Y-12294827D01*
X11224244Y-12275780D01*
X11224244Y-12256732D01*
X11233768Y-12237685D01*
X11252815Y-12228161D01*
X11300435Y-12228161D01*
X11319482Y-12218637D01*
X11414720Y-12171018D02*
X11414720Y-12371018D01*
X11414720Y-12180542D02*
X11433768Y-12171018D01*
X11471863Y-12171018D01*
X11490911Y-12180542D01*
X11500435Y-12190065D01*
X11509958Y-12209113D01*
X11509958Y-12266256D01*
X11500435Y-12285304D01*
X11490911Y-12294827D01*
X11471863Y-12304351D01*
X11433768Y-12304351D01*
X11414720Y-12294827D01*
X11595673Y-12285304D02*
X11605196Y-12294827D01*
X11595673Y-12304351D01*
X11586149Y-12294827D01*
X11595673Y-12285304D01*
X11595673Y-12304351D01*
X11595673Y-12180542D02*
X11605196Y-12190065D01*
X11595673Y-12199589D01*
X11586149Y-12190065D01*
X11595673Y-12180542D01*
X11595673Y-12199589D01*
D12*
X9926625Y-12613875D02*
X9966625Y-12653875D01*
X9966625Y-12613875D02*
X9926625Y-12653875D01*
D11*
X10262339Y-12524351D02*
X10281387Y-12524351D01*
X10300435Y-12533875D01*
X10309958Y-12543399D01*
X10319482Y-12562446D01*
X10329006Y-12600542D01*
X10329006Y-12648161D01*
X10319482Y-12686256D01*
X10309958Y-12705304D01*
X10300435Y-12714827D01*
X10281387Y-12724351D01*
X10262339Y-12724351D01*
X10243292Y-12714827D01*
X10233768Y-12705304D01*
X10224244Y-12686256D01*
X10214720Y-12648161D01*
X10214720Y-12600542D01*
X10224244Y-12562446D01*
X10233768Y-12543399D01*
X10243292Y-12533875D01*
X10262339Y-12524351D01*
X10414720Y-12705304D02*
X10424244Y-12714827D01*
X10414720Y-12724351D01*
X10405197Y-12714827D01*
X10414720Y-12705304D01*
X10414720Y-12724351D01*
X10595673Y-12591018D02*
X10595673Y-12724351D01*
X10548054Y-12514827D02*
X10500435Y-12657685D01*
X10624244Y-12657685D01*
X10738530Y-12524351D02*
X10757577Y-12524351D01*
X10776625Y-12533875D01*
X10786149Y-12543399D01*
X10795673Y-12562446D01*
X10805197Y-12600542D01*
X10805197Y-12648161D01*
X10795673Y-12686256D01*
X10786149Y-12705304D01*
X10776625Y-12714827D01*
X10757577Y-12724351D01*
X10738530Y-12724351D01*
X10719482Y-12714827D01*
X10709958Y-12705304D01*
X10700435Y-12686256D01*
X10690911Y-12648161D01*
X10690911Y-12600542D01*
X10700435Y-12562446D01*
X10709958Y-12543399D01*
X10719482Y-12533875D01*
X10738530Y-12524351D01*
X10929006Y-12524351D02*
X10948054Y-12524351D01*
X10967101Y-12533875D01*
X10976625Y-12543399D01*
X10986149Y-12562446D01*
X10995673Y-12600542D01*
X10995673Y-12648161D01*
X10986149Y-12686256D01*
X10976625Y-12705304D01*
X10967101Y-12714827D01*
X10948054Y-12724351D01*
X10929006Y-12724351D01*
X10909958Y-12714827D01*
X10900435Y-12705304D01*
X10890911Y-12686256D01*
X10881387Y-12648161D01*
X10881387Y-12600542D01*
X10890911Y-12562446D01*
X10900435Y-12543399D01*
X10909958Y-12533875D01*
X10929006Y-12524351D01*
X11081387Y-12724351D02*
X11081387Y-12591018D01*
X11081387Y-12610065D02*
X11090911Y-12600542D01*
X11109958Y-12591018D01*
X11138530Y-12591018D01*
X11157577Y-12600542D01*
X11167101Y-12619589D01*
X11167101Y-12724351D01*
X11167101Y-12619589D02*
X11176625Y-12600542D01*
X11195673Y-12591018D01*
X11224244Y-12591018D01*
X11243292Y-12600542D01*
X11252815Y-12619589D01*
X11252815Y-12724351D01*
X11348054Y-12724351D02*
X11348054Y-12591018D01*
X11348054Y-12610065D02*
X11357577Y-12600542D01*
X11376625Y-12591018D01*
X11405196Y-12591018D01*
X11424244Y-12600542D01*
X11433768Y-12619589D01*
X11433768Y-12724351D01*
X11433768Y-12619589D02*
X11443292Y-12600542D01*
X11462339Y-12591018D01*
X11490911Y-12591018D01*
X11509958Y-12600542D01*
X11519482Y-12619589D01*
X11519482Y-12724351D01*
X11909958Y-12514827D02*
X11738530Y-12771970D01*
X12167101Y-12524351D02*
X12186149Y-12524351D01*
X12205196Y-12533875D01*
X12214720Y-12543399D01*
X12224244Y-12562446D01*
X12233768Y-12600542D01*
X12233768Y-12648161D01*
X12224244Y-12686256D01*
X12214720Y-12705304D01*
X12205196Y-12714827D01*
X12186149Y-12724351D01*
X12167101Y-12724351D01*
X12148054Y-12714827D01*
X12138530Y-12705304D01*
X12129006Y-12686256D01*
X12119482Y-12648161D01*
X12119482Y-12600542D01*
X12129006Y-12562446D01*
X12138530Y-12543399D01*
X12148054Y-12533875D01*
X12167101Y-12524351D01*
X12319482Y-12705304D02*
X12329006Y-12714827D01*
X12319482Y-12724351D01*
X12309958Y-12714827D01*
X12319482Y-12705304D01*
X12319482Y-12724351D01*
X12452815Y-12524351D02*
X12471863Y-12524351D01*
X12490911Y-12533875D01*
X12500435Y-12543399D01*
X12509958Y-12562446D01*
X12519482Y-12600542D01*
X12519482Y-12648161D01*
X12509958Y-12686256D01*
X12500435Y-12705304D01*
X12490911Y-12714827D01*
X12471863Y-12724351D01*
X12452815Y-12724351D01*
X12433768Y-12714827D01*
X12424244Y-12705304D01*
X12414720Y-12686256D01*
X12405196Y-12648161D01*
X12405196Y-12600542D01*
X12414720Y-12562446D01*
X12424244Y-12543399D01*
X12433768Y-12533875D01*
X12452815Y-12524351D01*
X12709958Y-12724351D02*
X12595673Y-12724351D01*
X12652815Y-12724351D02*
X12652815Y-12524351D01*
X12633768Y-12552923D01*
X12614720Y-12571970D01*
X12595673Y-12581494D01*
X12890911Y-12524351D02*
X12795673Y-12524351D01*
X12786149Y-12619589D01*
X12795673Y-12610065D01*
X12814720Y-12600542D01*
X12862339Y-12600542D01*
X12881387Y-12610065D01*
X12890911Y-12619589D01*
X12900435Y-12638637D01*
X12900435Y-12686256D01*
X12890911Y-12705304D01*
X12881387Y-12714827D01*
X12862339Y-12724351D01*
X12814720Y-12724351D01*
X12795673Y-12714827D01*
X12786149Y-12705304D01*
X12967101Y-12524351D02*
X13100435Y-12524351D01*
X13014720Y-12724351D01*
X13167101Y-12524351D02*
X13167101Y-12562446D01*
X13243292Y-12524351D02*
X13243292Y-12562446D01*
X13538530Y-12800542D02*
X13529006Y-12791018D01*
X13509958Y-12762446D01*
X13500435Y-12743399D01*
X13490911Y-12714827D01*
X13481387Y-12667208D01*
X13481387Y-12629113D01*
X13490911Y-12581494D01*
X13500435Y-12552923D01*
X13509958Y-12533875D01*
X13529006Y-12505304D01*
X13538530Y-12495780D01*
X13595673Y-12524351D02*
X13719482Y-12524351D01*
X13652815Y-12600542D01*
X13681387Y-12600542D01*
X13700435Y-12610065D01*
X13709958Y-12619589D01*
X13719482Y-12638637D01*
X13719482Y-12686256D01*
X13709958Y-12705304D01*
X13700435Y-12714827D01*
X13681387Y-12724351D01*
X13624244Y-12724351D01*
X13605196Y-12714827D01*
X13595673Y-12705304D01*
X13786149Y-12524351D02*
X13909958Y-12524351D01*
X13843292Y-12600542D01*
X13871863Y-12600542D01*
X13890911Y-12610065D01*
X13900435Y-12619589D01*
X13909958Y-12638637D01*
X13909958Y-12686256D01*
X13900435Y-12705304D01*
X13890911Y-12714827D01*
X13871863Y-12724351D01*
X13814720Y-12724351D01*
X13795673Y-12714827D01*
X13786149Y-12705304D01*
X14148054Y-12724351D02*
X14148054Y-12524351D01*
X14233768Y-12724351D02*
X14233768Y-12619589D01*
X14224244Y-12600542D01*
X14205196Y-12591018D01*
X14176625Y-12591018D01*
X14157577Y-12600542D01*
X14148054Y-12610065D01*
X14357577Y-12724351D02*
X14338530Y-12714827D01*
X14329006Y-12705304D01*
X14319482Y-12686256D01*
X14319482Y-12629113D01*
X14329006Y-12610065D01*
X14338530Y-12600542D01*
X14357577Y-12591018D01*
X14386149Y-12591018D01*
X14405196Y-12600542D01*
X14414720Y-12610065D01*
X14424244Y-12629113D01*
X14424244Y-12686256D01*
X14414720Y-12705304D01*
X14405196Y-12714827D01*
X14386149Y-12724351D01*
X14357577Y-12724351D01*
X14538530Y-12724351D02*
X14519482Y-12714827D01*
X14509958Y-12695780D01*
X14509958Y-12524351D01*
X14690911Y-12714827D02*
X14671863Y-12724351D01*
X14633768Y-12724351D01*
X14614720Y-12714827D01*
X14605196Y-12695780D01*
X14605196Y-12619589D01*
X14614720Y-12600542D01*
X14633768Y-12591018D01*
X14671863Y-12591018D01*
X14690911Y-12600542D01*
X14700435Y-12619589D01*
X14700435Y-12638637D01*
X14605196Y-12657685D01*
X14776625Y-12714827D02*
X14795673Y-12724351D01*
X14833768Y-12724351D01*
X14852815Y-12714827D01*
X14862339Y-12695780D01*
X14862339Y-12686256D01*
X14852815Y-12667208D01*
X14833768Y-12657685D01*
X14805196Y-12657685D01*
X14786149Y-12648161D01*
X14776625Y-12629113D01*
X14776625Y-12619589D01*
X14786149Y-12600542D01*
X14805196Y-12591018D01*
X14833768Y-12591018D01*
X14852815Y-12600542D01*
X14929006Y-12800542D02*
X14938530Y-12791018D01*
X14957577Y-12762446D01*
X14967101Y-12743399D01*
X14976625Y-12714827D01*
X14986149Y-12667208D01*
X14986149Y-12629113D01*
X14976625Y-12581494D01*
X14967101Y-12552923D01*
X14957577Y-12533875D01*
X14938530Y-12505304D01*
X14929006Y-12495780D01*
D13*
X9966625Y-12897875D02*
G75*
G03*
X9966625Y-12897875I-47500J0D01*
G01*
D11*
X10262339Y-12788351D02*
X10281387Y-12788351D01*
X10300435Y-12797875D01*
X10309958Y-12807399D01*
X10319482Y-12826446D01*
X10329006Y-12864542D01*
X10329006Y-12912161D01*
X10319482Y-12950256D01*
X10309958Y-12969304D01*
X10300435Y-12978827D01*
X10281387Y-12988351D01*
X10262339Y-12988351D01*
X10243292Y-12978827D01*
X10233768Y-12969304D01*
X10224244Y-12950256D01*
X10214720Y-12912161D01*
X10214720Y-12864542D01*
X10224244Y-12826446D01*
X10233768Y-12807399D01*
X10243292Y-12797875D01*
X10262339Y-12788351D01*
X10414720Y-12969304D02*
X10424244Y-12978827D01*
X10414720Y-12988351D01*
X10405197Y-12978827D01*
X10414720Y-12969304D01*
X10414720Y-12988351D01*
X10519482Y-12988351D02*
X10557577Y-12988351D01*
X10576625Y-12978827D01*
X10586149Y-12969304D01*
X10605197Y-12940732D01*
X10614720Y-12902637D01*
X10614720Y-12826446D01*
X10605197Y-12807399D01*
X10595673Y-12797875D01*
X10576625Y-12788351D01*
X10538530Y-12788351D01*
X10519482Y-12797875D01*
X10509958Y-12807399D01*
X10500435Y-12826446D01*
X10500435Y-12874065D01*
X10509958Y-12893113D01*
X10519482Y-12902637D01*
X10538530Y-12912161D01*
X10576625Y-12912161D01*
X10595673Y-12902637D01*
X10605197Y-12893113D01*
X10614720Y-12874065D01*
X10795673Y-12788351D02*
X10700435Y-12788351D01*
X10690911Y-12883589D01*
X10700435Y-12874065D01*
X10719482Y-12864542D01*
X10767101Y-12864542D01*
X10786149Y-12874065D01*
X10795673Y-12883589D01*
X10805197Y-12902637D01*
X10805197Y-12950256D01*
X10795673Y-12969304D01*
X10786149Y-12978827D01*
X10767101Y-12988351D01*
X10719482Y-12988351D01*
X10700435Y-12978827D01*
X10690911Y-12969304D01*
X10929006Y-12788351D02*
X10948054Y-12788351D01*
X10967101Y-12797875D01*
X10976625Y-12807399D01*
X10986149Y-12826446D01*
X10995673Y-12864542D01*
X10995673Y-12912161D01*
X10986149Y-12950256D01*
X10976625Y-12969304D01*
X10967101Y-12978827D01*
X10948054Y-12988351D01*
X10929006Y-12988351D01*
X10909958Y-12978827D01*
X10900435Y-12969304D01*
X10890911Y-12950256D01*
X10881387Y-12912161D01*
X10881387Y-12864542D01*
X10890911Y-12826446D01*
X10900435Y-12807399D01*
X10909958Y-12797875D01*
X10929006Y-12788351D01*
X11081387Y-12988351D02*
X11081387Y-12855018D01*
X11081387Y-12874065D02*
X11090911Y-12864542D01*
X11109958Y-12855018D01*
X11138530Y-12855018D01*
X11157577Y-12864542D01*
X11167101Y-12883589D01*
X11167101Y-12988351D01*
X11167101Y-12883589D02*
X11176625Y-12864542D01*
X11195673Y-12855018D01*
X11224244Y-12855018D01*
X11243292Y-12864542D01*
X11252815Y-12883589D01*
X11252815Y-12988351D01*
X11348054Y-12988351D02*
X11348054Y-12855018D01*
X11348054Y-12874065D02*
X11357577Y-12864542D01*
X11376625Y-12855018D01*
X11405196Y-12855018D01*
X11424244Y-12864542D01*
X11433768Y-12883589D01*
X11433768Y-12988351D01*
X11433768Y-12883589D02*
X11443292Y-12864542D01*
X11462339Y-12855018D01*
X11490911Y-12855018D01*
X11509958Y-12864542D01*
X11519482Y-12883589D01*
X11519482Y-12988351D01*
X11909958Y-12778827D02*
X11738530Y-13035970D01*
X12167101Y-12788351D02*
X12186149Y-12788351D01*
X12205196Y-12797875D01*
X12214720Y-12807399D01*
X12224244Y-12826446D01*
X12233768Y-12864542D01*
X12233768Y-12912161D01*
X12224244Y-12950256D01*
X12214720Y-12969304D01*
X12205196Y-12978827D01*
X12186149Y-12988351D01*
X12167101Y-12988351D01*
X12148054Y-12978827D01*
X12138530Y-12969304D01*
X12129006Y-12950256D01*
X12119482Y-12912161D01*
X12119482Y-12864542D01*
X12129006Y-12826446D01*
X12138530Y-12807399D01*
X12148054Y-12797875D01*
X12167101Y-12788351D01*
X12319482Y-12969304D02*
X12329006Y-12978827D01*
X12319482Y-12988351D01*
X12309958Y-12978827D01*
X12319482Y-12969304D01*
X12319482Y-12988351D01*
X12452815Y-12788351D02*
X12471863Y-12788351D01*
X12490911Y-12797875D01*
X12500435Y-12807399D01*
X12509958Y-12826446D01*
X12519482Y-12864542D01*
X12519482Y-12912161D01*
X12509958Y-12950256D01*
X12500435Y-12969304D01*
X12490911Y-12978827D01*
X12471863Y-12988351D01*
X12452815Y-12988351D01*
X12433768Y-12978827D01*
X12424244Y-12969304D01*
X12414720Y-12950256D01*
X12405196Y-12912161D01*
X12405196Y-12864542D01*
X12414720Y-12826446D01*
X12424244Y-12807399D01*
X12433768Y-12797875D01*
X12452815Y-12788351D01*
X12586149Y-12788351D02*
X12709958Y-12788351D01*
X12643292Y-12864542D01*
X12671863Y-12864542D01*
X12690911Y-12874065D01*
X12700435Y-12883589D01*
X12709958Y-12902637D01*
X12709958Y-12950256D01*
X12700435Y-12969304D01*
X12690911Y-12978827D01*
X12671863Y-12988351D01*
X12614720Y-12988351D01*
X12595673Y-12978827D01*
X12586149Y-12969304D01*
X12776625Y-12788351D02*
X12909958Y-12788351D01*
X12824244Y-12988351D01*
X13071863Y-12855018D02*
X13071863Y-12988351D01*
X13024244Y-12778827D02*
X12976625Y-12921685D01*
X13100435Y-12921685D01*
X13167101Y-12788351D02*
X13167101Y-12826446D01*
X13243292Y-12788351D02*
X13243292Y-12826446D01*
X13538530Y-13064542D02*
X13529006Y-13055018D01*
X13509958Y-13026446D01*
X13500435Y-13007399D01*
X13490911Y-12978827D01*
X13481387Y-12931208D01*
X13481387Y-12893113D01*
X13490911Y-12845494D01*
X13500435Y-12816923D01*
X13509958Y-12797875D01*
X13529006Y-12769304D01*
X13538530Y-12759780D01*
X13595673Y-12788351D02*
X13719482Y-12788351D01*
X13652815Y-12864542D01*
X13681387Y-12864542D01*
X13700435Y-12874065D01*
X13709958Y-12883589D01*
X13719482Y-12902637D01*
X13719482Y-12950256D01*
X13709958Y-12969304D01*
X13700435Y-12978827D01*
X13681387Y-12988351D01*
X13624244Y-12988351D01*
X13605196Y-12978827D01*
X13595673Y-12969304D01*
X13957577Y-12988351D02*
X13957577Y-12788351D01*
X14043292Y-12988351D02*
X14043292Y-12883589D01*
X14033768Y-12864542D01*
X14014720Y-12855018D01*
X13986149Y-12855018D01*
X13967101Y-12864542D01*
X13957577Y-12874065D01*
X14167101Y-12988351D02*
X14148054Y-12978827D01*
X14138530Y-12969304D01*
X14129006Y-12950256D01*
X14129006Y-12893113D01*
X14138530Y-12874065D01*
X14148054Y-12864542D01*
X14167101Y-12855018D01*
X14195673Y-12855018D01*
X14214720Y-12864542D01*
X14224244Y-12874065D01*
X14233768Y-12893113D01*
X14233768Y-12950256D01*
X14224244Y-12969304D01*
X14214720Y-12978827D01*
X14195673Y-12988351D01*
X14167101Y-12988351D01*
X14348054Y-12988351D02*
X14329006Y-12978827D01*
X14319482Y-12959780D01*
X14319482Y-12788351D01*
X14500435Y-12978827D02*
X14481387Y-12988351D01*
X14443292Y-12988351D01*
X14424244Y-12978827D01*
X14414720Y-12959780D01*
X14414720Y-12883589D01*
X14424244Y-12864542D01*
X14443292Y-12855018D01*
X14481387Y-12855018D01*
X14500435Y-12864542D01*
X14509958Y-12883589D01*
X14509958Y-12902637D01*
X14414720Y-12921685D01*
X14586149Y-12978827D02*
X14605196Y-12988351D01*
X14643292Y-12988351D01*
X14662339Y-12978827D01*
X14671863Y-12959780D01*
X14671863Y-12950256D01*
X14662339Y-12931208D01*
X14643292Y-12921685D01*
X14614720Y-12921685D01*
X14595673Y-12912161D01*
X14586149Y-12893113D01*
X14586149Y-12883589D01*
X14595673Y-12864542D01*
X14614720Y-12855018D01*
X14643292Y-12855018D01*
X14662339Y-12864542D01*
X14738530Y-13064542D02*
X14748054Y-13055018D01*
X14767101Y-13026446D01*
X14776625Y-13007399D01*
X14786149Y-12978827D01*
X14795673Y-12931208D01*
X14795673Y-12893113D01*
X14786149Y-12845494D01*
X14776625Y-12816923D01*
X14767101Y-12797875D01*
X14748054Y-12769304D01*
X14738530Y-12759780D01*
D14*
X9916625Y-13111875D02*
X9916625Y-13211875D01*
X9866625Y-13161875D02*
X9966625Y-13161875D01*
D11*
X10329006Y-13252351D02*
X10214720Y-13252351D01*
X10271863Y-13252351D02*
X10271863Y-13052351D01*
X10252816Y-13080923D01*
X10233768Y-13099970D01*
X10214720Y-13109494D01*
X10414720Y-13233304D02*
X10424244Y-13242827D01*
X10414720Y-13252351D01*
X10405197Y-13242827D01*
X10414720Y-13233304D01*
X10414720Y-13252351D01*
X10548054Y-13052351D02*
X10567101Y-13052351D01*
X10586149Y-13061875D01*
X10595673Y-13071399D01*
X10605197Y-13090446D01*
X10614720Y-13128542D01*
X10614720Y-13176161D01*
X10605197Y-13214256D01*
X10595673Y-13233304D01*
X10586149Y-13242827D01*
X10567101Y-13252351D01*
X10548054Y-13252351D01*
X10529006Y-13242827D01*
X10519482Y-13233304D01*
X10509958Y-13214256D01*
X10500435Y-13176161D01*
X10500435Y-13128542D01*
X10509958Y-13090446D01*
X10519482Y-13071399D01*
X10529006Y-13061875D01*
X10548054Y-13052351D01*
X10738530Y-13052351D02*
X10757577Y-13052351D01*
X10776625Y-13061875D01*
X10786149Y-13071399D01*
X10795673Y-13090446D01*
X10805197Y-13128542D01*
X10805197Y-13176161D01*
X10795673Y-13214256D01*
X10786149Y-13233304D01*
X10776625Y-13242827D01*
X10757577Y-13252351D01*
X10738530Y-13252351D01*
X10719482Y-13242827D01*
X10709958Y-13233304D01*
X10700435Y-13214256D01*
X10690911Y-13176161D01*
X10690911Y-13128542D01*
X10700435Y-13090446D01*
X10709958Y-13071399D01*
X10719482Y-13061875D01*
X10738530Y-13052351D01*
X10929006Y-13052351D02*
X10948054Y-13052351D01*
X10967101Y-13061875D01*
X10976625Y-13071399D01*
X10986149Y-13090446D01*
X10995673Y-13128542D01*
X10995673Y-13176161D01*
X10986149Y-13214256D01*
X10976625Y-13233304D01*
X10967101Y-13242827D01*
X10948054Y-13252351D01*
X10929006Y-13252351D01*
X10909958Y-13242827D01*
X10900435Y-13233304D01*
X10890911Y-13214256D01*
X10881387Y-13176161D01*
X10881387Y-13128542D01*
X10890911Y-13090446D01*
X10900435Y-13071399D01*
X10909958Y-13061875D01*
X10929006Y-13052351D01*
X11081387Y-13252351D02*
X11081387Y-13119018D01*
X11081387Y-13138065D02*
X11090911Y-13128542D01*
X11109958Y-13119018D01*
X11138530Y-13119018D01*
X11157577Y-13128542D01*
X11167101Y-13147589D01*
X11167101Y-13252351D01*
X11167101Y-13147589D02*
X11176625Y-13128542D01*
X11195673Y-13119018D01*
X11224244Y-13119018D01*
X11243292Y-13128542D01*
X11252815Y-13147589D01*
X11252815Y-13252351D01*
X11348054Y-13252351D02*
X11348054Y-13119018D01*
X11348054Y-13138065D02*
X11357577Y-13128542D01*
X11376625Y-13119018D01*
X11405196Y-13119018D01*
X11424244Y-13128542D01*
X11433768Y-13147589D01*
X11433768Y-13252351D01*
X11433768Y-13147589D02*
X11443292Y-13128542D01*
X11462339Y-13119018D01*
X11490911Y-13119018D01*
X11509958Y-13128542D01*
X11519482Y-13147589D01*
X11519482Y-13252351D01*
X11909958Y-13042827D02*
X11738530Y-13299970D01*
X12167101Y-13052351D02*
X12186149Y-13052351D01*
X12205196Y-13061875D01*
X12214720Y-13071399D01*
X12224244Y-13090446D01*
X12233768Y-13128542D01*
X12233768Y-13176161D01*
X12224244Y-13214256D01*
X12214720Y-13233304D01*
X12205196Y-13242827D01*
X12186149Y-13252351D01*
X12167101Y-13252351D01*
X12148054Y-13242827D01*
X12138530Y-13233304D01*
X12129006Y-13214256D01*
X12119482Y-13176161D01*
X12119482Y-13128542D01*
X12129006Y-13090446D01*
X12138530Y-13071399D01*
X12148054Y-13061875D01*
X12167101Y-13052351D01*
X12319482Y-13233304D02*
X12329006Y-13242827D01*
X12319482Y-13252351D01*
X12309958Y-13242827D01*
X12319482Y-13233304D01*
X12319482Y-13252351D01*
X12452815Y-13052351D02*
X12471863Y-13052351D01*
X12490911Y-13061875D01*
X12500435Y-13071399D01*
X12509958Y-13090446D01*
X12519482Y-13128542D01*
X12519482Y-13176161D01*
X12509958Y-13214256D01*
X12500435Y-13233304D01*
X12490911Y-13242827D01*
X12471863Y-13252351D01*
X12452815Y-13252351D01*
X12433768Y-13242827D01*
X12424244Y-13233304D01*
X12414720Y-13214256D01*
X12405196Y-13176161D01*
X12405196Y-13128542D01*
X12414720Y-13090446D01*
X12424244Y-13071399D01*
X12433768Y-13061875D01*
X12452815Y-13052351D01*
X12586149Y-13052351D02*
X12709958Y-13052351D01*
X12643292Y-13128542D01*
X12671863Y-13128542D01*
X12690911Y-13138065D01*
X12700435Y-13147589D01*
X12709958Y-13166637D01*
X12709958Y-13214256D01*
X12700435Y-13233304D01*
X12690911Y-13242827D01*
X12671863Y-13252351D01*
X12614720Y-13252351D01*
X12595673Y-13242827D01*
X12586149Y-13233304D01*
X12805196Y-13252351D02*
X12843292Y-13252351D01*
X12862339Y-13242827D01*
X12871863Y-13233304D01*
X12890911Y-13204732D01*
X12900435Y-13166637D01*
X12900435Y-13090446D01*
X12890911Y-13071399D01*
X12881387Y-13061875D01*
X12862339Y-13052351D01*
X12824244Y-13052351D01*
X12805196Y-13061875D01*
X12795673Y-13071399D01*
X12786149Y-13090446D01*
X12786149Y-13138065D01*
X12795673Y-13157113D01*
X12805196Y-13166637D01*
X12824244Y-13176161D01*
X12862339Y-13176161D01*
X12881387Y-13166637D01*
X12890911Y-13157113D01*
X12900435Y-13138065D01*
X13071863Y-13119018D02*
X13071863Y-13252351D01*
X13024244Y-13042827D02*
X12976625Y-13185685D01*
X13100435Y-13185685D01*
X13167101Y-13052351D02*
X13167101Y-13090446D01*
X13243292Y-13052351D02*
X13243292Y-13090446D01*
X13538530Y-13328542D02*
X13529006Y-13319018D01*
X13509958Y-13290446D01*
X13500435Y-13271399D01*
X13490911Y-13242827D01*
X13481387Y-13195208D01*
X13481387Y-13157113D01*
X13490911Y-13109494D01*
X13500435Y-13080923D01*
X13509958Y-13061875D01*
X13529006Y-13033304D01*
X13538530Y-13023780D01*
X13700435Y-13119018D02*
X13700435Y-13252351D01*
X13652815Y-13042827D02*
X13605196Y-13185685D01*
X13729006Y-13185685D01*
X13957577Y-13252351D02*
X13957577Y-13052351D01*
X14043292Y-13252351D02*
X14043292Y-13147589D01*
X14033768Y-13128542D01*
X14014720Y-13119018D01*
X13986149Y-13119018D01*
X13967101Y-13128542D01*
X13957577Y-13138065D01*
X14167101Y-13252351D02*
X14148054Y-13242827D01*
X14138530Y-13233304D01*
X14129006Y-13214256D01*
X14129006Y-13157113D01*
X14138530Y-13138065D01*
X14148054Y-13128542D01*
X14167101Y-13119018D01*
X14195673Y-13119018D01*
X14214720Y-13128542D01*
X14224244Y-13138065D01*
X14233768Y-13157113D01*
X14233768Y-13214256D01*
X14224244Y-13233304D01*
X14214720Y-13242827D01*
X14195673Y-13252351D01*
X14167101Y-13252351D01*
X14348054Y-13252351D02*
X14329006Y-13242827D01*
X14319482Y-13223780D01*
X14319482Y-13052351D01*
X14500435Y-13242827D02*
X14481387Y-13252351D01*
X14443292Y-13252351D01*
X14424244Y-13242827D01*
X14414720Y-13223780D01*
X14414720Y-13147589D01*
X14424244Y-13128542D01*
X14443292Y-13119018D01*
X14481387Y-13119018D01*
X14500435Y-13128542D01*
X14509958Y-13147589D01*
X14509958Y-13166637D01*
X14414720Y-13185685D01*
X14586149Y-13242827D02*
X14605196Y-13252351D01*
X14643292Y-13252351D01*
X14662339Y-13242827D01*
X14671863Y-13223780D01*
X14671863Y-13214256D01*
X14662339Y-13195208D01*
X14643292Y-13185685D01*
X14614720Y-13185685D01*
X14595673Y-13176161D01*
X14586149Y-13157113D01*
X14586149Y-13147589D01*
X14595673Y-13128542D01*
X14614720Y-13119018D01*
X14643292Y-13119018D01*
X14662339Y-13128542D01*
X14909958Y-13176161D02*
X15062339Y-13176161D01*
X14986149Y-13252351D02*
X14986149Y-13099970D01*
X15290911Y-13052351D02*
X15414720Y-13052351D01*
X15348054Y-13128542D01*
X15376625Y-13128542D01*
X15395673Y-13138065D01*
X15405196Y-13147589D01*
X15414720Y-13166637D01*
X15414720Y-13214256D01*
X15405196Y-13233304D01*
X15395673Y-13242827D01*
X15376625Y-13252351D01*
X15319482Y-13252351D01*
X15300435Y-13242827D01*
X15290911Y-13233304D01*
X15643292Y-13242827D02*
X15662339Y-13252351D01*
X15700435Y-13252351D01*
X15719482Y-13242827D01*
X15729006Y-13223780D01*
X15729006Y-13214256D01*
X15719482Y-13195208D01*
X15700435Y-13185685D01*
X15671863Y-13185685D01*
X15652815Y-13176161D01*
X15643292Y-13157113D01*
X15643292Y-13147589D01*
X15652815Y-13128542D01*
X15671863Y-13119018D01*
X15700435Y-13119018D01*
X15719482Y-13128542D01*
X15843292Y-13252351D02*
X15824244Y-13242827D01*
X15814720Y-13223780D01*
X15814720Y-13052351D01*
X15948054Y-13252351D02*
X15929006Y-13242827D01*
X15919482Y-13233304D01*
X15909958Y-13214256D01*
X15909958Y-13157113D01*
X15919482Y-13138065D01*
X15929006Y-13128542D01*
X15948054Y-13119018D01*
X15976625Y-13119018D01*
X15995673Y-13128542D01*
X16005196Y-13138065D01*
X16014720Y-13157113D01*
X16014720Y-13214256D01*
X16005196Y-13233304D01*
X15995673Y-13242827D01*
X15976625Y-13252351D01*
X15948054Y-13252351D01*
X16071863Y-13119018D02*
X16148054Y-13119018D01*
X16100435Y-13052351D02*
X16100435Y-13223780D01*
X16109958Y-13242827D01*
X16129006Y-13252351D01*
X16148054Y-13252351D01*
X16205196Y-13242827D02*
X16224244Y-13252351D01*
X16262339Y-13252351D01*
X16281387Y-13242827D01*
X16290911Y-13223780D01*
X16290911Y-13214256D01*
X16281387Y-13195208D01*
X16262339Y-13185685D01*
X16233768Y-13185685D01*
X16214720Y-13176161D01*
X16205196Y-13157113D01*
X16205196Y-13147589D01*
X16214720Y-13128542D01*
X16233768Y-13119018D01*
X16262339Y-13119018D01*
X16281387Y-13128542D01*
X16357577Y-13328542D02*
X16367101Y-13319018D01*
X16386149Y-13290446D01*
X16395673Y-13271399D01*
X16405196Y-13242827D01*
X16414720Y-13195208D01*
X16414720Y-13157113D01*
X16405196Y-13109494D01*
X16395673Y-13080923D01*
X16386149Y-13061875D01*
X16367101Y-13033304D01*
X16357577Y-13023780D01*
D15*
X9951747Y-13461796D02*
X9951747Y-13389954D01*
X9879904Y-13389954D01*
X9879904Y-13461796D01*
X9951747Y-13461796D01*
D11*
X10329006Y-13516351D02*
X10214720Y-13516351D01*
X10271863Y-13516351D02*
X10271863Y-13316351D01*
X10252816Y-13344923D01*
X10233768Y-13363970D01*
X10214720Y-13373494D01*
X10414720Y-13497304D02*
X10424244Y-13506827D01*
X10414720Y-13516351D01*
X10405197Y-13506827D01*
X10414720Y-13497304D01*
X10414720Y-13516351D01*
X10548054Y-13316351D02*
X10567101Y-13316351D01*
X10586149Y-13325875D01*
X10595673Y-13335399D01*
X10605197Y-13354446D01*
X10614720Y-13392542D01*
X10614720Y-13440161D01*
X10605197Y-13478256D01*
X10595673Y-13497304D01*
X10586149Y-13506827D01*
X10567101Y-13516351D01*
X10548054Y-13516351D01*
X10529006Y-13506827D01*
X10519482Y-13497304D01*
X10509958Y-13478256D01*
X10500435Y-13440161D01*
X10500435Y-13392542D01*
X10509958Y-13354446D01*
X10519482Y-13335399D01*
X10529006Y-13325875D01*
X10548054Y-13316351D01*
X10805197Y-13516351D02*
X10690911Y-13516351D01*
X10748054Y-13516351D02*
X10748054Y-13316351D01*
X10729006Y-13344923D01*
X10709958Y-13363970D01*
X10690911Y-13373494D01*
X10976625Y-13316351D02*
X10938530Y-13316351D01*
X10919482Y-13325875D01*
X10909958Y-13335399D01*
X10890911Y-13363970D01*
X10881387Y-13402065D01*
X10881387Y-13478256D01*
X10890911Y-13497304D01*
X10900435Y-13506827D01*
X10919482Y-13516351D01*
X10957577Y-13516351D01*
X10976625Y-13506827D01*
X10986149Y-13497304D01*
X10995673Y-13478256D01*
X10995673Y-13430637D01*
X10986149Y-13411589D01*
X10976625Y-13402065D01*
X10957577Y-13392542D01*
X10919482Y-13392542D01*
X10900435Y-13402065D01*
X10890911Y-13411589D01*
X10881387Y-13430637D01*
X11081387Y-13516351D02*
X11081387Y-13383018D01*
X11081387Y-13402065D02*
X11090911Y-13392542D01*
X11109958Y-13383018D01*
X11138530Y-13383018D01*
X11157577Y-13392542D01*
X11167101Y-13411589D01*
X11167101Y-13516351D01*
X11167101Y-13411589D02*
X11176625Y-13392542D01*
X11195673Y-13383018D01*
X11224244Y-13383018D01*
X11243292Y-13392542D01*
X11252815Y-13411589D01*
X11252815Y-13516351D01*
X11348054Y-13516351D02*
X11348054Y-13383018D01*
X11348054Y-13402065D02*
X11357577Y-13392542D01*
X11376625Y-13383018D01*
X11405196Y-13383018D01*
X11424244Y-13392542D01*
X11433768Y-13411589D01*
X11433768Y-13516351D01*
X11433768Y-13411589D02*
X11443292Y-13392542D01*
X11462339Y-13383018D01*
X11490911Y-13383018D01*
X11509958Y-13392542D01*
X11519482Y-13411589D01*
X11519482Y-13516351D01*
X11909958Y-13306827D02*
X11738530Y-13563970D01*
X12167101Y-13316351D02*
X12186149Y-13316351D01*
X12205196Y-13325875D01*
X12214720Y-13335399D01*
X12224244Y-13354446D01*
X12233768Y-13392542D01*
X12233768Y-13440161D01*
X12224244Y-13478256D01*
X12214720Y-13497304D01*
X12205196Y-13506827D01*
X12186149Y-13516351D01*
X12167101Y-13516351D01*
X12148054Y-13506827D01*
X12138530Y-13497304D01*
X12129006Y-13478256D01*
X12119482Y-13440161D01*
X12119482Y-13392542D01*
X12129006Y-13354446D01*
X12138530Y-13335399D01*
X12148054Y-13325875D01*
X12167101Y-13316351D01*
X12319482Y-13497304D02*
X12329006Y-13506827D01*
X12319482Y-13516351D01*
X12309958Y-13506827D01*
X12319482Y-13497304D01*
X12319482Y-13516351D01*
X12452815Y-13316351D02*
X12471863Y-13316351D01*
X12490911Y-13325875D01*
X12500435Y-13335399D01*
X12509958Y-13354446D01*
X12519482Y-13392542D01*
X12519482Y-13440161D01*
X12509958Y-13478256D01*
X12500435Y-13497304D01*
X12490911Y-13506827D01*
X12471863Y-13516351D01*
X12452815Y-13516351D01*
X12433768Y-13506827D01*
X12424244Y-13497304D01*
X12414720Y-13478256D01*
X12405196Y-13440161D01*
X12405196Y-13392542D01*
X12414720Y-13354446D01*
X12424244Y-13335399D01*
X12433768Y-13325875D01*
X12452815Y-13316351D01*
X12690911Y-13383018D02*
X12690911Y-13516351D01*
X12643292Y-13306827D02*
X12595673Y-13449685D01*
X12719482Y-13449685D01*
X12833768Y-13316351D02*
X12852815Y-13316351D01*
X12871863Y-13325875D01*
X12881387Y-13335399D01*
X12890911Y-13354446D01*
X12900435Y-13392542D01*
X12900435Y-13440161D01*
X12890911Y-13478256D01*
X12881387Y-13497304D01*
X12871863Y-13506827D01*
X12852815Y-13516351D01*
X12833768Y-13516351D01*
X12814720Y-13506827D01*
X12805196Y-13497304D01*
X12795673Y-13478256D01*
X12786149Y-13440161D01*
X12786149Y-13392542D01*
X12795673Y-13354446D01*
X12805196Y-13335399D01*
X12814720Y-13325875D01*
X12833768Y-13316351D01*
X13024244Y-13316351D02*
X13043292Y-13316351D01*
X13062339Y-13325875D01*
X13071863Y-13335399D01*
X13081387Y-13354446D01*
X13090911Y-13392542D01*
X13090911Y-13440161D01*
X13081387Y-13478256D01*
X13071863Y-13497304D01*
X13062339Y-13506827D01*
X13043292Y-13516351D01*
X13024244Y-13516351D01*
X13005196Y-13506827D01*
X12995673Y-13497304D01*
X12986149Y-13478256D01*
X12976625Y-13440161D01*
X12976625Y-13392542D01*
X12986149Y-13354446D01*
X12995673Y-13335399D01*
X13005196Y-13325875D01*
X13024244Y-13316351D01*
X13167101Y-13316351D02*
X13167101Y-13354446D01*
X13243292Y-13316351D02*
X13243292Y-13354446D01*
X13538530Y-13592542D02*
X13529006Y-13583018D01*
X13509958Y-13554446D01*
X13500435Y-13535399D01*
X13490911Y-13506827D01*
X13481387Y-13459208D01*
X13481387Y-13421113D01*
X13490911Y-13373494D01*
X13500435Y-13344923D01*
X13509958Y-13325875D01*
X13529006Y-13297304D01*
X13538530Y-13287780D01*
X13643292Y-13402065D02*
X13624244Y-13392542D01*
X13614720Y-13383018D01*
X13605196Y-13363970D01*
X13605196Y-13354446D01*
X13614720Y-13335399D01*
X13624244Y-13325875D01*
X13643292Y-13316351D01*
X13681387Y-13316351D01*
X13700435Y-13325875D01*
X13709958Y-13335399D01*
X13719482Y-13354446D01*
X13719482Y-13363970D01*
X13709958Y-13383018D01*
X13700435Y-13392542D01*
X13681387Y-13402065D01*
X13643292Y-13402065D01*
X13624244Y-13411589D01*
X13614720Y-13421113D01*
X13605196Y-13440161D01*
X13605196Y-13478256D01*
X13614720Y-13497304D01*
X13624244Y-13506827D01*
X13643292Y-13516351D01*
X13681387Y-13516351D01*
X13700435Y-13506827D01*
X13709958Y-13497304D01*
X13719482Y-13478256D01*
X13719482Y-13440161D01*
X13709958Y-13421113D01*
X13700435Y-13411589D01*
X13681387Y-13402065D01*
X13957577Y-13516351D02*
X13957577Y-13316351D01*
X14043292Y-13516351D02*
X14043292Y-13411589D01*
X14033768Y-13392542D01*
X14014720Y-13383018D01*
X13986149Y-13383018D01*
X13967101Y-13392542D01*
X13957577Y-13402065D01*
X14167101Y-13516351D02*
X14148054Y-13506827D01*
X14138530Y-13497304D01*
X14129006Y-13478256D01*
X14129006Y-13421113D01*
X14138530Y-13402065D01*
X14148054Y-13392542D01*
X14167101Y-13383018D01*
X14195673Y-13383018D01*
X14214720Y-13392542D01*
X14224244Y-13402065D01*
X14233768Y-13421113D01*
X14233768Y-13478256D01*
X14224244Y-13497304D01*
X14214720Y-13506827D01*
X14195673Y-13516351D01*
X14167101Y-13516351D01*
X14348054Y-13516351D02*
X14329006Y-13506827D01*
X14319482Y-13487780D01*
X14319482Y-13316351D01*
X14500435Y-13506827D02*
X14481387Y-13516351D01*
X14443292Y-13516351D01*
X14424244Y-13506827D01*
X14414720Y-13487780D01*
X14414720Y-13411589D01*
X14424244Y-13392542D01*
X14443292Y-13383018D01*
X14481387Y-13383018D01*
X14500435Y-13392542D01*
X14509958Y-13411589D01*
X14509958Y-13430637D01*
X14414720Y-13449685D01*
X14586149Y-13506827D02*
X14605196Y-13516351D01*
X14643292Y-13516351D01*
X14662339Y-13506827D01*
X14671863Y-13487780D01*
X14671863Y-13478256D01*
X14662339Y-13459208D01*
X14643292Y-13449685D01*
X14614720Y-13449685D01*
X14595673Y-13440161D01*
X14586149Y-13421113D01*
X14586149Y-13411589D01*
X14595673Y-13392542D01*
X14614720Y-13383018D01*
X14643292Y-13383018D01*
X14662339Y-13392542D01*
X14738530Y-13592542D02*
X14748054Y-13583018D01*
X14767101Y-13554446D01*
X14776625Y-13535399D01*
X14786149Y-13506827D01*
X14795673Y-13459208D01*
X14795673Y-13421113D01*
X14786149Y-13373494D01*
X14776625Y-13344923D01*
X14767101Y-13325875D01*
X14748054Y-13297304D01*
X14738530Y-13287780D01*
D16*
X9911625Y-13744875D02*
X9966625Y-13689875D01*
X9911625Y-13634875D01*
X9856625Y-13689875D01*
X9911625Y-13744875D01*
D11*
X10329006Y-13780351D02*
X10214720Y-13780351D01*
X10271863Y-13780351D02*
X10271863Y-13580351D01*
X10252816Y-13608923D01*
X10233768Y-13627970D01*
X10214720Y-13637494D01*
X10414720Y-13761304D02*
X10424244Y-13770827D01*
X10414720Y-13780351D01*
X10405197Y-13770827D01*
X10414720Y-13761304D01*
X10414720Y-13780351D01*
X10614720Y-13780351D02*
X10500435Y-13780351D01*
X10557577Y-13780351D02*
X10557577Y-13580351D01*
X10538530Y-13608923D01*
X10519482Y-13627970D01*
X10500435Y-13637494D01*
X10738530Y-13580351D02*
X10757577Y-13580351D01*
X10776625Y-13589875D01*
X10786149Y-13599399D01*
X10795673Y-13618446D01*
X10805197Y-13656542D01*
X10805197Y-13704161D01*
X10795673Y-13742256D01*
X10786149Y-13761304D01*
X10776625Y-13770827D01*
X10757577Y-13780351D01*
X10738530Y-13780351D01*
X10719482Y-13770827D01*
X10709958Y-13761304D01*
X10700435Y-13742256D01*
X10690911Y-13704161D01*
X10690911Y-13656542D01*
X10700435Y-13618446D01*
X10709958Y-13599399D01*
X10719482Y-13589875D01*
X10738530Y-13580351D01*
X10929006Y-13580351D02*
X10948054Y-13580351D01*
X10967101Y-13589875D01*
X10976625Y-13599399D01*
X10986149Y-13618446D01*
X10995673Y-13656542D01*
X10995673Y-13704161D01*
X10986149Y-13742256D01*
X10976625Y-13761304D01*
X10967101Y-13770827D01*
X10948054Y-13780351D01*
X10929006Y-13780351D01*
X10909958Y-13770827D01*
X10900435Y-13761304D01*
X10890911Y-13742256D01*
X10881387Y-13704161D01*
X10881387Y-13656542D01*
X10890911Y-13618446D01*
X10900435Y-13599399D01*
X10909958Y-13589875D01*
X10929006Y-13580351D01*
X11081387Y-13780351D02*
X11081387Y-13647018D01*
X11081387Y-13666065D02*
X11090911Y-13656542D01*
X11109958Y-13647018D01*
X11138530Y-13647018D01*
X11157577Y-13656542D01*
X11167101Y-13675589D01*
X11167101Y-13780351D01*
X11167101Y-13675589D02*
X11176625Y-13656542D01*
X11195673Y-13647018D01*
X11224244Y-13647018D01*
X11243292Y-13656542D01*
X11252815Y-13675589D01*
X11252815Y-13780351D01*
X11348054Y-13780351D02*
X11348054Y-13647018D01*
X11348054Y-13666065D02*
X11357577Y-13656542D01*
X11376625Y-13647018D01*
X11405196Y-13647018D01*
X11424244Y-13656542D01*
X11433768Y-13675589D01*
X11433768Y-13780351D01*
X11433768Y-13675589D02*
X11443292Y-13656542D01*
X11462339Y-13647018D01*
X11490911Y-13647018D01*
X11509958Y-13656542D01*
X11519482Y-13675589D01*
X11519482Y-13780351D01*
X11909958Y-13570827D02*
X11738530Y-13827970D01*
X12167101Y-13580351D02*
X12186149Y-13580351D01*
X12205196Y-13589875D01*
X12214720Y-13599399D01*
X12224244Y-13618446D01*
X12233768Y-13656542D01*
X12233768Y-13704161D01*
X12224244Y-13742256D01*
X12214720Y-13761304D01*
X12205196Y-13770827D01*
X12186149Y-13780351D01*
X12167101Y-13780351D01*
X12148054Y-13770827D01*
X12138530Y-13761304D01*
X12129006Y-13742256D01*
X12119482Y-13704161D01*
X12119482Y-13656542D01*
X12129006Y-13618446D01*
X12138530Y-13599399D01*
X12148054Y-13589875D01*
X12167101Y-13580351D01*
X12319482Y-13761304D02*
X12329006Y-13770827D01*
X12319482Y-13780351D01*
X12309958Y-13770827D01*
X12319482Y-13761304D01*
X12319482Y-13780351D01*
X12452815Y-13580351D02*
X12471863Y-13580351D01*
X12490911Y-13589875D01*
X12500435Y-13599399D01*
X12509958Y-13618446D01*
X12519482Y-13656542D01*
X12519482Y-13704161D01*
X12509958Y-13742256D01*
X12500435Y-13761304D01*
X12490911Y-13770827D01*
X12471863Y-13780351D01*
X12452815Y-13780351D01*
X12433768Y-13770827D01*
X12424244Y-13761304D01*
X12414720Y-13742256D01*
X12405196Y-13704161D01*
X12405196Y-13656542D01*
X12414720Y-13618446D01*
X12424244Y-13599399D01*
X12433768Y-13589875D01*
X12452815Y-13580351D01*
X12690911Y-13647018D02*
X12690911Y-13780351D01*
X12643292Y-13570827D02*
X12595673Y-13713685D01*
X12719482Y-13713685D01*
X12776625Y-13580351D02*
X12900435Y-13580351D01*
X12833768Y-13656542D01*
X12862339Y-13656542D01*
X12881387Y-13666065D01*
X12890911Y-13675589D01*
X12900435Y-13694637D01*
X12900435Y-13742256D01*
X12890911Y-13761304D01*
X12881387Y-13770827D01*
X12862339Y-13780351D01*
X12805196Y-13780351D01*
X12786149Y-13770827D01*
X12776625Y-13761304D01*
X12967101Y-13580351D02*
X13090911Y-13580351D01*
X13024244Y-13656542D01*
X13052815Y-13656542D01*
X13071863Y-13666065D01*
X13081387Y-13675589D01*
X13090911Y-13694637D01*
X13090911Y-13742256D01*
X13081387Y-13761304D01*
X13071863Y-13770827D01*
X13052815Y-13780351D01*
X12995673Y-13780351D01*
X12976625Y-13770827D01*
X12967101Y-13761304D01*
X13167101Y-13580351D02*
X13167101Y-13618446D01*
X13243292Y-13580351D02*
X13243292Y-13618446D01*
X13538530Y-13856542D02*
X13529006Y-13847018D01*
X13509958Y-13818446D01*
X13500435Y-13799399D01*
X13490911Y-13770827D01*
X13481387Y-13723208D01*
X13481387Y-13685113D01*
X13490911Y-13637494D01*
X13500435Y-13608923D01*
X13509958Y-13589875D01*
X13529006Y-13561304D01*
X13538530Y-13551780D01*
X13595673Y-13580351D02*
X13719482Y-13580351D01*
X13652815Y-13656542D01*
X13681387Y-13656542D01*
X13700435Y-13666065D01*
X13709958Y-13675589D01*
X13719482Y-13694637D01*
X13719482Y-13742256D01*
X13709958Y-13761304D01*
X13700435Y-13770827D01*
X13681387Y-13780351D01*
X13624244Y-13780351D01*
X13605196Y-13770827D01*
X13595673Y-13761304D01*
X13957577Y-13780351D02*
X13957577Y-13580351D01*
X14043292Y-13780351D02*
X14043292Y-13675589D01*
X14033768Y-13656542D01*
X14014720Y-13647018D01*
X13986149Y-13647018D01*
X13967101Y-13656542D01*
X13957577Y-13666065D01*
X14167101Y-13780351D02*
X14148054Y-13770827D01*
X14138530Y-13761304D01*
X14129006Y-13742256D01*
X14129006Y-13685113D01*
X14138530Y-13666065D01*
X14148054Y-13656542D01*
X14167101Y-13647018D01*
X14195673Y-13647018D01*
X14214720Y-13656542D01*
X14224244Y-13666065D01*
X14233768Y-13685113D01*
X14233768Y-13742256D01*
X14224244Y-13761304D01*
X14214720Y-13770827D01*
X14195673Y-13780351D01*
X14167101Y-13780351D01*
X14348054Y-13780351D02*
X14329006Y-13770827D01*
X14319482Y-13751780D01*
X14319482Y-13580351D01*
X14500435Y-13770827D02*
X14481387Y-13780351D01*
X14443292Y-13780351D01*
X14424244Y-13770827D01*
X14414720Y-13751780D01*
X14414720Y-13675589D01*
X14424244Y-13656542D01*
X14443292Y-13647018D01*
X14481387Y-13647018D01*
X14500435Y-13656542D01*
X14509958Y-13675589D01*
X14509958Y-13694637D01*
X14414720Y-13713685D01*
X14586149Y-13770827D02*
X14605196Y-13780351D01*
X14643292Y-13780351D01*
X14662339Y-13770827D01*
X14671863Y-13751780D01*
X14671863Y-13742256D01*
X14662339Y-13723208D01*
X14643292Y-13713685D01*
X14614720Y-13713685D01*
X14595673Y-13704161D01*
X14586149Y-13685113D01*
X14586149Y-13675589D01*
X14595673Y-13656542D01*
X14614720Y-13647018D01*
X14643292Y-13647018D01*
X14662339Y-13656542D01*
X14738530Y-13856542D02*
X14748054Y-13847018D01*
X14767101Y-13818446D01*
X14776625Y-13799399D01*
X14786149Y-13770827D01*
X14795673Y-13723208D01*
X14795673Y-13685113D01*
X14786149Y-13637494D01*
X14776625Y-13608923D01*
X14767101Y-13589875D01*
X14748054Y-13561304D01*
X14738530Y-13551780D01*
X9766625Y-13853875D02*
X9966625Y-14053875D01*
X9966625Y-13853875D02*
X9766625Y-14053875D01*
X9966625Y-13953875D02*
G75*
G03*
X9966625Y-13953875I-100000J0D01*
G01*
X10214720Y-13863399D02*
X10224244Y-13853875D01*
X10243292Y-13844351D01*
X10290911Y-13844351D01*
X10309958Y-13853875D01*
X10319482Y-13863399D01*
X10329006Y-13882446D01*
X10329006Y-13901494D01*
X10319482Y-13930065D01*
X10205197Y-14044351D01*
X10329006Y-14044351D01*
X10414720Y-14025304D02*
X10424244Y-14034827D01*
X10414720Y-14044351D01*
X10405197Y-14034827D01*
X10414720Y-14025304D01*
X10414720Y-14044351D01*
X10500435Y-13863399D02*
X10509958Y-13853875D01*
X10529006Y-13844351D01*
X10576625Y-13844351D01*
X10595673Y-13853875D01*
X10605197Y-13863399D01*
X10614720Y-13882446D01*
X10614720Y-13901494D01*
X10605197Y-13930065D01*
X10490911Y-14044351D01*
X10614720Y-14044351D01*
X10738530Y-13844351D02*
X10757577Y-13844351D01*
X10776625Y-13853875D01*
X10786149Y-13863399D01*
X10795673Y-13882446D01*
X10805197Y-13920542D01*
X10805197Y-13968161D01*
X10795673Y-14006256D01*
X10786149Y-14025304D01*
X10776625Y-14034827D01*
X10757577Y-14044351D01*
X10738530Y-14044351D01*
X10719482Y-14034827D01*
X10709958Y-14025304D01*
X10700435Y-14006256D01*
X10690911Y-13968161D01*
X10690911Y-13920542D01*
X10700435Y-13882446D01*
X10709958Y-13863399D01*
X10719482Y-13853875D01*
X10738530Y-13844351D01*
X10929006Y-13844351D02*
X10948054Y-13844351D01*
X10967101Y-13853875D01*
X10976625Y-13863399D01*
X10986149Y-13882446D01*
X10995673Y-13920542D01*
X10995673Y-13968161D01*
X10986149Y-14006256D01*
X10976625Y-14025304D01*
X10967101Y-14034827D01*
X10948054Y-14044351D01*
X10929006Y-14044351D01*
X10909958Y-14034827D01*
X10900435Y-14025304D01*
X10890911Y-14006256D01*
X10881387Y-13968161D01*
X10881387Y-13920542D01*
X10890911Y-13882446D01*
X10900435Y-13863399D01*
X10909958Y-13853875D01*
X10929006Y-13844351D01*
X11081387Y-14044351D02*
X11081387Y-13911018D01*
X11081387Y-13930065D02*
X11090911Y-13920542D01*
X11109958Y-13911018D01*
X11138530Y-13911018D01*
X11157577Y-13920542D01*
X11167101Y-13939589D01*
X11167101Y-14044351D01*
X11167101Y-13939589D02*
X11176625Y-13920542D01*
X11195673Y-13911018D01*
X11224244Y-13911018D01*
X11243292Y-13920542D01*
X11252815Y-13939589D01*
X11252815Y-14044351D01*
X11348054Y-14044351D02*
X11348054Y-13911018D01*
X11348054Y-13930065D02*
X11357577Y-13920542D01*
X11376625Y-13911018D01*
X11405196Y-13911018D01*
X11424244Y-13920542D01*
X11433768Y-13939589D01*
X11433768Y-14044351D01*
X11433768Y-13939589D02*
X11443292Y-13920542D01*
X11462339Y-13911018D01*
X11490911Y-13911018D01*
X11509958Y-13920542D01*
X11519482Y-13939589D01*
X11519482Y-14044351D01*
X11909958Y-13834827D02*
X11738530Y-14091970D01*
X12167101Y-13844351D02*
X12186149Y-13844351D01*
X12205196Y-13853875D01*
X12214720Y-13863399D01*
X12224244Y-13882446D01*
X12233768Y-13920542D01*
X12233768Y-13968161D01*
X12224244Y-14006256D01*
X12214720Y-14025304D01*
X12205196Y-14034827D01*
X12186149Y-14044351D01*
X12167101Y-14044351D01*
X12148054Y-14034827D01*
X12138530Y-14025304D01*
X12129006Y-14006256D01*
X12119482Y-13968161D01*
X12119482Y-13920542D01*
X12129006Y-13882446D01*
X12138530Y-13863399D01*
X12148054Y-13853875D01*
X12167101Y-13844351D01*
X12319482Y-14025304D02*
X12329006Y-14034827D01*
X12319482Y-14044351D01*
X12309958Y-14034827D01*
X12319482Y-14025304D01*
X12319482Y-14044351D01*
X12452815Y-13844351D02*
X12471863Y-13844351D01*
X12490911Y-13853875D01*
X12500435Y-13863399D01*
X12509958Y-13882446D01*
X12519482Y-13920542D01*
X12519482Y-13968161D01*
X12509958Y-14006256D01*
X12500435Y-14025304D01*
X12490911Y-14034827D01*
X12471863Y-14044351D01*
X12452815Y-14044351D01*
X12433768Y-14034827D01*
X12424244Y-14025304D01*
X12414720Y-14006256D01*
X12405196Y-13968161D01*
X12405196Y-13920542D01*
X12414720Y-13882446D01*
X12424244Y-13863399D01*
X12433768Y-13853875D01*
X12452815Y-13844351D01*
X12633768Y-13930065D02*
X12614720Y-13920542D01*
X12605196Y-13911018D01*
X12595673Y-13891970D01*
X12595673Y-13882446D01*
X12605196Y-13863399D01*
X12614720Y-13853875D01*
X12633768Y-13844351D01*
X12671863Y-13844351D01*
X12690911Y-13853875D01*
X12700435Y-13863399D01*
X12709958Y-13882446D01*
X12709958Y-13891970D01*
X12700435Y-13911018D01*
X12690911Y-13920542D01*
X12671863Y-13930065D01*
X12633768Y-13930065D01*
X12614720Y-13939589D01*
X12605196Y-13949113D01*
X12595673Y-13968161D01*
X12595673Y-14006256D01*
X12605196Y-14025304D01*
X12614720Y-14034827D01*
X12633768Y-14044351D01*
X12671863Y-14044351D01*
X12690911Y-14034827D01*
X12700435Y-14025304D01*
X12709958Y-14006256D01*
X12709958Y-13968161D01*
X12700435Y-13949113D01*
X12690911Y-13939589D01*
X12671863Y-13930065D01*
X12881387Y-13844351D02*
X12843292Y-13844351D01*
X12824244Y-13853875D01*
X12814720Y-13863399D01*
X12795673Y-13891970D01*
X12786149Y-13930065D01*
X12786149Y-14006256D01*
X12795673Y-14025304D01*
X12805196Y-14034827D01*
X12824244Y-14044351D01*
X12862339Y-14044351D01*
X12881387Y-14034827D01*
X12890911Y-14025304D01*
X12900435Y-14006256D01*
X12900435Y-13958637D01*
X12890911Y-13939589D01*
X12881387Y-13930065D01*
X12862339Y-13920542D01*
X12824244Y-13920542D01*
X12805196Y-13930065D01*
X12795673Y-13939589D01*
X12786149Y-13958637D01*
X13071863Y-13844351D02*
X13033768Y-13844351D01*
X13014720Y-13853875D01*
X13005196Y-13863399D01*
X12986149Y-13891970D01*
X12976625Y-13930065D01*
X12976625Y-14006256D01*
X12986149Y-14025304D01*
X12995673Y-14034827D01*
X13014720Y-14044351D01*
X13052815Y-14044351D01*
X13071863Y-14034827D01*
X13081387Y-14025304D01*
X13090911Y-14006256D01*
X13090911Y-13958637D01*
X13081387Y-13939589D01*
X13071863Y-13930065D01*
X13052815Y-13920542D01*
X13014720Y-13920542D01*
X12995673Y-13930065D01*
X12986149Y-13939589D01*
X12976625Y-13958637D01*
X13167101Y-13844351D02*
X13167101Y-13882446D01*
X13243292Y-13844351D02*
X13243292Y-13882446D01*
X13538530Y-14120542D02*
X13529006Y-14111018D01*
X13509958Y-14082446D01*
X13500435Y-14063399D01*
X13490911Y-14034827D01*
X13481387Y-13987208D01*
X13481387Y-13949113D01*
X13490911Y-13901494D01*
X13500435Y-13872923D01*
X13509958Y-13853875D01*
X13529006Y-13825304D01*
X13538530Y-13815780D01*
X13700435Y-13911018D02*
X13700435Y-14044351D01*
X13652815Y-13834827D02*
X13605196Y-13977685D01*
X13729006Y-13977685D01*
X13957577Y-14044351D02*
X13957577Y-13844351D01*
X14043292Y-14044351D02*
X14043292Y-13939589D01*
X14033768Y-13920542D01*
X14014720Y-13911018D01*
X13986149Y-13911018D01*
X13967101Y-13920542D01*
X13957577Y-13930065D01*
X14167101Y-14044351D02*
X14148054Y-14034827D01*
X14138530Y-14025304D01*
X14129006Y-14006256D01*
X14129006Y-13949113D01*
X14138530Y-13930065D01*
X14148054Y-13920542D01*
X14167101Y-13911018D01*
X14195673Y-13911018D01*
X14214720Y-13920542D01*
X14224244Y-13930065D01*
X14233768Y-13949113D01*
X14233768Y-14006256D01*
X14224244Y-14025304D01*
X14214720Y-14034827D01*
X14195673Y-14044351D01*
X14167101Y-14044351D01*
X14348054Y-14044351D02*
X14329006Y-14034827D01*
X14319482Y-14015780D01*
X14319482Y-13844351D01*
X14500435Y-14034827D02*
X14481387Y-14044351D01*
X14443292Y-14044351D01*
X14424244Y-14034827D01*
X14414720Y-14015780D01*
X14414720Y-13939589D01*
X14424244Y-13920542D01*
X14443292Y-13911018D01*
X14481387Y-13911018D01*
X14500435Y-13920542D01*
X14509958Y-13939589D01*
X14509958Y-13958637D01*
X14414720Y-13977685D01*
X14586149Y-14034827D02*
X14605196Y-14044351D01*
X14643292Y-14044351D01*
X14662339Y-14034827D01*
X14671863Y-14015780D01*
X14671863Y-14006256D01*
X14662339Y-13987208D01*
X14643292Y-13977685D01*
X14614720Y-13977685D01*
X14595673Y-13968161D01*
X14586149Y-13949113D01*
X14586149Y-13939589D01*
X14595673Y-13920542D01*
X14614720Y-13911018D01*
X14643292Y-13911018D01*
X14662339Y-13920542D01*
X14738530Y-14120542D02*
X14748054Y-14111018D01*
X14767101Y-14082446D01*
X14776625Y-14063399D01*
X14786149Y-14034827D01*
X14795673Y-13987208D01*
X14795673Y-13949113D01*
X14786149Y-13901494D01*
X14776625Y-13872923D01*
X14767101Y-13853875D01*
X14748054Y-13825304D01*
X14738530Y-13815780D01*
M02*
