%TF.GenerationSoftware,KiCad,Pcbnew,(6.0.7)*%
%TF.CreationDate,2022-09-15T17:32:33-05:00*%
%TF.ProjectId,Simplified01,53696d70-6c69-4666-9965-6430312e6b69,rev?*%
%TF.SameCoordinates,Original*%
%TF.FileFunction,Drillmap*%
%TF.FilePolarity,Positive*%
%FSLAX45Y45*%
G04 Gerber Fmt 4.5, Leading zero omitted, Abs format (unit mm)*
G04 Created by KiCad (PCBNEW (6.0.7)) date 2022-09-15 17:32:33*
%MOMM*%
%LPD*%
G01*
G04 APERTURE LIST*
%ADD10C,0.050000*%
%ADD11C,0.200000*%
G04 APERTURE END LIST*
D10*
X9969125Y-7038375D02*
X16446125Y-7038375D01*
X16446125Y-11991375D02*
X9969125Y-11991375D01*
X16446125Y-7038375D02*
X16446125Y-11991375D01*
X9969125Y-11991375D02*
X9969125Y-7038375D01*
D11*
X10224244Y-12304351D02*
X10224244Y-12104351D01*
X10271863Y-12104351D01*
X10300435Y-12113875D01*
X10319482Y-12132923D01*
X10329006Y-12151970D01*
X10338530Y-12190065D01*
X10338530Y-12218637D01*
X10329006Y-12256732D01*
X10319482Y-12275780D01*
X10300435Y-12294827D01*
X10271863Y-12304351D01*
X10224244Y-12304351D01*
X10424244Y-12304351D02*
X10424244Y-12171018D01*
X10424244Y-12209113D02*
X10433768Y-12190065D01*
X10443292Y-12180542D01*
X10462339Y-12171018D01*
X10481387Y-12171018D01*
X10548054Y-12304351D02*
X10548054Y-12171018D01*
X10548054Y-12104351D02*
X10538530Y-12113875D01*
X10548054Y-12123399D01*
X10557577Y-12113875D01*
X10548054Y-12104351D01*
X10548054Y-12123399D01*
X10671863Y-12304351D02*
X10652816Y-12294827D01*
X10643292Y-12275780D01*
X10643292Y-12104351D01*
X10776625Y-12304351D02*
X10757577Y-12294827D01*
X10748054Y-12275780D01*
X10748054Y-12104351D01*
X11005197Y-12304351D02*
X11005197Y-12104351D01*
X11071863Y-12247208D01*
X11138530Y-12104351D01*
X11138530Y-12304351D01*
X11319482Y-12304351D02*
X11319482Y-12199589D01*
X11309958Y-12180542D01*
X11290911Y-12171018D01*
X11252815Y-12171018D01*
X11233768Y-12180542D01*
X11319482Y-12294827D02*
X11300435Y-12304351D01*
X11252815Y-12304351D01*
X11233768Y-12294827D01*
X11224244Y-12275780D01*
X11224244Y-12256732D01*
X11233768Y-12237685D01*
X11252815Y-12228161D01*
X11300435Y-12228161D01*
X11319482Y-12218637D01*
X11414720Y-12171018D02*
X11414720Y-12371018D01*
X11414720Y-12180542D02*
X11433768Y-12171018D01*
X11471863Y-12171018D01*
X11490911Y-12180542D01*
X11500435Y-12190065D01*
X11509958Y-12209113D01*
X11509958Y-12266256D01*
X11500435Y-12285304D01*
X11490911Y-12294827D01*
X11471863Y-12304351D01*
X11433768Y-12304351D01*
X11414720Y-12294827D01*
X11595673Y-12285304D02*
X11605196Y-12294827D01*
X11595673Y-12304351D01*
X11586149Y-12294827D01*
X11595673Y-12285304D01*
X11595673Y-12304351D01*
X11595673Y-12180542D02*
X11605196Y-12190065D01*
X11595673Y-12199589D01*
X11586149Y-12190065D01*
X11595673Y-12180542D01*
X11595673Y-12199589D01*
M02*
