%TF.GenerationSoftware,KiCad,Pcbnew,(5.1.5)-3*%
%TF.CreationDate,2020-09-10T16:10:11-05:00*%
%TF.ProjectId,UVLight,55564c69-6768-4742-9e6b-696361645f70,rev?*%
%TF.SameCoordinates,Original*%
%TF.FileFunction,Soldermask,Top*%
%TF.FilePolarity,Negative*%
%FSLAX46Y46*%
G04 Gerber Fmt 4.6, Leading zero omitted, Abs format (unit mm)*
G04 Created by KiCad (PCBNEW (5.1.5)-3) date 2020-09-10 16:10:11*
%MOMM*%
%LPD*%
G04 APERTURE LIST*
%ADD10C,0.050000*%
%ADD11C,0.100000*%
G04 APERTURE END LIST*
D10*
X95885000Y-140462000D02*
X95885000Y-73660000D01*
X161290000Y-140462000D02*
X95885000Y-140462000D01*
X161290000Y-73660000D02*
X161290000Y-140462000D01*
X95885000Y-73660000D02*
X161290000Y-73660000D01*
D11*
G36*
X100260756Y-134979798D02*
G01*
X100367079Y-135000947D01*
X100667542Y-135125403D01*
X100937951Y-135306085D01*
X101167915Y-135536049D01*
X101306169Y-135742960D01*
X101348598Y-135806460D01*
X101473053Y-136106922D01*
X101512219Y-136303819D01*
X101536500Y-136425891D01*
X101536500Y-136751109D01*
X101473053Y-137070079D01*
X101348597Y-137370542D01*
X101167915Y-137640951D01*
X100937951Y-137870915D01*
X100667542Y-138051597D01*
X100367079Y-138176053D01*
X100260756Y-138197202D01*
X100048111Y-138239500D01*
X99722889Y-138239500D01*
X99510244Y-138197202D01*
X99403921Y-138176053D01*
X99103458Y-138051597D01*
X98833049Y-137870915D01*
X98603085Y-137640951D01*
X98422403Y-137370542D01*
X98297947Y-137070079D01*
X98234500Y-136751109D01*
X98234500Y-136425891D01*
X98258782Y-136303819D01*
X98297947Y-136106922D01*
X98422402Y-135806460D01*
X98464831Y-135742960D01*
X98603085Y-135536049D01*
X98833049Y-135306085D01*
X99103458Y-135125403D01*
X99403921Y-135000947D01*
X99510244Y-134979798D01*
X99722889Y-134937500D01*
X100048111Y-134937500D01*
X100260756Y-134979798D01*
G37*
G36*
X157664756Y-134916298D02*
G01*
X157771079Y-134937447D01*
X158071542Y-135061903D01*
X158341951Y-135242585D01*
X158571915Y-135472549D01*
X158752597Y-135742958D01*
X158752598Y-135742960D01*
X158877053Y-136043422D01*
X158928850Y-136303819D01*
X158940500Y-136362391D01*
X158940500Y-136687609D01*
X158877053Y-137006579D01*
X158752597Y-137307042D01*
X158571915Y-137577451D01*
X158341951Y-137807415D01*
X158071542Y-137988097D01*
X157771079Y-138112553D01*
X157664756Y-138133702D01*
X157452111Y-138176000D01*
X157126889Y-138176000D01*
X156914244Y-138133702D01*
X156807921Y-138112553D01*
X156507458Y-137988097D01*
X156237049Y-137807415D01*
X156007085Y-137577451D01*
X155826403Y-137307042D01*
X155701947Y-137006579D01*
X155638500Y-136687609D01*
X155638500Y-136362391D01*
X155650151Y-136303819D01*
X155701947Y-136043422D01*
X155826402Y-135742960D01*
X155826403Y-135742958D01*
X156007085Y-135472549D01*
X156237049Y-135242585D01*
X156507458Y-135061903D01*
X156807921Y-134937447D01*
X156914244Y-134916298D01*
X157126889Y-134874000D01*
X157452111Y-134874000D01*
X157664756Y-134916298D01*
G37*
G36*
X136466562Y-134460181D02*
G01*
X136501481Y-134470774D01*
X136533663Y-134487976D01*
X136561873Y-134511127D01*
X136585024Y-134539337D01*
X136602226Y-134571519D01*
X136612819Y-134606438D01*
X136617000Y-134648895D01*
X136617000Y-136115105D01*
X136612819Y-136157562D01*
X136602226Y-136192481D01*
X136585024Y-136224663D01*
X136561873Y-136252873D01*
X136533663Y-136276024D01*
X136501481Y-136293226D01*
X136466562Y-136303819D01*
X136424105Y-136308000D01*
X135282895Y-136308000D01*
X135240438Y-136303819D01*
X135205519Y-136293226D01*
X135173337Y-136276024D01*
X135145127Y-136252873D01*
X135121976Y-136224663D01*
X135104774Y-136192481D01*
X135094181Y-136157562D01*
X135090000Y-136115105D01*
X135090000Y-134648895D01*
X135094181Y-134606438D01*
X135104774Y-134571519D01*
X135121976Y-134539337D01*
X135145127Y-134511127D01*
X135173337Y-134487976D01*
X135205519Y-134470774D01*
X135240438Y-134460181D01*
X135282895Y-134456000D01*
X136424105Y-134456000D01*
X136466562Y-134460181D01*
G37*
G36*
X133491562Y-134460181D02*
G01*
X133526481Y-134470774D01*
X133558663Y-134487976D01*
X133586873Y-134511127D01*
X133610024Y-134539337D01*
X133627226Y-134571519D01*
X133637819Y-134606438D01*
X133642000Y-134648895D01*
X133642000Y-136115105D01*
X133637819Y-136157562D01*
X133627226Y-136192481D01*
X133610024Y-136224663D01*
X133586873Y-136252873D01*
X133558663Y-136276024D01*
X133526481Y-136293226D01*
X133491562Y-136303819D01*
X133449105Y-136308000D01*
X132307895Y-136308000D01*
X132265438Y-136303819D01*
X132230519Y-136293226D01*
X132198337Y-136276024D01*
X132170127Y-136252873D01*
X132146976Y-136224663D01*
X132129774Y-136192481D01*
X132119181Y-136157562D01*
X132115000Y-136115105D01*
X132115000Y-134648895D01*
X132119181Y-134606438D01*
X132129774Y-134571519D01*
X132146976Y-134539337D01*
X132170127Y-134511127D01*
X132198337Y-134487976D01*
X132230519Y-134470774D01*
X132265438Y-134460181D01*
X132307895Y-134456000D01*
X133449105Y-134456000D01*
X133491562Y-134460181D01*
G37*
G36*
X122505562Y-133316181D02*
G01*
X122540481Y-133326774D01*
X122572663Y-133343976D01*
X122600873Y-133367127D01*
X122624024Y-133395337D01*
X122641226Y-133427519D01*
X122651819Y-133462438D01*
X122656000Y-133504895D01*
X122656000Y-134646105D01*
X122651819Y-134688562D01*
X122641226Y-134723481D01*
X122624024Y-134755663D01*
X122600873Y-134783873D01*
X122572663Y-134807024D01*
X122540481Y-134824226D01*
X122505562Y-134834819D01*
X122463105Y-134839000D01*
X120996895Y-134839000D01*
X120954438Y-134834819D01*
X120919519Y-134824226D01*
X120887337Y-134807024D01*
X120859127Y-134783873D01*
X120835976Y-134755663D01*
X120818774Y-134723481D01*
X120808181Y-134688562D01*
X120804000Y-134646105D01*
X120804000Y-133504895D01*
X120808181Y-133462438D01*
X120818774Y-133427519D01*
X120835976Y-133395337D01*
X120859127Y-133367127D01*
X120887337Y-133343976D01*
X120919519Y-133326774D01*
X120954438Y-133316181D01*
X120996895Y-133312000D01*
X122463105Y-133312000D01*
X122505562Y-133316181D01*
G37*
G36*
X131141562Y-133316181D02*
G01*
X131176481Y-133326774D01*
X131208663Y-133343976D01*
X131236873Y-133367127D01*
X131260024Y-133395337D01*
X131277226Y-133427519D01*
X131287819Y-133462438D01*
X131292000Y-133504895D01*
X131292000Y-134646105D01*
X131287819Y-134688562D01*
X131277226Y-134723481D01*
X131260024Y-134755663D01*
X131236873Y-134783873D01*
X131208663Y-134807024D01*
X131176481Y-134824226D01*
X131141562Y-134834819D01*
X131099105Y-134839000D01*
X129632895Y-134839000D01*
X129590438Y-134834819D01*
X129555519Y-134824226D01*
X129523337Y-134807024D01*
X129495127Y-134783873D01*
X129471976Y-134755663D01*
X129454774Y-134723481D01*
X129444181Y-134688562D01*
X129440000Y-134646105D01*
X129440000Y-133504895D01*
X129444181Y-133462438D01*
X129454774Y-133427519D01*
X129471976Y-133395337D01*
X129495127Y-133367127D01*
X129523337Y-133343976D01*
X129555519Y-133326774D01*
X129590438Y-133316181D01*
X129632895Y-133312000D01*
X131099105Y-133312000D01*
X131141562Y-133316181D01*
G37*
G36*
X125933562Y-133316181D02*
G01*
X125968481Y-133326774D01*
X126000663Y-133343976D01*
X126028873Y-133367127D01*
X126052024Y-133395337D01*
X126069226Y-133427519D01*
X126079819Y-133462438D01*
X126084000Y-133504895D01*
X126084000Y-134646105D01*
X126079819Y-134688562D01*
X126069226Y-134723481D01*
X126052024Y-134755663D01*
X126028873Y-134783873D01*
X126000663Y-134807024D01*
X125968481Y-134824226D01*
X125933562Y-134834819D01*
X125891105Y-134839000D01*
X124424895Y-134839000D01*
X124382438Y-134834819D01*
X124347519Y-134824226D01*
X124315337Y-134807024D01*
X124287127Y-134783873D01*
X124263976Y-134755663D01*
X124246774Y-134723481D01*
X124236181Y-134688562D01*
X124232000Y-134646105D01*
X124232000Y-133504895D01*
X124236181Y-133462438D01*
X124246774Y-133427519D01*
X124263976Y-133395337D01*
X124287127Y-133367127D01*
X124315337Y-133343976D01*
X124347519Y-133326774D01*
X124382438Y-133316181D01*
X124424895Y-133312000D01*
X125891105Y-133312000D01*
X125933562Y-133316181D01*
G37*
G36*
X128537562Y-133316181D02*
G01*
X128572481Y-133326774D01*
X128604663Y-133343976D01*
X128632873Y-133367127D01*
X128656024Y-133395337D01*
X128673226Y-133427519D01*
X128683819Y-133462438D01*
X128688000Y-133504895D01*
X128688000Y-134646105D01*
X128683819Y-134688562D01*
X128673226Y-134723481D01*
X128656024Y-134755663D01*
X128632873Y-134783873D01*
X128604663Y-134807024D01*
X128572481Y-134824226D01*
X128537562Y-134834819D01*
X128495105Y-134839000D01*
X127028895Y-134839000D01*
X126986438Y-134834819D01*
X126951519Y-134824226D01*
X126919337Y-134807024D01*
X126891127Y-134783873D01*
X126867976Y-134755663D01*
X126850774Y-134723481D01*
X126840181Y-134688562D01*
X126836000Y-134646105D01*
X126836000Y-133504895D01*
X126840181Y-133462438D01*
X126850774Y-133427519D01*
X126867976Y-133395337D01*
X126891127Y-133367127D01*
X126919337Y-133343976D01*
X126951519Y-133326774D01*
X126986438Y-133316181D01*
X127028895Y-133312000D01*
X128495105Y-133312000D01*
X128537562Y-133316181D01*
G37*
G36*
X143450574Y-133462438D02*
G01*
X143531618Y-133470420D01*
X143622404Y-133497960D01*
X143654336Y-133507646D01*
X143767425Y-133568094D01*
X143866554Y-133649446D01*
X143947906Y-133748575D01*
X144008354Y-133861664D01*
X144008355Y-133861668D01*
X144045580Y-133984382D01*
X144058149Y-134112000D01*
X144045580Y-134239618D01*
X144018040Y-134330404D01*
X144008354Y-134362336D01*
X143947906Y-134475425D01*
X143866554Y-134574554D01*
X143767425Y-134655906D01*
X143654336Y-134716354D01*
X143630841Y-134723481D01*
X143531618Y-134753580D01*
X143467855Y-134759860D01*
X143435974Y-134763000D01*
X142822026Y-134763000D01*
X142790145Y-134759860D01*
X142726382Y-134753580D01*
X142627159Y-134723481D01*
X142603664Y-134716354D01*
X142490575Y-134655906D01*
X142391446Y-134574554D01*
X142310094Y-134475425D01*
X142249646Y-134362336D01*
X142239960Y-134330404D01*
X142212420Y-134239618D01*
X142199851Y-134112000D01*
X142212420Y-133984382D01*
X142249645Y-133861668D01*
X142249646Y-133861664D01*
X142310094Y-133748575D01*
X142391446Y-133649446D01*
X142490575Y-133568094D01*
X142603664Y-133507646D01*
X142635596Y-133497960D01*
X142726382Y-133470420D01*
X142807426Y-133462438D01*
X142822026Y-133461000D01*
X143435974Y-133461000D01*
X143450574Y-133462438D01*
G37*
G36*
X137689000Y-133241000D02*
G01*
X135587000Y-133241000D01*
X135587000Y-132439000D01*
X137689000Y-132439000D01*
X137689000Y-133241000D01*
G37*
G36*
X143467855Y-131464140D02*
G01*
X143531618Y-131470420D01*
X143622404Y-131497960D01*
X143654336Y-131507646D01*
X143767425Y-131568094D01*
X143866554Y-131649446D01*
X143947906Y-131748575D01*
X144008354Y-131861664D01*
X144018040Y-131893596D01*
X144045580Y-131984382D01*
X144058149Y-132112000D01*
X144045580Y-132239618D01*
X144029993Y-132291000D01*
X144008354Y-132362336D01*
X143947906Y-132475425D01*
X143866554Y-132574554D01*
X143767425Y-132655906D01*
X143654336Y-132716354D01*
X143622404Y-132726040D01*
X143531618Y-132753580D01*
X143467855Y-132759860D01*
X143435974Y-132763000D01*
X142822026Y-132763000D01*
X142790145Y-132759860D01*
X142726382Y-132753580D01*
X142635596Y-132726040D01*
X142603664Y-132716354D01*
X142490575Y-132655906D01*
X142391446Y-132574554D01*
X142310094Y-132475425D01*
X142249646Y-132362336D01*
X142228007Y-132291000D01*
X142212420Y-132239618D01*
X142199851Y-132112000D01*
X142212420Y-131984382D01*
X142239960Y-131893596D01*
X142249646Y-131861664D01*
X142310094Y-131748575D01*
X142391446Y-131649446D01*
X142490575Y-131568094D01*
X142603664Y-131507646D01*
X142635596Y-131497960D01*
X142726382Y-131470420D01*
X142790145Y-131464140D01*
X142822026Y-131461000D01*
X143435974Y-131461000D01*
X143467855Y-131464140D01*
G37*
G36*
X134289000Y-132291000D02*
G01*
X132187000Y-132291000D01*
X132187000Y-131489000D01*
X134289000Y-131489000D01*
X134289000Y-132291000D01*
G37*
G36*
X117734562Y-130396181D02*
G01*
X117769481Y-130406774D01*
X117801663Y-130423976D01*
X117829873Y-130447127D01*
X117853024Y-130475337D01*
X117870226Y-130507519D01*
X117880819Y-130542438D01*
X117885000Y-130584895D01*
X117885000Y-132051105D01*
X117880819Y-132093562D01*
X117870226Y-132128481D01*
X117853024Y-132160663D01*
X117829873Y-132188873D01*
X117801663Y-132212024D01*
X117769481Y-132229226D01*
X117734562Y-132239819D01*
X117692105Y-132244000D01*
X116550895Y-132244000D01*
X116508438Y-132239819D01*
X116473519Y-132229226D01*
X116441337Y-132212024D01*
X116413127Y-132188873D01*
X116389976Y-132160663D01*
X116372774Y-132128481D01*
X116362181Y-132093562D01*
X116358000Y-132051105D01*
X116358000Y-130584895D01*
X116362181Y-130542438D01*
X116372774Y-130507519D01*
X116389976Y-130475337D01*
X116413127Y-130447127D01*
X116441337Y-130423976D01*
X116473519Y-130406774D01*
X116508438Y-130396181D01*
X116550895Y-130392000D01*
X117692105Y-130392000D01*
X117734562Y-130396181D01*
G37*
G36*
X114759562Y-130396181D02*
G01*
X114794481Y-130406774D01*
X114826663Y-130423976D01*
X114854873Y-130447127D01*
X114878024Y-130475337D01*
X114895226Y-130507519D01*
X114905819Y-130542438D01*
X114910000Y-130584895D01*
X114910000Y-132051105D01*
X114905819Y-132093562D01*
X114895226Y-132128481D01*
X114878024Y-132160663D01*
X114854873Y-132188873D01*
X114826663Y-132212024D01*
X114794481Y-132229226D01*
X114759562Y-132239819D01*
X114717105Y-132244000D01*
X113575895Y-132244000D01*
X113533438Y-132239819D01*
X113498519Y-132229226D01*
X113466337Y-132212024D01*
X113438127Y-132188873D01*
X113414976Y-132160663D01*
X113397774Y-132128481D01*
X113387181Y-132093562D01*
X113383000Y-132051105D01*
X113383000Y-130584895D01*
X113387181Y-130542438D01*
X113397774Y-130507519D01*
X113414976Y-130475337D01*
X113438127Y-130447127D01*
X113466337Y-130423976D01*
X113498519Y-130406774D01*
X113533438Y-130396181D01*
X113575895Y-130392000D01*
X114717105Y-130392000D01*
X114759562Y-130396181D01*
G37*
G36*
X128537562Y-130341181D02*
G01*
X128572481Y-130351774D01*
X128604663Y-130368976D01*
X128632873Y-130392127D01*
X128656024Y-130420337D01*
X128673226Y-130452519D01*
X128683819Y-130487438D01*
X128688000Y-130529895D01*
X128688000Y-131671105D01*
X128683819Y-131713562D01*
X128673226Y-131748481D01*
X128656024Y-131780663D01*
X128632873Y-131808873D01*
X128604663Y-131832024D01*
X128572481Y-131849226D01*
X128537562Y-131859819D01*
X128495105Y-131864000D01*
X127028895Y-131864000D01*
X126986438Y-131859819D01*
X126951519Y-131849226D01*
X126919337Y-131832024D01*
X126891127Y-131808873D01*
X126867976Y-131780663D01*
X126850774Y-131748481D01*
X126840181Y-131713562D01*
X126836000Y-131671105D01*
X126836000Y-130529895D01*
X126840181Y-130487438D01*
X126850774Y-130452519D01*
X126867976Y-130420337D01*
X126891127Y-130392127D01*
X126919337Y-130368976D01*
X126951519Y-130351774D01*
X126986438Y-130341181D01*
X127028895Y-130337000D01*
X128495105Y-130337000D01*
X128537562Y-130341181D01*
G37*
G36*
X122505562Y-130341181D02*
G01*
X122540481Y-130351774D01*
X122572663Y-130368976D01*
X122600873Y-130392127D01*
X122624024Y-130420337D01*
X122641226Y-130452519D01*
X122651819Y-130487438D01*
X122656000Y-130529895D01*
X122656000Y-131671105D01*
X122651819Y-131713562D01*
X122641226Y-131748481D01*
X122624024Y-131780663D01*
X122600873Y-131808873D01*
X122572663Y-131832024D01*
X122540481Y-131849226D01*
X122505562Y-131859819D01*
X122463105Y-131864000D01*
X120996895Y-131864000D01*
X120954438Y-131859819D01*
X120919519Y-131849226D01*
X120887337Y-131832024D01*
X120859127Y-131808873D01*
X120835976Y-131780663D01*
X120818774Y-131748481D01*
X120808181Y-131713562D01*
X120804000Y-131671105D01*
X120804000Y-130529895D01*
X120808181Y-130487438D01*
X120818774Y-130452519D01*
X120835976Y-130420337D01*
X120859127Y-130392127D01*
X120887337Y-130368976D01*
X120919519Y-130351774D01*
X120954438Y-130341181D01*
X120996895Y-130337000D01*
X122463105Y-130337000D01*
X122505562Y-130341181D01*
G37*
G36*
X131141562Y-130341181D02*
G01*
X131176481Y-130351774D01*
X131208663Y-130368976D01*
X131236873Y-130392127D01*
X131260024Y-130420337D01*
X131277226Y-130452519D01*
X131287819Y-130487438D01*
X131292000Y-130529895D01*
X131292000Y-131671105D01*
X131287819Y-131713562D01*
X131277226Y-131748481D01*
X131260024Y-131780663D01*
X131236873Y-131808873D01*
X131208663Y-131832024D01*
X131176481Y-131849226D01*
X131141562Y-131859819D01*
X131099105Y-131864000D01*
X129632895Y-131864000D01*
X129590438Y-131859819D01*
X129555519Y-131849226D01*
X129523337Y-131832024D01*
X129495127Y-131808873D01*
X129471976Y-131780663D01*
X129454774Y-131748481D01*
X129444181Y-131713562D01*
X129440000Y-131671105D01*
X129440000Y-130529895D01*
X129444181Y-130487438D01*
X129454774Y-130452519D01*
X129471976Y-130420337D01*
X129495127Y-130392127D01*
X129523337Y-130368976D01*
X129555519Y-130351774D01*
X129590438Y-130341181D01*
X129632895Y-130337000D01*
X131099105Y-130337000D01*
X131141562Y-130341181D01*
G37*
G36*
X125933562Y-130341181D02*
G01*
X125968481Y-130351774D01*
X126000663Y-130368976D01*
X126028873Y-130392127D01*
X126052024Y-130420337D01*
X126069226Y-130452519D01*
X126079819Y-130487438D01*
X126084000Y-130529895D01*
X126084000Y-131671105D01*
X126079819Y-131713562D01*
X126069226Y-131748481D01*
X126052024Y-131780663D01*
X126028873Y-131808873D01*
X126000663Y-131832024D01*
X125968481Y-131849226D01*
X125933562Y-131859819D01*
X125891105Y-131864000D01*
X124424895Y-131864000D01*
X124382438Y-131859819D01*
X124347519Y-131849226D01*
X124315337Y-131832024D01*
X124287127Y-131808873D01*
X124263976Y-131780663D01*
X124246774Y-131748481D01*
X124236181Y-131713562D01*
X124232000Y-131671105D01*
X124232000Y-130529895D01*
X124236181Y-130487438D01*
X124246774Y-130452519D01*
X124263976Y-130420337D01*
X124287127Y-130392127D01*
X124315337Y-130368976D01*
X124347519Y-130351774D01*
X124382438Y-130341181D01*
X124424895Y-130337000D01*
X125891105Y-130337000D01*
X125933562Y-130341181D01*
G37*
G36*
X107263564Y-129663389D02*
G01*
X107429807Y-129732249D01*
X107454835Y-129742616D01*
X107626973Y-129857635D01*
X107773365Y-130004027D01*
X107888385Y-130176167D01*
X107967611Y-130367436D01*
X108008000Y-130570484D01*
X108008000Y-130777516D01*
X107967611Y-130980564D01*
X107888385Y-131171833D01*
X107888384Y-131171835D01*
X107773365Y-131343973D01*
X107626973Y-131490365D01*
X107454835Y-131605384D01*
X107454834Y-131605385D01*
X107454833Y-131605385D01*
X107263564Y-131684611D01*
X107060516Y-131725000D01*
X106853484Y-131725000D01*
X106650436Y-131684611D01*
X106459167Y-131605385D01*
X106459166Y-131605385D01*
X106459165Y-131605384D01*
X106287027Y-131490365D01*
X106140635Y-131343973D01*
X106025616Y-131171835D01*
X106025615Y-131171833D01*
X105946389Y-130980564D01*
X105906000Y-130777516D01*
X105906000Y-130570484D01*
X105946389Y-130367436D01*
X106025615Y-130176167D01*
X106140635Y-130004027D01*
X106287027Y-129857635D01*
X106459165Y-129742616D01*
X106484193Y-129732249D01*
X106650436Y-129663389D01*
X106853484Y-129623000D01*
X107060516Y-129623000D01*
X107263564Y-129663389D01*
G37*
G36*
X100763564Y-129663389D02*
G01*
X100929807Y-129732249D01*
X100954835Y-129742616D01*
X101126973Y-129857635D01*
X101273365Y-130004027D01*
X101388385Y-130176167D01*
X101467611Y-130367436D01*
X101508000Y-130570484D01*
X101508000Y-130777516D01*
X101467611Y-130980564D01*
X101388385Y-131171833D01*
X101388384Y-131171835D01*
X101273365Y-131343973D01*
X101126973Y-131490365D01*
X100954835Y-131605384D01*
X100954834Y-131605385D01*
X100954833Y-131605385D01*
X100763564Y-131684611D01*
X100560516Y-131725000D01*
X100353484Y-131725000D01*
X100150436Y-131684611D01*
X99959167Y-131605385D01*
X99959166Y-131605385D01*
X99959165Y-131605384D01*
X99787027Y-131490365D01*
X99640635Y-131343973D01*
X99525616Y-131171835D01*
X99525615Y-131171833D01*
X99446389Y-130980564D01*
X99406000Y-130777516D01*
X99406000Y-130570484D01*
X99446389Y-130367436D01*
X99525615Y-130176167D01*
X99640635Y-130004027D01*
X99787027Y-129857635D01*
X99959165Y-129742616D01*
X99984193Y-129732249D01*
X100150436Y-129663389D01*
X100353484Y-129623000D01*
X100560516Y-129623000D01*
X100763564Y-129663389D01*
G37*
G36*
X137689000Y-131341000D02*
G01*
X135587000Y-131341000D01*
X135587000Y-130539000D01*
X137689000Y-130539000D01*
X137689000Y-131341000D01*
G37*
G36*
X143895242Y-129465404D02*
G01*
X143932337Y-129476657D01*
X143966515Y-129494925D01*
X143996481Y-129519519D01*
X144021075Y-129549485D01*
X144039343Y-129583663D01*
X144050596Y-129620758D01*
X144055000Y-129665474D01*
X144055000Y-130558526D01*
X144050596Y-130603242D01*
X144039343Y-130640337D01*
X144021075Y-130674515D01*
X143996481Y-130704481D01*
X143966515Y-130729075D01*
X143932337Y-130747343D01*
X143895242Y-130758596D01*
X143850526Y-130763000D01*
X142407474Y-130763000D01*
X142362758Y-130758596D01*
X142325663Y-130747343D01*
X142291485Y-130729075D01*
X142261519Y-130704481D01*
X142236925Y-130674515D01*
X142218657Y-130640337D01*
X142207404Y-130603242D01*
X142203000Y-130558526D01*
X142203000Y-129665474D01*
X142207404Y-129620758D01*
X142218657Y-129583663D01*
X142236925Y-129549485D01*
X142261519Y-129519519D01*
X142291485Y-129494925D01*
X142325663Y-129476657D01*
X142362758Y-129465404D01*
X142407474Y-129461000D01*
X143850526Y-129461000D01*
X143895242Y-129465404D01*
G37*
G36*
X156485855Y-129050640D02*
G01*
X156549618Y-129056920D01*
X156640404Y-129084460D01*
X156672336Y-129094146D01*
X156785425Y-129154594D01*
X156884554Y-129235946D01*
X156965906Y-129335075D01*
X157026354Y-129448164D01*
X157031829Y-129466212D01*
X157063580Y-129570882D01*
X157076149Y-129698500D01*
X157063580Y-129826118D01*
X157054019Y-129857635D01*
X157026354Y-129948836D01*
X156965906Y-130061925D01*
X156884554Y-130161054D01*
X156785425Y-130242406D01*
X156672336Y-130302854D01*
X156640404Y-130312540D01*
X156549618Y-130340080D01*
X156485855Y-130346360D01*
X156453974Y-130349500D01*
X155840026Y-130349500D01*
X155808145Y-130346360D01*
X155744382Y-130340080D01*
X155653596Y-130312540D01*
X155621664Y-130302854D01*
X155508575Y-130242406D01*
X155409446Y-130161054D01*
X155328094Y-130061925D01*
X155267646Y-129948836D01*
X155239981Y-129857635D01*
X155230420Y-129826118D01*
X155217851Y-129698500D01*
X155230420Y-129570882D01*
X155262171Y-129466212D01*
X155267646Y-129448164D01*
X155328094Y-129335075D01*
X155409446Y-129235946D01*
X155508575Y-129154594D01*
X155621664Y-129094146D01*
X155653596Y-129084460D01*
X155744382Y-129056920D01*
X155808145Y-129050640D01*
X155840026Y-129047500D01*
X156453974Y-129047500D01*
X156485855Y-129050640D01*
G37*
G36*
X150389855Y-129050640D02*
G01*
X150453618Y-129056920D01*
X150544404Y-129084460D01*
X150576336Y-129094146D01*
X150689425Y-129154594D01*
X150788554Y-129235946D01*
X150869906Y-129335075D01*
X150930354Y-129448164D01*
X150935829Y-129466212D01*
X150967580Y-129570882D01*
X150980149Y-129698500D01*
X150967580Y-129826118D01*
X150958019Y-129857635D01*
X150930354Y-129948836D01*
X150869906Y-130061925D01*
X150788554Y-130161054D01*
X150689425Y-130242406D01*
X150576336Y-130302854D01*
X150544404Y-130312540D01*
X150453618Y-130340080D01*
X150389855Y-130346360D01*
X150357974Y-130349500D01*
X149744026Y-130349500D01*
X149712145Y-130346360D01*
X149648382Y-130340080D01*
X149557596Y-130312540D01*
X149525664Y-130302854D01*
X149412575Y-130242406D01*
X149313446Y-130161054D01*
X149232094Y-130061925D01*
X149171646Y-129948836D01*
X149143981Y-129857635D01*
X149134420Y-129826118D01*
X149121851Y-129698500D01*
X149134420Y-129570882D01*
X149166171Y-129466212D01*
X149171646Y-129448164D01*
X149232094Y-129335075D01*
X149313446Y-129235946D01*
X149412575Y-129154594D01*
X149525664Y-129094146D01*
X149557596Y-129084460D01*
X149648382Y-129056920D01*
X149712145Y-129050640D01*
X149744026Y-129047500D01*
X150357974Y-129047500D01*
X150389855Y-129050640D01*
G37*
G36*
X131719817Y-126534696D02*
G01*
X131833104Y-126569062D01*
X131937511Y-126624869D01*
X131937513Y-126624870D01*
X131937512Y-126624870D01*
X132029027Y-126699973D01*
X132092711Y-126777572D01*
X132104131Y-126791488D01*
X132159938Y-126895895D01*
X132194304Y-127009182D01*
X132203000Y-127097481D01*
X132203000Y-128556519D01*
X132194304Y-128644818D01*
X132159938Y-128758105D01*
X132104131Y-128862512D01*
X132029027Y-128954027D01*
X131937512Y-129029131D01*
X131833105Y-129084938D01*
X131719818Y-129119304D01*
X131602000Y-129130907D01*
X131484183Y-129119304D01*
X131370896Y-129084938D01*
X131266489Y-129029131D01*
X131174974Y-128954027D01*
X131099870Y-128862512D01*
X131044063Y-128758105D01*
X131009697Y-128644818D01*
X131001001Y-128556519D01*
X131001000Y-127097482D01*
X131009696Y-127009183D01*
X131044062Y-126895896D01*
X131099869Y-126791489D01*
X131113338Y-126775077D01*
X131174973Y-126699973D01*
X131266487Y-126624870D01*
X131266486Y-126624870D01*
X131266488Y-126624869D01*
X131370895Y-126569062D01*
X131484182Y-126534696D01*
X131602000Y-126523093D01*
X131719817Y-126534696D01*
G37*
G36*
X127719817Y-126534696D02*
G01*
X127833104Y-126569062D01*
X127937511Y-126624869D01*
X127937513Y-126624870D01*
X127937512Y-126624870D01*
X128029027Y-126699973D01*
X128092711Y-126777572D01*
X128104131Y-126791488D01*
X128159938Y-126895895D01*
X128194304Y-127009182D01*
X128203000Y-127097481D01*
X128203000Y-128556519D01*
X128194304Y-128644818D01*
X128159938Y-128758105D01*
X128104131Y-128862512D01*
X128029027Y-128954027D01*
X127937512Y-129029131D01*
X127833105Y-129084938D01*
X127719818Y-129119304D01*
X127602000Y-129130907D01*
X127484183Y-129119304D01*
X127370896Y-129084938D01*
X127266489Y-129029131D01*
X127174974Y-128954027D01*
X127099870Y-128862512D01*
X127044063Y-128758105D01*
X127009697Y-128644818D01*
X127001001Y-128556519D01*
X127001000Y-127097482D01*
X127009696Y-127009183D01*
X127044062Y-126895896D01*
X127099869Y-126791489D01*
X127113338Y-126775077D01*
X127174973Y-126699973D01*
X127266487Y-126624870D01*
X127266486Y-126624870D01*
X127266488Y-126624869D01*
X127370895Y-126569062D01*
X127484182Y-126534696D01*
X127602000Y-126523093D01*
X127719817Y-126534696D01*
G37*
G36*
X125719817Y-126534696D02*
G01*
X125833104Y-126569062D01*
X125937511Y-126624869D01*
X125937513Y-126624870D01*
X125937512Y-126624870D01*
X126029027Y-126699973D01*
X126092711Y-126777572D01*
X126104131Y-126791488D01*
X126159938Y-126895895D01*
X126194304Y-127009182D01*
X126203000Y-127097481D01*
X126203000Y-128556519D01*
X126194304Y-128644818D01*
X126159938Y-128758105D01*
X126104131Y-128862512D01*
X126029027Y-128954027D01*
X125937512Y-129029131D01*
X125833105Y-129084938D01*
X125719818Y-129119304D01*
X125602000Y-129130907D01*
X125484183Y-129119304D01*
X125370896Y-129084938D01*
X125266489Y-129029131D01*
X125174974Y-128954027D01*
X125099870Y-128862512D01*
X125044063Y-128758105D01*
X125009697Y-128644818D01*
X125001001Y-128556519D01*
X125001000Y-127097482D01*
X125009696Y-127009183D01*
X125044062Y-126895896D01*
X125099869Y-126791489D01*
X125113338Y-126775077D01*
X125174973Y-126699973D01*
X125266487Y-126624870D01*
X125266486Y-126624870D01*
X125266488Y-126624869D01*
X125370895Y-126569062D01*
X125484182Y-126534696D01*
X125602000Y-126523093D01*
X125719817Y-126534696D01*
G37*
G36*
X121719817Y-126534696D02*
G01*
X121833104Y-126569062D01*
X121937511Y-126624869D01*
X121937513Y-126624870D01*
X121937512Y-126624870D01*
X122029027Y-126699973D01*
X122092711Y-126777572D01*
X122104131Y-126791488D01*
X122159938Y-126895895D01*
X122194304Y-127009182D01*
X122203000Y-127097481D01*
X122203000Y-128556519D01*
X122194304Y-128644818D01*
X122159938Y-128758105D01*
X122104131Y-128862512D01*
X122029027Y-128954027D01*
X121937512Y-129029131D01*
X121833105Y-129084938D01*
X121719818Y-129119304D01*
X121602000Y-129130907D01*
X121484183Y-129119304D01*
X121370896Y-129084938D01*
X121266489Y-129029131D01*
X121174974Y-128954027D01*
X121099870Y-128862512D01*
X121044063Y-128758105D01*
X121009697Y-128644818D01*
X121001001Y-128556519D01*
X121001000Y-127097482D01*
X121009696Y-127009183D01*
X121044062Y-126895896D01*
X121099869Y-126791489D01*
X121113338Y-126775077D01*
X121174973Y-126699973D01*
X121266487Y-126624870D01*
X121266486Y-126624870D01*
X121266488Y-126624869D01*
X121370895Y-126569062D01*
X121484182Y-126534696D01*
X121602000Y-126523093D01*
X121719817Y-126534696D01*
G37*
G36*
X119719817Y-126534696D02*
G01*
X119833104Y-126569062D01*
X119937511Y-126624869D01*
X119937513Y-126624870D01*
X119937512Y-126624870D01*
X120029027Y-126699973D01*
X120092711Y-126777572D01*
X120104131Y-126791488D01*
X120159938Y-126895895D01*
X120194304Y-127009182D01*
X120203000Y-127097481D01*
X120203000Y-128556519D01*
X120194304Y-128644818D01*
X120159938Y-128758105D01*
X120104131Y-128862512D01*
X120029027Y-128954027D01*
X119937512Y-129029131D01*
X119833105Y-129084938D01*
X119719818Y-129119304D01*
X119602000Y-129130907D01*
X119484183Y-129119304D01*
X119370896Y-129084938D01*
X119266489Y-129029131D01*
X119174974Y-128954027D01*
X119099870Y-128862512D01*
X119044063Y-128758105D01*
X119009697Y-128644818D01*
X119001001Y-128556519D01*
X119001000Y-127097482D01*
X119009696Y-127009183D01*
X119044062Y-126895896D01*
X119099869Y-126791489D01*
X119113338Y-126775077D01*
X119174973Y-126699973D01*
X119266487Y-126624870D01*
X119266486Y-126624870D01*
X119266488Y-126624869D01*
X119370895Y-126569062D01*
X119484182Y-126534696D01*
X119602000Y-126523093D01*
X119719817Y-126534696D01*
G37*
G36*
X129719817Y-126534696D02*
G01*
X129833104Y-126569062D01*
X129937511Y-126624869D01*
X129937513Y-126624870D01*
X129937512Y-126624870D01*
X130029027Y-126699973D01*
X130092711Y-126777572D01*
X130104131Y-126791488D01*
X130159938Y-126895895D01*
X130194304Y-127009182D01*
X130203000Y-127097481D01*
X130203000Y-128556519D01*
X130194304Y-128644818D01*
X130159938Y-128758105D01*
X130104131Y-128862512D01*
X130029027Y-128954027D01*
X129937512Y-129029131D01*
X129833105Y-129084938D01*
X129719818Y-129119304D01*
X129602000Y-129130907D01*
X129484183Y-129119304D01*
X129370896Y-129084938D01*
X129266489Y-129029131D01*
X129174974Y-128954027D01*
X129099870Y-128862512D01*
X129044063Y-128758105D01*
X129009697Y-128644818D01*
X129001001Y-128556519D01*
X129001000Y-127097482D01*
X129009696Y-127009183D01*
X129044062Y-126895896D01*
X129099869Y-126791489D01*
X129113338Y-126775077D01*
X129174973Y-126699973D01*
X129266487Y-126624870D01*
X129266486Y-126624870D01*
X129266488Y-126624869D01*
X129370895Y-126569062D01*
X129484182Y-126534696D01*
X129602000Y-126523093D01*
X129719817Y-126534696D01*
G37*
G36*
X123719817Y-126534696D02*
G01*
X123833104Y-126569062D01*
X123937511Y-126624869D01*
X123937513Y-126624870D01*
X123937512Y-126624870D01*
X124029027Y-126699973D01*
X124092711Y-126777572D01*
X124104131Y-126791488D01*
X124159938Y-126895895D01*
X124194304Y-127009182D01*
X124203000Y-127097481D01*
X124203000Y-128556519D01*
X124194304Y-128644818D01*
X124159938Y-128758105D01*
X124104131Y-128862512D01*
X124029027Y-128954027D01*
X123937512Y-129029131D01*
X123833105Y-129084938D01*
X123719818Y-129119304D01*
X123602000Y-129130907D01*
X123484183Y-129119304D01*
X123370896Y-129084938D01*
X123266489Y-129029131D01*
X123174974Y-128954027D01*
X123099870Y-128862512D01*
X123044063Y-128758105D01*
X123009697Y-128644818D01*
X123001001Y-128556519D01*
X123001000Y-127097482D01*
X123009696Y-127009183D01*
X123044062Y-126895896D01*
X123099869Y-126791489D01*
X123113338Y-126775077D01*
X123174973Y-126699973D01*
X123266487Y-126624870D01*
X123266486Y-126624870D01*
X123266488Y-126624869D01*
X123370895Y-126569062D01*
X123484182Y-126534696D01*
X123602000Y-126523093D01*
X123719817Y-126534696D01*
G37*
G36*
X118203000Y-129128000D02*
G01*
X117001000Y-129128000D01*
X117001000Y-126526000D01*
X118203000Y-126526000D01*
X118203000Y-129128000D01*
G37*
G36*
X150817242Y-127051904D02*
G01*
X150854337Y-127063157D01*
X150888515Y-127081425D01*
X150918481Y-127106019D01*
X150943075Y-127135985D01*
X150961343Y-127170163D01*
X150972596Y-127207258D01*
X150977000Y-127251974D01*
X150977000Y-128145026D01*
X150972596Y-128189742D01*
X150961343Y-128226837D01*
X150943075Y-128261015D01*
X150918481Y-128290981D01*
X150888515Y-128315575D01*
X150854337Y-128333843D01*
X150817242Y-128345096D01*
X150772526Y-128349500D01*
X149329474Y-128349500D01*
X149284758Y-128345096D01*
X149247663Y-128333843D01*
X149213485Y-128315575D01*
X149183519Y-128290981D01*
X149158925Y-128261015D01*
X149140657Y-128226837D01*
X149129404Y-128189742D01*
X149125000Y-128145026D01*
X149125000Y-127251974D01*
X149129404Y-127207258D01*
X149140657Y-127170163D01*
X149158925Y-127135985D01*
X149183519Y-127106019D01*
X149213485Y-127081425D01*
X149247663Y-127063157D01*
X149284758Y-127051904D01*
X149329474Y-127047500D01*
X150772526Y-127047500D01*
X150817242Y-127051904D01*
G37*
G36*
X156913242Y-127051904D02*
G01*
X156950337Y-127063157D01*
X156984515Y-127081425D01*
X157014481Y-127106019D01*
X157039075Y-127135985D01*
X157057343Y-127170163D01*
X157068596Y-127207258D01*
X157073000Y-127251974D01*
X157073000Y-128145026D01*
X157068596Y-128189742D01*
X157057343Y-128226837D01*
X157039075Y-128261015D01*
X157014481Y-128290981D01*
X156984515Y-128315575D01*
X156950337Y-128333843D01*
X156913242Y-128345096D01*
X156868526Y-128349500D01*
X155425474Y-128349500D01*
X155380758Y-128345096D01*
X155343663Y-128333843D01*
X155309485Y-128315575D01*
X155279519Y-128290981D01*
X155254925Y-128261015D01*
X155236657Y-128226837D01*
X155225404Y-128189742D01*
X155221000Y-128145026D01*
X155221000Y-127251974D01*
X155225404Y-127207258D01*
X155236657Y-127170163D01*
X155254925Y-127135985D01*
X155279519Y-127106019D01*
X155309485Y-127081425D01*
X155343663Y-127063157D01*
X155380758Y-127051904D01*
X155425474Y-127047500D01*
X156868526Y-127047500D01*
X156913242Y-127051904D01*
G37*
G36*
X107263564Y-125163389D02*
G01*
X107454833Y-125242615D01*
X107454835Y-125242616D01*
X107626973Y-125357635D01*
X107773365Y-125504027D01*
X107875057Y-125656219D01*
X107888385Y-125676167D01*
X107967611Y-125867436D01*
X108008000Y-126070484D01*
X108008000Y-126277516D01*
X107967611Y-126480564D01*
X107888385Y-126671833D01*
X107888384Y-126671835D01*
X107773365Y-126843973D01*
X107626973Y-126990365D01*
X107454835Y-127105384D01*
X107454834Y-127105385D01*
X107454833Y-127105385D01*
X107263564Y-127184611D01*
X107060516Y-127225000D01*
X106853484Y-127225000D01*
X106650436Y-127184611D01*
X106459167Y-127105385D01*
X106459166Y-127105385D01*
X106459165Y-127105384D01*
X106287027Y-126990365D01*
X106140635Y-126843973D01*
X106025616Y-126671835D01*
X106025615Y-126671833D01*
X105946389Y-126480564D01*
X105906000Y-126277516D01*
X105906000Y-126070484D01*
X105946389Y-125867436D01*
X106025615Y-125676167D01*
X106038944Y-125656219D01*
X106140635Y-125504027D01*
X106287027Y-125357635D01*
X106459165Y-125242616D01*
X106459167Y-125242615D01*
X106650436Y-125163389D01*
X106853484Y-125123000D01*
X107060516Y-125123000D01*
X107263564Y-125163389D01*
G37*
G36*
X100763564Y-125163389D02*
G01*
X100954833Y-125242615D01*
X100954835Y-125242616D01*
X101126973Y-125357635D01*
X101273365Y-125504027D01*
X101375057Y-125656219D01*
X101388385Y-125676167D01*
X101467611Y-125867436D01*
X101508000Y-126070484D01*
X101508000Y-126277516D01*
X101467611Y-126480564D01*
X101388385Y-126671833D01*
X101388384Y-126671835D01*
X101273365Y-126843973D01*
X101126973Y-126990365D01*
X100954835Y-127105384D01*
X100954834Y-127105385D01*
X100954833Y-127105385D01*
X100763564Y-127184611D01*
X100560516Y-127225000D01*
X100353484Y-127225000D01*
X100150436Y-127184611D01*
X99959167Y-127105385D01*
X99959166Y-127105385D01*
X99959165Y-127105384D01*
X99787027Y-126990365D01*
X99640635Y-126843973D01*
X99525616Y-126671835D01*
X99525615Y-126671833D01*
X99446389Y-126480564D01*
X99406000Y-126277516D01*
X99406000Y-126070484D01*
X99446389Y-125867436D01*
X99525615Y-125676167D01*
X99538944Y-125656219D01*
X99640635Y-125504027D01*
X99787027Y-125357635D01*
X99959165Y-125242616D01*
X99959167Y-125242615D01*
X100150436Y-125163389D01*
X100353484Y-125123000D01*
X100560516Y-125123000D01*
X100763564Y-125163389D01*
G37*
G36*
X144087719Y-124375520D02*
G01*
X144276880Y-124432901D01*
X144276883Y-124432902D01*
X144369333Y-124482318D01*
X144451212Y-124526083D01*
X144604015Y-124651485D01*
X144729417Y-124804288D01*
X144822599Y-124978619D01*
X144879980Y-125167780D01*
X144894500Y-125315206D01*
X144894500Y-125508793D01*
X144879980Y-125656219D01*
X144857810Y-125729303D01*
X144822598Y-125845383D01*
X144810810Y-125867436D01*
X144729417Y-126019712D01*
X144604015Y-126172515D01*
X144451212Y-126297917D01*
X144276881Y-126391099D01*
X144087720Y-126448480D01*
X143891000Y-126467855D01*
X143694281Y-126448480D01*
X143505120Y-126391099D01*
X143330788Y-126297917D01*
X143177985Y-126172515D01*
X143052583Y-126019712D01*
X142959401Y-125845381D01*
X142902020Y-125656220D01*
X142887500Y-125508794D01*
X142887500Y-125315207D01*
X142902020Y-125167781D01*
X142959401Y-124978620D01*
X142959402Y-124978617D01*
X143008818Y-124886167D01*
X143052583Y-124804288D01*
X143177985Y-124651485D01*
X143330788Y-124526083D01*
X143505119Y-124432901D01*
X143694280Y-124375520D01*
X143891000Y-124356145D01*
X144087719Y-124375520D01*
G37*
G36*
X141547719Y-124375520D02*
G01*
X141736880Y-124432901D01*
X141736883Y-124432902D01*
X141829333Y-124482318D01*
X141911212Y-124526083D01*
X142064015Y-124651485D01*
X142189417Y-124804288D01*
X142282599Y-124978619D01*
X142339980Y-125167780D01*
X142354500Y-125315206D01*
X142354500Y-125508793D01*
X142339980Y-125656219D01*
X142317810Y-125729303D01*
X142282598Y-125845383D01*
X142270810Y-125867436D01*
X142189417Y-126019712D01*
X142064015Y-126172515D01*
X141911212Y-126297917D01*
X141736881Y-126391099D01*
X141547720Y-126448480D01*
X141351000Y-126467855D01*
X141154281Y-126448480D01*
X140965120Y-126391099D01*
X140790788Y-126297917D01*
X140637985Y-126172515D01*
X140512583Y-126019712D01*
X140419401Y-125845381D01*
X140362020Y-125656220D01*
X140347500Y-125508794D01*
X140347500Y-125315207D01*
X140362020Y-125167781D01*
X140419401Y-124978620D01*
X140419402Y-124978617D01*
X140468818Y-124886167D01*
X140512583Y-124804288D01*
X140637985Y-124651485D01*
X140790788Y-124526083D01*
X140965119Y-124432901D01*
X141154280Y-124375520D01*
X141351000Y-124356145D01*
X141547719Y-124375520D01*
G37*
G36*
X139814500Y-126463000D02*
G01*
X137807500Y-126463000D01*
X137807500Y-124361000D01*
X139814500Y-124361000D01*
X139814500Y-126463000D01*
G37*
G36*
X134119818Y-124544696D02*
G01*
X134233105Y-124579062D01*
X134337512Y-124634869D01*
X134429027Y-124709973D01*
X134504131Y-124801488D01*
X134559938Y-124905895D01*
X134594304Y-125019182D01*
X134605907Y-125137000D01*
X134594304Y-125254818D01*
X134559938Y-125368105D01*
X134504131Y-125472512D01*
X134429027Y-125564027D01*
X134337512Y-125639131D01*
X134233105Y-125694938D01*
X134119818Y-125729304D01*
X134031519Y-125738000D01*
X132572481Y-125738000D01*
X132484182Y-125729304D01*
X132370895Y-125694938D01*
X132266488Y-125639131D01*
X132174973Y-125564027D01*
X132099869Y-125472512D01*
X132044062Y-125368105D01*
X132009696Y-125254818D01*
X131998093Y-125137000D01*
X132009696Y-125019182D01*
X132044062Y-124905895D01*
X132099869Y-124801488D01*
X132174973Y-124709973D01*
X132266488Y-124634869D01*
X132370895Y-124579062D01*
X132484182Y-124544696D01*
X132572481Y-124536000D01*
X134031519Y-124536000D01*
X134119818Y-124544696D01*
G37*
G36*
X134119818Y-122544696D02*
G01*
X134233105Y-122579062D01*
X134337512Y-122634869D01*
X134429027Y-122709973D01*
X134504131Y-122801488D01*
X134559938Y-122905895D01*
X134594304Y-123019182D01*
X134605907Y-123137000D01*
X134594304Y-123254818D01*
X134559938Y-123368105D01*
X134504131Y-123472512D01*
X134429027Y-123564027D01*
X134337512Y-123639131D01*
X134233105Y-123694938D01*
X134119818Y-123729304D01*
X134031519Y-123738000D01*
X132572481Y-123738000D01*
X132484182Y-123729304D01*
X132370895Y-123694938D01*
X132266488Y-123639131D01*
X132174973Y-123564027D01*
X132099869Y-123472512D01*
X132044062Y-123368105D01*
X132009696Y-123254818D01*
X131998093Y-123137000D01*
X132009696Y-123019182D01*
X132044062Y-122905895D01*
X132099869Y-122801488D01*
X132174973Y-122709973D01*
X132266488Y-122634869D01*
X132370895Y-122579062D01*
X132484182Y-122544696D01*
X132572481Y-122536000D01*
X134031519Y-122536000D01*
X134119818Y-122544696D01*
G37*
G36*
X152786719Y-120439020D02*
G01*
X152975880Y-120496401D01*
X152975883Y-120496402D01*
X153049965Y-120536000D01*
X153150212Y-120589583D01*
X153303015Y-120714985D01*
X153428417Y-120867788D01*
X153521599Y-121042119D01*
X153578980Y-121231280D01*
X153593500Y-121378706D01*
X153593500Y-121572293D01*
X153578980Y-121719719D01*
X153521599Y-121908880D01*
X153521598Y-121908883D01*
X153472182Y-122001333D01*
X153428417Y-122083212D01*
X153303015Y-122236015D01*
X153150212Y-122361417D01*
X152975881Y-122454599D01*
X152786720Y-122511980D01*
X152590000Y-122531355D01*
X152393281Y-122511980D01*
X152204120Y-122454599D01*
X152029788Y-122361417D01*
X151876985Y-122236015D01*
X151751583Y-122083212D01*
X151658401Y-121908881D01*
X151601020Y-121719720D01*
X151586500Y-121572294D01*
X151586500Y-121378707D01*
X151601020Y-121231281D01*
X151658401Y-121042120D01*
X151658402Y-121042117D01*
X151707818Y-120949667D01*
X151751583Y-120867788D01*
X151876985Y-120714985D01*
X152029788Y-120589583D01*
X152204119Y-120496401D01*
X152393280Y-120439020D01*
X152590000Y-120419645D01*
X152786719Y-120439020D01*
G37*
G36*
X155326719Y-120439020D02*
G01*
X155515880Y-120496401D01*
X155515883Y-120496402D01*
X155589965Y-120536000D01*
X155690212Y-120589583D01*
X155843015Y-120714985D01*
X155968417Y-120867788D01*
X156061599Y-121042119D01*
X156118980Y-121231280D01*
X156133500Y-121378706D01*
X156133500Y-121572293D01*
X156118980Y-121719719D01*
X156061599Y-121908880D01*
X156061598Y-121908883D01*
X156012182Y-122001333D01*
X155968417Y-122083212D01*
X155843015Y-122236015D01*
X155690212Y-122361417D01*
X155515881Y-122454599D01*
X155326720Y-122511980D01*
X155130000Y-122531355D01*
X154933281Y-122511980D01*
X154744120Y-122454599D01*
X154569788Y-122361417D01*
X154416985Y-122236015D01*
X154291583Y-122083212D01*
X154198401Y-121908881D01*
X154141020Y-121719720D01*
X154126500Y-121572294D01*
X154126500Y-121378707D01*
X154141020Y-121231281D01*
X154198401Y-121042120D01*
X154198402Y-121042117D01*
X154247818Y-120949667D01*
X154291583Y-120867788D01*
X154416985Y-120714985D01*
X154569788Y-120589583D01*
X154744119Y-120496401D01*
X154933280Y-120439020D01*
X155130000Y-120419645D01*
X155326719Y-120439020D01*
G37*
G36*
X151053500Y-122526500D02*
G01*
X149046500Y-122526500D01*
X149046500Y-120424500D01*
X151053500Y-120424500D01*
X151053500Y-122526500D01*
G37*
G36*
X134119818Y-120544696D02*
G01*
X134233105Y-120579062D01*
X134337512Y-120634869D01*
X134429027Y-120709973D01*
X134504131Y-120801488D01*
X134559938Y-120905895D01*
X134594304Y-121019182D01*
X134605907Y-121137000D01*
X134594304Y-121254818D01*
X134559938Y-121368105D01*
X134504131Y-121472512D01*
X134429027Y-121564027D01*
X134337512Y-121639131D01*
X134233105Y-121694938D01*
X134119818Y-121729304D01*
X134031519Y-121738000D01*
X132572481Y-121738000D01*
X132484182Y-121729304D01*
X132370895Y-121694938D01*
X132266488Y-121639131D01*
X132174973Y-121564027D01*
X132099869Y-121472512D01*
X132044062Y-121368105D01*
X132009696Y-121254818D01*
X131998093Y-121137000D01*
X132009696Y-121019182D01*
X132044062Y-120905895D01*
X132099869Y-120801488D01*
X132174973Y-120709973D01*
X132266488Y-120634869D01*
X132370895Y-120579062D01*
X132484182Y-120544696D01*
X132572481Y-120536000D01*
X134031519Y-120536000D01*
X134119818Y-120544696D01*
G37*
G36*
X134119818Y-118544696D02*
G01*
X134233105Y-118579062D01*
X134337512Y-118634869D01*
X134429027Y-118709973D01*
X134504131Y-118801488D01*
X134559938Y-118905895D01*
X134594304Y-119019182D01*
X134605907Y-119137000D01*
X134594304Y-119254818D01*
X134559938Y-119368105D01*
X134504131Y-119472512D01*
X134429027Y-119564027D01*
X134337512Y-119639131D01*
X134233105Y-119694938D01*
X134119818Y-119729304D01*
X134031519Y-119738000D01*
X132572481Y-119738000D01*
X132484182Y-119729304D01*
X132370895Y-119694938D01*
X132266488Y-119639131D01*
X132174973Y-119564027D01*
X132099869Y-119472512D01*
X132044062Y-119368105D01*
X132009696Y-119254818D01*
X131998093Y-119137000D01*
X132009696Y-119019182D01*
X132044062Y-118905895D01*
X132099869Y-118801488D01*
X132174973Y-118709973D01*
X132266488Y-118634869D01*
X132370895Y-118579062D01*
X132484182Y-118544696D01*
X132572481Y-118536000D01*
X134031519Y-118536000D01*
X134119818Y-118544696D01*
G37*
G36*
X134119818Y-116544696D02*
G01*
X134233105Y-116579062D01*
X134337512Y-116634869D01*
X134429027Y-116709973D01*
X134504131Y-116801488D01*
X134559938Y-116905895D01*
X134594304Y-117019182D01*
X134605907Y-117137000D01*
X134594304Y-117254818D01*
X134559938Y-117368105D01*
X134504131Y-117472512D01*
X134429027Y-117564027D01*
X134337512Y-117639131D01*
X134233105Y-117694938D01*
X134119818Y-117729304D01*
X134031519Y-117738000D01*
X132572481Y-117738000D01*
X132484182Y-117729304D01*
X132370895Y-117694938D01*
X132266488Y-117639131D01*
X132174973Y-117564027D01*
X132099869Y-117472512D01*
X132044062Y-117368105D01*
X132009696Y-117254818D01*
X131998093Y-117137000D01*
X132009696Y-117019182D01*
X132044062Y-116905895D01*
X132099869Y-116801488D01*
X132174973Y-116709973D01*
X132266488Y-116634869D01*
X132370895Y-116579062D01*
X132484182Y-116544696D01*
X132572481Y-116536000D01*
X134031519Y-116536000D01*
X134119818Y-116544696D01*
G37*
G36*
X134119818Y-114544696D02*
G01*
X134233105Y-114579062D01*
X134337512Y-114634869D01*
X134429027Y-114709973D01*
X134504131Y-114801488D01*
X134559938Y-114905895D01*
X134594304Y-115019182D01*
X134605907Y-115137000D01*
X134594304Y-115254818D01*
X134559938Y-115368105D01*
X134504131Y-115472512D01*
X134429027Y-115564027D01*
X134337512Y-115639131D01*
X134233105Y-115694938D01*
X134119818Y-115729304D01*
X134031519Y-115738000D01*
X132572481Y-115738000D01*
X132484182Y-115729304D01*
X132370895Y-115694938D01*
X132266488Y-115639131D01*
X132174973Y-115564027D01*
X132099869Y-115472512D01*
X132044062Y-115368105D01*
X132009696Y-115254818D01*
X131998093Y-115137000D01*
X132009696Y-115019182D01*
X132044062Y-114905895D01*
X132099869Y-114801488D01*
X132174973Y-114709973D01*
X132266488Y-114634869D01*
X132370895Y-114579062D01*
X132484182Y-114544696D01*
X132572481Y-114536000D01*
X134031519Y-114536000D01*
X134119818Y-114544696D01*
G37*
G36*
X129719817Y-111234696D02*
G01*
X129833104Y-111269062D01*
X129937511Y-111324869D01*
X129937513Y-111324870D01*
X129937512Y-111324870D01*
X130029027Y-111399973D01*
X130092711Y-111477572D01*
X130104131Y-111491488D01*
X130159938Y-111595895D01*
X130194304Y-111709182D01*
X130203000Y-111797481D01*
X130203000Y-113256519D01*
X130194304Y-113344818D01*
X130159938Y-113458105D01*
X130104131Y-113562512D01*
X130029027Y-113654027D01*
X129937512Y-113729131D01*
X129833105Y-113784938D01*
X129719818Y-113819304D01*
X129602000Y-113830907D01*
X129484183Y-113819304D01*
X129370896Y-113784938D01*
X129266489Y-113729131D01*
X129174974Y-113654027D01*
X129099870Y-113562512D01*
X129044063Y-113458105D01*
X129009697Y-113344818D01*
X129001001Y-113256519D01*
X129001000Y-111797482D01*
X129009696Y-111709183D01*
X129044062Y-111595896D01*
X129099869Y-111491489D01*
X129113338Y-111475077D01*
X129174973Y-111399973D01*
X129266487Y-111324870D01*
X129266486Y-111324870D01*
X129266488Y-111324869D01*
X129370895Y-111269062D01*
X129484182Y-111234696D01*
X129602000Y-111223093D01*
X129719817Y-111234696D01*
G37*
G36*
X123719817Y-111134696D02*
G01*
X123833104Y-111169062D01*
X123937511Y-111224869D01*
X123953923Y-111238338D01*
X124029027Y-111299973D01*
X124049458Y-111324869D01*
X124104131Y-111391488D01*
X124159938Y-111495895D01*
X124194304Y-111609182D01*
X124203000Y-111697481D01*
X124203000Y-113156519D01*
X124194304Y-113244818D01*
X124159938Y-113358105D01*
X124104131Y-113462512D01*
X124029027Y-113554027D01*
X123937512Y-113629131D01*
X123833105Y-113684938D01*
X123719818Y-113719304D01*
X123602000Y-113730907D01*
X123484183Y-113719304D01*
X123370896Y-113684938D01*
X123266489Y-113629131D01*
X123174974Y-113554027D01*
X123099870Y-113462512D01*
X123044063Y-113358105D01*
X123009697Y-113244818D01*
X123001001Y-113156519D01*
X123001000Y-111697482D01*
X123009696Y-111609183D01*
X123044062Y-111495896D01*
X123099869Y-111391489D01*
X123154542Y-111324869D01*
X123174973Y-111299973D01*
X123266487Y-111224870D01*
X123266486Y-111224870D01*
X123266488Y-111224869D01*
X123370895Y-111169062D01*
X123484182Y-111134696D01*
X123602000Y-111123093D01*
X123719817Y-111134696D01*
G37*
G36*
X131719817Y-111134696D02*
G01*
X131833104Y-111169062D01*
X131937511Y-111224869D01*
X131953923Y-111238338D01*
X132029027Y-111299973D01*
X132049458Y-111324869D01*
X132104131Y-111391488D01*
X132159938Y-111495895D01*
X132194304Y-111609182D01*
X132203000Y-111697481D01*
X132203000Y-113156519D01*
X132194304Y-113244818D01*
X132159938Y-113358105D01*
X132104131Y-113462512D01*
X132029027Y-113554027D01*
X131937512Y-113629131D01*
X131833105Y-113684938D01*
X131719818Y-113719304D01*
X131602000Y-113730907D01*
X131484183Y-113719304D01*
X131370896Y-113684938D01*
X131266489Y-113629131D01*
X131174974Y-113554027D01*
X131099870Y-113462512D01*
X131044063Y-113358105D01*
X131009697Y-113244818D01*
X131001001Y-113156519D01*
X131001000Y-111697482D01*
X131009696Y-111609183D01*
X131044062Y-111495896D01*
X131099869Y-111391489D01*
X131154542Y-111324869D01*
X131174973Y-111299973D01*
X131266487Y-111224870D01*
X131266486Y-111224870D01*
X131266488Y-111224869D01*
X131370895Y-111169062D01*
X131484182Y-111134696D01*
X131602000Y-111123093D01*
X131719817Y-111134696D01*
G37*
G36*
X127719817Y-111134696D02*
G01*
X127833104Y-111169062D01*
X127937511Y-111224869D01*
X127953923Y-111238338D01*
X128029027Y-111299973D01*
X128049458Y-111324869D01*
X128104131Y-111391488D01*
X128159938Y-111495895D01*
X128194304Y-111609182D01*
X128203000Y-111697481D01*
X128203000Y-113156519D01*
X128194304Y-113244818D01*
X128159938Y-113358105D01*
X128104131Y-113462512D01*
X128029027Y-113554027D01*
X127937512Y-113629131D01*
X127833105Y-113684938D01*
X127719818Y-113719304D01*
X127602000Y-113730907D01*
X127484183Y-113719304D01*
X127370896Y-113684938D01*
X127266489Y-113629131D01*
X127174974Y-113554027D01*
X127099870Y-113462512D01*
X127044063Y-113358105D01*
X127009697Y-113244818D01*
X127001001Y-113156519D01*
X127001000Y-111697482D01*
X127009696Y-111609183D01*
X127044062Y-111495896D01*
X127099869Y-111391489D01*
X127154542Y-111324869D01*
X127174973Y-111299973D01*
X127266487Y-111224870D01*
X127266486Y-111224870D01*
X127266488Y-111224869D01*
X127370895Y-111169062D01*
X127484182Y-111134696D01*
X127602000Y-111123093D01*
X127719817Y-111134696D01*
G37*
G36*
X125719817Y-111134696D02*
G01*
X125833104Y-111169062D01*
X125937511Y-111224869D01*
X125953923Y-111238338D01*
X126029027Y-111299973D01*
X126049458Y-111324869D01*
X126104131Y-111391488D01*
X126159938Y-111495895D01*
X126194304Y-111609182D01*
X126203000Y-111697481D01*
X126203000Y-113156519D01*
X126194304Y-113244818D01*
X126159938Y-113358105D01*
X126104131Y-113462512D01*
X126029027Y-113554027D01*
X125937512Y-113629131D01*
X125833105Y-113684938D01*
X125719818Y-113719304D01*
X125602000Y-113730907D01*
X125484183Y-113719304D01*
X125370896Y-113684938D01*
X125266489Y-113629131D01*
X125174974Y-113554027D01*
X125099870Y-113462512D01*
X125044063Y-113358105D01*
X125009697Y-113244818D01*
X125001001Y-113156519D01*
X125001000Y-111697482D01*
X125009696Y-111609183D01*
X125044062Y-111495896D01*
X125099869Y-111391489D01*
X125154542Y-111324869D01*
X125174973Y-111299973D01*
X125266487Y-111224870D01*
X125266486Y-111224870D01*
X125266488Y-111224869D01*
X125370895Y-111169062D01*
X125484182Y-111134696D01*
X125602000Y-111123093D01*
X125719817Y-111134696D01*
G37*
G36*
X121719817Y-111134696D02*
G01*
X121833104Y-111169062D01*
X121937511Y-111224869D01*
X121953923Y-111238338D01*
X122029027Y-111299973D01*
X122049458Y-111324869D01*
X122104131Y-111391488D01*
X122159938Y-111495895D01*
X122194304Y-111609182D01*
X122203000Y-111697481D01*
X122203000Y-113156519D01*
X122194304Y-113244818D01*
X122159938Y-113358105D01*
X122104131Y-113462512D01*
X122029027Y-113554027D01*
X121937512Y-113629131D01*
X121833105Y-113684938D01*
X121719818Y-113719304D01*
X121602000Y-113730907D01*
X121484183Y-113719304D01*
X121370896Y-113684938D01*
X121266489Y-113629131D01*
X121174974Y-113554027D01*
X121099870Y-113462512D01*
X121044063Y-113358105D01*
X121009697Y-113244818D01*
X121001001Y-113156519D01*
X121001000Y-111697482D01*
X121009696Y-111609183D01*
X121044062Y-111495896D01*
X121099869Y-111391489D01*
X121154542Y-111324869D01*
X121174973Y-111299973D01*
X121266487Y-111224870D01*
X121266486Y-111224870D01*
X121266488Y-111224869D01*
X121370895Y-111169062D01*
X121484182Y-111134696D01*
X121602000Y-111123093D01*
X121719817Y-111134696D01*
G37*
G36*
X119719817Y-111134696D02*
G01*
X119833104Y-111169062D01*
X119937511Y-111224869D01*
X119953923Y-111238338D01*
X120029027Y-111299973D01*
X120049458Y-111324869D01*
X120104131Y-111391488D01*
X120159938Y-111495895D01*
X120194304Y-111609182D01*
X120203000Y-111697481D01*
X120203000Y-113156519D01*
X120194304Y-113244818D01*
X120159938Y-113358105D01*
X120104131Y-113462512D01*
X120029027Y-113554027D01*
X119937512Y-113629131D01*
X119833105Y-113684938D01*
X119719818Y-113719304D01*
X119602000Y-113730907D01*
X119484183Y-113719304D01*
X119370896Y-113684938D01*
X119266489Y-113629131D01*
X119174974Y-113554027D01*
X119099870Y-113462512D01*
X119044063Y-113358105D01*
X119009697Y-113244818D01*
X119001001Y-113156519D01*
X119001000Y-111697482D01*
X119009696Y-111609183D01*
X119044062Y-111495896D01*
X119099869Y-111391489D01*
X119154542Y-111324869D01*
X119174973Y-111299973D01*
X119266487Y-111224870D01*
X119266486Y-111224870D01*
X119266488Y-111224869D01*
X119370895Y-111169062D01*
X119484182Y-111134696D01*
X119602000Y-111123093D01*
X119719817Y-111134696D01*
G37*
G36*
X117719817Y-111134696D02*
G01*
X117833104Y-111169062D01*
X117937511Y-111224869D01*
X117953923Y-111238338D01*
X118029027Y-111299973D01*
X118049458Y-111324869D01*
X118104131Y-111391488D01*
X118159938Y-111495895D01*
X118194304Y-111609182D01*
X118203000Y-111697481D01*
X118203000Y-113156519D01*
X118194304Y-113244818D01*
X118159938Y-113358105D01*
X118104131Y-113462512D01*
X118029027Y-113554027D01*
X117937512Y-113629131D01*
X117833105Y-113684938D01*
X117719818Y-113719304D01*
X117602000Y-113730907D01*
X117484183Y-113719304D01*
X117370896Y-113684938D01*
X117266489Y-113629131D01*
X117174974Y-113554027D01*
X117099870Y-113462512D01*
X117044063Y-113358105D01*
X117009697Y-113244818D01*
X117001001Y-113156519D01*
X117001000Y-111697482D01*
X117009696Y-111609183D01*
X117044062Y-111495896D01*
X117099869Y-111391489D01*
X117154542Y-111324869D01*
X117174973Y-111299973D01*
X117266487Y-111224870D01*
X117266486Y-111224870D01*
X117266488Y-111224869D01*
X117370895Y-111169062D01*
X117484182Y-111134696D01*
X117602000Y-111123093D01*
X117719817Y-111134696D01*
G37*
G36*
X141876331Y-107020211D02*
G01*
X142204092Y-107155974D01*
X142499070Y-107353072D01*
X142749928Y-107603930D01*
X142947026Y-107898908D01*
X143082789Y-108226669D01*
X143152000Y-108574616D01*
X143152000Y-108929384D01*
X143082789Y-109277331D01*
X142947026Y-109605092D01*
X142749928Y-109900070D01*
X142499070Y-110150928D01*
X142204092Y-110348026D01*
X141876331Y-110483789D01*
X141528384Y-110553000D01*
X141173616Y-110553000D01*
X140825669Y-110483789D01*
X140497908Y-110348026D01*
X140202930Y-110150928D01*
X139952072Y-109900070D01*
X139754974Y-109605092D01*
X139619211Y-109277331D01*
X139550000Y-108929384D01*
X139550000Y-108574616D01*
X139619211Y-108226669D01*
X139754974Y-107898908D01*
X139952072Y-107603930D01*
X140202930Y-107353072D01*
X140497908Y-107155974D01*
X140825669Y-107020211D01*
X141173616Y-106951000D01*
X141528384Y-106951000D01*
X141876331Y-107020211D01*
G37*
G36*
X100626552Y-107984331D02*
G01*
X100708627Y-108018328D01*
X100708629Y-108018329D01*
X100745813Y-108043175D01*
X100782495Y-108067685D01*
X100845315Y-108130505D01*
X100894672Y-108204373D01*
X100928669Y-108286448D01*
X100946000Y-108373579D01*
X100946000Y-108462421D01*
X100928669Y-108549552D01*
X100894672Y-108631627D01*
X100845315Y-108705495D01*
X100829762Y-108721048D01*
X100814217Y-108739990D01*
X100802666Y-108761601D01*
X100795553Y-108785050D01*
X100793151Y-108809436D01*
X100795553Y-108833822D01*
X100802666Y-108857271D01*
X100814217Y-108878882D01*
X100829762Y-108897824D01*
X100848704Y-108913369D01*
X100870315Y-108924920D01*
X100893764Y-108932033D01*
X100918150Y-108934435D01*
X100942536Y-108932033D01*
X100965985Y-108924920D01*
X100969614Y-108923204D01*
X100971600Y-108922602D01*
X100971601Y-108922601D01*
X101015901Y-108909163D01*
X101117879Y-108878228D01*
X101231882Y-108867000D01*
X101858118Y-108867000D01*
X101972121Y-108878228D01*
X102118402Y-108922602D01*
X102253204Y-108994655D01*
X102253207Y-108994657D01*
X102253208Y-108994658D01*
X102338568Y-109064712D01*
X102371369Y-109091631D01*
X102468345Y-109209796D01*
X102540398Y-109344598D01*
X102584772Y-109490879D01*
X102599754Y-109643000D01*
X102584772Y-109795121D01*
X102540398Y-109941402D01*
X102468345Y-110076204D01*
X102468343Y-110076207D01*
X102468342Y-110076208D01*
X102407020Y-110150928D01*
X102371369Y-110194369D01*
X102253204Y-110291345D01*
X102118402Y-110363398D01*
X101972121Y-110407772D01*
X101858118Y-110419000D01*
X101231882Y-110419000D01*
X101117879Y-110407772D01*
X100971598Y-110363398D01*
X100836796Y-110291345D01*
X100718631Y-110194369D01*
X100682980Y-110150928D01*
X100621658Y-110076208D01*
X100621657Y-110076207D01*
X100621655Y-110076204D01*
X100549602Y-109941402D01*
X100505228Y-109795121D01*
X100490246Y-109643000D01*
X100505228Y-109490879D01*
X100549602Y-109344598D01*
X100621655Y-109209796D01*
X100718633Y-109091628D01*
X100751430Y-109064712D01*
X100768757Y-109047385D01*
X100782370Y-109027011D01*
X100791748Y-109004372D01*
X100796528Y-108980339D01*
X100796528Y-108955835D01*
X100791748Y-108931801D01*
X100782370Y-108909163D01*
X100768756Y-108888788D01*
X100751429Y-108871461D01*
X100731055Y-108857848D01*
X100708416Y-108848470D01*
X100684383Y-108843690D01*
X100659879Y-108843690D01*
X100635845Y-108848470D01*
X100627351Y-108851510D01*
X100539421Y-108869000D01*
X100450579Y-108869000D01*
X100363448Y-108851669D01*
X100281373Y-108817672D01*
X100281372Y-108817672D01*
X100281371Y-108817671D01*
X100207504Y-108768314D01*
X100144686Y-108705496D01*
X100136562Y-108693337D01*
X100095328Y-108631627D01*
X100061331Y-108549552D01*
X100044000Y-108462421D01*
X100044000Y-108373579D01*
X100061331Y-108286448D01*
X100095328Y-108204373D01*
X100144685Y-108130505D01*
X100207505Y-108067685D01*
X100244187Y-108043175D01*
X100281371Y-108018329D01*
X100281373Y-108018328D01*
X100363448Y-107984331D01*
X100450579Y-107967000D01*
X100539421Y-107967000D01*
X100626552Y-107984331D01*
G37*
G36*
X98192715Y-109176058D02*
G01*
X98288753Y-109205191D01*
X98303935Y-109209796D01*
X98310722Y-109211855D01*
X98419468Y-109269981D01*
X98514790Y-109348210D01*
X98593019Y-109443532D01*
X98651145Y-109552278D01*
X98686942Y-109670285D01*
X98699028Y-109793000D01*
X98686942Y-109915715D01*
X98651145Y-110033722D01*
X98593019Y-110142468D01*
X98514790Y-110237790D01*
X98419468Y-110316019D01*
X98310722Y-110374145D01*
X98192715Y-110409942D01*
X98100746Y-110419000D01*
X97389254Y-110419000D01*
X97297285Y-110409942D01*
X97179278Y-110374145D01*
X97070532Y-110316019D01*
X96975210Y-110237790D01*
X96896981Y-110142468D01*
X96838855Y-110033722D01*
X96803058Y-109915715D01*
X96790972Y-109793000D01*
X96803058Y-109670285D01*
X96838855Y-109552278D01*
X96896981Y-109443532D01*
X96975210Y-109348210D01*
X97070532Y-109269981D01*
X97179278Y-109211855D01*
X97186066Y-109209796D01*
X97201247Y-109205191D01*
X97297285Y-109176058D01*
X97389254Y-109167000D01*
X98100746Y-109167000D01*
X98192715Y-109176058D01*
G37*
G36*
X113043562Y-108614181D02*
G01*
X113078481Y-108624774D01*
X113110663Y-108641976D01*
X113138873Y-108665127D01*
X113162024Y-108693337D01*
X113179226Y-108725519D01*
X113189819Y-108760438D01*
X113194000Y-108802895D01*
X113194000Y-109944105D01*
X113189819Y-109986562D01*
X113179226Y-110021481D01*
X113162024Y-110053663D01*
X113138873Y-110081873D01*
X113110663Y-110105024D01*
X113078481Y-110122226D01*
X113043562Y-110132819D01*
X113001105Y-110137000D01*
X111534895Y-110137000D01*
X111492438Y-110132819D01*
X111457519Y-110122226D01*
X111425337Y-110105024D01*
X111397127Y-110081873D01*
X111373976Y-110053663D01*
X111356774Y-110021481D01*
X111346181Y-109986562D01*
X111342000Y-109944105D01*
X111342000Y-108802895D01*
X111346181Y-108760438D01*
X111356774Y-108725519D01*
X111373976Y-108693337D01*
X111397127Y-108665127D01*
X111425337Y-108641976D01*
X111457519Y-108624774D01*
X111492438Y-108614181D01*
X111534895Y-108610000D01*
X113001105Y-108610000D01*
X113043562Y-108614181D01*
G37*
G36*
X130188562Y-108424181D02*
G01*
X130223481Y-108434774D01*
X130255663Y-108451976D01*
X130283873Y-108475127D01*
X130307024Y-108503337D01*
X130324226Y-108535519D01*
X130334819Y-108570438D01*
X130339000Y-108612895D01*
X130339000Y-109754105D01*
X130334819Y-109796562D01*
X130324226Y-109831481D01*
X130307024Y-109863663D01*
X130283873Y-109891873D01*
X130255663Y-109915024D01*
X130223481Y-109932226D01*
X130188562Y-109942819D01*
X130146105Y-109947000D01*
X128679895Y-109947000D01*
X128637438Y-109942819D01*
X128602519Y-109932226D01*
X128570337Y-109915024D01*
X128542127Y-109891873D01*
X128518976Y-109863663D01*
X128501774Y-109831481D01*
X128491181Y-109796562D01*
X128487000Y-109754105D01*
X128487000Y-108612895D01*
X128491181Y-108570438D01*
X128501774Y-108535519D01*
X128518976Y-108503337D01*
X128542127Y-108475127D01*
X128570337Y-108451976D01*
X128602519Y-108434774D01*
X128637438Y-108424181D01*
X128679895Y-108420000D01*
X130146105Y-108420000D01*
X130188562Y-108424181D01*
G37*
G36*
X127775562Y-108424181D02*
G01*
X127810481Y-108434774D01*
X127842663Y-108451976D01*
X127870873Y-108475127D01*
X127894024Y-108503337D01*
X127911226Y-108535519D01*
X127921819Y-108570438D01*
X127926000Y-108612895D01*
X127926000Y-109754105D01*
X127921819Y-109796562D01*
X127911226Y-109831481D01*
X127894024Y-109863663D01*
X127870873Y-109891873D01*
X127842663Y-109915024D01*
X127810481Y-109932226D01*
X127775562Y-109942819D01*
X127733105Y-109947000D01*
X126266895Y-109947000D01*
X126224438Y-109942819D01*
X126189519Y-109932226D01*
X126157337Y-109915024D01*
X126129127Y-109891873D01*
X126105976Y-109863663D01*
X126088774Y-109831481D01*
X126078181Y-109796562D01*
X126074000Y-109754105D01*
X126074000Y-108612895D01*
X126078181Y-108570438D01*
X126088774Y-108535519D01*
X126105976Y-108503337D01*
X126129127Y-108475127D01*
X126157337Y-108451976D01*
X126189519Y-108434774D01*
X126224438Y-108424181D01*
X126266895Y-108420000D01*
X127733105Y-108420000D01*
X127775562Y-108424181D01*
G37*
G36*
X125299562Y-108424181D02*
G01*
X125334481Y-108434774D01*
X125366663Y-108451976D01*
X125394873Y-108475127D01*
X125418024Y-108503337D01*
X125435226Y-108535519D01*
X125445819Y-108570438D01*
X125450000Y-108612895D01*
X125450000Y-109754105D01*
X125445819Y-109796562D01*
X125435226Y-109831481D01*
X125418024Y-109863663D01*
X125394873Y-109891873D01*
X125366663Y-109915024D01*
X125334481Y-109932226D01*
X125299562Y-109942819D01*
X125257105Y-109947000D01*
X123790895Y-109947000D01*
X123748438Y-109942819D01*
X123713519Y-109932226D01*
X123681337Y-109915024D01*
X123653127Y-109891873D01*
X123629976Y-109863663D01*
X123612774Y-109831481D01*
X123602181Y-109796562D01*
X123598000Y-109754105D01*
X123598000Y-108612895D01*
X123602181Y-108570438D01*
X123612774Y-108535519D01*
X123629976Y-108503337D01*
X123653127Y-108475127D01*
X123681337Y-108451976D01*
X123713519Y-108434774D01*
X123748438Y-108424181D01*
X123790895Y-108420000D01*
X125257105Y-108420000D01*
X125299562Y-108424181D01*
G37*
G36*
X102296000Y-107494000D02*
G01*
X100894000Y-107494000D01*
X100894000Y-104342000D01*
X102296000Y-104342000D01*
X102296000Y-107494000D01*
G37*
G36*
X107265562Y-105314181D02*
G01*
X107300481Y-105324774D01*
X107332663Y-105341976D01*
X107360873Y-105365127D01*
X107384024Y-105393337D01*
X107401226Y-105425519D01*
X107411819Y-105460438D01*
X107416000Y-105502895D01*
X107416000Y-106969105D01*
X107411819Y-107011562D01*
X107401226Y-107046481D01*
X107384024Y-107078663D01*
X107360873Y-107106873D01*
X107332663Y-107130024D01*
X107300481Y-107147226D01*
X107265562Y-107157819D01*
X107223105Y-107162000D01*
X106081895Y-107162000D01*
X106039438Y-107157819D01*
X106004519Y-107147226D01*
X105972337Y-107130024D01*
X105944127Y-107106873D01*
X105920976Y-107078663D01*
X105903774Y-107046481D01*
X105893181Y-107011562D01*
X105889000Y-106969105D01*
X105889000Y-105502895D01*
X105893181Y-105460438D01*
X105903774Y-105425519D01*
X105920976Y-105393337D01*
X105944127Y-105365127D01*
X105972337Y-105341976D01*
X106004519Y-105324774D01*
X106039438Y-105314181D01*
X106081895Y-105310000D01*
X107223105Y-105310000D01*
X107265562Y-105314181D01*
G37*
G36*
X110240562Y-105314181D02*
G01*
X110275481Y-105324774D01*
X110307663Y-105341976D01*
X110335873Y-105365127D01*
X110359024Y-105393337D01*
X110376226Y-105425519D01*
X110386819Y-105460438D01*
X110391000Y-105502895D01*
X110391000Y-106969105D01*
X110386819Y-107011562D01*
X110376226Y-107046481D01*
X110359024Y-107078663D01*
X110335873Y-107106873D01*
X110307663Y-107130024D01*
X110275481Y-107147226D01*
X110240562Y-107157819D01*
X110198105Y-107162000D01*
X109056895Y-107162000D01*
X109014438Y-107157819D01*
X108979519Y-107147226D01*
X108947337Y-107130024D01*
X108919127Y-107106873D01*
X108895976Y-107078663D01*
X108878774Y-107046481D01*
X108868181Y-107011562D01*
X108864000Y-106969105D01*
X108864000Y-105502895D01*
X108868181Y-105460438D01*
X108878774Y-105425519D01*
X108895976Y-105393337D01*
X108919127Y-105365127D01*
X108947337Y-105341976D01*
X108979519Y-105324774D01*
X109014438Y-105314181D01*
X109056895Y-105310000D01*
X110198105Y-105310000D01*
X110240562Y-105314181D01*
G37*
G36*
X113043562Y-105639181D02*
G01*
X113078481Y-105649774D01*
X113110663Y-105666976D01*
X113138873Y-105690127D01*
X113162024Y-105718337D01*
X113179226Y-105750519D01*
X113189819Y-105785438D01*
X113194000Y-105827895D01*
X113194000Y-106969105D01*
X113189819Y-107011562D01*
X113179226Y-107046481D01*
X113162024Y-107078663D01*
X113138873Y-107106873D01*
X113110663Y-107130024D01*
X113078481Y-107147226D01*
X113043562Y-107157819D01*
X113001105Y-107162000D01*
X111534895Y-107162000D01*
X111492438Y-107157819D01*
X111457519Y-107147226D01*
X111425337Y-107130024D01*
X111397127Y-107106873D01*
X111373976Y-107078663D01*
X111356774Y-107046481D01*
X111346181Y-107011562D01*
X111342000Y-106969105D01*
X111342000Y-105827895D01*
X111346181Y-105785438D01*
X111356774Y-105750519D01*
X111373976Y-105718337D01*
X111397127Y-105690127D01*
X111425337Y-105666976D01*
X111457519Y-105649774D01*
X111492438Y-105639181D01*
X111534895Y-105635000D01*
X113001105Y-105635000D01*
X113043562Y-105639181D01*
G37*
G36*
X115892928Y-105083764D02*
G01*
X115914009Y-105090160D01*
X115933445Y-105100548D01*
X115950476Y-105114524D01*
X115964452Y-105131555D01*
X115974840Y-105150991D01*
X115981236Y-105172072D01*
X115984000Y-105200140D01*
X115984000Y-107013860D01*
X115981236Y-107041928D01*
X115974840Y-107063009D01*
X115964452Y-107082445D01*
X115950476Y-107099476D01*
X115933445Y-107113452D01*
X115914009Y-107123840D01*
X115892928Y-107130236D01*
X115864860Y-107133000D01*
X115401140Y-107133000D01*
X115373072Y-107130236D01*
X115351991Y-107123840D01*
X115332555Y-107113452D01*
X115315524Y-107099476D01*
X115301548Y-107082445D01*
X115291160Y-107063009D01*
X115284764Y-107041928D01*
X115282000Y-107013860D01*
X115282000Y-105200140D01*
X115284764Y-105172072D01*
X115291160Y-105150991D01*
X115301548Y-105131555D01*
X115315524Y-105114524D01*
X115332555Y-105100548D01*
X115351991Y-105090160D01*
X115373072Y-105083764D01*
X115401140Y-105081000D01*
X115864860Y-105081000D01*
X115892928Y-105083764D01*
G37*
G36*
X114622928Y-105083764D02*
G01*
X114644009Y-105090160D01*
X114663445Y-105100548D01*
X114680476Y-105114524D01*
X114694452Y-105131555D01*
X114704840Y-105150991D01*
X114711236Y-105172072D01*
X114714000Y-105200140D01*
X114714000Y-107013860D01*
X114711236Y-107041928D01*
X114704840Y-107063009D01*
X114694452Y-107082445D01*
X114680476Y-107099476D01*
X114663445Y-107113452D01*
X114644009Y-107123840D01*
X114622928Y-107130236D01*
X114594860Y-107133000D01*
X114131140Y-107133000D01*
X114103072Y-107130236D01*
X114081991Y-107123840D01*
X114062555Y-107113452D01*
X114045524Y-107099476D01*
X114031548Y-107082445D01*
X114021160Y-107063009D01*
X114014764Y-107041928D01*
X114012000Y-107013860D01*
X114012000Y-105200140D01*
X114014764Y-105172072D01*
X114021160Y-105150991D01*
X114031548Y-105131555D01*
X114045524Y-105114524D01*
X114062555Y-105100548D01*
X114081991Y-105090160D01*
X114103072Y-105083764D01*
X114131140Y-105081000D01*
X114594860Y-105081000D01*
X114622928Y-105083764D01*
G37*
G36*
X117162928Y-105083764D02*
G01*
X117184009Y-105090160D01*
X117203445Y-105100548D01*
X117220476Y-105114524D01*
X117234452Y-105131555D01*
X117244840Y-105150991D01*
X117251236Y-105172072D01*
X117254000Y-105200140D01*
X117254000Y-107013860D01*
X117251236Y-107041928D01*
X117244840Y-107063009D01*
X117234452Y-107082445D01*
X117220476Y-107099476D01*
X117203445Y-107113452D01*
X117184009Y-107123840D01*
X117162928Y-107130236D01*
X117134860Y-107133000D01*
X116671140Y-107133000D01*
X116643072Y-107130236D01*
X116621991Y-107123840D01*
X116602555Y-107113452D01*
X116585524Y-107099476D01*
X116571548Y-107082445D01*
X116561160Y-107063009D01*
X116554764Y-107041928D01*
X116552000Y-107013860D01*
X116552000Y-105200140D01*
X116554764Y-105172072D01*
X116561160Y-105150991D01*
X116571548Y-105131555D01*
X116585524Y-105114524D01*
X116602555Y-105100548D01*
X116621991Y-105090160D01*
X116643072Y-105083764D01*
X116671140Y-105081000D01*
X117134860Y-105081000D01*
X117162928Y-105083764D01*
G37*
G36*
X118432928Y-105083764D02*
G01*
X118454009Y-105090160D01*
X118473445Y-105100548D01*
X118490476Y-105114524D01*
X118504452Y-105131555D01*
X118514840Y-105150991D01*
X118521236Y-105172072D01*
X118524000Y-105200140D01*
X118524000Y-107013860D01*
X118521236Y-107041928D01*
X118514840Y-107063009D01*
X118504452Y-107082445D01*
X118490476Y-107099476D01*
X118473445Y-107113452D01*
X118454009Y-107123840D01*
X118432928Y-107130236D01*
X118404860Y-107133000D01*
X117941140Y-107133000D01*
X117913072Y-107130236D01*
X117891991Y-107123840D01*
X117872555Y-107113452D01*
X117855524Y-107099476D01*
X117841548Y-107082445D01*
X117831160Y-107063009D01*
X117824764Y-107041928D01*
X117822000Y-107013860D01*
X117822000Y-105200140D01*
X117824764Y-105172072D01*
X117831160Y-105150991D01*
X117841548Y-105131555D01*
X117855524Y-105114524D01*
X117872555Y-105100548D01*
X117891991Y-105090160D01*
X117913072Y-105083764D01*
X117941140Y-105081000D01*
X118404860Y-105081000D01*
X118432928Y-105083764D01*
G37*
G36*
X121044562Y-105566181D02*
G01*
X121079481Y-105576774D01*
X121111663Y-105593976D01*
X121139873Y-105617127D01*
X121163024Y-105645337D01*
X121180226Y-105677519D01*
X121190819Y-105712438D01*
X121195000Y-105754895D01*
X121195000Y-106896105D01*
X121190819Y-106938562D01*
X121180226Y-106973481D01*
X121163024Y-107005663D01*
X121139873Y-107033873D01*
X121111663Y-107057024D01*
X121079481Y-107074226D01*
X121044562Y-107084819D01*
X121002105Y-107089000D01*
X119535895Y-107089000D01*
X119493438Y-107084819D01*
X119458519Y-107074226D01*
X119426337Y-107057024D01*
X119398127Y-107033873D01*
X119374976Y-107005663D01*
X119357774Y-106973481D01*
X119347181Y-106938562D01*
X119343000Y-106896105D01*
X119343000Y-105754895D01*
X119347181Y-105712438D01*
X119357774Y-105677519D01*
X119374976Y-105645337D01*
X119398127Y-105617127D01*
X119426337Y-105593976D01*
X119458519Y-105576774D01*
X119493438Y-105566181D01*
X119535895Y-105562000D01*
X121002105Y-105562000D01*
X121044562Y-105566181D01*
G37*
G36*
X130188562Y-105449181D02*
G01*
X130223481Y-105459774D01*
X130255663Y-105476976D01*
X130283873Y-105500127D01*
X130307024Y-105528337D01*
X130324226Y-105560519D01*
X130334819Y-105595438D01*
X130339000Y-105637895D01*
X130339000Y-106779105D01*
X130334819Y-106821562D01*
X130324226Y-106856481D01*
X130307024Y-106888663D01*
X130283873Y-106916873D01*
X130255663Y-106940024D01*
X130223481Y-106957226D01*
X130188562Y-106967819D01*
X130146105Y-106972000D01*
X128679895Y-106972000D01*
X128637438Y-106967819D01*
X128602519Y-106957226D01*
X128570337Y-106940024D01*
X128542127Y-106916873D01*
X128518976Y-106888663D01*
X128501774Y-106856481D01*
X128491181Y-106821562D01*
X128487000Y-106779105D01*
X128487000Y-105637895D01*
X128491181Y-105595438D01*
X128501774Y-105560519D01*
X128518976Y-105528337D01*
X128542127Y-105500127D01*
X128570337Y-105476976D01*
X128602519Y-105459774D01*
X128637438Y-105449181D01*
X128679895Y-105445000D01*
X130146105Y-105445000D01*
X130188562Y-105449181D01*
G37*
G36*
X125299562Y-105449181D02*
G01*
X125334481Y-105459774D01*
X125366663Y-105476976D01*
X125394873Y-105500127D01*
X125418024Y-105528337D01*
X125435226Y-105560519D01*
X125445819Y-105595438D01*
X125450000Y-105637895D01*
X125450000Y-106779105D01*
X125445819Y-106821562D01*
X125435226Y-106856481D01*
X125418024Y-106888663D01*
X125394873Y-106916873D01*
X125366663Y-106940024D01*
X125334481Y-106957226D01*
X125299562Y-106967819D01*
X125257105Y-106972000D01*
X123790895Y-106972000D01*
X123748438Y-106967819D01*
X123713519Y-106957226D01*
X123681337Y-106940024D01*
X123653127Y-106916873D01*
X123629976Y-106888663D01*
X123612774Y-106856481D01*
X123602181Y-106821562D01*
X123598000Y-106779105D01*
X123598000Y-105637895D01*
X123602181Y-105595438D01*
X123612774Y-105560519D01*
X123629976Y-105528337D01*
X123653127Y-105500127D01*
X123681337Y-105476976D01*
X123713519Y-105459774D01*
X123748438Y-105449181D01*
X123790895Y-105445000D01*
X125257105Y-105445000D01*
X125299562Y-105449181D01*
G37*
G36*
X127775562Y-105449181D02*
G01*
X127810481Y-105459774D01*
X127842663Y-105476976D01*
X127870873Y-105500127D01*
X127894024Y-105528337D01*
X127911226Y-105560519D01*
X127921819Y-105595438D01*
X127926000Y-105637895D01*
X127926000Y-106779105D01*
X127921819Y-106821562D01*
X127911226Y-106856481D01*
X127894024Y-106888663D01*
X127870873Y-106916873D01*
X127842663Y-106940024D01*
X127810481Y-106957226D01*
X127775562Y-106967819D01*
X127733105Y-106972000D01*
X126266895Y-106972000D01*
X126224438Y-106967819D01*
X126189519Y-106957226D01*
X126157337Y-106940024D01*
X126129127Y-106916873D01*
X126105976Y-106888663D01*
X126088774Y-106856481D01*
X126078181Y-106821562D01*
X126074000Y-106779105D01*
X126074000Y-105637895D01*
X126078181Y-105595438D01*
X126088774Y-105560519D01*
X126105976Y-105528337D01*
X126129127Y-105500127D01*
X126157337Y-105476976D01*
X126189519Y-105459774D01*
X126224438Y-105449181D01*
X126266895Y-105445000D01*
X127733105Y-105445000D01*
X127775562Y-105449181D01*
G37*
G36*
X153115331Y-103083711D02*
G01*
X153443092Y-103219474D01*
X153738070Y-103416572D01*
X153988928Y-103667430D01*
X154186026Y-103962408D01*
X154321789Y-104290169D01*
X154391000Y-104638116D01*
X154391000Y-104992884D01*
X154321789Y-105340831D01*
X154186026Y-105668592D01*
X153988928Y-105963570D01*
X153738070Y-106214428D01*
X153443092Y-106411526D01*
X153115331Y-106547289D01*
X152767384Y-106616500D01*
X152412616Y-106616500D01*
X152064669Y-106547289D01*
X151736908Y-106411526D01*
X151441930Y-106214428D01*
X151191072Y-105963570D01*
X150993974Y-105668592D01*
X150858211Y-105340831D01*
X150789000Y-104992884D01*
X150789000Y-104638116D01*
X150858211Y-104290169D01*
X150993974Y-103962408D01*
X151191072Y-103667430D01*
X151441930Y-103416572D01*
X151736908Y-103219474D01*
X152064669Y-103083711D01*
X152412616Y-103014500D01*
X152767384Y-103014500D01*
X153115331Y-103083711D01*
G37*
G36*
X110240562Y-102900181D02*
G01*
X110275481Y-102910774D01*
X110307663Y-102927976D01*
X110335873Y-102951127D01*
X110359024Y-102979337D01*
X110376226Y-103011519D01*
X110386819Y-103046438D01*
X110391000Y-103088895D01*
X110391000Y-104555105D01*
X110386819Y-104597562D01*
X110376226Y-104632481D01*
X110359024Y-104664663D01*
X110335873Y-104692873D01*
X110307663Y-104716024D01*
X110275481Y-104733226D01*
X110240562Y-104743819D01*
X110198105Y-104748000D01*
X109056895Y-104748000D01*
X109014438Y-104743819D01*
X108979519Y-104733226D01*
X108947337Y-104716024D01*
X108919127Y-104692873D01*
X108895976Y-104664663D01*
X108878774Y-104632481D01*
X108868181Y-104597562D01*
X108864000Y-104555105D01*
X108864000Y-103088895D01*
X108868181Y-103046438D01*
X108878774Y-103011519D01*
X108895976Y-102979337D01*
X108919127Y-102951127D01*
X108947337Y-102927976D01*
X108979519Y-102910774D01*
X109014438Y-102900181D01*
X109056895Y-102896000D01*
X110198105Y-102896000D01*
X110240562Y-102900181D01*
G37*
G36*
X107265562Y-102900181D02*
G01*
X107300481Y-102910774D01*
X107332663Y-102927976D01*
X107360873Y-102951127D01*
X107384024Y-102979337D01*
X107401226Y-103011519D01*
X107411819Y-103046438D01*
X107416000Y-103088895D01*
X107416000Y-104555105D01*
X107411819Y-104597562D01*
X107401226Y-104632481D01*
X107384024Y-104664663D01*
X107360873Y-104692873D01*
X107332663Y-104716024D01*
X107300481Y-104733226D01*
X107265562Y-104743819D01*
X107223105Y-104748000D01*
X106081895Y-104748000D01*
X106039438Y-104743819D01*
X106004519Y-104733226D01*
X105972337Y-104716024D01*
X105944127Y-104692873D01*
X105920976Y-104664663D01*
X105903774Y-104632481D01*
X105893181Y-104597562D01*
X105889000Y-104555105D01*
X105889000Y-103088895D01*
X105893181Y-103046438D01*
X105903774Y-103011519D01*
X105920976Y-102979337D01*
X105944127Y-102951127D01*
X105972337Y-102927976D01*
X106004519Y-102910774D01*
X106039438Y-102900181D01*
X106081895Y-102896000D01*
X107223105Y-102896000D01*
X107265562Y-102900181D01*
G37*
G36*
X130608564Y-102557389D02*
G01*
X130799833Y-102636615D01*
X130799835Y-102636616D01*
X130971973Y-102751635D01*
X131118365Y-102898027D01*
X131231728Y-103067686D01*
X131233385Y-103070167D01*
X131312611Y-103261436D01*
X131353000Y-103464484D01*
X131353000Y-103671516D01*
X131312611Y-103874564D01*
X131281934Y-103948624D01*
X131233384Y-104065835D01*
X131118365Y-104237973D01*
X130971973Y-104384365D01*
X130799835Y-104499384D01*
X130799834Y-104499385D01*
X130799833Y-104499385D01*
X130608564Y-104578611D01*
X130405516Y-104619000D01*
X130198484Y-104619000D01*
X129995436Y-104578611D01*
X129804167Y-104499385D01*
X129804166Y-104499385D01*
X129804165Y-104499384D01*
X129632027Y-104384365D01*
X129485635Y-104237973D01*
X129370616Y-104065835D01*
X129322066Y-103948624D01*
X129291389Y-103874564D01*
X129251000Y-103671516D01*
X129251000Y-103464484D01*
X129291389Y-103261436D01*
X129370615Y-103070167D01*
X129372273Y-103067686D01*
X129485635Y-102898027D01*
X129632027Y-102751635D01*
X129804165Y-102636616D01*
X129804167Y-102636615D01*
X129995436Y-102557389D01*
X130198484Y-102517000D01*
X130405516Y-102517000D01*
X130608564Y-102557389D01*
G37*
G36*
X124108564Y-102557389D02*
G01*
X124299833Y-102636615D01*
X124299835Y-102636616D01*
X124471973Y-102751635D01*
X124618365Y-102898027D01*
X124731728Y-103067686D01*
X124733385Y-103070167D01*
X124812611Y-103261436D01*
X124853000Y-103464484D01*
X124853000Y-103671516D01*
X124812611Y-103874564D01*
X124781934Y-103948624D01*
X124733384Y-104065835D01*
X124618365Y-104237973D01*
X124471973Y-104384365D01*
X124299835Y-104499384D01*
X124299834Y-104499385D01*
X124299833Y-104499385D01*
X124108564Y-104578611D01*
X123905516Y-104619000D01*
X123698484Y-104619000D01*
X123495436Y-104578611D01*
X123304167Y-104499385D01*
X123304166Y-104499385D01*
X123304165Y-104499384D01*
X123132027Y-104384365D01*
X122985635Y-104237973D01*
X122870616Y-104065835D01*
X122822066Y-103948624D01*
X122791389Y-103874564D01*
X122751000Y-103671516D01*
X122751000Y-103464484D01*
X122791389Y-103261436D01*
X122870615Y-103070167D01*
X122872273Y-103067686D01*
X122985635Y-102898027D01*
X123132027Y-102751635D01*
X123304165Y-102636616D01*
X123304167Y-102636615D01*
X123495436Y-102557389D01*
X123698484Y-102517000D01*
X123905516Y-102517000D01*
X124108564Y-102557389D01*
G37*
G36*
X121044562Y-102591181D02*
G01*
X121079481Y-102601774D01*
X121111663Y-102618976D01*
X121139873Y-102642127D01*
X121163024Y-102670337D01*
X121180226Y-102702519D01*
X121190819Y-102737438D01*
X121195000Y-102779895D01*
X121195000Y-103921105D01*
X121190819Y-103963562D01*
X121180226Y-103998481D01*
X121163024Y-104030663D01*
X121139873Y-104058873D01*
X121111663Y-104082024D01*
X121079481Y-104099226D01*
X121044562Y-104109819D01*
X121002105Y-104114000D01*
X119535895Y-104114000D01*
X119493438Y-104109819D01*
X119458519Y-104099226D01*
X119426337Y-104082024D01*
X119398127Y-104058873D01*
X119374976Y-104030663D01*
X119357774Y-103998481D01*
X119347181Y-103963562D01*
X119343000Y-103921105D01*
X119343000Y-102779895D01*
X119347181Y-102737438D01*
X119357774Y-102702519D01*
X119374976Y-102670337D01*
X119398127Y-102642127D01*
X119426337Y-102618976D01*
X119458519Y-102601774D01*
X119493438Y-102591181D01*
X119535895Y-102587000D01*
X121002105Y-102587000D01*
X121044562Y-102591181D01*
G37*
G36*
X140842000Y-103948000D02*
G01*
X138240000Y-103948000D01*
X138240000Y-102046000D01*
X140842000Y-102046000D01*
X140842000Y-103948000D01*
G37*
G36*
X136842000Y-103948000D02*
G01*
X134240000Y-103948000D01*
X134240000Y-102046000D01*
X136842000Y-102046000D01*
X136842000Y-103948000D01*
G37*
G36*
X101972121Y-101428228D02*
G01*
X102118402Y-101472602D01*
X102253204Y-101544655D01*
X102253207Y-101544657D01*
X102253208Y-101544658D01*
X102371369Y-101641631D01*
X102413963Y-101693531D01*
X102468345Y-101759796D01*
X102540398Y-101894598D01*
X102584772Y-102040879D01*
X102599754Y-102193000D01*
X102584772Y-102345121D01*
X102540398Y-102491402D01*
X102468345Y-102626204D01*
X102468343Y-102626207D01*
X102468342Y-102626208D01*
X102371369Y-102744369D01*
X102279116Y-102820080D01*
X102253204Y-102841345D01*
X102118402Y-102913398D01*
X101972121Y-102957772D01*
X101858118Y-102969000D01*
X101231882Y-102969000D01*
X101117879Y-102957772D01*
X100965664Y-102911598D01*
X100954439Y-102906948D01*
X100930405Y-102902167D01*
X100905901Y-102902167D01*
X100881868Y-102906946D01*
X100859229Y-102916323D01*
X100838854Y-102929936D01*
X100821527Y-102947263D01*
X100807912Y-102967637D01*
X100798534Y-102990275D01*
X100793753Y-103014309D01*
X100793753Y-103038813D01*
X100798532Y-103062846D01*
X100807909Y-103085485D01*
X100821522Y-103105860D01*
X100829762Y-103114952D01*
X100845315Y-103130505D01*
X100894672Y-103204373D01*
X100928669Y-103286448D01*
X100946000Y-103373579D01*
X100946000Y-103462421D01*
X100928669Y-103549552D01*
X100894672Y-103631627D01*
X100894671Y-103631629D01*
X100845314Y-103705496D01*
X100782496Y-103768314D01*
X100708629Y-103817671D01*
X100708628Y-103817672D01*
X100708627Y-103817672D01*
X100626552Y-103851669D01*
X100539421Y-103869000D01*
X100450579Y-103869000D01*
X100363448Y-103851669D01*
X100281373Y-103817672D01*
X100281372Y-103817672D01*
X100281371Y-103817671D01*
X100207504Y-103768314D01*
X100144686Y-103705496D01*
X100095329Y-103631629D01*
X100095328Y-103631627D01*
X100061331Y-103549552D01*
X100044000Y-103462421D01*
X100044000Y-103373579D01*
X100061331Y-103286448D01*
X100095328Y-103204373D01*
X100144685Y-103130505D01*
X100207505Y-103067685D01*
X100250715Y-103038813D01*
X100281371Y-103018329D01*
X100281373Y-103018328D01*
X100363448Y-102984331D01*
X100450579Y-102967000D01*
X100539421Y-102967000D01*
X100628946Y-102984807D01*
X100647743Y-102990510D01*
X100672129Y-102992912D01*
X100696515Y-102990511D01*
X100719964Y-102983398D01*
X100741575Y-102971847D01*
X100760517Y-102956302D01*
X100776063Y-102937361D01*
X100787614Y-102915750D01*
X100794728Y-102892301D01*
X100797130Y-102867915D01*
X100794729Y-102843529D01*
X100787616Y-102820080D01*
X100776065Y-102798469D01*
X100760520Y-102779527D01*
X100751430Y-102771288D01*
X100718633Y-102744372D01*
X100649342Y-102659941D01*
X100621658Y-102626208D01*
X100621657Y-102626207D01*
X100621655Y-102626204D01*
X100549602Y-102491402D01*
X100505228Y-102345121D01*
X100490246Y-102193000D01*
X100505228Y-102040879D01*
X100549602Y-101894598D01*
X100621655Y-101759796D01*
X100676038Y-101693531D01*
X100718631Y-101641631D01*
X100836792Y-101544658D01*
X100836793Y-101544657D01*
X100836796Y-101544655D01*
X100971598Y-101472602D01*
X101117879Y-101428228D01*
X101231882Y-101417000D01*
X101858118Y-101417000D01*
X101972121Y-101428228D01*
G37*
G36*
X98192715Y-101426058D02*
G01*
X98310722Y-101461855D01*
X98419468Y-101519981D01*
X98514790Y-101598210D01*
X98593019Y-101693532D01*
X98651145Y-101802278D01*
X98686942Y-101920285D01*
X98699028Y-102043000D01*
X98686942Y-102165715D01*
X98651145Y-102283722D01*
X98593019Y-102392468D01*
X98514790Y-102487790D01*
X98419468Y-102566019D01*
X98310722Y-102624145D01*
X98310719Y-102624146D01*
X98303921Y-102626208D01*
X98192715Y-102659942D01*
X98100746Y-102669000D01*
X97389254Y-102669000D01*
X97297285Y-102659942D01*
X97186079Y-102626208D01*
X97179281Y-102624146D01*
X97179278Y-102624145D01*
X97070532Y-102566019D01*
X96975210Y-102487790D01*
X96896981Y-102392468D01*
X96838855Y-102283722D01*
X96803058Y-102165715D01*
X96790972Y-102043000D01*
X96803058Y-101920285D01*
X96838855Y-101802278D01*
X96896981Y-101693532D01*
X96975210Y-101598210D01*
X97070532Y-101519981D01*
X97179278Y-101461855D01*
X97297285Y-101426058D01*
X97389254Y-101417000D01*
X98100746Y-101417000D01*
X98192715Y-101426058D01*
G37*
G36*
X115892928Y-100133764D02*
G01*
X115914009Y-100140160D01*
X115933445Y-100150548D01*
X115950476Y-100164524D01*
X115964452Y-100181555D01*
X115974840Y-100200991D01*
X115981236Y-100222072D01*
X115984000Y-100250140D01*
X115984000Y-102063860D01*
X115981236Y-102091928D01*
X115974840Y-102113009D01*
X115964452Y-102132445D01*
X115950476Y-102149476D01*
X115933445Y-102163452D01*
X115914009Y-102173840D01*
X115892928Y-102180236D01*
X115864860Y-102183000D01*
X115401140Y-102183000D01*
X115373072Y-102180236D01*
X115351991Y-102173840D01*
X115332555Y-102163452D01*
X115315524Y-102149476D01*
X115301548Y-102132445D01*
X115291160Y-102113009D01*
X115284764Y-102091928D01*
X115282000Y-102063860D01*
X115282000Y-100250140D01*
X115284764Y-100222072D01*
X115291160Y-100200991D01*
X115301548Y-100181555D01*
X115315524Y-100164524D01*
X115332555Y-100150548D01*
X115351991Y-100140160D01*
X115373072Y-100133764D01*
X115401140Y-100131000D01*
X115864860Y-100131000D01*
X115892928Y-100133764D01*
G37*
G36*
X114622928Y-100133764D02*
G01*
X114644009Y-100140160D01*
X114663445Y-100150548D01*
X114680476Y-100164524D01*
X114694452Y-100181555D01*
X114704840Y-100200991D01*
X114711236Y-100222072D01*
X114714000Y-100250140D01*
X114714000Y-102063860D01*
X114711236Y-102091928D01*
X114704840Y-102113009D01*
X114694452Y-102132445D01*
X114680476Y-102149476D01*
X114663445Y-102163452D01*
X114644009Y-102173840D01*
X114622928Y-102180236D01*
X114594860Y-102183000D01*
X114131140Y-102183000D01*
X114103072Y-102180236D01*
X114081991Y-102173840D01*
X114062555Y-102163452D01*
X114045524Y-102149476D01*
X114031548Y-102132445D01*
X114021160Y-102113009D01*
X114014764Y-102091928D01*
X114012000Y-102063860D01*
X114012000Y-100250140D01*
X114014764Y-100222072D01*
X114021160Y-100200991D01*
X114031548Y-100181555D01*
X114045524Y-100164524D01*
X114062555Y-100150548D01*
X114081991Y-100140160D01*
X114103072Y-100133764D01*
X114131140Y-100131000D01*
X114594860Y-100131000D01*
X114622928Y-100133764D01*
G37*
G36*
X118432928Y-100133764D02*
G01*
X118454009Y-100140160D01*
X118473445Y-100150548D01*
X118490476Y-100164524D01*
X118504452Y-100181555D01*
X118514840Y-100200991D01*
X118521236Y-100222072D01*
X118524000Y-100250140D01*
X118524000Y-102063860D01*
X118521236Y-102091928D01*
X118514840Y-102113009D01*
X118504452Y-102132445D01*
X118490476Y-102149476D01*
X118473445Y-102163452D01*
X118454009Y-102173840D01*
X118432928Y-102180236D01*
X118404860Y-102183000D01*
X117941140Y-102183000D01*
X117913072Y-102180236D01*
X117891991Y-102173840D01*
X117872555Y-102163452D01*
X117855524Y-102149476D01*
X117841548Y-102132445D01*
X117831160Y-102113009D01*
X117824764Y-102091928D01*
X117822000Y-102063860D01*
X117822000Y-100250140D01*
X117824764Y-100222072D01*
X117831160Y-100200991D01*
X117841548Y-100181555D01*
X117855524Y-100164524D01*
X117872555Y-100150548D01*
X117891991Y-100140160D01*
X117913072Y-100133764D01*
X117941140Y-100131000D01*
X118404860Y-100131000D01*
X118432928Y-100133764D01*
G37*
G36*
X117162928Y-100133764D02*
G01*
X117184009Y-100140160D01*
X117203445Y-100150548D01*
X117220476Y-100164524D01*
X117234452Y-100181555D01*
X117244840Y-100200991D01*
X117251236Y-100222072D01*
X117254000Y-100250140D01*
X117254000Y-102063860D01*
X117251236Y-102091928D01*
X117244840Y-102113009D01*
X117234452Y-102132445D01*
X117220476Y-102149476D01*
X117203445Y-102163452D01*
X117184009Y-102173840D01*
X117162928Y-102180236D01*
X117134860Y-102183000D01*
X116671140Y-102183000D01*
X116643072Y-102180236D01*
X116621991Y-102173840D01*
X116602555Y-102163452D01*
X116585524Y-102149476D01*
X116571548Y-102132445D01*
X116561160Y-102113009D01*
X116554764Y-102091928D01*
X116552000Y-102063860D01*
X116552000Y-100250140D01*
X116554764Y-100222072D01*
X116561160Y-100200991D01*
X116571548Y-100181555D01*
X116585524Y-100164524D01*
X116602555Y-100150548D01*
X116621991Y-100140160D01*
X116643072Y-100133764D01*
X116671140Y-100131000D01*
X117134860Y-100131000D01*
X117162928Y-100133764D01*
G37*
G36*
X140555000Y-100474000D02*
G01*
X134653000Y-100474000D01*
X134653000Y-93972000D01*
X140555000Y-93972000D01*
X140555000Y-100474000D01*
G37*
G36*
X108044866Y-96768695D02*
G01*
X108201960Y-96816349D01*
X108346731Y-96893731D01*
X108473628Y-96997872D01*
X108577769Y-97124769D01*
X108655151Y-97269540D01*
X108702805Y-97426634D01*
X108719500Y-97596140D01*
X108719500Y-99509860D01*
X108702805Y-99679366D01*
X108655151Y-99836460D01*
X108577769Y-99981231D01*
X108473628Y-100108128D01*
X108346731Y-100212269D01*
X108201960Y-100289651D01*
X108044866Y-100337305D01*
X107875360Y-100354000D01*
X105961640Y-100354000D01*
X105792134Y-100337305D01*
X105635040Y-100289651D01*
X105490269Y-100212269D01*
X105363372Y-100108128D01*
X105259231Y-99981231D01*
X105181849Y-99836460D01*
X105134195Y-99679366D01*
X105117500Y-99509860D01*
X105117500Y-97596140D01*
X105134195Y-97426634D01*
X105181849Y-97269540D01*
X105259231Y-97124769D01*
X105363372Y-96997872D01*
X105490269Y-96893731D01*
X105635040Y-96816349D01*
X105792134Y-96768695D01*
X105961640Y-96752000D01*
X107875360Y-96752000D01*
X108044866Y-96768695D01*
G37*
G36*
X124108564Y-98057389D02*
G01*
X124299833Y-98136615D01*
X124299835Y-98136616D01*
X124471973Y-98251635D01*
X124618365Y-98398027D01*
X124733385Y-98570167D01*
X124812611Y-98761436D01*
X124853000Y-98964484D01*
X124853000Y-99171516D01*
X124812611Y-99374564D01*
X124733385Y-99565833D01*
X124733384Y-99565835D01*
X124618365Y-99737973D01*
X124471973Y-99884365D01*
X124299835Y-99999384D01*
X124299834Y-99999385D01*
X124299833Y-99999385D01*
X124108564Y-100078611D01*
X123905516Y-100119000D01*
X123698484Y-100119000D01*
X123495436Y-100078611D01*
X123304167Y-99999385D01*
X123304166Y-99999385D01*
X123304165Y-99999384D01*
X123132027Y-99884365D01*
X122985635Y-99737973D01*
X122870616Y-99565835D01*
X122870615Y-99565833D01*
X122791389Y-99374564D01*
X122751000Y-99171516D01*
X122751000Y-98964484D01*
X122791389Y-98761436D01*
X122870615Y-98570167D01*
X122985635Y-98398027D01*
X123132027Y-98251635D01*
X123304165Y-98136616D01*
X123304167Y-98136615D01*
X123495436Y-98057389D01*
X123698484Y-98017000D01*
X123905516Y-98017000D01*
X124108564Y-98057389D01*
G37*
G36*
X130608564Y-98057389D02*
G01*
X130799833Y-98136615D01*
X130799835Y-98136616D01*
X130971973Y-98251635D01*
X131118365Y-98398027D01*
X131233385Y-98570167D01*
X131312611Y-98761436D01*
X131353000Y-98964484D01*
X131353000Y-99171516D01*
X131312611Y-99374564D01*
X131233385Y-99565833D01*
X131233384Y-99565835D01*
X131118365Y-99737973D01*
X130971973Y-99884365D01*
X130799835Y-99999384D01*
X130799834Y-99999385D01*
X130799833Y-99999385D01*
X130608564Y-100078611D01*
X130405516Y-100119000D01*
X130198484Y-100119000D01*
X129995436Y-100078611D01*
X129804167Y-99999385D01*
X129804166Y-99999385D01*
X129804165Y-99999384D01*
X129632027Y-99884365D01*
X129485635Y-99737973D01*
X129370616Y-99565835D01*
X129370615Y-99565833D01*
X129291389Y-99374564D01*
X129251000Y-99171516D01*
X129251000Y-98964484D01*
X129291389Y-98761436D01*
X129370615Y-98570167D01*
X129485635Y-98398027D01*
X129632027Y-98251635D01*
X129804165Y-98136616D01*
X129804167Y-98136615D01*
X129995436Y-98057389D01*
X130198484Y-98017000D01*
X130405516Y-98017000D01*
X130608564Y-98057389D01*
G37*
G36*
X130880997Y-94125051D02*
G01*
X130914652Y-94135261D01*
X130945665Y-94151838D01*
X130972851Y-94174149D01*
X130995162Y-94201335D01*
X131011739Y-94232348D01*
X131021949Y-94266003D01*
X131026000Y-94307138D01*
X131026000Y-97036862D01*
X131021949Y-97077997D01*
X131011739Y-97111652D01*
X130995162Y-97142665D01*
X130972851Y-97169851D01*
X130945665Y-97192162D01*
X130914652Y-97208739D01*
X130880997Y-97218949D01*
X130839862Y-97223000D01*
X129510138Y-97223000D01*
X129469003Y-97218949D01*
X129435348Y-97208739D01*
X129404335Y-97192162D01*
X129377149Y-97169851D01*
X129354838Y-97142665D01*
X129338261Y-97111652D01*
X129328051Y-97077997D01*
X129324000Y-97036862D01*
X129324000Y-94307138D01*
X129328051Y-94266003D01*
X129338261Y-94232348D01*
X129354838Y-94201335D01*
X129377149Y-94174149D01*
X129404335Y-94151838D01*
X129435348Y-94135261D01*
X129469003Y-94125051D01*
X129510138Y-94121000D01*
X130839862Y-94121000D01*
X130880997Y-94125051D01*
G37*
G36*
X145167997Y-94061551D02*
G01*
X145201652Y-94071761D01*
X145232665Y-94088338D01*
X145259851Y-94110649D01*
X145282162Y-94137835D01*
X145298739Y-94168848D01*
X145308949Y-94202503D01*
X145313000Y-94243638D01*
X145313000Y-96973362D01*
X145308949Y-97014497D01*
X145298739Y-97048152D01*
X145282162Y-97079165D01*
X145259851Y-97106351D01*
X145232665Y-97128662D01*
X145201652Y-97145239D01*
X145167997Y-97155449D01*
X145126862Y-97159500D01*
X143797138Y-97159500D01*
X143756003Y-97155449D01*
X143722348Y-97145239D01*
X143691335Y-97128662D01*
X143664149Y-97106351D01*
X143641838Y-97079165D01*
X143625261Y-97048152D01*
X143615051Y-97014497D01*
X143611000Y-96973362D01*
X143611000Y-94243638D01*
X143615051Y-94202503D01*
X143625261Y-94168848D01*
X143641838Y-94137835D01*
X143664149Y-94110649D01*
X143691335Y-94088338D01*
X143722348Y-94071761D01*
X143756003Y-94061551D01*
X143797138Y-94057500D01*
X145126862Y-94057500D01*
X145167997Y-94061551D01*
G37*
G36*
X121103000Y-96423000D02*
G01*
X114601000Y-96423000D01*
X114601000Y-90521000D01*
X121103000Y-90521000D01*
X121103000Y-96423000D01*
G37*
G36*
X125303000Y-96403000D02*
G01*
X123001000Y-96403000D01*
X123001000Y-95101000D01*
X125303000Y-95101000D01*
X125303000Y-96403000D01*
G37*
G36*
X104895479Y-92066293D02*
G01*
X105029125Y-92106834D01*
X105152284Y-92172664D01*
X105260240Y-92261260D01*
X105348836Y-92369216D01*
X105414666Y-92492375D01*
X105455207Y-92626021D01*
X105469500Y-92771140D01*
X105469500Y-94934860D01*
X105455207Y-95079979D01*
X105414666Y-95213625D01*
X105348836Y-95336784D01*
X105260240Y-95444740D01*
X105152284Y-95533336D01*
X105029125Y-95599166D01*
X104895479Y-95639707D01*
X104750360Y-95654000D01*
X103086640Y-95654000D01*
X102941521Y-95639707D01*
X102807875Y-95599166D01*
X102684716Y-95533336D01*
X102576760Y-95444740D01*
X102488164Y-95336784D01*
X102422334Y-95213625D01*
X102381793Y-95079979D01*
X102367500Y-94934860D01*
X102367500Y-92771140D01*
X102381793Y-92626021D01*
X102422334Y-92492375D01*
X102488164Y-92369216D01*
X102576760Y-92261260D01*
X102684716Y-92172664D01*
X102807875Y-92106834D01*
X102941521Y-92066293D01*
X103086640Y-92052000D01*
X104750360Y-92052000D01*
X104895479Y-92066293D01*
G37*
G36*
X111719500Y-95654000D02*
G01*
X108117500Y-95654000D01*
X108117500Y-92052000D01*
X111719500Y-92052000D01*
X111719500Y-95654000D01*
G37*
G36*
X130880997Y-89725051D02*
G01*
X130914652Y-89735261D01*
X130945665Y-89751838D01*
X130972851Y-89774149D01*
X130995162Y-89801335D01*
X131011739Y-89832348D01*
X131021949Y-89866003D01*
X131026000Y-89907138D01*
X131026000Y-92636862D01*
X131021949Y-92677997D01*
X131011739Y-92711652D01*
X130995162Y-92742665D01*
X130972851Y-92769851D01*
X130945665Y-92792162D01*
X130914652Y-92808739D01*
X130880997Y-92818949D01*
X130839862Y-92823000D01*
X129510138Y-92823000D01*
X129469003Y-92818949D01*
X129435348Y-92808739D01*
X129404335Y-92792162D01*
X129377149Y-92769851D01*
X129354838Y-92742665D01*
X129338261Y-92711652D01*
X129328051Y-92677997D01*
X129324000Y-92636862D01*
X129324000Y-89907138D01*
X129328051Y-89866003D01*
X129338261Y-89832348D01*
X129354838Y-89801335D01*
X129377149Y-89774149D01*
X129404335Y-89751838D01*
X129435348Y-89735261D01*
X129469003Y-89725051D01*
X129510138Y-89721000D01*
X130839862Y-89721000D01*
X130880997Y-89725051D01*
G37*
G36*
X145167997Y-89661551D02*
G01*
X145201652Y-89671761D01*
X145232665Y-89688338D01*
X145259851Y-89710649D01*
X145282162Y-89737835D01*
X145298739Y-89768848D01*
X145308949Y-89802503D01*
X145313000Y-89843638D01*
X145313000Y-92573362D01*
X145308949Y-92614497D01*
X145298739Y-92648152D01*
X145282162Y-92679165D01*
X145259851Y-92706351D01*
X145232665Y-92728662D01*
X145201652Y-92745239D01*
X145167997Y-92755449D01*
X145126862Y-92759500D01*
X143797138Y-92759500D01*
X143756003Y-92755449D01*
X143722348Y-92745239D01*
X143691335Y-92728662D01*
X143664149Y-92706351D01*
X143641838Y-92679165D01*
X143625261Y-92648152D01*
X143615051Y-92614497D01*
X143611000Y-92573362D01*
X143611000Y-89843638D01*
X143615051Y-89802503D01*
X143625261Y-89768848D01*
X143641838Y-89737835D01*
X143664149Y-89710649D01*
X143691335Y-89688338D01*
X143722348Y-89671761D01*
X143756003Y-89661551D01*
X143797138Y-89657500D01*
X145126862Y-89657500D01*
X145167997Y-89661551D01*
G37*
G36*
X138255000Y-92074000D02*
G01*
X136953000Y-92074000D01*
X136953000Y-89772000D01*
X138255000Y-89772000D01*
X138255000Y-92074000D01*
G37*
G36*
X140535000Y-92074000D02*
G01*
X139233000Y-92074000D01*
X139233000Y-89772000D01*
X140535000Y-89772000D01*
X140535000Y-92074000D01*
G37*
G36*
X135975000Y-92074000D02*
G01*
X134673000Y-92074000D01*
X134673000Y-89772000D01*
X135975000Y-89772000D01*
X135975000Y-92074000D01*
G37*
G36*
X125303000Y-91843000D02*
G01*
X123001000Y-91843000D01*
X123001000Y-90541000D01*
X125303000Y-90541000D01*
X125303000Y-91843000D01*
G37*
G36*
X149422997Y-85298551D02*
G01*
X149456652Y-85308761D01*
X149487665Y-85325338D01*
X149514851Y-85347649D01*
X149537162Y-85374835D01*
X149553739Y-85405848D01*
X149563949Y-85439503D01*
X149568000Y-85480638D01*
X149568000Y-88210362D01*
X149563949Y-88251497D01*
X149553739Y-88285152D01*
X149537162Y-88316165D01*
X149514851Y-88343351D01*
X149487665Y-88365662D01*
X149456652Y-88382239D01*
X149422997Y-88392449D01*
X149381862Y-88396500D01*
X148052138Y-88396500D01*
X148011003Y-88392449D01*
X147977348Y-88382239D01*
X147946335Y-88365662D01*
X147919149Y-88343351D01*
X147896838Y-88316165D01*
X147880261Y-88285152D01*
X147870051Y-88251497D01*
X147866000Y-88210362D01*
X147866000Y-85480638D01*
X147870051Y-85439503D01*
X147880261Y-85405848D01*
X147896838Y-85374835D01*
X147919149Y-85347649D01*
X147946335Y-85325338D01*
X147977348Y-85308761D01*
X148011003Y-85298551D01*
X148052138Y-85294500D01*
X149381862Y-85294500D01*
X149422997Y-85298551D01*
G37*
G36*
X130753997Y-85108051D02*
G01*
X130787652Y-85118261D01*
X130818665Y-85134838D01*
X130845851Y-85157149D01*
X130868162Y-85184335D01*
X130884739Y-85215348D01*
X130894949Y-85249003D01*
X130899000Y-85290138D01*
X130899000Y-88019862D01*
X130894949Y-88060997D01*
X130884739Y-88094652D01*
X130868162Y-88125665D01*
X130845851Y-88152851D01*
X130818665Y-88175162D01*
X130787652Y-88191739D01*
X130753997Y-88201949D01*
X130712862Y-88206000D01*
X129383138Y-88206000D01*
X129342003Y-88201949D01*
X129308348Y-88191739D01*
X129277335Y-88175162D01*
X129250149Y-88152851D01*
X129227838Y-88125665D01*
X129211261Y-88094652D01*
X129201051Y-88060997D01*
X129197000Y-88019862D01*
X129197000Y-85290138D01*
X129201051Y-85249003D01*
X129211261Y-85215348D01*
X129227838Y-85184335D01*
X129250149Y-85157149D01*
X129277335Y-85134838D01*
X129308348Y-85118261D01*
X129342003Y-85108051D01*
X129383138Y-85104000D01*
X130712862Y-85104000D01*
X130753997Y-85108051D01*
G37*
G36*
X144861000Y-87342500D02*
G01*
X138359000Y-87342500D01*
X138359000Y-81440500D01*
X144861000Y-81440500D01*
X144861000Y-87342500D01*
G37*
G36*
X136461000Y-87322500D02*
G01*
X134159000Y-87322500D01*
X134159000Y-86020500D01*
X136461000Y-86020500D01*
X136461000Y-87322500D01*
G37*
G36*
X136461000Y-85042500D02*
G01*
X134159000Y-85042500D01*
X134159000Y-83740500D01*
X136461000Y-83740500D01*
X136461000Y-85042500D01*
G37*
G36*
X149422997Y-80898551D02*
G01*
X149456652Y-80908761D01*
X149487665Y-80925338D01*
X149514851Y-80947649D01*
X149537162Y-80974835D01*
X149553739Y-81005848D01*
X149563949Y-81039503D01*
X149568000Y-81080638D01*
X149568000Y-83810362D01*
X149563949Y-83851497D01*
X149553739Y-83885152D01*
X149537162Y-83916165D01*
X149514851Y-83943351D01*
X149487665Y-83965662D01*
X149456652Y-83982239D01*
X149422997Y-83992449D01*
X149381862Y-83996500D01*
X148052138Y-83996500D01*
X148011003Y-83992449D01*
X147977348Y-83982239D01*
X147946335Y-83965662D01*
X147919149Y-83943351D01*
X147896838Y-83916165D01*
X147880261Y-83885152D01*
X147870051Y-83851497D01*
X147866000Y-83810362D01*
X147866000Y-81080638D01*
X147870051Y-81039503D01*
X147880261Y-81005848D01*
X147896838Y-80974835D01*
X147919149Y-80947649D01*
X147946335Y-80925338D01*
X147977348Y-80908761D01*
X148011003Y-80898551D01*
X148052138Y-80894500D01*
X149381862Y-80894500D01*
X149422997Y-80898551D01*
G37*
G36*
X130753997Y-80708051D02*
G01*
X130787652Y-80718261D01*
X130818665Y-80734838D01*
X130845851Y-80757149D01*
X130868162Y-80784335D01*
X130884739Y-80815348D01*
X130894949Y-80849003D01*
X130899000Y-80890138D01*
X130899000Y-83619862D01*
X130894949Y-83660997D01*
X130884739Y-83694652D01*
X130868162Y-83725665D01*
X130845851Y-83752851D01*
X130818665Y-83775162D01*
X130787652Y-83791739D01*
X130753997Y-83801949D01*
X130712862Y-83806000D01*
X129383138Y-83806000D01*
X129342003Y-83801949D01*
X129308348Y-83791739D01*
X129277335Y-83775162D01*
X129250149Y-83752851D01*
X129227838Y-83725665D01*
X129211261Y-83694652D01*
X129201051Y-83660997D01*
X129197000Y-83619862D01*
X129197000Y-80890138D01*
X129201051Y-80849003D01*
X129211261Y-80815348D01*
X129227838Y-80784335D01*
X129250149Y-80757149D01*
X129277335Y-80734838D01*
X129308348Y-80718261D01*
X129342003Y-80708051D01*
X129383138Y-80704000D01*
X130712862Y-80704000D01*
X130753997Y-80708051D01*
G37*
G36*
X136461000Y-82762500D02*
G01*
X134159000Y-82762500D01*
X134159000Y-81460500D01*
X136461000Y-81460500D01*
X136461000Y-82762500D01*
G37*
G36*
X134429000Y-79310000D02*
G01*
X131827000Y-79310000D01*
X131827000Y-77408000D01*
X134429000Y-77408000D01*
X134429000Y-79310000D01*
G37*
G36*
X138429000Y-79310000D02*
G01*
X135827000Y-79310000D01*
X135827000Y-77408000D01*
X138429000Y-77408000D01*
X138429000Y-79310000D01*
G37*
G36*
X100260756Y-75924798D02*
G01*
X100367079Y-75945947D01*
X100667542Y-76070403D01*
X100937951Y-76251085D01*
X101167915Y-76481049D01*
X101348597Y-76751458D01*
X101473053Y-77051921D01*
X101536500Y-77370891D01*
X101536500Y-77696109D01*
X101473053Y-78015079D01*
X101348597Y-78315542D01*
X101167915Y-78585951D01*
X100937951Y-78815915D01*
X100667542Y-78996597D01*
X100367079Y-79121053D01*
X100260756Y-79142202D01*
X100048111Y-79184500D01*
X99722889Y-79184500D01*
X99510244Y-79142202D01*
X99403921Y-79121053D01*
X99103458Y-78996597D01*
X98833049Y-78815915D01*
X98603085Y-78585951D01*
X98422403Y-78315542D01*
X98297947Y-78015079D01*
X98234500Y-77696109D01*
X98234500Y-77370891D01*
X98297947Y-77051921D01*
X98422403Y-76751458D01*
X98603085Y-76481049D01*
X98833049Y-76251085D01*
X99103458Y-76070403D01*
X99403921Y-75945947D01*
X99510244Y-75924798D01*
X99722889Y-75882500D01*
X100048111Y-75882500D01*
X100260756Y-75924798D01*
G37*
G36*
X157664756Y-75924798D02*
G01*
X157771079Y-75945947D01*
X158071542Y-76070403D01*
X158341951Y-76251085D01*
X158571915Y-76481049D01*
X158752597Y-76751458D01*
X158877053Y-77051921D01*
X158940500Y-77370891D01*
X158940500Y-77696109D01*
X158877053Y-78015079D01*
X158752597Y-78315542D01*
X158571915Y-78585951D01*
X158341951Y-78815915D01*
X158071542Y-78996597D01*
X157771079Y-79121053D01*
X157664756Y-79142202D01*
X157452111Y-79184500D01*
X157126889Y-79184500D01*
X156914244Y-79142202D01*
X156807921Y-79121053D01*
X156507458Y-78996597D01*
X156237049Y-78815915D01*
X156007085Y-78585951D01*
X155826403Y-78315542D01*
X155701947Y-78015079D01*
X155638500Y-77696109D01*
X155638500Y-77370891D01*
X155701947Y-77051921D01*
X155826403Y-76751458D01*
X156007085Y-76481049D01*
X156237049Y-76251085D01*
X156507458Y-76070403D01*
X156807921Y-75945947D01*
X156914244Y-75924798D01*
X157126889Y-75882500D01*
X157452111Y-75882500D01*
X157664756Y-75924798D01*
G37*
M02*
