M48
; DRILL file {KiCad (5.1.5)-3} date 9/10/2020 4:10:49 PM
; FORMAT={-:-/ absolute / metric / decimal}
; #@! TF.CreationDate,2020-09-10T16:10:49-05:00
; #@! TF.GenerationSoftware,Kicad,Pcbnew,(5.1.5)-3
FMAT,2
METRIC
T1C0.400
T2C0.550
T3C0.650
T4C0.750
T5C0.850
T6C1.000
T7C1.100
T8C0.800
T9C3.200
T10C3.500
%
G90
G05
T1
X108.013Y-79.311
X132.969Y-89.281
X132.969Y-106.045
T3
X117.602Y-113.127
X117.602Y-127.127
X119.602Y-113.127
X119.602Y-127.127
X121.602Y-113.127
X121.602Y-127.127
X123.602Y-113.127
X123.602Y-127.127
X125.602Y-113.127
X125.602Y-127.127
X127.602Y-113.127
X127.602Y-127.127
X129.602Y-113.127
X129.602Y-127.127
X131.602Y-113.127
X131.602Y-127.127
X132.602Y-115.137
X132.602Y-117.137
X132.602Y-119.137
X132.602Y-121.137
X132.602Y-123.137
X132.602Y-125.137
T4
X156.147Y-127.698
X156.147Y-129.698
X150.051Y-127.698
X150.051Y-129.698
X143.129Y-130.112
X143.129Y-132.112
X143.129Y-134.112
T7
X138.811Y-125.412
X141.351Y-125.412
X143.891Y-125.412
X100.457Y-126.174
X100.457Y-130.674
X106.957Y-126.174
X106.957Y-130.674
X150.05Y-121.475
X152.59Y-121.475
X155.13Y-121.475
X123.802Y-99.068
X123.802Y-103.568
X130.302Y-99.068
X130.302Y-103.568
T8
X100.495Y-103.418
X100.495Y-108.418
T9
X99.885Y-136.588
X157.29Y-136.525
X99.885Y-77.533
X157.29Y-77.533
T10
X141.351Y-108.752
X152.59Y-104.816
T2
G00X98.07Y-102.043
M15
G01X97.42Y-102.043
M16
G05
G00X98.07Y-109.793
M15
G01X97.42Y-109.793
M16
G05
T5
G00X101.82Y-102.193
M15
G01X101.27Y-102.193
M16
G05
G00X101.82Y-109.643
M15
G01X101.27Y-109.643
M16
G05
T6
G00X103.918Y-92.853
M15
G01X103.918Y-94.853
M16
G05
G00X105.918Y-98.553
M15
G01X107.918Y-98.553
M16
G05
G00X109.918Y-92.853
M15
G01X109.918Y-94.853
M16
G05
T0
M30
