%TF.GenerationSoftware,KiCad,Pcbnew,(5.1.5)-3*%
%TF.CreationDate,2020-09-10T16:10:11-05:00*%
%TF.ProjectId,UVLight,55564c69-6768-4742-9e6b-696361645f70,rev?*%
%TF.SameCoordinates,Original*%
%TF.FileFunction,Legend,Top*%
%TF.FilePolarity,Positive*%
%FSLAX46Y46*%
G04 Gerber Fmt 4.6, Leading zero omitted, Abs format (unit mm)*
G04 Created by KiCad (PCBNEW (5.1.5)-3) date 2020-09-10 16:10:11*
%MOMM*%
%LPD*%
G04 APERTURE LIST*
%ADD10C,0.050000*%
%ADD11C,0.120000*%
%ADD12C,0.152400*%
%ADD13C,0.150000*%
%ADD14C,0.100000*%
G04 APERTURE END LIST*
D10*
X95885000Y-140462000D02*
X95885000Y-73660000D01*
X161290000Y-140462000D02*
X95885000Y-140462000D01*
X161290000Y-73660000D02*
X161290000Y-140462000D01*
X95885000Y-73660000D02*
X161290000Y-73660000D01*
D11*
X107207000Y-129174000D02*
X107207000Y-127674000D01*
X105957000Y-125174000D02*
X101457000Y-125174000D01*
X100207000Y-127674000D02*
X100207000Y-129174000D01*
X101457000Y-131674000D02*
X105957000Y-131674000D01*
X134141000Y-101347000D02*
X139541000Y-101347000D01*
X134141000Y-104647000D02*
X139541000Y-104647000D01*
X134141000Y-101347000D02*
X134141000Y-104647000D01*
X131728000Y-76709000D02*
X137128000Y-76709000D01*
X131728000Y-80009000D02*
X137128000Y-80009000D01*
X131728000Y-76709000D02*
X131728000Y-80009000D01*
X113708000Y-103632000D02*
X113708000Y-105582000D01*
X113708000Y-103632000D02*
X113708000Y-101682000D01*
X118828000Y-103632000D02*
X118828000Y-105582000D01*
X118828000Y-103632000D02*
X118828000Y-100182000D01*
D12*
X132461000Y-128143000D02*
X133223000Y-128143000D01*
X133223000Y-128143000D02*
X133223000Y-112141000D01*
X133223000Y-112141000D02*
X132461000Y-112141000D01*
D11*
X136231000Y-121722000D02*
X146471000Y-121722000D01*
X136231000Y-105832000D02*
X146471000Y-105832000D01*
X136231000Y-105832000D02*
X136231000Y-121722000D01*
X146471000Y-105832000D02*
X146471000Y-121722000D01*
X138811000Y-121722000D02*
X138811000Y-124262000D01*
X141351000Y-121722000D02*
X141351000Y-124262000D01*
X143891000Y-121722000D02*
X143891000Y-124262000D01*
X155130000Y-117785500D02*
X155130000Y-120325500D01*
X152590000Y-117785500D02*
X152590000Y-120325500D01*
X150050000Y-117785500D02*
X150050000Y-120325500D01*
X157710000Y-101895500D02*
X157710000Y-117785500D01*
X147470000Y-101895500D02*
X147470000Y-117785500D01*
X147470000Y-101895500D02*
X157710000Y-101895500D01*
X147470000Y-117785500D02*
X157710000Y-117785500D01*
X136013000Y-130280000D02*
X133863000Y-130280000D01*
X136938000Y-133500000D02*
X133863000Y-133500000D01*
X133863000Y-133490000D02*
X133863000Y-132590000D01*
X133863000Y-131190000D02*
X133863000Y-130280000D01*
X111358000Y-107283936D02*
X111358000Y-108488064D01*
X113178000Y-107283936D02*
X113178000Y-108488064D01*
X128050500Y-87767500D02*
X128675500Y-87767500D01*
X128363000Y-88080000D02*
X128363000Y-87455000D01*
X131743563Y-87215000D02*
X132808000Y-86150563D01*
X128352437Y-87215000D02*
X127288000Y-86150563D01*
X128352437Y-87215000D02*
X128988000Y-87215000D01*
X131743563Y-87215000D02*
X131108000Y-87215000D01*
X132808000Y-86150563D02*
X132808000Y-81695000D01*
X127288000Y-86150563D02*
X127288000Y-81695000D01*
X127288000Y-81695000D02*
X128988000Y-81695000D01*
X132808000Y-81695000D02*
X131108000Y-81695000D01*
X132172500Y-90159500D02*
X131547500Y-90159500D01*
X131860000Y-89847000D02*
X131860000Y-90472000D01*
X128479437Y-90712000D02*
X127415000Y-91776437D01*
X131870563Y-90712000D02*
X132935000Y-91776437D01*
X131870563Y-90712000D02*
X131235000Y-90712000D01*
X128479437Y-90712000D02*
X129115000Y-90712000D01*
X127415000Y-91776437D02*
X127415000Y-96232000D01*
X132935000Y-91776437D02*
X132935000Y-96232000D01*
X132935000Y-96232000D02*
X131235000Y-96232000D01*
X127415000Y-96232000D02*
X129115000Y-96232000D01*
X119359000Y-105440064D02*
X119359000Y-104235936D01*
X121179000Y-105440064D02*
X121179000Y-104235936D01*
X145957000Y-87405500D02*
X147657000Y-87405500D01*
X151477000Y-87405500D02*
X149777000Y-87405500D01*
X151477000Y-82949937D02*
X151477000Y-87405500D01*
X145957000Y-82949937D02*
X145957000Y-87405500D01*
X147021437Y-81885500D02*
X147657000Y-81885500D01*
X150412563Y-81885500D02*
X149777000Y-81885500D01*
X150412563Y-81885500D02*
X151477000Y-82949937D01*
X147021437Y-81885500D02*
X145957000Y-82949937D01*
X150402000Y-81020500D02*
X150402000Y-81645500D01*
X150714500Y-81333000D02*
X150089500Y-81333000D01*
X147222000Y-90648500D02*
X145522000Y-90648500D01*
X141702000Y-90648500D02*
X143402000Y-90648500D01*
X141702000Y-95104063D02*
X141702000Y-90648500D01*
X147222000Y-95104063D02*
X147222000Y-90648500D01*
X146157563Y-96168500D02*
X145522000Y-96168500D01*
X142766437Y-96168500D02*
X143402000Y-96168500D01*
X142766437Y-96168500D02*
X141702000Y-95104063D01*
X146157563Y-96168500D02*
X147222000Y-95104063D01*
X142777000Y-97033500D02*
X142777000Y-96408500D01*
X142464500Y-96721000D02*
X143089500Y-96721000D01*
X111018500Y-90103000D02*
X111018500Y-89053000D01*
X109968500Y-89053000D02*
X111018500Y-89053000D01*
X104918500Y-98453000D02*
X96118500Y-98453000D01*
X96118500Y-98453000D02*
X96118500Y-89253000D01*
X110818500Y-95753000D02*
X110818500Y-98453000D01*
X110818500Y-98453000D02*
X108918500Y-98453000D01*
X96118500Y-89253000D02*
X110818500Y-89253000D01*
X110818500Y-89253000D02*
X110818500Y-91853000D01*
D13*
X100345000Y-101768000D02*
X98945000Y-101768000D01*
X96545000Y-101768000D02*
X96395000Y-101768000D01*
X96395000Y-101768000D02*
X96395000Y-102068000D01*
X96395000Y-102068000D02*
X95945000Y-102068000D01*
X95945000Y-109768000D02*
X96395000Y-109768000D01*
X96395000Y-109768000D02*
X96395000Y-110068000D01*
X96395000Y-110068000D02*
X96545000Y-110068000D01*
X98945000Y-110068000D02*
X100345000Y-110068000D01*
X102520000Y-104843000D02*
X102520000Y-104118000D01*
X102520000Y-104118000D02*
X102095000Y-104118000D01*
X102095000Y-104118000D02*
X102095000Y-103118000D01*
X102095000Y-107718000D02*
X102095000Y-108718000D01*
D11*
X152161000Y-125338500D02*
X150911000Y-125338500D01*
X152161000Y-126588500D02*
X152161000Y-125338500D01*
X147751000Y-128698500D02*
X148251000Y-128698500D01*
X148251000Y-128798500D02*
X147751000Y-128798500D01*
X148251000Y-128598500D02*
X148251000Y-128798500D01*
X147751000Y-128598500D02*
X148251000Y-128598500D01*
X149251000Y-131758500D02*
X149251000Y-131148500D01*
X150551000Y-131758500D02*
X150551000Y-131148500D01*
X149251000Y-125638500D02*
X149251000Y-126248500D01*
X150551000Y-125638500D02*
X150551000Y-126248500D01*
X151251000Y-129198500D02*
X151861000Y-129198500D01*
X151251000Y-131148500D02*
X151251000Y-129198500D01*
X147751000Y-131148500D02*
X151251000Y-131148500D01*
X147751000Y-126248500D02*
X147751000Y-131148500D01*
X151251000Y-126248500D02*
X147751000Y-126248500D01*
X151251000Y-128198500D02*
X151251000Y-126248500D01*
X151861000Y-128198500D02*
X151251000Y-128198500D01*
X151961000Y-127398500D02*
X151961000Y-127098500D01*
X152061000Y-127098500D02*
X151861000Y-127098500D01*
X152061000Y-127398500D02*
X152061000Y-127098500D01*
X151861000Y-127398500D02*
X152061000Y-127398500D01*
X151861000Y-131758500D02*
X151861000Y-125638500D01*
X147141000Y-131758500D02*
X151861000Y-131758500D01*
X147141000Y-125638500D02*
X147141000Y-131758500D01*
X151861000Y-125638500D02*
X147141000Y-125638500D01*
X157957000Y-125638500D02*
X153237000Y-125638500D01*
X153237000Y-125638500D02*
X153237000Y-131758500D01*
X153237000Y-131758500D02*
X157957000Y-131758500D01*
X157957000Y-131758500D02*
X157957000Y-125638500D01*
X157957000Y-127398500D02*
X158157000Y-127398500D01*
X158157000Y-127398500D02*
X158157000Y-127098500D01*
X158157000Y-127098500D02*
X157957000Y-127098500D01*
X158057000Y-127398500D02*
X158057000Y-127098500D01*
X157957000Y-128198500D02*
X157347000Y-128198500D01*
X157347000Y-128198500D02*
X157347000Y-126248500D01*
X157347000Y-126248500D02*
X153847000Y-126248500D01*
X153847000Y-126248500D02*
X153847000Y-131148500D01*
X153847000Y-131148500D02*
X157347000Y-131148500D01*
X157347000Y-131148500D02*
X157347000Y-129198500D01*
X157347000Y-129198500D02*
X157957000Y-129198500D01*
X156647000Y-125638500D02*
X156647000Y-126248500D01*
X155347000Y-125638500D02*
X155347000Y-126248500D01*
X156647000Y-131758500D02*
X156647000Y-131148500D01*
X155347000Y-131758500D02*
X155347000Y-131148500D01*
X153847000Y-128598500D02*
X154347000Y-128598500D01*
X154347000Y-128598500D02*
X154347000Y-128798500D01*
X154347000Y-128798500D02*
X153847000Y-128798500D01*
X153847000Y-128698500D02*
X154347000Y-128698500D01*
X158257000Y-126588500D02*
X158257000Y-125338500D01*
X158257000Y-125338500D02*
X157007000Y-125338500D01*
X144939000Y-128052000D02*
X140219000Y-128052000D01*
X140219000Y-128052000D02*
X140219000Y-136172000D01*
X140219000Y-136172000D02*
X144939000Y-136172000D01*
X144939000Y-136172000D02*
X144939000Y-128052000D01*
X144939000Y-129812000D02*
X145139000Y-129812000D01*
X145139000Y-129812000D02*
X145139000Y-129512000D01*
X145139000Y-129512000D02*
X144939000Y-129512000D01*
X145039000Y-129812000D02*
X145039000Y-129512000D01*
X144939000Y-130612000D02*
X144329000Y-130612000D01*
X144329000Y-130612000D02*
X144329000Y-128662000D01*
X144329000Y-128662000D02*
X140829000Y-128662000D01*
X140829000Y-128662000D02*
X140829000Y-135562000D01*
X140829000Y-135562000D02*
X144329000Y-135562000D01*
X144329000Y-135562000D02*
X144329000Y-133612000D01*
X144329000Y-133612000D02*
X144939000Y-133612000D01*
X143629000Y-128052000D02*
X143629000Y-128662000D01*
X142329000Y-128052000D02*
X142329000Y-128662000D01*
X143629000Y-136172000D02*
X143629000Y-135562000D01*
X142329000Y-136172000D02*
X142329000Y-135562000D01*
X140829000Y-131012000D02*
X141329000Y-131012000D01*
X141329000Y-131012000D02*
X141329000Y-131212000D01*
X141329000Y-131212000D02*
X140829000Y-131212000D01*
X140829000Y-131112000D02*
X141329000Y-131112000D01*
X140829000Y-133012000D02*
X141329000Y-133012000D01*
X141329000Y-133012000D02*
X141329000Y-133212000D01*
X141329000Y-133212000D02*
X140829000Y-133212000D01*
X140829000Y-133112000D02*
X141329000Y-133112000D01*
X145239000Y-129002000D02*
X145239000Y-127752000D01*
X145239000Y-127752000D02*
X143989000Y-127752000D01*
X120922000Y-96922000D02*
X122422000Y-96922000D01*
X122422000Y-96922000D02*
X122422000Y-96652000D01*
X122422000Y-96652000D02*
X125252000Y-96652000D01*
X120922000Y-90022000D02*
X122422000Y-90022000D01*
X122422000Y-90022000D02*
X122422000Y-90292000D01*
X122422000Y-90292000D02*
X123522000Y-90292000D01*
X108742064Y-105326000D02*
X107537936Y-105326000D01*
X108742064Y-107146000D02*
X107537936Y-107146000D01*
X108742064Y-104732000D02*
X107537936Y-104732000D01*
X108742064Y-102912000D02*
X107537936Y-102912000D01*
X116236064Y-132228000D02*
X115031936Y-132228000D01*
X116236064Y-130408000D02*
X115031936Y-130408000D01*
X122640000Y-131985936D02*
X122640000Y-133190064D01*
X120820000Y-131985936D02*
X120820000Y-133190064D01*
X123614000Y-107093936D02*
X123614000Y-108298064D01*
X125434000Y-107093936D02*
X125434000Y-108298064D01*
X127910000Y-107093936D02*
X127910000Y-108298064D01*
X126090000Y-107093936D02*
X126090000Y-108298064D01*
X128503000Y-107093936D02*
X128503000Y-108298064D01*
X130323000Y-107093936D02*
X130323000Y-108298064D01*
X126068000Y-133190064D02*
X126068000Y-131985936D01*
X124248000Y-133190064D02*
X124248000Y-131985936D01*
X126852000Y-133190064D02*
X126852000Y-131985936D01*
X128672000Y-133190064D02*
X128672000Y-131985936D01*
X134968064Y-134472000D02*
X133763936Y-134472000D01*
X134968064Y-136292000D02*
X133763936Y-136292000D01*
X131276000Y-131985936D02*
X131276000Y-133190064D01*
X129456000Y-131985936D02*
X129456000Y-133190064D01*
X129302000Y-98068000D02*
X124802000Y-98068000D01*
X130552000Y-102068000D02*
X130552000Y-100568000D01*
X124802000Y-104568000D02*
X129302000Y-104568000D01*
X123552000Y-100568000D02*
X123552000Y-102068000D01*
X137040000Y-87571500D02*
X135940000Y-87571500D01*
X137040000Y-87841500D02*
X137040000Y-87571500D01*
X138540000Y-87841500D02*
X137040000Y-87841500D01*
X137040000Y-81211500D02*
X134210000Y-81211500D01*
X137040000Y-80941500D02*
X137040000Y-81211500D01*
X138540000Y-80941500D02*
X137040000Y-80941500D01*
X141054000Y-94153000D02*
X141054000Y-92653000D01*
X141054000Y-92653000D02*
X140784000Y-92653000D01*
X140784000Y-92653000D02*
X140784000Y-89823000D01*
X134154000Y-94153000D02*
X134154000Y-92653000D01*
X134154000Y-92653000D02*
X134424000Y-92653000D01*
X134424000Y-92653000D02*
X134424000Y-91553000D01*
D14*
X117102000Y-126627000D02*
X117102000Y-129027000D01*
X118102000Y-129027000D01*
X118102000Y-126627000D01*
X117102000Y-126627000D01*
X120102000Y-128527000D02*
X120102000Y-127127000D01*
X119102000Y-128527000D02*
X119102000Y-127127000D01*
X120102000Y-127127000D02*
G75*
G03X119102000Y-127127000I-500000J0D01*
G01*
X119102000Y-128527000D02*
G75*
G03X120102000Y-128527000I500000J0D01*
G01*
X122102000Y-128527000D02*
X122102000Y-127127000D01*
X121102000Y-128527000D02*
X121102000Y-127127000D01*
X122102000Y-127127000D02*
G75*
G03X121102000Y-127127000I-500000J0D01*
G01*
X121102000Y-128527000D02*
G75*
G03X122102000Y-128527000I500000J0D01*
G01*
X124102000Y-128527000D02*
X124102000Y-127127000D01*
X123102000Y-128527000D02*
X123102000Y-127127000D01*
X124102000Y-127127000D02*
G75*
G03X123102000Y-127127000I-500000J0D01*
G01*
X123102000Y-128527000D02*
G75*
G03X124102000Y-128527000I500000J0D01*
G01*
X126102000Y-128527000D02*
X126102000Y-127127000D01*
X125102000Y-128527000D02*
X125102000Y-127127000D01*
X126102000Y-127127000D02*
G75*
G03X125102000Y-127127000I-500000J0D01*
G01*
X125102000Y-128527000D02*
G75*
G03X126102000Y-128527000I500000J0D01*
G01*
X128102000Y-128527000D02*
X128102000Y-127127000D01*
X127102000Y-128527000D02*
X127102000Y-127127000D01*
X128102000Y-127127000D02*
G75*
G03X127102000Y-127127000I-500000J0D01*
G01*
X127102000Y-128527000D02*
G75*
G03X128102000Y-128527000I500000J0D01*
G01*
X130102000Y-128527000D02*
X130102000Y-127127000D01*
X129102000Y-128527000D02*
X129102000Y-127127000D01*
X130102000Y-127127000D02*
G75*
G03X129102000Y-127127000I-500000J0D01*
G01*
X129102000Y-128527000D02*
G75*
G03X130102000Y-128527000I500000J0D01*
G01*
X132102000Y-128527000D02*
X132102000Y-127127000D01*
X131102000Y-128527000D02*
X131102000Y-127127000D01*
X132102000Y-127127000D02*
G75*
G03X131102000Y-127127000I-500000J0D01*
G01*
X131102000Y-128527000D02*
G75*
G03X132102000Y-128527000I500000J0D01*
G01*
X132102000Y-113127000D02*
X132102000Y-111727000D01*
X131102000Y-113127000D02*
X131102000Y-111727000D01*
X132102000Y-111727000D02*
G75*
G03X131102000Y-111727000I-500000J0D01*
G01*
X131102000Y-113127000D02*
G75*
G03X132102000Y-113127000I500000J0D01*
G01*
X130102000Y-113227000D02*
X130102000Y-111827000D01*
X129102000Y-113227000D02*
X129102000Y-111827000D01*
X130102000Y-111827000D02*
G75*
G03X129102000Y-111827000I-500000J0D01*
G01*
X129102000Y-113227000D02*
G75*
G03X130102000Y-113227000I500000J0D01*
G01*
X128102000Y-113127000D02*
X128102000Y-111727000D01*
X127102000Y-113127000D02*
X127102000Y-111727000D01*
X128102000Y-111727000D02*
G75*
G03X127102000Y-111727000I-500000J0D01*
G01*
X127102000Y-113127000D02*
G75*
G03X128102000Y-113127000I500000J0D01*
G01*
X126102000Y-113127000D02*
X126102000Y-111727000D01*
X125102000Y-113127000D02*
X125102000Y-111727000D01*
X126102000Y-111727000D02*
G75*
G03X125102000Y-111727000I-500000J0D01*
G01*
X125102000Y-113127000D02*
G75*
G03X126102000Y-113127000I500000J0D01*
G01*
X124102000Y-113127000D02*
X124102000Y-111727000D01*
X123102000Y-113127000D02*
X123102000Y-111727000D01*
X124102000Y-111727000D02*
G75*
G03X123102000Y-111727000I-500000J0D01*
G01*
X123102000Y-113127000D02*
G75*
G03X124102000Y-113127000I500000J0D01*
G01*
X122102000Y-113127000D02*
X122102000Y-111727000D01*
X121102000Y-113127000D02*
X121102000Y-111727000D01*
X122102000Y-111727000D02*
G75*
G03X121102000Y-111727000I-500000J0D01*
G01*
X121102000Y-113127000D02*
G75*
G03X122102000Y-113127000I500000J0D01*
G01*
X120102000Y-113127000D02*
X120102000Y-111727000D01*
X119102000Y-113127000D02*
X119102000Y-111727000D01*
X120102000Y-111727000D02*
G75*
G03X119102000Y-111727000I-500000J0D01*
G01*
X119102000Y-113127000D02*
G75*
G03X120102000Y-113127000I500000J0D01*
G01*
X118102000Y-113127000D02*
X118102000Y-111727000D01*
X117102000Y-113127000D02*
X117102000Y-111727000D01*
X118102000Y-111727000D02*
G75*
G03X117102000Y-111727000I-500000J0D01*
G01*
X117102000Y-113127000D02*
G75*
G03X118102000Y-113127000I500000J0D01*
G01*
X134002000Y-124637000D02*
X132602000Y-124637000D01*
X134002000Y-125637000D02*
X132602000Y-125637000D01*
X132602000Y-124637000D02*
G75*
G03X132602000Y-125637000I0J-500000D01*
G01*
X134002000Y-125637000D02*
G75*
G03X134002000Y-124637000I0J500000D01*
G01*
X134002000Y-122637000D02*
X132602000Y-122637000D01*
X134002000Y-123637000D02*
X132602000Y-123637000D01*
X132602000Y-122637000D02*
G75*
G03X132602000Y-123637000I0J-500000D01*
G01*
X134002000Y-123637000D02*
G75*
G03X134002000Y-122637000I0J500000D01*
G01*
X134002000Y-120637000D02*
X132602000Y-120637000D01*
X134002000Y-121637000D02*
X132602000Y-121637000D01*
X132602000Y-120637000D02*
G75*
G03X132602000Y-121637000I0J-500000D01*
G01*
X134002000Y-121637000D02*
G75*
G03X134002000Y-120637000I0J500000D01*
G01*
X134002000Y-118637000D02*
X132602000Y-118637000D01*
X134002000Y-119637000D02*
X132602000Y-119637000D01*
X132602000Y-118637000D02*
G75*
G03X132602000Y-119637000I0J-500000D01*
G01*
X134002000Y-119637000D02*
G75*
G03X134002000Y-118637000I0J500000D01*
G01*
X134002000Y-116637000D02*
X132602000Y-116637000D01*
X134002000Y-117637000D02*
X132602000Y-117637000D01*
X132602000Y-116637000D02*
G75*
G03X132602000Y-117637000I0J-500000D01*
G01*
X134002000Y-117637000D02*
G75*
G03X134002000Y-116637000I0J500000D01*
G01*
X134002000Y-114637000D02*
X132602000Y-114637000D01*
X134002000Y-115637000D02*
X132602000Y-115637000D01*
X132602000Y-114637000D02*
G75*
G03X132602000Y-115637000I0J-500000D01*
G01*
X134002000Y-115637000D02*
G75*
G03X134002000Y-114637000I0J500000D01*
G01*
D13*
X153098595Y-139644380D02*
X153098595Y-138644380D01*
X153098595Y-139120571D02*
X153670023Y-139120571D01*
X153670023Y-139644380D02*
X153670023Y-138644380D01*
X154574785Y-138977714D02*
X154574785Y-139644380D01*
X154336690Y-138596761D02*
X154098595Y-139311047D01*
X154717642Y-139311047D01*
X153098595Y-80970380D02*
X153098595Y-79970380D01*
X153098595Y-80446571D02*
X153670023Y-80446571D01*
X153670023Y-80970380D02*
X153670023Y-79970380D01*
X154050976Y-79970380D02*
X154670023Y-79970380D01*
X154336690Y-80351333D01*
X154479547Y-80351333D01*
X154574785Y-80398952D01*
X154622404Y-80446571D01*
X154670023Y-80541809D01*
X154670023Y-80779904D01*
X154622404Y-80875142D01*
X154574785Y-80922761D01*
X154479547Y-80970380D01*
X154193833Y-80970380D01*
X154098595Y-80922761D01*
X154050976Y-80875142D01*
X102679595Y-139707880D02*
X102679595Y-138707880D01*
X102679595Y-139184071D02*
X103251023Y-139184071D01*
X103251023Y-139707880D02*
X103251023Y-138707880D01*
X103679595Y-138803119D02*
X103727214Y-138755500D01*
X103822452Y-138707880D01*
X104060547Y-138707880D01*
X104155785Y-138755500D01*
X104203404Y-138803119D01*
X104251023Y-138898357D01*
X104251023Y-138993595D01*
X104203404Y-139136452D01*
X103631976Y-139707880D01*
X104251023Y-139707880D01*
X102806595Y-80525880D02*
X102806595Y-79525880D01*
X102806595Y-80002071D02*
X103378023Y-80002071D01*
X103378023Y-80525880D02*
X103378023Y-79525880D01*
X104378023Y-80525880D02*
X103806595Y-80525880D01*
X104092309Y-80525880D02*
X104092309Y-79525880D01*
X103997071Y-79668738D01*
X103901833Y-79763976D01*
X103806595Y-79811595D01*
X102373666Y-124578761D02*
X102516523Y-124626380D01*
X102754619Y-124626380D01*
X102849857Y-124578761D01*
X102897476Y-124531142D01*
X102945095Y-124435904D01*
X102945095Y-124340666D01*
X102897476Y-124245428D01*
X102849857Y-124197809D01*
X102754619Y-124150190D01*
X102564142Y-124102571D01*
X102468904Y-124054952D01*
X102421285Y-124007333D01*
X102373666Y-123912095D01*
X102373666Y-123816857D01*
X102421285Y-123721619D01*
X102468904Y-123674000D01*
X102564142Y-123626380D01*
X102802238Y-123626380D01*
X102945095Y-123674000D01*
X103278428Y-123626380D02*
X103516523Y-124626380D01*
X103707000Y-123912095D01*
X103897476Y-124626380D01*
X104135571Y-123626380D01*
X105040333Y-124626380D02*
X104468904Y-124626380D01*
X104754619Y-124626380D02*
X104754619Y-123626380D01*
X104659380Y-123769238D01*
X104564142Y-123864476D01*
X104468904Y-123912095D01*
X136802904Y-100949380D02*
X136802904Y-99949380D01*
X137041000Y-99949380D01*
X137183857Y-99997000D01*
X137279095Y-100092238D01*
X137326714Y-100187476D01*
X137374333Y-100377952D01*
X137374333Y-100520809D01*
X137326714Y-100711285D01*
X137279095Y-100806523D01*
X137183857Y-100901761D01*
X137041000Y-100949380D01*
X136802904Y-100949380D01*
X137755285Y-100044619D02*
X137802904Y-99997000D01*
X137898142Y-99949380D01*
X138136238Y-99949380D01*
X138231476Y-99997000D01*
X138279095Y-100044619D01*
X138326714Y-100139857D01*
X138326714Y-100235095D01*
X138279095Y-100377952D01*
X137707666Y-100949380D01*
X138326714Y-100949380D01*
X134389904Y-76311380D02*
X134389904Y-75311380D01*
X134628000Y-75311380D01*
X134770857Y-75359000D01*
X134866095Y-75454238D01*
X134913714Y-75549476D01*
X134961333Y-75739952D01*
X134961333Y-75882809D01*
X134913714Y-76073285D01*
X134866095Y-76168523D01*
X134770857Y-76263761D01*
X134628000Y-76311380D01*
X134389904Y-76311380D01*
X135913714Y-76311380D02*
X135342285Y-76311380D01*
X135628000Y-76311380D02*
X135628000Y-75311380D01*
X135532761Y-75454238D01*
X135437523Y-75549476D01*
X135342285Y-75597095D01*
X112164880Y-104393904D02*
X112974404Y-104393904D01*
X113069642Y-104346285D01*
X113117261Y-104298666D01*
X113164880Y-104203428D01*
X113164880Y-104012952D01*
X113117261Y-103917714D01*
X113069642Y-103870095D01*
X112974404Y-103822476D01*
X112164880Y-103822476D01*
X112260119Y-103393904D02*
X112212500Y-103346285D01*
X112164880Y-103251047D01*
X112164880Y-103012952D01*
X112212500Y-102917714D01*
X112260119Y-102870095D01*
X112355357Y-102822476D01*
X112450595Y-102822476D01*
X112593452Y-102870095D01*
X113164880Y-103441523D01*
X113164880Y-102822476D01*
X107338880Y-120078404D02*
X108148404Y-120078404D01*
X108243642Y-120030785D01*
X108291261Y-119983166D01*
X108338880Y-119887928D01*
X108338880Y-119697452D01*
X108291261Y-119602214D01*
X108243642Y-119554595D01*
X108148404Y-119506976D01*
X107338880Y-119506976D01*
X107672214Y-118602214D02*
X108338880Y-118602214D01*
X107291261Y-118840309D02*
X108005547Y-119078404D01*
X108005547Y-118459357D01*
X141255761Y-105379619D02*
X141160523Y-105332000D01*
X141065285Y-105236761D01*
X140922428Y-105093904D01*
X140827190Y-105046285D01*
X140731952Y-105046285D01*
X140779571Y-105284380D02*
X140684333Y-105236761D01*
X140589095Y-105141523D01*
X140541476Y-104951047D01*
X140541476Y-104617714D01*
X140589095Y-104427238D01*
X140684333Y-104332000D01*
X140779571Y-104284380D01*
X140970047Y-104284380D01*
X141065285Y-104332000D01*
X141160523Y-104427238D01*
X141208142Y-104617714D01*
X141208142Y-104951047D01*
X141160523Y-105141523D01*
X141065285Y-105236761D01*
X140970047Y-105284380D01*
X140779571Y-105284380D01*
X141589095Y-104379619D02*
X141636714Y-104332000D01*
X141731952Y-104284380D01*
X141970047Y-104284380D01*
X142065285Y-104332000D01*
X142112904Y-104379619D01*
X142160523Y-104474857D01*
X142160523Y-104570095D01*
X142112904Y-104712952D01*
X141541476Y-105284380D01*
X142160523Y-105284380D01*
X152494761Y-101443119D02*
X152399523Y-101395500D01*
X152304285Y-101300261D01*
X152161428Y-101157404D01*
X152066190Y-101109785D01*
X151970952Y-101109785D01*
X152018571Y-101347880D02*
X151923333Y-101300261D01*
X151828095Y-101205023D01*
X151780476Y-101014547D01*
X151780476Y-100681214D01*
X151828095Y-100490738D01*
X151923333Y-100395500D01*
X152018571Y-100347880D01*
X152209047Y-100347880D01*
X152304285Y-100395500D01*
X152399523Y-100490738D01*
X152447142Y-100681214D01*
X152447142Y-101014547D01*
X152399523Y-101205023D01*
X152304285Y-101300261D01*
X152209047Y-101347880D01*
X152018571Y-101347880D01*
X153304285Y-100681214D02*
X153304285Y-101347880D01*
X153066190Y-100300261D02*
X152828095Y-101014547D01*
X153447142Y-101014547D01*
X138461761Y-134786619D02*
X138366523Y-134739000D01*
X138271285Y-134643761D01*
X138128428Y-134500904D01*
X138033190Y-134453285D01*
X137937952Y-134453285D01*
X137985571Y-134691380D02*
X137890333Y-134643761D01*
X137795095Y-134548523D01*
X137747476Y-134358047D01*
X137747476Y-134024714D01*
X137795095Y-133834238D01*
X137890333Y-133739000D01*
X137985571Y-133691380D01*
X138176047Y-133691380D01*
X138271285Y-133739000D01*
X138366523Y-133834238D01*
X138414142Y-134024714D01*
X138414142Y-134358047D01*
X138366523Y-134548523D01*
X138271285Y-134643761D01*
X138176047Y-134691380D01*
X137985571Y-134691380D01*
X138747476Y-133691380D02*
X139366523Y-133691380D01*
X139033190Y-134072333D01*
X139176047Y-134072333D01*
X139271285Y-134119952D01*
X139318904Y-134167571D01*
X139366523Y-134262809D01*
X139366523Y-134500904D01*
X139318904Y-134596142D01*
X139271285Y-134643761D01*
X139176047Y-134691380D01*
X138890333Y-134691380D01*
X138795095Y-134643761D01*
X138747476Y-134596142D01*
X114466642Y-109069166D02*
X114514261Y-109116785D01*
X114561880Y-109259642D01*
X114561880Y-109354880D01*
X114514261Y-109497738D01*
X114419023Y-109592976D01*
X114323785Y-109640595D01*
X114133309Y-109688214D01*
X113990452Y-109688214D01*
X113799976Y-109640595D01*
X113704738Y-109592976D01*
X113609500Y-109497738D01*
X113561880Y-109354880D01*
X113561880Y-109259642D01*
X113609500Y-109116785D01*
X113657119Y-109069166D01*
X114561880Y-108116785D02*
X114561880Y-108688214D01*
X114561880Y-108402500D02*
X113561880Y-108402500D01*
X113704738Y-108497738D01*
X113799976Y-108592976D01*
X113847595Y-108688214D01*
X126705142Y-84621666D02*
X126752761Y-84669285D01*
X126800380Y-84812142D01*
X126800380Y-84907380D01*
X126752761Y-85050238D01*
X126657523Y-85145476D01*
X126562285Y-85193095D01*
X126371809Y-85240714D01*
X126228952Y-85240714D01*
X126038476Y-85193095D01*
X125943238Y-85145476D01*
X125848000Y-85050238D01*
X125800380Y-84907380D01*
X125800380Y-84812142D01*
X125848000Y-84669285D01*
X125895619Y-84621666D01*
X125895619Y-84240714D02*
X125848000Y-84193095D01*
X125800380Y-84097857D01*
X125800380Y-83859761D01*
X125848000Y-83764523D01*
X125895619Y-83716904D01*
X125990857Y-83669285D01*
X126086095Y-83669285D01*
X126228952Y-83716904D01*
X126800380Y-84288333D01*
X126800380Y-83669285D01*
X127912833Y-90146142D02*
X127865214Y-90193761D01*
X127722357Y-90241380D01*
X127627119Y-90241380D01*
X127484261Y-90193761D01*
X127389023Y-90098523D01*
X127341404Y-90003285D01*
X127293785Y-89812809D01*
X127293785Y-89669952D01*
X127341404Y-89479476D01*
X127389023Y-89384238D01*
X127484261Y-89289000D01*
X127627119Y-89241380D01*
X127722357Y-89241380D01*
X127865214Y-89289000D01*
X127912833Y-89336619D01*
X128246166Y-89241380D02*
X128865214Y-89241380D01*
X128531880Y-89622333D01*
X128674738Y-89622333D01*
X128769976Y-89669952D01*
X128817595Y-89717571D01*
X128865214Y-89812809D01*
X128865214Y-90050904D01*
X128817595Y-90146142D01*
X128769976Y-90193761D01*
X128674738Y-90241380D01*
X128389023Y-90241380D01*
X128293785Y-90193761D01*
X128246166Y-90146142D01*
X119975333Y-108561142D02*
X119927714Y-108608761D01*
X119784857Y-108656380D01*
X119689619Y-108656380D01*
X119546761Y-108608761D01*
X119451523Y-108513523D01*
X119403904Y-108418285D01*
X119356285Y-108227809D01*
X119356285Y-108084952D01*
X119403904Y-107894476D01*
X119451523Y-107799238D01*
X119546761Y-107704000D01*
X119689619Y-107656380D01*
X119784857Y-107656380D01*
X119927714Y-107704000D01*
X119975333Y-107751619D01*
X120832476Y-107989714D02*
X120832476Y-108656380D01*
X120594380Y-107608761D02*
X120356285Y-108323047D01*
X120975333Y-108323047D01*
X152774142Y-84812166D02*
X152821761Y-84859785D01*
X152869380Y-85002642D01*
X152869380Y-85097880D01*
X152821761Y-85240738D01*
X152726523Y-85335976D01*
X152631285Y-85383595D01*
X152440809Y-85431214D01*
X152297952Y-85431214D01*
X152107476Y-85383595D01*
X152012238Y-85335976D01*
X151917000Y-85240738D01*
X151869380Y-85097880D01*
X151869380Y-85002642D01*
X151917000Y-84859785D01*
X151964619Y-84812166D01*
X151869380Y-83907404D02*
X151869380Y-84383595D01*
X152345571Y-84431214D01*
X152297952Y-84383595D01*
X152250333Y-84288357D01*
X152250333Y-84050261D01*
X152297952Y-83955023D01*
X152345571Y-83907404D01*
X152440809Y-83859785D01*
X152678904Y-83859785D01*
X152774142Y-83907404D01*
X152821761Y-83955023D01*
X152869380Y-84050261D01*
X152869380Y-84288357D01*
X152821761Y-84383595D01*
X152774142Y-84431214D01*
X148502642Y-90654166D02*
X148550261Y-90701785D01*
X148597880Y-90844642D01*
X148597880Y-90939880D01*
X148550261Y-91082738D01*
X148455023Y-91177976D01*
X148359785Y-91225595D01*
X148169309Y-91273214D01*
X148026452Y-91273214D01*
X147835976Y-91225595D01*
X147740738Y-91177976D01*
X147645500Y-91082738D01*
X147597880Y-90939880D01*
X147597880Y-90844642D01*
X147645500Y-90701785D01*
X147693119Y-90654166D01*
X147597880Y-89797023D02*
X147597880Y-89987500D01*
X147645500Y-90082738D01*
X147693119Y-90130357D01*
X147835976Y-90225595D01*
X148026452Y-90273214D01*
X148407404Y-90273214D01*
X148502642Y-90225595D01*
X148550261Y-90177976D01*
X148597880Y-90082738D01*
X148597880Y-89892261D01*
X148550261Y-89797023D01*
X148502642Y-89749404D01*
X148407404Y-89701785D01*
X148169309Y-89701785D01*
X148074071Y-89749404D01*
X148026452Y-89797023D01*
X147978833Y-89892261D01*
X147978833Y-90082738D01*
X148026452Y-90177976D01*
X148074071Y-90225595D01*
X148169309Y-90273214D01*
X101135166Y-99055380D02*
X101135166Y-99769666D01*
X101087547Y-99912523D01*
X100992309Y-100007761D01*
X100849452Y-100055380D01*
X100754214Y-100055380D01*
X102135166Y-100055380D02*
X101563738Y-100055380D01*
X101849452Y-100055380D02*
X101849452Y-99055380D01*
X101754214Y-99198238D01*
X101658976Y-99293476D01*
X101563738Y-99341095D01*
X103552666Y-109815380D02*
X103552666Y-110529666D01*
X103505047Y-110672523D01*
X103409809Y-110767761D01*
X103266952Y-110815380D01*
X103171714Y-110815380D01*
X103981238Y-109910619D02*
X104028857Y-109863000D01*
X104124095Y-109815380D01*
X104362190Y-109815380D01*
X104457428Y-109863000D01*
X104505047Y-109910619D01*
X104552666Y-110005857D01*
X104552666Y-110101095D01*
X104505047Y-110243952D01*
X103933619Y-110815380D01*
X104552666Y-110815380D01*
X149844166Y-132611880D02*
X149844166Y-133326166D01*
X149796547Y-133469023D01*
X149701309Y-133564261D01*
X149558452Y-133611880D01*
X149463214Y-133611880D01*
X150225119Y-132611880D02*
X150844166Y-132611880D01*
X150510833Y-132992833D01*
X150653690Y-132992833D01*
X150748928Y-133040452D01*
X150796547Y-133088071D01*
X150844166Y-133183309D01*
X150844166Y-133421404D01*
X150796547Y-133516642D01*
X150748928Y-133564261D01*
X150653690Y-133611880D01*
X150367976Y-133611880D01*
X150272738Y-133564261D01*
X150225119Y-133516642D01*
X155368666Y-132548380D02*
X155368666Y-133262666D01*
X155321047Y-133405523D01*
X155225809Y-133500761D01*
X155082952Y-133548380D01*
X154987714Y-133548380D01*
X156273428Y-132881714D02*
X156273428Y-133548380D01*
X156035333Y-132500761D02*
X155797238Y-133215047D01*
X156416285Y-133215047D01*
X142668666Y-136866380D02*
X142668666Y-137580666D01*
X142621047Y-137723523D01*
X142525809Y-137818761D01*
X142382952Y-137866380D01*
X142287714Y-137866380D01*
X143621047Y-136866380D02*
X143144857Y-136866380D01*
X143097238Y-137342571D01*
X143144857Y-137294952D01*
X143240095Y-137247333D01*
X143478190Y-137247333D01*
X143573428Y-137294952D01*
X143621047Y-137342571D01*
X143668666Y-137437809D01*
X143668666Y-137675904D01*
X143621047Y-137771142D01*
X143573428Y-137818761D01*
X143478190Y-137866380D01*
X143240095Y-137866380D01*
X143144857Y-137818761D01*
X143097238Y-137771142D01*
X119856761Y-98519619D02*
X119761523Y-98472000D01*
X119666285Y-98376761D01*
X119523428Y-98233904D01*
X119428190Y-98186285D01*
X119332952Y-98186285D01*
X119380571Y-98424380D02*
X119285333Y-98376761D01*
X119190095Y-98281523D01*
X119142476Y-98091047D01*
X119142476Y-97757714D01*
X119190095Y-97567238D01*
X119285333Y-97472000D01*
X119380571Y-97424380D01*
X119571047Y-97424380D01*
X119666285Y-97472000D01*
X119761523Y-97567238D01*
X119809142Y-97757714D01*
X119809142Y-98091047D01*
X119761523Y-98281523D01*
X119666285Y-98376761D01*
X119571047Y-98424380D01*
X119380571Y-98424380D01*
X120761523Y-98424380D02*
X120190095Y-98424380D01*
X120475809Y-98424380D02*
X120475809Y-97424380D01*
X120380571Y-97567238D01*
X120285333Y-97662476D01*
X120190095Y-97710095D01*
X107973333Y-108508380D02*
X107640000Y-108032190D01*
X107401904Y-108508380D02*
X107401904Y-107508380D01*
X107782857Y-107508380D01*
X107878095Y-107556000D01*
X107925714Y-107603619D01*
X107973333Y-107698857D01*
X107973333Y-107841714D01*
X107925714Y-107936952D01*
X107878095Y-107984571D01*
X107782857Y-108032190D01*
X107401904Y-108032190D01*
X108925714Y-108508380D02*
X108354285Y-108508380D01*
X108640000Y-108508380D02*
X108640000Y-107508380D01*
X108544761Y-107651238D01*
X108449523Y-107746476D01*
X108354285Y-107794095D01*
X105306833Y-102433380D02*
X104973500Y-101957190D01*
X104735404Y-102433380D02*
X104735404Y-101433380D01*
X105116357Y-101433380D01*
X105211595Y-101481000D01*
X105259214Y-101528619D01*
X105306833Y-101623857D01*
X105306833Y-101766714D01*
X105259214Y-101861952D01*
X105211595Y-101909571D01*
X105116357Y-101957190D01*
X104735404Y-101957190D01*
X105687785Y-101528619D02*
X105735404Y-101481000D01*
X105830642Y-101433380D01*
X106068738Y-101433380D01*
X106163976Y-101481000D01*
X106211595Y-101528619D01*
X106259214Y-101623857D01*
X106259214Y-101719095D01*
X106211595Y-101861952D01*
X105640166Y-102433380D01*
X106259214Y-102433380D01*
X115467333Y-133590380D02*
X115134000Y-133114190D01*
X114895904Y-133590380D02*
X114895904Y-132590380D01*
X115276857Y-132590380D01*
X115372095Y-132638000D01*
X115419714Y-132685619D01*
X115467333Y-132780857D01*
X115467333Y-132923714D01*
X115419714Y-133018952D01*
X115372095Y-133066571D01*
X115276857Y-133114190D01*
X114895904Y-133114190D01*
X115800666Y-132590380D02*
X116419714Y-132590380D01*
X116086380Y-132971333D01*
X116229238Y-132971333D01*
X116324476Y-133018952D01*
X116372095Y-133066571D01*
X116419714Y-133161809D01*
X116419714Y-133399904D01*
X116372095Y-133495142D01*
X116324476Y-133542761D01*
X116229238Y-133590380D01*
X115943523Y-133590380D01*
X115848285Y-133542761D01*
X115800666Y-133495142D01*
X121054833Y-136532880D02*
X120721500Y-136056690D01*
X120483404Y-136532880D02*
X120483404Y-135532880D01*
X120864357Y-135532880D01*
X120959595Y-135580500D01*
X121007214Y-135628119D01*
X121054833Y-135723357D01*
X121054833Y-135866214D01*
X121007214Y-135961452D01*
X120959595Y-136009071D01*
X120864357Y-136056690D01*
X120483404Y-136056690D01*
X121911976Y-135866214D02*
X121911976Y-136532880D01*
X121673880Y-135485261D02*
X121435785Y-136199547D01*
X122054833Y-136199547D01*
X123134380Y-108878666D02*
X122658190Y-109212000D01*
X123134380Y-109450095D02*
X122134380Y-109450095D01*
X122134380Y-109069142D01*
X122182000Y-108973904D01*
X122229619Y-108926285D01*
X122324857Y-108878666D01*
X122467714Y-108878666D01*
X122562952Y-108926285D01*
X122610571Y-108973904D01*
X122658190Y-109069142D01*
X122658190Y-109450095D01*
X122134380Y-107973904D02*
X122134380Y-108450095D01*
X122610571Y-108497714D01*
X122562952Y-108450095D01*
X122515333Y-108354857D01*
X122515333Y-108116761D01*
X122562952Y-108021523D01*
X122610571Y-107973904D01*
X122705809Y-107926285D01*
X122943904Y-107926285D01*
X123039142Y-107973904D01*
X123086761Y-108021523D01*
X123134380Y-108116761D01*
X123134380Y-108354857D01*
X123086761Y-108450095D01*
X123039142Y-108497714D01*
X126769833Y-105100380D02*
X126436500Y-104624190D01*
X126198404Y-105100380D02*
X126198404Y-104100380D01*
X126579357Y-104100380D01*
X126674595Y-104148000D01*
X126722214Y-104195619D01*
X126769833Y-104290857D01*
X126769833Y-104433714D01*
X126722214Y-104528952D01*
X126674595Y-104576571D01*
X126579357Y-104624190D01*
X126198404Y-104624190D01*
X127626976Y-104100380D02*
X127436500Y-104100380D01*
X127341261Y-104148000D01*
X127293642Y-104195619D01*
X127198404Y-104338476D01*
X127150785Y-104528952D01*
X127150785Y-104909904D01*
X127198404Y-105005142D01*
X127246023Y-105052761D01*
X127341261Y-105100380D01*
X127531738Y-105100380D01*
X127626976Y-105052761D01*
X127674595Y-105005142D01*
X127722214Y-104909904D01*
X127722214Y-104671809D01*
X127674595Y-104576571D01*
X127626976Y-104528952D01*
X127531738Y-104481333D01*
X127341261Y-104481333D01*
X127246023Y-104528952D01*
X127198404Y-104576571D01*
X127150785Y-104671809D01*
X131770380Y-106402166D02*
X131294190Y-106735500D01*
X131770380Y-106973595D02*
X130770380Y-106973595D01*
X130770380Y-106592642D01*
X130818000Y-106497404D01*
X130865619Y-106449785D01*
X130960857Y-106402166D01*
X131103714Y-106402166D01*
X131198952Y-106449785D01*
X131246571Y-106497404D01*
X131294190Y-106592642D01*
X131294190Y-106973595D01*
X130770380Y-106068833D02*
X130770380Y-105402166D01*
X131770380Y-105830738D01*
X124674333Y-136405880D02*
X124341000Y-135929690D01*
X124102904Y-136405880D02*
X124102904Y-135405880D01*
X124483857Y-135405880D01*
X124579095Y-135453500D01*
X124626714Y-135501119D01*
X124674333Y-135596357D01*
X124674333Y-135739214D01*
X124626714Y-135834452D01*
X124579095Y-135882071D01*
X124483857Y-135929690D01*
X124102904Y-135929690D01*
X125245761Y-135834452D02*
X125150523Y-135786833D01*
X125102904Y-135739214D01*
X125055285Y-135643976D01*
X125055285Y-135596357D01*
X125102904Y-135501119D01*
X125150523Y-135453500D01*
X125245761Y-135405880D01*
X125436238Y-135405880D01*
X125531476Y-135453500D01*
X125579095Y-135501119D01*
X125626714Y-135596357D01*
X125626714Y-135643976D01*
X125579095Y-135739214D01*
X125531476Y-135786833D01*
X125436238Y-135834452D01*
X125245761Y-135834452D01*
X125150523Y-135882071D01*
X125102904Y-135929690D01*
X125055285Y-136024928D01*
X125055285Y-136215404D01*
X125102904Y-136310642D01*
X125150523Y-136358261D01*
X125245761Y-136405880D01*
X125436238Y-136405880D01*
X125531476Y-136358261D01*
X125579095Y-136310642D01*
X125626714Y-136215404D01*
X125626714Y-136024928D01*
X125579095Y-135929690D01*
X125531476Y-135882071D01*
X125436238Y-135834452D01*
X127468333Y-136342380D02*
X127135000Y-135866190D01*
X126896904Y-136342380D02*
X126896904Y-135342380D01*
X127277857Y-135342380D01*
X127373095Y-135390000D01*
X127420714Y-135437619D01*
X127468333Y-135532857D01*
X127468333Y-135675714D01*
X127420714Y-135770952D01*
X127373095Y-135818571D01*
X127277857Y-135866190D01*
X126896904Y-135866190D01*
X127944523Y-136342380D02*
X128135000Y-136342380D01*
X128230238Y-136294761D01*
X128277857Y-136247142D01*
X128373095Y-136104285D01*
X128420714Y-135913809D01*
X128420714Y-135532857D01*
X128373095Y-135437619D01*
X128325476Y-135390000D01*
X128230238Y-135342380D01*
X128039761Y-135342380D01*
X127944523Y-135390000D01*
X127896904Y-135437619D01*
X127849285Y-135532857D01*
X127849285Y-135770952D01*
X127896904Y-135866190D01*
X127944523Y-135913809D01*
X128039761Y-135961428D01*
X128230238Y-135961428D01*
X128325476Y-135913809D01*
X128373095Y-135866190D01*
X128420714Y-135770952D01*
X133723142Y-137654380D02*
X133389809Y-137178190D01*
X133151714Y-137654380D02*
X133151714Y-136654380D01*
X133532666Y-136654380D01*
X133627904Y-136702000D01*
X133675523Y-136749619D01*
X133723142Y-136844857D01*
X133723142Y-136987714D01*
X133675523Y-137082952D01*
X133627904Y-137130571D01*
X133532666Y-137178190D01*
X133151714Y-137178190D01*
X134675523Y-137654380D02*
X134104095Y-137654380D01*
X134389809Y-137654380D02*
X134389809Y-136654380D01*
X134294571Y-136797238D01*
X134199333Y-136892476D01*
X134104095Y-136940095D01*
X135294571Y-136654380D02*
X135389809Y-136654380D01*
X135485047Y-136702000D01*
X135532666Y-136749619D01*
X135580285Y-136844857D01*
X135627904Y-137035333D01*
X135627904Y-137273428D01*
X135580285Y-137463904D01*
X135532666Y-137559142D01*
X135485047Y-137606761D01*
X135389809Y-137654380D01*
X135294571Y-137654380D01*
X135199333Y-137606761D01*
X135151714Y-137559142D01*
X135104095Y-137463904D01*
X135056476Y-137273428D01*
X135056476Y-137035333D01*
X135104095Y-136844857D01*
X135151714Y-136749619D01*
X135199333Y-136702000D01*
X135294571Y-136654380D01*
X132199142Y-130817880D02*
X131865809Y-130341690D01*
X131627714Y-130817880D02*
X131627714Y-129817880D01*
X132008666Y-129817880D01*
X132103904Y-129865500D01*
X132151523Y-129913119D01*
X132199142Y-130008357D01*
X132199142Y-130151214D01*
X132151523Y-130246452D01*
X132103904Y-130294071D01*
X132008666Y-130341690D01*
X131627714Y-130341690D01*
X133151523Y-130817880D02*
X132580095Y-130817880D01*
X132865809Y-130817880D02*
X132865809Y-129817880D01*
X132770571Y-129960738D01*
X132675333Y-130055976D01*
X132580095Y-130103595D01*
X134103904Y-130817880D02*
X133532476Y-130817880D01*
X133818190Y-130817880D02*
X133818190Y-129817880D01*
X133722952Y-129960738D01*
X133627714Y-130055976D01*
X133532476Y-130103595D01*
X119570166Y-99782261D02*
X119713023Y-99829880D01*
X119951119Y-99829880D01*
X120046357Y-99782261D01*
X120093976Y-99734642D01*
X120141595Y-99639404D01*
X120141595Y-99544166D01*
X120093976Y-99448928D01*
X120046357Y-99401309D01*
X119951119Y-99353690D01*
X119760642Y-99306071D01*
X119665404Y-99258452D01*
X119617785Y-99210833D01*
X119570166Y-99115595D01*
X119570166Y-99020357D01*
X119617785Y-98925119D01*
X119665404Y-98877500D01*
X119760642Y-98829880D01*
X119998738Y-98829880D01*
X120141595Y-98877500D01*
X120474928Y-98829880D02*
X120713023Y-99829880D01*
X120903500Y-99115595D01*
X121093976Y-99829880D01*
X121332071Y-98829880D01*
X121665404Y-98925119D02*
X121713023Y-98877500D01*
X121808261Y-98829880D01*
X122046357Y-98829880D01*
X122141595Y-98877500D01*
X122189214Y-98925119D01*
X122236833Y-99020357D01*
X122236833Y-99115595D01*
X122189214Y-99258452D01*
X121617785Y-99829880D01*
X122236833Y-99829880D01*
X140970095Y-88034880D02*
X140970095Y-88844404D01*
X141017714Y-88939642D01*
X141065333Y-88987261D01*
X141160571Y-89034880D01*
X141351047Y-89034880D01*
X141446285Y-88987261D01*
X141493904Y-88939642D01*
X141541523Y-88844404D01*
X141541523Y-88034880D01*
X142541523Y-89034880D02*
X141970095Y-89034880D01*
X142255809Y-89034880D02*
X142255809Y-88034880D01*
X142160571Y-88177738D01*
X142065333Y-88272976D01*
X141970095Y-88320595D01*
X141342095Y-97623380D02*
X141342095Y-98432904D01*
X141389714Y-98528142D01*
X141437333Y-98575761D01*
X141532571Y-98623380D01*
X141723047Y-98623380D01*
X141818285Y-98575761D01*
X141865904Y-98528142D01*
X141913523Y-98432904D01*
X141913523Y-97623380D01*
X142294476Y-97623380D02*
X142913523Y-97623380D01*
X142580190Y-98004333D01*
X142723047Y-98004333D01*
X142818285Y-98051952D01*
X142865904Y-98099571D01*
X142913523Y-98194809D01*
X142913523Y-98432904D01*
X142865904Y-98528142D01*
X142818285Y-98575761D01*
X142723047Y-98623380D01*
X142437333Y-98623380D01*
X142342095Y-98575761D01*
X142294476Y-98528142D01*
M02*
