%TF.GenerationSoftware,KiCad,Pcbnew,(5.1.5)-3*%
%TF.CreationDate,2020-09-10T16:10:11-05:00*%
%TF.ProjectId,UVLight,55564c69-6768-4742-9e6b-696361645f70,rev?*%
%TF.SameCoordinates,Original*%
%TF.FileFunction,Copper,L1,Top*%
%TF.FilePolarity,Positive*%
%FSLAX46Y46*%
G04 Gerber Fmt 4.6, Leading zero omitted, Abs format (unit mm)*
G04 Created by KiCad (PCBNEW (5.1.5)-3) date 2020-09-10 16:10:11*
%MOMM*%
%LPD*%
G04 APERTURE LIST*
%ADD10C,0.050000*%
%ADD11C,2.000000*%
%ADD12R,2.500000X1.800000*%
%ADD13C,0.100000*%
%ADD14R,1.100000X2.500000*%
%ADD15O,1.100000X2.500000*%
%ADD16O,2.500000X1.100000*%
%ADD17R,1.905000X2.000000*%
%ADD18O,1.905000X2.000000*%
%ADD19R,2.000000X0.700000*%
%ADD20R,3.500000X3.500000*%
%ADD21R,1.300000X0.450000*%
%ADD22O,2.000000X1.450000*%
%ADD23O,1.800000X1.150000*%
%ADD24O,1.750000X1.200000*%
%ADD25R,2.200000X1.200000*%
%ADD26R,6.400000X5.800000*%
%ADD27R,1.200000X2.200000*%
%ADD28R,5.800000X6.400000*%
%ADD29C,0.800000*%
%ADD30C,1.000000*%
%ADD31C,0.600000*%
%ADD32C,0.750000*%
%ADD33C,0.400000*%
%ADD34C,0.500000*%
%ADD35C,2.000000*%
%ADD36C,5.000000*%
%ADD37C,0.250000*%
%ADD38C,0.254000*%
G04 APERTURE END LIST*
D10*
X95885000Y-140462000D02*
X95885000Y-73660000D01*
X161290000Y-140462000D02*
X95885000Y-140462000D01*
X161290000Y-73660000D02*
X161290000Y-140462000D01*
X95885000Y-73660000D02*
X161290000Y-73660000D01*
D11*
X106957000Y-126174000D03*
X106957000Y-130674000D03*
X100457000Y-126174000D03*
X100457000Y-130674000D03*
D12*
X139541000Y-102997000D03*
X135541000Y-102997000D03*
X137128000Y-78359000D03*
X133128000Y-78359000D03*
%TA.AperFunction,SMDPad,CuDef*%
D13*
G36*
X118337703Y-100182722D02*
G01*
X118352264Y-100184882D01*
X118366543Y-100188459D01*
X118380403Y-100193418D01*
X118393710Y-100199712D01*
X118406336Y-100207280D01*
X118418159Y-100216048D01*
X118429066Y-100225934D01*
X118438952Y-100236841D01*
X118447720Y-100248664D01*
X118455288Y-100261290D01*
X118461582Y-100274597D01*
X118466541Y-100288457D01*
X118470118Y-100302736D01*
X118472278Y-100317297D01*
X118473000Y-100332000D01*
X118473000Y-101982000D01*
X118472278Y-101996703D01*
X118470118Y-102011264D01*
X118466541Y-102025543D01*
X118461582Y-102039403D01*
X118455288Y-102052710D01*
X118447720Y-102065336D01*
X118438952Y-102077159D01*
X118429066Y-102088066D01*
X118418159Y-102097952D01*
X118406336Y-102106720D01*
X118393710Y-102114288D01*
X118380403Y-102120582D01*
X118366543Y-102125541D01*
X118352264Y-102129118D01*
X118337703Y-102131278D01*
X118323000Y-102132000D01*
X118023000Y-102132000D01*
X118008297Y-102131278D01*
X117993736Y-102129118D01*
X117979457Y-102125541D01*
X117965597Y-102120582D01*
X117952290Y-102114288D01*
X117939664Y-102106720D01*
X117927841Y-102097952D01*
X117916934Y-102088066D01*
X117907048Y-102077159D01*
X117898280Y-102065336D01*
X117890712Y-102052710D01*
X117884418Y-102039403D01*
X117879459Y-102025543D01*
X117875882Y-102011264D01*
X117873722Y-101996703D01*
X117873000Y-101982000D01*
X117873000Y-100332000D01*
X117873722Y-100317297D01*
X117875882Y-100302736D01*
X117879459Y-100288457D01*
X117884418Y-100274597D01*
X117890712Y-100261290D01*
X117898280Y-100248664D01*
X117907048Y-100236841D01*
X117916934Y-100225934D01*
X117927841Y-100216048D01*
X117939664Y-100207280D01*
X117952290Y-100199712D01*
X117965597Y-100193418D01*
X117979457Y-100188459D01*
X117993736Y-100184882D01*
X118008297Y-100182722D01*
X118023000Y-100182000D01*
X118323000Y-100182000D01*
X118337703Y-100182722D01*
G37*
%TD.AperFunction*%
%TA.AperFunction,SMDPad,CuDef*%
G36*
X117067703Y-100182722D02*
G01*
X117082264Y-100184882D01*
X117096543Y-100188459D01*
X117110403Y-100193418D01*
X117123710Y-100199712D01*
X117136336Y-100207280D01*
X117148159Y-100216048D01*
X117159066Y-100225934D01*
X117168952Y-100236841D01*
X117177720Y-100248664D01*
X117185288Y-100261290D01*
X117191582Y-100274597D01*
X117196541Y-100288457D01*
X117200118Y-100302736D01*
X117202278Y-100317297D01*
X117203000Y-100332000D01*
X117203000Y-101982000D01*
X117202278Y-101996703D01*
X117200118Y-102011264D01*
X117196541Y-102025543D01*
X117191582Y-102039403D01*
X117185288Y-102052710D01*
X117177720Y-102065336D01*
X117168952Y-102077159D01*
X117159066Y-102088066D01*
X117148159Y-102097952D01*
X117136336Y-102106720D01*
X117123710Y-102114288D01*
X117110403Y-102120582D01*
X117096543Y-102125541D01*
X117082264Y-102129118D01*
X117067703Y-102131278D01*
X117053000Y-102132000D01*
X116753000Y-102132000D01*
X116738297Y-102131278D01*
X116723736Y-102129118D01*
X116709457Y-102125541D01*
X116695597Y-102120582D01*
X116682290Y-102114288D01*
X116669664Y-102106720D01*
X116657841Y-102097952D01*
X116646934Y-102088066D01*
X116637048Y-102077159D01*
X116628280Y-102065336D01*
X116620712Y-102052710D01*
X116614418Y-102039403D01*
X116609459Y-102025543D01*
X116605882Y-102011264D01*
X116603722Y-101996703D01*
X116603000Y-101982000D01*
X116603000Y-100332000D01*
X116603722Y-100317297D01*
X116605882Y-100302736D01*
X116609459Y-100288457D01*
X116614418Y-100274597D01*
X116620712Y-100261290D01*
X116628280Y-100248664D01*
X116637048Y-100236841D01*
X116646934Y-100225934D01*
X116657841Y-100216048D01*
X116669664Y-100207280D01*
X116682290Y-100199712D01*
X116695597Y-100193418D01*
X116709457Y-100188459D01*
X116723736Y-100184882D01*
X116738297Y-100182722D01*
X116753000Y-100182000D01*
X117053000Y-100182000D01*
X117067703Y-100182722D01*
G37*
%TD.AperFunction*%
%TA.AperFunction,SMDPad,CuDef*%
G36*
X115797703Y-100182722D02*
G01*
X115812264Y-100184882D01*
X115826543Y-100188459D01*
X115840403Y-100193418D01*
X115853710Y-100199712D01*
X115866336Y-100207280D01*
X115878159Y-100216048D01*
X115889066Y-100225934D01*
X115898952Y-100236841D01*
X115907720Y-100248664D01*
X115915288Y-100261290D01*
X115921582Y-100274597D01*
X115926541Y-100288457D01*
X115930118Y-100302736D01*
X115932278Y-100317297D01*
X115933000Y-100332000D01*
X115933000Y-101982000D01*
X115932278Y-101996703D01*
X115930118Y-102011264D01*
X115926541Y-102025543D01*
X115921582Y-102039403D01*
X115915288Y-102052710D01*
X115907720Y-102065336D01*
X115898952Y-102077159D01*
X115889066Y-102088066D01*
X115878159Y-102097952D01*
X115866336Y-102106720D01*
X115853710Y-102114288D01*
X115840403Y-102120582D01*
X115826543Y-102125541D01*
X115812264Y-102129118D01*
X115797703Y-102131278D01*
X115783000Y-102132000D01*
X115483000Y-102132000D01*
X115468297Y-102131278D01*
X115453736Y-102129118D01*
X115439457Y-102125541D01*
X115425597Y-102120582D01*
X115412290Y-102114288D01*
X115399664Y-102106720D01*
X115387841Y-102097952D01*
X115376934Y-102088066D01*
X115367048Y-102077159D01*
X115358280Y-102065336D01*
X115350712Y-102052710D01*
X115344418Y-102039403D01*
X115339459Y-102025543D01*
X115335882Y-102011264D01*
X115333722Y-101996703D01*
X115333000Y-101982000D01*
X115333000Y-100332000D01*
X115333722Y-100317297D01*
X115335882Y-100302736D01*
X115339459Y-100288457D01*
X115344418Y-100274597D01*
X115350712Y-100261290D01*
X115358280Y-100248664D01*
X115367048Y-100236841D01*
X115376934Y-100225934D01*
X115387841Y-100216048D01*
X115399664Y-100207280D01*
X115412290Y-100199712D01*
X115425597Y-100193418D01*
X115439457Y-100188459D01*
X115453736Y-100184882D01*
X115468297Y-100182722D01*
X115483000Y-100182000D01*
X115783000Y-100182000D01*
X115797703Y-100182722D01*
G37*
%TD.AperFunction*%
%TA.AperFunction,SMDPad,CuDef*%
G36*
X114527703Y-100182722D02*
G01*
X114542264Y-100184882D01*
X114556543Y-100188459D01*
X114570403Y-100193418D01*
X114583710Y-100199712D01*
X114596336Y-100207280D01*
X114608159Y-100216048D01*
X114619066Y-100225934D01*
X114628952Y-100236841D01*
X114637720Y-100248664D01*
X114645288Y-100261290D01*
X114651582Y-100274597D01*
X114656541Y-100288457D01*
X114660118Y-100302736D01*
X114662278Y-100317297D01*
X114663000Y-100332000D01*
X114663000Y-101982000D01*
X114662278Y-101996703D01*
X114660118Y-102011264D01*
X114656541Y-102025543D01*
X114651582Y-102039403D01*
X114645288Y-102052710D01*
X114637720Y-102065336D01*
X114628952Y-102077159D01*
X114619066Y-102088066D01*
X114608159Y-102097952D01*
X114596336Y-102106720D01*
X114583710Y-102114288D01*
X114570403Y-102120582D01*
X114556543Y-102125541D01*
X114542264Y-102129118D01*
X114527703Y-102131278D01*
X114513000Y-102132000D01*
X114213000Y-102132000D01*
X114198297Y-102131278D01*
X114183736Y-102129118D01*
X114169457Y-102125541D01*
X114155597Y-102120582D01*
X114142290Y-102114288D01*
X114129664Y-102106720D01*
X114117841Y-102097952D01*
X114106934Y-102088066D01*
X114097048Y-102077159D01*
X114088280Y-102065336D01*
X114080712Y-102052710D01*
X114074418Y-102039403D01*
X114069459Y-102025543D01*
X114065882Y-102011264D01*
X114063722Y-101996703D01*
X114063000Y-101982000D01*
X114063000Y-100332000D01*
X114063722Y-100317297D01*
X114065882Y-100302736D01*
X114069459Y-100288457D01*
X114074418Y-100274597D01*
X114080712Y-100261290D01*
X114088280Y-100248664D01*
X114097048Y-100236841D01*
X114106934Y-100225934D01*
X114117841Y-100216048D01*
X114129664Y-100207280D01*
X114142290Y-100199712D01*
X114155597Y-100193418D01*
X114169457Y-100188459D01*
X114183736Y-100184882D01*
X114198297Y-100182722D01*
X114213000Y-100182000D01*
X114513000Y-100182000D01*
X114527703Y-100182722D01*
G37*
%TD.AperFunction*%
%TA.AperFunction,SMDPad,CuDef*%
G36*
X114527703Y-105132722D02*
G01*
X114542264Y-105134882D01*
X114556543Y-105138459D01*
X114570403Y-105143418D01*
X114583710Y-105149712D01*
X114596336Y-105157280D01*
X114608159Y-105166048D01*
X114619066Y-105175934D01*
X114628952Y-105186841D01*
X114637720Y-105198664D01*
X114645288Y-105211290D01*
X114651582Y-105224597D01*
X114656541Y-105238457D01*
X114660118Y-105252736D01*
X114662278Y-105267297D01*
X114663000Y-105282000D01*
X114663000Y-106932000D01*
X114662278Y-106946703D01*
X114660118Y-106961264D01*
X114656541Y-106975543D01*
X114651582Y-106989403D01*
X114645288Y-107002710D01*
X114637720Y-107015336D01*
X114628952Y-107027159D01*
X114619066Y-107038066D01*
X114608159Y-107047952D01*
X114596336Y-107056720D01*
X114583710Y-107064288D01*
X114570403Y-107070582D01*
X114556543Y-107075541D01*
X114542264Y-107079118D01*
X114527703Y-107081278D01*
X114513000Y-107082000D01*
X114213000Y-107082000D01*
X114198297Y-107081278D01*
X114183736Y-107079118D01*
X114169457Y-107075541D01*
X114155597Y-107070582D01*
X114142290Y-107064288D01*
X114129664Y-107056720D01*
X114117841Y-107047952D01*
X114106934Y-107038066D01*
X114097048Y-107027159D01*
X114088280Y-107015336D01*
X114080712Y-107002710D01*
X114074418Y-106989403D01*
X114069459Y-106975543D01*
X114065882Y-106961264D01*
X114063722Y-106946703D01*
X114063000Y-106932000D01*
X114063000Y-105282000D01*
X114063722Y-105267297D01*
X114065882Y-105252736D01*
X114069459Y-105238457D01*
X114074418Y-105224597D01*
X114080712Y-105211290D01*
X114088280Y-105198664D01*
X114097048Y-105186841D01*
X114106934Y-105175934D01*
X114117841Y-105166048D01*
X114129664Y-105157280D01*
X114142290Y-105149712D01*
X114155597Y-105143418D01*
X114169457Y-105138459D01*
X114183736Y-105134882D01*
X114198297Y-105132722D01*
X114213000Y-105132000D01*
X114513000Y-105132000D01*
X114527703Y-105132722D01*
G37*
%TD.AperFunction*%
%TA.AperFunction,SMDPad,CuDef*%
G36*
X115797703Y-105132722D02*
G01*
X115812264Y-105134882D01*
X115826543Y-105138459D01*
X115840403Y-105143418D01*
X115853710Y-105149712D01*
X115866336Y-105157280D01*
X115878159Y-105166048D01*
X115889066Y-105175934D01*
X115898952Y-105186841D01*
X115907720Y-105198664D01*
X115915288Y-105211290D01*
X115921582Y-105224597D01*
X115926541Y-105238457D01*
X115930118Y-105252736D01*
X115932278Y-105267297D01*
X115933000Y-105282000D01*
X115933000Y-106932000D01*
X115932278Y-106946703D01*
X115930118Y-106961264D01*
X115926541Y-106975543D01*
X115921582Y-106989403D01*
X115915288Y-107002710D01*
X115907720Y-107015336D01*
X115898952Y-107027159D01*
X115889066Y-107038066D01*
X115878159Y-107047952D01*
X115866336Y-107056720D01*
X115853710Y-107064288D01*
X115840403Y-107070582D01*
X115826543Y-107075541D01*
X115812264Y-107079118D01*
X115797703Y-107081278D01*
X115783000Y-107082000D01*
X115483000Y-107082000D01*
X115468297Y-107081278D01*
X115453736Y-107079118D01*
X115439457Y-107075541D01*
X115425597Y-107070582D01*
X115412290Y-107064288D01*
X115399664Y-107056720D01*
X115387841Y-107047952D01*
X115376934Y-107038066D01*
X115367048Y-107027159D01*
X115358280Y-107015336D01*
X115350712Y-107002710D01*
X115344418Y-106989403D01*
X115339459Y-106975543D01*
X115335882Y-106961264D01*
X115333722Y-106946703D01*
X115333000Y-106932000D01*
X115333000Y-105282000D01*
X115333722Y-105267297D01*
X115335882Y-105252736D01*
X115339459Y-105238457D01*
X115344418Y-105224597D01*
X115350712Y-105211290D01*
X115358280Y-105198664D01*
X115367048Y-105186841D01*
X115376934Y-105175934D01*
X115387841Y-105166048D01*
X115399664Y-105157280D01*
X115412290Y-105149712D01*
X115425597Y-105143418D01*
X115439457Y-105138459D01*
X115453736Y-105134882D01*
X115468297Y-105132722D01*
X115483000Y-105132000D01*
X115783000Y-105132000D01*
X115797703Y-105132722D01*
G37*
%TD.AperFunction*%
%TA.AperFunction,SMDPad,CuDef*%
G36*
X117067703Y-105132722D02*
G01*
X117082264Y-105134882D01*
X117096543Y-105138459D01*
X117110403Y-105143418D01*
X117123710Y-105149712D01*
X117136336Y-105157280D01*
X117148159Y-105166048D01*
X117159066Y-105175934D01*
X117168952Y-105186841D01*
X117177720Y-105198664D01*
X117185288Y-105211290D01*
X117191582Y-105224597D01*
X117196541Y-105238457D01*
X117200118Y-105252736D01*
X117202278Y-105267297D01*
X117203000Y-105282000D01*
X117203000Y-106932000D01*
X117202278Y-106946703D01*
X117200118Y-106961264D01*
X117196541Y-106975543D01*
X117191582Y-106989403D01*
X117185288Y-107002710D01*
X117177720Y-107015336D01*
X117168952Y-107027159D01*
X117159066Y-107038066D01*
X117148159Y-107047952D01*
X117136336Y-107056720D01*
X117123710Y-107064288D01*
X117110403Y-107070582D01*
X117096543Y-107075541D01*
X117082264Y-107079118D01*
X117067703Y-107081278D01*
X117053000Y-107082000D01*
X116753000Y-107082000D01*
X116738297Y-107081278D01*
X116723736Y-107079118D01*
X116709457Y-107075541D01*
X116695597Y-107070582D01*
X116682290Y-107064288D01*
X116669664Y-107056720D01*
X116657841Y-107047952D01*
X116646934Y-107038066D01*
X116637048Y-107027159D01*
X116628280Y-107015336D01*
X116620712Y-107002710D01*
X116614418Y-106989403D01*
X116609459Y-106975543D01*
X116605882Y-106961264D01*
X116603722Y-106946703D01*
X116603000Y-106932000D01*
X116603000Y-105282000D01*
X116603722Y-105267297D01*
X116605882Y-105252736D01*
X116609459Y-105238457D01*
X116614418Y-105224597D01*
X116620712Y-105211290D01*
X116628280Y-105198664D01*
X116637048Y-105186841D01*
X116646934Y-105175934D01*
X116657841Y-105166048D01*
X116669664Y-105157280D01*
X116682290Y-105149712D01*
X116695597Y-105143418D01*
X116709457Y-105138459D01*
X116723736Y-105134882D01*
X116738297Y-105132722D01*
X116753000Y-105132000D01*
X117053000Y-105132000D01*
X117067703Y-105132722D01*
G37*
%TD.AperFunction*%
%TA.AperFunction,SMDPad,CuDef*%
G36*
X118337703Y-105132722D02*
G01*
X118352264Y-105134882D01*
X118366543Y-105138459D01*
X118380403Y-105143418D01*
X118393710Y-105149712D01*
X118406336Y-105157280D01*
X118418159Y-105166048D01*
X118429066Y-105175934D01*
X118438952Y-105186841D01*
X118447720Y-105198664D01*
X118455288Y-105211290D01*
X118461582Y-105224597D01*
X118466541Y-105238457D01*
X118470118Y-105252736D01*
X118472278Y-105267297D01*
X118473000Y-105282000D01*
X118473000Y-106932000D01*
X118472278Y-106946703D01*
X118470118Y-106961264D01*
X118466541Y-106975543D01*
X118461582Y-106989403D01*
X118455288Y-107002710D01*
X118447720Y-107015336D01*
X118438952Y-107027159D01*
X118429066Y-107038066D01*
X118418159Y-107047952D01*
X118406336Y-107056720D01*
X118393710Y-107064288D01*
X118380403Y-107070582D01*
X118366543Y-107075541D01*
X118352264Y-107079118D01*
X118337703Y-107081278D01*
X118323000Y-107082000D01*
X118023000Y-107082000D01*
X118008297Y-107081278D01*
X117993736Y-107079118D01*
X117979457Y-107075541D01*
X117965597Y-107070582D01*
X117952290Y-107064288D01*
X117939664Y-107056720D01*
X117927841Y-107047952D01*
X117916934Y-107038066D01*
X117907048Y-107027159D01*
X117898280Y-107015336D01*
X117890712Y-107002710D01*
X117884418Y-106989403D01*
X117879459Y-106975543D01*
X117875882Y-106961264D01*
X117873722Y-106946703D01*
X117873000Y-106932000D01*
X117873000Y-105282000D01*
X117873722Y-105267297D01*
X117875882Y-105252736D01*
X117879459Y-105238457D01*
X117884418Y-105224597D01*
X117890712Y-105211290D01*
X117898280Y-105198664D01*
X117907048Y-105186841D01*
X117916934Y-105175934D01*
X117927841Y-105166048D01*
X117939664Y-105157280D01*
X117952290Y-105149712D01*
X117965597Y-105143418D01*
X117979457Y-105138459D01*
X117993736Y-105134882D01*
X118008297Y-105132722D01*
X118023000Y-105132000D01*
X118323000Y-105132000D01*
X118337703Y-105132722D01*
G37*
%TD.AperFunction*%
D14*
X117602000Y-127827000D03*
D15*
X119602000Y-127827000D03*
X121602000Y-127827000D03*
X123602000Y-127827000D03*
X125602000Y-127827000D03*
X127602000Y-127827000D03*
X129602000Y-127827000D03*
X131602000Y-127827000D03*
X131602000Y-112427000D03*
X129602000Y-112527000D03*
X127602000Y-112427000D03*
X125602000Y-112427000D03*
X123602000Y-112427000D03*
X121602000Y-112427000D03*
X119602000Y-112427000D03*
X117602000Y-112427000D03*
D16*
X133302000Y-125137000D03*
X133302000Y-123137000D03*
X133302000Y-121137000D03*
X133302000Y-119137000D03*
X133302000Y-117137000D03*
X133302000Y-115137000D03*
D17*
X138811000Y-125412000D03*
D18*
X141351000Y-125412000D03*
X143891000Y-125412000D03*
X155130000Y-121475500D03*
X152590000Y-121475500D03*
D17*
X150050000Y-121475500D03*
D19*
X133238000Y-131890000D03*
X136638000Y-130940000D03*
X136638000Y-132840000D03*
%TA.AperFunction,SMDPad,CuDef*%
D13*
G36*
X112917504Y-108662204D02*
G01*
X112941773Y-108665804D01*
X112965571Y-108671765D01*
X112988671Y-108680030D01*
X113010849Y-108690520D01*
X113031893Y-108703133D01*
X113051598Y-108717747D01*
X113069777Y-108734223D01*
X113086253Y-108752402D01*
X113100867Y-108772107D01*
X113113480Y-108793151D01*
X113123970Y-108815329D01*
X113132235Y-108838429D01*
X113138196Y-108862227D01*
X113141796Y-108886496D01*
X113143000Y-108911000D01*
X113143000Y-109836000D01*
X113141796Y-109860504D01*
X113138196Y-109884773D01*
X113132235Y-109908571D01*
X113123970Y-109931671D01*
X113113480Y-109953849D01*
X113100867Y-109974893D01*
X113086253Y-109994598D01*
X113069777Y-110012777D01*
X113051598Y-110029253D01*
X113031893Y-110043867D01*
X113010849Y-110056480D01*
X112988671Y-110066970D01*
X112965571Y-110075235D01*
X112941773Y-110081196D01*
X112917504Y-110084796D01*
X112893000Y-110086000D01*
X111643000Y-110086000D01*
X111618496Y-110084796D01*
X111594227Y-110081196D01*
X111570429Y-110075235D01*
X111547329Y-110066970D01*
X111525151Y-110056480D01*
X111504107Y-110043867D01*
X111484402Y-110029253D01*
X111466223Y-110012777D01*
X111449747Y-109994598D01*
X111435133Y-109974893D01*
X111422520Y-109953849D01*
X111412030Y-109931671D01*
X111403765Y-109908571D01*
X111397804Y-109884773D01*
X111394204Y-109860504D01*
X111393000Y-109836000D01*
X111393000Y-108911000D01*
X111394204Y-108886496D01*
X111397804Y-108862227D01*
X111403765Y-108838429D01*
X111412030Y-108815329D01*
X111422520Y-108793151D01*
X111435133Y-108772107D01*
X111449747Y-108752402D01*
X111466223Y-108734223D01*
X111484402Y-108717747D01*
X111504107Y-108703133D01*
X111525151Y-108690520D01*
X111547329Y-108680030D01*
X111570429Y-108671765D01*
X111594227Y-108665804D01*
X111618496Y-108662204D01*
X111643000Y-108661000D01*
X112893000Y-108661000D01*
X112917504Y-108662204D01*
G37*
%TD.AperFunction*%
%TA.AperFunction,SMDPad,CuDef*%
G36*
X112917504Y-105687204D02*
G01*
X112941773Y-105690804D01*
X112965571Y-105696765D01*
X112988671Y-105705030D01*
X113010849Y-105715520D01*
X113031893Y-105728133D01*
X113051598Y-105742747D01*
X113069777Y-105759223D01*
X113086253Y-105777402D01*
X113100867Y-105797107D01*
X113113480Y-105818151D01*
X113123970Y-105840329D01*
X113132235Y-105863429D01*
X113138196Y-105887227D01*
X113141796Y-105911496D01*
X113143000Y-105936000D01*
X113143000Y-106861000D01*
X113141796Y-106885504D01*
X113138196Y-106909773D01*
X113132235Y-106933571D01*
X113123970Y-106956671D01*
X113113480Y-106978849D01*
X113100867Y-106999893D01*
X113086253Y-107019598D01*
X113069777Y-107037777D01*
X113051598Y-107054253D01*
X113031893Y-107068867D01*
X113010849Y-107081480D01*
X112988671Y-107091970D01*
X112965571Y-107100235D01*
X112941773Y-107106196D01*
X112917504Y-107109796D01*
X112893000Y-107111000D01*
X111643000Y-107111000D01*
X111618496Y-107109796D01*
X111594227Y-107106196D01*
X111570429Y-107100235D01*
X111547329Y-107091970D01*
X111525151Y-107081480D01*
X111504107Y-107068867D01*
X111484402Y-107054253D01*
X111466223Y-107037777D01*
X111449747Y-107019598D01*
X111435133Y-106999893D01*
X111422520Y-106978849D01*
X111412030Y-106956671D01*
X111403765Y-106933571D01*
X111397804Y-106909773D01*
X111394204Y-106885504D01*
X111393000Y-106861000D01*
X111393000Y-105936000D01*
X111394204Y-105911496D01*
X111397804Y-105887227D01*
X111403765Y-105863429D01*
X111412030Y-105840329D01*
X111422520Y-105818151D01*
X111435133Y-105797107D01*
X111449747Y-105777402D01*
X111466223Y-105759223D01*
X111484402Y-105742747D01*
X111504107Y-105728133D01*
X111525151Y-105715520D01*
X111547329Y-105705030D01*
X111570429Y-105696765D01*
X111594227Y-105690804D01*
X111618496Y-105687204D01*
X111643000Y-105686000D01*
X112893000Y-105686000D01*
X112917504Y-105687204D01*
G37*
%TD.AperFunction*%
%TA.AperFunction,SMDPad,CuDef*%
G36*
X130622504Y-80756204D02*
G01*
X130646773Y-80759804D01*
X130670571Y-80765765D01*
X130693671Y-80774030D01*
X130715849Y-80784520D01*
X130736893Y-80797133D01*
X130756598Y-80811747D01*
X130774777Y-80828223D01*
X130791253Y-80846402D01*
X130805867Y-80866107D01*
X130818480Y-80887151D01*
X130828970Y-80909329D01*
X130837235Y-80932429D01*
X130843196Y-80956227D01*
X130846796Y-80980496D01*
X130848000Y-81005000D01*
X130848000Y-83505000D01*
X130846796Y-83529504D01*
X130843196Y-83553773D01*
X130837235Y-83577571D01*
X130828970Y-83600671D01*
X130818480Y-83622849D01*
X130805867Y-83643893D01*
X130791253Y-83663598D01*
X130774777Y-83681777D01*
X130756598Y-83698253D01*
X130736893Y-83712867D01*
X130715849Y-83725480D01*
X130693671Y-83735970D01*
X130670571Y-83744235D01*
X130646773Y-83750196D01*
X130622504Y-83753796D01*
X130598000Y-83755000D01*
X129498000Y-83755000D01*
X129473496Y-83753796D01*
X129449227Y-83750196D01*
X129425429Y-83744235D01*
X129402329Y-83735970D01*
X129380151Y-83725480D01*
X129359107Y-83712867D01*
X129339402Y-83698253D01*
X129321223Y-83681777D01*
X129304747Y-83663598D01*
X129290133Y-83643893D01*
X129277520Y-83622849D01*
X129267030Y-83600671D01*
X129258765Y-83577571D01*
X129252804Y-83553773D01*
X129249204Y-83529504D01*
X129248000Y-83505000D01*
X129248000Y-81005000D01*
X129249204Y-80980496D01*
X129252804Y-80956227D01*
X129258765Y-80932429D01*
X129267030Y-80909329D01*
X129277520Y-80887151D01*
X129290133Y-80866107D01*
X129304747Y-80846402D01*
X129321223Y-80828223D01*
X129339402Y-80811747D01*
X129359107Y-80797133D01*
X129380151Y-80784520D01*
X129402329Y-80774030D01*
X129425429Y-80765765D01*
X129449227Y-80759804D01*
X129473496Y-80756204D01*
X129498000Y-80755000D01*
X130598000Y-80755000D01*
X130622504Y-80756204D01*
G37*
%TD.AperFunction*%
%TA.AperFunction,SMDPad,CuDef*%
G36*
X130622504Y-85156204D02*
G01*
X130646773Y-85159804D01*
X130670571Y-85165765D01*
X130693671Y-85174030D01*
X130715849Y-85184520D01*
X130736893Y-85197133D01*
X130756598Y-85211747D01*
X130774777Y-85228223D01*
X130791253Y-85246402D01*
X130805867Y-85266107D01*
X130818480Y-85287151D01*
X130828970Y-85309329D01*
X130837235Y-85332429D01*
X130843196Y-85356227D01*
X130846796Y-85380496D01*
X130848000Y-85405000D01*
X130848000Y-87905000D01*
X130846796Y-87929504D01*
X130843196Y-87953773D01*
X130837235Y-87977571D01*
X130828970Y-88000671D01*
X130818480Y-88022849D01*
X130805867Y-88043893D01*
X130791253Y-88063598D01*
X130774777Y-88081777D01*
X130756598Y-88098253D01*
X130736893Y-88112867D01*
X130715849Y-88125480D01*
X130693671Y-88135970D01*
X130670571Y-88144235D01*
X130646773Y-88150196D01*
X130622504Y-88153796D01*
X130598000Y-88155000D01*
X129498000Y-88155000D01*
X129473496Y-88153796D01*
X129449227Y-88150196D01*
X129425429Y-88144235D01*
X129402329Y-88135970D01*
X129380151Y-88125480D01*
X129359107Y-88112867D01*
X129339402Y-88098253D01*
X129321223Y-88081777D01*
X129304747Y-88063598D01*
X129290133Y-88043893D01*
X129277520Y-88022849D01*
X129267030Y-88000671D01*
X129258765Y-87977571D01*
X129252804Y-87953773D01*
X129249204Y-87929504D01*
X129248000Y-87905000D01*
X129248000Y-85405000D01*
X129249204Y-85380496D01*
X129252804Y-85356227D01*
X129258765Y-85332429D01*
X129267030Y-85309329D01*
X129277520Y-85287151D01*
X129290133Y-85266107D01*
X129304747Y-85246402D01*
X129321223Y-85228223D01*
X129339402Y-85211747D01*
X129359107Y-85197133D01*
X129380151Y-85184520D01*
X129402329Y-85174030D01*
X129425429Y-85165765D01*
X129449227Y-85159804D01*
X129473496Y-85156204D01*
X129498000Y-85155000D01*
X130598000Y-85155000D01*
X130622504Y-85156204D01*
G37*
%TD.AperFunction*%
%TA.AperFunction,SMDPad,CuDef*%
G36*
X130749504Y-94173204D02*
G01*
X130773773Y-94176804D01*
X130797571Y-94182765D01*
X130820671Y-94191030D01*
X130842849Y-94201520D01*
X130863893Y-94214133D01*
X130883598Y-94228747D01*
X130901777Y-94245223D01*
X130918253Y-94263402D01*
X130932867Y-94283107D01*
X130945480Y-94304151D01*
X130955970Y-94326329D01*
X130964235Y-94349429D01*
X130970196Y-94373227D01*
X130973796Y-94397496D01*
X130975000Y-94422000D01*
X130975000Y-96922000D01*
X130973796Y-96946504D01*
X130970196Y-96970773D01*
X130964235Y-96994571D01*
X130955970Y-97017671D01*
X130945480Y-97039849D01*
X130932867Y-97060893D01*
X130918253Y-97080598D01*
X130901777Y-97098777D01*
X130883598Y-97115253D01*
X130863893Y-97129867D01*
X130842849Y-97142480D01*
X130820671Y-97152970D01*
X130797571Y-97161235D01*
X130773773Y-97167196D01*
X130749504Y-97170796D01*
X130725000Y-97172000D01*
X129625000Y-97172000D01*
X129600496Y-97170796D01*
X129576227Y-97167196D01*
X129552429Y-97161235D01*
X129529329Y-97152970D01*
X129507151Y-97142480D01*
X129486107Y-97129867D01*
X129466402Y-97115253D01*
X129448223Y-97098777D01*
X129431747Y-97080598D01*
X129417133Y-97060893D01*
X129404520Y-97039849D01*
X129394030Y-97017671D01*
X129385765Y-96994571D01*
X129379804Y-96970773D01*
X129376204Y-96946504D01*
X129375000Y-96922000D01*
X129375000Y-94422000D01*
X129376204Y-94397496D01*
X129379804Y-94373227D01*
X129385765Y-94349429D01*
X129394030Y-94326329D01*
X129404520Y-94304151D01*
X129417133Y-94283107D01*
X129431747Y-94263402D01*
X129448223Y-94245223D01*
X129466402Y-94228747D01*
X129486107Y-94214133D01*
X129507151Y-94201520D01*
X129529329Y-94191030D01*
X129552429Y-94182765D01*
X129576227Y-94176804D01*
X129600496Y-94173204D01*
X129625000Y-94172000D01*
X130725000Y-94172000D01*
X130749504Y-94173204D01*
G37*
%TD.AperFunction*%
%TA.AperFunction,SMDPad,CuDef*%
G36*
X130749504Y-89773204D02*
G01*
X130773773Y-89776804D01*
X130797571Y-89782765D01*
X130820671Y-89791030D01*
X130842849Y-89801520D01*
X130863893Y-89814133D01*
X130883598Y-89828747D01*
X130901777Y-89845223D01*
X130918253Y-89863402D01*
X130932867Y-89883107D01*
X130945480Y-89904151D01*
X130955970Y-89926329D01*
X130964235Y-89949429D01*
X130970196Y-89973227D01*
X130973796Y-89997496D01*
X130975000Y-90022000D01*
X130975000Y-92522000D01*
X130973796Y-92546504D01*
X130970196Y-92570773D01*
X130964235Y-92594571D01*
X130955970Y-92617671D01*
X130945480Y-92639849D01*
X130932867Y-92660893D01*
X130918253Y-92680598D01*
X130901777Y-92698777D01*
X130883598Y-92715253D01*
X130863893Y-92729867D01*
X130842849Y-92742480D01*
X130820671Y-92752970D01*
X130797571Y-92761235D01*
X130773773Y-92767196D01*
X130749504Y-92770796D01*
X130725000Y-92772000D01*
X129625000Y-92772000D01*
X129600496Y-92770796D01*
X129576227Y-92767196D01*
X129552429Y-92761235D01*
X129529329Y-92752970D01*
X129507151Y-92742480D01*
X129486107Y-92729867D01*
X129466402Y-92715253D01*
X129448223Y-92698777D01*
X129431747Y-92680598D01*
X129417133Y-92660893D01*
X129404520Y-92639849D01*
X129394030Y-92617671D01*
X129385765Y-92594571D01*
X129379804Y-92570773D01*
X129376204Y-92546504D01*
X129375000Y-92522000D01*
X129375000Y-90022000D01*
X129376204Y-89997496D01*
X129379804Y-89973227D01*
X129385765Y-89949429D01*
X129394030Y-89926329D01*
X129404520Y-89904151D01*
X129417133Y-89883107D01*
X129431747Y-89863402D01*
X129448223Y-89845223D01*
X129466402Y-89828747D01*
X129486107Y-89814133D01*
X129507151Y-89801520D01*
X129529329Y-89791030D01*
X129552429Y-89782765D01*
X129576227Y-89776804D01*
X129600496Y-89773204D01*
X129625000Y-89772000D01*
X130725000Y-89772000D01*
X130749504Y-89773204D01*
G37*
%TD.AperFunction*%
%TA.AperFunction,SMDPad,CuDef*%
G36*
X120918504Y-105614204D02*
G01*
X120942773Y-105617804D01*
X120966571Y-105623765D01*
X120989671Y-105632030D01*
X121011849Y-105642520D01*
X121032893Y-105655133D01*
X121052598Y-105669747D01*
X121070777Y-105686223D01*
X121087253Y-105704402D01*
X121101867Y-105724107D01*
X121114480Y-105745151D01*
X121124970Y-105767329D01*
X121133235Y-105790429D01*
X121139196Y-105814227D01*
X121142796Y-105838496D01*
X121144000Y-105863000D01*
X121144000Y-106788000D01*
X121142796Y-106812504D01*
X121139196Y-106836773D01*
X121133235Y-106860571D01*
X121124970Y-106883671D01*
X121114480Y-106905849D01*
X121101867Y-106926893D01*
X121087253Y-106946598D01*
X121070777Y-106964777D01*
X121052598Y-106981253D01*
X121032893Y-106995867D01*
X121011849Y-107008480D01*
X120989671Y-107018970D01*
X120966571Y-107027235D01*
X120942773Y-107033196D01*
X120918504Y-107036796D01*
X120894000Y-107038000D01*
X119644000Y-107038000D01*
X119619496Y-107036796D01*
X119595227Y-107033196D01*
X119571429Y-107027235D01*
X119548329Y-107018970D01*
X119526151Y-107008480D01*
X119505107Y-106995867D01*
X119485402Y-106981253D01*
X119467223Y-106964777D01*
X119450747Y-106946598D01*
X119436133Y-106926893D01*
X119423520Y-106905849D01*
X119413030Y-106883671D01*
X119404765Y-106860571D01*
X119398804Y-106836773D01*
X119395204Y-106812504D01*
X119394000Y-106788000D01*
X119394000Y-105863000D01*
X119395204Y-105838496D01*
X119398804Y-105814227D01*
X119404765Y-105790429D01*
X119413030Y-105767329D01*
X119423520Y-105745151D01*
X119436133Y-105724107D01*
X119450747Y-105704402D01*
X119467223Y-105686223D01*
X119485402Y-105669747D01*
X119505107Y-105655133D01*
X119526151Y-105642520D01*
X119548329Y-105632030D01*
X119571429Y-105623765D01*
X119595227Y-105617804D01*
X119619496Y-105614204D01*
X119644000Y-105613000D01*
X120894000Y-105613000D01*
X120918504Y-105614204D01*
G37*
%TD.AperFunction*%
%TA.AperFunction,SMDPad,CuDef*%
G36*
X120918504Y-102639204D02*
G01*
X120942773Y-102642804D01*
X120966571Y-102648765D01*
X120989671Y-102657030D01*
X121011849Y-102667520D01*
X121032893Y-102680133D01*
X121052598Y-102694747D01*
X121070777Y-102711223D01*
X121087253Y-102729402D01*
X121101867Y-102749107D01*
X121114480Y-102770151D01*
X121124970Y-102792329D01*
X121133235Y-102815429D01*
X121139196Y-102839227D01*
X121142796Y-102863496D01*
X121144000Y-102888000D01*
X121144000Y-103813000D01*
X121142796Y-103837504D01*
X121139196Y-103861773D01*
X121133235Y-103885571D01*
X121124970Y-103908671D01*
X121114480Y-103930849D01*
X121101867Y-103951893D01*
X121087253Y-103971598D01*
X121070777Y-103989777D01*
X121052598Y-104006253D01*
X121032893Y-104020867D01*
X121011849Y-104033480D01*
X120989671Y-104043970D01*
X120966571Y-104052235D01*
X120942773Y-104058196D01*
X120918504Y-104061796D01*
X120894000Y-104063000D01*
X119644000Y-104063000D01*
X119619496Y-104061796D01*
X119595227Y-104058196D01*
X119571429Y-104052235D01*
X119548329Y-104043970D01*
X119526151Y-104033480D01*
X119505107Y-104020867D01*
X119485402Y-104006253D01*
X119467223Y-103989777D01*
X119450747Y-103971598D01*
X119436133Y-103951893D01*
X119423520Y-103930849D01*
X119413030Y-103908671D01*
X119404765Y-103885571D01*
X119398804Y-103861773D01*
X119395204Y-103837504D01*
X119394000Y-103813000D01*
X119394000Y-102888000D01*
X119395204Y-102863496D01*
X119398804Y-102839227D01*
X119404765Y-102815429D01*
X119413030Y-102792329D01*
X119423520Y-102770151D01*
X119436133Y-102749107D01*
X119450747Y-102729402D01*
X119467223Y-102711223D01*
X119485402Y-102694747D01*
X119505107Y-102680133D01*
X119526151Y-102667520D01*
X119548329Y-102657030D01*
X119571429Y-102648765D01*
X119595227Y-102642804D01*
X119619496Y-102639204D01*
X119644000Y-102638000D01*
X120894000Y-102638000D01*
X120918504Y-102639204D01*
G37*
%TD.AperFunction*%
%TA.AperFunction,SMDPad,CuDef*%
G36*
X149291504Y-80946704D02*
G01*
X149315773Y-80950304D01*
X149339571Y-80956265D01*
X149362671Y-80964530D01*
X149384849Y-80975020D01*
X149405893Y-80987633D01*
X149425598Y-81002247D01*
X149443777Y-81018723D01*
X149460253Y-81036902D01*
X149474867Y-81056607D01*
X149487480Y-81077651D01*
X149497970Y-81099829D01*
X149506235Y-81122929D01*
X149512196Y-81146727D01*
X149515796Y-81170996D01*
X149517000Y-81195500D01*
X149517000Y-83695500D01*
X149515796Y-83720004D01*
X149512196Y-83744273D01*
X149506235Y-83768071D01*
X149497970Y-83791171D01*
X149487480Y-83813349D01*
X149474867Y-83834393D01*
X149460253Y-83854098D01*
X149443777Y-83872277D01*
X149425598Y-83888753D01*
X149405893Y-83903367D01*
X149384849Y-83915980D01*
X149362671Y-83926470D01*
X149339571Y-83934735D01*
X149315773Y-83940696D01*
X149291504Y-83944296D01*
X149267000Y-83945500D01*
X148167000Y-83945500D01*
X148142496Y-83944296D01*
X148118227Y-83940696D01*
X148094429Y-83934735D01*
X148071329Y-83926470D01*
X148049151Y-83915980D01*
X148028107Y-83903367D01*
X148008402Y-83888753D01*
X147990223Y-83872277D01*
X147973747Y-83854098D01*
X147959133Y-83834393D01*
X147946520Y-83813349D01*
X147936030Y-83791171D01*
X147927765Y-83768071D01*
X147921804Y-83744273D01*
X147918204Y-83720004D01*
X147917000Y-83695500D01*
X147917000Y-81195500D01*
X147918204Y-81170996D01*
X147921804Y-81146727D01*
X147927765Y-81122929D01*
X147936030Y-81099829D01*
X147946520Y-81077651D01*
X147959133Y-81056607D01*
X147973747Y-81036902D01*
X147990223Y-81018723D01*
X148008402Y-81002247D01*
X148028107Y-80987633D01*
X148049151Y-80975020D01*
X148071329Y-80964530D01*
X148094429Y-80956265D01*
X148118227Y-80950304D01*
X148142496Y-80946704D01*
X148167000Y-80945500D01*
X149267000Y-80945500D01*
X149291504Y-80946704D01*
G37*
%TD.AperFunction*%
%TA.AperFunction,SMDPad,CuDef*%
G36*
X149291504Y-85346704D02*
G01*
X149315773Y-85350304D01*
X149339571Y-85356265D01*
X149362671Y-85364530D01*
X149384849Y-85375020D01*
X149405893Y-85387633D01*
X149425598Y-85402247D01*
X149443777Y-85418723D01*
X149460253Y-85436902D01*
X149474867Y-85456607D01*
X149487480Y-85477651D01*
X149497970Y-85499829D01*
X149506235Y-85522929D01*
X149512196Y-85546727D01*
X149515796Y-85570996D01*
X149517000Y-85595500D01*
X149517000Y-88095500D01*
X149515796Y-88120004D01*
X149512196Y-88144273D01*
X149506235Y-88168071D01*
X149497970Y-88191171D01*
X149487480Y-88213349D01*
X149474867Y-88234393D01*
X149460253Y-88254098D01*
X149443777Y-88272277D01*
X149425598Y-88288753D01*
X149405893Y-88303367D01*
X149384849Y-88315980D01*
X149362671Y-88326470D01*
X149339571Y-88334735D01*
X149315773Y-88340696D01*
X149291504Y-88344296D01*
X149267000Y-88345500D01*
X148167000Y-88345500D01*
X148142496Y-88344296D01*
X148118227Y-88340696D01*
X148094429Y-88334735D01*
X148071329Y-88326470D01*
X148049151Y-88315980D01*
X148028107Y-88303367D01*
X148008402Y-88288753D01*
X147990223Y-88272277D01*
X147973747Y-88254098D01*
X147959133Y-88234393D01*
X147946520Y-88213349D01*
X147936030Y-88191171D01*
X147927765Y-88168071D01*
X147921804Y-88144273D01*
X147918204Y-88120004D01*
X147917000Y-88095500D01*
X147917000Y-85595500D01*
X147918204Y-85570996D01*
X147921804Y-85546727D01*
X147927765Y-85522929D01*
X147936030Y-85499829D01*
X147946520Y-85477651D01*
X147959133Y-85456607D01*
X147973747Y-85436902D01*
X147990223Y-85418723D01*
X148008402Y-85402247D01*
X148028107Y-85387633D01*
X148049151Y-85375020D01*
X148071329Y-85364530D01*
X148094429Y-85356265D01*
X148118227Y-85350304D01*
X148142496Y-85346704D01*
X148167000Y-85345500D01*
X149267000Y-85345500D01*
X149291504Y-85346704D01*
G37*
%TD.AperFunction*%
%TA.AperFunction,SMDPad,CuDef*%
G36*
X145036504Y-94109704D02*
G01*
X145060773Y-94113304D01*
X145084571Y-94119265D01*
X145107671Y-94127530D01*
X145129849Y-94138020D01*
X145150893Y-94150633D01*
X145170598Y-94165247D01*
X145188777Y-94181723D01*
X145205253Y-94199902D01*
X145219867Y-94219607D01*
X145232480Y-94240651D01*
X145242970Y-94262829D01*
X145251235Y-94285929D01*
X145257196Y-94309727D01*
X145260796Y-94333996D01*
X145262000Y-94358500D01*
X145262000Y-96858500D01*
X145260796Y-96883004D01*
X145257196Y-96907273D01*
X145251235Y-96931071D01*
X145242970Y-96954171D01*
X145232480Y-96976349D01*
X145219867Y-96997393D01*
X145205253Y-97017098D01*
X145188777Y-97035277D01*
X145170598Y-97051753D01*
X145150893Y-97066367D01*
X145129849Y-97078980D01*
X145107671Y-97089470D01*
X145084571Y-97097735D01*
X145060773Y-97103696D01*
X145036504Y-97107296D01*
X145012000Y-97108500D01*
X143912000Y-97108500D01*
X143887496Y-97107296D01*
X143863227Y-97103696D01*
X143839429Y-97097735D01*
X143816329Y-97089470D01*
X143794151Y-97078980D01*
X143773107Y-97066367D01*
X143753402Y-97051753D01*
X143735223Y-97035277D01*
X143718747Y-97017098D01*
X143704133Y-96997393D01*
X143691520Y-96976349D01*
X143681030Y-96954171D01*
X143672765Y-96931071D01*
X143666804Y-96907273D01*
X143663204Y-96883004D01*
X143662000Y-96858500D01*
X143662000Y-94358500D01*
X143663204Y-94333996D01*
X143666804Y-94309727D01*
X143672765Y-94285929D01*
X143681030Y-94262829D01*
X143691520Y-94240651D01*
X143704133Y-94219607D01*
X143718747Y-94199902D01*
X143735223Y-94181723D01*
X143753402Y-94165247D01*
X143773107Y-94150633D01*
X143794151Y-94138020D01*
X143816329Y-94127530D01*
X143839429Y-94119265D01*
X143863227Y-94113304D01*
X143887496Y-94109704D01*
X143912000Y-94108500D01*
X145012000Y-94108500D01*
X145036504Y-94109704D01*
G37*
%TD.AperFunction*%
%TA.AperFunction,SMDPad,CuDef*%
G36*
X145036504Y-89709704D02*
G01*
X145060773Y-89713304D01*
X145084571Y-89719265D01*
X145107671Y-89727530D01*
X145129849Y-89738020D01*
X145150893Y-89750633D01*
X145170598Y-89765247D01*
X145188777Y-89781723D01*
X145205253Y-89799902D01*
X145219867Y-89819607D01*
X145232480Y-89840651D01*
X145242970Y-89862829D01*
X145251235Y-89885929D01*
X145257196Y-89909727D01*
X145260796Y-89933996D01*
X145262000Y-89958500D01*
X145262000Y-92458500D01*
X145260796Y-92483004D01*
X145257196Y-92507273D01*
X145251235Y-92531071D01*
X145242970Y-92554171D01*
X145232480Y-92576349D01*
X145219867Y-92597393D01*
X145205253Y-92617098D01*
X145188777Y-92635277D01*
X145170598Y-92651753D01*
X145150893Y-92666367D01*
X145129849Y-92678980D01*
X145107671Y-92689470D01*
X145084571Y-92697735D01*
X145060773Y-92703696D01*
X145036504Y-92707296D01*
X145012000Y-92708500D01*
X143912000Y-92708500D01*
X143887496Y-92707296D01*
X143863227Y-92703696D01*
X143839429Y-92697735D01*
X143816329Y-92689470D01*
X143794151Y-92678980D01*
X143773107Y-92666367D01*
X143753402Y-92651753D01*
X143735223Y-92635277D01*
X143718747Y-92617098D01*
X143704133Y-92597393D01*
X143691520Y-92576349D01*
X143681030Y-92554171D01*
X143672765Y-92531071D01*
X143666804Y-92507273D01*
X143663204Y-92483004D01*
X143662000Y-92458500D01*
X143662000Y-89958500D01*
X143663204Y-89933996D01*
X143666804Y-89909727D01*
X143672765Y-89885929D01*
X143681030Y-89862829D01*
X143691520Y-89840651D01*
X143704133Y-89819607D01*
X143718747Y-89799902D01*
X143735223Y-89781723D01*
X143753402Y-89765247D01*
X143773107Y-89750633D01*
X143794151Y-89738020D01*
X143816329Y-89727530D01*
X143839429Y-89719265D01*
X143863227Y-89713304D01*
X143887496Y-89709704D01*
X143912000Y-89708500D01*
X145012000Y-89708500D01*
X145036504Y-89709704D01*
G37*
%TD.AperFunction*%
D20*
X109918500Y-93853000D03*
%TA.AperFunction,ComponentPad*%
D13*
G36*
X104742013Y-92106611D02*
G01*
X104814818Y-92117411D01*
X104886214Y-92135295D01*
X104955513Y-92160090D01*
X105022048Y-92191559D01*
X105085178Y-92229398D01*
X105144295Y-92273242D01*
X105198830Y-92322670D01*
X105248258Y-92377205D01*
X105292102Y-92436322D01*
X105329941Y-92499452D01*
X105361410Y-92565987D01*
X105386205Y-92635286D01*
X105404089Y-92706682D01*
X105414889Y-92779487D01*
X105418500Y-92853000D01*
X105418500Y-94853000D01*
X105414889Y-94926513D01*
X105404089Y-94999318D01*
X105386205Y-95070714D01*
X105361410Y-95140013D01*
X105329941Y-95206548D01*
X105292102Y-95269678D01*
X105248258Y-95328795D01*
X105198830Y-95383330D01*
X105144295Y-95432758D01*
X105085178Y-95476602D01*
X105022048Y-95514441D01*
X104955513Y-95545910D01*
X104886214Y-95570705D01*
X104814818Y-95588589D01*
X104742013Y-95599389D01*
X104668500Y-95603000D01*
X103168500Y-95603000D01*
X103094987Y-95599389D01*
X103022182Y-95588589D01*
X102950786Y-95570705D01*
X102881487Y-95545910D01*
X102814952Y-95514441D01*
X102751822Y-95476602D01*
X102692705Y-95432758D01*
X102638170Y-95383330D01*
X102588742Y-95328795D01*
X102544898Y-95269678D01*
X102507059Y-95206548D01*
X102475590Y-95140013D01*
X102450795Y-95070714D01*
X102432911Y-94999318D01*
X102422111Y-94926513D01*
X102418500Y-94853000D01*
X102418500Y-92853000D01*
X102422111Y-92779487D01*
X102432911Y-92706682D01*
X102450795Y-92635286D01*
X102475590Y-92565987D01*
X102507059Y-92499452D01*
X102544898Y-92436322D01*
X102588742Y-92377205D01*
X102638170Y-92322670D01*
X102692705Y-92273242D01*
X102751822Y-92229398D01*
X102814952Y-92191559D01*
X102881487Y-92160090D01*
X102950786Y-92135295D01*
X103022182Y-92117411D01*
X103094987Y-92106611D01*
X103168500Y-92103000D01*
X104668500Y-92103000D01*
X104742013Y-92106611D01*
G37*
%TD.AperFunction*%
%TA.AperFunction,ComponentPad*%
G36*
X107879265Y-96807213D02*
G01*
X107964204Y-96819813D01*
X108047499Y-96840677D01*
X108128348Y-96869605D01*
X108205972Y-96906319D01*
X108279624Y-96950464D01*
X108348594Y-97001616D01*
X108412218Y-97059282D01*
X108469884Y-97122906D01*
X108521036Y-97191876D01*
X108565181Y-97265528D01*
X108601895Y-97343152D01*
X108630823Y-97424001D01*
X108651687Y-97507296D01*
X108664287Y-97592235D01*
X108668500Y-97678000D01*
X108668500Y-99428000D01*
X108664287Y-99513765D01*
X108651687Y-99598704D01*
X108630823Y-99681999D01*
X108601895Y-99762848D01*
X108565181Y-99840472D01*
X108521036Y-99914124D01*
X108469884Y-99983094D01*
X108412218Y-100046718D01*
X108348594Y-100104384D01*
X108279624Y-100155536D01*
X108205972Y-100199681D01*
X108128348Y-100236395D01*
X108047499Y-100265323D01*
X107964204Y-100286187D01*
X107879265Y-100298787D01*
X107793500Y-100303000D01*
X106043500Y-100303000D01*
X105957735Y-100298787D01*
X105872796Y-100286187D01*
X105789501Y-100265323D01*
X105708652Y-100236395D01*
X105631028Y-100199681D01*
X105557376Y-100155536D01*
X105488406Y-100104384D01*
X105424782Y-100046718D01*
X105367116Y-99983094D01*
X105315964Y-99914124D01*
X105271819Y-99840472D01*
X105235105Y-99762848D01*
X105206177Y-99681999D01*
X105185313Y-99598704D01*
X105172713Y-99513765D01*
X105168500Y-99428000D01*
X105168500Y-97678000D01*
X105172713Y-97592235D01*
X105185313Y-97507296D01*
X105206177Y-97424001D01*
X105235105Y-97343152D01*
X105271819Y-97265528D01*
X105315964Y-97191876D01*
X105367116Y-97122906D01*
X105424782Y-97059282D01*
X105488406Y-97001616D01*
X105557376Y-96950464D01*
X105631028Y-96906319D01*
X105708652Y-96869605D01*
X105789501Y-96840677D01*
X105872796Y-96819813D01*
X105957735Y-96807213D01*
X106043500Y-96803000D01*
X107793500Y-96803000D01*
X107879265Y-96807213D01*
G37*
%TD.AperFunction*%
D21*
X101595000Y-104618000D03*
X101595000Y-105268000D03*
X101595000Y-105918000D03*
X101595000Y-106568000D03*
X101595000Y-107218000D03*
D22*
X101545000Y-102193000D03*
X101545000Y-109643000D03*
D23*
X97745000Y-102043000D03*
X97745000Y-109793000D03*
D24*
X150051000Y-129698500D03*
%TA.AperFunction,ComponentPad*%
D13*
G36*
X150700505Y-127099704D02*
G01*
X150724773Y-127103304D01*
X150748572Y-127109265D01*
X150771671Y-127117530D01*
X150793850Y-127128020D01*
X150814893Y-127140632D01*
X150834599Y-127155247D01*
X150852777Y-127171723D01*
X150869253Y-127189901D01*
X150883868Y-127209607D01*
X150896480Y-127230650D01*
X150906970Y-127252829D01*
X150915235Y-127275928D01*
X150921196Y-127299727D01*
X150924796Y-127323995D01*
X150926000Y-127348499D01*
X150926000Y-128048501D01*
X150924796Y-128073005D01*
X150921196Y-128097273D01*
X150915235Y-128121072D01*
X150906970Y-128144171D01*
X150896480Y-128166350D01*
X150883868Y-128187393D01*
X150869253Y-128207099D01*
X150852777Y-128225277D01*
X150834599Y-128241753D01*
X150814893Y-128256368D01*
X150793850Y-128268980D01*
X150771671Y-128279470D01*
X150748572Y-128287735D01*
X150724773Y-128293696D01*
X150700505Y-128297296D01*
X150676001Y-128298500D01*
X149425999Y-128298500D01*
X149401495Y-128297296D01*
X149377227Y-128293696D01*
X149353428Y-128287735D01*
X149330329Y-128279470D01*
X149308150Y-128268980D01*
X149287107Y-128256368D01*
X149267401Y-128241753D01*
X149249223Y-128225277D01*
X149232747Y-128207099D01*
X149218132Y-128187393D01*
X149205520Y-128166350D01*
X149195030Y-128144171D01*
X149186765Y-128121072D01*
X149180804Y-128097273D01*
X149177204Y-128073005D01*
X149176000Y-128048501D01*
X149176000Y-127348499D01*
X149177204Y-127323995D01*
X149180804Y-127299727D01*
X149186765Y-127275928D01*
X149195030Y-127252829D01*
X149205520Y-127230650D01*
X149218132Y-127209607D01*
X149232747Y-127189901D01*
X149249223Y-127171723D01*
X149267401Y-127155247D01*
X149287107Y-127140632D01*
X149308150Y-127128020D01*
X149330329Y-127117530D01*
X149353428Y-127109265D01*
X149377227Y-127103304D01*
X149401495Y-127099704D01*
X149425999Y-127098500D01*
X150676001Y-127098500D01*
X150700505Y-127099704D01*
G37*
%TD.AperFunction*%
%TA.AperFunction,ComponentPad*%
G36*
X156796505Y-127099704D02*
G01*
X156820773Y-127103304D01*
X156844572Y-127109265D01*
X156867671Y-127117530D01*
X156889850Y-127128020D01*
X156910893Y-127140632D01*
X156930599Y-127155247D01*
X156948777Y-127171723D01*
X156965253Y-127189901D01*
X156979868Y-127209607D01*
X156992480Y-127230650D01*
X157002970Y-127252829D01*
X157011235Y-127275928D01*
X157017196Y-127299727D01*
X157020796Y-127323995D01*
X157022000Y-127348499D01*
X157022000Y-128048501D01*
X157020796Y-128073005D01*
X157017196Y-128097273D01*
X157011235Y-128121072D01*
X157002970Y-128144171D01*
X156992480Y-128166350D01*
X156979868Y-128187393D01*
X156965253Y-128207099D01*
X156948777Y-128225277D01*
X156930599Y-128241753D01*
X156910893Y-128256368D01*
X156889850Y-128268980D01*
X156867671Y-128279470D01*
X156844572Y-128287735D01*
X156820773Y-128293696D01*
X156796505Y-128297296D01*
X156772001Y-128298500D01*
X155521999Y-128298500D01*
X155497495Y-128297296D01*
X155473227Y-128293696D01*
X155449428Y-128287735D01*
X155426329Y-128279470D01*
X155404150Y-128268980D01*
X155383107Y-128256368D01*
X155363401Y-128241753D01*
X155345223Y-128225277D01*
X155328747Y-128207099D01*
X155314132Y-128187393D01*
X155301520Y-128166350D01*
X155291030Y-128144171D01*
X155282765Y-128121072D01*
X155276804Y-128097273D01*
X155273204Y-128073005D01*
X155272000Y-128048501D01*
X155272000Y-127348499D01*
X155273204Y-127323995D01*
X155276804Y-127299727D01*
X155282765Y-127275928D01*
X155291030Y-127252829D01*
X155301520Y-127230650D01*
X155314132Y-127209607D01*
X155328747Y-127189901D01*
X155345223Y-127171723D01*
X155363401Y-127155247D01*
X155383107Y-127140632D01*
X155404150Y-127128020D01*
X155426329Y-127117530D01*
X155449428Y-127109265D01*
X155473227Y-127103304D01*
X155497495Y-127099704D01*
X155521999Y-127098500D01*
X156772001Y-127098500D01*
X156796505Y-127099704D01*
G37*
%TD.AperFunction*%
D24*
X156147000Y-129698500D03*
%TA.AperFunction,ComponentPad*%
D13*
G36*
X143778505Y-129513204D02*
G01*
X143802773Y-129516804D01*
X143826572Y-129522765D01*
X143849671Y-129531030D01*
X143871850Y-129541520D01*
X143892893Y-129554132D01*
X143912599Y-129568747D01*
X143930777Y-129585223D01*
X143947253Y-129603401D01*
X143961868Y-129623107D01*
X143974480Y-129644150D01*
X143984970Y-129666329D01*
X143993235Y-129689428D01*
X143999196Y-129713227D01*
X144002796Y-129737495D01*
X144004000Y-129761999D01*
X144004000Y-130462001D01*
X144002796Y-130486505D01*
X143999196Y-130510773D01*
X143993235Y-130534572D01*
X143984970Y-130557671D01*
X143974480Y-130579850D01*
X143961868Y-130600893D01*
X143947253Y-130620599D01*
X143930777Y-130638777D01*
X143912599Y-130655253D01*
X143892893Y-130669868D01*
X143871850Y-130682480D01*
X143849671Y-130692970D01*
X143826572Y-130701235D01*
X143802773Y-130707196D01*
X143778505Y-130710796D01*
X143754001Y-130712000D01*
X142503999Y-130712000D01*
X142479495Y-130710796D01*
X142455227Y-130707196D01*
X142431428Y-130701235D01*
X142408329Y-130692970D01*
X142386150Y-130682480D01*
X142365107Y-130669868D01*
X142345401Y-130655253D01*
X142327223Y-130638777D01*
X142310747Y-130620599D01*
X142296132Y-130600893D01*
X142283520Y-130579850D01*
X142273030Y-130557671D01*
X142264765Y-130534572D01*
X142258804Y-130510773D01*
X142255204Y-130486505D01*
X142254000Y-130462001D01*
X142254000Y-129761999D01*
X142255204Y-129737495D01*
X142258804Y-129713227D01*
X142264765Y-129689428D01*
X142273030Y-129666329D01*
X142283520Y-129644150D01*
X142296132Y-129623107D01*
X142310747Y-129603401D01*
X142327223Y-129585223D01*
X142345401Y-129568747D01*
X142365107Y-129554132D01*
X142386150Y-129541520D01*
X142408329Y-129531030D01*
X142431428Y-129522765D01*
X142455227Y-129516804D01*
X142479495Y-129513204D01*
X142503999Y-129512000D01*
X143754001Y-129512000D01*
X143778505Y-129513204D01*
G37*
%TD.AperFunction*%
D24*
X143129000Y-132112000D03*
X143129000Y-134112000D03*
D25*
X124152000Y-95752000D03*
X124152000Y-91192000D03*
D26*
X117852000Y-93472000D03*
%TA.AperFunction,SMDPad,CuDef*%
D13*
G36*
X107139504Y-105362204D02*
G01*
X107163773Y-105365804D01*
X107187571Y-105371765D01*
X107210671Y-105380030D01*
X107232849Y-105390520D01*
X107253893Y-105403133D01*
X107273598Y-105417747D01*
X107291777Y-105434223D01*
X107308253Y-105452402D01*
X107322867Y-105472107D01*
X107335480Y-105493151D01*
X107345970Y-105515329D01*
X107354235Y-105538429D01*
X107360196Y-105562227D01*
X107363796Y-105586496D01*
X107365000Y-105611000D01*
X107365000Y-106861000D01*
X107363796Y-106885504D01*
X107360196Y-106909773D01*
X107354235Y-106933571D01*
X107345970Y-106956671D01*
X107335480Y-106978849D01*
X107322867Y-106999893D01*
X107308253Y-107019598D01*
X107291777Y-107037777D01*
X107273598Y-107054253D01*
X107253893Y-107068867D01*
X107232849Y-107081480D01*
X107210671Y-107091970D01*
X107187571Y-107100235D01*
X107163773Y-107106196D01*
X107139504Y-107109796D01*
X107115000Y-107111000D01*
X106190000Y-107111000D01*
X106165496Y-107109796D01*
X106141227Y-107106196D01*
X106117429Y-107100235D01*
X106094329Y-107091970D01*
X106072151Y-107081480D01*
X106051107Y-107068867D01*
X106031402Y-107054253D01*
X106013223Y-107037777D01*
X105996747Y-107019598D01*
X105982133Y-106999893D01*
X105969520Y-106978849D01*
X105959030Y-106956671D01*
X105950765Y-106933571D01*
X105944804Y-106909773D01*
X105941204Y-106885504D01*
X105940000Y-106861000D01*
X105940000Y-105611000D01*
X105941204Y-105586496D01*
X105944804Y-105562227D01*
X105950765Y-105538429D01*
X105959030Y-105515329D01*
X105969520Y-105493151D01*
X105982133Y-105472107D01*
X105996747Y-105452402D01*
X106013223Y-105434223D01*
X106031402Y-105417747D01*
X106051107Y-105403133D01*
X106072151Y-105390520D01*
X106094329Y-105380030D01*
X106117429Y-105371765D01*
X106141227Y-105365804D01*
X106165496Y-105362204D01*
X106190000Y-105361000D01*
X107115000Y-105361000D01*
X107139504Y-105362204D01*
G37*
%TD.AperFunction*%
%TA.AperFunction,SMDPad,CuDef*%
G36*
X110114504Y-105362204D02*
G01*
X110138773Y-105365804D01*
X110162571Y-105371765D01*
X110185671Y-105380030D01*
X110207849Y-105390520D01*
X110228893Y-105403133D01*
X110248598Y-105417747D01*
X110266777Y-105434223D01*
X110283253Y-105452402D01*
X110297867Y-105472107D01*
X110310480Y-105493151D01*
X110320970Y-105515329D01*
X110329235Y-105538429D01*
X110335196Y-105562227D01*
X110338796Y-105586496D01*
X110340000Y-105611000D01*
X110340000Y-106861000D01*
X110338796Y-106885504D01*
X110335196Y-106909773D01*
X110329235Y-106933571D01*
X110320970Y-106956671D01*
X110310480Y-106978849D01*
X110297867Y-106999893D01*
X110283253Y-107019598D01*
X110266777Y-107037777D01*
X110248598Y-107054253D01*
X110228893Y-107068867D01*
X110207849Y-107081480D01*
X110185671Y-107091970D01*
X110162571Y-107100235D01*
X110138773Y-107106196D01*
X110114504Y-107109796D01*
X110090000Y-107111000D01*
X109165000Y-107111000D01*
X109140496Y-107109796D01*
X109116227Y-107106196D01*
X109092429Y-107100235D01*
X109069329Y-107091970D01*
X109047151Y-107081480D01*
X109026107Y-107068867D01*
X109006402Y-107054253D01*
X108988223Y-107037777D01*
X108971747Y-107019598D01*
X108957133Y-106999893D01*
X108944520Y-106978849D01*
X108934030Y-106956671D01*
X108925765Y-106933571D01*
X108919804Y-106909773D01*
X108916204Y-106885504D01*
X108915000Y-106861000D01*
X108915000Y-105611000D01*
X108916204Y-105586496D01*
X108919804Y-105562227D01*
X108925765Y-105538429D01*
X108934030Y-105515329D01*
X108944520Y-105493151D01*
X108957133Y-105472107D01*
X108971747Y-105452402D01*
X108988223Y-105434223D01*
X109006402Y-105417747D01*
X109026107Y-105403133D01*
X109047151Y-105390520D01*
X109069329Y-105380030D01*
X109092429Y-105371765D01*
X109116227Y-105365804D01*
X109140496Y-105362204D01*
X109165000Y-105361000D01*
X110090000Y-105361000D01*
X110114504Y-105362204D01*
G37*
%TD.AperFunction*%
%TA.AperFunction,SMDPad,CuDef*%
G36*
X110114504Y-102948204D02*
G01*
X110138773Y-102951804D01*
X110162571Y-102957765D01*
X110185671Y-102966030D01*
X110207849Y-102976520D01*
X110228893Y-102989133D01*
X110248598Y-103003747D01*
X110266777Y-103020223D01*
X110283253Y-103038402D01*
X110297867Y-103058107D01*
X110310480Y-103079151D01*
X110320970Y-103101329D01*
X110329235Y-103124429D01*
X110335196Y-103148227D01*
X110338796Y-103172496D01*
X110340000Y-103197000D01*
X110340000Y-104447000D01*
X110338796Y-104471504D01*
X110335196Y-104495773D01*
X110329235Y-104519571D01*
X110320970Y-104542671D01*
X110310480Y-104564849D01*
X110297867Y-104585893D01*
X110283253Y-104605598D01*
X110266777Y-104623777D01*
X110248598Y-104640253D01*
X110228893Y-104654867D01*
X110207849Y-104667480D01*
X110185671Y-104677970D01*
X110162571Y-104686235D01*
X110138773Y-104692196D01*
X110114504Y-104695796D01*
X110090000Y-104697000D01*
X109165000Y-104697000D01*
X109140496Y-104695796D01*
X109116227Y-104692196D01*
X109092429Y-104686235D01*
X109069329Y-104677970D01*
X109047151Y-104667480D01*
X109026107Y-104654867D01*
X109006402Y-104640253D01*
X108988223Y-104623777D01*
X108971747Y-104605598D01*
X108957133Y-104585893D01*
X108944520Y-104564849D01*
X108934030Y-104542671D01*
X108925765Y-104519571D01*
X108919804Y-104495773D01*
X108916204Y-104471504D01*
X108915000Y-104447000D01*
X108915000Y-103197000D01*
X108916204Y-103172496D01*
X108919804Y-103148227D01*
X108925765Y-103124429D01*
X108934030Y-103101329D01*
X108944520Y-103079151D01*
X108957133Y-103058107D01*
X108971747Y-103038402D01*
X108988223Y-103020223D01*
X109006402Y-103003747D01*
X109026107Y-102989133D01*
X109047151Y-102976520D01*
X109069329Y-102966030D01*
X109092429Y-102957765D01*
X109116227Y-102951804D01*
X109140496Y-102948204D01*
X109165000Y-102947000D01*
X110090000Y-102947000D01*
X110114504Y-102948204D01*
G37*
%TD.AperFunction*%
%TA.AperFunction,SMDPad,CuDef*%
G36*
X107139504Y-102948204D02*
G01*
X107163773Y-102951804D01*
X107187571Y-102957765D01*
X107210671Y-102966030D01*
X107232849Y-102976520D01*
X107253893Y-102989133D01*
X107273598Y-103003747D01*
X107291777Y-103020223D01*
X107308253Y-103038402D01*
X107322867Y-103058107D01*
X107335480Y-103079151D01*
X107345970Y-103101329D01*
X107354235Y-103124429D01*
X107360196Y-103148227D01*
X107363796Y-103172496D01*
X107365000Y-103197000D01*
X107365000Y-104447000D01*
X107363796Y-104471504D01*
X107360196Y-104495773D01*
X107354235Y-104519571D01*
X107345970Y-104542671D01*
X107335480Y-104564849D01*
X107322867Y-104585893D01*
X107308253Y-104605598D01*
X107291777Y-104623777D01*
X107273598Y-104640253D01*
X107253893Y-104654867D01*
X107232849Y-104667480D01*
X107210671Y-104677970D01*
X107187571Y-104686235D01*
X107163773Y-104692196D01*
X107139504Y-104695796D01*
X107115000Y-104697000D01*
X106190000Y-104697000D01*
X106165496Y-104695796D01*
X106141227Y-104692196D01*
X106117429Y-104686235D01*
X106094329Y-104677970D01*
X106072151Y-104667480D01*
X106051107Y-104654867D01*
X106031402Y-104640253D01*
X106013223Y-104623777D01*
X105996747Y-104605598D01*
X105982133Y-104585893D01*
X105969520Y-104564849D01*
X105959030Y-104542671D01*
X105950765Y-104519571D01*
X105944804Y-104495773D01*
X105941204Y-104471504D01*
X105940000Y-104447000D01*
X105940000Y-103197000D01*
X105941204Y-103172496D01*
X105944804Y-103148227D01*
X105950765Y-103124429D01*
X105959030Y-103101329D01*
X105969520Y-103079151D01*
X105982133Y-103058107D01*
X105996747Y-103038402D01*
X106013223Y-103020223D01*
X106031402Y-103003747D01*
X106051107Y-102989133D01*
X106072151Y-102976520D01*
X106094329Y-102966030D01*
X106117429Y-102957765D01*
X106141227Y-102951804D01*
X106165496Y-102948204D01*
X106190000Y-102947000D01*
X107115000Y-102947000D01*
X107139504Y-102948204D01*
G37*
%TD.AperFunction*%
%TA.AperFunction,SMDPad,CuDef*%
G36*
X117608504Y-130444204D02*
G01*
X117632773Y-130447804D01*
X117656571Y-130453765D01*
X117679671Y-130462030D01*
X117701849Y-130472520D01*
X117722893Y-130485133D01*
X117742598Y-130499747D01*
X117760777Y-130516223D01*
X117777253Y-130534402D01*
X117791867Y-130554107D01*
X117804480Y-130575151D01*
X117814970Y-130597329D01*
X117823235Y-130620429D01*
X117829196Y-130644227D01*
X117832796Y-130668496D01*
X117834000Y-130693000D01*
X117834000Y-131943000D01*
X117832796Y-131967504D01*
X117829196Y-131991773D01*
X117823235Y-132015571D01*
X117814970Y-132038671D01*
X117804480Y-132060849D01*
X117791867Y-132081893D01*
X117777253Y-132101598D01*
X117760777Y-132119777D01*
X117742598Y-132136253D01*
X117722893Y-132150867D01*
X117701849Y-132163480D01*
X117679671Y-132173970D01*
X117656571Y-132182235D01*
X117632773Y-132188196D01*
X117608504Y-132191796D01*
X117584000Y-132193000D01*
X116659000Y-132193000D01*
X116634496Y-132191796D01*
X116610227Y-132188196D01*
X116586429Y-132182235D01*
X116563329Y-132173970D01*
X116541151Y-132163480D01*
X116520107Y-132150867D01*
X116500402Y-132136253D01*
X116482223Y-132119777D01*
X116465747Y-132101598D01*
X116451133Y-132081893D01*
X116438520Y-132060849D01*
X116428030Y-132038671D01*
X116419765Y-132015571D01*
X116413804Y-131991773D01*
X116410204Y-131967504D01*
X116409000Y-131943000D01*
X116409000Y-130693000D01*
X116410204Y-130668496D01*
X116413804Y-130644227D01*
X116419765Y-130620429D01*
X116428030Y-130597329D01*
X116438520Y-130575151D01*
X116451133Y-130554107D01*
X116465747Y-130534402D01*
X116482223Y-130516223D01*
X116500402Y-130499747D01*
X116520107Y-130485133D01*
X116541151Y-130472520D01*
X116563329Y-130462030D01*
X116586429Y-130453765D01*
X116610227Y-130447804D01*
X116634496Y-130444204D01*
X116659000Y-130443000D01*
X117584000Y-130443000D01*
X117608504Y-130444204D01*
G37*
%TD.AperFunction*%
%TA.AperFunction,SMDPad,CuDef*%
G36*
X114633504Y-130444204D02*
G01*
X114657773Y-130447804D01*
X114681571Y-130453765D01*
X114704671Y-130462030D01*
X114726849Y-130472520D01*
X114747893Y-130485133D01*
X114767598Y-130499747D01*
X114785777Y-130516223D01*
X114802253Y-130534402D01*
X114816867Y-130554107D01*
X114829480Y-130575151D01*
X114839970Y-130597329D01*
X114848235Y-130620429D01*
X114854196Y-130644227D01*
X114857796Y-130668496D01*
X114859000Y-130693000D01*
X114859000Y-131943000D01*
X114857796Y-131967504D01*
X114854196Y-131991773D01*
X114848235Y-132015571D01*
X114839970Y-132038671D01*
X114829480Y-132060849D01*
X114816867Y-132081893D01*
X114802253Y-132101598D01*
X114785777Y-132119777D01*
X114767598Y-132136253D01*
X114747893Y-132150867D01*
X114726849Y-132163480D01*
X114704671Y-132173970D01*
X114681571Y-132182235D01*
X114657773Y-132188196D01*
X114633504Y-132191796D01*
X114609000Y-132193000D01*
X113684000Y-132193000D01*
X113659496Y-132191796D01*
X113635227Y-132188196D01*
X113611429Y-132182235D01*
X113588329Y-132173970D01*
X113566151Y-132163480D01*
X113545107Y-132150867D01*
X113525402Y-132136253D01*
X113507223Y-132119777D01*
X113490747Y-132101598D01*
X113476133Y-132081893D01*
X113463520Y-132060849D01*
X113453030Y-132038671D01*
X113444765Y-132015571D01*
X113438804Y-131991773D01*
X113435204Y-131967504D01*
X113434000Y-131943000D01*
X113434000Y-130693000D01*
X113435204Y-130668496D01*
X113438804Y-130644227D01*
X113444765Y-130620429D01*
X113453030Y-130597329D01*
X113463520Y-130575151D01*
X113476133Y-130554107D01*
X113490747Y-130534402D01*
X113507223Y-130516223D01*
X113525402Y-130499747D01*
X113545107Y-130485133D01*
X113566151Y-130472520D01*
X113588329Y-130462030D01*
X113611429Y-130453765D01*
X113635227Y-130447804D01*
X113659496Y-130444204D01*
X113684000Y-130443000D01*
X114609000Y-130443000D01*
X114633504Y-130444204D01*
G37*
%TD.AperFunction*%
%TA.AperFunction,SMDPad,CuDef*%
G36*
X122379504Y-130389204D02*
G01*
X122403773Y-130392804D01*
X122427571Y-130398765D01*
X122450671Y-130407030D01*
X122472849Y-130417520D01*
X122493893Y-130430133D01*
X122513598Y-130444747D01*
X122531777Y-130461223D01*
X122548253Y-130479402D01*
X122562867Y-130499107D01*
X122575480Y-130520151D01*
X122585970Y-130542329D01*
X122594235Y-130565429D01*
X122600196Y-130589227D01*
X122603796Y-130613496D01*
X122605000Y-130638000D01*
X122605000Y-131563000D01*
X122603796Y-131587504D01*
X122600196Y-131611773D01*
X122594235Y-131635571D01*
X122585970Y-131658671D01*
X122575480Y-131680849D01*
X122562867Y-131701893D01*
X122548253Y-131721598D01*
X122531777Y-131739777D01*
X122513598Y-131756253D01*
X122493893Y-131770867D01*
X122472849Y-131783480D01*
X122450671Y-131793970D01*
X122427571Y-131802235D01*
X122403773Y-131808196D01*
X122379504Y-131811796D01*
X122355000Y-131813000D01*
X121105000Y-131813000D01*
X121080496Y-131811796D01*
X121056227Y-131808196D01*
X121032429Y-131802235D01*
X121009329Y-131793970D01*
X120987151Y-131783480D01*
X120966107Y-131770867D01*
X120946402Y-131756253D01*
X120928223Y-131739777D01*
X120911747Y-131721598D01*
X120897133Y-131701893D01*
X120884520Y-131680849D01*
X120874030Y-131658671D01*
X120865765Y-131635571D01*
X120859804Y-131611773D01*
X120856204Y-131587504D01*
X120855000Y-131563000D01*
X120855000Y-130638000D01*
X120856204Y-130613496D01*
X120859804Y-130589227D01*
X120865765Y-130565429D01*
X120874030Y-130542329D01*
X120884520Y-130520151D01*
X120897133Y-130499107D01*
X120911747Y-130479402D01*
X120928223Y-130461223D01*
X120946402Y-130444747D01*
X120966107Y-130430133D01*
X120987151Y-130417520D01*
X121009329Y-130407030D01*
X121032429Y-130398765D01*
X121056227Y-130392804D01*
X121080496Y-130389204D01*
X121105000Y-130388000D01*
X122355000Y-130388000D01*
X122379504Y-130389204D01*
G37*
%TD.AperFunction*%
%TA.AperFunction,SMDPad,CuDef*%
G36*
X122379504Y-133364204D02*
G01*
X122403773Y-133367804D01*
X122427571Y-133373765D01*
X122450671Y-133382030D01*
X122472849Y-133392520D01*
X122493893Y-133405133D01*
X122513598Y-133419747D01*
X122531777Y-133436223D01*
X122548253Y-133454402D01*
X122562867Y-133474107D01*
X122575480Y-133495151D01*
X122585970Y-133517329D01*
X122594235Y-133540429D01*
X122600196Y-133564227D01*
X122603796Y-133588496D01*
X122605000Y-133613000D01*
X122605000Y-134538000D01*
X122603796Y-134562504D01*
X122600196Y-134586773D01*
X122594235Y-134610571D01*
X122585970Y-134633671D01*
X122575480Y-134655849D01*
X122562867Y-134676893D01*
X122548253Y-134696598D01*
X122531777Y-134714777D01*
X122513598Y-134731253D01*
X122493893Y-134745867D01*
X122472849Y-134758480D01*
X122450671Y-134768970D01*
X122427571Y-134777235D01*
X122403773Y-134783196D01*
X122379504Y-134786796D01*
X122355000Y-134788000D01*
X121105000Y-134788000D01*
X121080496Y-134786796D01*
X121056227Y-134783196D01*
X121032429Y-134777235D01*
X121009329Y-134768970D01*
X120987151Y-134758480D01*
X120966107Y-134745867D01*
X120946402Y-134731253D01*
X120928223Y-134714777D01*
X120911747Y-134696598D01*
X120897133Y-134676893D01*
X120884520Y-134655849D01*
X120874030Y-134633671D01*
X120865765Y-134610571D01*
X120859804Y-134586773D01*
X120856204Y-134562504D01*
X120855000Y-134538000D01*
X120855000Y-133613000D01*
X120856204Y-133588496D01*
X120859804Y-133564227D01*
X120865765Y-133540429D01*
X120874030Y-133517329D01*
X120884520Y-133495151D01*
X120897133Y-133474107D01*
X120911747Y-133454402D01*
X120928223Y-133436223D01*
X120946402Y-133419747D01*
X120966107Y-133405133D01*
X120987151Y-133392520D01*
X121009329Y-133382030D01*
X121032429Y-133373765D01*
X121056227Y-133367804D01*
X121080496Y-133364204D01*
X121105000Y-133363000D01*
X122355000Y-133363000D01*
X122379504Y-133364204D01*
G37*
%TD.AperFunction*%
%TA.AperFunction,SMDPad,CuDef*%
G36*
X125173504Y-108472204D02*
G01*
X125197773Y-108475804D01*
X125221571Y-108481765D01*
X125244671Y-108490030D01*
X125266849Y-108500520D01*
X125287893Y-108513133D01*
X125307598Y-108527747D01*
X125325777Y-108544223D01*
X125342253Y-108562402D01*
X125356867Y-108582107D01*
X125369480Y-108603151D01*
X125379970Y-108625329D01*
X125388235Y-108648429D01*
X125394196Y-108672227D01*
X125397796Y-108696496D01*
X125399000Y-108721000D01*
X125399000Y-109646000D01*
X125397796Y-109670504D01*
X125394196Y-109694773D01*
X125388235Y-109718571D01*
X125379970Y-109741671D01*
X125369480Y-109763849D01*
X125356867Y-109784893D01*
X125342253Y-109804598D01*
X125325777Y-109822777D01*
X125307598Y-109839253D01*
X125287893Y-109853867D01*
X125266849Y-109866480D01*
X125244671Y-109876970D01*
X125221571Y-109885235D01*
X125197773Y-109891196D01*
X125173504Y-109894796D01*
X125149000Y-109896000D01*
X123899000Y-109896000D01*
X123874496Y-109894796D01*
X123850227Y-109891196D01*
X123826429Y-109885235D01*
X123803329Y-109876970D01*
X123781151Y-109866480D01*
X123760107Y-109853867D01*
X123740402Y-109839253D01*
X123722223Y-109822777D01*
X123705747Y-109804598D01*
X123691133Y-109784893D01*
X123678520Y-109763849D01*
X123668030Y-109741671D01*
X123659765Y-109718571D01*
X123653804Y-109694773D01*
X123650204Y-109670504D01*
X123649000Y-109646000D01*
X123649000Y-108721000D01*
X123650204Y-108696496D01*
X123653804Y-108672227D01*
X123659765Y-108648429D01*
X123668030Y-108625329D01*
X123678520Y-108603151D01*
X123691133Y-108582107D01*
X123705747Y-108562402D01*
X123722223Y-108544223D01*
X123740402Y-108527747D01*
X123760107Y-108513133D01*
X123781151Y-108500520D01*
X123803329Y-108490030D01*
X123826429Y-108481765D01*
X123850227Y-108475804D01*
X123874496Y-108472204D01*
X123899000Y-108471000D01*
X125149000Y-108471000D01*
X125173504Y-108472204D01*
G37*
%TD.AperFunction*%
%TA.AperFunction,SMDPad,CuDef*%
G36*
X125173504Y-105497204D02*
G01*
X125197773Y-105500804D01*
X125221571Y-105506765D01*
X125244671Y-105515030D01*
X125266849Y-105525520D01*
X125287893Y-105538133D01*
X125307598Y-105552747D01*
X125325777Y-105569223D01*
X125342253Y-105587402D01*
X125356867Y-105607107D01*
X125369480Y-105628151D01*
X125379970Y-105650329D01*
X125388235Y-105673429D01*
X125394196Y-105697227D01*
X125397796Y-105721496D01*
X125399000Y-105746000D01*
X125399000Y-106671000D01*
X125397796Y-106695504D01*
X125394196Y-106719773D01*
X125388235Y-106743571D01*
X125379970Y-106766671D01*
X125369480Y-106788849D01*
X125356867Y-106809893D01*
X125342253Y-106829598D01*
X125325777Y-106847777D01*
X125307598Y-106864253D01*
X125287893Y-106878867D01*
X125266849Y-106891480D01*
X125244671Y-106901970D01*
X125221571Y-106910235D01*
X125197773Y-106916196D01*
X125173504Y-106919796D01*
X125149000Y-106921000D01*
X123899000Y-106921000D01*
X123874496Y-106919796D01*
X123850227Y-106916196D01*
X123826429Y-106910235D01*
X123803329Y-106901970D01*
X123781151Y-106891480D01*
X123760107Y-106878867D01*
X123740402Y-106864253D01*
X123722223Y-106847777D01*
X123705747Y-106829598D01*
X123691133Y-106809893D01*
X123678520Y-106788849D01*
X123668030Y-106766671D01*
X123659765Y-106743571D01*
X123653804Y-106719773D01*
X123650204Y-106695504D01*
X123649000Y-106671000D01*
X123649000Y-105746000D01*
X123650204Y-105721496D01*
X123653804Y-105697227D01*
X123659765Y-105673429D01*
X123668030Y-105650329D01*
X123678520Y-105628151D01*
X123691133Y-105607107D01*
X123705747Y-105587402D01*
X123722223Y-105569223D01*
X123740402Y-105552747D01*
X123760107Y-105538133D01*
X123781151Y-105525520D01*
X123803329Y-105515030D01*
X123826429Y-105506765D01*
X123850227Y-105500804D01*
X123874496Y-105497204D01*
X123899000Y-105496000D01*
X125149000Y-105496000D01*
X125173504Y-105497204D01*
G37*
%TD.AperFunction*%
%TA.AperFunction,SMDPad,CuDef*%
G36*
X127649504Y-105497204D02*
G01*
X127673773Y-105500804D01*
X127697571Y-105506765D01*
X127720671Y-105515030D01*
X127742849Y-105525520D01*
X127763893Y-105538133D01*
X127783598Y-105552747D01*
X127801777Y-105569223D01*
X127818253Y-105587402D01*
X127832867Y-105607107D01*
X127845480Y-105628151D01*
X127855970Y-105650329D01*
X127864235Y-105673429D01*
X127870196Y-105697227D01*
X127873796Y-105721496D01*
X127875000Y-105746000D01*
X127875000Y-106671000D01*
X127873796Y-106695504D01*
X127870196Y-106719773D01*
X127864235Y-106743571D01*
X127855970Y-106766671D01*
X127845480Y-106788849D01*
X127832867Y-106809893D01*
X127818253Y-106829598D01*
X127801777Y-106847777D01*
X127783598Y-106864253D01*
X127763893Y-106878867D01*
X127742849Y-106891480D01*
X127720671Y-106901970D01*
X127697571Y-106910235D01*
X127673773Y-106916196D01*
X127649504Y-106919796D01*
X127625000Y-106921000D01*
X126375000Y-106921000D01*
X126350496Y-106919796D01*
X126326227Y-106916196D01*
X126302429Y-106910235D01*
X126279329Y-106901970D01*
X126257151Y-106891480D01*
X126236107Y-106878867D01*
X126216402Y-106864253D01*
X126198223Y-106847777D01*
X126181747Y-106829598D01*
X126167133Y-106809893D01*
X126154520Y-106788849D01*
X126144030Y-106766671D01*
X126135765Y-106743571D01*
X126129804Y-106719773D01*
X126126204Y-106695504D01*
X126125000Y-106671000D01*
X126125000Y-105746000D01*
X126126204Y-105721496D01*
X126129804Y-105697227D01*
X126135765Y-105673429D01*
X126144030Y-105650329D01*
X126154520Y-105628151D01*
X126167133Y-105607107D01*
X126181747Y-105587402D01*
X126198223Y-105569223D01*
X126216402Y-105552747D01*
X126236107Y-105538133D01*
X126257151Y-105525520D01*
X126279329Y-105515030D01*
X126302429Y-105506765D01*
X126326227Y-105500804D01*
X126350496Y-105497204D01*
X126375000Y-105496000D01*
X127625000Y-105496000D01*
X127649504Y-105497204D01*
G37*
%TD.AperFunction*%
%TA.AperFunction,SMDPad,CuDef*%
G36*
X127649504Y-108472204D02*
G01*
X127673773Y-108475804D01*
X127697571Y-108481765D01*
X127720671Y-108490030D01*
X127742849Y-108500520D01*
X127763893Y-108513133D01*
X127783598Y-108527747D01*
X127801777Y-108544223D01*
X127818253Y-108562402D01*
X127832867Y-108582107D01*
X127845480Y-108603151D01*
X127855970Y-108625329D01*
X127864235Y-108648429D01*
X127870196Y-108672227D01*
X127873796Y-108696496D01*
X127875000Y-108721000D01*
X127875000Y-109646000D01*
X127873796Y-109670504D01*
X127870196Y-109694773D01*
X127864235Y-109718571D01*
X127855970Y-109741671D01*
X127845480Y-109763849D01*
X127832867Y-109784893D01*
X127818253Y-109804598D01*
X127801777Y-109822777D01*
X127783598Y-109839253D01*
X127763893Y-109853867D01*
X127742849Y-109866480D01*
X127720671Y-109876970D01*
X127697571Y-109885235D01*
X127673773Y-109891196D01*
X127649504Y-109894796D01*
X127625000Y-109896000D01*
X126375000Y-109896000D01*
X126350496Y-109894796D01*
X126326227Y-109891196D01*
X126302429Y-109885235D01*
X126279329Y-109876970D01*
X126257151Y-109866480D01*
X126236107Y-109853867D01*
X126216402Y-109839253D01*
X126198223Y-109822777D01*
X126181747Y-109804598D01*
X126167133Y-109784893D01*
X126154520Y-109763849D01*
X126144030Y-109741671D01*
X126135765Y-109718571D01*
X126129804Y-109694773D01*
X126126204Y-109670504D01*
X126125000Y-109646000D01*
X126125000Y-108721000D01*
X126126204Y-108696496D01*
X126129804Y-108672227D01*
X126135765Y-108648429D01*
X126144030Y-108625329D01*
X126154520Y-108603151D01*
X126167133Y-108582107D01*
X126181747Y-108562402D01*
X126198223Y-108544223D01*
X126216402Y-108527747D01*
X126236107Y-108513133D01*
X126257151Y-108500520D01*
X126279329Y-108490030D01*
X126302429Y-108481765D01*
X126326227Y-108475804D01*
X126350496Y-108472204D01*
X126375000Y-108471000D01*
X127625000Y-108471000D01*
X127649504Y-108472204D01*
G37*
%TD.AperFunction*%
%TA.AperFunction,SMDPad,CuDef*%
G36*
X130062504Y-108472204D02*
G01*
X130086773Y-108475804D01*
X130110571Y-108481765D01*
X130133671Y-108490030D01*
X130155849Y-108500520D01*
X130176893Y-108513133D01*
X130196598Y-108527747D01*
X130214777Y-108544223D01*
X130231253Y-108562402D01*
X130245867Y-108582107D01*
X130258480Y-108603151D01*
X130268970Y-108625329D01*
X130277235Y-108648429D01*
X130283196Y-108672227D01*
X130286796Y-108696496D01*
X130288000Y-108721000D01*
X130288000Y-109646000D01*
X130286796Y-109670504D01*
X130283196Y-109694773D01*
X130277235Y-109718571D01*
X130268970Y-109741671D01*
X130258480Y-109763849D01*
X130245867Y-109784893D01*
X130231253Y-109804598D01*
X130214777Y-109822777D01*
X130196598Y-109839253D01*
X130176893Y-109853867D01*
X130155849Y-109866480D01*
X130133671Y-109876970D01*
X130110571Y-109885235D01*
X130086773Y-109891196D01*
X130062504Y-109894796D01*
X130038000Y-109896000D01*
X128788000Y-109896000D01*
X128763496Y-109894796D01*
X128739227Y-109891196D01*
X128715429Y-109885235D01*
X128692329Y-109876970D01*
X128670151Y-109866480D01*
X128649107Y-109853867D01*
X128629402Y-109839253D01*
X128611223Y-109822777D01*
X128594747Y-109804598D01*
X128580133Y-109784893D01*
X128567520Y-109763849D01*
X128557030Y-109741671D01*
X128548765Y-109718571D01*
X128542804Y-109694773D01*
X128539204Y-109670504D01*
X128538000Y-109646000D01*
X128538000Y-108721000D01*
X128539204Y-108696496D01*
X128542804Y-108672227D01*
X128548765Y-108648429D01*
X128557030Y-108625329D01*
X128567520Y-108603151D01*
X128580133Y-108582107D01*
X128594747Y-108562402D01*
X128611223Y-108544223D01*
X128629402Y-108527747D01*
X128649107Y-108513133D01*
X128670151Y-108500520D01*
X128692329Y-108490030D01*
X128715429Y-108481765D01*
X128739227Y-108475804D01*
X128763496Y-108472204D01*
X128788000Y-108471000D01*
X130038000Y-108471000D01*
X130062504Y-108472204D01*
G37*
%TD.AperFunction*%
%TA.AperFunction,SMDPad,CuDef*%
G36*
X130062504Y-105497204D02*
G01*
X130086773Y-105500804D01*
X130110571Y-105506765D01*
X130133671Y-105515030D01*
X130155849Y-105525520D01*
X130176893Y-105538133D01*
X130196598Y-105552747D01*
X130214777Y-105569223D01*
X130231253Y-105587402D01*
X130245867Y-105607107D01*
X130258480Y-105628151D01*
X130268970Y-105650329D01*
X130277235Y-105673429D01*
X130283196Y-105697227D01*
X130286796Y-105721496D01*
X130288000Y-105746000D01*
X130288000Y-106671000D01*
X130286796Y-106695504D01*
X130283196Y-106719773D01*
X130277235Y-106743571D01*
X130268970Y-106766671D01*
X130258480Y-106788849D01*
X130245867Y-106809893D01*
X130231253Y-106829598D01*
X130214777Y-106847777D01*
X130196598Y-106864253D01*
X130176893Y-106878867D01*
X130155849Y-106891480D01*
X130133671Y-106901970D01*
X130110571Y-106910235D01*
X130086773Y-106916196D01*
X130062504Y-106919796D01*
X130038000Y-106921000D01*
X128788000Y-106921000D01*
X128763496Y-106919796D01*
X128739227Y-106916196D01*
X128715429Y-106910235D01*
X128692329Y-106901970D01*
X128670151Y-106891480D01*
X128649107Y-106878867D01*
X128629402Y-106864253D01*
X128611223Y-106847777D01*
X128594747Y-106829598D01*
X128580133Y-106809893D01*
X128567520Y-106788849D01*
X128557030Y-106766671D01*
X128548765Y-106743571D01*
X128542804Y-106719773D01*
X128539204Y-106695504D01*
X128538000Y-106671000D01*
X128538000Y-105746000D01*
X128539204Y-105721496D01*
X128542804Y-105697227D01*
X128548765Y-105673429D01*
X128557030Y-105650329D01*
X128567520Y-105628151D01*
X128580133Y-105607107D01*
X128594747Y-105587402D01*
X128611223Y-105569223D01*
X128629402Y-105552747D01*
X128649107Y-105538133D01*
X128670151Y-105525520D01*
X128692329Y-105515030D01*
X128715429Y-105506765D01*
X128739227Y-105500804D01*
X128763496Y-105497204D01*
X128788000Y-105496000D01*
X130038000Y-105496000D01*
X130062504Y-105497204D01*
G37*
%TD.AperFunction*%
%TA.AperFunction,SMDPad,CuDef*%
G36*
X125807504Y-130389204D02*
G01*
X125831773Y-130392804D01*
X125855571Y-130398765D01*
X125878671Y-130407030D01*
X125900849Y-130417520D01*
X125921893Y-130430133D01*
X125941598Y-130444747D01*
X125959777Y-130461223D01*
X125976253Y-130479402D01*
X125990867Y-130499107D01*
X126003480Y-130520151D01*
X126013970Y-130542329D01*
X126022235Y-130565429D01*
X126028196Y-130589227D01*
X126031796Y-130613496D01*
X126033000Y-130638000D01*
X126033000Y-131563000D01*
X126031796Y-131587504D01*
X126028196Y-131611773D01*
X126022235Y-131635571D01*
X126013970Y-131658671D01*
X126003480Y-131680849D01*
X125990867Y-131701893D01*
X125976253Y-131721598D01*
X125959777Y-131739777D01*
X125941598Y-131756253D01*
X125921893Y-131770867D01*
X125900849Y-131783480D01*
X125878671Y-131793970D01*
X125855571Y-131802235D01*
X125831773Y-131808196D01*
X125807504Y-131811796D01*
X125783000Y-131813000D01*
X124533000Y-131813000D01*
X124508496Y-131811796D01*
X124484227Y-131808196D01*
X124460429Y-131802235D01*
X124437329Y-131793970D01*
X124415151Y-131783480D01*
X124394107Y-131770867D01*
X124374402Y-131756253D01*
X124356223Y-131739777D01*
X124339747Y-131721598D01*
X124325133Y-131701893D01*
X124312520Y-131680849D01*
X124302030Y-131658671D01*
X124293765Y-131635571D01*
X124287804Y-131611773D01*
X124284204Y-131587504D01*
X124283000Y-131563000D01*
X124283000Y-130638000D01*
X124284204Y-130613496D01*
X124287804Y-130589227D01*
X124293765Y-130565429D01*
X124302030Y-130542329D01*
X124312520Y-130520151D01*
X124325133Y-130499107D01*
X124339747Y-130479402D01*
X124356223Y-130461223D01*
X124374402Y-130444747D01*
X124394107Y-130430133D01*
X124415151Y-130417520D01*
X124437329Y-130407030D01*
X124460429Y-130398765D01*
X124484227Y-130392804D01*
X124508496Y-130389204D01*
X124533000Y-130388000D01*
X125783000Y-130388000D01*
X125807504Y-130389204D01*
G37*
%TD.AperFunction*%
%TA.AperFunction,SMDPad,CuDef*%
G36*
X125807504Y-133364204D02*
G01*
X125831773Y-133367804D01*
X125855571Y-133373765D01*
X125878671Y-133382030D01*
X125900849Y-133392520D01*
X125921893Y-133405133D01*
X125941598Y-133419747D01*
X125959777Y-133436223D01*
X125976253Y-133454402D01*
X125990867Y-133474107D01*
X126003480Y-133495151D01*
X126013970Y-133517329D01*
X126022235Y-133540429D01*
X126028196Y-133564227D01*
X126031796Y-133588496D01*
X126033000Y-133613000D01*
X126033000Y-134538000D01*
X126031796Y-134562504D01*
X126028196Y-134586773D01*
X126022235Y-134610571D01*
X126013970Y-134633671D01*
X126003480Y-134655849D01*
X125990867Y-134676893D01*
X125976253Y-134696598D01*
X125959777Y-134714777D01*
X125941598Y-134731253D01*
X125921893Y-134745867D01*
X125900849Y-134758480D01*
X125878671Y-134768970D01*
X125855571Y-134777235D01*
X125831773Y-134783196D01*
X125807504Y-134786796D01*
X125783000Y-134788000D01*
X124533000Y-134788000D01*
X124508496Y-134786796D01*
X124484227Y-134783196D01*
X124460429Y-134777235D01*
X124437329Y-134768970D01*
X124415151Y-134758480D01*
X124394107Y-134745867D01*
X124374402Y-134731253D01*
X124356223Y-134714777D01*
X124339747Y-134696598D01*
X124325133Y-134676893D01*
X124312520Y-134655849D01*
X124302030Y-134633671D01*
X124293765Y-134610571D01*
X124287804Y-134586773D01*
X124284204Y-134562504D01*
X124283000Y-134538000D01*
X124283000Y-133613000D01*
X124284204Y-133588496D01*
X124287804Y-133564227D01*
X124293765Y-133540429D01*
X124302030Y-133517329D01*
X124312520Y-133495151D01*
X124325133Y-133474107D01*
X124339747Y-133454402D01*
X124356223Y-133436223D01*
X124374402Y-133419747D01*
X124394107Y-133405133D01*
X124415151Y-133392520D01*
X124437329Y-133382030D01*
X124460429Y-133373765D01*
X124484227Y-133367804D01*
X124508496Y-133364204D01*
X124533000Y-133363000D01*
X125783000Y-133363000D01*
X125807504Y-133364204D01*
G37*
%TD.AperFunction*%
%TA.AperFunction,SMDPad,CuDef*%
G36*
X128411504Y-133364204D02*
G01*
X128435773Y-133367804D01*
X128459571Y-133373765D01*
X128482671Y-133382030D01*
X128504849Y-133392520D01*
X128525893Y-133405133D01*
X128545598Y-133419747D01*
X128563777Y-133436223D01*
X128580253Y-133454402D01*
X128594867Y-133474107D01*
X128607480Y-133495151D01*
X128617970Y-133517329D01*
X128626235Y-133540429D01*
X128632196Y-133564227D01*
X128635796Y-133588496D01*
X128637000Y-133613000D01*
X128637000Y-134538000D01*
X128635796Y-134562504D01*
X128632196Y-134586773D01*
X128626235Y-134610571D01*
X128617970Y-134633671D01*
X128607480Y-134655849D01*
X128594867Y-134676893D01*
X128580253Y-134696598D01*
X128563777Y-134714777D01*
X128545598Y-134731253D01*
X128525893Y-134745867D01*
X128504849Y-134758480D01*
X128482671Y-134768970D01*
X128459571Y-134777235D01*
X128435773Y-134783196D01*
X128411504Y-134786796D01*
X128387000Y-134788000D01*
X127137000Y-134788000D01*
X127112496Y-134786796D01*
X127088227Y-134783196D01*
X127064429Y-134777235D01*
X127041329Y-134768970D01*
X127019151Y-134758480D01*
X126998107Y-134745867D01*
X126978402Y-134731253D01*
X126960223Y-134714777D01*
X126943747Y-134696598D01*
X126929133Y-134676893D01*
X126916520Y-134655849D01*
X126906030Y-134633671D01*
X126897765Y-134610571D01*
X126891804Y-134586773D01*
X126888204Y-134562504D01*
X126887000Y-134538000D01*
X126887000Y-133613000D01*
X126888204Y-133588496D01*
X126891804Y-133564227D01*
X126897765Y-133540429D01*
X126906030Y-133517329D01*
X126916520Y-133495151D01*
X126929133Y-133474107D01*
X126943747Y-133454402D01*
X126960223Y-133436223D01*
X126978402Y-133419747D01*
X126998107Y-133405133D01*
X127019151Y-133392520D01*
X127041329Y-133382030D01*
X127064429Y-133373765D01*
X127088227Y-133367804D01*
X127112496Y-133364204D01*
X127137000Y-133363000D01*
X128387000Y-133363000D01*
X128411504Y-133364204D01*
G37*
%TD.AperFunction*%
%TA.AperFunction,SMDPad,CuDef*%
G36*
X128411504Y-130389204D02*
G01*
X128435773Y-130392804D01*
X128459571Y-130398765D01*
X128482671Y-130407030D01*
X128504849Y-130417520D01*
X128525893Y-130430133D01*
X128545598Y-130444747D01*
X128563777Y-130461223D01*
X128580253Y-130479402D01*
X128594867Y-130499107D01*
X128607480Y-130520151D01*
X128617970Y-130542329D01*
X128626235Y-130565429D01*
X128632196Y-130589227D01*
X128635796Y-130613496D01*
X128637000Y-130638000D01*
X128637000Y-131563000D01*
X128635796Y-131587504D01*
X128632196Y-131611773D01*
X128626235Y-131635571D01*
X128617970Y-131658671D01*
X128607480Y-131680849D01*
X128594867Y-131701893D01*
X128580253Y-131721598D01*
X128563777Y-131739777D01*
X128545598Y-131756253D01*
X128525893Y-131770867D01*
X128504849Y-131783480D01*
X128482671Y-131793970D01*
X128459571Y-131802235D01*
X128435773Y-131808196D01*
X128411504Y-131811796D01*
X128387000Y-131813000D01*
X127137000Y-131813000D01*
X127112496Y-131811796D01*
X127088227Y-131808196D01*
X127064429Y-131802235D01*
X127041329Y-131793970D01*
X127019151Y-131783480D01*
X126998107Y-131770867D01*
X126978402Y-131756253D01*
X126960223Y-131739777D01*
X126943747Y-131721598D01*
X126929133Y-131701893D01*
X126916520Y-131680849D01*
X126906030Y-131658671D01*
X126897765Y-131635571D01*
X126891804Y-131611773D01*
X126888204Y-131587504D01*
X126887000Y-131563000D01*
X126887000Y-130638000D01*
X126888204Y-130613496D01*
X126891804Y-130589227D01*
X126897765Y-130565429D01*
X126906030Y-130542329D01*
X126916520Y-130520151D01*
X126929133Y-130499107D01*
X126943747Y-130479402D01*
X126960223Y-130461223D01*
X126978402Y-130444747D01*
X126998107Y-130430133D01*
X127019151Y-130417520D01*
X127041329Y-130407030D01*
X127064429Y-130398765D01*
X127088227Y-130392804D01*
X127112496Y-130389204D01*
X127137000Y-130388000D01*
X128387000Y-130388000D01*
X128411504Y-130389204D01*
G37*
%TD.AperFunction*%
%TA.AperFunction,SMDPad,CuDef*%
G36*
X133365504Y-134508204D02*
G01*
X133389773Y-134511804D01*
X133413571Y-134517765D01*
X133436671Y-134526030D01*
X133458849Y-134536520D01*
X133479893Y-134549133D01*
X133499598Y-134563747D01*
X133517777Y-134580223D01*
X133534253Y-134598402D01*
X133548867Y-134618107D01*
X133561480Y-134639151D01*
X133571970Y-134661329D01*
X133580235Y-134684429D01*
X133586196Y-134708227D01*
X133589796Y-134732496D01*
X133591000Y-134757000D01*
X133591000Y-136007000D01*
X133589796Y-136031504D01*
X133586196Y-136055773D01*
X133580235Y-136079571D01*
X133571970Y-136102671D01*
X133561480Y-136124849D01*
X133548867Y-136145893D01*
X133534253Y-136165598D01*
X133517777Y-136183777D01*
X133499598Y-136200253D01*
X133479893Y-136214867D01*
X133458849Y-136227480D01*
X133436671Y-136237970D01*
X133413571Y-136246235D01*
X133389773Y-136252196D01*
X133365504Y-136255796D01*
X133341000Y-136257000D01*
X132416000Y-136257000D01*
X132391496Y-136255796D01*
X132367227Y-136252196D01*
X132343429Y-136246235D01*
X132320329Y-136237970D01*
X132298151Y-136227480D01*
X132277107Y-136214867D01*
X132257402Y-136200253D01*
X132239223Y-136183777D01*
X132222747Y-136165598D01*
X132208133Y-136145893D01*
X132195520Y-136124849D01*
X132185030Y-136102671D01*
X132176765Y-136079571D01*
X132170804Y-136055773D01*
X132167204Y-136031504D01*
X132166000Y-136007000D01*
X132166000Y-134757000D01*
X132167204Y-134732496D01*
X132170804Y-134708227D01*
X132176765Y-134684429D01*
X132185030Y-134661329D01*
X132195520Y-134639151D01*
X132208133Y-134618107D01*
X132222747Y-134598402D01*
X132239223Y-134580223D01*
X132257402Y-134563747D01*
X132277107Y-134549133D01*
X132298151Y-134536520D01*
X132320329Y-134526030D01*
X132343429Y-134517765D01*
X132367227Y-134511804D01*
X132391496Y-134508204D01*
X132416000Y-134507000D01*
X133341000Y-134507000D01*
X133365504Y-134508204D01*
G37*
%TD.AperFunction*%
%TA.AperFunction,SMDPad,CuDef*%
G36*
X136340504Y-134508204D02*
G01*
X136364773Y-134511804D01*
X136388571Y-134517765D01*
X136411671Y-134526030D01*
X136433849Y-134536520D01*
X136454893Y-134549133D01*
X136474598Y-134563747D01*
X136492777Y-134580223D01*
X136509253Y-134598402D01*
X136523867Y-134618107D01*
X136536480Y-134639151D01*
X136546970Y-134661329D01*
X136555235Y-134684429D01*
X136561196Y-134708227D01*
X136564796Y-134732496D01*
X136566000Y-134757000D01*
X136566000Y-136007000D01*
X136564796Y-136031504D01*
X136561196Y-136055773D01*
X136555235Y-136079571D01*
X136546970Y-136102671D01*
X136536480Y-136124849D01*
X136523867Y-136145893D01*
X136509253Y-136165598D01*
X136492777Y-136183777D01*
X136474598Y-136200253D01*
X136454893Y-136214867D01*
X136433849Y-136227480D01*
X136411671Y-136237970D01*
X136388571Y-136246235D01*
X136364773Y-136252196D01*
X136340504Y-136255796D01*
X136316000Y-136257000D01*
X135391000Y-136257000D01*
X135366496Y-136255796D01*
X135342227Y-136252196D01*
X135318429Y-136246235D01*
X135295329Y-136237970D01*
X135273151Y-136227480D01*
X135252107Y-136214867D01*
X135232402Y-136200253D01*
X135214223Y-136183777D01*
X135197747Y-136165598D01*
X135183133Y-136145893D01*
X135170520Y-136124849D01*
X135160030Y-136102671D01*
X135151765Y-136079571D01*
X135145804Y-136055773D01*
X135142204Y-136031504D01*
X135141000Y-136007000D01*
X135141000Y-134757000D01*
X135142204Y-134732496D01*
X135145804Y-134708227D01*
X135151765Y-134684429D01*
X135160030Y-134661329D01*
X135170520Y-134639151D01*
X135183133Y-134618107D01*
X135197747Y-134598402D01*
X135214223Y-134580223D01*
X135232402Y-134563747D01*
X135252107Y-134549133D01*
X135273151Y-134536520D01*
X135295329Y-134526030D01*
X135318429Y-134517765D01*
X135342227Y-134511804D01*
X135366496Y-134508204D01*
X135391000Y-134507000D01*
X136316000Y-134507000D01*
X136340504Y-134508204D01*
G37*
%TD.AperFunction*%
%TA.AperFunction,SMDPad,CuDef*%
G36*
X131015504Y-130389204D02*
G01*
X131039773Y-130392804D01*
X131063571Y-130398765D01*
X131086671Y-130407030D01*
X131108849Y-130417520D01*
X131129893Y-130430133D01*
X131149598Y-130444747D01*
X131167777Y-130461223D01*
X131184253Y-130479402D01*
X131198867Y-130499107D01*
X131211480Y-130520151D01*
X131221970Y-130542329D01*
X131230235Y-130565429D01*
X131236196Y-130589227D01*
X131239796Y-130613496D01*
X131241000Y-130638000D01*
X131241000Y-131563000D01*
X131239796Y-131587504D01*
X131236196Y-131611773D01*
X131230235Y-131635571D01*
X131221970Y-131658671D01*
X131211480Y-131680849D01*
X131198867Y-131701893D01*
X131184253Y-131721598D01*
X131167777Y-131739777D01*
X131149598Y-131756253D01*
X131129893Y-131770867D01*
X131108849Y-131783480D01*
X131086671Y-131793970D01*
X131063571Y-131802235D01*
X131039773Y-131808196D01*
X131015504Y-131811796D01*
X130991000Y-131813000D01*
X129741000Y-131813000D01*
X129716496Y-131811796D01*
X129692227Y-131808196D01*
X129668429Y-131802235D01*
X129645329Y-131793970D01*
X129623151Y-131783480D01*
X129602107Y-131770867D01*
X129582402Y-131756253D01*
X129564223Y-131739777D01*
X129547747Y-131721598D01*
X129533133Y-131701893D01*
X129520520Y-131680849D01*
X129510030Y-131658671D01*
X129501765Y-131635571D01*
X129495804Y-131611773D01*
X129492204Y-131587504D01*
X129491000Y-131563000D01*
X129491000Y-130638000D01*
X129492204Y-130613496D01*
X129495804Y-130589227D01*
X129501765Y-130565429D01*
X129510030Y-130542329D01*
X129520520Y-130520151D01*
X129533133Y-130499107D01*
X129547747Y-130479402D01*
X129564223Y-130461223D01*
X129582402Y-130444747D01*
X129602107Y-130430133D01*
X129623151Y-130417520D01*
X129645329Y-130407030D01*
X129668429Y-130398765D01*
X129692227Y-130392804D01*
X129716496Y-130389204D01*
X129741000Y-130388000D01*
X130991000Y-130388000D01*
X131015504Y-130389204D01*
G37*
%TD.AperFunction*%
%TA.AperFunction,SMDPad,CuDef*%
G36*
X131015504Y-133364204D02*
G01*
X131039773Y-133367804D01*
X131063571Y-133373765D01*
X131086671Y-133382030D01*
X131108849Y-133392520D01*
X131129893Y-133405133D01*
X131149598Y-133419747D01*
X131167777Y-133436223D01*
X131184253Y-133454402D01*
X131198867Y-133474107D01*
X131211480Y-133495151D01*
X131221970Y-133517329D01*
X131230235Y-133540429D01*
X131236196Y-133564227D01*
X131239796Y-133588496D01*
X131241000Y-133613000D01*
X131241000Y-134538000D01*
X131239796Y-134562504D01*
X131236196Y-134586773D01*
X131230235Y-134610571D01*
X131221970Y-134633671D01*
X131211480Y-134655849D01*
X131198867Y-134676893D01*
X131184253Y-134696598D01*
X131167777Y-134714777D01*
X131149598Y-134731253D01*
X131129893Y-134745867D01*
X131108849Y-134758480D01*
X131086671Y-134768970D01*
X131063571Y-134777235D01*
X131039773Y-134783196D01*
X131015504Y-134786796D01*
X130991000Y-134788000D01*
X129741000Y-134788000D01*
X129716496Y-134786796D01*
X129692227Y-134783196D01*
X129668429Y-134777235D01*
X129645329Y-134768970D01*
X129623151Y-134758480D01*
X129602107Y-134745867D01*
X129582402Y-134731253D01*
X129564223Y-134714777D01*
X129547747Y-134696598D01*
X129533133Y-134676893D01*
X129520520Y-134655849D01*
X129510030Y-134633671D01*
X129501765Y-134610571D01*
X129495804Y-134586773D01*
X129492204Y-134562504D01*
X129491000Y-134538000D01*
X129491000Y-133613000D01*
X129492204Y-133588496D01*
X129495804Y-133564227D01*
X129501765Y-133540429D01*
X129510030Y-133517329D01*
X129520520Y-133495151D01*
X129533133Y-133474107D01*
X129547747Y-133454402D01*
X129564223Y-133436223D01*
X129582402Y-133419747D01*
X129602107Y-133405133D01*
X129623151Y-133392520D01*
X129645329Y-133382030D01*
X129668429Y-133373765D01*
X129692227Y-133367804D01*
X129716496Y-133364204D01*
X129741000Y-133363000D01*
X130991000Y-133363000D01*
X131015504Y-133364204D01*
G37*
%TD.AperFunction*%
D11*
X130302000Y-99068000D03*
X130302000Y-103568000D03*
X123802000Y-99068000D03*
X123802000Y-103568000D03*
D26*
X141610000Y-84391500D03*
D25*
X135310000Y-86671500D03*
X135310000Y-84391500D03*
X135310000Y-82111500D03*
D27*
X139884000Y-90923000D03*
X137604000Y-90923000D03*
X135324000Y-90923000D03*
D28*
X137604000Y-97223000D03*
D29*
X108013500Y-79311500D03*
X132969000Y-89281000D03*
X132969000Y-106045000D03*
D30*
X102674500Y-109593000D02*
X102674500Y-107493001D01*
X102624500Y-109643000D02*
X102674500Y-109593000D01*
D31*
X131475010Y-92832668D02*
X129858000Y-94449678D01*
X131475010Y-92171990D02*
X131475010Y-92832668D01*
X132569001Y-91077999D02*
X131475010Y-92171990D01*
X132569001Y-89680999D02*
X132569001Y-91077999D01*
X132969000Y-89281000D02*
X132569001Y-89680999D01*
D32*
X115633000Y-101157000D02*
X115633000Y-101726500D01*
X115633000Y-101726500D02*
X115633500Y-101727000D01*
X119648000Y-103350500D02*
X120523000Y-103350500D01*
X119104490Y-102806990D02*
X119648000Y-103350500D01*
X116552668Y-102806990D02*
X119104490Y-102806990D01*
X115633500Y-101887822D02*
X116552668Y-102806990D01*
X115633500Y-101727000D02*
X115633500Y-101887822D01*
D33*
X101633500Y-107218000D02*
X101658499Y-107193001D01*
X101595000Y-107218000D02*
X101633500Y-107218000D01*
X102565001Y-107193001D02*
X102674500Y-107302500D01*
X102674500Y-107302500D02*
X102674500Y-107493001D01*
X101658499Y-107193001D02*
X102565001Y-107193001D01*
D32*
X124801999Y-100067999D02*
X124801999Y-100168899D01*
X123802000Y-99068000D02*
X124801999Y-100067999D01*
X124801999Y-100168899D02*
X127317500Y-102684400D01*
X127317500Y-102684400D02*
X127317500Y-103759000D01*
X127317500Y-103759000D02*
X128333500Y-104775000D01*
X129413000Y-105496000D02*
X129413000Y-106208500D01*
X128692000Y-104775000D02*
X129413000Y-105496000D01*
X128333500Y-104775000D02*
X128692000Y-104775000D01*
D30*
X130175000Y-98941000D02*
X130302000Y-99068000D01*
X130175000Y-95672000D02*
X130175000Y-98941000D01*
D34*
X114071500Y-106398500D02*
X114363000Y-106107000D01*
X124407000Y-106325500D02*
X124524000Y-106208500D01*
D30*
X130619500Y-126144500D02*
X131602000Y-127127000D01*
X133675000Y-127127000D02*
X136638000Y-130090000D01*
X131602000Y-127127000D02*
X133675000Y-127127000D01*
X121730000Y-133363000D02*
X121730000Y-134075500D01*
D34*
X130366000Y-133753492D02*
X128925488Y-132312980D01*
X130366000Y-134075500D02*
X130366000Y-133753492D01*
X120855000Y-134075500D02*
X120828000Y-134048500D01*
D30*
X121730000Y-134075500D02*
X120855000Y-134075500D01*
X114146500Y-132193000D02*
X114146500Y-131318000D01*
X116002000Y-134048500D02*
X114146500Y-132193000D01*
X120828000Y-134048500D02*
X116002000Y-134048500D01*
X113434000Y-131318000D02*
X111846500Y-132905500D01*
X114146500Y-131318000D02*
X113434000Y-131318000D01*
X111846500Y-132905500D02*
X99441000Y-132905500D01*
X99441000Y-132905500D02*
X98361500Y-131826000D01*
X98361500Y-131826000D02*
X98361500Y-129095500D01*
X98361500Y-129095500D02*
X99060000Y-128397000D01*
X99060000Y-128397000D02*
X107251500Y-128397000D01*
X107251500Y-128397000D02*
X110617000Y-125031500D01*
X129476500Y-125031500D02*
X130619500Y-126174500D01*
D34*
X130619500Y-126174500D02*
X130619500Y-126144500D01*
D35*
X137604000Y-90923000D02*
X137604000Y-97223000D01*
X139218500Y-95608500D02*
X137604000Y-97223000D01*
X144462000Y-95608500D02*
X139218500Y-95608500D01*
X137604000Y-97223000D02*
X138498000Y-97223000D01*
X139541000Y-98266000D02*
X139541000Y-102997000D01*
X138498000Y-97223000D02*
X139541000Y-98266000D01*
D30*
X127000000Y-106208500D02*
X127000000Y-106921000D01*
X127000000Y-106921000D02*
X127700010Y-107621010D01*
X127000000Y-106208500D02*
X124524000Y-106208500D01*
X127700010Y-107621010D02*
X131889500Y-107632500D01*
X112559500Y-106107000D02*
X112268000Y-106398500D01*
X114363000Y-106107000D02*
X112559500Y-106107000D01*
X118391500Y-106325500D02*
X118173000Y-106107000D01*
X120523000Y-106325500D02*
X118391500Y-106325500D01*
X118173000Y-104076000D02*
X118173000Y-106107000D01*
X114363000Y-105199902D02*
X114363500Y-105199402D01*
X118046500Y-103949500D02*
X118173000Y-104076000D01*
X114363000Y-106107000D02*
X114363000Y-105199902D01*
X114363500Y-104521000D02*
X114935000Y-103949500D01*
X114363500Y-105199402D02*
X114363500Y-104521000D01*
X114935000Y-103949500D02*
X118046500Y-103949500D01*
X121730000Y-133363000D02*
X122314500Y-132778500D01*
X122314500Y-132778500D02*
X123444000Y-132778500D01*
D34*
X123909520Y-132312980D02*
X123444000Y-132778500D01*
X128925488Y-132312980D02*
X123909520Y-132312980D01*
D30*
X139536000Y-104902000D02*
X139541000Y-104897000D01*
X139541000Y-104897000D02*
X139541000Y-102997000D01*
X121983500Y-104611000D02*
X120269000Y-106325500D01*
X124524000Y-106208500D02*
X124524000Y-105496000D01*
X114300000Y-124841000D02*
X114109500Y-125031500D01*
X110617000Y-125031500D02*
X114109500Y-125031500D01*
X114300000Y-108013500D02*
X114300000Y-124841000D01*
X114363000Y-106107000D02*
X114363000Y-107950500D01*
X114109500Y-125031500D02*
X129476500Y-125031500D01*
X114363000Y-107950500D02*
X114300000Y-108013500D01*
X139541000Y-104897000D02*
X139541000Y-105378500D01*
X137287000Y-107632500D02*
X131889500Y-107632500D01*
X139541000Y-105378500D02*
X137287000Y-107632500D01*
X121983500Y-104611000D02*
X121983500Y-102489000D01*
X121983500Y-102489000D02*
X122682000Y-101790500D01*
X122682000Y-101790500D02*
X124777500Y-101790500D01*
X124777500Y-101790500D02*
X125666500Y-102679500D01*
X125666500Y-102679500D02*
X125666500Y-104203500D01*
X125502001Y-104517999D02*
X124524000Y-105496000D01*
X125502001Y-104367999D02*
X125502001Y-104517999D01*
X125666500Y-104203500D02*
X125502001Y-104367999D01*
X136638000Y-130090000D02*
X136638000Y-130940000D01*
D35*
X135310000Y-90909000D02*
X135324000Y-90923000D01*
X135310000Y-86671500D02*
X135310000Y-90909000D01*
X132906000Y-93341000D02*
X132906000Y-102934000D01*
X135324000Y-90923000D02*
X132906000Y-93341000D01*
X130048000Y-91145000D02*
X130175000Y-91272000D01*
X130048000Y-86655000D02*
X130048000Y-91145000D01*
X130095000Y-91192000D02*
X130175000Y-91272000D01*
X124152000Y-91192000D02*
X130095000Y-91192000D01*
X131339999Y-101367999D02*
X128228499Y-101367999D01*
X132906000Y-102934000D02*
X131339999Y-101367999D01*
X128228499Y-101367999D02*
X127063500Y-100203000D01*
X127063500Y-100203000D02*
X127063500Y-94361000D01*
X127063500Y-94361000D02*
X125920500Y-93218000D01*
X124152000Y-91192000D02*
X124152000Y-92529000D01*
X124841000Y-93218000D02*
X125920500Y-93218000D01*
X124152000Y-92529000D02*
X124841000Y-93218000D01*
X150051000Y-129698500D02*
X156147000Y-129698500D01*
X125793500Y-85344000D02*
X127104500Y-86655000D01*
X125793500Y-80581500D02*
X125793500Y-85344000D01*
X127104500Y-86655000D02*
X130048000Y-86655000D01*
X133128000Y-78359000D02*
X128016000Y-78359000D01*
X128016000Y-78359000D02*
X125793500Y-80581500D01*
X135731500Y-75755500D02*
X133128000Y-78359000D01*
X151130000Y-79184500D02*
X147701000Y-75755500D01*
X153670000Y-84137500D02*
X151130000Y-81597500D01*
X158813500Y-128841500D02*
X158813500Y-101917500D01*
X156147000Y-129698500D02*
X157956500Y-129698500D01*
X151130000Y-81597500D02*
X151130000Y-79184500D01*
X157956500Y-129698500D02*
X158813500Y-128841500D01*
X158813500Y-101917500D02*
X153670000Y-96774000D01*
X147701000Y-75755500D02*
X135731500Y-75755500D01*
X153670000Y-96774000D02*
X153670000Y-84137500D01*
X135478000Y-102934000D02*
X135541000Y-102997000D01*
X132906000Y-102934000D02*
X135478000Y-102934000D01*
X140477500Y-78359000D02*
X141610000Y-79491500D01*
X141610000Y-79491500D02*
X141610000Y-84391500D01*
X137128000Y-78359000D02*
X140477500Y-78359000D01*
X135310000Y-84391500D02*
X141610000Y-84391500D01*
X143556000Y-82445500D02*
X141610000Y-84391500D01*
X148717000Y-82445500D02*
X143556000Y-82445500D01*
D30*
X132878500Y-136257000D02*
X134035500Y-137414000D01*
X132878500Y-135382000D02*
X132878500Y-136257000D01*
X134035500Y-137414000D02*
X139890500Y-137414000D01*
X139890500Y-137414000D02*
X142176500Y-135128000D01*
X142176500Y-135064500D02*
X143129000Y-134112000D01*
X142176500Y-135128000D02*
X142176500Y-135064500D01*
X143404000Y-134112000D02*
X146494500Y-131021500D01*
X146494500Y-131021500D02*
X146494500Y-103251000D01*
X143129000Y-134112000D02*
X143404000Y-134112000D01*
X146494500Y-103251000D02*
X151257000Y-98488500D01*
X151257000Y-84985500D02*
X148717000Y-82445500D01*
X151257000Y-98488500D02*
X151257000Y-84985500D01*
D35*
X117471000Y-93853000D02*
X117852000Y-93472000D01*
D36*
X109918500Y-93853000D02*
X117471000Y-93853000D01*
D33*
X103998000Y-105268000D02*
X104013000Y-105283000D01*
X103998000Y-105268000D02*
X101595000Y-105268000D01*
D31*
X104519011Y-105242989D02*
X103998000Y-105242989D01*
X106652500Y-103822000D02*
X105940000Y-103822000D01*
X105940000Y-103822000D02*
X104519011Y-105242989D01*
D37*
X106334500Y-105918000D02*
X106652500Y-106236000D01*
D33*
X103910999Y-105942999D02*
X103949500Y-105981500D01*
X103910999Y-105942999D02*
X104204000Y-106236000D01*
X102235000Y-105918000D02*
X102259999Y-105942999D01*
X102259999Y-105942999D02*
X103910999Y-105942999D01*
X101595000Y-105918000D02*
X102235000Y-105918000D01*
D31*
X104204000Y-106236000D02*
X106652500Y-106236000D01*
D30*
X150050000Y-121475500D02*
X150050000Y-123475500D01*
X154273000Y-127698500D02*
X156147000Y-127698500D01*
X150050000Y-123475500D02*
X154273000Y-127698500D01*
X136638000Y-133722500D02*
X136638000Y-132953010D01*
X135853500Y-135382000D02*
X135853500Y-134507000D01*
X135853500Y-134507000D02*
X136638000Y-133722500D01*
X141192000Y-132112000D02*
X143129000Y-132112000D01*
X135853500Y-135382000D02*
X137922000Y-135382000D01*
X137922000Y-135382000D02*
X141192000Y-132112000D01*
X131155500Y-131890000D02*
X130366000Y-131100500D01*
X133238000Y-131890000D02*
X131155500Y-131890000D01*
X129602000Y-130336500D02*
X130366000Y-131100500D01*
X129602000Y-127127000D02*
X129602000Y-130336500D01*
D31*
X109627500Y-106236000D02*
X109664000Y-106236000D01*
D32*
X118173000Y-101157000D02*
X118173000Y-100711500D01*
X118173000Y-100711500D02*
X118173500Y-100711000D01*
X118173500Y-100711000D02*
X118173500Y-98742500D01*
X118173500Y-98742500D02*
X117665500Y-98234500D01*
X117665500Y-98234500D02*
X112839500Y-98234500D01*
X112839500Y-98234500D02*
X108204000Y-102870000D01*
X108915000Y-106236000D02*
X109627500Y-106236000D01*
X108204000Y-105525000D02*
X108915000Y-106236000D01*
X108204000Y-102870000D02*
X108204000Y-105525000D01*
X109627500Y-102947000D02*
X113324000Y-99250500D01*
X109627500Y-103822000D02*
X109627500Y-102947000D01*
X113324000Y-99250500D02*
X116840000Y-99250500D01*
X116903000Y-99313500D02*
X116903000Y-101157000D01*
X116840000Y-99250500D02*
X116903000Y-99313500D01*
D30*
X117602000Y-130837500D02*
X117121500Y-131318000D01*
X117602000Y-127127000D02*
X117602000Y-130837500D01*
X111918213Y-127127000D02*
X117602000Y-127127000D01*
X108371213Y-130674000D02*
X111918213Y-127127000D01*
X106957000Y-130674000D02*
X108371213Y-130674000D01*
X121602000Y-130972500D02*
X121730000Y-131100500D01*
X121602000Y-127127000D02*
X121602000Y-130972500D01*
X124524000Y-109183500D02*
X124550500Y-109183500D01*
X125602000Y-110235000D02*
X125602000Y-113127000D01*
X124550500Y-109183500D02*
X125602000Y-110235000D01*
X123802000Y-104499480D02*
X122491500Y-105809980D01*
X123802000Y-103568000D02*
X123802000Y-104499480D01*
X123649000Y-109183500D02*
X124524000Y-109183500D01*
X122491500Y-108026000D02*
X123649000Y-109183500D01*
X122491500Y-105809980D02*
X122491500Y-108026000D01*
X127000000Y-109183500D02*
X127027000Y-109183500D01*
X127602000Y-109758500D02*
X127602000Y-113127000D01*
X127027000Y-109183500D02*
X127602000Y-109758500D01*
X129602000Y-109372500D02*
X129413000Y-109183500D01*
X129602000Y-113127000D02*
X129602000Y-109372500D01*
X125602000Y-130656500D02*
X125158000Y-131100500D01*
X125602000Y-127127000D02*
X125602000Y-130656500D01*
D33*
X128656246Y-132962990D02*
X125558010Y-132962990D01*
X129037010Y-133343754D02*
X128656246Y-132962990D01*
X129037010Y-134807246D02*
X129037010Y-133343754D01*
D34*
X131691010Y-134492024D02*
X131691010Y-134550990D01*
X131691010Y-134827956D02*
X130819466Y-135699500D01*
X131691010Y-134492024D02*
X131691010Y-134827956D01*
X130111500Y-135699500D02*
X130048000Y-135636000D01*
X130819466Y-135699500D02*
X130111500Y-135699500D01*
X130048000Y-135636000D02*
X129413000Y-135636000D01*
X129037010Y-135260010D02*
X129037010Y-134807246D01*
X129413000Y-135636000D02*
X129037010Y-135260010D01*
X125508010Y-133012990D02*
X125558010Y-133012990D01*
X125158000Y-134075500D02*
X125158000Y-133363000D01*
X125158000Y-133363000D02*
X125508010Y-133012990D01*
D30*
X141351000Y-127412000D02*
X139827000Y-128936000D01*
X141351000Y-125412000D02*
X141351000Y-127412000D01*
D31*
X132207000Y-133350000D02*
X131741010Y-133815990D01*
X134874000Y-132353998D02*
X134874000Y-132778500D01*
X138239500Y-131953000D02*
X135274998Y-131953000D01*
X135274998Y-131953000D02*
X134874000Y-132353998D01*
X134302500Y-133350000D02*
X132207000Y-133350000D01*
X131741010Y-133815990D02*
X131741010Y-134371312D01*
X134874000Y-132778500D02*
X134302500Y-133350000D01*
D30*
X138352510Y-131839990D02*
X138239500Y-131839990D01*
X139827000Y-128936000D02*
X139827000Y-130365500D01*
X139827000Y-130365500D02*
X138352510Y-131839990D01*
X127762000Y-136842500D02*
X127762000Y-134075500D01*
X141287500Y-138684000D02*
X129603500Y-138684000D01*
X147764500Y-131127500D02*
X147694510Y-131197490D01*
X129603500Y-138684000D02*
X127762000Y-136842500D01*
X147694510Y-131197490D02*
X147694510Y-132276990D01*
X152590000Y-119475500D02*
X151796000Y-118681500D01*
X152590000Y-121475500D02*
X152590000Y-119475500D01*
X151796000Y-118681500D02*
X149225000Y-118681500D01*
X149225000Y-118681500D02*
X147764500Y-120142000D01*
X147694510Y-132276990D02*
X141287500Y-138684000D01*
X147764500Y-120142000D02*
X147764500Y-131127500D01*
X127602000Y-130940500D02*
X127762000Y-131100500D01*
X127602000Y-127127000D02*
X127602000Y-130940500D01*
X115633000Y-106107000D02*
X115633000Y-113474000D01*
X115633000Y-113474000D02*
X117157500Y-114998500D01*
X117157500Y-114998500D02*
X119380000Y-114998500D01*
X119602000Y-114776500D02*
X119602000Y-113127000D01*
X119380000Y-114998500D02*
X119602000Y-114776500D01*
X116903000Y-112428000D02*
X117602000Y-113127000D01*
X116903000Y-106107000D02*
X116903000Y-112428000D01*
D38*
G36*
X134818748Y-74389469D02*
G01*
X134569786Y-74593786D01*
X134518580Y-74656181D01*
X132450762Y-76724000D01*
X128096322Y-76724000D01*
X128016000Y-76716089D01*
X127695483Y-76747657D01*
X127413526Y-76833188D01*
X127387285Y-76841148D01*
X127103248Y-76992969D01*
X126854286Y-77197286D01*
X126803084Y-77259676D01*
X124694186Y-79368576D01*
X124631786Y-79419786D01*
X124427469Y-79668749D01*
X124275648Y-79952786D01*
X124182157Y-80260985D01*
X124164941Y-80435787D01*
X124150589Y-80581500D01*
X124158500Y-80661820D01*
X124158501Y-85263671D01*
X124150589Y-85344000D01*
X124182158Y-85664516D01*
X124275648Y-85972714D01*
X124345863Y-86104076D01*
X124427470Y-86256752D01*
X124631787Y-86505714D01*
X124694182Y-86556920D01*
X125891579Y-87754318D01*
X125942786Y-87816714D01*
X126191748Y-88021031D01*
X126475785Y-88172852D01*
X126783984Y-88266343D01*
X127024178Y-88290000D01*
X127024180Y-88290000D01*
X127104500Y-88297911D01*
X127184819Y-88290000D01*
X128413000Y-88290000D01*
X128413001Y-89557000D01*
X124232322Y-89557000D01*
X124152000Y-89549089D01*
X124071678Y-89557000D01*
X123831484Y-89580657D01*
X123523285Y-89674148D01*
X123239248Y-89825969D01*
X123083329Y-89953928D01*
X123052000Y-89953928D01*
X122927518Y-89966188D01*
X122807820Y-90002498D01*
X122697506Y-90061463D01*
X122600815Y-90140815D01*
X122521463Y-90237506D01*
X122462498Y-90347820D01*
X122426188Y-90467518D01*
X122413928Y-90592000D01*
X122413928Y-91792000D01*
X122426188Y-91916482D01*
X122462498Y-92036180D01*
X122517000Y-92138144D01*
X122517000Y-92448681D01*
X122509089Y-92529000D01*
X122517000Y-92609319D01*
X122517000Y-92609322D01*
X122540657Y-92849516D01*
X122560495Y-92914911D01*
X122634148Y-93157714D01*
X122689038Y-93260405D01*
X122785970Y-93441752D01*
X122990287Y-93690714D01*
X123052682Y-93741920D01*
X123628075Y-94317313D01*
X123679286Y-94379714D01*
X123928248Y-94584031D01*
X124212285Y-94735852D01*
X124520484Y-94829343D01*
X124760678Y-94853000D01*
X124760680Y-94853000D01*
X124840999Y-94860911D01*
X124921319Y-94853000D01*
X125243262Y-94853000D01*
X125428501Y-95038239D01*
X125428500Y-100122680D01*
X125420589Y-100203000D01*
X125428500Y-100283319D01*
X125428500Y-100283321D01*
X125452157Y-100523515D01*
X125545648Y-100831714D01*
X125685512Y-101093381D01*
X125619495Y-101027364D01*
X125583949Y-100984051D01*
X125411123Y-100842216D01*
X125213947Y-100736824D01*
X124999999Y-100671923D01*
X124833252Y-100655500D01*
X124833251Y-100655500D01*
X124777500Y-100650009D01*
X124721749Y-100655500D01*
X122737743Y-100655500D01*
X122681999Y-100650010D01*
X122626255Y-100655500D01*
X122626248Y-100655500D01*
X122480493Y-100669856D01*
X122459500Y-100671923D01*
X122412855Y-100686073D01*
X122245553Y-100736824D01*
X122048377Y-100842216D01*
X121875551Y-100984051D01*
X121840004Y-101027365D01*
X121220360Y-101647009D01*
X121177052Y-101682551D01*
X121035217Y-101855377D01*
X120994201Y-101932114D01*
X120929824Y-102052554D01*
X120864923Y-102266502D01*
X120843009Y-102489000D01*
X120848501Y-102544761D01*
X120848500Y-104140868D01*
X120014441Y-104974928D01*
X119644000Y-104974928D01*
X119470746Y-104991992D01*
X119308000Y-105041360D01*
X119308000Y-104131751D01*
X119313491Y-104075999D01*
X119295861Y-103897000D01*
X119291577Y-103853501D01*
X119226676Y-103639553D01*
X119121284Y-103442377D01*
X118979449Y-103269551D01*
X118936135Y-103234004D01*
X118888496Y-103186365D01*
X118852949Y-103143051D01*
X118680123Y-103001216D01*
X118482947Y-102895824D01*
X118268999Y-102830923D01*
X118102252Y-102814500D01*
X118102251Y-102814500D01*
X118046500Y-102809009D01*
X117990749Y-102814500D01*
X114990751Y-102814500D01*
X114934999Y-102809009D01*
X114819425Y-102820392D01*
X114712501Y-102830923D01*
X114498553Y-102895824D01*
X114301377Y-103001216D01*
X114128551Y-103143051D01*
X114093004Y-103186365D01*
X113600360Y-103679009D01*
X113557052Y-103714551D01*
X113415217Y-103887377D01*
X113309824Y-104084553D01*
X113244923Y-104298501D01*
X113232366Y-104425998D01*
X113223009Y-104521000D01*
X113228500Y-104576751D01*
X113228500Y-104972000D01*
X112615241Y-104972000D01*
X112559499Y-104966510D01*
X112503757Y-104972000D01*
X112503748Y-104972000D01*
X112337001Y-104988423D01*
X112140841Y-105047928D01*
X111643000Y-105047928D01*
X111469746Y-105064992D01*
X111303150Y-105115528D01*
X111149614Y-105197595D01*
X111015038Y-105308038D01*
X110946862Y-105391112D01*
X110910472Y-105271150D01*
X110828405Y-105117614D01*
X110755682Y-105029000D01*
X110828405Y-104940386D01*
X110910472Y-104786850D01*
X110961008Y-104620254D01*
X110978072Y-104447000D01*
X110978072Y-103197000D01*
X110962631Y-103040224D01*
X113424928Y-100577928D01*
X113424928Y-101982000D01*
X113440071Y-102135745D01*
X113484916Y-102283582D01*
X113557742Y-102419829D01*
X113655749Y-102539251D01*
X113775171Y-102637258D01*
X113911418Y-102710084D01*
X114059255Y-102754929D01*
X114213000Y-102770072D01*
X114513000Y-102770072D01*
X114666745Y-102754929D01*
X114814582Y-102710084D01*
X114950829Y-102637258D01*
X115070251Y-102539251D01*
X115168258Y-102419829D01*
X115241084Y-102283582D01*
X115285929Y-102135745D01*
X115301072Y-101982000D01*
X115301072Y-100332000D01*
X115294030Y-100260500D01*
X115893001Y-100260500D01*
X115893001Y-101206608D01*
X115907616Y-101354994D01*
X115964928Y-101543926D01*
X115964928Y-101982000D01*
X115980071Y-102135745D01*
X116024916Y-102283582D01*
X116097742Y-102419829D01*
X116195749Y-102539251D01*
X116315171Y-102637258D01*
X116451418Y-102710084D01*
X116599255Y-102754929D01*
X116753000Y-102770072D01*
X117053000Y-102770072D01*
X117206745Y-102754929D01*
X117354582Y-102710084D01*
X117490829Y-102637258D01*
X117538000Y-102598546D01*
X117585171Y-102637258D01*
X117721418Y-102710084D01*
X117869255Y-102754929D01*
X118023000Y-102770072D01*
X118323000Y-102770072D01*
X118476745Y-102754929D01*
X118624582Y-102710084D01*
X118760829Y-102637258D01*
X118880251Y-102539251D01*
X118978258Y-102419829D01*
X119051084Y-102283582D01*
X119095929Y-102135745D01*
X119111072Y-101982000D01*
X119111072Y-101543930D01*
X119168385Y-101354994D01*
X119183000Y-101206608D01*
X119183000Y-100765684D01*
X119183500Y-100760608D01*
X119183500Y-100760606D01*
X119188386Y-100711001D01*
X119183500Y-100661396D01*
X119183500Y-98792097D01*
X119188385Y-98742499D01*
X119183500Y-98692901D01*
X119183500Y-98692892D01*
X119168885Y-98544506D01*
X119111132Y-98354120D01*
X119017347Y-98178660D01*
X118891133Y-98024867D01*
X118852594Y-97993239D01*
X118414761Y-97555406D01*
X118383133Y-97516867D01*
X118229340Y-97390653D01*
X118053880Y-97296868D01*
X117863494Y-97239115D01*
X117715108Y-97224500D01*
X117665500Y-97219614D01*
X117615892Y-97224500D01*
X112889108Y-97224500D01*
X112839500Y-97219614D01*
X112641505Y-97239115D01*
X112451120Y-97296868D01*
X112275660Y-97390653D01*
X112121867Y-97516867D01*
X112090244Y-97555400D01*
X107524906Y-102120739D01*
X107486367Y-102152367D01*
X107360153Y-102306160D01*
X107341000Y-102341992D01*
X107288254Y-102325992D01*
X107115000Y-102308928D01*
X106190000Y-102308928D01*
X106016746Y-102325992D01*
X105850150Y-102376528D01*
X105696614Y-102458595D01*
X105562038Y-102569038D01*
X105451595Y-102703614D01*
X105369528Y-102857150D01*
X105318992Y-103023746D01*
X105308454Y-103130739D01*
X105275656Y-103157656D01*
X105246370Y-103193341D01*
X104131722Y-104307989D01*
X103952068Y-104307989D01*
X103814708Y-104321518D01*
X103638460Y-104374982D01*
X103529915Y-104433000D01*
X102883072Y-104433000D01*
X102883072Y-104393000D01*
X102870812Y-104268518D01*
X102834502Y-104148820D01*
X102775537Y-104038506D01*
X102696185Y-103941815D01*
X102599494Y-103862463D01*
X102489180Y-103803498D01*
X102369482Y-103767188D01*
X102245000Y-103754928D01*
X101475716Y-103754928D01*
X101490226Y-103719898D01*
X101530000Y-103519939D01*
X101530000Y-103316061D01*
X101490226Y-103116102D01*
X101412205Y-102927744D01*
X101298937Y-102758226D01*
X101154774Y-102614063D01*
X100985256Y-102500795D01*
X100796898Y-102422774D01*
X100596939Y-102383000D01*
X100393061Y-102383000D01*
X100193102Y-102422774D01*
X100004744Y-102500795D01*
X99835226Y-102614063D01*
X99691063Y-102758226D01*
X99577795Y-102927744D01*
X99499774Y-103116102D01*
X99460000Y-103316061D01*
X99460000Y-103519939D01*
X99499774Y-103719898D01*
X99577795Y-103908256D01*
X99691063Y-104077774D01*
X99835226Y-104221937D01*
X100004744Y-104335205D01*
X100193102Y-104413226D01*
X100306928Y-104435867D01*
X100306928Y-104843000D01*
X100316777Y-104943000D01*
X100306928Y-105043000D01*
X100306928Y-105493000D01*
X100316777Y-105593000D01*
X100306928Y-105693000D01*
X100306928Y-106143000D01*
X100316777Y-106243000D01*
X100306928Y-106343000D01*
X100306928Y-106793000D01*
X100319188Y-106917482D01*
X100355498Y-107037180D01*
X100414463Y-107147494D01*
X100493815Y-107244185D01*
X100590506Y-107323537D01*
X100700820Y-107382502D01*
X100820518Y-107418812D01*
X100945000Y-107431072D01*
X102245000Y-107431072D01*
X102369482Y-107418812D01*
X102489180Y-107382502D01*
X102599494Y-107323537D01*
X102696185Y-107244185D01*
X102775537Y-107147494D01*
X102834502Y-107037180D01*
X102870812Y-106917482D01*
X102883072Y-106793000D01*
X102883072Y-106777999D01*
X103439250Y-106777999D01*
X103539656Y-106900344D01*
X103682028Y-107017186D01*
X103844460Y-107104007D01*
X104020708Y-107157471D01*
X104158068Y-107171000D01*
X105360473Y-107171000D01*
X105369528Y-107200850D01*
X105451595Y-107354386D01*
X105562038Y-107488962D01*
X105696614Y-107599405D01*
X105850150Y-107681472D01*
X106016746Y-107732008D01*
X106190000Y-107749072D01*
X107115000Y-107749072D01*
X107288254Y-107732008D01*
X107454850Y-107681472D01*
X107608386Y-107599405D01*
X107742962Y-107488962D01*
X107853405Y-107354386D01*
X107935472Y-107200850D01*
X107986008Y-107034254D01*
X108003072Y-106861000D01*
X108003072Y-106752428D01*
X108165743Y-106915099D01*
X108197367Y-106953633D01*
X108293850Y-107032814D01*
X108293992Y-107034254D01*
X108344528Y-107200850D01*
X108426595Y-107354386D01*
X108537038Y-107488962D01*
X108671614Y-107599405D01*
X108825150Y-107681472D01*
X108991746Y-107732008D01*
X109165000Y-107749072D01*
X110090000Y-107749072D01*
X110263254Y-107732008D01*
X110429850Y-107681472D01*
X110583386Y-107599405D01*
X110717962Y-107488962D01*
X110828405Y-107354386D01*
X110866500Y-107283116D01*
X110904595Y-107354386D01*
X111015038Y-107488962D01*
X111149614Y-107599405D01*
X111303150Y-107681472D01*
X111469746Y-107732008D01*
X111643000Y-107749072D01*
X112893000Y-107749072D01*
X113066254Y-107732008D01*
X113212804Y-107687553D01*
X113181423Y-107791002D01*
X113159509Y-108013500D01*
X113165000Y-108069251D01*
X113165001Y-123896500D01*
X110672752Y-123896500D01*
X110617000Y-123891009D01*
X110561248Y-123896500D01*
X110394501Y-123912923D01*
X110180553Y-123977824D01*
X109983377Y-124083216D01*
X109810551Y-124225051D01*
X109775011Y-124268357D01*
X106781369Y-127262000D01*
X99115743Y-127262000D01*
X99059999Y-127256510D01*
X99004255Y-127262000D01*
X99004248Y-127262000D01*
X98858493Y-127276356D01*
X98837500Y-127278423D01*
X98789194Y-127293077D01*
X98623553Y-127343324D01*
X98426377Y-127448716D01*
X98253551Y-127590551D01*
X98218004Y-127633865D01*
X97598360Y-128253509D01*
X97555052Y-128289051D01*
X97413217Y-128461877D01*
X97364783Y-128552491D01*
X97307824Y-128659054D01*
X97242923Y-128873002D01*
X97221009Y-129095500D01*
X97226501Y-129151261D01*
X97226500Y-131770248D01*
X97221009Y-131826000D01*
X97226500Y-131881751D01*
X97242923Y-132048498D01*
X97307824Y-132262446D01*
X97413216Y-132459623D01*
X97555051Y-132632449D01*
X97598364Y-132667995D01*
X98599013Y-133668646D01*
X98634551Y-133711949D01*
X98677854Y-133747487D01*
X98677856Y-133747489D01*
X98807377Y-133853784D01*
X99004553Y-133959176D01*
X99218501Y-134024077D01*
X99441000Y-134045991D01*
X99496752Y-134040500D01*
X111790749Y-134040500D01*
X111846500Y-134045991D01*
X111902251Y-134040500D01*
X111902252Y-134040500D01*
X112068999Y-134024077D01*
X112282947Y-133959176D01*
X112480123Y-133853784D01*
X112652949Y-133711949D01*
X112688496Y-133668635D01*
X113349735Y-133007396D01*
X113383365Y-133034996D01*
X115160009Y-134811640D01*
X115195551Y-134854949D01*
X115368377Y-134996784D01*
X115565553Y-135102176D01*
X115779501Y-135167077D01*
X115946248Y-135183500D01*
X115946257Y-135183500D01*
X116001999Y-135188990D01*
X116057741Y-135183500D01*
X120498408Y-135183500D01*
X120611614Y-135276405D01*
X120765150Y-135358472D01*
X120931746Y-135409008D01*
X121105000Y-135426072D01*
X122355000Y-135426072D01*
X122528254Y-135409008D01*
X122694850Y-135358472D01*
X122848386Y-135276405D01*
X122982962Y-135165962D01*
X123093405Y-135031386D01*
X123175472Y-134877850D01*
X123226008Y-134711254D01*
X123243072Y-134538000D01*
X123243072Y-133913500D01*
X123499752Y-133913500D01*
X123644928Y-133899202D01*
X123644928Y-134538000D01*
X123661992Y-134711254D01*
X123712528Y-134877850D01*
X123794595Y-135031386D01*
X123905038Y-135165962D01*
X124039614Y-135276405D01*
X124193150Y-135358472D01*
X124359746Y-135409008D01*
X124533000Y-135426072D01*
X125783000Y-135426072D01*
X125956254Y-135409008D01*
X126122850Y-135358472D01*
X126276386Y-135276405D01*
X126410962Y-135165962D01*
X126460000Y-135106209D01*
X126509038Y-135165962D01*
X126627001Y-135262771D01*
X126627000Y-136786748D01*
X126621509Y-136842500D01*
X126627000Y-136898251D01*
X126643423Y-137064998D01*
X126708324Y-137278946D01*
X126813716Y-137476123D01*
X126955551Y-137648949D01*
X126998865Y-137684496D01*
X128761509Y-139447140D01*
X128797051Y-139490449D01*
X128969877Y-139632284D01*
X129167053Y-139737676D01*
X129379099Y-139802000D01*
X96545000Y-139802000D01*
X96545000Y-136368372D01*
X97650500Y-136368372D01*
X97650500Y-136808628D01*
X97736390Y-137240425D01*
X97904869Y-137647169D01*
X98149462Y-138013229D01*
X98460771Y-138324538D01*
X98826831Y-138569131D01*
X99233575Y-138737610D01*
X99665372Y-138823500D01*
X100105628Y-138823500D01*
X100537425Y-138737610D01*
X100944169Y-138569131D01*
X101310229Y-138324538D01*
X101621538Y-138013229D01*
X101866131Y-137647169D01*
X102034610Y-137240425D01*
X102120500Y-136808628D01*
X102120500Y-136368372D01*
X102034610Y-135936575D01*
X101866131Y-135529831D01*
X101621538Y-135163771D01*
X101310229Y-134852462D01*
X100944169Y-134607869D01*
X100537425Y-134439390D01*
X100105628Y-134353500D01*
X99665372Y-134353500D01*
X99233575Y-134439390D01*
X98826831Y-134607869D01*
X98460771Y-134852462D01*
X98149462Y-135163771D01*
X97904869Y-135529831D01*
X97736390Y-135936575D01*
X97650500Y-136368372D01*
X96545000Y-136368372D01*
X96545000Y-108316061D01*
X99460000Y-108316061D01*
X99460000Y-108519939D01*
X99499774Y-108719898D01*
X99577795Y-108908256D01*
X99691063Y-109077774D01*
X99835226Y-109221937D01*
X100004744Y-109335205D01*
X100193102Y-109413226D01*
X100393061Y-109453000D01*
X100596939Y-109453000D01*
X100796898Y-109413226D01*
X100985256Y-109335205D01*
X101154774Y-109221937D01*
X101298937Y-109077774D01*
X101412205Y-108908256D01*
X101490226Y-108719898D01*
X101530000Y-108519939D01*
X101530000Y-108316061D01*
X101490226Y-108116102D01*
X101412205Y-107927744D01*
X101298937Y-107758226D01*
X101154774Y-107614063D01*
X100985256Y-107500795D01*
X100796898Y-107422774D01*
X100596939Y-107383000D01*
X100393061Y-107383000D01*
X100193102Y-107422774D01*
X100004744Y-107500795D01*
X99835226Y-107614063D01*
X99691063Y-107758226D01*
X99577795Y-107927744D01*
X99499774Y-108116102D01*
X99460000Y-108316061D01*
X96545000Y-108316061D01*
X96545000Y-97678000D01*
X104530428Y-97678000D01*
X104530428Y-99428000D01*
X104559501Y-99723186D01*
X104645604Y-100007028D01*
X104785427Y-100268618D01*
X104973597Y-100497903D01*
X105202882Y-100686073D01*
X105464472Y-100825896D01*
X105748314Y-100911999D01*
X106043500Y-100941072D01*
X107793500Y-100941072D01*
X108088686Y-100911999D01*
X108372528Y-100825896D01*
X108634118Y-100686073D01*
X108863403Y-100497903D01*
X109051573Y-100268618D01*
X109191396Y-100007028D01*
X109277499Y-99723186D01*
X109306572Y-99428000D01*
X109306572Y-97678000D01*
X109277499Y-97382814D01*
X109191396Y-97098972D01*
X109069885Y-96871640D01*
X109303933Y-96942638D01*
X109764498Y-96988000D01*
X114495172Y-96988000D01*
X114527518Y-96997812D01*
X114652000Y-97010072D01*
X121052000Y-97010072D01*
X121176482Y-96997812D01*
X121296180Y-96961502D01*
X121406494Y-96902537D01*
X121503185Y-96823185D01*
X121582537Y-96726494D01*
X121641502Y-96616180D01*
X121677812Y-96496482D01*
X121690072Y-96372000D01*
X121690072Y-90572000D01*
X121677812Y-90447518D01*
X121641502Y-90327820D01*
X121582537Y-90217506D01*
X121503185Y-90120815D01*
X121406494Y-90041463D01*
X121296180Y-89982498D01*
X121176482Y-89946188D01*
X121052000Y-89933928D01*
X114652000Y-89933928D01*
X114527518Y-89946188D01*
X114407820Y-89982498D01*
X114297506Y-90041463D01*
X114200815Y-90120815D01*
X114121463Y-90217506D01*
X114062498Y-90327820D01*
X114026188Y-90447518D01*
X114013928Y-90572000D01*
X114013928Y-90718000D01*
X109764498Y-90718000D01*
X109303933Y-90763362D01*
X108712983Y-90942624D01*
X108168360Y-91233731D01*
X107690995Y-91625495D01*
X107299231Y-92102860D01*
X107008124Y-92647483D01*
X106828862Y-93238433D01*
X106768332Y-93853000D01*
X106828862Y-94467567D01*
X107008124Y-95058517D01*
X107299231Y-95603140D01*
X107690995Y-96080505D01*
X107793914Y-96164969D01*
X107793500Y-96164928D01*
X106043500Y-96164928D01*
X105748314Y-96194001D01*
X105464472Y-96280104D01*
X105202882Y-96419927D01*
X104973597Y-96608097D01*
X104785427Y-96837382D01*
X104645604Y-97098972D01*
X104559501Y-97382814D01*
X104530428Y-97678000D01*
X96545000Y-97678000D01*
X96545000Y-77313372D01*
X97650500Y-77313372D01*
X97650500Y-77753628D01*
X97736390Y-78185425D01*
X97904869Y-78592169D01*
X98149462Y-78958229D01*
X98460771Y-79269538D01*
X98826831Y-79514131D01*
X99233575Y-79682610D01*
X99665372Y-79768500D01*
X100105628Y-79768500D01*
X100537425Y-79682610D01*
X100944169Y-79514131D01*
X101310229Y-79269538D01*
X101621538Y-78958229D01*
X101866131Y-78592169D01*
X102034610Y-78185425D01*
X102120500Y-77753628D01*
X102120500Y-77313372D01*
X102034610Y-76881575D01*
X101866131Y-76474831D01*
X101621538Y-76108771D01*
X101310229Y-75797462D01*
X100944169Y-75552869D01*
X100537425Y-75384390D01*
X100105628Y-75298500D01*
X99665372Y-75298500D01*
X99233575Y-75384390D01*
X98826831Y-75552869D01*
X98460771Y-75797462D01*
X98149462Y-76108771D01*
X97904869Y-76474831D01*
X97736390Y-76881575D01*
X97650500Y-77313372D01*
X96545000Y-77313372D01*
X96545000Y-74320000D01*
X134948715Y-74320000D01*
X134818748Y-74389469D01*
G37*
X134818748Y-74389469D02*
X134569786Y-74593786D01*
X134518580Y-74656181D01*
X132450762Y-76724000D01*
X128096322Y-76724000D01*
X128016000Y-76716089D01*
X127695483Y-76747657D01*
X127413526Y-76833188D01*
X127387285Y-76841148D01*
X127103248Y-76992969D01*
X126854286Y-77197286D01*
X126803084Y-77259676D01*
X124694186Y-79368576D01*
X124631786Y-79419786D01*
X124427469Y-79668749D01*
X124275648Y-79952786D01*
X124182157Y-80260985D01*
X124164941Y-80435787D01*
X124150589Y-80581500D01*
X124158500Y-80661820D01*
X124158501Y-85263671D01*
X124150589Y-85344000D01*
X124182158Y-85664516D01*
X124275648Y-85972714D01*
X124345863Y-86104076D01*
X124427470Y-86256752D01*
X124631787Y-86505714D01*
X124694182Y-86556920D01*
X125891579Y-87754318D01*
X125942786Y-87816714D01*
X126191748Y-88021031D01*
X126475785Y-88172852D01*
X126783984Y-88266343D01*
X127024178Y-88290000D01*
X127024180Y-88290000D01*
X127104500Y-88297911D01*
X127184819Y-88290000D01*
X128413000Y-88290000D01*
X128413001Y-89557000D01*
X124232322Y-89557000D01*
X124152000Y-89549089D01*
X124071678Y-89557000D01*
X123831484Y-89580657D01*
X123523285Y-89674148D01*
X123239248Y-89825969D01*
X123083329Y-89953928D01*
X123052000Y-89953928D01*
X122927518Y-89966188D01*
X122807820Y-90002498D01*
X122697506Y-90061463D01*
X122600815Y-90140815D01*
X122521463Y-90237506D01*
X122462498Y-90347820D01*
X122426188Y-90467518D01*
X122413928Y-90592000D01*
X122413928Y-91792000D01*
X122426188Y-91916482D01*
X122462498Y-92036180D01*
X122517000Y-92138144D01*
X122517000Y-92448681D01*
X122509089Y-92529000D01*
X122517000Y-92609319D01*
X122517000Y-92609322D01*
X122540657Y-92849516D01*
X122560495Y-92914911D01*
X122634148Y-93157714D01*
X122689038Y-93260405D01*
X122785970Y-93441752D01*
X122990287Y-93690714D01*
X123052682Y-93741920D01*
X123628075Y-94317313D01*
X123679286Y-94379714D01*
X123928248Y-94584031D01*
X124212285Y-94735852D01*
X124520484Y-94829343D01*
X124760678Y-94853000D01*
X124760680Y-94853000D01*
X124840999Y-94860911D01*
X124921319Y-94853000D01*
X125243262Y-94853000D01*
X125428501Y-95038239D01*
X125428500Y-100122680D01*
X125420589Y-100203000D01*
X125428500Y-100283319D01*
X125428500Y-100283321D01*
X125452157Y-100523515D01*
X125545648Y-100831714D01*
X125685512Y-101093381D01*
X125619495Y-101027364D01*
X125583949Y-100984051D01*
X125411123Y-100842216D01*
X125213947Y-100736824D01*
X124999999Y-100671923D01*
X124833252Y-100655500D01*
X124833251Y-100655500D01*
X124777500Y-100650009D01*
X124721749Y-100655500D01*
X122737743Y-100655500D01*
X122681999Y-100650010D01*
X122626255Y-100655500D01*
X122626248Y-100655500D01*
X122480493Y-100669856D01*
X122459500Y-100671923D01*
X122412855Y-100686073D01*
X122245553Y-100736824D01*
X122048377Y-100842216D01*
X121875551Y-100984051D01*
X121840004Y-101027365D01*
X121220360Y-101647009D01*
X121177052Y-101682551D01*
X121035217Y-101855377D01*
X120994201Y-101932114D01*
X120929824Y-102052554D01*
X120864923Y-102266502D01*
X120843009Y-102489000D01*
X120848501Y-102544761D01*
X120848500Y-104140868D01*
X120014441Y-104974928D01*
X119644000Y-104974928D01*
X119470746Y-104991992D01*
X119308000Y-105041360D01*
X119308000Y-104131751D01*
X119313491Y-104075999D01*
X119295861Y-103897000D01*
X119291577Y-103853501D01*
X119226676Y-103639553D01*
X119121284Y-103442377D01*
X118979449Y-103269551D01*
X118936135Y-103234004D01*
X118888496Y-103186365D01*
X118852949Y-103143051D01*
X118680123Y-103001216D01*
X118482947Y-102895824D01*
X118268999Y-102830923D01*
X118102252Y-102814500D01*
X118102251Y-102814500D01*
X118046500Y-102809009D01*
X117990749Y-102814500D01*
X114990751Y-102814500D01*
X114934999Y-102809009D01*
X114819425Y-102820392D01*
X114712501Y-102830923D01*
X114498553Y-102895824D01*
X114301377Y-103001216D01*
X114128551Y-103143051D01*
X114093004Y-103186365D01*
X113600360Y-103679009D01*
X113557052Y-103714551D01*
X113415217Y-103887377D01*
X113309824Y-104084553D01*
X113244923Y-104298501D01*
X113232366Y-104425998D01*
X113223009Y-104521000D01*
X113228500Y-104576751D01*
X113228500Y-104972000D01*
X112615241Y-104972000D01*
X112559499Y-104966510D01*
X112503757Y-104972000D01*
X112503748Y-104972000D01*
X112337001Y-104988423D01*
X112140841Y-105047928D01*
X111643000Y-105047928D01*
X111469746Y-105064992D01*
X111303150Y-105115528D01*
X111149614Y-105197595D01*
X111015038Y-105308038D01*
X110946862Y-105391112D01*
X110910472Y-105271150D01*
X110828405Y-105117614D01*
X110755682Y-105029000D01*
X110828405Y-104940386D01*
X110910472Y-104786850D01*
X110961008Y-104620254D01*
X110978072Y-104447000D01*
X110978072Y-103197000D01*
X110962631Y-103040224D01*
X113424928Y-100577928D01*
X113424928Y-101982000D01*
X113440071Y-102135745D01*
X113484916Y-102283582D01*
X113557742Y-102419829D01*
X113655749Y-102539251D01*
X113775171Y-102637258D01*
X113911418Y-102710084D01*
X114059255Y-102754929D01*
X114213000Y-102770072D01*
X114513000Y-102770072D01*
X114666745Y-102754929D01*
X114814582Y-102710084D01*
X114950829Y-102637258D01*
X115070251Y-102539251D01*
X115168258Y-102419829D01*
X115241084Y-102283582D01*
X115285929Y-102135745D01*
X115301072Y-101982000D01*
X115301072Y-100332000D01*
X115294030Y-100260500D01*
X115893001Y-100260500D01*
X115893001Y-101206608D01*
X115907616Y-101354994D01*
X115964928Y-101543926D01*
X115964928Y-101982000D01*
X115980071Y-102135745D01*
X116024916Y-102283582D01*
X116097742Y-102419829D01*
X116195749Y-102539251D01*
X116315171Y-102637258D01*
X116451418Y-102710084D01*
X116599255Y-102754929D01*
X116753000Y-102770072D01*
X117053000Y-102770072D01*
X117206745Y-102754929D01*
X117354582Y-102710084D01*
X117490829Y-102637258D01*
X117538000Y-102598546D01*
X117585171Y-102637258D01*
X117721418Y-102710084D01*
X117869255Y-102754929D01*
X118023000Y-102770072D01*
X118323000Y-102770072D01*
X118476745Y-102754929D01*
X118624582Y-102710084D01*
X118760829Y-102637258D01*
X118880251Y-102539251D01*
X118978258Y-102419829D01*
X119051084Y-102283582D01*
X119095929Y-102135745D01*
X119111072Y-101982000D01*
X119111072Y-101543930D01*
X119168385Y-101354994D01*
X119183000Y-101206608D01*
X119183000Y-100765684D01*
X119183500Y-100760608D01*
X119183500Y-100760606D01*
X119188386Y-100711001D01*
X119183500Y-100661396D01*
X119183500Y-98792097D01*
X119188385Y-98742499D01*
X119183500Y-98692901D01*
X119183500Y-98692892D01*
X119168885Y-98544506D01*
X119111132Y-98354120D01*
X119017347Y-98178660D01*
X118891133Y-98024867D01*
X118852594Y-97993239D01*
X118414761Y-97555406D01*
X118383133Y-97516867D01*
X118229340Y-97390653D01*
X118053880Y-97296868D01*
X117863494Y-97239115D01*
X117715108Y-97224500D01*
X117665500Y-97219614D01*
X117615892Y-97224500D01*
X112889108Y-97224500D01*
X112839500Y-97219614D01*
X112641505Y-97239115D01*
X112451120Y-97296868D01*
X112275660Y-97390653D01*
X112121867Y-97516867D01*
X112090244Y-97555400D01*
X107524906Y-102120739D01*
X107486367Y-102152367D01*
X107360153Y-102306160D01*
X107341000Y-102341992D01*
X107288254Y-102325992D01*
X107115000Y-102308928D01*
X106190000Y-102308928D01*
X106016746Y-102325992D01*
X105850150Y-102376528D01*
X105696614Y-102458595D01*
X105562038Y-102569038D01*
X105451595Y-102703614D01*
X105369528Y-102857150D01*
X105318992Y-103023746D01*
X105308454Y-103130739D01*
X105275656Y-103157656D01*
X105246370Y-103193341D01*
X104131722Y-104307989D01*
X103952068Y-104307989D01*
X103814708Y-104321518D01*
X103638460Y-104374982D01*
X103529915Y-104433000D01*
X102883072Y-104433000D01*
X102883072Y-104393000D01*
X102870812Y-104268518D01*
X102834502Y-104148820D01*
X102775537Y-104038506D01*
X102696185Y-103941815D01*
X102599494Y-103862463D01*
X102489180Y-103803498D01*
X102369482Y-103767188D01*
X102245000Y-103754928D01*
X101475716Y-103754928D01*
X101490226Y-103719898D01*
X101530000Y-103519939D01*
X101530000Y-103316061D01*
X101490226Y-103116102D01*
X101412205Y-102927744D01*
X101298937Y-102758226D01*
X101154774Y-102614063D01*
X100985256Y-102500795D01*
X100796898Y-102422774D01*
X100596939Y-102383000D01*
X100393061Y-102383000D01*
X100193102Y-102422774D01*
X100004744Y-102500795D01*
X99835226Y-102614063D01*
X99691063Y-102758226D01*
X99577795Y-102927744D01*
X99499774Y-103116102D01*
X99460000Y-103316061D01*
X99460000Y-103519939D01*
X99499774Y-103719898D01*
X99577795Y-103908256D01*
X99691063Y-104077774D01*
X99835226Y-104221937D01*
X100004744Y-104335205D01*
X100193102Y-104413226D01*
X100306928Y-104435867D01*
X100306928Y-104843000D01*
X100316777Y-104943000D01*
X100306928Y-105043000D01*
X100306928Y-105493000D01*
X100316777Y-105593000D01*
X100306928Y-105693000D01*
X100306928Y-106143000D01*
X100316777Y-106243000D01*
X100306928Y-106343000D01*
X100306928Y-106793000D01*
X100319188Y-106917482D01*
X100355498Y-107037180D01*
X100414463Y-107147494D01*
X100493815Y-107244185D01*
X100590506Y-107323537D01*
X100700820Y-107382502D01*
X100820518Y-107418812D01*
X100945000Y-107431072D01*
X102245000Y-107431072D01*
X102369482Y-107418812D01*
X102489180Y-107382502D01*
X102599494Y-107323537D01*
X102696185Y-107244185D01*
X102775537Y-107147494D01*
X102834502Y-107037180D01*
X102870812Y-106917482D01*
X102883072Y-106793000D01*
X102883072Y-106777999D01*
X103439250Y-106777999D01*
X103539656Y-106900344D01*
X103682028Y-107017186D01*
X103844460Y-107104007D01*
X104020708Y-107157471D01*
X104158068Y-107171000D01*
X105360473Y-107171000D01*
X105369528Y-107200850D01*
X105451595Y-107354386D01*
X105562038Y-107488962D01*
X105696614Y-107599405D01*
X105850150Y-107681472D01*
X106016746Y-107732008D01*
X106190000Y-107749072D01*
X107115000Y-107749072D01*
X107288254Y-107732008D01*
X107454850Y-107681472D01*
X107608386Y-107599405D01*
X107742962Y-107488962D01*
X107853405Y-107354386D01*
X107935472Y-107200850D01*
X107986008Y-107034254D01*
X108003072Y-106861000D01*
X108003072Y-106752428D01*
X108165743Y-106915099D01*
X108197367Y-106953633D01*
X108293850Y-107032814D01*
X108293992Y-107034254D01*
X108344528Y-107200850D01*
X108426595Y-107354386D01*
X108537038Y-107488962D01*
X108671614Y-107599405D01*
X108825150Y-107681472D01*
X108991746Y-107732008D01*
X109165000Y-107749072D01*
X110090000Y-107749072D01*
X110263254Y-107732008D01*
X110429850Y-107681472D01*
X110583386Y-107599405D01*
X110717962Y-107488962D01*
X110828405Y-107354386D01*
X110866500Y-107283116D01*
X110904595Y-107354386D01*
X111015038Y-107488962D01*
X111149614Y-107599405D01*
X111303150Y-107681472D01*
X111469746Y-107732008D01*
X111643000Y-107749072D01*
X112893000Y-107749072D01*
X113066254Y-107732008D01*
X113212804Y-107687553D01*
X113181423Y-107791002D01*
X113159509Y-108013500D01*
X113165000Y-108069251D01*
X113165001Y-123896500D01*
X110672752Y-123896500D01*
X110617000Y-123891009D01*
X110561248Y-123896500D01*
X110394501Y-123912923D01*
X110180553Y-123977824D01*
X109983377Y-124083216D01*
X109810551Y-124225051D01*
X109775011Y-124268357D01*
X106781369Y-127262000D01*
X99115743Y-127262000D01*
X99059999Y-127256510D01*
X99004255Y-127262000D01*
X99004248Y-127262000D01*
X98858493Y-127276356D01*
X98837500Y-127278423D01*
X98789194Y-127293077D01*
X98623553Y-127343324D01*
X98426377Y-127448716D01*
X98253551Y-127590551D01*
X98218004Y-127633865D01*
X97598360Y-128253509D01*
X97555052Y-128289051D01*
X97413217Y-128461877D01*
X97364783Y-128552491D01*
X97307824Y-128659054D01*
X97242923Y-128873002D01*
X97221009Y-129095500D01*
X97226501Y-129151261D01*
X97226500Y-131770248D01*
X97221009Y-131826000D01*
X97226500Y-131881751D01*
X97242923Y-132048498D01*
X97307824Y-132262446D01*
X97413216Y-132459623D01*
X97555051Y-132632449D01*
X97598364Y-132667995D01*
X98599013Y-133668646D01*
X98634551Y-133711949D01*
X98677854Y-133747487D01*
X98677856Y-133747489D01*
X98807377Y-133853784D01*
X99004553Y-133959176D01*
X99218501Y-134024077D01*
X99441000Y-134045991D01*
X99496752Y-134040500D01*
X111790749Y-134040500D01*
X111846500Y-134045991D01*
X111902251Y-134040500D01*
X111902252Y-134040500D01*
X112068999Y-134024077D01*
X112282947Y-133959176D01*
X112480123Y-133853784D01*
X112652949Y-133711949D01*
X112688496Y-133668635D01*
X113349735Y-133007396D01*
X113383365Y-133034996D01*
X115160009Y-134811640D01*
X115195551Y-134854949D01*
X115368377Y-134996784D01*
X115565553Y-135102176D01*
X115779501Y-135167077D01*
X115946248Y-135183500D01*
X115946257Y-135183500D01*
X116001999Y-135188990D01*
X116057741Y-135183500D01*
X120498408Y-135183500D01*
X120611614Y-135276405D01*
X120765150Y-135358472D01*
X120931746Y-135409008D01*
X121105000Y-135426072D01*
X122355000Y-135426072D01*
X122528254Y-135409008D01*
X122694850Y-135358472D01*
X122848386Y-135276405D01*
X122982962Y-135165962D01*
X123093405Y-135031386D01*
X123175472Y-134877850D01*
X123226008Y-134711254D01*
X123243072Y-134538000D01*
X123243072Y-133913500D01*
X123499752Y-133913500D01*
X123644928Y-133899202D01*
X123644928Y-134538000D01*
X123661992Y-134711254D01*
X123712528Y-134877850D01*
X123794595Y-135031386D01*
X123905038Y-135165962D01*
X124039614Y-135276405D01*
X124193150Y-135358472D01*
X124359746Y-135409008D01*
X124533000Y-135426072D01*
X125783000Y-135426072D01*
X125956254Y-135409008D01*
X126122850Y-135358472D01*
X126276386Y-135276405D01*
X126410962Y-135165962D01*
X126460000Y-135106209D01*
X126509038Y-135165962D01*
X126627001Y-135262771D01*
X126627000Y-136786748D01*
X126621509Y-136842500D01*
X126627000Y-136898251D01*
X126643423Y-137064998D01*
X126708324Y-137278946D01*
X126813716Y-137476123D01*
X126955551Y-137648949D01*
X126998865Y-137684496D01*
X128761509Y-139447140D01*
X128797051Y-139490449D01*
X128969877Y-139632284D01*
X129167053Y-139737676D01*
X129379099Y-139802000D01*
X96545000Y-139802000D01*
X96545000Y-136368372D01*
X97650500Y-136368372D01*
X97650500Y-136808628D01*
X97736390Y-137240425D01*
X97904869Y-137647169D01*
X98149462Y-138013229D01*
X98460771Y-138324538D01*
X98826831Y-138569131D01*
X99233575Y-138737610D01*
X99665372Y-138823500D01*
X100105628Y-138823500D01*
X100537425Y-138737610D01*
X100944169Y-138569131D01*
X101310229Y-138324538D01*
X101621538Y-138013229D01*
X101866131Y-137647169D01*
X102034610Y-137240425D01*
X102120500Y-136808628D01*
X102120500Y-136368372D01*
X102034610Y-135936575D01*
X101866131Y-135529831D01*
X101621538Y-135163771D01*
X101310229Y-134852462D01*
X100944169Y-134607869D01*
X100537425Y-134439390D01*
X100105628Y-134353500D01*
X99665372Y-134353500D01*
X99233575Y-134439390D01*
X98826831Y-134607869D01*
X98460771Y-134852462D01*
X98149462Y-135163771D01*
X97904869Y-135529831D01*
X97736390Y-135936575D01*
X97650500Y-136368372D01*
X96545000Y-136368372D01*
X96545000Y-108316061D01*
X99460000Y-108316061D01*
X99460000Y-108519939D01*
X99499774Y-108719898D01*
X99577795Y-108908256D01*
X99691063Y-109077774D01*
X99835226Y-109221937D01*
X100004744Y-109335205D01*
X100193102Y-109413226D01*
X100393061Y-109453000D01*
X100596939Y-109453000D01*
X100796898Y-109413226D01*
X100985256Y-109335205D01*
X101154774Y-109221937D01*
X101298937Y-109077774D01*
X101412205Y-108908256D01*
X101490226Y-108719898D01*
X101530000Y-108519939D01*
X101530000Y-108316061D01*
X101490226Y-108116102D01*
X101412205Y-107927744D01*
X101298937Y-107758226D01*
X101154774Y-107614063D01*
X100985256Y-107500795D01*
X100796898Y-107422774D01*
X100596939Y-107383000D01*
X100393061Y-107383000D01*
X100193102Y-107422774D01*
X100004744Y-107500795D01*
X99835226Y-107614063D01*
X99691063Y-107758226D01*
X99577795Y-107927744D01*
X99499774Y-108116102D01*
X99460000Y-108316061D01*
X96545000Y-108316061D01*
X96545000Y-97678000D01*
X104530428Y-97678000D01*
X104530428Y-99428000D01*
X104559501Y-99723186D01*
X104645604Y-100007028D01*
X104785427Y-100268618D01*
X104973597Y-100497903D01*
X105202882Y-100686073D01*
X105464472Y-100825896D01*
X105748314Y-100911999D01*
X106043500Y-100941072D01*
X107793500Y-100941072D01*
X108088686Y-100911999D01*
X108372528Y-100825896D01*
X108634118Y-100686073D01*
X108863403Y-100497903D01*
X109051573Y-100268618D01*
X109191396Y-100007028D01*
X109277499Y-99723186D01*
X109306572Y-99428000D01*
X109306572Y-97678000D01*
X109277499Y-97382814D01*
X109191396Y-97098972D01*
X109069885Y-96871640D01*
X109303933Y-96942638D01*
X109764498Y-96988000D01*
X114495172Y-96988000D01*
X114527518Y-96997812D01*
X114652000Y-97010072D01*
X121052000Y-97010072D01*
X121176482Y-96997812D01*
X121296180Y-96961502D01*
X121406494Y-96902537D01*
X121503185Y-96823185D01*
X121582537Y-96726494D01*
X121641502Y-96616180D01*
X121677812Y-96496482D01*
X121690072Y-96372000D01*
X121690072Y-90572000D01*
X121677812Y-90447518D01*
X121641502Y-90327820D01*
X121582537Y-90217506D01*
X121503185Y-90120815D01*
X121406494Y-90041463D01*
X121296180Y-89982498D01*
X121176482Y-89946188D01*
X121052000Y-89933928D01*
X114652000Y-89933928D01*
X114527518Y-89946188D01*
X114407820Y-89982498D01*
X114297506Y-90041463D01*
X114200815Y-90120815D01*
X114121463Y-90217506D01*
X114062498Y-90327820D01*
X114026188Y-90447518D01*
X114013928Y-90572000D01*
X114013928Y-90718000D01*
X109764498Y-90718000D01*
X109303933Y-90763362D01*
X108712983Y-90942624D01*
X108168360Y-91233731D01*
X107690995Y-91625495D01*
X107299231Y-92102860D01*
X107008124Y-92647483D01*
X106828862Y-93238433D01*
X106768332Y-93853000D01*
X106828862Y-94467567D01*
X107008124Y-95058517D01*
X107299231Y-95603140D01*
X107690995Y-96080505D01*
X107793914Y-96164969D01*
X107793500Y-96164928D01*
X106043500Y-96164928D01*
X105748314Y-96194001D01*
X105464472Y-96280104D01*
X105202882Y-96419927D01*
X104973597Y-96608097D01*
X104785427Y-96837382D01*
X104645604Y-97098972D01*
X104559501Y-97382814D01*
X104530428Y-97678000D01*
X96545000Y-97678000D01*
X96545000Y-77313372D01*
X97650500Y-77313372D01*
X97650500Y-77753628D01*
X97736390Y-78185425D01*
X97904869Y-78592169D01*
X98149462Y-78958229D01*
X98460771Y-79269538D01*
X98826831Y-79514131D01*
X99233575Y-79682610D01*
X99665372Y-79768500D01*
X100105628Y-79768500D01*
X100537425Y-79682610D01*
X100944169Y-79514131D01*
X101310229Y-79269538D01*
X101621538Y-78958229D01*
X101866131Y-78592169D01*
X102034610Y-78185425D01*
X102120500Y-77753628D01*
X102120500Y-77313372D01*
X102034610Y-76881575D01*
X101866131Y-76474831D01*
X101621538Y-76108771D01*
X101310229Y-75797462D01*
X100944169Y-75552869D01*
X100537425Y-75384390D01*
X100105628Y-75298500D01*
X99665372Y-75298500D01*
X99233575Y-75384390D01*
X98826831Y-75552869D01*
X98460771Y-75797462D01*
X98149462Y-76108771D01*
X97904869Y-76474831D01*
X97736390Y-76881575D01*
X97650500Y-77313372D01*
X96545000Y-77313372D01*
X96545000Y-74320000D01*
X134948715Y-74320000D01*
X134818748Y-74389469D01*
G36*
X147428595Y-84188886D02*
G01*
X147539038Y-84323462D01*
X147673614Y-84433905D01*
X147827150Y-84515972D01*
X147993746Y-84566508D01*
X148167000Y-84583572D01*
X149249940Y-84583572D01*
X150122001Y-85455633D01*
X150122000Y-98018368D01*
X145731360Y-102409009D01*
X145688052Y-102444551D01*
X145546217Y-102617377D01*
X145495909Y-102711498D01*
X145440824Y-102814554D01*
X145375923Y-103028502D01*
X145354009Y-103251000D01*
X145359501Y-103306762D01*
X145359500Y-130551368D01*
X144454115Y-131456754D01*
X144435833Y-131422551D01*
X144281502Y-131234498D01*
X144093449Y-131080167D01*
X143878901Y-130965489D01*
X143646102Y-130894870D01*
X143464665Y-130877000D01*
X142793335Y-130877000D01*
X142611898Y-130894870D01*
X142379099Y-130965489D01*
X142357563Y-130977000D01*
X141247741Y-130977000D01*
X141191999Y-130971510D01*
X141136257Y-130977000D01*
X141136248Y-130977000D01*
X140969501Y-130993423D01*
X140755553Y-131058324D01*
X140704151Y-131085799D01*
X140775284Y-130999123D01*
X140880676Y-130801947D01*
X140945577Y-130587999D01*
X140962000Y-130421252D01*
X140967491Y-130365500D01*
X140962000Y-130309748D01*
X140962000Y-129406131D01*
X142114140Y-128253991D01*
X142157449Y-128218449D01*
X142299284Y-128045623D01*
X142404676Y-127848447D01*
X142469577Y-127634499D01*
X142486000Y-127467752D01*
X142486000Y-127467743D01*
X142491490Y-127412001D01*
X142486000Y-127356259D01*
X142486000Y-126578888D01*
X142677345Y-126345734D01*
X142824755Y-126069948D01*
X142915530Y-125770703D01*
X142938500Y-125537485D01*
X142938500Y-125286514D01*
X142915530Y-125053296D01*
X142824755Y-124754051D01*
X142677345Y-124478265D01*
X142478963Y-124236537D01*
X142237234Y-124038155D01*
X141961448Y-123890745D01*
X141662203Y-123799970D01*
X141351000Y-123769319D01*
X141039796Y-123799970D01*
X140740551Y-123890745D01*
X140464765Y-124038155D01*
X140338905Y-124141446D01*
X140294037Y-124057506D01*
X140214685Y-123960815D01*
X140117994Y-123881463D01*
X140007680Y-123822498D01*
X139887982Y-123786188D01*
X139763500Y-123773928D01*
X137858500Y-123773928D01*
X137734018Y-123786188D01*
X137614320Y-123822498D01*
X137504006Y-123881463D01*
X137407315Y-123960815D01*
X137327963Y-124057506D01*
X137268998Y-124167820D01*
X137232688Y-124287518D01*
X137220428Y-124412000D01*
X137220428Y-126412000D01*
X137232688Y-126536482D01*
X137268998Y-126656180D01*
X137327963Y-126766494D01*
X137407315Y-126863185D01*
X137504006Y-126942537D01*
X137614320Y-127001502D01*
X137734018Y-127037812D01*
X137858500Y-127050072D01*
X139763500Y-127050072D01*
X139887982Y-127037812D01*
X140007680Y-127001502D01*
X140117994Y-126942537D01*
X140214685Y-126863185D01*
X140216001Y-126861582D01*
X140216001Y-126941867D01*
X139063865Y-128094004D01*
X139020551Y-128129551D01*
X138878716Y-128302377D01*
X138773325Y-128499553D01*
X138773324Y-128499554D01*
X138708423Y-128713502D01*
X138686509Y-128936000D01*
X138692000Y-128991751D01*
X138692000Y-129895368D01*
X138230771Y-130356597D01*
X138227502Y-130345820D01*
X138168537Y-130235506D01*
X138089185Y-130138815D01*
X137992494Y-130059463D01*
X137882180Y-130000498D01*
X137766211Y-129965319D01*
X137756577Y-129867501D01*
X137691676Y-129653553D01*
X137586284Y-129456377D01*
X137517403Y-129372446D01*
X137444449Y-129283551D01*
X137401141Y-129248009D01*
X134516996Y-126363865D01*
X134481449Y-126320551D01*
X134400784Y-126254351D01*
X134457674Y-126237094D01*
X134663536Y-126127058D01*
X134843975Y-125978975D01*
X134992058Y-125798536D01*
X135102094Y-125592674D01*
X135169853Y-125369300D01*
X135192733Y-125137000D01*
X135169853Y-124904700D01*
X135102094Y-124681326D01*
X134992058Y-124475464D01*
X134843975Y-124295025D01*
X134663536Y-124146942D01*
X134644936Y-124137000D01*
X134663536Y-124127058D01*
X134843975Y-123978975D01*
X134992058Y-123798536D01*
X135102094Y-123592674D01*
X135169853Y-123369300D01*
X135192733Y-123137000D01*
X135169853Y-122904700D01*
X135102094Y-122681326D01*
X134992058Y-122475464D01*
X134843975Y-122295025D01*
X134663536Y-122146942D01*
X134644936Y-122137000D01*
X134663536Y-122127058D01*
X134843975Y-121978975D01*
X134992058Y-121798536D01*
X135102094Y-121592674D01*
X135169853Y-121369300D01*
X135192733Y-121137000D01*
X135169853Y-120904700D01*
X135102094Y-120681326D01*
X134992058Y-120475464D01*
X134843975Y-120295025D01*
X134663536Y-120146942D01*
X134644936Y-120137000D01*
X134663536Y-120127058D01*
X134843975Y-119978975D01*
X134992058Y-119798536D01*
X135102094Y-119592674D01*
X135169853Y-119369300D01*
X135192733Y-119137000D01*
X135169853Y-118904700D01*
X135102094Y-118681326D01*
X134992058Y-118475464D01*
X134843975Y-118295025D01*
X134663536Y-118146942D01*
X134644936Y-118137000D01*
X134663536Y-118127058D01*
X134843975Y-117978975D01*
X134992058Y-117798536D01*
X135102094Y-117592674D01*
X135169853Y-117369300D01*
X135192733Y-117137000D01*
X135169853Y-116904700D01*
X135102094Y-116681326D01*
X134992058Y-116475464D01*
X134843975Y-116295025D01*
X134663536Y-116146942D01*
X134644936Y-116137000D01*
X134663536Y-116127058D01*
X134843975Y-115978975D01*
X134992058Y-115798536D01*
X135102094Y-115592674D01*
X135169853Y-115369300D01*
X135192733Y-115137000D01*
X135169853Y-114904700D01*
X135102094Y-114681326D01*
X134992058Y-114475464D01*
X134843975Y-114295025D01*
X134663536Y-114146942D01*
X134457674Y-114036906D01*
X134234300Y-113969147D01*
X134060207Y-113952000D01*
X132543793Y-113952000D01*
X132369700Y-113969147D01*
X132146326Y-114036906D01*
X131940464Y-114146942D01*
X131760025Y-114295025D01*
X131611942Y-114475464D01*
X131501906Y-114681326D01*
X131434147Y-114904700D01*
X131411267Y-115137000D01*
X131434147Y-115369300D01*
X131501906Y-115592674D01*
X131611942Y-115798536D01*
X131760025Y-115978975D01*
X131940464Y-116127058D01*
X131959064Y-116137000D01*
X131940464Y-116146942D01*
X131760025Y-116295025D01*
X131611942Y-116475464D01*
X131501906Y-116681326D01*
X131434147Y-116904700D01*
X131411267Y-117137000D01*
X131434147Y-117369300D01*
X131501906Y-117592674D01*
X131611942Y-117798536D01*
X131760025Y-117978975D01*
X131940464Y-118127058D01*
X131959064Y-118137000D01*
X131940464Y-118146942D01*
X131760025Y-118295025D01*
X131611942Y-118475464D01*
X131501906Y-118681326D01*
X131434147Y-118904700D01*
X131411267Y-119137000D01*
X131434147Y-119369300D01*
X131501906Y-119592674D01*
X131611942Y-119798536D01*
X131760025Y-119978975D01*
X131940464Y-120127058D01*
X131959064Y-120137000D01*
X131940464Y-120146942D01*
X131760025Y-120295025D01*
X131611942Y-120475464D01*
X131501906Y-120681326D01*
X131434147Y-120904700D01*
X131411267Y-121137000D01*
X131434147Y-121369300D01*
X131501906Y-121592674D01*
X131611942Y-121798536D01*
X131760025Y-121978975D01*
X131940464Y-122127058D01*
X131959064Y-122137000D01*
X131940464Y-122146942D01*
X131760025Y-122295025D01*
X131611942Y-122475464D01*
X131501906Y-122681326D01*
X131434147Y-122904700D01*
X131411267Y-123137000D01*
X131434147Y-123369300D01*
X131501906Y-123592674D01*
X131611942Y-123798536D01*
X131760025Y-123978975D01*
X131940464Y-124127058D01*
X131959064Y-124137000D01*
X131940464Y-124146942D01*
X131760025Y-124295025D01*
X131611942Y-124475464D01*
X131501906Y-124681326D01*
X131434147Y-124904700D01*
X131411267Y-125137000D01*
X131432477Y-125352346D01*
X131382643Y-125302512D01*
X131253122Y-125196217D01*
X131238571Y-125188439D01*
X130318496Y-124268364D01*
X130282949Y-124225051D01*
X130110123Y-124083216D01*
X129912947Y-123977824D01*
X129698999Y-123912923D01*
X129532252Y-123896500D01*
X129532251Y-123896500D01*
X129476500Y-123891009D01*
X129420749Y-123896500D01*
X115435000Y-123896500D01*
X115435000Y-114881132D01*
X116315513Y-115761646D01*
X116351051Y-115804949D01*
X116394354Y-115840487D01*
X116394356Y-115840489D01*
X116523877Y-115946784D01*
X116721053Y-116052176D01*
X116935001Y-116117077D01*
X117157500Y-116138991D01*
X117213252Y-116133500D01*
X119324249Y-116133500D01*
X119380000Y-116138991D01*
X119435751Y-116133500D01*
X119435752Y-116133500D01*
X119602499Y-116117077D01*
X119816447Y-116052176D01*
X120013623Y-115946784D01*
X120186449Y-115804949D01*
X120221996Y-115761635D01*
X120365135Y-115618496D01*
X120408449Y-115582949D01*
X120550284Y-115410123D01*
X120655676Y-115212947D01*
X120720577Y-114998999D01*
X120737000Y-114832252D01*
X120737000Y-114832242D01*
X120742490Y-114776501D01*
X120737000Y-114720759D01*
X120737000Y-113940918D01*
X120760026Y-113968975D01*
X120940465Y-114117058D01*
X121146327Y-114227094D01*
X121369701Y-114294853D01*
X121602000Y-114317733D01*
X121834300Y-114294853D01*
X122057674Y-114227094D01*
X122263536Y-114117058D01*
X122443975Y-113968975D01*
X122592058Y-113788536D01*
X122602000Y-113769935D01*
X122611943Y-113788536D01*
X122760026Y-113968975D01*
X122940465Y-114117058D01*
X123146327Y-114227094D01*
X123369701Y-114294853D01*
X123602000Y-114317733D01*
X123834300Y-114294853D01*
X124057674Y-114227094D01*
X124263536Y-114117058D01*
X124443975Y-113968975D01*
X124592058Y-113788536D01*
X124602000Y-113769935D01*
X124611943Y-113788536D01*
X124760026Y-113968975D01*
X124940465Y-114117058D01*
X125146327Y-114227094D01*
X125369701Y-114294853D01*
X125602000Y-114317733D01*
X125834300Y-114294853D01*
X126057674Y-114227094D01*
X126263536Y-114117058D01*
X126443975Y-113968975D01*
X126592058Y-113788536D01*
X126602000Y-113769935D01*
X126611943Y-113788536D01*
X126760026Y-113968975D01*
X126940465Y-114117058D01*
X127146327Y-114227094D01*
X127369701Y-114294853D01*
X127602000Y-114317733D01*
X127834300Y-114294853D01*
X128057674Y-114227094D01*
X128263536Y-114117058D01*
X128443975Y-113968975D01*
X128571731Y-113813305D01*
X128611943Y-113888536D01*
X128760026Y-114068975D01*
X128940465Y-114217058D01*
X129146327Y-114327094D01*
X129369701Y-114394853D01*
X129602000Y-114417733D01*
X129834300Y-114394853D01*
X130057674Y-114327094D01*
X130263536Y-114217058D01*
X130443975Y-114068975D01*
X130592058Y-113888536D01*
X130702094Y-113682674D01*
X130769853Y-113459300D01*
X130787000Y-113285207D01*
X130787000Y-111768793D01*
X130769853Y-111594700D01*
X130737000Y-111486397D01*
X130737000Y-110187401D01*
X130776405Y-110139386D01*
X130858472Y-109985850D01*
X130909008Y-109819254D01*
X130926072Y-109646000D01*
X130926072Y-108764861D01*
X131832189Y-108767346D01*
X131833748Y-108767500D01*
X131888176Y-108767500D01*
X131942139Y-108767648D01*
X131943685Y-108767500D01*
X137231249Y-108767500D01*
X137287000Y-108772991D01*
X137342751Y-108767500D01*
X137342752Y-108767500D01*
X137509499Y-108751077D01*
X137723447Y-108686176D01*
X137920623Y-108580784D01*
X137998224Y-108517098D01*
X138966000Y-108517098D01*
X138966000Y-108986902D01*
X139057654Y-109447679D01*
X139237440Y-109881721D01*
X139498450Y-110272349D01*
X139830651Y-110604550D01*
X140221279Y-110865560D01*
X140655321Y-111045346D01*
X141116098Y-111137000D01*
X141585902Y-111137000D01*
X142046679Y-111045346D01*
X142480721Y-110865560D01*
X142871349Y-110604550D01*
X143203550Y-110272349D01*
X143464560Y-109881721D01*
X143644346Y-109447679D01*
X143736000Y-108986902D01*
X143736000Y-108517098D01*
X143644346Y-108056321D01*
X143464560Y-107622279D01*
X143203550Y-107231651D01*
X142871349Y-106899450D01*
X142480721Y-106638440D01*
X142046679Y-106458654D01*
X141585902Y-106367000D01*
X141116098Y-106367000D01*
X140655321Y-106458654D01*
X140221279Y-106638440D01*
X139830651Y-106899450D01*
X139498450Y-107231651D01*
X139237440Y-107622279D01*
X139057654Y-108056321D01*
X138966000Y-108517098D01*
X137998224Y-108517098D01*
X138093449Y-108438949D01*
X138128996Y-108395635D01*
X140304141Y-106220491D01*
X140347449Y-106184949D01*
X140489284Y-106012123D01*
X140594676Y-105814946D01*
X140659577Y-105600998D01*
X140676000Y-105434251D01*
X140676000Y-105434243D01*
X140681490Y-105378501D01*
X140676000Y-105322759D01*
X140676000Y-104952751D01*
X140681491Y-104897001D01*
X140676000Y-104841248D01*
X140676000Y-104535072D01*
X140791000Y-104535072D01*
X140915482Y-104522812D01*
X141035180Y-104486502D01*
X141145494Y-104427537D01*
X141242185Y-104348185D01*
X141321537Y-104251494D01*
X141380502Y-104141180D01*
X141416812Y-104021482D01*
X141429072Y-103897000D01*
X141429072Y-102097000D01*
X141416812Y-101972518D01*
X141380502Y-101852820D01*
X141321537Y-101742506D01*
X141242185Y-101645815D01*
X141176000Y-101591499D01*
X141176000Y-98346322D01*
X141183911Y-98266000D01*
X141152343Y-97945483D01*
X141142072Y-97911624D01*
X141142072Y-97243500D01*
X143115661Y-97243500D01*
X143173595Y-97351886D01*
X143284038Y-97486462D01*
X143418614Y-97596905D01*
X143572150Y-97678972D01*
X143738746Y-97729508D01*
X143912000Y-97746572D01*
X145012000Y-97746572D01*
X145185254Y-97729508D01*
X145351850Y-97678972D01*
X145505386Y-97596905D01*
X145639962Y-97486462D01*
X145750405Y-97351886D01*
X145832472Y-97198350D01*
X145883008Y-97031754D01*
X145900072Y-96858500D01*
X145900072Y-96386473D01*
X145979852Y-96237215D01*
X146073343Y-95929016D01*
X146104911Y-95608500D01*
X146073343Y-95287984D01*
X145979852Y-94979785D01*
X145900072Y-94830527D01*
X145900072Y-94358500D01*
X145883008Y-94185246D01*
X145832472Y-94018650D01*
X145750405Y-93865114D01*
X145639962Y-93730538D01*
X145505386Y-93620095D01*
X145351850Y-93538028D01*
X145185254Y-93487492D01*
X145012000Y-93470428D01*
X143912000Y-93470428D01*
X143738746Y-93487492D01*
X143572150Y-93538028D01*
X143418614Y-93620095D01*
X143284038Y-93730538D01*
X143173595Y-93865114D01*
X143115661Y-93973500D01*
X141137197Y-93973500D01*
X141129812Y-93898518D01*
X141093502Y-93778820D01*
X141034537Y-93668506D01*
X140955185Y-93571815D01*
X140858494Y-93492463D01*
X140748180Y-93433498D01*
X140628482Y-93397188D01*
X140504000Y-93384928D01*
X139239000Y-93384928D01*
X139239000Y-90842678D01*
X139215343Y-90602484D01*
X139121852Y-90294285D01*
X138970031Y-90010248D01*
X138842072Y-89854329D01*
X138842072Y-89823000D01*
X138829812Y-89698518D01*
X138793502Y-89578820D01*
X138734537Y-89468506D01*
X138655185Y-89371815D01*
X138558494Y-89292463D01*
X138448180Y-89233498D01*
X138328482Y-89197188D01*
X138204000Y-89184928D01*
X137004000Y-89184928D01*
X136945000Y-89190739D01*
X136945000Y-87617644D01*
X136999502Y-87515680D01*
X137035812Y-87395982D01*
X137048072Y-87271500D01*
X137048072Y-86071500D01*
X137043640Y-86026500D01*
X137771928Y-86026500D01*
X137771928Y-87291500D01*
X137784188Y-87415982D01*
X137820498Y-87535680D01*
X137879463Y-87645994D01*
X137958815Y-87742685D01*
X138055506Y-87822037D01*
X138165820Y-87881002D01*
X138285518Y-87917312D01*
X138410000Y-87929572D01*
X144810000Y-87929572D01*
X144934482Y-87917312D01*
X145054180Y-87881002D01*
X145164494Y-87822037D01*
X145261185Y-87742685D01*
X145340537Y-87645994D01*
X145399502Y-87535680D01*
X145435812Y-87415982D01*
X145448072Y-87291500D01*
X145448072Y-84080500D01*
X147370661Y-84080500D01*
X147428595Y-84188886D01*
G37*
X147428595Y-84188886D02*
X147539038Y-84323462D01*
X147673614Y-84433905D01*
X147827150Y-84515972D01*
X147993746Y-84566508D01*
X148167000Y-84583572D01*
X149249940Y-84583572D01*
X150122001Y-85455633D01*
X150122000Y-98018368D01*
X145731360Y-102409009D01*
X145688052Y-102444551D01*
X145546217Y-102617377D01*
X145495909Y-102711498D01*
X145440824Y-102814554D01*
X145375923Y-103028502D01*
X145354009Y-103251000D01*
X145359501Y-103306762D01*
X145359500Y-130551368D01*
X144454115Y-131456754D01*
X144435833Y-131422551D01*
X144281502Y-131234498D01*
X144093449Y-131080167D01*
X143878901Y-130965489D01*
X143646102Y-130894870D01*
X143464665Y-130877000D01*
X142793335Y-130877000D01*
X142611898Y-130894870D01*
X142379099Y-130965489D01*
X142357563Y-130977000D01*
X141247741Y-130977000D01*
X141191999Y-130971510D01*
X141136257Y-130977000D01*
X141136248Y-130977000D01*
X140969501Y-130993423D01*
X140755553Y-131058324D01*
X140704151Y-131085799D01*
X140775284Y-130999123D01*
X140880676Y-130801947D01*
X140945577Y-130587999D01*
X140962000Y-130421252D01*
X140967491Y-130365500D01*
X140962000Y-130309748D01*
X140962000Y-129406131D01*
X142114140Y-128253991D01*
X142157449Y-128218449D01*
X142299284Y-128045623D01*
X142404676Y-127848447D01*
X142469577Y-127634499D01*
X142486000Y-127467752D01*
X142486000Y-127467743D01*
X142491490Y-127412001D01*
X142486000Y-127356259D01*
X142486000Y-126578888D01*
X142677345Y-126345734D01*
X142824755Y-126069948D01*
X142915530Y-125770703D01*
X142938500Y-125537485D01*
X142938500Y-125286514D01*
X142915530Y-125053296D01*
X142824755Y-124754051D01*
X142677345Y-124478265D01*
X142478963Y-124236537D01*
X142237234Y-124038155D01*
X141961448Y-123890745D01*
X141662203Y-123799970D01*
X141351000Y-123769319D01*
X141039796Y-123799970D01*
X140740551Y-123890745D01*
X140464765Y-124038155D01*
X140338905Y-124141446D01*
X140294037Y-124057506D01*
X140214685Y-123960815D01*
X140117994Y-123881463D01*
X140007680Y-123822498D01*
X139887982Y-123786188D01*
X139763500Y-123773928D01*
X137858500Y-123773928D01*
X137734018Y-123786188D01*
X137614320Y-123822498D01*
X137504006Y-123881463D01*
X137407315Y-123960815D01*
X137327963Y-124057506D01*
X137268998Y-124167820D01*
X137232688Y-124287518D01*
X137220428Y-124412000D01*
X137220428Y-126412000D01*
X137232688Y-126536482D01*
X137268998Y-126656180D01*
X137327963Y-126766494D01*
X137407315Y-126863185D01*
X137504006Y-126942537D01*
X137614320Y-127001502D01*
X137734018Y-127037812D01*
X137858500Y-127050072D01*
X139763500Y-127050072D01*
X139887982Y-127037812D01*
X140007680Y-127001502D01*
X140117994Y-126942537D01*
X140214685Y-126863185D01*
X140216001Y-126861582D01*
X140216001Y-126941867D01*
X139063865Y-128094004D01*
X139020551Y-128129551D01*
X138878716Y-128302377D01*
X138773325Y-128499553D01*
X138773324Y-128499554D01*
X138708423Y-128713502D01*
X138686509Y-128936000D01*
X138692000Y-128991751D01*
X138692000Y-129895368D01*
X138230771Y-130356597D01*
X138227502Y-130345820D01*
X138168537Y-130235506D01*
X138089185Y-130138815D01*
X137992494Y-130059463D01*
X137882180Y-130000498D01*
X137766211Y-129965319D01*
X137756577Y-129867501D01*
X137691676Y-129653553D01*
X137586284Y-129456377D01*
X137517403Y-129372446D01*
X137444449Y-129283551D01*
X137401141Y-129248009D01*
X134516996Y-126363865D01*
X134481449Y-126320551D01*
X134400784Y-126254351D01*
X134457674Y-126237094D01*
X134663536Y-126127058D01*
X134843975Y-125978975D01*
X134992058Y-125798536D01*
X135102094Y-125592674D01*
X135169853Y-125369300D01*
X135192733Y-125137000D01*
X135169853Y-124904700D01*
X135102094Y-124681326D01*
X134992058Y-124475464D01*
X134843975Y-124295025D01*
X134663536Y-124146942D01*
X134644936Y-124137000D01*
X134663536Y-124127058D01*
X134843975Y-123978975D01*
X134992058Y-123798536D01*
X135102094Y-123592674D01*
X135169853Y-123369300D01*
X135192733Y-123137000D01*
X135169853Y-122904700D01*
X135102094Y-122681326D01*
X134992058Y-122475464D01*
X134843975Y-122295025D01*
X134663536Y-122146942D01*
X134644936Y-122137000D01*
X134663536Y-122127058D01*
X134843975Y-121978975D01*
X134992058Y-121798536D01*
X135102094Y-121592674D01*
X135169853Y-121369300D01*
X135192733Y-121137000D01*
X135169853Y-120904700D01*
X135102094Y-120681326D01*
X134992058Y-120475464D01*
X134843975Y-120295025D01*
X134663536Y-120146942D01*
X134644936Y-120137000D01*
X134663536Y-120127058D01*
X134843975Y-119978975D01*
X134992058Y-119798536D01*
X135102094Y-119592674D01*
X135169853Y-119369300D01*
X135192733Y-119137000D01*
X135169853Y-118904700D01*
X135102094Y-118681326D01*
X134992058Y-118475464D01*
X134843975Y-118295025D01*
X134663536Y-118146942D01*
X134644936Y-118137000D01*
X134663536Y-118127058D01*
X134843975Y-117978975D01*
X134992058Y-117798536D01*
X135102094Y-117592674D01*
X135169853Y-117369300D01*
X135192733Y-117137000D01*
X135169853Y-116904700D01*
X135102094Y-116681326D01*
X134992058Y-116475464D01*
X134843975Y-116295025D01*
X134663536Y-116146942D01*
X134644936Y-116137000D01*
X134663536Y-116127058D01*
X134843975Y-115978975D01*
X134992058Y-115798536D01*
X135102094Y-115592674D01*
X135169853Y-115369300D01*
X135192733Y-115137000D01*
X135169853Y-114904700D01*
X135102094Y-114681326D01*
X134992058Y-114475464D01*
X134843975Y-114295025D01*
X134663536Y-114146942D01*
X134457674Y-114036906D01*
X134234300Y-113969147D01*
X134060207Y-113952000D01*
X132543793Y-113952000D01*
X132369700Y-113969147D01*
X132146326Y-114036906D01*
X131940464Y-114146942D01*
X131760025Y-114295025D01*
X131611942Y-114475464D01*
X131501906Y-114681326D01*
X131434147Y-114904700D01*
X131411267Y-115137000D01*
X131434147Y-115369300D01*
X131501906Y-115592674D01*
X131611942Y-115798536D01*
X131760025Y-115978975D01*
X131940464Y-116127058D01*
X131959064Y-116137000D01*
X131940464Y-116146942D01*
X131760025Y-116295025D01*
X131611942Y-116475464D01*
X131501906Y-116681326D01*
X131434147Y-116904700D01*
X131411267Y-117137000D01*
X131434147Y-117369300D01*
X131501906Y-117592674D01*
X131611942Y-117798536D01*
X131760025Y-117978975D01*
X131940464Y-118127058D01*
X131959064Y-118137000D01*
X131940464Y-118146942D01*
X131760025Y-118295025D01*
X131611942Y-118475464D01*
X131501906Y-118681326D01*
X131434147Y-118904700D01*
X131411267Y-119137000D01*
X131434147Y-119369300D01*
X131501906Y-119592674D01*
X131611942Y-119798536D01*
X131760025Y-119978975D01*
X131940464Y-120127058D01*
X131959064Y-120137000D01*
X131940464Y-120146942D01*
X131760025Y-120295025D01*
X131611942Y-120475464D01*
X131501906Y-120681326D01*
X131434147Y-120904700D01*
X131411267Y-121137000D01*
X131434147Y-121369300D01*
X131501906Y-121592674D01*
X131611942Y-121798536D01*
X131760025Y-121978975D01*
X131940464Y-122127058D01*
X131959064Y-122137000D01*
X131940464Y-122146942D01*
X131760025Y-122295025D01*
X131611942Y-122475464D01*
X131501906Y-122681326D01*
X131434147Y-122904700D01*
X131411267Y-123137000D01*
X131434147Y-123369300D01*
X131501906Y-123592674D01*
X131611942Y-123798536D01*
X131760025Y-123978975D01*
X131940464Y-124127058D01*
X131959064Y-124137000D01*
X131940464Y-124146942D01*
X131760025Y-124295025D01*
X131611942Y-124475464D01*
X131501906Y-124681326D01*
X131434147Y-124904700D01*
X131411267Y-125137000D01*
X131432477Y-125352346D01*
X131382643Y-125302512D01*
X131253122Y-125196217D01*
X131238571Y-125188439D01*
X130318496Y-124268364D01*
X130282949Y-124225051D01*
X130110123Y-124083216D01*
X129912947Y-123977824D01*
X129698999Y-123912923D01*
X129532252Y-123896500D01*
X129532251Y-123896500D01*
X129476500Y-123891009D01*
X129420749Y-123896500D01*
X115435000Y-123896500D01*
X115435000Y-114881132D01*
X116315513Y-115761646D01*
X116351051Y-115804949D01*
X116394354Y-115840487D01*
X116394356Y-115840489D01*
X116523877Y-115946784D01*
X116721053Y-116052176D01*
X116935001Y-116117077D01*
X117157500Y-116138991D01*
X117213252Y-116133500D01*
X119324249Y-116133500D01*
X119380000Y-116138991D01*
X119435751Y-116133500D01*
X119435752Y-116133500D01*
X119602499Y-116117077D01*
X119816447Y-116052176D01*
X120013623Y-115946784D01*
X120186449Y-115804949D01*
X120221996Y-115761635D01*
X120365135Y-115618496D01*
X120408449Y-115582949D01*
X120550284Y-115410123D01*
X120655676Y-115212947D01*
X120720577Y-114998999D01*
X120737000Y-114832252D01*
X120737000Y-114832242D01*
X120742490Y-114776501D01*
X120737000Y-114720759D01*
X120737000Y-113940918D01*
X120760026Y-113968975D01*
X120940465Y-114117058D01*
X121146327Y-114227094D01*
X121369701Y-114294853D01*
X121602000Y-114317733D01*
X121834300Y-114294853D01*
X122057674Y-114227094D01*
X122263536Y-114117058D01*
X122443975Y-113968975D01*
X122592058Y-113788536D01*
X122602000Y-113769935D01*
X122611943Y-113788536D01*
X122760026Y-113968975D01*
X122940465Y-114117058D01*
X123146327Y-114227094D01*
X123369701Y-114294853D01*
X123602000Y-114317733D01*
X123834300Y-114294853D01*
X124057674Y-114227094D01*
X124263536Y-114117058D01*
X124443975Y-113968975D01*
X124592058Y-113788536D01*
X124602000Y-113769935D01*
X124611943Y-113788536D01*
X124760026Y-113968975D01*
X124940465Y-114117058D01*
X125146327Y-114227094D01*
X125369701Y-114294853D01*
X125602000Y-114317733D01*
X125834300Y-114294853D01*
X126057674Y-114227094D01*
X126263536Y-114117058D01*
X126443975Y-113968975D01*
X126592058Y-113788536D01*
X126602000Y-113769935D01*
X126611943Y-113788536D01*
X126760026Y-113968975D01*
X126940465Y-114117058D01*
X127146327Y-114227094D01*
X127369701Y-114294853D01*
X127602000Y-114317733D01*
X127834300Y-114294853D01*
X128057674Y-114227094D01*
X128263536Y-114117058D01*
X128443975Y-113968975D01*
X128571731Y-113813305D01*
X128611943Y-113888536D01*
X128760026Y-114068975D01*
X128940465Y-114217058D01*
X129146327Y-114327094D01*
X129369701Y-114394853D01*
X129602000Y-114417733D01*
X129834300Y-114394853D01*
X130057674Y-114327094D01*
X130263536Y-114217058D01*
X130443975Y-114068975D01*
X130592058Y-113888536D01*
X130702094Y-113682674D01*
X130769853Y-113459300D01*
X130787000Y-113285207D01*
X130787000Y-111768793D01*
X130769853Y-111594700D01*
X130737000Y-111486397D01*
X130737000Y-110187401D01*
X130776405Y-110139386D01*
X130858472Y-109985850D01*
X130909008Y-109819254D01*
X130926072Y-109646000D01*
X130926072Y-108764861D01*
X131832189Y-108767346D01*
X131833748Y-108767500D01*
X131888176Y-108767500D01*
X131942139Y-108767648D01*
X131943685Y-108767500D01*
X137231249Y-108767500D01*
X137287000Y-108772991D01*
X137342751Y-108767500D01*
X137342752Y-108767500D01*
X137509499Y-108751077D01*
X137723447Y-108686176D01*
X137920623Y-108580784D01*
X137998224Y-108517098D01*
X138966000Y-108517098D01*
X138966000Y-108986902D01*
X139057654Y-109447679D01*
X139237440Y-109881721D01*
X139498450Y-110272349D01*
X139830651Y-110604550D01*
X140221279Y-110865560D01*
X140655321Y-111045346D01*
X141116098Y-111137000D01*
X141585902Y-111137000D01*
X142046679Y-111045346D01*
X142480721Y-110865560D01*
X142871349Y-110604550D01*
X143203550Y-110272349D01*
X143464560Y-109881721D01*
X143644346Y-109447679D01*
X143736000Y-108986902D01*
X143736000Y-108517098D01*
X143644346Y-108056321D01*
X143464560Y-107622279D01*
X143203550Y-107231651D01*
X142871349Y-106899450D01*
X142480721Y-106638440D01*
X142046679Y-106458654D01*
X141585902Y-106367000D01*
X141116098Y-106367000D01*
X140655321Y-106458654D01*
X140221279Y-106638440D01*
X139830651Y-106899450D01*
X139498450Y-107231651D01*
X139237440Y-107622279D01*
X139057654Y-108056321D01*
X138966000Y-108517098D01*
X137998224Y-108517098D01*
X138093449Y-108438949D01*
X138128996Y-108395635D01*
X140304141Y-106220491D01*
X140347449Y-106184949D01*
X140489284Y-106012123D01*
X140594676Y-105814946D01*
X140659577Y-105600998D01*
X140676000Y-105434251D01*
X140676000Y-105434243D01*
X140681490Y-105378501D01*
X140676000Y-105322759D01*
X140676000Y-104952751D01*
X140681491Y-104897001D01*
X140676000Y-104841248D01*
X140676000Y-104535072D01*
X140791000Y-104535072D01*
X140915482Y-104522812D01*
X141035180Y-104486502D01*
X141145494Y-104427537D01*
X141242185Y-104348185D01*
X141321537Y-104251494D01*
X141380502Y-104141180D01*
X141416812Y-104021482D01*
X141429072Y-103897000D01*
X141429072Y-102097000D01*
X141416812Y-101972518D01*
X141380502Y-101852820D01*
X141321537Y-101742506D01*
X141242185Y-101645815D01*
X141176000Y-101591499D01*
X141176000Y-98346322D01*
X141183911Y-98266000D01*
X141152343Y-97945483D01*
X141142072Y-97911624D01*
X141142072Y-97243500D01*
X143115661Y-97243500D01*
X143173595Y-97351886D01*
X143284038Y-97486462D01*
X143418614Y-97596905D01*
X143572150Y-97678972D01*
X143738746Y-97729508D01*
X143912000Y-97746572D01*
X145012000Y-97746572D01*
X145185254Y-97729508D01*
X145351850Y-97678972D01*
X145505386Y-97596905D01*
X145639962Y-97486462D01*
X145750405Y-97351886D01*
X145832472Y-97198350D01*
X145883008Y-97031754D01*
X145900072Y-96858500D01*
X145900072Y-96386473D01*
X145979852Y-96237215D01*
X146073343Y-95929016D01*
X146104911Y-95608500D01*
X146073343Y-95287984D01*
X145979852Y-94979785D01*
X145900072Y-94830527D01*
X145900072Y-94358500D01*
X145883008Y-94185246D01*
X145832472Y-94018650D01*
X145750405Y-93865114D01*
X145639962Y-93730538D01*
X145505386Y-93620095D01*
X145351850Y-93538028D01*
X145185254Y-93487492D01*
X145012000Y-93470428D01*
X143912000Y-93470428D01*
X143738746Y-93487492D01*
X143572150Y-93538028D01*
X143418614Y-93620095D01*
X143284038Y-93730538D01*
X143173595Y-93865114D01*
X143115661Y-93973500D01*
X141137197Y-93973500D01*
X141129812Y-93898518D01*
X141093502Y-93778820D01*
X141034537Y-93668506D01*
X140955185Y-93571815D01*
X140858494Y-93492463D01*
X140748180Y-93433498D01*
X140628482Y-93397188D01*
X140504000Y-93384928D01*
X139239000Y-93384928D01*
X139239000Y-90842678D01*
X139215343Y-90602484D01*
X139121852Y-90294285D01*
X138970031Y-90010248D01*
X138842072Y-89854329D01*
X138842072Y-89823000D01*
X138829812Y-89698518D01*
X138793502Y-89578820D01*
X138734537Y-89468506D01*
X138655185Y-89371815D01*
X138558494Y-89292463D01*
X138448180Y-89233498D01*
X138328482Y-89197188D01*
X138204000Y-89184928D01*
X137004000Y-89184928D01*
X136945000Y-89190739D01*
X136945000Y-87617644D01*
X136999502Y-87515680D01*
X137035812Y-87395982D01*
X137048072Y-87271500D01*
X137048072Y-86071500D01*
X137043640Y-86026500D01*
X137771928Y-86026500D01*
X137771928Y-87291500D01*
X137784188Y-87415982D01*
X137820498Y-87535680D01*
X137879463Y-87645994D01*
X137958815Y-87742685D01*
X138055506Y-87822037D01*
X138165820Y-87881002D01*
X138285518Y-87917312D01*
X138410000Y-87929572D01*
X144810000Y-87929572D01*
X144934482Y-87917312D01*
X145054180Y-87881002D01*
X145164494Y-87822037D01*
X145261185Y-87742685D01*
X145340537Y-87645994D01*
X145399502Y-87535680D01*
X145435812Y-87415982D01*
X145448072Y-87291500D01*
X145448072Y-84080500D01*
X147370661Y-84080500D01*
X147428595Y-84188886D01*
G36*
X152508286Y-97935714D02*
G01*
X152570687Y-97986925D01*
X157178501Y-102594740D01*
X157178500Y-126563653D01*
X157111851Y-126528028D01*
X156945255Y-126477492D01*
X156772001Y-126460428D01*
X155521999Y-126460428D01*
X155348745Y-126477492D01*
X155182149Y-126528028D01*
X155115786Y-126563500D01*
X154743132Y-126563500D01*
X151245110Y-123065478D01*
X151246680Y-123065002D01*
X151356994Y-123006037D01*
X151453685Y-122926685D01*
X151533037Y-122829994D01*
X151577905Y-122746053D01*
X151703766Y-122849345D01*
X151979552Y-122996755D01*
X152278797Y-123087530D01*
X152590000Y-123118181D01*
X152901204Y-123087530D01*
X153200449Y-122996755D01*
X153476235Y-122849345D01*
X153717963Y-122650963D01*
X153916345Y-122409234D01*
X154063755Y-122133448D01*
X154154530Y-121834203D01*
X154177500Y-121600985D01*
X154177500Y-121350014D01*
X154154530Y-121116796D01*
X154063755Y-120817551D01*
X153916345Y-120541765D01*
X153725000Y-120308612D01*
X153725000Y-119531252D01*
X153730491Y-119475500D01*
X153708577Y-119253001D01*
X153643676Y-119039053D01*
X153538284Y-118841877D01*
X153431989Y-118712356D01*
X153431987Y-118712354D01*
X153396449Y-118669051D01*
X153353145Y-118633512D01*
X152637995Y-117918364D01*
X152602449Y-117875051D01*
X152429623Y-117733216D01*
X152232447Y-117627824D01*
X152018499Y-117562923D01*
X151851752Y-117546500D01*
X151851751Y-117546500D01*
X151796000Y-117541009D01*
X151740249Y-117546500D01*
X149280751Y-117546500D01*
X149225000Y-117541009D01*
X149169248Y-117546500D01*
X149002501Y-117562923D01*
X148788553Y-117627824D01*
X148591377Y-117733216D01*
X148418551Y-117875051D01*
X148383008Y-117918360D01*
X147629500Y-118671869D01*
X147629500Y-104580598D01*
X150205000Y-104580598D01*
X150205000Y-105050402D01*
X150296654Y-105511179D01*
X150476440Y-105945221D01*
X150737450Y-106335849D01*
X151069651Y-106668050D01*
X151460279Y-106929060D01*
X151894321Y-107108846D01*
X152355098Y-107200500D01*
X152824902Y-107200500D01*
X153285679Y-107108846D01*
X153719721Y-106929060D01*
X154110349Y-106668050D01*
X154442550Y-106335849D01*
X154703560Y-105945221D01*
X154883346Y-105511179D01*
X154975000Y-105050402D01*
X154975000Y-104580598D01*
X154883346Y-104119821D01*
X154703560Y-103685779D01*
X154442550Y-103295151D01*
X154110349Y-102962950D01*
X153719721Y-102701940D01*
X153285679Y-102522154D01*
X152824902Y-102430500D01*
X152355098Y-102430500D01*
X151894321Y-102522154D01*
X151460279Y-102701940D01*
X151069651Y-102962950D01*
X150737450Y-103295151D01*
X150476440Y-103685779D01*
X150296654Y-104119821D01*
X150205000Y-104580598D01*
X147629500Y-104580598D01*
X147629500Y-103721131D01*
X152020141Y-99330491D01*
X152063449Y-99294949D01*
X152205284Y-99122123D01*
X152310676Y-98924947D01*
X152375577Y-98710999D01*
X152392000Y-98544252D01*
X152392000Y-98544251D01*
X152397491Y-98488501D01*
X152392000Y-98432749D01*
X152392000Y-97794018D01*
X152508286Y-97935714D01*
G37*
X152508286Y-97935714D02*
X152570687Y-97986925D01*
X157178501Y-102594740D01*
X157178500Y-126563653D01*
X157111851Y-126528028D01*
X156945255Y-126477492D01*
X156772001Y-126460428D01*
X155521999Y-126460428D01*
X155348745Y-126477492D01*
X155182149Y-126528028D01*
X155115786Y-126563500D01*
X154743132Y-126563500D01*
X151245110Y-123065478D01*
X151246680Y-123065002D01*
X151356994Y-123006037D01*
X151453685Y-122926685D01*
X151533037Y-122829994D01*
X151577905Y-122746053D01*
X151703766Y-122849345D01*
X151979552Y-122996755D01*
X152278797Y-123087530D01*
X152590000Y-123118181D01*
X152901204Y-123087530D01*
X153200449Y-122996755D01*
X153476235Y-122849345D01*
X153717963Y-122650963D01*
X153916345Y-122409234D01*
X154063755Y-122133448D01*
X154154530Y-121834203D01*
X154177500Y-121600985D01*
X154177500Y-121350014D01*
X154154530Y-121116796D01*
X154063755Y-120817551D01*
X153916345Y-120541765D01*
X153725000Y-120308612D01*
X153725000Y-119531252D01*
X153730491Y-119475500D01*
X153708577Y-119253001D01*
X153643676Y-119039053D01*
X153538284Y-118841877D01*
X153431989Y-118712356D01*
X153431987Y-118712354D01*
X153396449Y-118669051D01*
X153353145Y-118633512D01*
X152637995Y-117918364D01*
X152602449Y-117875051D01*
X152429623Y-117733216D01*
X152232447Y-117627824D01*
X152018499Y-117562923D01*
X151851752Y-117546500D01*
X151851751Y-117546500D01*
X151796000Y-117541009D01*
X151740249Y-117546500D01*
X149280751Y-117546500D01*
X149225000Y-117541009D01*
X149169248Y-117546500D01*
X149002501Y-117562923D01*
X148788553Y-117627824D01*
X148591377Y-117733216D01*
X148418551Y-117875051D01*
X148383008Y-117918360D01*
X147629500Y-118671869D01*
X147629500Y-104580598D01*
X150205000Y-104580598D01*
X150205000Y-105050402D01*
X150296654Y-105511179D01*
X150476440Y-105945221D01*
X150737450Y-106335849D01*
X151069651Y-106668050D01*
X151460279Y-106929060D01*
X151894321Y-107108846D01*
X152355098Y-107200500D01*
X152824902Y-107200500D01*
X153285679Y-107108846D01*
X153719721Y-106929060D01*
X154110349Y-106668050D01*
X154442550Y-106335849D01*
X154703560Y-105945221D01*
X154883346Y-105511179D01*
X154975000Y-105050402D01*
X154975000Y-104580598D01*
X154883346Y-104119821D01*
X154703560Y-103685779D01*
X154442550Y-103295151D01*
X154110349Y-102962950D01*
X153719721Y-102701940D01*
X153285679Y-102522154D01*
X152824902Y-102430500D01*
X152355098Y-102430500D01*
X151894321Y-102522154D01*
X151460279Y-102701940D01*
X151069651Y-102962950D01*
X150737450Y-103295151D01*
X150476440Y-103685779D01*
X150296654Y-104119821D01*
X150205000Y-104580598D01*
X147629500Y-104580598D01*
X147629500Y-103721131D01*
X152020141Y-99330491D01*
X152063449Y-99294949D01*
X152205284Y-99122123D01*
X152310676Y-98924947D01*
X152375577Y-98710999D01*
X152392000Y-98544252D01*
X152392000Y-98544251D01*
X152397491Y-98488501D01*
X152392000Y-98432749D01*
X152392000Y-97794018D01*
X152508286Y-97935714D01*
G36*
X134579518Y-101048812D02*
G01*
X134704000Y-101061072D01*
X137906001Y-101061072D01*
X137906001Y-101591498D01*
X137839815Y-101645815D01*
X137760463Y-101742506D01*
X137701498Y-101852820D01*
X137665188Y-101972518D01*
X137652928Y-102097000D01*
X137652928Y-103897000D01*
X137665188Y-104021482D01*
X137701498Y-104141180D01*
X137760463Y-104251494D01*
X137839815Y-104348185D01*
X137936506Y-104427537D01*
X138046820Y-104486502D01*
X138166518Y-104522812D01*
X138291000Y-104535072D01*
X138406000Y-104535072D01*
X138406000Y-104795482D01*
X138395509Y-104902000D01*
X138397021Y-104917348D01*
X136816869Y-106497500D01*
X131890755Y-106497500D01*
X128513072Y-106488236D01*
X128513072Y-105746000D01*
X128496008Y-105572746D01*
X128445472Y-105406150D01*
X128363405Y-105252614D01*
X128252962Y-105118038D01*
X128118386Y-105007595D01*
X127964850Y-104925528D01*
X127798254Y-104874992D01*
X127625000Y-104857928D01*
X126597710Y-104857928D01*
X126614784Y-104837123D01*
X126720176Y-104639947D01*
X126785077Y-104425999D01*
X126801500Y-104259252D01*
X126801500Y-104259251D01*
X126806991Y-104203500D01*
X126801500Y-104147748D01*
X126801500Y-102735252D01*
X126806991Y-102679500D01*
X126800873Y-102617377D01*
X126785077Y-102457001D01*
X126720176Y-102243053D01*
X126638491Y-102090229D01*
X127015578Y-102467317D01*
X127066785Y-102529713D01*
X127315747Y-102734030D01*
X127599784Y-102885851D01*
X127907983Y-102979342D01*
X128148177Y-103002999D01*
X128148179Y-103002999D01*
X128228498Y-103010910D01*
X128308818Y-103002999D01*
X128766320Y-103002999D01*
X128729832Y-103091088D01*
X128667000Y-103406967D01*
X128667000Y-103729033D01*
X128729832Y-104044912D01*
X128853082Y-104342463D01*
X129032013Y-104610252D01*
X129259748Y-104837987D01*
X129527537Y-105016918D01*
X129825088Y-105140168D01*
X130140967Y-105203000D01*
X130463033Y-105203000D01*
X130778912Y-105140168D01*
X131076463Y-105016918D01*
X131344252Y-104837987D01*
X131571987Y-104610252D01*
X131750918Y-104342463D01*
X131825513Y-104162375D01*
X131993248Y-104300031D01*
X132249048Y-104436759D01*
X132277285Y-104451852D01*
X132585483Y-104545343D01*
X132906000Y-104576911D01*
X132986322Y-104569000D01*
X135090791Y-104569000D01*
X135220484Y-104608342D01*
X135540999Y-104639911D01*
X135861516Y-104608342D01*
X136103054Y-104535072D01*
X136791000Y-104535072D01*
X136915482Y-104522812D01*
X137035180Y-104486502D01*
X137145494Y-104427537D01*
X137242185Y-104348185D01*
X137321537Y-104251494D01*
X137380502Y-104141180D01*
X137416812Y-104021482D01*
X137429072Y-103897000D01*
X137429072Y-102097000D01*
X137416812Y-101972518D01*
X137380502Y-101852820D01*
X137321537Y-101742506D01*
X137242185Y-101645815D01*
X137145494Y-101566463D01*
X137035180Y-101507498D01*
X136915482Y-101471188D01*
X136791000Y-101458928D01*
X136186751Y-101458928D01*
X136106715Y-101416148D01*
X135798516Y-101322657D01*
X135558322Y-101299000D01*
X135558319Y-101299000D01*
X135478000Y-101291089D01*
X135397681Y-101299000D01*
X134541000Y-101299000D01*
X134541000Y-101037128D01*
X134579518Y-101048812D01*
G37*
X134579518Y-101048812D02*
X134704000Y-101061072D01*
X137906001Y-101061072D01*
X137906001Y-101591498D01*
X137839815Y-101645815D01*
X137760463Y-101742506D01*
X137701498Y-101852820D01*
X137665188Y-101972518D01*
X137652928Y-102097000D01*
X137652928Y-103897000D01*
X137665188Y-104021482D01*
X137701498Y-104141180D01*
X137760463Y-104251494D01*
X137839815Y-104348185D01*
X137936506Y-104427537D01*
X138046820Y-104486502D01*
X138166518Y-104522812D01*
X138291000Y-104535072D01*
X138406000Y-104535072D01*
X138406000Y-104795482D01*
X138395509Y-104902000D01*
X138397021Y-104917348D01*
X136816869Y-106497500D01*
X131890755Y-106497500D01*
X128513072Y-106488236D01*
X128513072Y-105746000D01*
X128496008Y-105572746D01*
X128445472Y-105406150D01*
X128363405Y-105252614D01*
X128252962Y-105118038D01*
X128118386Y-105007595D01*
X127964850Y-104925528D01*
X127798254Y-104874992D01*
X127625000Y-104857928D01*
X126597710Y-104857928D01*
X126614784Y-104837123D01*
X126720176Y-104639947D01*
X126785077Y-104425999D01*
X126801500Y-104259252D01*
X126801500Y-104259251D01*
X126806991Y-104203500D01*
X126801500Y-104147748D01*
X126801500Y-102735252D01*
X126806991Y-102679500D01*
X126800873Y-102617377D01*
X126785077Y-102457001D01*
X126720176Y-102243053D01*
X126638491Y-102090229D01*
X127015578Y-102467317D01*
X127066785Y-102529713D01*
X127315747Y-102734030D01*
X127599784Y-102885851D01*
X127907983Y-102979342D01*
X128148177Y-103002999D01*
X128148179Y-103002999D01*
X128228498Y-103010910D01*
X128308818Y-103002999D01*
X128766320Y-103002999D01*
X128729832Y-103091088D01*
X128667000Y-103406967D01*
X128667000Y-103729033D01*
X128729832Y-104044912D01*
X128853082Y-104342463D01*
X129032013Y-104610252D01*
X129259748Y-104837987D01*
X129527537Y-105016918D01*
X129825088Y-105140168D01*
X130140967Y-105203000D01*
X130463033Y-105203000D01*
X130778912Y-105140168D01*
X131076463Y-105016918D01*
X131344252Y-104837987D01*
X131571987Y-104610252D01*
X131750918Y-104342463D01*
X131825513Y-104162375D01*
X131993248Y-104300031D01*
X132249048Y-104436759D01*
X132277285Y-104451852D01*
X132585483Y-104545343D01*
X132906000Y-104576911D01*
X132986322Y-104569000D01*
X135090791Y-104569000D01*
X135220484Y-104608342D01*
X135540999Y-104639911D01*
X135861516Y-104608342D01*
X136103054Y-104535072D01*
X136791000Y-104535072D01*
X136915482Y-104522812D01*
X137035180Y-104486502D01*
X137145494Y-104427537D01*
X137242185Y-104348185D01*
X137321537Y-104251494D01*
X137380502Y-104141180D01*
X137416812Y-104021482D01*
X137429072Y-103897000D01*
X137429072Y-102097000D01*
X137416812Y-101972518D01*
X137380502Y-101852820D01*
X137321537Y-101742506D01*
X137242185Y-101645815D01*
X137145494Y-101566463D01*
X137035180Y-101507498D01*
X136915482Y-101471188D01*
X136791000Y-101458928D01*
X136186751Y-101458928D01*
X136106715Y-101416148D01*
X135798516Y-101322657D01*
X135558322Y-101299000D01*
X135558319Y-101299000D01*
X135478000Y-101291089D01*
X135397681Y-101299000D01*
X134541000Y-101299000D01*
X134541000Y-101037128D01*
X134579518Y-101048812D01*
G36*
X128804528Y-92861850D02*
G01*
X128886595Y-93015386D01*
X128997038Y-93149962D01*
X129131614Y-93260405D01*
X129285150Y-93342472D01*
X129451746Y-93393008D01*
X129625000Y-93410072D01*
X130725000Y-93410072D01*
X130898254Y-93393008D01*
X131064850Y-93342472D01*
X131218386Y-93260405D01*
X131275656Y-93213405D01*
X131273191Y-93238433D01*
X131263089Y-93341000D01*
X131271000Y-93421320D01*
X131271001Y-99731884D01*
X131259680Y-99732999D01*
X128905738Y-99732999D01*
X128698500Y-99525762D01*
X128698500Y-94441319D01*
X128706411Y-94360999D01*
X128694737Y-94242470D01*
X128674843Y-94040484D01*
X128581352Y-93732285D01*
X128429531Y-93448248D01*
X128225214Y-93199286D01*
X128162818Y-93148079D01*
X127841739Y-92827000D01*
X128793956Y-92827000D01*
X128804528Y-92861850D01*
G37*
X128804528Y-92861850D02*
X128886595Y-93015386D01*
X128997038Y-93149962D01*
X129131614Y-93260405D01*
X129285150Y-93342472D01*
X129451746Y-93393008D01*
X129625000Y-93410072D01*
X130725000Y-93410072D01*
X130898254Y-93393008D01*
X131064850Y-93342472D01*
X131218386Y-93260405D01*
X131275656Y-93213405D01*
X131273191Y-93238433D01*
X131263089Y-93341000D01*
X131271000Y-93421320D01*
X131271001Y-99731884D01*
X131259680Y-99732999D01*
X128905738Y-99732999D01*
X128698500Y-99525762D01*
X128698500Y-94441319D01*
X128706411Y-94360999D01*
X128694737Y-94242470D01*
X128674843Y-94040484D01*
X128581352Y-93732285D01*
X128429531Y-93448248D01*
X128225214Y-93199286D01*
X128162818Y-93148079D01*
X127841739Y-92827000D01*
X128793956Y-92827000D01*
X128804528Y-92861850D01*
G36*
X135239928Y-79259000D02*
G01*
X135252188Y-79383482D01*
X135288498Y-79503180D01*
X135347463Y-79613494D01*
X135426815Y-79710185D01*
X135523506Y-79789537D01*
X135633820Y-79848502D01*
X135753518Y-79884812D01*
X135878000Y-79897072D01*
X136565942Y-79897072D01*
X136807484Y-79970343D01*
X137047678Y-79994000D01*
X139800262Y-79994000D01*
X139975000Y-80168739D01*
X139975000Y-80853428D01*
X138410000Y-80853428D01*
X138285518Y-80865688D01*
X138165820Y-80901998D01*
X138055506Y-80960963D01*
X137958815Y-81040315D01*
X137879463Y-81137006D01*
X137820498Y-81247320D01*
X137784188Y-81367018D01*
X137771928Y-81491500D01*
X137771928Y-82756500D01*
X135229678Y-82756500D01*
X134989484Y-82780157D01*
X134681285Y-82873648D01*
X134397248Y-83025469D01*
X134241329Y-83153428D01*
X134210000Y-83153428D01*
X134085518Y-83165688D01*
X133965820Y-83201998D01*
X133855506Y-83260963D01*
X133758815Y-83340315D01*
X133679463Y-83437006D01*
X133620498Y-83547320D01*
X133584188Y-83667018D01*
X133571928Y-83791500D01*
X133571928Y-84991500D01*
X133584188Y-85115982D01*
X133620498Y-85235680D01*
X133679463Y-85345994D01*
X133758815Y-85442685D01*
X133855506Y-85522037D01*
X133873210Y-85531500D01*
X133855506Y-85540963D01*
X133758815Y-85620315D01*
X133679463Y-85717006D01*
X133620498Y-85827320D01*
X133584188Y-85947018D01*
X133571928Y-86071500D01*
X133571928Y-87271500D01*
X133584188Y-87395982D01*
X133620498Y-87515680D01*
X133675000Y-87617645D01*
X133675001Y-90259760D01*
X131806687Y-92128075D01*
X131744286Y-92179286D01*
X131613072Y-92339172D01*
X131613072Y-92049971D01*
X131692852Y-91900714D01*
X131786342Y-91592516D01*
X131817911Y-91271999D01*
X131786342Y-90951484D01*
X131692852Y-90643286D01*
X131683000Y-90624854D01*
X131683000Y-86735322D01*
X131690911Y-86655000D01*
X131659343Y-86334484D01*
X131565852Y-86026285D01*
X131486072Y-85877027D01*
X131486072Y-85405000D01*
X131469008Y-85231746D01*
X131418472Y-85065150D01*
X131336405Y-84911614D01*
X131225962Y-84777038D01*
X131091386Y-84666595D01*
X130937850Y-84584528D01*
X130771254Y-84533992D01*
X130598000Y-84516928D01*
X129498000Y-84516928D01*
X129324746Y-84533992D01*
X129158150Y-84584528D01*
X129004614Y-84666595D01*
X128870038Y-84777038D01*
X128759595Y-84911614D01*
X128701661Y-85020000D01*
X127781739Y-85020000D01*
X127428500Y-84666762D01*
X127428500Y-81258738D01*
X128693240Y-79994000D01*
X133047681Y-79994000D01*
X133128000Y-80001911D01*
X133208319Y-79994000D01*
X133208322Y-79994000D01*
X133448516Y-79970343D01*
X133690058Y-79897072D01*
X134378000Y-79897072D01*
X134502482Y-79884812D01*
X134622180Y-79848502D01*
X134732494Y-79789537D01*
X134829185Y-79710185D01*
X134908537Y-79613494D01*
X134967502Y-79503180D01*
X135003812Y-79383482D01*
X135016072Y-79259000D01*
X135016072Y-78783166D01*
X135239928Y-78559310D01*
X135239928Y-79259000D01*
G37*
X135239928Y-79259000D02*
X135252188Y-79383482D01*
X135288498Y-79503180D01*
X135347463Y-79613494D01*
X135426815Y-79710185D01*
X135523506Y-79789537D01*
X135633820Y-79848502D01*
X135753518Y-79884812D01*
X135878000Y-79897072D01*
X136565942Y-79897072D01*
X136807484Y-79970343D01*
X137047678Y-79994000D01*
X139800262Y-79994000D01*
X139975000Y-80168739D01*
X139975000Y-80853428D01*
X138410000Y-80853428D01*
X138285518Y-80865688D01*
X138165820Y-80901998D01*
X138055506Y-80960963D01*
X137958815Y-81040315D01*
X137879463Y-81137006D01*
X137820498Y-81247320D01*
X137784188Y-81367018D01*
X137771928Y-81491500D01*
X137771928Y-82756500D01*
X135229678Y-82756500D01*
X134989484Y-82780157D01*
X134681285Y-82873648D01*
X134397248Y-83025469D01*
X134241329Y-83153428D01*
X134210000Y-83153428D01*
X134085518Y-83165688D01*
X133965820Y-83201998D01*
X133855506Y-83260963D01*
X133758815Y-83340315D01*
X133679463Y-83437006D01*
X133620498Y-83547320D01*
X133584188Y-83667018D01*
X133571928Y-83791500D01*
X133571928Y-84991500D01*
X133584188Y-85115982D01*
X133620498Y-85235680D01*
X133679463Y-85345994D01*
X133758815Y-85442685D01*
X133855506Y-85522037D01*
X133873210Y-85531500D01*
X133855506Y-85540963D01*
X133758815Y-85620315D01*
X133679463Y-85717006D01*
X133620498Y-85827320D01*
X133584188Y-85947018D01*
X133571928Y-86071500D01*
X133571928Y-87271500D01*
X133584188Y-87395982D01*
X133620498Y-87515680D01*
X133675000Y-87617645D01*
X133675001Y-90259760D01*
X131806687Y-92128075D01*
X131744286Y-92179286D01*
X131613072Y-92339172D01*
X131613072Y-92049971D01*
X131692852Y-91900714D01*
X131786342Y-91592516D01*
X131817911Y-91271999D01*
X131786342Y-90951484D01*
X131692852Y-90643286D01*
X131683000Y-90624854D01*
X131683000Y-86735322D01*
X131690911Y-86655000D01*
X131659343Y-86334484D01*
X131565852Y-86026285D01*
X131486072Y-85877027D01*
X131486072Y-85405000D01*
X131469008Y-85231746D01*
X131418472Y-85065150D01*
X131336405Y-84911614D01*
X131225962Y-84777038D01*
X131091386Y-84666595D01*
X130937850Y-84584528D01*
X130771254Y-84533992D01*
X130598000Y-84516928D01*
X129498000Y-84516928D01*
X129324746Y-84533992D01*
X129158150Y-84584528D01*
X129004614Y-84666595D01*
X128870038Y-84777038D01*
X128759595Y-84911614D01*
X128701661Y-85020000D01*
X127781739Y-85020000D01*
X127428500Y-84666762D01*
X127428500Y-81258738D01*
X128693240Y-79994000D01*
X133047681Y-79994000D01*
X133128000Y-80001911D01*
X133208319Y-79994000D01*
X133208322Y-79994000D01*
X133448516Y-79970343D01*
X133690058Y-79897072D01*
X134378000Y-79897072D01*
X134502482Y-79884812D01*
X134622180Y-79848502D01*
X134732494Y-79789537D01*
X134829185Y-79710185D01*
X134908537Y-79613494D01*
X134967502Y-79503180D01*
X135003812Y-79383482D01*
X135016072Y-79259000D01*
X135016072Y-78783166D01*
X135239928Y-78559310D01*
X135239928Y-79259000D01*
M02*
