%TF.GenerationSoftware,KiCad,Pcbnew,(6.0.7)*%
%TF.CreationDate,2022-09-15T17:21:33-05:00*%
%TF.ProjectId,starlightremote,73746172-6c69-4676-9874-72656d6f7465,rev?*%
%TF.SameCoordinates,Original*%
%TF.FileFunction,Soldermask,Bot*%
%TF.FilePolarity,Negative*%
%FSLAX46Y46*%
G04 Gerber Fmt 4.6, Leading zero omitted, Abs format (unit mm)*
G04 Created by KiCad (PCBNEW (6.0.7)) date 2022-09-15 17:21:33*
%MOMM*%
%LPD*%
G01*
G04 APERTURE LIST*
G04 Aperture macros list*
%AMRoundRect*
0 Rectangle with rounded corners*
0 $1 Rounding radius*
0 $2 $3 $4 $5 $6 $7 $8 $9 X,Y pos of 4 corners*
0 Add a 4 corners polygon primitive as box body*
4,1,4,$2,$3,$4,$5,$6,$7,$8,$9,$2,$3,0*
0 Add four circle primitives for the rounded corners*
1,1,$1+$1,$2,$3*
1,1,$1+$1,$4,$5*
1,1,$1+$1,$6,$7*
1,1,$1+$1,$8,$9*
0 Add four rect primitives between the rounded corners*
20,1,$1+$1,$2,$3,$4,$5,0*
20,1,$1+$1,$4,$5,$6,$7,0*
20,1,$1+$1,$6,$7,$8,$9,0*
20,1,$1+$1,$8,$9,$2,$3,0*%
G04 Aperture macros list end*
%ADD10RoundRect,0.051000X-0.750000X0.750000X-0.750000X-0.750000X0.750000X-0.750000X0.750000X0.750000X0*%
%ADD11RoundRect,0.051000X-0.900000X-0.900000X0.900000X-0.900000X0.900000X0.900000X-0.900000X0.900000X0*%
%ADD12C,1.902000*%
%ADD13O,0.902000X0.902000*%
%ADD14O,2.102000X1.552000*%
%ADD15O,1.902000X1.252000*%
%ADD16C,4.502000*%
%ADD17RoundRect,0.051000X-0.863600X0.863600X-0.863600X-0.863600X0.863600X-0.863600X0.863600X0.863600X0*%
%ADD18O,1.829200X1.829200*%
G04 APERTURE END LIST*
D10*
X123031250Y-83412500D03*
X123031250Y-91212500D03*
D11*
X100012500Y-100500000D03*
D12*
X102552500Y-100500000D03*
D13*
X94462500Y-87987500D03*
X94462500Y-92987500D03*
D14*
X95512500Y-94212500D03*
D15*
X91712500Y-94362500D03*
D14*
X95512500Y-86762500D03*
D15*
X91712500Y-86612500D03*
D16*
X92868750Y-100012500D03*
X92841250Y-74993500D03*
X123003750Y-74993500D03*
X123031250Y-100012500D03*
D17*
X109537500Y-82550000D03*
D18*
X109537500Y-85090000D03*
X112077500Y-82550000D03*
X112077500Y-85090000D03*
X114617500Y-82550000D03*
X114617500Y-85090000D03*
X117157500Y-82550000D03*
X117157500Y-85090000D03*
G36*
X94804472Y-93276456D02*
G01*
X94804155Y-93278287D01*
X94777490Y-93313037D01*
X94752409Y-93377911D01*
X94766325Y-93445758D01*
X94814712Y-93495310D01*
X94882371Y-93510874D01*
X94913027Y-93505079D01*
X94986430Y-93481229D01*
X94988386Y-93481645D01*
X94989004Y-93483547D01*
X94987706Y-93485020D01*
X94903069Y-93514494D01*
X94756870Y-93605849D01*
X94754871Y-93605919D01*
X94753811Y-93604223D01*
X94754107Y-93603104D01*
X94784527Y-93553727D01*
X94783208Y-93484482D01*
X94744662Y-93426942D01*
X94681099Y-93399364D01*
X94632559Y-93405931D01*
X94630709Y-93405172D01*
X94630441Y-93403190D01*
X94631765Y-93402019D01*
X94640815Y-93399552D01*
X94749292Y-93332946D01*
X94801085Y-93275727D01*
X94802989Y-93275114D01*
X94804472Y-93276456D01*
G37*
G36*
X94756046Y-87367279D02*
G01*
X94893358Y-87455770D01*
X94984417Y-87488913D01*
X94985703Y-87490445D01*
X94985019Y-87492324D01*
X94983115Y-87492694D01*
X94913179Y-87469971D01*
X94843651Y-87467985D01*
X94784341Y-87503750D01*
X94753784Y-87565902D01*
X94761698Y-87634877D01*
X94777390Y-87661833D01*
X94806271Y-87699472D01*
X94806532Y-87701455D01*
X94804945Y-87702673D01*
X94803169Y-87701996D01*
X94757647Y-87649165D01*
X94650826Y-87579926D01*
X94623166Y-87571654D01*
X94621793Y-87570200D01*
X94622366Y-87568284D01*
X94623953Y-87567749D01*
X94687781Y-87574611D01*
X94749710Y-87543610D01*
X94785050Y-87484047D01*
X94782577Y-87414802D01*
X94753290Y-87370055D01*
X94753178Y-87368058D01*
X94754851Y-87366963D01*
X94756046Y-87367279D01*
G37*
M02*
