%TF.GenerationSoftware,KiCad,Pcbnew,(6.0.7)*%
%TF.CreationDate,2022-09-15T17:21:33-05:00*%
%TF.ProjectId,starlightremote,73746172-6c69-4676-9874-72656d6f7465,rev?*%
%TF.SameCoordinates,Original*%
%TF.FileFunction,Copper,L1,Top*%
%TF.FilePolarity,Positive*%
%FSLAX46Y46*%
G04 Gerber Fmt 4.6, Leading zero omitted, Abs format (unit mm)*
G04 Created by KiCad (PCBNEW (6.0.7)) date 2022-09-15 17:21:33*
%MOMM*%
%LPD*%
G01*
G04 APERTURE LIST*
G04 Aperture macros list*
%AMRoundRect*
0 Rectangle with rounded corners*
0 $1 Rounding radius*
0 $2 $3 $4 $5 $6 $7 $8 $9 X,Y pos of 4 corners*
0 Add a 4 corners polygon primitive as box body*
4,1,4,$2,$3,$4,$5,$6,$7,$8,$9,$2,$3,0*
0 Add four circle primitives for the rounded corners*
1,1,$1+$1,$2,$3*
1,1,$1+$1,$4,$5*
1,1,$1+$1,$6,$7*
1,1,$1+$1,$8,$9*
0 Add four rect primitives between the rounded corners*
20,1,$1+$1,$2,$3,$4,$5,0*
20,1,$1+$1,$4,$5,$6,$7,0*
20,1,$1+$1,$6,$7,$8,$9,0*
20,1,$1+$1,$8,$9,$2,$3,0*%
G04 Aperture macros list end*
%TA.AperFunction,SMDPad,CuDef*%
%ADD10RoundRect,0.250000X-0.412500X-0.650000X0.412500X-0.650000X0.412500X0.650000X-0.412500X0.650000X0*%
%TD*%
%TA.AperFunction,SMDPad,CuDef*%
%ADD11RoundRect,0.250000X-0.550000X1.250000X-0.550000X-1.250000X0.550000X-1.250000X0.550000X1.250000X0*%
%TD*%
%TA.AperFunction,ComponentPad*%
%ADD12R,1.800000X1.800000*%
%TD*%
%TA.AperFunction,ComponentPad*%
%ADD13C,1.800000*%
%TD*%
%TA.AperFunction,SMDPad,CuDef*%
%ADD14RoundRect,0.250000X0.325000X0.450000X-0.325000X0.450000X-0.325000X-0.450000X0.325000X-0.450000X0*%
%TD*%
%TA.AperFunction,SMDPad,CuDef*%
%ADD15R,1.300000X0.450000*%
%TD*%
%TA.AperFunction,ComponentPad*%
%ADD16O,2.000000X1.450000*%
%TD*%
%TA.AperFunction,ComponentPad*%
%ADD17O,1.800000X1.150000*%
%TD*%
%TA.AperFunction,SMDPad,CuDef*%
%ADD18RoundRect,0.150000X-0.150000X0.587500X-0.150000X-0.587500X0.150000X-0.587500X0.150000X0.587500X0*%
%TD*%
%TA.AperFunction,SMDPad,CuDef*%
%ADD19RoundRect,0.250000X-0.400000X-0.625000X0.400000X-0.625000X0.400000X0.625000X-0.400000X0.625000X0*%
%TD*%
%TA.AperFunction,SMDPad,CuDef*%
%ADD20RoundRect,0.250000X-0.625000X0.400000X-0.625000X-0.400000X0.625000X-0.400000X0.625000X0.400000X0*%
%TD*%
%TA.AperFunction,SMDPad,CuDef*%
%ADD21R,2.000000X1.500000*%
%TD*%
%TA.AperFunction,SMDPad,CuDef*%
%ADD22R,2.000000X3.800000*%
%TD*%
%TA.AperFunction,ComponentPad*%
%ADD23C,4.400000*%
%TD*%
%TA.AperFunction,SMDPad,CuDef*%
%ADD24RoundRect,0.250000X0.400000X0.625000X-0.400000X0.625000X-0.400000X-0.625000X0.400000X-0.625000X0*%
%TD*%
%TA.AperFunction,ComponentPad*%
%ADD25R,1.727200X1.727200*%
%TD*%
%TA.AperFunction,ComponentPad*%
%ADD26O,1.727200X1.727200*%
%TD*%
%TA.AperFunction,Conductor*%
%ADD27C,0.250000*%
%TD*%
%TA.AperFunction,Conductor*%
%ADD28C,0.750000*%
%TD*%
%TA.AperFunction,Conductor*%
%ADD29C,0.450000*%
%TD*%
%TA.AperFunction,Conductor*%
%ADD30C,1.000000*%
%TD*%
%TA.AperFunction,Conductor*%
%ADD31C,0.600000*%
%TD*%
G04 APERTURE END LIST*
D10*
X98259500Y-84328000D03*
X101384500Y-84328000D03*
D11*
X93218000Y-79334000D03*
X93218000Y-83734000D03*
D12*
X100012500Y-100500000D03*
D13*
X102552500Y-100500000D03*
D14*
X100243750Y-88106250D03*
X98193750Y-88106250D03*
D15*
X95562500Y-89187500D03*
X95562500Y-89837500D03*
X95562500Y-90487500D03*
X95562500Y-91137500D03*
X95562500Y-91787500D03*
D16*
X95512500Y-94212500D03*
D17*
X91712500Y-94362500D03*
D16*
X95512500Y-86762500D03*
D17*
X91712500Y-86612500D03*
D18*
X100962500Y-94312500D03*
X99062500Y-94312500D03*
X100012500Y-96187500D03*
D19*
X103072000Y-96043750D03*
X106172000Y-96043750D03*
X103098000Y-92075000D03*
X106198000Y-92075000D03*
D20*
X104775000Y-86614000D03*
X104775000Y-89714000D03*
D21*
X97840000Y-74154000D03*
X97840000Y-76454000D03*
D22*
X104140000Y-76454000D03*
D21*
X97840000Y-78754000D03*
D23*
X92868750Y-100012500D03*
X92841250Y-74993500D03*
X123003750Y-74993500D03*
X123031250Y-100012500D03*
D24*
X114326000Y-88392000D03*
X111226000Y-88392000D03*
D25*
X109537500Y-82550000D03*
D26*
X109537500Y-85090000D03*
X112077500Y-82550000D03*
X112077500Y-85090000D03*
X114617500Y-82550000D03*
X114617500Y-85090000D03*
X117157500Y-82550000D03*
X117157500Y-85090000D03*
D27*
X112701000Y-90245000D02*
X108204000Y-94742000D01*
D28*
X100962500Y-91437500D02*
X100962500Y-89791500D01*
D27*
X91712500Y-94362500D02*
X91712500Y-86612500D01*
X91862500Y-86762500D02*
X91712500Y-86612500D01*
D29*
X95562500Y-91787500D02*
X95562500Y-94162500D01*
D27*
X112014000Y-86614000D02*
X112701000Y-87301000D01*
D28*
X100012500Y-90487500D02*
X100962500Y-91437500D01*
X101854000Y-84797500D02*
X101384500Y-84328000D01*
D27*
X91712500Y-94362500D02*
X95362500Y-94362500D01*
D29*
X95562500Y-94162500D02*
X95512500Y-94212500D01*
D28*
X100962500Y-89791500D02*
X101854000Y-88900000D01*
X97125000Y-91787500D02*
X98425000Y-90487500D01*
D29*
X95562500Y-91787500D02*
X97125000Y-91787500D01*
D27*
X95362500Y-94362500D02*
X95512500Y-94212500D01*
X103378000Y-94742000D02*
X100962500Y-92326500D01*
X108204000Y-94742000D02*
X103378000Y-94742000D01*
D28*
X101854000Y-88900000D02*
X101854000Y-84797500D01*
D27*
X100962500Y-92326500D02*
X100962500Y-91437500D01*
D28*
X98425000Y-90487500D02*
X100012500Y-90487500D01*
D27*
X112701000Y-87301000D02*
X112701000Y-90245000D01*
X109537500Y-85090000D02*
X111061500Y-86614000D01*
X95512500Y-86762500D02*
X91862500Y-86762500D01*
X111061500Y-86614000D02*
X112014000Y-86614000D01*
D30*
X100243750Y-87035750D02*
X98259500Y-85051500D01*
X98259500Y-79173500D02*
X97840000Y-78754000D01*
X98259500Y-84328000D02*
X98259500Y-79173500D01*
X100243750Y-88106250D02*
X100243750Y-87035750D01*
X98259500Y-85051500D02*
X98259500Y-84328000D01*
X104140000Y-76454000D02*
X115316000Y-76454000D01*
X115316000Y-76454000D02*
X117157500Y-78295500D01*
X96098000Y-76454000D02*
X93218000Y-79334000D01*
X104775000Y-86614000D02*
X104775000Y-82921000D01*
X102956250Y-92796250D02*
X103886000Y-93726000D01*
X102552500Y-98447500D02*
X102552500Y-100500000D01*
X117475000Y-79375000D02*
X119856250Y-81756250D01*
X104775000Y-86614000D02*
X103632000Y-86614000D01*
X102956250Y-87289750D02*
X102956250Y-92796250D01*
X104140000Y-82286000D02*
X104140000Y-76454000D01*
X104775000Y-82921000D02*
X104140000Y-82286000D01*
X111226000Y-89942000D02*
X111226000Y-88392000D01*
X107442000Y-93726000D02*
X111226000Y-89942000D01*
X110236000Y-97790000D02*
X103210000Y-97790000D01*
X119856250Y-81756250D02*
X119856250Y-88169750D01*
X103210000Y-97790000D02*
X102552500Y-98447500D01*
X97840000Y-76454000D02*
X104140000Y-76454000D01*
X97840000Y-76454000D02*
X96098000Y-76454000D01*
X103632000Y-86614000D02*
X102956250Y-87289750D01*
X103886000Y-93726000D02*
X107442000Y-93726000D01*
X117157500Y-78295500D02*
X117157500Y-82550000D01*
X119856250Y-88169750D02*
X110236000Y-97790000D01*
X100012500Y-100500000D02*
X100012500Y-96187500D01*
D29*
X95562500Y-89187500D02*
X97812500Y-89187500D01*
D28*
X97812500Y-89187500D02*
X98193750Y-88806250D01*
X98193750Y-88806250D02*
X98193750Y-88106250D01*
X107653310Y-80575010D02*
X107562510Y-80665810D01*
X112077500Y-81121250D02*
X111531260Y-80575010D01*
X107562510Y-80665810D02*
X107562510Y-90710490D01*
X112077500Y-82550000D02*
X112077500Y-81121250D01*
X107562510Y-90710490D02*
X106198000Y-92075000D01*
X111531260Y-80575010D02*
X107653310Y-80575010D01*
X106362500Y-80168750D02*
X106362500Y-89471500D01*
X107156250Y-79375000D02*
X106362500Y-80168750D01*
X106120000Y-89714000D02*
X104775000Y-89714000D01*
X114617500Y-80486250D02*
X113506250Y-79375000D01*
X106362500Y-89471500D02*
X106120000Y-89714000D01*
X113506250Y-79375000D02*
X107156250Y-79375000D01*
X114617500Y-82550000D02*
X114617500Y-80486250D01*
D30*
X106172000Y-96043750D02*
X109696250Y-96043750D01*
X109696250Y-96043750D02*
X117157500Y-88582500D01*
X117157500Y-88582500D02*
X117157500Y-85090000D01*
X114617500Y-85090000D02*
X114617500Y-86677500D01*
X114326000Y-86842000D02*
X114326000Y-88392000D01*
X114490500Y-86677500D02*
X114326000Y-86842000D01*
X114617500Y-86677500D02*
X114490500Y-86677500D01*
D31*
X100962500Y-94312500D02*
X100965000Y-94315000D01*
X100965000Y-95377000D02*
X101631750Y-96043750D01*
X100965000Y-94315000D02*
X100965000Y-95377000D01*
X101631750Y-96043750D02*
X103072000Y-96043750D01*
%TA.AperFunction,Conductor*%
G36*
X125670977Y-72410502D02*
G01*
X125717470Y-72464158D01*
X125728856Y-72516628D01*
X125725623Y-75704455D01*
X125699044Y-101911683D01*
X125698393Y-102553128D01*
X125678322Y-102621228D01*
X125624619Y-102667667D01*
X125572393Y-102679000D01*
X120522000Y-102679000D01*
X120453879Y-102658998D01*
X120407386Y-102605342D01*
X120396000Y-102553000D01*
X120396000Y-98806000D01*
X110939833Y-98806000D01*
X110871712Y-98785998D01*
X110825219Y-98732342D01*
X110815115Y-98662068D01*
X110844609Y-98597488D01*
X110860193Y-98582361D01*
X110868851Y-98575299D01*
X110869781Y-98574548D01*
X110908973Y-98543262D01*
X110911477Y-98540758D01*
X110912195Y-98540116D01*
X110916528Y-98536415D01*
X110950062Y-98509065D01*
X110966158Y-98489609D01*
X110979287Y-98473738D01*
X110987277Y-98464958D01*
X120525629Y-88926605D01*
X120535772Y-88917503D01*
X120537173Y-88916377D01*
X120565275Y-88893782D01*
X120597542Y-88855328D01*
X120600722Y-88851681D01*
X120602365Y-88849869D01*
X120604559Y-88847675D01*
X120631892Y-88814401D01*
X120632598Y-88813550D01*
X120659657Y-88781303D01*
X120692404Y-88742276D01*
X120694972Y-88737606D01*
X120698353Y-88733489D01*
X120742227Y-88651664D01*
X120742856Y-88650505D01*
X120784712Y-88574369D01*
X120784715Y-88574361D01*
X120787683Y-88568963D01*
X120789295Y-88563881D01*
X120791812Y-88559187D01*
X120819012Y-88470219D01*
X120819358Y-88469108D01*
X120845623Y-88386313D01*
X120847485Y-88380444D01*
X120848079Y-88375148D01*
X120849637Y-88370052D01*
X120859040Y-88277493D01*
X120859161Y-88276357D01*
X120864750Y-88226523D01*
X120864750Y-88222996D01*
X120864805Y-88222011D01*
X120865252Y-88216331D01*
X120869624Y-88173288D01*
X120865309Y-88127641D01*
X120864750Y-88115783D01*
X120864750Y-81818093D01*
X120865487Y-81804486D01*
X120868909Y-81772988D01*
X120868909Y-81772983D01*
X120869574Y-81766862D01*
X120865200Y-81716862D01*
X120864871Y-81712036D01*
X120864750Y-81709564D01*
X120864750Y-81706481D01*
X120862135Y-81679813D01*
X120860560Y-81663744D01*
X120860438Y-81662431D01*
X120856565Y-81618166D01*
X120852337Y-81569837D01*
X120850850Y-81564718D01*
X120850330Y-81559417D01*
X120823459Y-81470416D01*
X120823124Y-81469283D01*
X120798880Y-81385836D01*
X120798878Y-81385832D01*
X120797159Y-81379914D01*
X120794706Y-81375182D01*
X120793166Y-81370081D01*
X120772811Y-81331797D01*
X120749519Y-81287990D01*
X120748907Y-81286824D01*
X120708979Y-81209797D01*
X120706142Y-81204324D01*
X120702819Y-81200161D01*
X120700316Y-81195454D01*
X120641495Y-81123332D01*
X120640804Y-81122476D01*
X120609512Y-81083277D01*
X120607008Y-81080773D01*
X120606366Y-81080055D01*
X120602665Y-81075722D01*
X120575315Y-81042188D01*
X120539987Y-81012962D01*
X120531208Y-81004973D01*
X119370734Y-79844499D01*
X118202905Y-78676671D01*
X118168880Y-78614359D01*
X118166000Y-78587576D01*
X118166000Y-78357342D01*
X118166737Y-78343735D01*
X118170159Y-78312237D01*
X118170159Y-78312232D01*
X118170824Y-78306111D01*
X118166450Y-78256109D01*
X118166121Y-78251284D01*
X118166000Y-78248813D01*
X118166000Y-78245731D01*
X118161809Y-78202989D01*
X118161687Y-78201674D01*
X118154123Y-78115219D01*
X118153587Y-78109087D01*
X118152100Y-78103968D01*
X118151580Y-78098667D01*
X118124718Y-78009694D01*
X118124362Y-78008494D01*
X118108085Y-77952469D01*
X118098409Y-77919163D01*
X118095955Y-77914429D01*
X118094416Y-77909331D01*
X118091521Y-77903886D01*
X118050816Y-77827331D01*
X118050202Y-77826163D01*
X118010226Y-77749041D01*
X118010225Y-77749040D01*
X118007392Y-77743574D01*
X118004069Y-77739411D01*
X118001566Y-77734704D01*
X117942745Y-77662582D01*
X117942054Y-77661726D01*
X117910762Y-77622527D01*
X117908258Y-77620023D01*
X117907616Y-77619305D01*
X117903915Y-77614972D01*
X117876565Y-77581438D01*
X117841237Y-77552212D01*
X117832458Y-77544223D01*
X116072855Y-75784621D01*
X116063753Y-75774478D01*
X116043897Y-75749782D01*
X116040032Y-75744975D01*
X116001578Y-75712708D01*
X115997931Y-75709528D01*
X115996119Y-75707885D01*
X115993925Y-75705691D01*
X115960651Y-75678358D01*
X115959853Y-75677696D01*
X115888526Y-75617846D01*
X115883856Y-75615278D01*
X115879739Y-75611897D01*
X115797914Y-75568023D01*
X115796755Y-75567394D01*
X115720619Y-75525538D01*
X115720611Y-75525535D01*
X115715213Y-75522567D01*
X115710131Y-75520955D01*
X115705437Y-75518438D01*
X115616469Y-75491238D01*
X115615441Y-75490918D01*
X115526694Y-75462765D01*
X115521398Y-75462171D01*
X115516302Y-75460613D01*
X115423743Y-75451210D01*
X115422607Y-75451089D01*
X115388992Y-75447319D01*
X115376270Y-75445892D01*
X115376266Y-75445892D01*
X115372773Y-75445500D01*
X115369246Y-75445500D01*
X115368261Y-75445445D01*
X115362581Y-75444998D01*
X115333175Y-75442011D01*
X115325663Y-75441248D01*
X115325661Y-75441248D01*
X115319538Y-75440626D01*
X115277259Y-75444623D01*
X115273891Y-75444941D01*
X115262033Y-75445500D01*
X105774500Y-75445500D01*
X105706379Y-75425498D01*
X105659886Y-75371842D01*
X105648500Y-75319500D01*
X105648500Y-74505866D01*
X105641745Y-74443684D01*
X105590615Y-74307295D01*
X105503261Y-74190739D01*
X105386705Y-74103385D01*
X105250316Y-74052255D01*
X105188134Y-74045500D01*
X103091866Y-74045500D01*
X103029684Y-74052255D01*
X102893295Y-74103385D01*
X102776739Y-74190739D01*
X102689385Y-74307295D01*
X102638255Y-74443684D01*
X102631500Y-74505866D01*
X102631500Y-75319500D01*
X102611498Y-75387621D01*
X102557842Y-75434114D01*
X102505500Y-75445500D01*
X99344802Y-75445500D01*
X99276681Y-75425498D01*
X99243976Y-75395065D01*
X99208642Y-75347919D01*
X99203261Y-75340739D01*
X99086705Y-75253385D01*
X98950316Y-75202255D01*
X98888134Y-75195500D01*
X96791866Y-75195500D01*
X96729684Y-75202255D01*
X96593295Y-75253385D01*
X96476739Y-75340739D01*
X96471358Y-75347919D01*
X96436024Y-75395065D01*
X96379165Y-75437580D01*
X96335198Y-75445500D01*
X96159843Y-75445500D01*
X96146236Y-75444763D01*
X96114738Y-75441341D01*
X96114733Y-75441341D01*
X96108612Y-75440676D01*
X96082362Y-75442973D01*
X96058612Y-75445050D01*
X96053786Y-75445379D01*
X96051314Y-75445500D01*
X96048231Y-75445500D01*
X96036262Y-75446674D01*
X96005494Y-75449690D01*
X96004181Y-75449812D01*
X95959916Y-75453685D01*
X95911587Y-75457913D01*
X95906468Y-75459400D01*
X95901167Y-75459920D01*
X95812166Y-75486791D01*
X95811033Y-75487126D01*
X95727586Y-75511370D01*
X95727582Y-75511372D01*
X95721664Y-75513091D01*
X95716932Y-75515544D01*
X95711831Y-75517084D01*
X95706388Y-75519978D01*
X95629740Y-75560731D01*
X95628574Y-75561343D01*
X95551547Y-75601271D01*
X95546074Y-75604108D01*
X95541911Y-75607431D01*
X95537204Y-75609934D01*
X95465082Y-75668755D01*
X95464226Y-75669446D01*
X95425027Y-75700738D01*
X95422523Y-75703242D01*
X95421805Y-75703884D01*
X95417472Y-75707585D01*
X95383938Y-75734935D01*
X95380011Y-75739682D01*
X95380009Y-75739684D01*
X95354713Y-75770262D01*
X95346723Y-75779042D01*
X93837171Y-77288595D01*
X93774859Y-77322620D01*
X93748076Y-77325500D01*
X92617600Y-77325500D01*
X92614354Y-77325837D01*
X92614350Y-77325837D01*
X92518692Y-77335762D01*
X92518688Y-77335763D01*
X92511834Y-77336474D01*
X92505298Y-77338655D01*
X92505296Y-77338655D01*
X92373194Y-77382728D01*
X92344054Y-77392450D01*
X92193652Y-77485522D01*
X92068695Y-77610697D01*
X92064855Y-77616927D01*
X92064854Y-77616928D01*
X91986005Y-77744845D01*
X91975885Y-77761262D01*
X91973581Y-77768209D01*
X91923097Y-77920415D01*
X91920203Y-77929139D01*
X91919503Y-77935975D01*
X91919502Y-77935978D01*
X91917302Y-77957456D01*
X91909500Y-78033600D01*
X91909500Y-80634400D01*
X91909837Y-80637646D01*
X91909837Y-80637650D01*
X91916554Y-80702383D01*
X91920474Y-80740166D01*
X91922655Y-80746702D01*
X91922655Y-80746704D01*
X91966331Y-80877615D01*
X91976450Y-80907946D01*
X92069522Y-81058348D01*
X92194697Y-81183305D01*
X92200927Y-81187145D01*
X92200928Y-81187146D01*
X92338090Y-81271694D01*
X92345262Y-81276115D01*
X92425005Y-81302564D01*
X92506611Y-81329632D01*
X92506613Y-81329632D01*
X92513139Y-81331797D01*
X92519975Y-81332497D01*
X92519978Y-81332498D01*
X92563031Y-81336909D01*
X92617600Y-81342500D01*
X93818400Y-81342500D01*
X93821646Y-81342163D01*
X93821650Y-81342163D01*
X93917308Y-81332238D01*
X93917312Y-81332237D01*
X93924166Y-81331526D01*
X93930702Y-81329345D01*
X93930704Y-81329345D01*
X94062806Y-81285272D01*
X94091946Y-81275550D01*
X94242348Y-81182478D01*
X94367305Y-81057303D01*
X94417479Y-80975906D01*
X94456275Y-80912968D01*
X94456276Y-80912966D01*
X94460115Y-80906738D01*
X94506727Y-80766207D01*
X94513632Y-80745389D01*
X94513632Y-80745387D01*
X94515797Y-80738861D01*
X94520129Y-80696586D01*
X94526172Y-80637598D01*
X94526500Y-80634400D01*
X94526500Y-79503925D01*
X94546502Y-79435804D01*
X94563405Y-79414830D01*
X95339844Y-78638391D01*
X96116688Y-77861546D01*
X96179000Y-77827521D01*
X96249815Y-77832585D01*
X96306651Y-77875132D01*
X96331462Y-77941652D01*
X96331579Y-77955140D01*
X96331500Y-77955866D01*
X96331500Y-79552134D01*
X96338255Y-79614316D01*
X96389385Y-79750705D01*
X96476739Y-79867261D01*
X96593295Y-79954615D01*
X96729684Y-80005745D01*
X96791866Y-80012500D01*
X97125000Y-80012500D01*
X97193121Y-80032502D01*
X97239614Y-80086158D01*
X97251000Y-80138500D01*
X97251000Y-83163621D01*
X97232260Y-83229737D01*
X97154885Y-83355262D01*
X97099203Y-83523139D01*
X97088500Y-83627600D01*
X97088500Y-85028400D01*
X97088837Y-85031646D01*
X97088837Y-85031650D01*
X97090869Y-85051229D01*
X97099474Y-85134166D01*
X97155450Y-85301946D01*
X97248522Y-85452348D01*
X97373697Y-85577305D01*
X97379929Y-85581146D01*
X97379932Y-85581149D01*
X97382703Y-85582857D01*
X97385420Y-85585483D01*
X97385672Y-85585682D01*
X97385652Y-85585707D01*
X97414201Y-85613300D01*
X97415433Y-85612295D01*
X97430015Y-85630174D01*
X97474255Y-85684418D01*
X97474946Y-85685274D01*
X97506238Y-85724473D01*
X97508742Y-85726977D01*
X97509384Y-85727695D01*
X97513085Y-85732028D01*
X97540435Y-85765562D01*
X97545182Y-85769489D01*
X97545184Y-85769491D01*
X97575762Y-85794787D01*
X97584531Y-85802766D01*
X98464422Y-86682657D01*
X98498446Y-86744967D01*
X98493382Y-86815782D01*
X98450835Y-86872618D01*
X98384315Y-86897429D01*
X98375326Y-86897750D01*
X97818350Y-86897750D01*
X97815104Y-86898087D01*
X97815100Y-86898087D01*
X97719442Y-86908012D01*
X97719438Y-86908013D01*
X97712584Y-86908724D01*
X97706048Y-86910905D01*
X97706046Y-86910905D01*
X97609130Y-86943239D01*
X97544804Y-86964700D01*
X97394402Y-87057772D01*
X97389229Y-87062954D01*
X97372187Y-87080026D01*
X97269445Y-87182947D01*
X97265605Y-87189177D01*
X97265604Y-87189178D01*
X97185399Y-87319295D01*
X97176635Y-87333512D01*
X97120953Y-87501389D01*
X97110250Y-87605850D01*
X97110250Y-88328000D01*
X97090248Y-88396121D01*
X97036592Y-88442614D01*
X96984250Y-88454000D01*
X95439602Y-88454000D01*
X95371481Y-88433998D01*
X95324988Y-88380342D01*
X95314884Y-88310068D01*
X95319769Y-88289064D01*
X95341796Y-88221271D01*
X95356042Y-88177428D01*
X95361072Y-88129575D01*
X95375314Y-87994065D01*
X95376004Y-87987500D01*
X95356042Y-87797572D01*
X95297027Y-87615944D01*
X95201540Y-87450556D01*
X95190264Y-87438032D01*
X95078175Y-87313545D01*
X95078174Y-87313544D01*
X95073753Y-87308634D01*
X94974657Y-87236636D01*
X94924594Y-87200263D01*
X94924593Y-87200262D01*
X94919252Y-87196382D01*
X94913224Y-87193698D01*
X94913222Y-87193697D01*
X94750819Y-87121391D01*
X94750818Y-87121391D01*
X94744788Y-87118706D01*
X94645455Y-87097592D01*
X94564444Y-87080372D01*
X94564439Y-87080372D01*
X94557987Y-87079000D01*
X94367013Y-87079000D01*
X94360561Y-87080372D01*
X94360556Y-87080372D01*
X94279545Y-87097592D01*
X94180212Y-87118706D01*
X94174182Y-87121391D01*
X94174181Y-87121391D01*
X94011778Y-87193697D01*
X94011776Y-87193698D01*
X94005748Y-87196382D01*
X94000407Y-87200262D01*
X94000406Y-87200263D01*
X93950343Y-87236636D01*
X93851247Y-87308634D01*
X93846826Y-87313544D01*
X93846825Y-87313545D01*
X93734737Y-87438032D01*
X93723460Y-87450556D01*
X93627973Y-87615944D01*
X93568958Y-87797572D01*
X93548996Y-87987500D01*
X93549686Y-87994065D01*
X93563929Y-88129575D01*
X93568958Y-88177428D01*
X93627973Y-88359056D01*
X93631276Y-88364778D01*
X93631277Y-88364779D01*
X93665186Y-88423510D01*
X93723460Y-88524444D01*
X93727878Y-88529351D01*
X93727879Y-88529352D01*
X93830326Y-88643131D01*
X93851247Y-88666366D01*
X94005748Y-88778618D01*
X94011776Y-88781302D01*
X94011778Y-88781303D01*
X94155501Y-88845292D01*
X94180212Y-88856294D01*
X94297887Y-88881307D01*
X94304197Y-88882648D01*
X94366670Y-88916377D01*
X94400992Y-88978526D01*
X94404000Y-89005895D01*
X94404000Y-89460634D01*
X94404369Y-89464029D01*
X94404369Y-89464033D01*
X94408156Y-89498893D01*
X94408156Y-89526106D01*
X94404000Y-89564366D01*
X94404000Y-90110634D01*
X94404369Y-90114029D01*
X94404369Y-90114033D01*
X94408156Y-90148893D01*
X94408156Y-90176106D01*
X94404000Y-90214366D01*
X94404000Y-90760634D01*
X94404369Y-90764029D01*
X94404369Y-90764033D01*
X94408156Y-90798893D01*
X94408156Y-90826106D01*
X94404000Y-90864366D01*
X94404000Y-91410634D01*
X94410755Y-91472816D01*
X94461885Y-91609205D01*
X94549239Y-91725761D01*
X94665795Y-91813115D01*
X94802184Y-91864245D01*
X94864366Y-91871000D01*
X96260634Y-91871000D01*
X96322816Y-91864245D01*
X96459205Y-91813115D01*
X96575761Y-91725761D01*
X96663115Y-91609205D01*
X96714245Y-91472816D01*
X96721000Y-91410634D01*
X96721000Y-90864366D01*
X96716844Y-90826106D01*
X96716844Y-90798893D01*
X96720631Y-90764033D01*
X96720631Y-90764029D01*
X96721000Y-90760634D01*
X96721000Y-90214366D01*
X96716844Y-90176106D01*
X96716844Y-90148893D01*
X96720631Y-90114033D01*
X96720631Y-90114029D01*
X96721000Y-90110634D01*
X96721000Y-90047000D01*
X96741002Y-89978879D01*
X96794658Y-89932386D01*
X96847000Y-89921000D01*
X97282492Y-89921000D01*
X97351116Y-89941327D01*
X97409190Y-89979041D01*
X97415359Y-89981409D01*
X97576407Y-90043229D01*
X97576409Y-90043230D01*
X97582574Y-90045596D01*
X97609198Y-90049813D01*
X97704640Y-90064930D01*
X97766007Y-90074650D01*
X97772594Y-90074305D01*
X97772599Y-90074305D01*
X97944876Y-90065276D01*
X97944879Y-90065275D01*
X97951471Y-90064930D01*
X97957843Y-90063223D01*
X97957847Y-90063222D01*
X98124489Y-90018570D01*
X98124490Y-90018570D01*
X98130863Y-90016862D01*
X98296339Y-89932547D01*
X98399317Y-89849158D01*
X98401923Y-89847048D01*
X98401929Y-89847043D01*
X98404486Y-89844972D01*
X98762295Y-89487162D01*
X98777331Y-89474320D01*
X98788184Y-89466435D01*
X98832644Y-89417057D01*
X98837185Y-89412272D01*
X98851222Y-89398235D01*
X98863716Y-89382807D01*
X98867996Y-89377797D01*
X98908034Y-89333329D01*
X98908038Y-89333324D01*
X98912454Y-89328419D01*
X98919160Y-89316804D01*
X98930360Y-89300508D01*
X98934644Y-89295217D01*
X98938797Y-89290089D01*
X98968963Y-89230887D01*
X98972096Y-89225117D01*
X99002010Y-89173305D01*
X99002012Y-89173300D01*
X99005314Y-89167581D01*
X99008073Y-89159091D01*
X99009045Y-89157503D01*
X99010039Y-89155270D01*
X99010332Y-89155400D01*
X99038731Y-89109015D01*
X99112884Y-89034733D01*
X99118055Y-89029553D01*
X99120656Y-89025334D01*
X99177780Y-88984833D01*
X99248703Y-88981601D01*
X99310115Y-89017226D01*
X99316672Y-89024780D01*
X99320272Y-89030598D01*
X99325454Y-89035771D01*
X99353916Y-89064183D01*
X99445447Y-89155555D01*
X99451677Y-89159395D01*
X99451678Y-89159396D01*
X99588840Y-89243944D01*
X99596012Y-89248365D01*
X99675755Y-89274814D01*
X99757361Y-89301882D01*
X99757363Y-89301882D01*
X99763889Y-89304047D01*
X99770725Y-89304747D01*
X99770728Y-89304748D01*
X99813781Y-89309159D01*
X99868350Y-89314750D01*
X100619150Y-89314750D01*
X100622396Y-89314413D01*
X100622400Y-89314413D01*
X100718058Y-89304488D01*
X100718062Y-89304487D01*
X100724916Y-89303776D01*
X100731452Y-89301595D01*
X100731454Y-89301595D01*
X100863556Y-89257522D01*
X100892696Y-89247800D01*
X101043098Y-89154728D01*
X101168055Y-89029553D01*
X101199509Y-88978526D01*
X101257025Y-88885218D01*
X101257026Y-88885216D01*
X101260865Y-88878988D01*
X101287314Y-88799245D01*
X101314382Y-88717639D01*
X101314382Y-88717637D01*
X101316547Y-88711111D01*
X101327250Y-88606650D01*
X101327250Y-87605850D01*
X101316276Y-87500084D01*
X101260300Y-87332304D01*
X101261766Y-87331815D01*
X101252250Y-87289068D01*
X101252250Y-87097592D01*
X101252987Y-87083985D01*
X101256409Y-87052487D01*
X101256409Y-87052482D01*
X101257074Y-87046361D01*
X101254913Y-87021655D01*
X101252700Y-86996359D01*
X101252371Y-86991534D01*
X101252250Y-86989063D01*
X101252250Y-86985981D01*
X101248059Y-86943239D01*
X101247937Y-86941924D01*
X101244304Y-86900402D01*
X101239837Y-86849337D01*
X101238350Y-86844218D01*
X101237830Y-86838917D01*
X101235844Y-86832337D01*
X101210987Y-86750009D01*
X101210612Y-86748744D01*
X101206764Y-86735499D01*
X101184659Y-86659413D01*
X101182205Y-86654679D01*
X101180666Y-86649581D01*
X101176466Y-86641682D01*
X101137066Y-86567581D01*
X101136452Y-86566413D01*
X101096476Y-86489291D01*
X101096475Y-86489290D01*
X101093642Y-86483824D01*
X101090319Y-86479661D01*
X101087816Y-86474954D01*
X101028995Y-86402832D01*
X101028304Y-86401976D01*
X100997012Y-86362777D01*
X100994508Y-86360273D01*
X100993866Y-86359555D01*
X100990165Y-86355222D01*
X100962815Y-86321688D01*
X100927487Y-86292462D01*
X100918708Y-86284473D01*
X100193538Y-85559303D01*
X99467405Y-84833171D01*
X99433380Y-84770859D01*
X99430500Y-84744076D01*
X99430500Y-83627600D01*
X99423377Y-83558946D01*
X99420238Y-83528692D01*
X99420237Y-83528688D01*
X99419526Y-83521834D01*
X99363550Y-83354054D01*
X99286856Y-83230118D01*
X99268000Y-83163815D01*
X99268000Y-79821596D01*
X99283481Y-79761086D01*
X99285233Y-79757886D01*
X99290615Y-79750705D01*
X99341745Y-79614316D01*
X99348500Y-79552134D01*
X99348500Y-77955866D01*
X99341745Y-77893684D01*
X99290615Y-77757295D01*
X99232358Y-77679563D01*
X99207511Y-77613059D01*
X99222564Y-77543677D01*
X99232354Y-77528442D01*
X99243978Y-77512932D01*
X99300837Y-77470419D01*
X99344802Y-77462500D01*
X102505500Y-77462500D01*
X102573621Y-77482502D01*
X102620114Y-77536158D01*
X102631500Y-77588500D01*
X102631500Y-78402134D01*
X102638255Y-78464316D01*
X102689385Y-78600705D01*
X102776739Y-78717261D01*
X102893295Y-78804615D01*
X102901703Y-78807767D01*
X103022286Y-78852972D01*
X103022289Y-78852973D01*
X103029684Y-78855745D01*
X103035453Y-78856372D01*
X103096291Y-78891126D01*
X103129113Y-78954081D01*
X103131500Y-78978493D01*
X103131500Y-82224157D01*
X103130763Y-82237764D01*
X103126676Y-82275388D01*
X103127213Y-82281523D01*
X103131050Y-82325388D01*
X103131379Y-82330214D01*
X103131500Y-82332686D01*
X103131500Y-82335769D01*
X103131801Y-82338837D01*
X103135690Y-82378506D01*
X103135812Y-82379819D01*
X103143913Y-82472413D01*
X103145400Y-82477532D01*
X103145920Y-82482833D01*
X103172791Y-82571834D01*
X103173126Y-82572967D01*
X103185994Y-82617256D01*
X103199091Y-82662336D01*
X103201544Y-82667068D01*
X103203084Y-82672169D01*
X103205978Y-82677612D01*
X103246731Y-82754260D01*
X103247343Y-82755426D01*
X103290108Y-82837926D01*
X103293431Y-82842089D01*
X103295934Y-82846796D01*
X103354755Y-82918918D01*
X103355446Y-82919774D01*
X103386738Y-82958973D01*
X103389242Y-82961477D01*
X103389884Y-82962195D01*
X103393585Y-82966528D01*
X103420935Y-83000062D01*
X103455199Y-83028407D01*
X103456264Y-83029288D01*
X103465045Y-83037279D01*
X103729595Y-83301829D01*
X103763621Y-83364141D01*
X103766500Y-83390924D01*
X103766500Y-85475248D01*
X103746498Y-85543369D01*
X103692842Y-85589862D01*
X103642598Y-85600516D01*
X103642612Y-85600676D01*
X103641304Y-85600790D01*
X103641301Y-85600791D01*
X103616362Y-85602973D01*
X103592612Y-85605050D01*
X103587786Y-85605379D01*
X103585314Y-85605500D01*
X103582231Y-85605500D01*
X103570262Y-85606674D01*
X103539494Y-85609690D01*
X103538181Y-85609812D01*
X103493916Y-85613685D01*
X103445587Y-85617913D01*
X103440468Y-85619400D01*
X103435167Y-85619920D01*
X103346166Y-85646791D01*
X103345033Y-85647126D01*
X103261586Y-85671370D01*
X103261582Y-85671372D01*
X103255664Y-85673091D01*
X103250932Y-85675544D01*
X103245831Y-85677084D01*
X103240388Y-85679978D01*
X103163740Y-85720731D01*
X103162574Y-85721343D01*
X103141919Y-85732050D01*
X103080074Y-85764108D01*
X103075911Y-85767431D01*
X103071204Y-85769934D01*
X103066429Y-85773828D01*
X103066428Y-85773829D01*
X102999102Y-85828739D01*
X102998075Y-85829567D01*
X102961792Y-85858531D01*
X102961787Y-85858536D01*
X102959028Y-85860738D01*
X102956527Y-85863239D01*
X102955809Y-85863881D01*
X102951461Y-85867594D01*
X102917938Y-85894935D01*
X102914015Y-85899677D01*
X102914013Y-85899679D01*
X102888703Y-85930273D01*
X102880713Y-85939053D01*
X102286871Y-86532895D01*
X102276728Y-86541997D01*
X102247225Y-86565718D01*
X102243258Y-86570446D01*
X102214959Y-86604171D01*
X102211778Y-86607819D01*
X102210135Y-86609631D01*
X102207941Y-86611825D01*
X102180608Y-86645099D01*
X102179946Y-86645897D01*
X102120096Y-86717224D01*
X102117528Y-86721894D01*
X102114147Y-86726011D01*
X102103983Y-86744967D01*
X102070273Y-86807836D01*
X102069644Y-86808995D01*
X102027788Y-86885131D01*
X102027785Y-86885139D01*
X102024817Y-86890537D01*
X102023205Y-86895619D01*
X102020688Y-86900313D01*
X101993488Y-86989281D01*
X101993168Y-86990309D01*
X101965015Y-87079056D01*
X101964421Y-87084352D01*
X101962863Y-87089448D01*
X101953892Y-87177767D01*
X101953468Y-87181937D01*
X101953339Y-87183143D01*
X101947750Y-87232977D01*
X101947750Y-87236504D01*
X101947695Y-87237489D01*
X101947248Y-87243169D01*
X101942876Y-87286212D01*
X101944074Y-87298880D01*
X101947191Y-87331859D01*
X101947750Y-87343717D01*
X101947750Y-91312640D01*
X101947094Y-91325482D01*
X101939500Y-91399600D01*
X101939500Y-92750400D01*
X101939837Y-92753646D01*
X101939837Y-92753649D01*
X101942752Y-92781739D01*
X101942931Y-92785592D01*
X101942926Y-92785638D01*
X101942941Y-92785808D01*
X101947300Y-92835638D01*
X101947629Y-92840464D01*
X101947750Y-92842936D01*
X101947750Y-92846019D01*
X101948051Y-92849087D01*
X101951940Y-92888756D01*
X101952062Y-92890069D01*
X101960163Y-92982663D01*
X101961650Y-92987782D01*
X101962170Y-92993083D01*
X101989041Y-93082084D01*
X101989376Y-93083217D01*
X102000032Y-93119892D01*
X102015341Y-93172586D01*
X102017794Y-93177318D01*
X102019334Y-93182419D01*
X102022228Y-93187862D01*
X102062981Y-93264510D01*
X102063593Y-93265676D01*
X102090816Y-93318193D01*
X102106358Y-93348176D01*
X102109681Y-93352339D01*
X102112184Y-93357046D01*
X102171005Y-93429168D01*
X102171696Y-93430024D01*
X102202988Y-93469223D01*
X102205492Y-93471727D01*
X102206134Y-93472445D01*
X102209835Y-93476778D01*
X102237185Y-93510312D01*
X102272517Y-93539541D01*
X102281287Y-93547522D01*
X103129149Y-94395383D01*
X103138251Y-94405527D01*
X103161968Y-94435025D01*
X103166696Y-94438992D01*
X103170998Y-94443385D01*
X103169762Y-94444596D01*
X103204520Y-94496847D01*
X103205641Y-94567835D01*
X103168205Y-94628160D01*
X103104098Y-94658669D01*
X103084199Y-94660250D01*
X102621600Y-94660250D01*
X102618354Y-94660587D01*
X102618350Y-94660587D01*
X102522692Y-94670512D01*
X102522688Y-94670513D01*
X102515834Y-94671224D01*
X102509298Y-94673405D01*
X102509296Y-94673405D01*
X102449820Y-94693248D01*
X102348054Y-94727200D01*
X102197652Y-94820272D01*
X102072695Y-94945447D01*
X102068855Y-94951677D01*
X102068854Y-94951678D01*
X102006760Y-95052413D01*
X101953988Y-95099906D01*
X101883916Y-95111330D01*
X101818792Y-95083056D01*
X101779293Y-95024062D01*
X101773500Y-94986297D01*
X101773500Y-94324260D01*
X101773507Y-94322941D01*
X101774377Y-94239825D01*
X101774451Y-94232779D01*
X101772962Y-94225890D01*
X101772250Y-94218885D01*
X101772656Y-94218844D01*
X101771000Y-94203353D01*
X101771000Y-93658498D01*
X101768062Y-93621169D01*
X101735855Y-93510312D01*
X101723857Y-93469012D01*
X101723856Y-93469010D01*
X101721645Y-93461399D01*
X101662756Y-93361823D01*
X101640991Y-93325020D01*
X101640989Y-93325017D01*
X101636953Y-93318193D01*
X101519307Y-93200547D01*
X101512483Y-93196511D01*
X101512480Y-93196509D01*
X101382927Y-93119892D01*
X101382928Y-93119892D01*
X101376101Y-93115855D01*
X101368490Y-93113644D01*
X101368488Y-93113643D01*
X101316269Y-93098472D01*
X101216331Y-93069438D01*
X101209926Y-93068934D01*
X101209921Y-93068933D01*
X101181458Y-93066693D01*
X101181450Y-93066693D01*
X101179002Y-93066500D01*
X100745998Y-93066500D01*
X100743550Y-93066693D01*
X100743542Y-93066693D01*
X100715079Y-93068933D01*
X100715074Y-93068934D01*
X100708669Y-93069438D01*
X100608731Y-93098472D01*
X100556512Y-93113643D01*
X100556510Y-93113644D01*
X100548899Y-93115855D01*
X100542072Y-93119892D01*
X100542073Y-93119892D01*
X100412520Y-93196509D01*
X100412517Y-93196511D01*
X100405693Y-93200547D01*
X100288047Y-93318193D01*
X100284011Y-93325017D01*
X100284009Y-93325020D01*
X100262244Y-93361823D01*
X100203355Y-93461399D01*
X100201144Y-93469010D01*
X100201143Y-93469012D01*
X100189145Y-93510312D01*
X100156938Y-93621169D01*
X100154000Y-93658498D01*
X100154000Y-94303286D01*
X100153993Y-94304606D01*
X100153049Y-94394721D01*
X100153763Y-94398025D01*
X100154000Y-94402695D01*
X100154000Y-94815500D01*
X100133998Y-94883621D01*
X100080342Y-94930114D01*
X100028000Y-94941500D01*
X99795998Y-94941500D01*
X99793550Y-94941693D01*
X99793542Y-94941693D01*
X99765079Y-94943933D01*
X99765074Y-94943934D01*
X99758669Y-94944438D01*
X99658731Y-94973472D01*
X99606512Y-94988643D01*
X99606510Y-94988644D01*
X99598899Y-94990855D01*
X99592072Y-94994892D01*
X99592073Y-94994892D01*
X99462520Y-95071509D01*
X99462517Y-95071511D01*
X99455693Y-95075547D01*
X99338047Y-95193193D01*
X99334011Y-95200017D01*
X99334009Y-95200020D01*
X99327803Y-95210514D01*
X99253355Y-95336399D01*
X99251144Y-95344010D01*
X99251143Y-95344012D01*
X99244072Y-95368350D01*
X99206938Y-95496169D01*
X99204000Y-95533498D01*
X99204000Y-95536647D01*
X99203969Y-95536746D01*
X99203903Y-95538439D01*
X99203451Y-95538421D01*
X99181964Y-95607834D01*
X99180309Y-95610251D01*
X99176346Y-95614974D01*
X99081067Y-95788287D01*
X99021265Y-95976806D01*
X99004000Y-96130727D01*
X99004000Y-99010246D01*
X98983998Y-99078367D01*
X98930342Y-99124860D01*
X98922230Y-99128228D01*
X98876408Y-99145406D01*
X98865795Y-99149385D01*
X98749239Y-99236739D01*
X98661885Y-99353295D01*
X98610755Y-99489684D01*
X98604000Y-99551866D01*
X98604000Y-101448134D01*
X98610755Y-101510316D01*
X98661885Y-101646705D01*
X98749239Y-101763261D01*
X98865795Y-101850615D01*
X99002184Y-101901745D01*
X99064366Y-101908500D01*
X100960634Y-101908500D01*
X101022816Y-101901745D01*
X101159205Y-101850615D01*
X101275761Y-101763261D01*
X101363115Y-101646705D01*
X101387680Y-101581178D01*
X101430322Y-101524414D01*
X101496883Y-101499714D01*
X101566232Y-101514921D01*
X101586147Y-101528464D01*
X101651224Y-101582492D01*
X101741849Y-101657730D01*
X101941822Y-101774584D01*
X102158194Y-101857209D01*
X102163260Y-101858240D01*
X102163261Y-101858240D01*
X102216346Y-101869040D01*
X102385156Y-101903385D01*
X102514589Y-101908131D01*
X102611449Y-101911683D01*
X102611453Y-101911683D01*
X102616613Y-101911872D01*
X102621733Y-101911216D01*
X102621735Y-101911216D01*
X102695666Y-101901745D01*
X102846347Y-101882442D01*
X102851295Y-101880957D01*
X102851302Y-101880956D01*
X103063247Y-101817369D01*
X103068190Y-101815886D01*
X103148736Y-101776427D01*
X103271549Y-101716262D01*
X103271552Y-101716260D01*
X103276184Y-101713991D01*
X103464743Y-101579494D01*
X103628803Y-101416005D01*
X103763958Y-101227917D01*
X103866578Y-101020280D01*
X103933908Y-100798671D01*
X103964140Y-100569041D01*
X103965827Y-100500000D01*
X103959532Y-100423434D01*
X103947273Y-100274318D01*
X103947272Y-100274312D01*
X103946849Y-100269167D01*
X103890425Y-100044533D01*
X103798070Y-99832131D01*
X103672264Y-99637665D01*
X103647604Y-99610564D01*
X103593806Y-99551440D01*
X103562754Y-99487594D01*
X103561000Y-99466641D01*
X103561000Y-98924500D01*
X103581002Y-98856379D01*
X103634658Y-98809886D01*
X103687000Y-98798500D01*
X106046000Y-98798500D01*
X106114121Y-98818502D01*
X106160614Y-98872158D01*
X106172000Y-98924500D01*
X106172000Y-102553000D01*
X106151998Y-102621121D01*
X106098342Y-102667614D01*
X106046000Y-102679000D01*
X90328250Y-102679000D01*
X90260129Y-102658998D01*
X90213636Y-102605342D01*
X90202250Y-102553000D01*
X90202250Y-92987500D01*
X93548996Y-92987500D01*
X93549686Y-92994065D01*
X93567827Y-93166664D01*
X93568958Y-93177428D01*
X93627973Y-93359056D01*
X93723460Y-93524444D01*
X93727878Y-93529351D01*
X93727879Y-93529352D01*
X93804990Y-93614992D01*
X93851247Y-93666366D01*
X94005748Y-93778618D01*
X94011776Y-93781302D01*
X94011778Y-93781303D01*
X94174181Y-93853609D01*
X94180212Y-93856294D01*
X94273613Y-93876147D01*
X94360556Y-93894628D01*
X94360561Y-93894628D01*
X94367013Y-93896000D01*
X94557987Y-93896000D01*
X94564439Y-93894628D01*
X94564444Y-93894628D01*
X94651387Y-93876147D01*
X94744788Y-93856294D01*
X94750819Y-93853609D01*
X94913222Y-93781303D01*
X94913224Y-93781302D01*
X94919252Y-93778618D01*
X95073753Y-93666366D01*
X95120010Y-93614992D01*
X95197121Y-93529352D01*
X95197122Y-93529351D01*
X95201540Y-93524444D01*
X95297027Y-93359056D01*
X95356042Y-93177428D01*
X95357174Y-93166664D01*
X95375314Y-92994065D01*
X95376004Y-92987500D01*
X95365626Y-92888756D01*
X95356732Y-92804135D01*
X95356732Y-92804133D01*
X95356042Y-92797572D01*
X95297027Y-92615944D01*
X95201540Y-92450556D01*
X95073753Y-92308634D01*
X94919252Y-92196382D01*
X94913224Y-92193698D01*
X94913222Y-92193697D01*
X94750819Y-92121391D01*
X94750818Y-92121391D01*
X94744788Y-92118706D01*
X94651387Y-92098853D01*
X94564444Y-92080372D01*
X94564439Y-92080372D01*
X94557987Y-92079000D01*
X94367013Y-92079000D01*
X94360561Y-92080372D01*
X94360556Y-92080372D01*
X94273613Y-92098853D01*
X94180212Y-92118706D01*
X94174182Y-92121391D01*
X94174181Y-92121391D01*
X94011778Y-92193697D01*
X94011776Y-92193698D01*
X94005748Y-92196382D01*
X93851247Y-92308634D01*
X93723460Y-92450556D01*
X93627973Y-92615944D01*
X93568958Y-92797572D01*
X93568268Y-92804133D01*
X93568268Y-92804135D01*
X93559374Y-92888756D01*
X93548996Y-92987500D01*
X90202250Y-92987500D01*
X90202250Y-72516500D01*
X90222252Y-72448379D01*
X90275908Y-72401886D01*
X90328250Y-72390500D01*
X125602856Y-72390500D01*
X125670977Y-72410502D01*
G37*
%TD.AperFunction*%
%TA.AperFunction,Conductor*%
G36*
X111068265Y-83492688D02*
G01*
X111102931Y-83520676D01*
X111105065Y-83523139D01*
X111114202Y-83533687D01*
X111287799Y-83677810D01*
X111292251Y-83680412D01*
X111292256Y-83680415D01*
X111341569Y-83709231D01*
X111390292Y-83760870D01*
X111403363Y-83830653D01*
X111376631Y-83896425D01*
X111346095Y-83923783D01*
X111343835Y-83924960D01*
X111163405Y-84060430D01*
X111007524Y-84223550D01*
X110880378Y-84409940D01*
X110878204Y-84414624D01*
X110878202Y-84414627D01*
X110806902Y-84568231D01*
X110785381Y-84614593D01*
X110725085Y-84832013D01*
X110701109Y-85056362D01*
X110701406Y-85061514D01*
X110701406Y-85061518D01*
X110707118Y-85160578D01*
X110714097Y-85281614D01*
X110715234Y-85286660D01*
X110715235Y-85286666D01*
X110736484Y-85380952D01*
X110763700Y-85501720D01*
X110765642Y-85506502D01*
X110765643Y-85506506D01*
X110835309Y-85678072D01*
X110848586Y-85710769D01*
X110856984Y-85724473D01*
X110961443Y-85894935D01*
X110966475Y-85903147D01*
X111114202Y-86073687D01*
X111287799Y-86217810D01*
X111292251Y-86220412D01*
X111292256Y-86220415D01*
X111400540Y-86283691D01*
X111482603Y-86331645D01*
X111693384Y-86412134D01*
X111698452Y-86413165D01*
X111698455Y-86413166D01*
X111806904Y-86435230D01*
X111914481Y-86457117D01*
X111919656Y-86457307D01*
X111919658Y-86457307D01*
X112134792Y-86465196D01*
X112134796Y-86465196D01*
X112139956Y-86465385D01*
X112145076Y-86464729D01*
X112145078Y-86464729D01*
X112230032Y-86453846D01*
X112363753Y-86436716D01*
X112368702Y-86435231D01*
X112368708Y-86435230D01*
X112574913Y-86373365D01*
X112574912Y-86373365D01*
X112579863Y-86371880D01*
X112690338Y-86317759D01*
X112777831Y-86274897D01*
X112777836Y-86274894D01*
X112782482Y-86272618D01*
X112786692Y-86269615D01*
X112786697Y-86269612D01*
X112961955Y-86144601D01*
X112961959Y-86144597D01*
X112966167Y-86141596D01*
X113125987Y-85982333D01*
X113246870Y-85814107D01*
X113302864Y-85770459D01*
X113373568Y-85764013D01*
X113436532Y-85796816D01*
X113456625Y-85821799D01*
X113503774Y-85898741D01*
X113503779Y-85898748D01*
X113506475Y-85903147D01*
X113509855Y-85907049D01*
X113509856Y-85907050D01*
X113578237Y-85985991D01*
X113607720Y-86050577D01*
X113609000Y-86068489D01*
X113609000Y-86081151D01*
X113588998Y-86149272D01*
X113577669Y-86164056D01*
X113577691Y-86164075D01*
X113550358Y-86197349D01*
X113549696Y-86198147D01*
X113489846Y-86269474D01*
X113487278Y-86274144D01*
X113483897Y-86278261D01*
X113478311Y-86288679D01*
X113440023Y-86360086D01*
X113439394Y-86361245D01*
X113397538Y-86437381D01*
X113397535Y-86437389D01*
X113394567Y-86442787D01*
X113392955Y-86447869D01*
X113390438Y-86452563D01*
X113363238Y-86541531D01*
X113362918Y-86542559D01*
X113334765Y-86631306D01*
X113334171Y-86636602D01*
X113332613Y-86641698D01*
X113323875Y-86727724D01*
X113323218Y-86734187D01*
X113323089Y-86735393D01*
X113317500Y-86785227D01*
X113317500Y-86788754D01*
X113317445Y-86789739D01*
X113316998Y-86795419D01*
X113312626Y-86838462D01*
X113313206Y-86844593D01*
X113316941Y-86884109D01*
X113317500Y-86895967D01*
X113317500Y-87272900D01*
X113298760Y-87339016D01*
X113295862Y-87343717D01*
X113240081Y-87434211D01*
X113233885Y-87444262D01*
X113231581Y-87451209D01*
X113181350Y-87602652D01*
X113178203Y-87612139D01*
X113167500Y-87716600D01*
X113167500Y-89067400D01*
X113167837Y-89070646D01*
X113167837Y-89070650D01*
X113177243Y-89161299D01*
X113178474Y-89173166D01*
X113234450Y-89340946D01*
X113327522Y-89491348D01*
X113452697Y-89616305D01*
X113603262Y-89709115D01*
X113683005Y-89735564D01*
X113764611Y-89762632D01*
X113764613Y-89762632D01*
X113771139Y-89764797D01*
X113777975Y-89765497D01*
X113777978Y-89765498D01*
X113821031Y-89769909D01*
X113875600Y-89775500D01*
X114234075Y-89775500D01*
X114302196Y-89795502D01*
X114348689Y-89849158D01*
X114358793Y-89919432D01*
X114329299Y-89984012D01*
X114323170Y-89990595D01*
X109315421Y-94998345D01*
X109253109Y-95032371D01*
X109226326Y-95035250D01*
X107296899Y-95035250D01*
X107228778Y-95015248D01*
X107189755Y-94975553D01*
X107170478Y-94944402D01*
X107165297Y-94939230D01*
X107164926Y-94938762D01*
X107138291Y-94872951D01*
X107151463Y-94803187D01*
X107200262Y-94751620D01*
X107263674Y-94734500D01*
X107380157Y-94734500D01*
X107393764Y-94735237D01*
X107425262Y-94738659D01*
X107425267Y-94738659D01*
X107431388Y-94739324D01*
X107457638Y-94737027D01*
X107481388Y-94734950D01*
X107486214Y-94734621D01*
X107488686Y-94734500D01*
X107491769Y-94734500D01*
X107503738Y-94733326D01*
X107534506Y-94730310D01*
X107535819Y-94730188D01*
X107580084Y-94726315D01*
X107628413Y-94722087D01*
X107633532Y-94720600D01*
X107638833Y-94720080D01*
X107727834Y-94693209D01*
X107728967Y-94692874D01*
X107812414Y-94668630D01*
X107812418Y-94668628D01*
X107818336Y-94666909D01*
X107823068Y-94664456D01*
X107828169Y-94662916D01*
X107833612Y-94660022D01*
X107910260Y-94619269D01*
X107911426Y-94618657D01*
X107988453Y-94578729D01*
X107993926Y-94575892D01*
X107998089Y-94572569D01*
X108002796Y-94570066D01*
X108074918Y-94511245D01*
X108075774Y-94510554D01*
X108114973Y-94479262D01*
X108117477Y-94476758D01*
X108118195Y-94476116D01*
X108122528Y-94472415D01*
X108156062Y-94445065D01*
X108185288Y-94409737D01*
X108193277Y-94400958D01*
X111895379Y-90698855D01*
X111905522Y-90689753D01*
X111930218Y-90669897D01*
X111935025Y-90666032D01*
X111967292Y-90627578D01*
X111970472Y-90623931D01*
X111972115Y-90622119D01*
X111974309Y-90619925D01*
X112001642Y-90586651D01*
X112002348Y-90585800D01*
X112002691Y-90585392D01*
X112062154Y-90514526D01*
X112064722Y-90509856D01*
X112068103Y-90505739D01*
X112111977Y-90423914D01*
X112112606Y-90422755D01*
X112154462Y-90346619D01*
X112154465Y-90346611D01*
X112157433Y-90341213D01*
X112159045Y-90336131D01*
X112161562Y-90331437D01*
X112188762Y-90242469D01*
X112189108Y-90241358D01*
X112196587Y-90217784D01*
X112217235Y-90152694D01*
X112217829Y-90147398D01*
X112219387Y-90142302D01*
X112228790Y-90049743D01*
X112228911Y-90048607D01*
X112234500Y-89998773D01*
X112234500Y-89995246D01*
X112234555Y-89994261D01*
X112235002Y-89988581D01*
X112239374Y-89945538D01*
X112235059Y-89899891D01*
X112234500Y-89888033D01*
X112234500Y-89511100D01*
X112253240Y-89444984D01*
X112314275Y-89345968D01*
X112314276Y-89345966D01*
X112318115Y-89339738D01*
X112373797Y-89171861D01*
X112375106Y-89159092D01*
X112384172Y-89070598D01*
X112384500Y-89067400D01*
X112384500Y-87716600D01*
X112384163Y-87713350D01*
X112374238Y-87617692D01*
X112374237Y-87617688D01*
X112373526Y-87610834D01*
X112370797Y-87602652D01*
X112319868Y-87450002D01*
X112317550Y-87443054D01*
X112224478Y-87292652D01*
X112099303Y-87167695D01*
X112086597Y-87159863D01*
X111954968Y-87078725D01*
X111954966Y-87078724D01*
X111948738Y-87074885D01*
X111788254Y-87021655D01*
X111787389Y-87021368D01*
X111787387Y-87021368D01*
X111780861Y-87019203D01*
X111774025Y-87018503D01*
X111774022Y-87018502D01*
X111730969Y-87014091D01*
X111676400Y-87008500D01*
X110775600Y-87008500D01*
X110772354Y-87008837D01*
X110772350Y-87008837D01*
X110676692Y-87018762D01*
X110676688Y-87018763D01*
X110669834Y-87019474D01*
X110663298Y-87021655D01*
X110663296Y-87021655D01*
X110589244Y-87046361D01*
X110502054Y-87075450D01*
X110351652Y-87168522D01*
X110346479Y-87173704D01*
X110337252Y-87182947D01*
X110226695Y-87293697D01*
X110222855Y-87299927D01*
X110222854Y-87299928D01*
X110140081Y-87434211D01*
X110133885Y-87444262D01*
X110131581Y-87451209D01*
X110081350Y-87602652D01*
X110078203Y-87612139D01*
X110067500Y-87716600D01*
X110067500Y-89067400D01*
X110067837Y-89070646D01*
X110067837Y-89070650D01*
X110077243Y-89161299D01*
X110078474Y-89173166D01*
X110134450Y-89340946D01*
X110178588Y-89412272D01*
X110183770Y-89420646D01*
X110202608Y-89489098D01*
X110181447Y-89556868D01*
X110165721Y-89576044D01*
X108606870Y-91134895D01*
X108544558Y-91168921D01*
X108473743Y-91163856D01*
X108416907Y-91121309D01*
X108392096Y-91054789D01*
X108396067Y-91013195D01*
X108409077Y-90964645D01*
X108410928Y-90958398D01*
X108431464Y-90895192D01*
X108432155Y-90888621D01*
X108432867Y-90881851D01*
X108436469Y-90862416D01*
X108438229Y-90855847D01*
X108438229Y-90855845D01*
X108439940Y-90849461D01*
X108443417Y-90783118D01*
X108443934Y-90776549D01*
X108446010Y-90756796D01*
X108446010Y-90736935D01*
X108446183Y-90730340D01*
X108449315Y-90670588D01*
X108449315Y-90670584D01*
X108449660Y-90663997D01*
X108447561Y-90650743D01*
X108446010Y-90631034D01*
X108446010Y-84043002D01*
X108466012Y-83974881D01*
X108519668Y-83928388D01*
X108585616Y-83917739D01*
X108622364Y-83921731D01*
X108622374Y-83921732D01*
X108625766Y-83922100D01*
X110449234Y-83922100D01*
X110511416Y-83915345D01*
X110647805Y-83864215D01*
X110764361Y-83776861D01*
X110851715Y-83660305D01*
X110865175Y-83624402D01*
X110889713Y-83558946D01*
X110932354Y-83502181D01*
X110998916Y-83477481D01*
X111068265Y-83492688D01*
G37*
%TD.AperFunction*%
M02*
