%TF.GenerationSoftware,KiCad,Pcbnew,(6.0.7)*%
%TF.CreationDate,2022-09-15T17:21:33-05:00*%
%TF.ProjectId,starlightremote,73746172-6c69-4676-9874-72656d6f7465,rev?*%
%TF.SameCoordinates,Original*%
%TF.FileFunction,Legend,Top*%
%TF.FilePolarity,Positive*%
%FSLAX46Y46*%
G04 Gerber Fmt 4.6, Leading zero omitted, Abs format (unit mm)*
G04 Created by KiCad (PCBNEW (6.0.7)) date 2022-09-15 17:21:33*
%MOMM*%
%LPD*%
G01*
G04 APERTURE LIST*
G04 Aperture macros list*
%AMRoundRect*
0 Rectangle with rounded corners*
0 $1 Rounding radius*
0 $2 $3 $4 $5 $6 $7 $8 $9 X,Y pos of 4 corners*
0 Add a 4 corners polygon primitive as box body*
4,1,4,$2,$3,$4,$5,$6,$7,$8,$9,$2,$3,0*
0 Add four circle primitives for the rounded corners*
1,1,$1+$1,$2,$3*
1,1,$1+$1,$4,$5*
1,1,$1+$1,$6,$7*
1,1,$1+$1,$8,$9*
0 Add four rect primitives between the rounded corners*
20,1,$1+$1,$2,$3,$4,$5,0*
20,1,$1+$1,$4,$5,$6,$7,0*
20,1,$1+$1,$6,$7,$8,$9,0*
20,1,$1+$1,$8,$9,$2,$3,0*%
G04 Aperture macros list end*
%ADD10C,0.150000*%
%ADD11C,0.120000*%
%ADD12RoundRect,0.301000X-0.412500X-0.650000X0.412500X-0.650000X0.412500X0.650000X-0.412500X0.650000X0*%
%ADD13RoundRect,0.301000X-0.550000X1.250000X-0.550000X-1.250000X0.550000X-1.250000X0.550000X1.250000X0*%
%ADD14RoundRect,0.051000X-0.900000X-0.900000X0.900000X-0.900000X0.900000X0.900000X-0.900000X0.900000X0*%
%ADD15C,1.902000*%
%ADD16RoundRect,0.301000X0.325000X0.450000X-0.325000X0.450000X-0.325000X-0.450000X0.325000X-0.450000X0*%
%ADD17O,0.902000X0.902000*%
%ADD18RoundRect,0.051000X-0.650000X0.225000X-0.650000X-0.225000X0.650000X-0.225000X0.650000X0.225000X0*%
%ADD19O,2.102000X1.552000*%
%ADD20O,1.902000X1.252000*%
%ADD21RoundRect,0.201000X-0.150000X0.587500X-0.150000X-0.587500X0.150000X-0.587500X0.150000X0.587500X0*%
%ADD22RoundRect,0.301000X-0.400000X-0.625000X0.400000X-0.625000X0.400000X0.625000X-0.400000X0.625000X0*%
%ADD23RoundRect,0.301000X-0.625000X0.400000X-0.625000X-0.400000X0.625000X-0.400000X0.625000X0.400000X0*%
%ADD24RoundRect,0.051000X-1.000000X-0.750000X1.000000X-0.750000X1.000000X0.750000X-1.000000X0.750000X0*%
%ADD25RoundRect,0.051000X-1.000000X-1.900000X1.000000X-1.900000X1.000000X1.900000X-1.000000X1.900000X0*%
%ADD26C,4.502000*%
%ADD27RoundRect,0.301000X0.400000X0.625000X-0.400000X0.625000X-0.400000X-0.625000X0.400000X-0.625000X0*%
%ADD28RoundRect,0.051000X-0.863600X0.863600X-0.863600X-0.863600X0.863600X-0.863600X0.863600X0.863600X0*%
%ADD29O,1.829200X1.829200*%
G04 APERTURE END LIST*
D10*
X99655333Y-82835142D02*
X99607714Y-82882761D01*
X99464857Y-82930380D01*
X99369619Y-82930380D01*
X99226761Y-82882761D01*
X99131523Y-82787523D01*
X99083904Y-82692285D01*
X99036285Y-82501809D01*
X99036285Y-82358952D01*
X99083904Y-82168476D01*
X99131523Y-82073238D01*
X99226761Y-81978000D01*
X99369619Y-81930380D01*
X99464857Y-81930380D01*
X99607714Y-81978000D01*
X99655333Y-82025619D01*
X100607714Y-82930380D02*
X100036285Y-82930380D01*
X100322000Y-82930380D02*
X100322000Y-81930380D01*
X100226761Y-82073238D01*
X100131523Y-82168476D01*
X100036285Y-82216095D01*
X97275142Y-81700666D02*
X97322761Y-81748285D01*
X97370380Y-81891142D01*
X97370380Y-81986380D01*
X97322761Y-82129238D01*
X97227523Y-82224476D01*
X97132285Y-82272095D01*
X96941809Y-82319714D01*
X96798952Y-82319714D01*
X96608476Y-82272095D01*
X96513238Y-82224476D01*
X96418000Y-82129238D01*
X96370380Y-81986380D01*
X96370380Y-81891142D01*
X96418000Y-81748285D01*
X96465619Y-81700666D01*
X96465619Y-81319714D02*
X96418000Y-81272095D01*
X96370380Y-81176857D01*
X96370380Y-80938761D01*
X96418000Y-80843523D01*
X96465619Y-80795904D01*
X96560857Y-80748285D01*
X96656095Y-80748285D01*
X96798952Y-80795904D01*
X97370380Y-81367333D01*
X97370380Y-80748285D01*
X96893154Y-101111130D02*
X96893154Y-100111130D01*
X97131250Y-100111130D01*
X97274107Y-100158750D01*
X97369345Y-100253988D01*
X97416964Y-100349226D01*
X97464583Y-100539702D01*
X97464583Y-100682559D01*
X97416964Y-100873035D01*
X97369345Y-100968273D01*
X97274107Y-101063511D01*
X97131250Y-101111130D01*
X96893154Y-101111130D01*
X98416964Y-101111130D02*
X97845535Y-101111130D01*
X98131250Y-101111130D02*
X98131250Y-100111130D01*
X98036011Y-100253988D01*
X97940773Y-100349226D01*
X97845535Y-100396845D01*
X98885416Y-89684821D02*
X98552083Y-89684821D01*
X98552083Y-90208630D02*
X98552083Y-89208630D01*
X99028273Y-89208630D01*
X99933035Y-90208630D02*
X99361607Y-90208630D01*
X99647321Y-90208630D02*
X99647321Y-89208630D01*
X99552083Y-89351488D01*
X99456845Y-89446726D01*
X99361607Y-89494345D01*
X97083630Y-90820833D02*
X97797916Y-90820833D01*
X97940773Y-90868452D01*
X98036011Y-90963690D01*
X98083630Y-91106547D01*
X98083630Y-91201785D01*
X98083630Y-89820833D02*
X98083630Y-90392261D01*
X98083630Y-90106547D02*
X97083630Y-90106547D01*
X97226488Y-90201785D01*
X97321726Y-90297023D01*
X97369345Y-90392261D01*
X101893619Y-96869238D02*
X101846000Y-96964476D01*
X101750761Y-97059714D01*
X101607904Y-97202571D01*
X101560285Y-97297809D01*
X101560285Y-97393047D01*
X101798380Y-97345428D02*
X101750761Y-97440666D01*
X101655523Y-97535904D01*
X101465047Y-97583523D01*
X101131714Y-97583523D01*
X100941238Y-97535904D01*
X100846000Y-97440666D01*
X100798380Y-97345428D01*
X100798380Y-97154952D01*
X100846000Y-97059714D01*
X100941238Y-96964476D01*
X101131714Y-96916857D01*
X101465047Y-96916857D01*
X101655523Y-96964476D01*
X101750761Y-97059714D01*
X101798380Y-97154952D01*
X101798380Y-97345428D01*
X101798380Y-95964476D02*
X101798380Y-96535904D01*
X101798380Y-96250190D02*
X100798380Y-96250190D01*
X100941238Y-96345428D01*
X101036476Y-96440666D01*
X101084095Y-96535904D01*
X104455333Y-98496380D02*
X104122000Y-98020190D01*
X103883904Y-98496380D02*
X103883904Y-97496380D01*
X104264857Y-97496380D01*
X104360095Y-97544000D01*
X104407714Y-97591619D01*
X104455333Y-97686857D01*
X104455333Y-97829714D01*
X104407714Y-97924952D01*
X104360095Y-97972571D01*
X104264857Y-98020190D01*
X103883904Y-98020190D01*
X105407714Y-98496380D02*
X104836285Y-98496380D01*
X105122000Y-98496380D02*
X105122000Y-97496380D01*
X105026761Y-97639238D01*
X104931523Y-97734476D01*
X104836285Y-97782095D01*
X108037333Y-91638380D02*
X107704000Y-91162190D01*
X107465904Y-91638380D02*
X107465904Y-90638380D01*
X107846857Y-90638380D01*
X107942095Y-90686000D01*
X107989714Y-90733619D01*
X108037333Y-90828857D01*
X108037333Y-90971714D01*
X107989714Y-91066952D01*
X107942095Y-91114571D01*
X107846857Y-91162190D01*
X107465904Y-91162190D01*
X108418285Y-90733619D02*
X108465904Y-90686000D01*
X108561142Y-90638380D01*
X108799238Y-90638380D01*
X108894476Y-90686000D01*
X108942095Y-90733619D01*
X108989714Y-90828857D01*
X108989714Y-90924095D01*
X108942095Y-91066952D01*
X108370666Y-91638380D01*
X108989714Y-91638380D01*
X107047380Y-88330666D02*
X106571190Y-88664000D01*
X107047380Y-88902095D02*
X106047380Y-88902095D01*
X106047380Y-88521142D01*
X106095000Y-88425904D01*
X106142619Y-88378285D01*
X106237857Y-88330666D01*
X106380714Y-88330666D01*
X106475952Y-88378285D01*
X106523571Y-88425904D01*
X106571190Y-88521142D01*
X106571190Y-88902095D01*
X106047380Y-87997333D02*
X106047380Y-87378285D01*
X106428333Y-87711619D01*
X106428333Y-87568761D01*
X106475952Y-87473523D01*
X106523571Y-87425904D01*
X106618809Y-87378285D01*
X106856904Y-87378285D01*
X106952142Y-87425904D01*
X106999761Y-87473523D01*
X107047380Y-87568761D01*
X107047380Y-87854476D01*
X106999761Y-87949714D01*
X106952142Y-87997333D01*
X103415595Y-78813880D02*
X103415595Y-79623404D01*
X103463214Y-79718642D01*
X103510833Y-79766261D01*
X103606071Y-79813880D01*
X103796547Y-79813880D01*
X103891785Y-79766261D01*
X103939404Y-79718642D01*
X103987023Y-79623404D01*
X103987023Y-78813880D01*
X104987023Y-79813880D02*
X104415595Y-79813880D01*
X104701309Y-79813880D02*
X104701309Y-78813880D01*
X104606071Y-78956738D01*
X104510833Y-79051976D01*
X104415595Y-79099595D01*
X112609333Y-90664380D02*
X112276000Y-90188190D01*
X112037904Y-90664380D02*
X112037904Y-89664380D01*
X112418857Y-89664380D01*
X112514095Y-89712000D01*
X112561714Y-89759619D01*
X112609333Y-89854857D01*
X112609333Y-89997714D01*
X112561714Y-90092952D01*
X112514095Y-90140571D01*
X112418857Y-90188190D01*
X112037904Y-90188190D01*
X113466476Y-89997714D02*
X113466476Y-90664380D01*
X113228380Y-89616761D02*
X112990285Y-90331047D01*
X113609333Y-90331047D01*
D11*
X99110748Y-85238000D02*
X100533252Y-85238000D01*
X99110748Y-83418000D02*
X100533252Y-83418000D01*
X94903000Y-77909000D02*
X94903000Y-78534000D01*
X95978000Y-79838437D02*
X95978000Y-84294000D01*
X91522437Y-78774000D02*
X92158000Y-78774000D01*
X95978000Y-84294000D02*
X94278000Y-84294000D01*
X90458000Y-79838437D02*
X90458000Y-84294000D01*
X90458000Y-84294000D02*
X92158000Y-84294000D01*
X94913563Y-78774000D02*
X95978000Y-79838437D01*
X94913563Y-78774000D02*
X94278000Y-78774000D01*
X95215500Y-78221500D02*
X94590500Y-78221500D01*
X91522437Y-78774000D02*
X90458000Y-79838437D01*
X99722500Y-101580000D02*
X99722500Y-101736000D01*
X99722500Y-99264000D02*
X99722500Y-99420000D01*
X102954835Y-99421392D02*
G75*
G03*
X99722500Y-99264484I-1672335J-1078608D01*
G01*
X99722500Y-101735516D02*
G75*
G03*
X102954835Y-101578608I1560000J1235516D01*
G01*
X100241539Y-101580000D02*
G75*
G03*
X102323630Y-101579837I1040961J1080000D01*
G01*
X102323630Y-99420163D02*
G75*
G03*
X100241539Y-99420000I-1041130J-1079837D01*
G01*
X99480002Y-87396250D02*
X98957498Y-87396250D01*
X99480002Y-88816250D02*
X98957498Y-88816250D01*
D10*
X94312500Y-86337500D02*
X92912500Y-86337500D01*
X90512500Y-86337500D02*
X90362500Y-86337500D01*
X90362500Y-94637500D02*
X90512500Y-94637500D01*
X90362500Y-86337500D02*
X90362500Y-86637500D01*
X90362500Y-86637500D02*
X89912500Y-86637500D01*
X96062500Y-92287500D02*
X96062500Y-93287500D01*
X92912500Y-94637500D02*
X94312500Y-94637500D01*
X96487500Y-88687500D02*
X96062500Y-88687500D01*
X96062500Y-88687500D02*
X96062500Y-87687500D01*
X89912500Y-94337500D02*
X90362500Y-94337500D01*
X96487500Y-89412500D02*
X96487500Y-88687500D01*
X90362500Y-94337500D02*
X90362500Y-94637500D01*
D11*
X101572500Y-95250000D02*
X101572500Y-93575000D01*
X101572500Y-95250000D02*
X101572500Y-95900000D01*
X98452500Y-95250000D02*
X98452500Y-94600000D01*
X98452500Y-95250000D02*
X98452500Y-95900000D01*
X103894936Y-95133750D02*
X105349064Y-95133750D01*
X103894936Y-96953750D02*
X105349064Y-96953750D01*
X103920936Y-91165000D02*
X105375064Y-91165000D01*
X103920936Y-92985000D02*
X105375064Y-92985000D01*
X103865000Y-87436936D02*
X103865000Y-88891064D01*
X105685000Y-87436936D02*
X105685000Y-88891064D01*
X102900000Y-79864000D02*
X102900000Y-78604000D01*
X99140000Y-79864000D02*
X102900000Y-79864000D01*
X102900000Y-73044000D02*
X102900000Y-74304000D01*
X96890000Y-73044000D02*
X102900000Y-73044000D01*
X113503064Y-89302000D02*
X112048936Y-89302000D01*
X113503064Y-87482000D02*
X112048936Y-87482000D01*
%LPC*%
D12*
X98259500Y-84328000D03*
X101384500Y-84328000D03*
D13*
X93218000Y-79334000D03*
X93218000Y-83734000D03*
D14*
X100012500Y-100500000D03*
D15*
X102552500Y-100500000D03*
D16*
X100243750Y-88106250D03*
X98193750Y-88106250D03*
D17*
X94462500Y-87987500D03*
X94462500Y-92987500D03*
D18*
X95562500Y-89187500D03*
X95562500Y-89837500D03*
X95562500Y-90487500D03*
X95562500Y-91137500D03*
X95562500Y-91787500D03*
D19*
X95512500Y-94212500D03*
D20*
X91712500Y-94362500D03*
D19*
X95512500Y-86762500D03*
D20*
X91712500Y-86612500D03*
D21*
X100962500Y-94312500D03*
X99062500Y-94312500D03*
X100012500Y-96187500D03*
D22*
X103072000Y-96043750D03*
X106172000Y-96043750D03*
X103098000Y-92075000D03*
X106198000Y-92075000D03*
D23*
X104775000Y-86614000D03*
X104775000Y-89714000D03*
D24*
X97840000Y-74154000D03*
X97840000Y-76454000D03*
D25*
X104140000Y-76454000D03*
D24*
X97840000Y-78754000D03*
D26*
X92868750Y-100012500D03*
X92841250Y-74993500D03*
X123003750Y-74993500D03*
X123031250Y-100012500D03*
D27*
X114326000Y-88392000D03*
X111226000Y-88392000D03*
D28*
X109537500Y-82550000D03*
D29*
X109537500Y-85090000D03*
X112077500Y-82550000D03*
X112077500Y-85090000D03*
X114617500Y-82550000D03*
X114617500Y-85090000D03*
X117157500Y-82550000D03*
X117157500Y-85090000D03*
M02*
