%TF.GenerationSoftware,KiCad,Pcbnew,(6.0.7)*%
%TF.CreationDate,2022-09-15T17:21:33-05:00*%
%TF.ProjectId,starlightremote,73746172-6c69-4676-9874-72656d6f7465,rev?*%
%TF.SameCoordinates,Original*%
%TF.FileFunction,Legend,Bot*%
%TF.FilePolarity,Positive*%
%FSLAX46Y46*%
G04 Gerber Fmt 4.6, Leading zero omitted, Abs format (unit mm)*
G04 Created by KiCad (PCBNEW (6.0.7)) date 2022-09-15 17:21:33*
%MOMM*%
%LPD*%
G01*
G04 APERTURE LIST*
G04 Aperture macros list*
%AMRoundRect*
0 Rectangle with rounded corners*
0 $1 Rounding radius*
0 $2 $3 $4 $5 $6 $7 $8 $9 X,Y pos of 4 corners*
0 Add a 4 corners polygon primitive as box body*
4,1,4,$2,$3,$4,$5,$6,$7,$8,$9,$2,$3,0*
0 Add four circle primitives for the rounded corners*
1,1,$1+$1,$2,$3*
1,1,$1+$1,$4,$5*
1,1,$1+$1,$6,$7*
1,1,$1+$1,$8,$9*
0 Add four rect primitives between the rounded corners*
20,1,$1+$1,$2,$3,$4,$5,0*
20,1,$1+$1,$4,$5,$6,$7,0*
20,1,$1+$1,$6,$7,$8,$9,0*
20,1,$1+$1,$8,$9,$2,$3,0*%
G04 Aperture macros list end*
%ADD10C,0.150000*%
%ADD11C,0.120000*%
%ADD12C,0.254000*%
%ADD13C,0.152400*%
%ADD14R,1.727200X1.727200*%
%ADD15O,1.727200X1.727200*%
%ADD16RoundRect,0.051000X-0.750000X0.750000X-0.750000X-0.750000X0.750000X-0.750000X0.750000X0.750000X0*%
%ADD17RoundRect,0.051000X-0.900000X-0.900000X0.900000X-0.900000X0.900000X0.900000X-0.900000X0.900000X0*%
%ADD18C,1.902000*%
%ADD19O,0.902000X0.902000*%
%ADD20O,2.102000X1.552000*%
%ADD21O,1.902000X1.252000*%
%ADD22C,4.502000*%
%ADD23RoundRect,0.051000X-0.863600X0.863600X-0.863600X-0.863600X0.863600X-0.863600X0.863600X0.863600X0*%
%ADD24O,1.829200X1.829200*%
G04 APERTURE END LIST*
D10*
X115522000Y-74323380D02*
X115998190Y-74323380D01*
X115998190Y-73323380D01*
X115045809Y-74323380D02*
X115141047Y-74275761D01*
X115188666Y-74228142D01*
X115236285Y-74132904D01*
X115236285Y-73847190D01*
X115188666Y-73751952D01*
X115141047Y-73704333D01*
X115045809Y-73656714D01*
X114902952Y-73656714D01*
X114807714Y-73704333D01*
X114760095Y-73751952D01*
X114712476Y-73847190D01*
X114712476Y-74132904D01*
X114760095Y-74228142D01*
X114807714Y-74275761D01*
X114902952Y-74323380D01*
X115045809Y-74323380D01*
X114283904Y-74323380D02*
X114283904Y-73656714D01*
X114283904Y-73847190D02*
X114236285Y-73751952D01*
X114188666Y-73704333D01*
X114093428Y-73656714D01*
X113998190Y-73656714D01*
X113236285Y-74323380D02*
X113236285Y-73323380D01*
X113236285Y-74275761D02*
X113331523Y-74323380D01*
X113522000Y-74323380D01*
X113617238Y-74275761D01*
X113664857Y-74228142D01*
X113712476Y-74132904D01*
X113712476Y-73847190D01*
X113664857Y-73751952D01*
X113617238Y-73704333D01*
X113522000Y-73656714D01*
X113331523Y-73656714D01*
X113236285Y-73704333D01*
X112283904Y-74323380D02*
X112760095Y-74323380D01*
X112760095Y-73323380D01*
X111522000Y-74323380D02*
X111522000Y-73799571D01*
X111569619Y-73704333D01*
X111664857Y-73656714D01*
X111855333Y-73656714D01*
X111950571Y-73704333D01*
X111522000Y-74275761D02*
X111617238Y-74323380D01*
X111855333Y-74323380D01*
X111950571Y-74275761D01*
X111998190Y-74180523D01*
X111998190Y-74085285D01*
X111950571Y-73990047D01*
X111855333Y-73942428D01*
X111617238Y-73942428D01*
X111522000Y-73894809D01*
X111045809Y-74323380D02*
X111045809Y-73323380D01*
X111045809Y-73704333D02*
X110950571Y-73656714D01*
X110760095Y-73656714D01*
X110664857Y-73704333D01*
X110617238Y-73751952D01*
X110569619Y-73847190D01*
X110569619Y-74132904D01*
X110617238Y-74228142D01*
X110664857Y-74275761D01*
X110760095Y-74323380D01*
X110950571Y-74323380D01*
X111045809Y-74275761D01*
X110188666Y-74275761D02*
X110093428Y-74323380D01*
X109902952Y-74323380D01*
X109807714Y-74275761D01*
X109760095Y-74180523D01*
X109760095Y-74132904D01*
X109807714Y-74037666D01*
X109902952Y-73990047D01*
X110045809Y-73990047D01*
X110141047Y-73942428D01*
X110188666Y-73847190D01*
X110188666Y-73799571D01*
X110141047Y-73704333D01*
X110045809Y-73656714D01*
X109902952Y-73656714D01*
X109807714Y-73704333D01*
X120450571Y-75885761D02*
X120307714Y-75933380D01*
X120069619Y-75933380D01*
X119974380Y-75885761D01*
X119926761Y-75838142D01*
X119879142Y-75742904D01*
X119879142Y-75647666D01*
X119926761Y-75552428D01*
X119974380Y-75504809D01*
X120069619Y-75457190D01*
X120260095Y-75409571D01*
X120355333Y-75361952D01*
X120402952Y-75314333D01*
X120450571Y-75219095D01*
X120450571Y-75123857D01*
X120402952Y-75028619D01*
X120355333Y-74981000D01*
X120260095Y-74933380D01*
X120022000Y-74933380D01*
X119879142Y-74981000D01*
X119593428Y-75266714D02*
X119212476Y-75266714D01*
X119450571Y-74933380D02*
X119450571Y-75790523D01*
X119402952Y-75885761D01*
X119307714Y-75933380D01*
X119212476Y-75933380D01*
X118450571Y-75933380D02*
X118450571Y-75409571D01*
X118498190Y-75314333D01*
X118593428Y-75266714D01*
X118783904Y-75266714D01*
X118879142Y-75314333D01*
X118450571Y-75885761D02*
X118545809Y-75933380D01*
X118783904Y-75933380D01*
X118879142Y-75885761D01*
X118926761Y-75790523D01*
X118926761Y-75695285D01*
X118879142Y-75600047D01*
X118783904Y-75552428D01*
X118545809Y-75552428D01*
X118450571Y-75504809D01*
X117974380Y-75933380D02*
X117974380Y-75266714D01*
X117974380Y-75457190D02*
X117926761Y-75361952D01*
X117879142Y-75314333D01*
X117783904Y-75266714D01*
X117688666Y-75266714D01*
X116879142Y-75933380D02*
X117355333Y-75933380D01*
X117355333Y-74933380D01*
X116545809Y-75933380D02*
X116545809Y-75266714D01*
X116545809Y-74933380D02*
X116593428Y-74981000D01*
X116545809Y-75028619D01*
X116498190Y-74981000D01*
X116545809Y-74933380D01*
X116545809Y-75028619D01*
X115641047Y-75266714D02*
X115641047Y-76076238D01*
X115688666Y-76171476D01*
X115736285Y-76219095D01*
X115831523Y-76266714D01*
X115974380Y-76266714D01*
X116069619Y-76219095D01*
X115641047Y-75885761D02*
X115736285Y-75933380D01*
X115926761Y-75933380D01*
X116022000Y-75885761D01*
X116069619Y-75838142D01*
X116117238Y-75742904D01*
X116117238Y-75457190D01*
X116069619Y-75361952D01*
X116022000Y-75314333D01*
X115926761Y-75266714D01*
X115736285Y-75266714D01*
X115641047Y-75314333D01*
X115164857Y-75933380D02*
X115164857Y-74933380D01*
X114736285Y-75933380D02*
X114736285Y-75409571D01*
X114783904Y-75314333D01*
X114879142Y-75266714D01*
X115022000Y-75266714D01*
X115117238Y-75314333D01*
X115164857Y-75361952D01*
X114402952Y-75266714D02*
X114022000Y-75266714D01*
X114260095Y-74933380D02*
X114260095Y-75790523D01*
X114212476Y-75885761D01*
X114117238Y-75933380D01*
X114022000Y-75933380D01*
X113117238Y-75933380D02*
X113450571Y-75457190D01*
X113688666Y-75933380D02*
X113688666Y-74933380D01*
X113307714Y-74933380D01*
X113212476Y-74981000D01*
X113164857Y-75028619D01*
X113117238Y-75123857D01*
X113117238Y-75266714D01*
X113164857Y-75361952D01*
X113212476Y-75409571D01*
X113307714Y-75457190D01*
X113688666Y-75457190D01*
X112307714Y-75885761D02*
X112402952Y-75933380D01*
X112593428Y-75933380D01*
X112688666Y-75885761D01*
X112736285Y-75790523D01*
X112736285Y-75409571D01*
X112688666Y-75314333D01*
X112593428Y-75266714D01*
X112402952Y-75266714D01*
X112307714Y-75314333D01*
X112260095Y-75409571D01*
X112260095Y-75504809D01*
X112736285Y-75600047D01*
X111831523Y-75933380D02*
X111831523Y-75266714D01*
X111831523Y-75361952D02*
X111783904Y-75314333D01*
X111688666Y-75266714D01*
X111545809Y-75266714D01*
X111450571Y-75314333D01*
X111402952Y-75409571D01*
X111402952Y-75933380D01*
X111402952Y-75409571D02*
X111355333Y-75314333D01*
X111260095Y-75266714D01*
X111117238Y-75266714D01*
X111022000Y-75314333D01*
X110974380Y-75409571D01*
X110974380Y-75933380D01*
X110355333Y-75933380D02*
X110450571Y-75885761D01*
X110498190Y-75838142D01*
X110545809Y-75742904D01*
X110545809Y-75457190D01*
X110498190Y-75361952D01*
X110450571Y-75314333D01*
X110355333Y-75266714D01*
X110212476Y-75266714D01*
X110117238Y-75314333D01*
X110069619Y-75361952D01*
X110022000Y-75457190D01*
X110022000Y-75742904D01*
X110069619Y-75838142D01*
X110117238Y-75885761D01*
X110212476Y-75933380D01*
X110355333Y-75933380D01*
X109736285Y-75266714D02*
X109355333Y-75266714D01*
X109593428Y-74933380D02*
X109593428Y-75790523D01*
X109545809Y-75885761D01*
X109450571Y-75933380D01*
X109355333Y-75933380D01*
X108641047Y-75885761D02*
X108736285Y-75933380D01*
X108926761Y-75933380D01*
X109022000Y-75885761D01*
X109069619Y-75790523D01*
X109069619Y-75409571D01*
X109022000Y-75314333D01*
X108926761Y-75266714D01*
X108736285Y-75266714D01*
X108641047Y-75314333D01*
X108593428Y-75409571D01*
X108593428Y-75504809D01*
X109069619Y-75600047D01*
X107545809Y-74933380D02*
X107212476Y-75933380D01*
X106879142Y-74933380D01*
X106022000Y-75933380D02*
X106593428Y-75933380D01*
X106307714Y-75933380D02*
X106307714Y-74933380D01*
X106402952Y-75076238D01*
X106498190Y-75171476D01*
X106593428Y-75219095D01*
X105593428Y-75838142D02*
X105545809Y-75885761D01*
X105593428Y-75933380D01*
X105641047Y-75885761D01*
X105593428Y-75838142D01*
X105593428Y-75933380D01*
X104593428Y-75933380D02*
X105164857Y-75933380D01*
X104879142Y-75933380D02*
X104879142Y-74933380D01*
X104974380Y-75076238D01*
X105069619Y-75171476D01*
X105164857Y-75219095D01*
X125411904Y-93554761D02*
X125269047Y-93602380D01*
X125030952Y-93602380D01*
X124935714Y-93554761D01*
X124888095Y-93507142D01*
X124840476Y-93411904D01*
X124840476Y-93316666D01*
X124888095Y-93221428D01*
X124935714Y-93173809D01*
X125030952Y-93126190D01*
X125221428Y-93078571D01*
X125316666Y-93030952D01*
X125364285Y-92983333D01*
X125411904Y-92888095D01*
X125411904Y-92792857D01*
X125364285Y-92697619D01*
X125316666Y-92650000D01*
X125221428Y-92602380D01*
X124983333Y-92602380D01*
X124840476Y-92650000D01*
X123888095Y-93602380D02*
X124459523Y-93602380D01*
X124173809Y-93602380D02*
X124173809Y-92602380D01*
X124269047Y-92745238D01*
X124364285Y-92840476D01*
X124459523Y-92888095D01*
X104417880Y-82042095D02*
X105227404Y-82042095D01*
X105322642Y-82089714D01*
X105370261Y-82137333D01*
X105417880Y-82232571D01*
X105417880Y-82423047D01*
X105370261Y-82518285D01*
X105322642Y-82565904D01*
X105227404Y-82613523D01*
X104417880Y-82613523D01*
X104513119Y-83042095D02*
X104465500Y-83089714D01*
X104417880Y-83184952D01*
X104417880Y-83423047D01*
X104465500Y-83518285D01*
X104513119Y-83565904D01*
X104608357Y-83613523D01*
X104703595Y-83613523D01*
X104846452Y-83565904D01*
X105417880Y-82994476D01*
X105417880Y-83613523D01*
D11*
X121181250Y-90372500D02*
X124881250Y-90372500D01*
X124881250Y-90372500D02*
X124881250Y-84252500D01*
X124881250Y-84252500D02*
X121181250Y-84252500D01*
X121181250Y-84252500D02*
X121181250Y-90372500D01*
D12*
X120459500Y-80772000D02*
X106235500Y-80772000D01*
D13*
X118427500Y-81280000D02*
X118427500Y-86360000D01*
X118427500Y-86360000D02*
X108267500Y-86360000D01*
D12*
X106235500Y-80772000D02*
X106235500Y-105410000D01*
D13*
X108267500Y-83820000D02*
X108267500Y-81280000D01*
X110807500Y-81280000D02*
X118427500Y-81280000D01*
X108267500Y-81280000D02*
X110807500Y-81280000D01*
X108267500Y-86360000D02*
X108267500Y-83820000D01*
D12*
X120459500Y-105410000D02*
X120459500Y-80772000D01*
X106235500Y-105410000D02*
X120459500Y-105410000D01*
D14*
X109537500Y-82550000D03*
D15*
X109537500Y-85090000D03*
X112077500Y-82550000D03*
X112077500Y-85090000D03*
X114617500Y-82550000D03*
X114617500Y-85090000D03*
X117157500Y-82550000D03*
X117157500Y-85090000D03*
%LPC*%
D16*
X123031250Y-83412500D03*
X123031250Y-91212500D03*
D17*
X100012500Y-100500000D03*
D18*
X102552500Y-100500000D03*
D19*
X94462500Y-87987500D03*
X94462500Y-92987500D03*
D20*
X95512500Y-94212500D03*
D21*
X91712500Y-94362500D03*
D20*
X95512500Y-86762500D03*
D21*
X91712500Y-86612500D03*
D22*
X92868750Y-100012500D03*
X92841250Y-74993500D03*
X123003750Y-74993500D03*
X123031250Y-100012500D03*
D23*
X109537500Y-82550000D03*
D24*
X109537500Y-85090000D03*
X112077500Y-82550000D03*
X112077500Y-85090000D03*
X114617500Y-82550000D03*
X114617500Y-85090000D03*
X117157500Y-82550000D03*
X117157500Y-85090000D03*
M02*
